G75*
G70*
%OFA0B0*%
%FSLAX25Y25*%
%IPPOS*%
%LPD*%
%AMOC8*
5,1,8,0,0,1.08239X$1,22.5*
%
%AMM13*
21,1,0.076380,0.036220,0.000000,0.000000,0.000000*
21,1,0.061810,0.050790,0.000000,0.000000,0.000000*
1,1,0.014570,0.030910,-0.018110*
1,1,0.014570,-0.030910,-0.018110*
1,1,0.014570,-0.030910,0.018110*
1,1,0.014570,0.030910,0.018110*
%
%AMM14*
21,1,0.038980,0.026770,0.000000,0.000000,180.000000*
21,1,0.026770,0.038980,0.000000,0.000000,180.000000*
1,1,0.012210,-0.013390,0.013390*
1,1,0.012210,0.013390,0.013390*
1,1,0.012210,0.013390,-0.013390*
1,1,0.012210,-0.013390,-0.013390*
%
%AMM142*
21,1,0.040950,0.030320,-0.000000,-0.000000,0.000000*
21,1,0.028350,0.042910,-0.000000,-0.000000,0.000000*
1,1,0.012600,0.014170,-0.015160*
1,1,0.012600,-0.014170,-0.015160*
1,1,0.012600,-0.014170,0.015160*
1,1,0.012600,0.014170,0.015160*
%
%AMM143*
21,1,0.038980,0.026770,-0.000000,-0.000000,180.000000*
21,1,0.026770,0.038980,-0.000000,-0.000000,180.000000*
1,1,0.012210,-0.013390,0.013390*
1,1,0.012210,0.013390,0.013390*
1,1,0.012210,0.013390,-0.013390*
1,1,0.012210,-0.013390,-0.013390*
%
%AMM144*
21,1,0.033070,0.030710,-0.000000,-0.000000,0.000000*
21,1,0.022050,0.041730,-0.000000,-0.000000,0.000000*
1,1,0.011020,0.011020,-0.015350*
1,1,0.011020,-0.011020,-0.015350*
1,1,0.011020,-0.011020,0.015350*
1,1,0.011020,0.011020,0.015350*
%
%AMM148*
21,1,0.040950,0.030320,0.000000,-0.000000,90.000000*
21,1,0.028350,0.042910,0.000000,-0.000000,90.000000*
1,1,0.012600,0.015160,0.014170*
1,1,0.012600,0.015160,-0.014170*
1,1,0.012600,-0.015160,-0.014170*
1,1,0.012600,-0.015160,0.014170*
%
%AMM149*
21,1,0.038980,0.026770,0.000000,-0.000000,270.000000*
21,1,0.026770,0.038980,0.000000,-0.000000,270.000000*
1,1,0.012210,-0.013390,-0.013390*
1,1,0.012210,-0.013390,0.013390*
1,1,0.012210,0.013390,0.013390*
1,1,0.012210,0.013390,-0.013390*
%
%AMM15*
21,1,0.040950,0.030320,0.000000,0.000000,90.000000*
21,1,0.028350,0.042910,0.000000,0.000000,90.000000*
1,1,0.012600,0.015160,0.014170*
1,1,0.012600,0.015160,-0.014170*
1,1,0.012600,-0.015160,-0.014170*
1,1,0.012600,-0.015160,0.014170*
%
%AMM150*
21,1,0.033070,0.030710,0.000000,-0.000000,90.000000*
21,1,0.022050,0.041730,0.000000,-0.000000,90.000000*
1,1,0.011020,0.015350,0.011020*
1,1,0.011020,0.015350,-0.011020*
1,1,0.011020,-0.015350,-0.011020*
1,1,0.011020,-0.015350,0.011020*
%
%AMM16*
21,1,0.027170,0.052760,0.000000,0.000000,0.000000*
21,1,0.017320,0.062600,0.000000,0.000000,0.000000*
1,1,0.009840,0.008660,-0.026380*
1,1,0.009840,-0.008660,-0.026380*
1,1,0.009840,-0.008660,0.026380*
1,1,0.009840,0.008660,0.026380*
%
%AMM17*
21,1,0.100000,0.111020,0.000000,0.000000,180.000000*
21,1,0.075590,0.135430,0.000000,0.000000,180.000000*
1,1,0.024410,-0.037800,0.055510*
1,1,0.024410,0.037800,0.055510*
1,1,0.024410,0.037800,-0.055510*
1,1,0.024410,-0.037800,-0.055510*
%
%AMM18*
21,1,0.029130,0.018900,0.000000,0.000000,270.000000*
21,1,0.018900,0.029130,0.000000,0.000000,270.000000*
1,1,0.010240,-0.009450,-0.009450*
1,1,0.010240,-0.009450,0.009450*
1,1,0.010240,0.009450,0.009450*
1,1,0.010240,0.009450,-0.009450*
%
%AMM181*
21,1,0.111810,0.050390,-0.000000,-0.000000,180.000000*
21,1,0.093700,0.068500,-0.000000,-0.000000,180.000000*
1,1,0.018110,-0.046850,0.025200*
1,1,0.018110,0.046850,0.025200*
1,1,0.018110,0.046850,-0.025200*
1,1,0.018110,-0.046850,-0.025200*
%
%AMM182*
21,1,0.044880,0.049210,-0.000000,-0.000000,270.000000*
21,1,0.031500,0.062600,-0.000000,-0.000000,270.000000*
1,1,0.013390,-0.024610,-0.015750*
1,1,0.013390,-0.024610,0.015750*
1,1,0.013390,0.024610,0.015750*
1,1,0.013390,0.024610,-0.015750*
%
%AMM183*
21,1,0.076380,0.036220,-0.000000,-0.000000,0.000000*
21,1,0.061810,0.050790,-0.000000,-0.000000,0.000000*
1,1,0.014570,0.030910,-0.018110*
1,1,0.014570,-0.030910,-0.018110*
1,1,0.014570,-0.030910,0.018110*
1,1,0.014570,0.030910,0.018110*
%
%AMM184*
21,1,0.092130,0.073230,-0.000000,-0.000000,270.000000*
21,1,0.069290,0.096060,-0.000000,-0.000000,270.000000*
1,1,0.022840,-0.036610,-0.034650*
1,1,0.022840,-0.036610,0.034650*
1,1,0.022840,0.036610,0.034650*
1,1,0.022840,0.036610,-0.034650*
%
%AMM185*
21,1,0.084250,0.053540,-0.000000,-0.000000,0.000000*
21,1,0.065350,0.072440,-0.000000,-0.000000,0.000000*
1,1,0.018900,0.032680,-0.026770*
1,1,0.018900,-0.032680,-0.026770*
1,1,0.018900,-0.032680,0.026770*
1,1,0.018900,0.032680,0.026770*
%
%AMM186*
21,1,0.127560,0.075590,-0.000000,-0.000000,90.000000*
21,1,0.103150,0.100000,-0.000000,-0.000000,90.000000*
1,1,0.024410,0.037800,0.051580*
1,1,0.024410,0.037800,-0.051580*
1,1,0.024410,-0.037800,-0.051580*
1,1,0.024410,-0.037800,0.051580*
%
%AMM187*
21,1,0.038980,0.026770,-0.000000,-0.000000,0.000000*
21,1,0.026770,0.038980,-0.000000,-0.000000,0.000000*
1,1,0.012210,0.013390,-0.013390*
1,1,0.012210,-0.013390,-0.013390*
1,1,0.012210,-0.013390,0.013390*
1,1,0.012210,0.013390,0.013390*
%
%AMM188*
21,1,0.038980,0.026770,-0.000000,-0.000000,90.000000*
21,1,0.026770,0.038980,-0.000000,-0.000000,90.000000*
1,1,0.012210,0.013390,0.013390*
1,1,0.012210,0.013390,-0.013390*
1,1,0.012210,-0.013390,-0.013390*
1,1,0.012210,-0.013390,0.013390*
%
%AMM189*
21,1,0.080320,0.083460,-0.000000,-0.000000,0.000000*
21,1,0.059840,0.103940,-0.000000,-0.000000,0.000000*
1,1,0.020470,0.029920,-0.041730*
1,1,0.020470,-0.029920,-0.041730*
1,1,0.020470,-0.029920,0.041730*
1,1,0.020470,0.029920,0.041730*
%
%AMM19*
21,1,0.041340,0.026770,0.000000,0.000000,0.000000*
21,1,0.029130,0.038980,0.000000,0.000000,0.000000*
1,1,0.012210,0.014570,-0.013390*
1,1,0.012210,-0.014570,-0.013390*
1,1,0.012210,-0.014570,0.013390*
1,1,0.012210,0.014570,0.013390*
%
%AMM190*
21,1,0.033070,0.030710,-0.000000,-0.000000,270.000000*
21,1,0.022050,0.041730,-0.000000,-0.000000,270.000000*
1,1,0.011020,-0.015350,-0.011020*
1,1,0.011020,-0.015350,0.011020*
1,1,0.011020,0.015350,0.011020*
1,1,0.011020,0.015350,-0.011020*
%
%AMM197*
21,1,0.044880,0.035430,-0.000000,-0.000000,90.000000*
21,1,0.031500,0.048820,-0.000000,-0.000000,90.000000*
1,1,0.013390,0.017720,0.015750*
1,1,0.013390,0.017720,-0.015750*
1,1,0.013390,-0.017720,-0.015750*
1,1,0.013390,-0.017720,0.015750*
%
%AMM198*
21,1,0.044880,0.049210,-0.000000,-0.000000,180.000000*
21,1,0.031500,0.062600,-0.000000,-0.000000,180.000000*
1,1,0.013390,-0.015750,0.024610*
1,1,0.013390,0.015750,0.024610*
1,1,0.013390,0.015750,-0.024610*
1,1,0.013390,-0.015750,-0.024610*
%
%AMM20*
21,1,0.029130,0.018900,0.000000,0.000000,180.000000*
21,1,0.018900,0.029130,0.000000,0.000000,180.000000*
1,1,0.010240,-0.009450,0.009450*
1,1,0.010240,0.009450,0.009450*
1,1,0.010240,0.009450,-0.009450*
1,1,0.010240,-0.009450,-0.009450*
%
%AMM21*
21,1,0.033070,0.030710,0.000000,0.000000,0.000000*
21,1,0.022050,0.041730,0.000000,0.000000,0.000000*
1,1,0.011020,0.011020,-0.015350*
1,1,0.011020,-0.011020,-0.015350*
1,1,0.011020,-0.011020,0.015350*
1,1,0.011020,0.011020,0.015350*
%
%AMM22*
21,1,0.038980,0.026770,0.000000,0.000000,90.000000*
21,1,0.026770,0.038980,0.000000,0.000000,90.000000*
1,1,0.012210,0.013390,0.013390*
1,1,0.012210,0.013390,-0.013390*
1,1,0.012210,-0.013390,-0.013390*
1,1,0.012210,-0.013390,0.013390*
%
%AMM23*
21,1,0.041340,0.026770,0.000000,0.000000,90.000000*
21,1,0.029130,0.038980,0.000000,0.000000,90.000000*
1,1,0.012210,0.013390,0.014570*
1,1,0.012210,0.013390,-0.014570*
1,1,0.012210,-0.013390,-0.014570*
1,1,0.012210,-0.013390,0.014570*
%
%AMM234*
21,1,0.092130,0.073230,-0.000000,-0.000000,90.000000*
21,1,0.069290,0.096060,-0.000000,-0.000000,90.000000*
1,1,0.022840,0.036610,0.034650*
1,1,0.022840,0.036610,-0.034650*
1,1,0.022840,-0.036610,-0.034650*
1,1,0.022840,-0.036610,0.034650*
%
%AMM235*
21,1,0.033070,0.030710,-0.000000,-0.000000,180.000000*
21,1,0.022050,0.041730,-0.000000,-0.000000,180.000000*
1,1,0.011020,-0.011020,0.015350*
1,1,0.011020,0.011020,0.015350*
1,1,0.011020,0.011020,-0.015350*
1,1,0.011020,-0.011020,-0.015350*
%
%AMM236*
21,1,0.023230,0.027950,-0.000000,-0.000000,180.000000*
21,1,0.014170,0.037010,-0.000000,-0.000000,180.000000*
1,1,0.009060,-0.007090,0.013980*
1,1,0.009060,0.007090,0.013980*
1,1,0.009060,0.007090,-0.013980*
1,1,0.009060,-0.007090,-0.013980*
%
%AMM237*
21,1,0.029130,0.030710,-0.000000,-0.000000,270.000000*
21,1,0.018900,0.040950,-0.000000,-0.000000,270.000000*
1,1,0.010240,-0.015350,-0.009450*
1,1,0.010240,-0.015350,0.009450*
1,1,0.010240,0.015350,0.009450*
1,1,0.010240,0.015350,-0.009450*
%
%AMM238*
21,1,0.031100,0.026380,-0.000000,-0.000000,180.000000*
21,1,0.020470,0.037010,-0.000000,-0.000000,180.000000*
1,1,0.010630,-0.010240,0.013190*
1,1,0.010630,0.010240,0.013190*
1,1,0.010630,0.010240,-0.013190*
1,1,0.010630,-0.010240,-0.013190*
%
%AMM239*
21,1,0.044880,0.049210,-0.000000,-0.000000,0.000000*
21,1,0.031500,0.062600,-0.000000,-0.000000,0.000000*
1,1,0.013390,0.015750,-0.024610*
1,1,0.013390,-0.015750,-0.024610*
1,1,0.013390,-0.015750,0.024610*
1,1,0.013390,0.015750,0.024610*
%
%AMM240*
21,1,0.040950,0.050000,-0.000000,-0.000000,90.000000*
21,1,0.028350,0.062600,-0.000000,-0.000000,90.000000*
1,1,0.012600,0.025000,0.014170*
1,1,0.012600,0.025000,-0.014170*
1,1,0.012600,-0.025000,-0.014170*
1,1,0.012600,-0.025000,0.014170*
%
%AMM276*
21,1,0.076380,0.036220,-0.000000,-0.000000,180.000000*
21,1,0.061810,0.050790,-0.000000,-0.000000,180.000000*
1,1,0.014570,-0.030910,0.018110*
1,1,0.014570,0.030910,0.018110*
1,1,0.014570,0.030910,-0.018110*
1,1,0.014570,-0.030910,-0.018110*
%
%AMM277*
21,1,0.048820,0.075980,-0.000000,-0.000000,0.000000*
21,1,0.034650,0.090160,-0.000000,-0.000000,0.000000*
1,1,0.014170,0.017320,-0.037990*
1,1,0.014170,-0.017320,-0.037990*
1,1,0.014170,-0.017320,0.037990*
1,1,0.014170,0.017320,0.037990*
%
%AMM278*
21,1,0.040950,0.030320,-0.000000,-0.000000,180.000000*
21,1,0.028350,0.042910,-0.000000,-0.000000,180.000000*
1,1,0.012600,-0.014170,0.015160*
1,1,0.012600,0.014170,0.015160*
1,1,0.012600,0.014170,-0.015160*
1,1,0.012600,-0.014170,-0.015160*
%
%AMM279*
21,1,0.040950,0.030320,-0.000000,-0.000000,90.000000*
21,1,0.028350,0.042910,-0.000000,-0.000000,90.000000*
1,1,0.012600,0.015160,0.014170*
1,1,0.012600,0.015160,-0.014170*
1,1,0.012600,-0.015160,-0.014170*
1,1,0.012600,-0.015160,0.014170*
%
%AMM280*
21,1,0.023230,0.027950,-0.000000,-0.000000,270.000000*
21,1,0.014170,0.037010,-0.000000,-0.000000,270.000000*
1,1,0.009060,-0.013980,-0.007090*
1,1,0.009060,-0.013980,0.007090*
1,1,0.009060,0.013980,0.007090*
1,1,0.009060,0.013980,-0.007090*
%
%AMM281*
21,1,0.031100,0.026380,-0.000000,-0.000000,270.000000*
21,1,0.020470,0.037010,-0.000000,-0.000000,270.000000*
1,1,0.010630,-0.013190,-0.010240*
1,1,0.010630,-0.013190,0.010240*
1,1,0.010630,0.013190,0.010240*
1,1,0.010630,0.013190,-0.010240*
%
%AMM282*
21,1,0.143310,0.067720,-0.000000,-0.000000,0.000000*
21,1,0.120870,0.090160,-0.000000,-0.000000,0.000000*
1,1,0.022440,0.060430,-0.033860*
1,1,0.022440,-0.060430,-0.033860*
1,1,0.022440,-0.060430,0.033860*
1,1,0.022440,0.060430,0.033860*
%
%AMM283*
21,1,0.048820,0.075990,-0.000000,-0.000000,0.000000*
21,1,0.034650,0.090160,-0.000000,-0.000000,0.000000*
1,1,0.014170,0.017320,-0.037990*
1,1,0.014170,-0.017320,-0.037990*
1,1,0.014170,-0.017320,0.037990*
1,1,0.014170,0.017320,0.037990*
%
%AMM284*
21,1,0.041340,0.026770,-0.000000,-0.000000,270.000000*
21,1,0.029130,0.038980,-0.000000,-0.000000,270.000000*
1,1,0.012210,-0.013390,-0.014570*
1,1,0.012210,-0.013390,0.014570*
1,1,0.012210,0.013390,0.014570*
1,1,0.012210,0.013390,-0.014570*
%
%AMM29*
21,1,0.033070,0.030710,0.000000,0.000000,180.000000*
21,1,0.022050,0.041730,0.000000,0.000000,180.000000*
1,1,0.011020,-0.011020,0.015350*
1,1,0.011020,0.011020,0.015350*
1,1,0.011020,0.011020,-0.015350*
1,1,0.011020,-0.011020,-0.015350*
%
%AMM290*
21,1,0.033070,0.030710,-0.000000,-0.000000,90.000000*
21,1,0.022050,0.041730,-0.000000,-0.000000,90.000000*
1,1,0.011020,0.015350,0.011020*
1,1,0.011020,0.015350,-0.011020*
1,1,0.011020,-0.015350,-0.011020*
1,1,0.011020,-0.015350,0.011020*
%
%AMM350*
21,1,0.041340,0.026770,-0.000000,-0.000000,0.000000*
21,1,0.029130,0.038980,-0.000000,-0.000000,0.000000*
1,1,0.012210,0.014570,-0.013390*
1,1,0.012210,-0.014570,-0.013390*
1,1,0.012210,-0.014570,0.013390*
1,1,0.012210,0.014570,0.013390*
%
%AMM351*
21,1,0.033070,0.018900,-0.000000,-0.000000,0.000000*
21,1,0.022840,0.029130,-0.000000,-0.000000,0.000000*
1,1,0.010240,0.011420,-0.009450*
1,1,0.010240,-0.011420,-0.009450*
1,1,0.010240,-0.011420,0.009450*
1,1,0.010240,0.011420,0.009450*
%
%AMM352*
21,1,0.143310,0.067720,-0.000000,-0.000000,180.000000*
21,1,0.120870,0.090160,-0.000000,-0.000000,180.000000*
1,1,0.022440,-0.060430,0.033860*
1,1,0.022440,0.060430,0.033860*
1,1,0.022440,0.060430,-0.033860*
1,1,0.022440,-0.060430,-0.033860*
%
%AMM353*
21,1,0.048820,0.075980,-0.000000,-0.000000,180.000000*
21,1,0.034650,0.090160,-0.000000,-0.000000,180.000000*
1,1,0.014170,-0.017320,0.037990*
1,1,0.014170,0.017320,0.037990*
1,1,0.014170,0.017320,-0.037990*
1,1,0.014170,-0.017320,-0.037990*
%
%AMM354*
21,1,0.048820,0.075990,-0.000000,-0.000000,180.000000*
21,1,0.034650,0.090160,-0.000000,-0.000000,180.000000*
1,1,0.014170,-0.017320,0.037990*
1,1,0.014170,0.017320,0.037990*
1,1,0.014170,0.017320,-0.037990*
1,1,0.014170,-0.017320,-0.037990*
%
%AMM355*
21,1,0.041340,0.026770,-0.000000,-0.000000,90.000000*
21,1,0.029130,0.038980,-0.000000,-0.000000,90.000000*
1,1,0.012210,0.013390,0.014570*
1,1,0.012210,0.013390,-0.014570*
1,1,0.012210,-0.013390,-0.014570*
1,1,0.012210,-0.013390,0.014570*
%
%AMM356*
21,1,0.033070,0.049610,-0.000000,-0.000000,90.000000*
21,1,0.022050,0.060630,-0.000000,-0.000000,90.000000*
1,1,0.011020,0.024800,0.011020*
1,1,0.011020,0.024800,-0.011020*
1,1,0.011020,-0.024800,-0.011020*
1,1,0.011020,-0.024800,0.011020*
%
%AMM357*
21,1,0.023230,0.027950,-0.000000,-0.000000,90.000000*
21,1,0.014170,0.037010,-0.000000,-0.000000,90.000000*
1,1,0.009060,0.013980,0.007090*
1,1,0.009060,0.013980,-0.007090*
1,1,0.009060,-0.013980,-0.007090*
1,1,0.009060,-0.013980,0.007090*
%
%AMM358*
21,1,0.031100,0.026380,-0.000000,-0.000000,90.000000*
21,1,0.020470,0.037010,-0.000000,-0.000000,90.000000*
1,1,0.010630,0.013190,0.010240*
1,1,0.010630,0.013190,-0.010240*
1,1,0.010630,-0.013190,-0.010240*
1,1,0.010630,-0.013190,0.010240*
%
%AMM359*
21,1,0.029130,0.030710,-0.000000,-0.000000,0.000000*
21,1,0.018900,0.040950,-0.000000,-0.000000,0.000000*
1,1,0.010240,0.009450,-0.015350*
1,1,0.010240,-0.009450,-0.015350*
1,1,0.010240,-0.009450,0.015350*
1,1,0.010240,0.009450,0.015350*
%
%AMM360*
21,1,0.015350,0.017720,-0.000000,-0.000000,0.000000*
21,1,0.000000,0.033070,-0.000000,-0.000000,0.000000*
1,1,0.015350,-0.000000,-0.008860*
1,1,0.015350,-0.000000,-0.008860*
1,1,0.015350,-0.000000,0.008860*
1,1,0.015350,-0.000000,0.008860*
%
%AMM370*
21,1,0.084250,0.045670,-0.000000,-0.000000,90.000000*
21,1,0.067320,0.062600,-0.000000,-0.000000,90.000000*
1,1,0.016930,0.022840,0.033660*
1,1,0.016930,0.022840,-0.033660*
1,1,0.016930,-0.022840,-0.033660*
1,1,0.016930,-0.022840,0.033660*
%
%AMM371*
21,1,0.064570,0.020470,-0.000000,-0.000000,90.000000*
21,1,0.053940,0.031100,-0.000000,-0.000000,90.000000*
1,1,0.010630,0.010240,0.026970*
1,1,0.010630,0.010240,-0.026970*
1,1,0.010630,-0.010240,-0.026970*
1,1,0.010630,-0.010240,0.026970*
%
%AMM372*
21,1,0.038980,0.026770,-0.000000,-0.000000,270.000000*
21,1,0.026770,0.038980,-0.000000,-0.000000,270.000000*
1,1,0.012210,-0.013390,-0.013390*
1,1,0.012210,-0.013390,0.013390*
1,1,0.012210,0.013390,0.013390*
1,1,0.012210,0.013390,-0.013390*
%
%AMM42*
21,1,0.038980,0.026770,0.000000,0.000000,270.000000*
21,1,0.026770,0.038980,0.000000,0.000000,270.000000*
1,1,0.012210,-0.013390,-0.013390*
1,1,0.012210,-0.013390,0.013390*
1,1,0.012210,0.013390,0.013390*
1,1,0.012210,0.013390,-0.013390*
%
%AMM73*
21,1,0.027170,0.052760,0.000000,0.000000,270.000000*
21,1,0.017320,0.062600,0.000000,0.000000,270.000000*
1,1,0.009840,-0.026380,-0.008660*
1,1,0.009840,-0.026380,0.008660*
1,1,0.009840,0.026380,0.008660*
1,1,0.009840,0.026380,-0.008660*
%
%AMM74*
21,1,0.033070,0.030710,0.000000,0.000000,270.000000*
21,1,0.022050,0.041730,0.000000,0.000000,270.000000*
1,1,0.011020,-0.015350,-0.011020*
1,1,0.011020,-0.015350,0.011020*
1,1,0.011020,0.015350,0.011020*
1,1,0.011020,0.015350,-0.011020*
%
%ADD100O,0.00787X0.01969*%
%ADD102C,0.04451*%
%ADD105R,0.03543X0.03150*%
%ADD106C,0.03651*%
%ADD107O,0.09213X0.02520*%
%ADD110O,0.01969X0.00984*%
%ADD126R,0.04724X0.08661*%
%ADD128O,0.04331X0.09449*%
%ADD137O,0.03937X0.05906*%
%ADD138C,0.02362*%
%ADD140C,0.06496*%
%ADD141R,0.02520X0.08504*%
%ADD142O,0.01535X0.02520*%
%ADD147M21*%
%ADD15O,0.05512X0.01535*%
%ADD151M29*%
%ADD154R,0.01476X0.01378*%
%ADD16C,0.03100*%
%ADD160O,0.03701X0.02913*%
%ADD161C,0.03937*%
%ADD168O,0.05315X0.05315*%
%ADD169C,0.03150*%
%ADD173M15*%
%ADD175M42*%
%ADD181O,0.06693X0.07283*%
%ADD188R,0.04803X0.02559*%
%ADD195R,0.25197X0.22835*%
%ADD197O,0.04488X0.06457*%
%ADD199R,0.08000X0.20000*%
%ADD200R,0.07874X0.05906*%
%ADD202C,0.13000*%
%ADD211O,0.00984X0.01969*%
%ADD216R,0.45000X0.30000*%
%ADD218C,0.03701*%
%ADD224M14*%
%ADD225R,0.14961X0.07874*%
%ADD229O,0.05669X0.01417*%
%ADD23M13*%
%ADD230C,0.00039*%
%ADD231C,0.23622*%
%ADD233R,0.05315X0.05315*%
%ADD235C,0.03900*%
%ADD241O,0.09213X0.02913*%
%ADD243O,0.14567X0.10630*%
%ADD244O,0.04488X0.02520*%
%ADD248R,0.06457X0.05669*%
%ADD253O,0.03150X0.02362*%
%ADD258O,0.02913X0.09213*%
%ADD260R,0.08661X0.04724*%
%ADD262R,0.03543X0.04724*%
%ADD263M73*%
%ADD266C,0.06000*%
%ADD27R,0.06693X0.03543*%
%ADD280R,0.02362X0.01772*%
%ADD283O,0.02520X0.01535*%
%ADD286R,0.04331X0.04331*%
%ADD287O,0.07638X0.01929*%
%ADD290M74*%
%ADD291C,0.04331*%
%ADD292R,0.03150X0.03543*%
%ADD296M17*%
%ADD297M18*%
%ADD300M23*%
%ADD301R,0.05906X0.07874*%
%ADD302O,0.06693X0.06693*%
%ADD304R,0.03346X0.03346*%
%ADD309M22*%
%ADD311O,0.00787X0.01575*%
%ADD314R,0.03150X0.08661*%
%ADD316R,0.04724X0.03543*%
%ADD317R,0.01772X0.02362*%
%ADD33O,0.03937X0.01969*%
%ADD330O,0.01417X0.05669*%
%ADD341M142*%
%ADD342M143*%
%ADD343M144*%
%ADD347M148*%
%ADD348M149*%
%ADD349M150*%
%ADD35O,0.02520X0.04488*%
%ADD398M181*%
%ADD399M182*%
%ADD40C,0.06693*%
%ADD400M183*%
%ADD401M184*%
%ADD402M185*%
%ADD403M186*%
%ADD404M187*%
%ADD405M188*%
%ADD406M189*%
%ADD407M190*%
%ADD42C,0.07874*%
%ADD420M197*%
%ADD421M198*%
%ADD457M234*%
%ADD458M235*%
%ADD459M236*%
%ADD46R,0.07244X0.10000*%
%ADD460M237*%
%ADD461M238*%
%ADD462M239*%
%ADD463M240*%
%ADD47O,0.01339X0.02520*%
%ADD48R,0.06693X0.06693*%
%ADD514M276*%
%ADD515M277*%
%ADD516M278*%
%ADD517M279*%
%ADD518M280*%
%ADD519M281*%
%ADD520M282*%
%ADD521M283*%
%ADD522M284*%
%ADD532M290*%
%ADD54O,0.01339X0.02126*%
%ADD58M16*%
%ADD59O,0.04882X0.01732*%
%ADD598M350*%
%ADD599M351*%
%ADD600M352*%
%ADD601M353*%
%ADD602M354*%
%ADD603M355*%
%ADD604M356*%
%ADD605M357*%
%ADD606M358*%
%ADD607M359*%
%ADD608M360*%
%ADD623M370*%
%ADD624M371*%
%ADD625M372*%
%ADD68M19*%
%ADD74M20*%
%ADD76R,0.05709X0.01772*%
%ADD77R,0.03543X0.01575*%
%ADD79C,0.11811*%
%ADD87R,0.07874X0.14961*%
%ADD90C,0.02913*%
%ADD92R,0.01378X0.01476*%
%ADD94C,0.16929*%
%ADD98R,0.22835X0.25197*%
X0000000Y0000000D02*
%LPD*%
G01*
D230*
X0257025Y0104847D02*
X0255377Y0104847D01*
X0255377Y0104847D02*
X0255377Y0125668D01*
X0255377Y0125668D02*
X0257025Y0125668D01*
X0257025Y0125668D02*
X0257025Y0104847D01*
G36*
X0257025Y0104847D02*
G01*
X0255377Y0104847D01*
X0255377Y0125668D01*
X0257025Y0125668D01*
X0257025Y0104847D01*
G37*
X0257025Y0104847D02*
X0255377Y0104847D01*
X0255377Y0125668D01*
X0257025Y0125668D01*
X0257025Y0104847D01*
X0210554Y0104847D02*
X0208977Y0104847D01*
X0208977Y0104847D02*
X0208977Y0125658D01*
X0208977Y0125658D02*
X0210554Y0125658D01*
X0210554Y0125658D02*
X0210554Y0104847D01*
G36*
X0210554Y0104847D02*
G01*
X0208977Y0104847D01*
X0208977Y0125658D01*
X0210554Y0125658D01*
X0210554Y0104847D01*
G37*
X0210554Y0104847D02*
X0208977Y0104847D01*
X0208977Y0125658D01*
X0210554Y0125658D01*
X0210554Y0104847D01*
D231*
X0030050Y0448253D03*
X0603711Y0447268D03*
D266*
X0106861Y0439394D03*
X0126546Y0439394D03*
X0146231Y0439394D03*
X0165916Y0439394D03*
X0185601Y0439394D03*
X0205286Y0439394D03*
X0223987Y0436442D03*
X0236782Y0436442D03*
X0249577Y0436442D03*
X0262373Y0436442D03*
X0275168Y0436442D03*
X0287963Y0436442D03*
X0300758Y0436442D03*
X0313554Y0436442D03*
X0326349Y0436442D03*
X0339144Y0436442D03*
X0351940Y0436442D03*
X0364735Y0436442D03*
X0377530Y0436442D03*
X0390325Y0436442D03*
X0403121Y0436442D03*
X0422806Y0439394D03*
X0442491Y0439394D03*
X0462176Y0439394D03*
X0481861Y0439394D03*
X0501546Y0439394D03*
X0521231Y0439394D03*
X0540916Y0439394D03*
X0116703Y0439394D03*
X0136388Y0439394D03*
X0156073Y0439394D03*
X0175758Y0439394D03*
X0195444Y0439394D03*
X0215129Y0439394D03*
X0230877Y0442347D03*
X0243672Y0442347D03*
X0256467Y0442347D03*
X0269262Y0442347D03*
X0282058Y0442347D03*
X0294853Y0442347D03*
X0307648Y0442347D03*
X0320444Y0442347D03*
X0333239Y0442347D03*
X0346034Y0442347D03*
X0358829Y0442347D03*
X0371625Y0442347D03*
X0384420Y0442347D03*
X0397215Y0442347D03*
X0412963Y0439394D03*
X0432648Y0439394D03*
X0452333Y0439394D03*
X0472018Y0439394D03*
X0491703Y0439394D03*
X0511388Y0439394D03*
X0531073Y0439394D03*
X0115719Y0414788D03*
X0128514Y0414788D03*
X0141310Y0414788D03*
X0154105Y0414788D03*
X0166900Y0414788D03*
X0179695Y0414788D03*
X0192491Y0414788D03*
X0205286Y0414788D03*
X0218081Y0414788D03*
X0230877Y0414788D03*
X0243672Y0414788D03*
X0256467Y0414788D03*
X0269262Y0414788D03*
X0282058Y0414788D03*
X0294853Y0414788D03*
X0307648Y0414788D03*
X0320444Y0414788D03*
X0333239Y0414788D03*
X0346034Y0414788D03*
X0358829Y0414788D03*
X0371625Y0414788D03*
X0384420Y0414788D03*
X0397215Y0414788D03*
X0410010Y0414788D03*
X0422806Y0414788D03*
X0435601Y0414788D03*
X0448396Y0414788D03*
X0461192Y0414788D03*
X0473987Y0414788D03*
X0486782Y0414788D03*
X0499577Y0414788D03*
X0512373Y0414788D03*
X0525168Y0414788D03*
X0082387Y0395385D03*
G36*
G01*
X0079926Y0393593D02*
X0084847Y0393593D01*
G75*
G02*
X0085241Y0393200I0000000J-000394D01*
G01*
X0085241Y0390050D01*
G75*
G02*
X0084847Y0389656I-000394J0000000D01*
G01*
X0079926Y0389656D01*
G75*
G02*
X0079532Y0390050I0000000J0000394D01*
G01*
X0079532Y0393200D01*
G75*
G02*
X0079926Y0393593I0000394J0000000D01*
G01*
G37*
G36*
G01*
X0079926Y0386113D02*
X0084847Y0386113D01*
G75*
G02*
X0085241Y0385719I0000000J-000394D01*
G01*
X0085241Y0382570D01*
G75*
G02*
X0084847Y0382176I-000394J0000000D01*
G01*
X0079926Y0382176D01*
G75*
G02*
X0079532Y0382570I0000000J0000394D01*
G01*
X0079532Y0385719D01*
G75*
G02*
X0079926Y0386113I0000394J0000000D01*
G01*
G37*
X0082387Y0380385D03*
X0118804Y0395385D03*
G36*
G01*
X0116344Y0393593D02*
X0121265Y0393593D01*
G75*
G02*
X0121658Y0393200I0000000J-000394D01*
G01*
X0121658Y0390050D01*
G75*
G02*
X0121265Y0389656I-000394J0000000D01*
G01*
X0116344Y0389656D01*
G75*
G02*
X0115950Y0390050I0000000J0000394D01*
G01*
X0115950Y0393200D01*
G75*
G02*
X0116344Y0393593I0000394J0000000D01*
G01*
G37*
G36*
G01*
X0116344Y0386113D02*
X0121265Y0386113D01*
G75*
G02*
X0121658Y0385719I0000000J-000394D01*
G01*
X0121658Y0382570D01*
G75*
G02*
X0121265Y0382176I-000394J0000000D01*
G01*
X0116344Y0382176D01*
G75*
G02*
X0115950Y0382570I0000000J0000394D01*
G01*
X0115950Y0385719D01*
G75*
G02*
X0116344Y0386113I0000394J0000000D01*
G01*
G37*
X0118804Y0380385D03*
G36*
G01*
X0137997Y0393593D02*
X0142918Y0393593D01*
G75*
G02*
X0143312Y0393200I0000000J-000394D01*
G01*
X0143312Y0390050D01*
G75*
G02*
X0142918Y0389656I-000394J0000000D01*
G01*
X0137997Y0389656D01*
G75*
G02*
X0137603Y0390050I0000000J0000394D01*
G01*
X0137603Y0393200D01*
G75*
G02*
X0137997Y0393593I0000394J0000000D01*
G01*
G37*
X0140458Y0395385D03*
X0140458Y0380385D03*
G36*
G01*
X0137997Y0386113D02*
X0142918Y0386113D01*
G75*
G02*
X0143312Y0385719I0000000J-000394D01*
G01*
X0143312Y0382570D01*
G75*
G02*
X0142918Y0382176I-000394J0000000D01*
G01*
X0137997Y0382176D01*
G75*
G02*
X0137603Y0382570I0000000J0000394D01*
G01*
X0137603Y0385719D01*
G75*
G02*
X0137997Y0386113I0000394J0000000D01*
G01*
G37*
X0177859Y0395385D03*
G36*
G01*
X0175399Y0393593D02*
X0180320Y0393593D01*
G75*
G02*
X0180714Y0393200I0000000J-000394D01*
G01*
X0180714Y0390050D01*
G75*
G02*
X0180320Y0389656I-000394J0000000D01*
G01*
X0175399Y0389656D01*
G75*
G02*
X0175005Y0390050I0000000J0000394D01*
G01*
X0175005Y0393200D01*
G75*
G02*
X0175399Y0393593I0000394J0000000D01*
G01*
G37*
X0177859Y0380385D03*
G36*
G01*
X0175399Y0386113D02*
X0180320Y0386113D01*
G75*
G02*
X0180714Y0385719I0000000J-000394D01*
G01*
X0180714Y0382570D01*
G75*
G02*
X0180320Y0382176I-000394J0000000D01*
G01*
X0175399Y0382176D01*
G75*
G02*
X0175005Y0382570I0000000J0000394D01*
G01*
X0175005Y0385719D01*
G75*
G02*
X0175399Y0386113I0000394J0000000D01*
G01*
G37*
G36*
G01*
X0201973Y0393593D02*
X0206895Y0393593D01*
G75*
G02*
X0207288Y0393200I0000000J-000394D01*
G01*
X0207288Y0390050D01*
G75*
G02*
X0206895Y0389656I-000394J0000000D01*
G01*
X0201973Y0389656D01*
G75*
G02*
X0201580Y0390050I0000000J0000394D01*
G01*
X0201580Y0393200D01*
G75*
G02*
X0201973Y0393593I0000394J0000000D01*
G01*
G37*
X0204434Y0395385D03*
G36*
G01*
X0201973Y0386113D02*
X0206895Y0386113D01*
G75*
G02*
X0207288Y0385719I0000000J-000394D01*
G01*
X0207288Y0382570D01*
G75*
G02*
X0206895Y0382176I-000394J0000000D01*
G01*
X0201973Y0382176D01*
G75*
G02*
X0201580Y0382570I0000000J0000394D01*
G01*
X0201580Y0385719D01*
G75*
G02*
X0201973Y0386113I0000394J0000000D01*
G01*
G37*
X0204434Y0380385D03*
X0335340Y0395385D03*
G36*
G01*
X0332879Y0393593D02*
X0337800Y0393593D01*
G75*
G02*
X0338194Y0393200I0000000J-000394D01*
G01*
X0338194Y0390050D01*
G75*
G02*
X0337800Y0389656I-000394J0000000D01*
G01*
X0332879Y0389656D01*
G75*
G02*
X0332485Y0390050I0000000J0000394D01*
G01*
X0332485Y0393200D01*
G75*
G02*
X0332879Y0393593I0000394J0000000D01*
G01*
G37*
G36*
G01*
X0332879Y0386113D02*
X0337800Y0386113D01*
G75*
G02*
X0338194Y0385719I0000000J-000394D01*
G01*
X0338194Y0382570D01*
G75*
G02*
X0337800Y0382176I-000394J0000000D01*
G01*
X0332879Y0382176D01*
G75*
G02*
X0332485Y0382570I0000000J0000394D01*
G01*
X0332485Y0385719D01*
G75*
G02*
X0332879Y0386113I0000394J0000000D01*
G01*
G37*
X0335340Y0380385D03*
G36*
G01*
X0343706Y0393593D02*
X0348627Y0393593D01*
G75*
G02*
X0349021Y0393200I0000000J-000394D01*
G01*
X0349021Y0390050D01*
G75*
G02*
X0348627Y0389656I-000394J0000000D01*
G01*
X0343706Y0389656D01*
G75*
G02*
X0343312Y0390050I0000000J0000394D01*
G01*
X0343312Y0393200D01*
G75*
G02*
X0343706Y0393593I0000394J0000000D01*
G01*
G37*
X0346166Y0395385D03*
G36*
G01*
X0343706Y0386113D02*
X0348627Y0386113D01*
G75*
G02*
X0349021Y0385719I0000000J-000394D01*
G01*
X0349021Y0382570D01*
G75*
G02*
X0348627Y0382176I-000394J0000000D01*
G01*
X0343706Y0382176D01*
G75*
G02*
X0343312Y0382570I0000000J0000394D01*
G01*
X0343312Y0385719D01*
G75*
G02*
X0343706Y0386113I0000394J0000000D01*
G01*
G37*
X0346166Y0380385D03*
G36*
G01*
X0371265Y0364066D02*
X0376186Y0364066D01*
G75*
G02*
X0376580Y0363672I0000000J-000394D01*
G01*
X0376580Y0360523D01*
G75*
G02*
X0376186Y0360129I-000394J0000000D01*
G01*
X0371265Y0360129D01*
G75*
G02*
X0370871Y0360523I0000000J0000394D01*
G01*
X0370871Y0363672D01*
G75*
G02*
X0371265Y0364066I0000394J0000000D01*
G01*
G37*
X0373725Y0365857D03*
X0373725Y0350857D03*
G36*
G01*
X0371265Y0356586D02*
X0376186Y0356586D01*
G75*
G02*
X0376580Y0356192I0000000J-000394D01*
G01*
X0376580Y0353042D01*
G75*
G02*
X0376186Y0352649I-000394J0000000D01*
G01*
X0371265Y0352649D01*
G75*
G02*
X0370871Y0353042I0000000J0000394D01*
G01*
X0370871Y0356192D01*
G75*
G02*
X0371265Y0356586I0000394J0000000D01*
G01*
G37*
X0386521Y0365857D03*
G36*
G01*
X0384060Y0364066D02*
X0388981Y0364066D01*
G75*
G02*
X0389375Y0363672I0000000J-000394D01*
G01*
X0389375Y0360523D01*
G75*
G02*
X0388981Y0360129I-000394J0000000D01*
G01*
X0384060Y0360129D01*
G75*
G02*
X0383666Y0360523I0000000J0000394D01*
G01*
X0383666Y0363672D01*
G75*
G02*
X0384060Y0364066I0000394J0000000D01*
G01*
G37*
G36*
G01*
X0384060Y0356586D02*
X0388981Y0356586D01*
G75*
G02*
X0389375Y0356192I0000000J-000394D01*
G01*
X0389375Y0353042D01*
G75*
G02*
X0388981Y0352649I-000394J0000000D01*
G01*
X0384060Y0352649D01*
G75*
G02*
X0383666Y0353042I0000000J0000394D01*
G01*
X0383666Y0356192D01*
G75*
G02*
X0384060Y0356586I0000394J0000000D01*
G01*
G37*
X0386521Y0350857D03*
G36*
G01*
X0509060Y0393593D02*
X0513981Y0393593D01*
G75*
G02*
X0514375Y0393200I0000000J-000394D01*
G01*
X0514375Y0390050D01*
G75*
G02*
X0513981Y0389656I-000394J0000000D01*
G01*
X0509060Y0389656D01*
G75*
G02*
X0508666Y0390050I0000000J0000394D01*
G01*
X0508666Y0393200D01*
G75*
G02*
X0509060Y0393593I0000394J0000000D01*
G01*
G37*
X0511521Y0395385D03*
G36*
G01*
X0509060Y0386113D02*
X0513981Y0386113D01*
G75*
G02*
X0514375Y0385719I0000000J-000394D01*
G01*
X0514375Y0382570D01*
G75*
G02*
X0513981Y0382176I-000394J0000000D01*
G01*
X0509060Y0382176D01*
G75*
G02*
X0508666Y0382570I0000000J0000394D01*
G01*
X0508666Y0385719D01*
G75*
G02*
X0509060Y0386113I0000394J0000000D01*
G01*
G37*
X0511521Y0380385D03*
X0535143Y0395385D03*
G36*
G01*
X0532682Y0393593D02*
X0537603Y0393593D01*
G75*
G02*
X0537997Y0393200I0000000J-000394D01*
G01*
X0537997Y0390050D01*
G75*
G02*
X0537603Y0389656I-000394J0000000D01*
G01*
X0532682Y0389656D01*
G75*
G02*
X0532288Y0390050I0000000J0000394D01*
G01*
X0532288Y0393200D01*
G75*
G02*
X0532682Y0393593I0000394J0000000D01*
G01*
G37*
G36*
G01*
X0532682Y0386113D02*
X0537603Y0386113D01*
G75*
G02*
X0537997Y0385719I0000000J-000394D01*
G01*
X0537997Y0382570D01*
G75*
G02*
X0537603Y0382176I-000394J0000000D01*
G01*
X0532682Y0382176D01*
G75*
G02*
X0532288Y0382570I0000000J0000394D01*
G01*
X0532288Y0385719D01*
G75*
G02*
X0532682Y0386113I0000394J0000000D01*
G01*
G37*
X0535143Y0380385D03*
X0093214Y0395385D03*
G36*
G01*
X0090753Y0393593D02*
X0095674Y0393593D01*
G75*
G02*
X0096068Y0393200I0000000J-000394D01*
G01*
X0096068Y0390050D01*
G75*
G02*
X0095674Y0389656I-000394J0000000D01*
G01*
X0090753Y0389656D01*
G75*
G02*
X0090359Y0390050I0000000J0000394D01*
G01*
X0090359Y0393200D01*
G75*
G02*
X0090753Y0393593I0000394J0000000D01*
G01*
G37*
G36*
G01*
X0090753Y0386113D02*
X0095674Y0386113D01*
G75*
G02*
X0096068Y0385719I0000000J-000394D01*
G01*
X0096068Y0382570D01*
G75*
G02*
X0095674Y0382176I-000394J0000000D01*
G01*
X0090753Y0382176D01*
G75*
G02*
X0090359Y0382570I0000000J0000394D01*
G01*
X0090359Y0385719D01*
G75*
G02*
X0090753Y0386113I0000394J0000000D01*
G01*
G37*
X0093214Y0380385D03*
G36*
G01*
X0127170Y0393593D02*
X0132092Y0393593D01*
G75*
G02*
X0132485Y0393200I0000000J-000394D01*
G01*
X0132485Y0390050D01*
G75*
G02*
X0132092Y0389656I-000394J0000000D01*
G01*
X0127170Y0389656D01*
G75*
G02*
X0126777Y0390050I0000000J0000394D01*
G01*
X0126777Y0393200D01*
G75*
G02*
X0127170Y0393593I0000394J0000000D01*
G01*
G37*
X0129631Y0395385D03*
X0129631Y0380385D03*
G36*
G01*
X0127170Y0386113D02*
X0132092Y0386113D01*
G75*
G02*
X0132485Y0385719I0000000J-000394D01*
G01*
X0132485Y0382570D01*
G75*
G02*
X0132092Y0382176I-000394J0000000D01*
G01*
X0127170Y0382176D01*
G75*
G02*
X0126777Y0382570I0000000J0000394D01*
G01*
X0126777Y0385719D01*
G75*
G02*
X0127170Y0386113I0000394J0000000D01*
G01*
G37*
X0162111Y0395385D03*
G36*
G01*
X0159651Y0393593D02*
X0164572Y0393593D01*
G75*
G02*
X0164966Y0393200I0000000J-000394D01*
G01*
X0164966Y0390050D01*
G75*
G02*
X0164572Y0389656I-000394J0000000D01*
G01*
X0159651Y0389656D01*
G75*
G02*
X0159257Y0390050I0000000J0000394D01*
G01*
X0159257Y0393200D01*
G75*
G02*
X0159651Y0393593I0000394J0000000D01*
G01*
G37*
X0162111Y0380385D03*
G36*
G01*
X0159651Y0386113D02*
X0164572Y0386113D01*
G75*
G02*
X0164966Y0385719I0000000J-000394D01*
G01*
X0164966Y0382570D01*
G75*
G02*
X0164572Y0382176I-000394J0000000D01*
G01*
X0159651Y0382176D01*
G75*
G02*
X0159257Y0382570I0000000J0000394D01*
G01*
X0159257Y0385719D01*
G75*
G02*
X0159651Y0386113I0000394J0000000D01*
G01*
G37*
G36*
G01*
X0186225Y0393593D02*
X0191147Y0393593D01*
G75*
G02*
X0191540Y0393200I0000000J-000394D01*
G01*
X0191540Y0390050D01*
G75*
G02*
X0191147Y0389656I-000394J0000000D01*
G01*
X0186225Y0389656D01*
G75*
G02*
X0185832Y0390050I0000000J0000394D01*
G01*
X0185832Y0393200D01*
G75*
G02*
X0186225Y0393593I0000394J0000000D01*
G01*
G37*
X0188686Y0395385D03*
G36*
G01*
X0186225Y0386113D02*
X0191147Y0386113D01*
G75*
G02*
X0191540Y0385719I0000000J-000394D01*
G01*
X0191540Y0382570D01*
G75*
G02*
X0191147Y0382176I-000394J0000000D01*
G01*
X0186225Y0382176D01*
G75*
G02*
X0185832Y0382570I0000000J0000394D01*
G01*
X0185832Y0385719D01*
G75*
G02*
X0186225Y0386113I0000394J0000000D01*
G01*
G37*
X0188686Y0380385D03*
X0225694Y0395385D03*
G36*
G01*
X0223233Y0393593D02*
X0228155Y0393593D01*
G75*
G02*
X0228548Y0393200I0000000J-000394D01*
G01*
X0228548Y0390050D01*
G75*
G02*
X0228155Y0389656I-000394J0000000D01*
G01*
X0223233Y0389656D01*
G75*
G02*
X0222840Y0390050I0000000J0000394D01*
G01*
X0222840Y0393200D01*
G75*
G02*
X0223233Y0393593I0000394J0000000D01*
G01*
G37*
X0225694Y0380385D03*
G36*
G01*
X0223233Y0386113D02*
X0228155Y0386113D01*
G75*
G02*
X0228548Y0385719I0000000J-000394D01*
G01*
X0228548Y0382570D01*
G75*
G02*
X0228155Y0382176I-000394J0000000D01*
G01*
X0223233Y0382176D01*
G75*
G02*
X0222840Y0382570I0000000J0000394D01*
G01*
X0222840Y0385719D01*
G75*
G02*
X0223233Y0386113I0000394J0000000D01*
G01*
G37*
G36*
G01*
X0304336Y0364066D02*
X0309257Y0364066D01*
G75*
G02*
X0309651Y0363672I0000000J-000394D01*
G01*
X0309651Y0360523D01*
G75*
G02*
X0309257Y0360129I-000394J0000000D01*
G01*
X0304336Y0360129D01*
G75*
G02*
X0303942Y0360523I0000000J0000394D01*
G01*
X0303942Y0363672D01*
G75*
G02*
X0304336Y0364066I0000394J0000000D01*
G01*
G37*
X0306796Y0365857D03*
G36*
G01*
X0304336Y0356586D02*
X0309257Y0356586D01*
G75*
G02*
X0309651Y0356192I0000000J-000394D01*
G01*
X0309651Y0353042D01*
G75*
G02*
X0309257Y0352649I-000394J0000000D01*
G01*
X0304336Y0352649D01*
G75*
G02*
X0303942Y0353042I0000000J0000394D01*
G01*
X0303942Y0356192D01*
G75*
G02*
X0304336Y0356586I0000394J0000000D01*
G01*
G37*
X0306796Y0350857D03*
X0317820Y0365857D03*
G36*
G01*
X0315359Y0364066D02*
X0320281Y0364066D01*
G75*
G02*
X0320674Y0363672I0000000J-000394D01*
G01*
X0320674Y0360523D01*
G75*
G02*
X0320281Y0360129I-000394J0000000D01*
G01*
X0315359Y0360129D01*
G75*
G02*
X0314966Y0360523I0000000J0000394D01*
G01*
X0314966Y0363672D01*
G75*
G02*
X0315359Y0364066I0000394J0000000D01*
G01*
G37*
G36*
G01*
X0315359Y0356586D02*
X0320281Y0356586D01*
G75*
G02*
X0320674Y0356192I0000000J-000394D01*
G01*
X0320674Y0353042D01*
G75*
G02*
X0320281Y0352649I-000394J0000000D01*
G01*
X0315359Y0352649D01*
G75*
G02*
X0314966Y0353042I0000000J0000394D01*
G01*
X0314966Y0356192D01*
G75*
G02*
X0315359Y0356586I0000394J0000000D01*
G01*
G37*
X0317820Y0350857D03*
G36*
G01*
X0322052Y0393593D02*
X0326973Y0393593D01*
G75*
G02*
X0327367Y0393200I0000000J-000394D01*
G01*
X0327367Y0390050D01*
G75*
G02*
X0326973Y0389656I-000394J0000000D01*
G01*
X0322052Y0389656D01*
G75*
G02*
X0321658Y0390050I0000000J0000394D01*
G01*
X0321658Y0393200D01*
G75*
G02*
X0322052Y0393593I0000394J0000000D01*
G01*
G37*
X0324513Y0395385D03*
X0324513Y0380385D03*
G36*
G01*
X0322052Y0386113D02*
X0326973Y0386113D01*
G75*
G02*
X0327367Y0385719I0000000J-000394D01*
G01*
X0327367Y0382570D01*
G75*
G02*
X0326973Y0382176I-000394J0000000D01*
G01*
X0322052Y0382176D01*
G75*
G02*
X0321658Y0382570I0000000J0000394D01*
G01*
X0321658Y0385719D01*
G75*
G02*
X0322052Y0386113I0000394J0000000D01*
G01*
G37*
X0352072Y0365857D03*
G36*
G01*
X0349611Y0364066D02*
X0354532Y0364066D01*
G75*
G02*
X0354926Y0363672I0000000J-000394D01*
G01*
X0354926Y0360523D01*
G75*
G02*
X0354532Y0360129I-000394J0000000D01*
G01*
X0349611Y0360129D01*
G75*
G02*
X0349218Y0360523I0000000J0000394D01*
G01*
X0349218Y0363672D01*
G75*
G02*
X0349611Y0364066I0000394J0000000D01*
G01*
G37*
G36*
G01*
X0349611Y0356586D02*
X0354532Y0356586D01*
G75*
G02*
X0354926Y0356192I0000000J-000394D01*
G01*
X0354926Y0353042D01*
G75*
G02*
X0354532Y0352649I-000394J0000000D01*
G01*
X0349611Y0352649D01*
G75*
G02*
X0349218Y0353042I0000000J0000394D01*
G01*
X0349218Y0356192D01*
G75*
G02*
X0349611Y0356586I0000394J0000000D01*
G01*
G37*
X0352072Y0350857D03*
G36*
G01*
X0360438Y0364066D02*
X0365359Y0364066D01*
G75*
G02*
X0365753Y0363672I0000000J-000394D01*
G01*
X0365753Y0360523D01*
G75*
G02*
X0365359Y0360129I-000394J0000000D01*
G01*
X0360438Y0360129D01*
G75*
G02*
X0360044Y0360523I0000000J0000394D01*
G01*
X0360044Y0363672D01*
G75*
G02*
X0360438Y0364066I0000394J0000000D01*
G01*
G37*
X0362899Y0365857D03*
X0362899Y0350857D03*
G36*
G01*
X0360438Y0356586D02*
X0365359Y0356586D01*
G75*
G02*
X0365753Y0356192I0000000J-000394D01*
G01*
X0365753Y0353042D01*
G75*
G02*
X0365359Y0352649I-000394J0000000D01*
G01*
X0360438Y0352649D01*
G75*
G02*
X0360044Y0353042I0000000J0000394D01*
G01*
X0360044Y0356192D01*
G75*
G02*
X0360438Y0356586I0000394J0000000D01*
G01*
G37*
G36*
G01*
X0518804Y0394401D02*
X0518804Y0397117D01*
G75*
G02*
X0519710Y0398023I0000906J0000000D01*
G01*
X0524985Y0398023D01*
G75*
G02*
X0525891Y0397117I0000000J-000906D01*
G01*
X0525891Y0394401D01*
G75*
G02*
X0524985Y0393495I-000906J0000000D01*
G01*
X0519710Y0393495D01*
G75*
G02*
X0518804Y0394401I0000000J0000906D01*
G01*
G37*
X0522347Y0399696D03*
X0522347Y0380405D03*
G36*
G01*
X0518804Y0382983D02*
X0518804Y0385700D01*
G75*
G02*
X0519710Y0386605I0000906J0000000D01*
G01*
X0524985Y0386605D01*
G75*
G02*
X0525891Y0385700I0000000J-000906D01*
G01*
X0525891Y0382983D01*
G75*
G02*
X0524985Y0382078I-000906J0000000D01*
G01*
X0519710Y0382078D01*
G75*
G02*
X0518804Y0382983I0000000J0000906D01*
G01*
G37*
G36*
G01*
X0104434Y0392235D02*
X0104434Y0394952D01*
G75*
G02*
X0105340Y0395857I0000906J0000000D01*
G01*
X0110615Y0395857D01*
G75*
G02*
X0111521Y0394952I0000000J-000906D01*
G01*
X0111521Y0392235D01*
G75*
G02*
X0110615Y0391330I-000906J0000000D01*
G01*
X0105340Y0391330D01*
G75*
G02*
X0104434Y0392235I0000000J0000906D01*
G01*
G37*
X0107977Y0397530D03*
X0107977Y0378239D03*
G36*
G01*
X0104434Y0380818D02*
X0104434Y0383534D01*
G75*
G02*
X0105340Y0384440I0000906J0000000D01*
G01*
X0110615Y0384440D01*
G75*
G02*
X0111521Y0383534I0000000J-000906D01*
G01*
X0111521Y0380818D01*
G75*
G02*
X0110615Y0379912I-000906J0000000D01*
G01*
X0105340Y0379912D01*
G75*
G02*
X0104434Y0380818I0000000J0000906D01*
G01*
G37*
X0330418Y0365857D03*
G36*
G01*
X0327958Y0364066D02*
X0332879Y0364066D01*
G75*
G02*
X0333273Y0363672I0000000J-000394D01*
G01*
X0333273Y0360523D01*
G75*
G02*
X0332879Y0360129I-000394J0000000D01*
G01*
X0327958Y0360129D01*
G75*
G02*
X0327564Y0360523I0000000J0000394D01*
G01*
X0327564Y0363672D01*
G75*
G02*
X0327958Y0364066I0000394J0000000D01*
G01*
G37*
X0330418Y0350857D03*
G36*
G01*
X0327958Y0356586D02*
X0332879Y0356586D01*
G75*
G02*
X0333273Y0356192I0000000J-000394D01*
G01*
X0333273Y0353042D01*
G75*
G02*
X0332879Y0352649I-000394J0000000D01*
G01*
X0327958Y0352649D01*
G75*
G02*
X0327564Y0353042I0000000J0000394D01*
G01*
X0327564Y0356192D01*
G75*
G02*
X0327958Y0356586I0000394J0000000D01*
G01*
G37*
G36*
G01*
X0371265Y0393593D02*
X0376186Y0393593D01*
G75*
G02*
X0376580Y0393200I0000000J-000394D01*
G01*
X0376580Y0390050D01*
G75*
G02*
X0376186Y0389656I-000394J0000000D01*
G01*
X0371265Y0389656D01*
G75*
G02*
X0370871Y0390050I0000000J0000394D01*
G01*
X0370871Y0393200D01*
G75*
G02*
X0371265Y0393593I0000394J0000000D01*
G01*
G37*
X0373725Y0395385D03*
G36*
G01*
X0371265Y0386113D02*
X0376186Y0386113D01*
G75*
G02*
X0376580Y0385719I0000000J-000394D01*
G01*
X0376580Y0382570D01*
G75*
G02*
X0376186Y0382176I-000394J0000000D01*
G01*
X0371265Y0382176D01*
G75*
G02*
X0370871Y0382570I0000000J0000394D01*
G01*
X0370871Y0385719D01*
G75*
G02*
X0371265Y0386113I0000394J0000000D01*
G01*
G37*
X0373725Y0380385D03*
X0397347Y0395385D03*
G36*
G01*
X0394887Y0393593D02*
X0399808Y0393593D01*
G75*
G02*
X0400202Y0393200I0000000J-000394D01*
G01*
X0400202Y0390050D01*
G75*
G02*
X0399808Y0389656I-000394J0000000D01*
G01*
X0394887Y0389656D01*
G75*
G02*
X0394493Y0390050I0000000J0000394D01*
G01*
X0394493Y0393200D01*
G75*
G02*
X0394887Y0393593I0000394J0000000D01*
G01*
G37*
G36*
G01*
X0394887Y0386113D02*
X0399808Y0386113D01*
G75*
G02*
X0400202Y0385719I0000000J-000394D01*
G01*
X0400202Y0382570D01*
G75*
G02*
X0399808Y0382176I-000394J0000000D01*
G01*
X0394887Y0382176D01*
G75*
G02*
X0394493Y0382570I0000000J0000394D01*
G01*
X0394493Y0385719D01*
G75*
G02*
X0394887Y0386113I0000394J0000000D01*
G01*
G37*
X0397347Y0380385D03*
G36*
G01*
X0518706Y0364066D02*
X0523627Y0364066D01*
G75*
G02*
X0524021Y0363672I0000000J-000394D01*
G01*
X0524021Y0360523D01*
G75*
G02*
X0523627Y0360129I-000394J0000000D01*
G01*
X0518706Y0360129D01*
G75*
G02*
X0518312Y0360523I0000000J0000394D01*
G01*
X0518312Y0363672D01*
G75*
G02*
X0518706Y0364066I0000394J0000000D01*
G01*
G37*
X0521166Y0365857D03*
X0521166Y0350857D03*
G36*
G01*
X0518706Y0356586D02*
X0523627Y0356586D01*
G75*
G02*
X0524021Y0356192I0000000J-000394D01*
G01*
X0524021Y0353042D01*
G75*
G02*
X0523627Y0352649I-000394J0000000D01*
G01*
X0518706Y0352649D01*
G75*
G02*
X0518312Y0353042I0000000J0000394D01*
G01*
X0518312Y0356192D01*
G75*
G02*
X0518706Y0356586I0000394J0000000D01*
G01*
G37*
X0510340Y0365857D03*
G36*
G01*
X0507879Y0364066D02*
X0512800Y0364066D01*
G75*
G02*
X0513194Y0363672I0000000J-000394D01*
G01*
X0513194Y0360523D01*
G75*
G02*
X0512800Y0360129I-000394J0000000D01*
G01*
X0507879Y0360129D01*
G75*
G02*
X0507485Y0360523I0000000J0000394D01*
G01*
X0507485Y0363672D01*
G75*
G02*
X0507879Y0364066I0000394J0000000D01*
G01*
G37*
G36*
G01*
X0507879Y0356586D02*
X0512800Y0356586D01*
G75*
G02*
X0513194Y0356192I0000000J-000394D01*
G01*
X0513194Y0353042D01*
G75*
G02*
X0512800Y0352649I-000394J0000000D01*
G01*
X0507879Y0352649D01*
G75*
G02*
X0507485Y0353042I0000000J0000394D01*
G01*
X0507485Y0356192D01*
G75*
G02*
X0507879Y0356586I0000394J0000000D01*
G01*
G37*
X0510340Y0350857D03*
X0151284Y0395385D03*
G36*
G01*
X0148824Y0393593D02*
X0153745Y0393593D01*
G75*
G02*
X0154139Y0393200I0000000J-000394D01*
G01*
X0154139Y0390050D01*
G75*
G02*
X0153745Y0389656I-000394J0000000D01*
G01*
X0148824Y0389656D01*
G75*
G02*
X0148430Y0390050I0000000J0000394D01*
G01*
X0148430Y0393200D01*
G75*
G02*
X0148824Y0393593I0000394J0000000D01*
G01*
G37*
X0151284Y0380385D03*
G36*
G01*
X0148824Y0386113D02*
X0153745Y0386113D01*
G75*
G02*
X0154139Y0385719I0000000J-000394D01*
G01*
X0154139Y0382570D01*
G75*
G02*
X0153745Y0382176I-000394J0000000D01*
G01*
X0148824Y0382176D01*
G75*
G02*
X0148430Y0382570I0000000J0000394D01*
G01*
X0148430Y0385719D01*
G75*
G02*
X0148824Y0386113I0000394J0000000D01*
G01*
G37*
D260*
X0550103Y0127176D03*
D195*
X0574907Y0118200D03*
D260*
X0550103Y0109223D03*
X0550103Y0363397D03*
D195*
X0574907Y0354420D03*
D260*
X0550103Y0345444D03*
X0550103Y0166546D03*
D195*
X0574907Y0157570D03*
D260*
X0550103Y0148593D03*
X0550103Y0324027D03*
D195*
X0574907Y0315050D03*
D260*
X0550103Y0306074D03*
X0550103Y0247255D03*
D195*
X0574907Y0238279D03*
D260*
X0550103Y0229302D03*
X0550103Y0286625D03*
D195*
X0574907Y0277649D03*
D260*
X0550103Y0268672D03*
G36*
G01*
X0168332Y0102491D02*
X0169670Y0102491D01*
G75*
G02*
X0170221Y0101940I0000000J-000551D01*
G01*
X0170221Y0100838D01*
G75*
G02*
X0169670Y0100286I-000551J0000000D01*
G01*
X0168332Y0100286D01*
G75*
G02*
X0167781Y0100838I0000000J0000551D01*
G01*
X0167781Y0101940D01*
G75*
G02*
X0168332Y0102491I0000551J0000000D01*
G01*
G37*
G36*
G01*
X0168332Y0098712D02*
X0169670Y0098712D01*
G75*
G02*
X0170221Y0098160I0000000J-000551D01*
G01*
X0170221Y0097058D01*
G75*
G02*
X0169670Y0096507I-000551J0000000D01*
G01*
X0168332Y0096507D01*
G75*
G02*
X0167781Y0097058I0000000J0000551D01*
G01*
X0167781Y0098160D01*
G75*
G02*
X0168332Y0098712I0000551J0000000D01*
G01*
G37*
G36*
G01*
X0169670Y0104381D02*
X0168332Y0104381D01*
G75*
G02*
X0167781Y0104932I0000000J0000551D01*
G01*
X0167781Y0106034D01*
G75*
G02*
X0168332Y0106586I0000551J0000000D01*
G01*
X0169670Y0106586D01*
G75*
G02*
X0170221Y0106034I0000000J-000551D01*
G01*
X0170221Y0104932D01*
G75*
G02*
X0169670Y0104381I-000551J0000000D01*
G01*
G37*
G36*
G01*
X0169670Y0108160D02*
X0168332Y0108160D01*
G75*
G02*
X0167781Y0108712I0000000J0000551D01*
G01*
X0167781Y0109814D01*
G75*
G02*
X0168332Y0110365I0000551J0000000D01*
G01*
X0169670Y0110365D01*
G75*
G02*
X0170221Y0109814I0000000J-000551D01*
G01*
X0170221Y0108712D01*
G75*
G02*
X0169670Y0108160I-000551J0000000D01*
G01*
G37*
D48*
X0055741Y0293420D03*
D302*
X0055741Y0283420D03*
X0055741Y0273420D03*
X0055741Y0263420D03*
X0055741Y0253420D03*
D141*
X0176265Y0082688D03*
X0181265Y0082688D03*
X0186265Y0082688D03*
X0191265Y0082688D03*
X0191265Y0116310D03*
X0186265Y0116310D03*
X0181265Y0116310D03*
X0176265Y0116310D03*
D94*
X0514261Y0022294D03*
X0029261Y0022294D03*
G36*
G01*
X0064552Y0338928D02*
X0064552Y0340385D01*
G75*
G02*
X0065084Y0340916I0000531J0000000D01*
G01*
X0066147Y0340916D01*
G75*
G02*
X0066678Y0340385I0000000J-000531D01*
G01*
X0066678Y0338928D01*
G75*
G02*
X0066147Y0338397I-000531J0000000D01*
G01*
X0065084Y0338397D01*
G75*
G02*
X0064552Y0338928I0000000J0000531D01*
G01*
G37*
G36*
G01*
X0068568Y0338928D02*
X0068568Y0340385D01*
G75*
G02*
X0069099Y0340916I0000531J0000000D01*
G01*
X0070162Y0340916D01*
G75*
G02*
X0070694Y0340385I0000000J-000531D01*
G01*
X0070694Y0338928D01*
G75*
G02*
X0070162Y0338397I-000531J0000000D01*
G01*
X0069099Y0338397D01*
G75*
G02*
X0068568Y0338928I0000000J0000531D01*
G01*
G37*
D140*
X0618371Y0286704D03*
X0598371Y0286704D03*
D280*
X0263292Y0278830D03*
X0255025Y0278830D03*
G36*
G01*
X0595477Y0065345D02*
X0595477Y0076566D01*
G75*
G02*
X0596462Y0077550I0000984J0000000D01*
G01*
X0599316Y0077550D01*
G75*
G02*
X0600300Y0076566I0000000J-000984D01*
G01*
X0600300Y0065345D01*
G75*
G02*
X0599316Y0064361I-000984J0000000D01*
G01*
X0596462Y0064361D01*
G75*
G02*
X0595477Y0065345I0000000J0000984D01*
G01*
G37*
G36*
G01*
X0618804Y0065345D02*
X0618804Y0076566D01*
G75*
G02*
X0619788Y0077550I0000984J0000000D01*
G01*
X0622643Y0077550D01*
G75*
G02*
X0623627Y0076566I0000000J-000984D01*
G01*
X0623627Y0065345D01*
G75*
G02*
X0622643Y0064361I-000984J0000000D01*
G01*
X0619788Y0064361D01*
G75*
G02*
X0618804Y0065345I0000000J0000984D01*
G01*
G37*
G36*
G01*
X0484208Y0259317D02*
X0484208Y0261335D01*
G75*
G02*
X0485069Y0262196I0000861J0000000D01*
G01*
X0486791Y0262196D01*
G75*
G02*
X0487653Y0261335I0000000J-000861D01*
G01*
X0487653Y0259317D01*
G75*
G02*
X0486791Y0258456I-000861J0000000D01*
G01*
X0485069Y0258456D01*
G75*
G02*
X0484208Y0259317I0000000J0000861D01*
G01*
G37*
G36*
G01*
X0490408Y0259317D02*
X0490408Y0261335D01*
G75*
G02*
X0491270Y0262196I0000861J0000000D01*
G01*
X0492992Y0262196D01*
G75*
G02*
X0493853Y0261335I0000000J-000861D01*
G01*
X0493853Y0259317D01*
G75*
G02*
X0492992Y0258456I-000861J0000000D01*
G01*
X0491270Y0258456D01*
G75*
G02*
X0490408Y0259317I0000000J0000861D01*
G01*
G37*
D304*
X0331403Y0302255D03*
G36*
G01*
X0254336Y0257152D02*
X0254336Y0259169D01*
G75*
G02*
X0255197Y0260030I0000861J0000000D01*
G01*
X0256919Y0260030D01*
G75*
G02*
X0257781Y0259169I0000000J-000861D01*
G01*
X0257781Y0257152D01*
G75*
G02*
X0256919Y0256290I-000861J0000000D01*
G01*
X0255197Y0256290D01*
G75*
G02*
X0254336Y0257152I0000000J0000861D01*
G01*
G37*
G36*
G01*
X0260536Y0257152D02*
X0260536Y0259169D01*
G75*
G02*
X0261398Y0260030I0000861J0000000D01*
G01*
X0263120Y0260030D01*
G75*
G02*
X0263981Y0259169I0000000J-000861D01*
G01*
X0263981Y0257152D01*
G75*
G02*
X0263120Y0256290I-000861J0000000D01*
G01*
X0261398Y0256290D01*
G75*
G02*
X0260536Y0257152I0000000J0000861D01*
G01*
G37*
D262*
X0078844Y0302255D03*
X0091836Y0302255D03*
D233*
X0337308Y0036507D03*
D168*
X0329434Y0036507D03*
X0321560Y0036507D03*
X0313686Y0036507D03*
X0305812Y0036507D03*
D79*
X0507584Y0047334D03*
D304*
X0183765Y0360326D03*
G36*
G01*
X0316934Y0272949D02*
X0316934Y0270931D01*
G75*
G02*
X0316073Y0270070I-000861J0000000D01*
G01*
X0314350Y0270070D01*
G75*
G02*
X0313489Y0270931I0000000J0000861D01*
G01*
X0313489Y0272949D01*
G75*
G02*
X0314350Y0273810I0000861J0000000D01*
G01*
X0316073Y0273810D01*
G75*
G02*
X0316934Y0272949I0000000J-000861D01*
G01*
G37*
G36*
G01*
X0310733Y0272949D02*
X0310733Y0270931D01*
G75*
G02*
X0309872Y0270070I-000861J0000000D01*
G01*
X0308150Y0270070D01*
G75*
G02*
X0307288Y0270931I0000000J0000861D01*
G01*
X0307288Y0272949D01*
G75*
G02*
X0308150Y0273810I0000861J0000000D01*
G01*
X0309872Y0273810D01*
G75*
G02*
X0310733Y0272949I0000000J-000861D01*
G01*
G37*
X0369788Y0317019D03*
X0114080Y0176468D03*
X0267426Y0144775D03*
G36*
G01*
X0390910Y0324420D02*
X0392367Y0324420D01*
G75*
G02*
X0392899Y0323889I0000000J-000531D01*
G01*
X0392899Y0322826D01*
G75*
G02*
X0392367Y0322294I-000531J0000000D01*
G01*
X0390910Y0322294D01*
G75*
G02*
X0390379Y0322826I0000000J0000531D01*
G01*
X0390379Y0323889D01*
G75*
G02*
X0390910Y0324420I0000531J0000000D01*
G01*
G37*
G36*
G01*
X0390910Y0320405D02*
X0392367Y0320405D01*
G75*
G02*
X0392899Y0319873I0000000J-000531D01*
G01*
X0392899Y0318810D01*
G75*
G02*
X0392367Y0318279I-000531J0000000D01*
G01*
X0390910Y0318279D01*
G75*
G02*
X0390379Y0318810I0000000J0000531D01*
G01*
X0390379Y0319873D01*
G75*
G02*
X0390910Y0320405I0000531J0000000D01*
G01*
G37*
X0517820Y0060326D03*
X0248922Y0065247D03*
G36*
G01*
X0241068Y0080818D02*
X0243036Y0080818D01*
G75*
G02*
X0243922Y0079932I0000000J-000886D01*
G01*
X0243922Y0078160D01*
G75*
G02*
X0243036Y0077275I-000886J0000000D01*
G01*
X0241068Y0077275D01*
G75*
G02*
X0240182Y0078160I0000000J0000886D01*
G01*
X0240182Y0079932D01*
G75*
G02*
X0241068Y0080818I0000886J0000000D01*
G01*
G37*
G36*
G01*
X0241068Y0074716D02*
X0243036Y0074716D01*
G75*
G02*
X0243922Y0073830I0000000J-000886D01*
G01*
X0243922Y0072058D01*
G75*
G02*
X0243036Y0071172I-000886J0000000D01*
G01*
X0241068Y0071172D01*
G75*
G02*
X0240182Y0072058I0000000J0000886D01*
G01*
X0240182Y0073830D01*
G75*
G02*
X0241068Y0074716I0000886J0000000D01*
G01*
G37*
X0062702Y0395759D03*
G36*
G01*
X0254336Y0243372D02*
X0254336Y0245390D01*
G75*
G02*
X0255197Y0246251I0000861J0000000D01*
G01*
X0256919Y0246251D01*
G75*
G02*
X0257781Y0245390I0000000J-000861D01*
G01*
X0257781Y0243372D01*
G75*
G02*
X0256919Y0242511I-000861J0000000D01*
G01*
X0255197Y0242511D01*
G75*
G02*
X0254336Y0243372I0000000J0000861D01*
G01*
G37*
G36*
G01*
X0260536Y0243372D02*
X0260536Y0245390D01*
G75*
G02*
X0261398Y0246251I0000861J0000000D01*
G01*
X0263120Y0246251D01*
G75*
G02*
X0263981Y0245390I0000000J-000861D01*
G01*
X0263981Y0243372D01*
G75*
G02*
X0263120Y0242511I-000861J0000000D01*
G01*
X0261398Y0242511D01*
G75*
G02*
X0260536Y0243372I0000000J0000861D01*
G01*
G37*
D169*
X0377662Y0044381D03*
D27*
X0377662Y0051074D03*
X0377662Y0037688D03*
D280*
X0066442Y0346546D03*
X0074710Y0346546D03*
D304*
X0239277Y0228830D03*
X0280418Y0065247D03*
X0196560Y0360134D03*
D40*
X0005741Y0303420D03*
X0015741Y0303420D03*
X0025741Y0303420D03*
X0035741Y0303420D03*
X0045741Y0303420D03*
X0005741Y0293420D03*
X0015741Y0293420D03*
X0025741Y0293420D03*
X0035741Y0293420D03*
X0045741Y0293420D03*
X0005741Y0283420D03*
X0015741Y0283420D03*
X0025741Y0283420D03*
X0035741Y0283420D03*
X0045741Y0283420D03*
D304*
X0277269Y0395759D03*
G36*
G01*
X0168883Y0153889D02*
X0168883Y0155345D01*
G75*
G02*
X0169414Y0155877I0000531J0000000D01*
G01*
X0170477Y0155877D01*
G75*
G02*
X0171009Y0155345I0000000J-000531D01*
G01*
X0171009Y0153889D01*
G75*
G02*
X0170477Y0153357I-000531J0000000D01*
G01*
X0169414Y0153357D01*
G75*
G02*
X0168883Y0153889I0000000J0000531D01*
G01*
G37*
G36*
G01*
X0172899Y0153889D02*
X0172899Y0155345D01*
G75*
G02*
X0173430Y0155877I0000531J0000000D01*
G01*
X0174493Y0155877D01*
G75*
G02*
X0175025Y0155345I0000000J-000531D01*
G01*
X0175025Y0153889D01*
G75*
G02*
X0174493Y0153357I-000531J0000000D01*
G01*
X0173430Y0153357D01*
G75*
G02*
X0172899Y0153889I0000000J0000531D01*
G01*
G37*
X0264670Y0065247D03*
D77*
X0282190Y0263279D03*
X0282190Y0266428D03*
X0282190Y0269578D03*
X0282190Y0272727D03*
X0275497Y0272727D03*
X0275497Y0269578D03*
X0275497Y0266428D03*
X0275497Y0263279D03*
D260*
X0550103Y0089775D03*
D195*
X0574907Y0080798D03*
D260*
X0550103Y0071822D03*
D304*
X0272544Y0065247D03*
X0264473Y0395759D03*
D42*
X0090907Y0043397D03*
D304*
X0304434Y0064853D03*
G36*
G01*
X0254336Y0270931D02*
X0254336Y0272949D01*
G75*
G02*
X0255197Y0273810I0000861J0000000D01*
G01*
X0256919Y0273810D01*
G75*
G02*
X0257781Y0272949I0000000J-000861D01*
G01*
X0257781Y0270931D01*
G75*
G02*
X0256919Y0270070I-000861J0000000D01*
G01*
X0255197Y0270070D01*
G75*
G02*
X0254336Y0270931I0000000J0000861D01*
G01*
G37*
G36*
G01*
X0260536Y0270931D02*
X0260536Y0272949D01*
G75*
G02*
X0261398Y0273810I0000861J0000000D01*
G01*
X0263120Y0273810D01*
G75*
G02*
X0263981Y0272949I0000000J-000861D01*
G01*
X0263981Y0270931D01*
G75*
G02*
X0263120Y0270070I-000861J0000000D01*
G01*
X0261398Y0270070D01*
G75*
G02*
X0260536Y0270931I0000000J0000861D01*
G01*
G37*
G36*
G01*
X0595084Y0228338D02*
X0595084Y0239558D01*
G75*
G02*
X0596068Y0240542I0000984J0000000D01*
G01*
X0598922Y0240542D01*
G75*
G02*
X0599907Y0239558I0000000J-000984D01*
G01*
X0599907Y0228338D01*
G75*
G02*
X0598922Y0227353I-000984J0000000D01*
G01*
X0596068Y0227353D01*
G75*
G02*
X0595084Y0228338I0000000J0000984D01*
G01*
G37*
G36*
G01*
X0618410Y0228338D02*
X0618410Y0239558D01*
G75*
G02*
X0619395Y0240542I0000984J0000000D01*
G01*
X0622249Y0240542D01*
G75*
G02*
X0623233Y0239558I0000000J-000984D01*
G01*
X0623233Y0228338D01*
G75*
G02*
X0622249Y0227353I-000984J0000000D01*
G01*
X0619395Y0227353D01*
G75*
G02*
X0618410Y0228338I0000000J0000984D01*
G01*
G37*
G36*
G01*
X0264523Y0226246D02*
X0264523Y0228264D01*
G75*
G02*
X0265384Y0229125I0000861J0000000D01*
G01*
X0267106Y0229125D01*
G75*
G02*
X0267968Y0228264I0000000J-000861D01*
G01*
X0267968Y0226246D01*
G75*
G02*
X0267106Y0225385I-000861J0000000D01*
G01*
X0265384Y0225385D01*
G75*
G02*
X0264523Y0226246I0000000J0000861D01*
G01*
G37*
G36*
G01*
X0270723Y0226246D02*
X0270723Y0228264D01*
G75*
G02*
X0271585Y0229125I0000861J0000000D01*
G01*
X0273307Y0229125D01*
G75*
G02*
X0274168Y0228264I0000000J-000861D01*
G01*
X0274168Y0226246D01*
G75*
G02*
X0273307Y0225385I-000861J0000000D01*
G01*
X0271585Y0225385D01*
G75*
G02*
X0270723Y0226246I0000000J0000861D01*
G01*
G37*
X0191639Y0352260D03*
G36*
G01*
X0224119Y0154716D02*
X0222151Y0154716D01*
G75*
G02*
X0221265Y0155601I0000000J0000886D01*
G01*
X0221265Y0157373D01*
G75*
G02*
X0222151Y0158259I0000886J0000000D01*
G01*
X0224119Y0158259D01*
G75*
G02*
X0225005Y0157373I0000000J-000886D01*
G01*
X0225005Y0155601D01*
G75*
G02*
X0224119Y0154716I-000886J0000000D01*
G01*
G37*
G36*
G01*
X0224119Y0160818D02*
X0222151Y0160818D01*
G75*
G02*
X0221265Y0161704I0000000J0000886D01*
G01*
X0221265Y0163475D01*
G75*
G02*
X0222151Y0164361I0000886J0000000D01*
G01*
X0224119Y0164361D01*
G75*
G02*
X0225005Y0163475I0000000J-000886D01*
G01*
X0225005Y0161704D01*
G75*
G02*
X0224119Y0160818I-000886J0000000D01*
G01*
G37*
G36*
G01*
X0168883Y0161763D02*
X0168883Y0163219D01*
G75*
G02*
X0169414Y0163751I0000531J0000000D01*
G01*
X0170477Y0163751D01*
G75*
G02*
X0171009Y0163219I0000000J-000531D01*
G01*
X0171009Y0161763D01*
G75*
G02*
X0170477Y0161231I-000531J0000000D01*
G01*
X0169414Y0161231D01*
G75*
G02*
X0168883Y0161763I0000000J0000531D01*
G01*
G37*
G36*
G01*
X0172899Y0161763D02*
X0172899Y0163219D01*
G75*
G02*
X0173430Y0163751I0000531J0000000D01*
G01*
X0174493Y0163751D01*
G75*
G02*
X0175025Y0163219I0000000J-000531D01*
G01*
X0175025Y0161763D01*
G75*
G02*
X0174493Y0161231I-000531J0000000D01*
G01*
X0173430Y0161231D01*
G75*
G02*
X0172899Y0161763I0000000J0000531D01*
G01*
G37*
G36*
G01*
X0484208Y0245537D02*
X0484208Y0247555D01*
G75*
G02*
X0485069Y0248416I0000861J0000000D01*
G01*
X0486791Y0248416D01*
G75*
G02*
X0487653Y0247555I0000000J-000861D01*
G01*
X0487653Y0245537D01*
G75*
G02*
X0486791Y0244676I-000861J0000000D01*
G01*
X0485069Y0244676D01*
G75*
G02*
X0484208Y0245537I0000000J0000861D01*
G01*
G37*
G36*
G01*
X0490408Y0245537D02*
X0490408Y0247555D01*
G75*
G02*
X0491270Y0248416I0000861J0000000D01*
G01*
X0492992Y0248416D01*
G75*
G02*
X0493853Y0247555I0000000J-000861D01*
G01*
X0493853Y0245537D01*
G75*
G02*
X0492992Y0244676I-000861J0000000D01*
G01*
X0491270Y0244676D01*
G75*
G02*
X0490408Y0245537I0000000J0000861D01*
G01*
G37*
X0246757Y0208751D03*
X0294985Y0380011D03*
G36*
G01*
X0237899Y0154716D02*
X0235930Y0154716D01*
G75*
G02*
X0235044Y0155601I0000000J0000886D01*
G01*
X0235044Y0157373D01*
G75*
G02*
X0235930Y0158259I0000886J0000000D01*
G01*
X0237899Y0158259D01*
G75*
G02*
X0238784Y0157373I0000000J-000886D01*
G01*
X0238784Y0155601D01*
G75*
G02*
X0237899Y0154716I-000886J0000000D01*
G01*
G37*
G36*
G01*
X0237899Y0160818D02*
X0235930Y0160818D01*
G75*
G02*
X0235044Y0161704I0000000J0000886D01*
G01*
X0235044Y0163475D01*
G75*
G02*
X0235930Y0164361I0000886J0000000D01*
G01*
X0237899Y0164361D01*
G75*
G02*
X0238784Y0163475I0000000J-000886D01*
G01*
X0238784Y0161704D01*
G75*
G02*
X0237899Y0160818I-000886J0000000D01*
G01*
G37*
X0533568Y0060326D03*
X0350103Y0039460D03*
G36*
G01*
X0233194Y0080916D02*
X0235162Y0080916D01*
G75*
G02*
X0236048Y0080030I0000000J-000886D01*
G01*
X0236048Y0078259D01*
G75*
G02*
X0235162Y0077373I-000886J0000000D01*
G01*
X0233194Y0077373D01*
G75*
G02*
X0232308Y0078259I0000000J0000886D01*
G01*
X0232308Y0080030D01*
G75*
G02*
X0233194Y0080916I0000886J0000000D01*
G01*
G37*
G36*
G01*
X0233194Y0074814D02*
X0235162Y0074814D01*
G75*
G02*
X0236048Y0073928I0000000J-000886D01*
G01*
X0236048Y0072156D01*
G75*
G02*
X0235162Y0071271I-000886J0000000D01*
G01*
X0233194Y0071271D01*
G75*
G02*
X0232308Y0072156I0000000J0000886D01*
G01*
X0232308Y0073928D01*
G75*
G02*
X0233194Y0074814I0000886J0000000D01*
G01*
G37*
D266*
X0313686Y0395385D03*
G36*
G01*
X0311225Y0393593D02*
X0316147Y0393593D01*
G75*
G02*
X0316540Y0393200I0000000J-000394D01*
G01*
X0316540Y0390050D01*
G75*
G02*
X0316147Y0389656I-000394J0000000D01*
G01*
X0311225Y0389656D01*
G75*
G02*
X0310832Y0390050I0000000J0000394D01*
G01*
X0310832Y0393200D01*
G75*
G02*
X0311225Y0393593I0000394J0000000D01*
G01*
G37*
X0313686Y0380385D03*
G36*
G01*
X0311225Y0386113D02*
X0316147Y0386113D01*
G75*
G02*
X0316540Y0385719I0000000J-000394D01*
G01*
X0316540Y0382570D01*
G75*
G02*
X0316147Y0382176I-000394J0000000D01*
G01*
X0311225Y0382176D01*
G75*
G02*
X0310832Y0382570I0000000J0000394D01*
G01*
X0310832Y0385719D01*
G75*
G02*
X0311225Y0386113I0000394J0000000D01*
G01*
G37*
G36*
G01*
X0211363Y0164145D02*
X0211363Y0162806D01*
G75*
G02*
X0210812Y0162255I-000551J0000000D01*
G01*
X0209710Y0162255D01*
G75*
G02*
X0209158Y0162806I0000000J0000551D01*
G01*
X0209158Y0164145D01*
G75*
G02*
X0209710Y0164696I0000551J0000000D01*
G01*
X0210812Y0164696D01*
G75*
G02*
X0211363Y0164145I0000000J-000551D01*
G01*
G37*
G36*
G01*
X0207584Y0164145D02*
X0207584Y0162806D01*
G75*
G02*
X0207032Y0162255I-000551J0000000D01*
G01*
X0205930Y0162255D01*
G75*
G02*
X0205379Y0162806I0000000J0000551D01*
G01*
X0205379Y0164145D01*
G75*
G02*
X0205930Y0164696I0000551J0000000D01*
G01*
X0207032Y0164696D01*
G75*
G02*
X0207584Y0164145I0000000J-000551D01*
G01*
G37*
G36*
G01*
X0361424Y0344538D02*
X0361424Y0341468D01*
G75*
G02*
X0361149Y0341192I-000276J0000000D01*
G01*
X0358944Y0341192D01*
G75*
G02*
X0358668Y0341468I0000000J0000276D01*
G01*
X0358668Y0344538D01*
G75*
G02*
X0358944Y0344814I0000276J0000000D01*
G01*
X0361149Y0344814D01*
G75*
G02*
X0361424Y0344538I0000000J-000276D01*
G01*
G37*
G36*
G01*
X0355125Y0344538D02*
X0355125Y0341468D01*
G75*
G02*
X0354849Y0341192I-000276J0000000D01*
G01*
X0352645Y0341192D01*
G75*
G02*
X0352369Y0341468I0000000J0000276D01*
G01*
X0352369Y0344538D01*
G75*
G02*
X0352645Y0344814I0000276J0000000D01*
G01*
X0354849Y0344814D01*
G75*
G02*
X0355125Y0344538I0000000J-000276D01*
G01*
G37*
G36*
G01*
X0623627Y0041527D02*
X0623627Y0030306D01*
G75*
G02*
X0622643Y0029322I-000984J0000000D01*
G01*
X0619788Y0029322D01*
G75*
G02*
X0618804Y0030306I0000000J0000984D01*
G01*
X0618804Y0041527D01*
G75*
G02*
X0619788Y0042511I0000984J0000000D01*
G01*
X0622643Y0042511D01*
G75*
G02*
X0623627Y0041527I0000000J-000984D01*
G01*
G37*
G36*
G01*
X0600300Y0041527D02*
X0600300Y0030306D01*
G75*
G02*
X0599316Y0029322I-000984J0000000D01*
G01*
X0596462Y0029322D01*
G75*
G02*
X0595477Y0030306I0000000J0000984D01*
G01*
X0595477Y0041527D01*
G75*
G02*
X0596462Y0042511I0000984J0000000D01*
G01*
X0599316Y0042511D01*
G75*
G02*
X0600300Y0041527I0000000J-000984D01*
G01*
G37*
D161*
X0138489Y0151664D03*
D266*
X0240851Y0396182D03*
G36*
G01*
X0238391Y0394391D02*
X0243312Y0394391D01*
G75*
G02*
X0243706Y0393997I0000000J-000394D01*
G01*
X0243706Y0390847D01*
G75*
G02*
X0243312Y0390454I-000394J0000000D01*
G01*
X0238391Y0390454D01*
G75*
G02*
X0237997Y0390847I0000000J0000394D01*
G01*
X0237997Y0393997D01*
G75*
G02*
X0238391Y0394391I0000394J0000000D01*
G01*
G37*
X0240851Y0381182D03*
G36*
G01*
X0238391Y0386910D02*
X0243312Y0386910D01*
G75*
G02*
X0243706Y0386517I0000000J-000394D01*
G01*
X0243706Y0383367D01*
G75*
G02*
X0243312Y0382973I-000394J0000000D01*
G01*
X0238391Y0382973D01*
G75*
G02*
X0237997Y0383367I0000000J0000394D01*
G01*
X0237997Y0386517D01*
G75*
G02*
X0238391Y0386910I0000394J0000000D01*
G01*
G37*
G36*
G01*
X0484060Y0210695D02*
X0484060Y0212713D01*
G75*
G02*
X0484921Y0213574I0000861J0000000D01*
G01*
X0486644Y0213574D01*
G75*
G02*
X0487505Y0212713I0000000J-000861D01*
G01*
X0487505Y0210695D01*
G75*
G02*
X0486644Y0209834I-000861J0000000D01*
G01*
X0484921Y0209834D01*
G75*
G02*
X0484060Y0210695I0000000J0000861D01*
G01*
G37*
G36*
G01*
X0490261Y0210695D02*
X0490261Y0212713D01*
G75*
G02*
X0491122Y0213574I0000861J0000000D01*
G01*
X0492845Y0213574D01*
G75*
G02*
X0493706Y0212713I0000000J-000861D01*
G01*
X0493706Y0210695D01*
G75*
G02*
X0492845Y0209834I-000861J0000000D01*
G01*
X0491122Y0209834D01*
G75*
G02*
X0490261Y0210695I0000000J0000861D01*
G01*
G37*
D304*
X0301481Y0055798D03*
D140*
X0618765Y0321349D03*
X0598765Y0321349D03*
D304*
X0255812Y0193003D03*
G36*
G01*
X0011560Y0102649D02*
X0014631Y0102649D01*
G75*
G02*
X0014907Y0102373I0000000J-000276D01*
G01*
X0014907Y0100168D01*
G75*
G02*
X0014631Y0099893I-000276J0000000D01*
G01*
X0011560Y0099893D01*
G75*
G02*
X0011284Y0100168I0000000J0000276D01*
G01*
X0011284Y0102373D01*
G75*
G02*
X0011560Y0102649I0000276J0000000D01*
G01*
G37*
G36*
G01*
X0011560Y0096349D02*
X0014631Y0096349D01*
G75*
G02*
X0014907Y0096074I0000000J-000276D01*
G01*
X0014907Y0093869D01*
G75*
G02*
X0014631Y0093593I-000276J0000000D01*
G01*
X0011560Y0093593D01*
G75*
G02*
X0011284Y0093869I0000000J0000276D01*
G01*
X0011284Y0096074D01*
G75*
G02*
X0011560Y0096349I0000276J0000000D01*
G01*
G37*
D140*
X0618765Y0163475D03*
X0598765Y0163475D03*
G36*
G01*
X0595477Y0103141D02*
X0595477Y0114361D01*
G75*
G02*
X0596462Y0115345I0000984J0000000D01*
G01*
X0599316Y0115345D01*
G75*
G02*
X0600300Y0114361I0000000J-000984D01*
G01*
X0600300Y0103141D01*
G75*
G02*
X0599316Y0102156I-000984J0000000D01*
G01*
X0596462Y0102156D01*
G75*
G02*
X0595477Y0103141I0000000J0000984D01*
G01*
G37*
G36*
G01*
X0618804Y0103141D02*
X0618804Y0114361D01*
G75*
G02*
X0619788Y0115345I0000984J0000000D01*
G01*
X0622643Y0115345D01*
G75*
G02*
X0623627Y0114361I0000000J-000984D01*
G01*
X0623627Y0103141D01*
G75*
G02*
X0622643Y0102156I-000984J0000000D01*
G01*
X0619788Y0102156D01*
G75*
G02*
X0618804Y0103141I0000000J0000984D01*
G01*
G37*
D77*
X0468804Y0230208D03*
X0468804Y0227058D03*
X0468804Y0223908D03*
X0468804Y0220759D03*
X0475497Y0220759D03*
X0475497Y0223908D03*
X0475497Y0227058D03*
X0475497Y0230208D03*
D304*
X0256796Y0065247D03*
G36*
G01*
X0231009Y0154716D02*
X0229040Y0154716D01*
G75*
G02*
X0228155Y0155601I0000000J0000886D01*
G01*
X0228155Y0157373D01*
G75*
G02*
X0229040Y0158259I0000886J0000000D01*
G01*
X0231009Y0158259D01*
G75*
G02*
X0231895Y0157373I0000000J-000886D01*
G01*
X0231895Y0155601D01*
G75*
G02*
X0231009Y0154716I-000886J0000000D01*
G01*
G37*
G36*
G01*
X0231009Y0160818D02*
X0229040Y0160818D01*
G75*
G02*
X0228155Y0161704I0000000J0000886D01*
G01*
X0228155Y0163475D01*
G75*
G02*
X0229040Y0164361I0000886J0000000D01*
G01*
X0231009Y0164361D01*
G75*
G02*
X0231895Y0163475I0000000J-000886D01*
G01*
X0231895Y0161704D01*
G75*
G02*
X0231009Y0160818I-000886J0000000D01*
G01*
G37*
G36*
G01*
X0544040Y0365011D02*
X0544040Y0361940D01*
G75*
G02*
X0543765Y0361664I-000276J0000000D01*
G01*
X0541560Y0361664D01*
G75*
G02*
X0541284Y0361940I0000000J0000276D01*
G01*
X0541284Y0365011D01*
G75*
G02*
X0541560Y0365286I0000276J0000000D01*
G01*
X0543765Y0365286D01*
G75*
G02*
X0544040Y0365011I0000000J-000276D01*
G01*
G37*
G36*
G01*
X0537741Y0365011D02*
X0537741Y0361940D01*
G75*
G02*
X0537466Y0361664I-000276J0000000D01*
G01*
X0535261Y0361664D01*
G75*
G02*
X0534985Y0361940I0000000J0000276D01*
G01*
X0534985Y0365011D01*
G75*
G02*
X0535261Y0365286I0000276J0000000D01*
G01*
X0537466Y0365286D01*
G75*
G02*
X0537741Y0365011I0000000J-000276D01*
G01*
G37*
G36*
G01*
X0334277Y0372393D02*
X0334277Y0373849D01*
G75*
G02*
X0334808Y0374381I0000531J0000000D01*
G01*
X0335871Y0374381D01*
G75*
G02*
X0336403Y0373849I0000000J-000531D01*
G01*
X0336403Y0372393D01*
G75*
G02*
X0335871Y0371861I-000531J0000000D01*
G01*
X0334808Y0371861D01*
G75*
G02*
X0334277Y0372393I0000000J0000531D01*
G01*
G37*
G36*
G01*
X0338292Y0372393D02*
X0338292Y0373849D01*
G75*
G02*
X0338824Y0374381I0000531J0000000D01*
G01*
X0339887Y0374381D01*
G75*
G02*
X0340418Y0373849I0000000J-000531D01*
G01*
X0340418Y0372393D01*
G75*
G02*
X0339887Y0371861I-000531J0000000D01*
G01*
X0338824Y0371861D01*
G75*
G02*
X0338292Y0372393I0000000J0000531D01*
G01*
G37*
X0232977Y0395759D03*
X0312308Y0064853D03*
G36*
G01*
X0405773Y0371389D02*
X0405773Y0374460D01*
G75*
G02*
X0406048Y0374735I0000276J0000000D01*
G01*
X0408253Y0374735D01*
G75*
G02*
X0408529Y0374460I0000000J-000276D01*
G01*
X0408529Y0371389D01*
G75*
G02*
X0408253Y0371113I-000276J0000000D01*
G01*
X0406048Y0371113D01*
G75*
G02*
X0405773Y0371389I0000000J0000276D01*
G01*
G37*
G36*
G01*
X0412072Y0371389D02*
X0412072Y0374460D01*
G75*
G02*
X0412347Y0374735I0000276J0000000D01*
G01*
X0414552Y0374735D01*
G75*
G02*
X0414828Y0374460I0000000J-000276D01*
G01*
X0414828Y0371389D01*
G75*
G02*
X0414552Y0371113I-000276J0000000D01*
G01*
X0412347Y0371113D01*
G75*
G02*
X0412072Y0371389I0000000J0000276D01*
G01*
G37*
X0455418Y0395759D03*
G36*
G01*
X0623627Y0310818D02*
X0623627Y0299597D01*
G75*
G02*
X0622643Y0298613I-000984J0000000D01*
G01*
X0619788Y0298613D01*
G75*
G02*
X0618804Y0299597I0000000J0000984D01*
G01*
X0618804Y0310818D01*
G75*
G02*
X0619788Y0311802I0000984J0000000D01*
G01*
X0622643Y0311802D01*
G75*
G02*
X0623627Y0310818I0000000J-000984D01*
G01*
G37*
G36*
G01*
X0600300Y0310818D02*
X0600300Y0299597D01*
G75*
G02*
X0599316Y0298613I-000984J0000000D01*
G01*
X0596462Y0298613D01*
G75*
G02*
X0595477Y0299597I0000000J0000984D01*
G01*
X0595477Y0310818D01*
G75*
G02*
X0596462Y0311802I0000984J0000000D01*
G01*
X0599316Y0311802D01*
G75*
G02*
X0600300Y0310818I0000000J-000984D01*
G01*
G37*
D77*
X0468804Y0249302D03*
X0468804Y0246153D03*
X0468804Y0243003D03*
X0468804Y0239853D03*
X0475497Y0239853D03*
X0475497Y0243003D03*
X0475497Y0246153D03*
X0475497Y0249302D03*
D304*
X0339473Y0234342D03*
X0352072Y0324893D03*
X0339080Y0068003D03*
G36*
G01*
X0186757Y0147058D02*
X0186757Y0148397D01*
G75*
G02*
X0187308Y0148948I0000551J0000000D01*
G01*
X0188410Y0148948D01*
G75*
G02*
X0188962Y0148397I0000000J-000551D01*
G01*
X0188962Y0147058D01*
G75*
G02*
X0188410Y0146507I-000551J0000000D01*
G01*
X0187308Y0146507D01*
G75*
G02*
X0186757Y0147058I0000000J0000551D01*
G01*
G37*
G36*
G01*
X0190536Y0147058D02*
X0190536Y0148397D01*
G75*
G02*
X0191088Y0148948I0000551J0000000D01*
G01*
X0192190Y0148948D01*
G75*
G02*
X0192741Y0148397I0000000J-000551D01*
G01*
X0192741Y0147058D01*
G75*
G02*
X0192190Y0146507I-000551J0000000D01*
G01*
X0191088Y0146507D01*
G75*
G02*
X0190536Y0147058I0000000J0000551D01*
G01*
G37*
X0331403Y0294381D03*
G36*
G01*
X0114867Y0190149D02*
X0112899Y0190149D01*
G75*
G02*
X0112013Y0191034I0000000J0000886D01*
G01*
X0112013Y0192806D01*
G75*
G02*
X0112899Y0193692I0000886J0000000D01*
G01*
X0114867Y0193692D01*
G75*
G02*
X0115753Y0192806I0000000J-000886D01*
G01*
X0115753Y0191034D01*
G75*
G02*
X0114867Y0190149I-000886J0000000D01*
G01*
G37*
G36*
G01*
X0114867Y0196251D02*
X0112899Y0196251D01*
G75*
G02*
X0112013Y0197137I0000000J0000886D01*
G01*
X0112013Y0198908D01*
G75*
G02*
X0112899Y0199794I0000886J0000000D01*
G01*
X0114867Y0199794D01*
G75*
G02*
X0115753Y0198908I0000000J-000886D01*
G01*
X0115753Y0197137D01*
G75*
G02*
X0114867Y0196251I-000886J0000000D01*
G01*
G37*
G36*
G01*
X0484208Y0238648D02*
X0484208Y0240665D01*
G75*
G02*
X0485069Y0241527I0000861J0000000D01*
G01*
X0486791Y0241527D01*
G75*
G02*
X0487653Y0240665I0000000J-000861D01*
G01*
X0487653Y0238648D01*
G75*
G02*
X0486791Y0237786I-000861J0000000D01*
G01*
X0485069Y0237786D01*
G75*
G02*
X0484208Y0238648I0000000J0000861D01*
G01*
G37*
G36*
G01*
X0490408Y0238648D02*
X0490408Y0240665D01*
G75*
G02*
X0491270Y0241527I0000861J0000000D01*
G01*
X0492992Y0241527D01*
G75*
G02*
X0493853Y0240665I0000000J-000861D01*
G01*
X0493853Y0238648D01*
G75*
G02*
X0492992Y0237786I-000861J0000000D01*
G01*
X0491270Y0237786D01*
G75*
G02*
X0490408Y0238648I0000000J0000861D01*
G01*
G37*
G36*
G01*
X0085221Y0257235D02*
X0085221Y0258692D01*
G75*
G02*
X0085753Y0259223I0000531J0000000D01*
G01*
X0086816Y0259223D01*
G75*
G02*
X0087347Y0258692I0000000J-000531D01*
G01*
X0087347Y0257235D01*
G75*
G02*
X0086816Y0256704I-000531J0000000D01*
G01*
X0085753Y0256704D01*
G75*
G02*
X0085221Y0257235I0000000J0000531D01*
G01*
G37*
G36*
G01*
X0089237Y0257235D02*
X0089237Y0258692D01*
G75*
G02*
X0089769Y0259223I0000531J0000000D01*
G01*
X0090832Y0259223D01*
G75*
G02*
X0091363Y0258692I0000000J-000531D01*
G01*
X0091363Y0257235D01*
G75*
G02*
X0090832Y0256704I-000531J0000000D01*
G01*
X0089769Y0256704D01*
G75*
G02*
X0089237Y0257235I0000000J0000531D01*
G01*
G37*
D262*
X0253253Y0359342D03*
X0240261Y0359342D03*
D260*
X0550103Y0054342D03*
D195*
X0574907Y0045365D03*
D260*
X0550103Y0036389D03*
D304*
X0149316Y0343593D03*
G36*
G01*
X0269907Y0214204D02*
X0269907Y0212747D01*
G75*
G02*
X0269375Y0212216I-000531J0000000D01*
G01*
X0268312Y0212216D01*
G75*
G02*
X0267781Y0212747I0000000J0000531D01*
G01*
X0267781Y0214204D01*
G75*
G02*
X0268312Y0214735I0000531J0000000D01*
G01*
X0269375Y0214735D01*
G75*
G02*
X0269907Y0214204I0000000J-000531D01*
G01*
G37*
G36*
G01*
X0265891Y0214204D02*
X0265891Y0212747D01*
G75*
G02*
X0265359Y0212216I-000531J0000000D01*
G01*
X0264296Y0212216D01*
G75*
G02*
X0263765Y0212747I0000000J0000531D01*
G01*
X0263765Y0214204D01*
G75*
G02*
X0264296Y0214735I0000531J0000000D01*
G01*
X0265359Y0214735D01*
G75*
G02*
X0265891Y0214204I0000000J-000531D01*
G01*
G37*
G36*
G01*
X0079336Y0372161D02*
X0079336Y0370144D01*
G75*
G02*
X0078474Y0369282I-000861J0000000D01*
G01*
X0076752Y0369282D01*
G75*
G02*
X0075891Y0370144I0000000J0000861D01*
G01*
X0075891Y0372161D01*
G75*
G02*
X0076752Y0373023I0000861J0000000D01*
G01*
X0078474Y0373023D01*
G75*
G02*
X0079336Y0372161I0000000J-000861D01*
G01*
G37*
G36*
G01*
X0073135Y0372161D02*
X0073135Y0370144D01*
G75*
G02*
X0072274Y0369282I-000861J0000000D01*
G01*
X0070551Y0369282D01*
G75*
G02*
X0069690Y0370144I0000000J0000861D01*
G01*
X0069690Y0372161D01*
G75*
G02*
X0070551Y0373023I0000861J0000000D01*
G01*
X0072274Y0373023D01*
G75*
G02*
X0073135Y0372161I0000000J-000861D01*
G01*
G37*
G36*
G01*
X0483912Y0217585D02*
X0483912Y0219602D01*
G75*
G02*
X0484774Y0220464I0000861J0000000D01*
G01*
X0486496Y0220464D01*
G75*
G02*
X0487357Y0219602I0000000J-000861D01*
G01*
X0487357Y0217585D01*
G75*
G02*
X0486496Y0216723I-000861J0000000D01*
G01*
X0484774Y0216723D01*
G75*
G02*
X0483912Y0217585I0000000J0000861D01*
G01*
G37*
G36*
G01*
X0490113Y0217585D02*
X0490113Y0219602D01*
G75*
G02*
X0490974Y0220464I0000861J0000000D01*
G01*
X0492697Y0220464D01*
G75*
G02*
X0493558Y0219602I0000000J-000861D01*
G01*
X0493558Y0217585D01*
G75*
G02*
X0492697Y0216723I-000861J0000000D01*
G01*
X0490974Y0216723D01*
G75*
G02*
X0490113Y0217585I0000000J0000861D01*
G01*
G37*
X0421166Y0325680D03*
D77*
X0288292Y0272727D03*
X0288292Y0269578D03*
X0288292Y0266428D03*
X0288292Y0263279D03*
X0294985Y0263279D03*
X0294985Y0266428D03*
X0294985Y0269578D03*
X0294985Y0272727D03*
G36*
G01*
X0212800Y0393593D02*
X0217721Y0393593D01*
G75*
G02*
X0218115Y0393200I0000000J-000394D01*
G01*
X0218115Y0390050D01*
G75*
G02*
X0217721Y0389656I-000394J0000000D01*
G01*
X0212800Y0389656D01*
G75*
G02*
X0212407Y0390050I0000000J0000394D01*
G01*
X0212407Y0393200D01*
G75*
G02*
X0212800Y0393593I0000394J0000000D01*
G01*
G37*
D266*
X0215261Y0395385D03*
G36*
G01*
X0212800Y0386113D02*
X0217721Y0386113D01*
G75*
G02*
X0218115Y0385719I0000000J-000394D01*
G01*
X0218115Y0382570D01*
G75*
G02*
X0217721Y0382176I-000394J0000000D01*
G01*
X0212800Y0382176D01*
G75*
G02*
X0212407Y0382570I0000000J0000394D01*
G01*
X0212407Y0385719D01*
G75*
G02*
X0212800Y0386113I0000394J0000000D01*
G01*
G37*
X0215261Y0380385D03*
D280*
X0307977Y0265050D03*
X0316245Y0265050D03*
G36*
G01*
X0544001Y0055916D02*
X0544001Y0052845D01*
G75*
G02*
X0543725Y0052570I-000276J0000000D01*
G01*
X0541521Y0052570D01*
G75*
G02*
X0541245Y0052845I0000000J0000276D01*
G01*
X0541245Y0055916D01*
G75*
G02*
X0541521Y0056192I0000276J0000000D01*
G01*
X0543725Y0056192D01*
G75*
G02*
X0544001Y0055916I0000000J-000276D01*
G01*
G37*
G36*
G01*
X0537702Y0055916D02*
X0537702Y0052845D01*
G75*
G02*
X0537426Y0052570I-000276J0000000D01*
G01*
X0535221Y0052570D01*
G75*
G02*
X0534946Y0052845I0000000J0000276D01*
G01*
X0534946Y0055916D01*
G75*
G02*
X0535221Y0056192I0000276J0000000D01*
G01*
X0537426Y0056192D01*
G75*
G02*
X0537702Y0055916I0000000J-000276D01*
G01*
G37*
D304*
X0196560Y0395759D03*
X0255812Y0200877D03*
X0289080Y0395759D03*
G36*
G01*
X0150153Y0064111D02*
X0150153Y0066001D01*
G75*
G02*
X0150389Y0066237I0000236J0000000D01*
G01*
X0152279Y0066237D01*
G75*
G02*
X0152515Y0066001I0000000J-000236D01*
G01*
X0152515Y0064111D01*
G75*
G02*
X0152279Y0063875I-000236J0000000D01*
G01*
X0150389Y0063875D01*
G75*
G02*
X0150153Y0064111I0000000J0000236D01*
G01*
G37*
G36*
G01*
X0150153Y0072773D02*
X0150153Y0074662D01*
G75*
G02*
X0150389Y0074899I0000236J0000000D01*
G01*
X0152279Y0074899D01*
G75*
G02*
X0152515Y0074662I0000000J-000236D01*
G01*
X0152515Y0072773D01*
G75*
G02*
X0152279Y0072536I-000236J0000000D01*
G01*
X0150389Y0072536D01*
G75*
G02*
X0150153Y0072773I0000000J0000236D01*
G01*
G37*
G36*
G01*
X0544001Y0091389D02*
X0544001Y0088318D01*
G75*
G02*
X0543725Y0088042I-000276J0000000D01*
G01*
X0541521Y0088042D01*
G75*
G02*
X0541245Y0088318I0000000J0000276D01*
G01*
X0541245Y0091389D01*
G75*
G02*
X0541521Y0091664I0000276J0000000D01*
G01*
X0543725Y0091664D01*
G75*
G02*
X0544001Y0091389I0000000J-000276D01*
G01*
G37*
G36*
G01*
X0537702Y0091389D02*
X0537702Y0088318D01*
G75*
G02*
X0537426Y0088042I-000276J0000000D01*
G01*
X0535221Y0088042D01*
G75*
G02*
X0534946Y0088318I0000000J0000276D01*
G01*
X0534946Y0091389D01*
G75*
G02*
X0535221Y0091664I0000276J0000000D01*
G01*
X0537426Y0091664D01*
G75*
G02*
X0537702Y0091389I0000000J-000276D01*
G01*
G37*
X0301875Y0395759D03*
G36*
G01*
X0081599Y0190070D02*
X0081599Y0191251D01*
G75*
G02*
X0082190Y0191842I0000591J0000000D01*
G01*
X0088686Y0191842D01*
G75*
G02*
X0089277Y0191251I0000000J-000591D01*
G01*
X0089277Y0190070D01*
G75*
G02*
X0088686Y0189479I-000591J0000000D01*
G01*
X0082190Y0189479D01*
G75*
G02*
X0081599Y0190070I0000000J0000591D01*
G01*
G37*
G36*
G01*
X0081599Y0185070D02*
X0081599Y0186251D01*
G75*
G02*
X0082190Y0186842I0000591J0000000D01*
G01*
X0088686Y0186842D01*
G75*
G02*
X0089277Y0186251I0000000J-000591D01*
G01*
X0089277Y0185070D01*
G75*
G02*
X0088686Y0184479I-000591J0000000D01*
G01*
X0082190Y0184479D01*
G75*
G02*
X0081599Y0185070I0000000J0000591D01*
G01*
G37*
G36*
G01*
X0081599Y0180070D02*
X0081599Y0181251D01*
G75*
G02*
X0082190Y0181842I0000591J0000000D01*
G01*
X0088686Y0181842D01*
G75*
G02*
X0089277Y0181251I0000000J-000591D01*
G01*
X0089277Y0180070D01*
G75*
G02*
X0088686Y0179479I-000591J0000000D01*
G01*
X0082190Y0179479D01*
G75*
G02*
X0081599Y0180070I0000000J0000591D01*
G01*
G37*
G36*
G01*
X0081599Y0175070D02*
X0081599Y0176251D01*
G75*
G02*
X0082190Y0176842I0000591J0000000D01*
G01*
X0088686Y0176842D01*
G75*
G02*
X0089277Y0176251I0000000J-000591D01*
G01*
X0089277Y0175070D01*
G75*
G02*
X0088686Y0174479I-000591J0000000D01*
G01*
X0082190Y0174479D01*
G75*
G02*
X0081599Y0175070I0000000J0000591D01*
G01*
G37*
G36*
G01*
X0101088Y0175070D02*
X0101088Y0176251D01*
G75*
G02*
X0101678Y0176842I0000591J0000000D01*
G01*
X0108174Y0176842D01*
G75*
G02*
X0108765Y0176251I0000000J-000591D01*
G01*
X0108765Y0175070D01*
G75*
G02*
X0108174Y0174479I-000591J0000000D01*
G01*
X0101678Y0174479D01*
G75*
G02*
X0101088Y0175070I0000000J0000591D01*
G01*
G37*
G36*
G01*
X0101088Y0180070D02*
X0101088Y0181251D01*
G75*
G02*
X0101678Y0181842I0000591J0000000D01*
G01*
X0108174Y0181842D01*
G75*
G02*
X0108765Y0181251I0000000J-000591D01*
G01*
X0108765Y0180070D01*
G75*
G02*
X0108174Y0179479I-000591J0000000D01*
G01*
X0101678Y0179479D01*
G75*
G02*
X0101088Y0180070I0000000J0000591D01*
G01*
G37*
G36*
G01*
X0101088Y0185070D02*
X0101088Y0186251D01*
G75*
G02*
X0101678Y0186842I0000591J0000000D01*
G01*
X0108174Y0186842D01*
G75*
G02*
X0108765Y0186251I0000000J-000591D01*
G01*
X0108765Y0185070D01*
G75*
G02*
X0108174Y0184479I-000591J0000000D01*
G01*
X0101678Y0184479D01*
G75*
G02*
X0101088Y0185070I0000000J0000591D01*
G01*
G37*
G36*
G01*
X0101088Y0190070D02*
X0101088Y0191251D01*
G75*
G02*
X0101678Y0191842I0000591J0000000D01*
G01*
X0108174Y0191842D01*
G75*
G02*
X0108765Y0191251I0000000J-000591D01*
G01*
X0108765Y0190070D01*
G75*
G02*
X0108174Y0189479I-000591J0000000D01*
G01*
X0101678Y0189479D01*
G75*
G02*
X0101088Y0190070I0000000J0000591D01*
G01*
G37*
D314*
X0255477Y0141231D03*
X0250477Y0141231D03*
X0245477Y0141231D03*
X0240477Y0141231D03*
X0235477Y0141231D03*
X0230477Y0141231D03*
X0225477Y0141231D03*
X0220477Y0141231D03*
X0215477Y0141231D03*
X0210477Y0141231D03*
X0210477Y0089263D03*
X0215477Y0089263D03*
X0220477Y0089263D03*
X0225477Y0089263D03*
X0230477Y0089263D03*
X0235477Y0089263D03*
X0240477Y0089263D03*
X0245477Y0089263D03*
X0250477Y0089263D03*
X0255477Y0089263D03*
D199*
X0260977Y0115247D03*
D216*
X0232977Y0115247D03*
D199*
X0204977Y0115247D03*
G36*
G01*
X0012269Y0027058D02*
X0009198Y0027058D01*
G75*
G02*
X0008922Y0027334I0000000J0000276D01*
G01*
X0008922Y0029538D01*
G75*
G02*
X0009198Y0029814I0000276J0000000D01*
G01*
X0012269Y0029814D01*
G75*
G02*
X0012544Y0029538I0000000J-000276D01*
G01*
X0012544Y0027334D01*
G75*
G02*
X0012269Y0027058I-000276J0000000D01*
G01*
G37*
G36*
G01*
X0012269Y0033357D02*
X0009198Y0033357D01*
G75*
G02*
X0008922Y0033633I0000000J0000276D01*
G01*
X0008922Y0035838D01*
G75*
G02*
X0009198Y0036113I0000276J0000000D01*
G01*
X0012269Y0036113D01*
G75*
G02*
X0012544Y0035838I0000000J-000276D01*
G01*
X0012544Y0033633D01*
G75*
G02*
X0012269Y0033357I-000276J0000000D01*
G01*
G37*
D110*
X0295822Y0028016D03*
D211*
X0336570Y0027819D03*
X0334601Y0027819D03*
D138*
X0308814Y0023685D03*
X0312259Y0021618D03*
X0307633Y0018666D03*
X0307928Y0004689D03*
G36*
G01*
X0595477Y0141723D02*
X0595477Y0152944D01*
G75*
G02*
X0596462Y0153928I0000984J0000000D01*
G01*
X0599316Y0153928D01*
G75*
G02*
X0600300Y0152944I0000000J-000984D01*
G01*
X0600300Y0141723D01*
G75*
G02*
X0599316Y0140739I-000984J0000000D01*
G01*
X0596462Y0140739D01*
G75*
G02*
X0595477Y0141723I0000000J0000984D01*
G01*
G37*
G36*
G01*
X0618804Y0141723D02*
X0618804Y0152944D01*
G75*
G02*
X0619788Y0153928I0000984J0000000D01*
G01*
X0622643Y0153928D01*
G75*
G02*
X0623627Y0152944I0000000J-000984D01*
G01*
X0623627Y0141723D01*
G75*
G02*
X0622643Y0140739I-000984J0000000D01*
G01*
X0619788Y0140739D01*
G75*
G02*
X0618804Y0141723I0000000J0000984D01*
G01*
G37*
G36*
G01*
X0484060Y0231364D02*
X0484060Y0233382D01*
G75*
G02*
X0484921Y0234243I0000861J0000000D01*
G01*
X0486644Y0234243D01*
G75*
G02*
X0487505Y0233382I0000000J-000861D01*
G01*
X0487505Y0231364D01*
G75*
G02*
X0486644Y0230503I-000861J0000000D01*
G01*
X0484921Y0230503D01*
G75*
G02*
X0484060Y0231364I0000000J0000861D01*
G01*
G37*
G36*
G01*
X0490261Y0231364D02*
X0490261Y0233382D01*
G75*
G02*
X0491122Y0234243I0000861J0000000D01*
G01*
X0492845Y0234243D01*
G75*
G02*
X0493706Y0233382I0000000J-000861D01*
G01*
X0493706Y0231364D01*
G75*
G02*
X0492845Y0230503I-000861J0000000D01*
G01*
X0491122Y0230503D01*
G75*
G02*
X0490261Y0231364I0000000J0000861D01*
G01*
G37*
G36*
G01*
X0623233Y0275779D02*
X0623233Y0264558D01*
G75*
G02*
X0622249Y0263574I-000984J0000000D01*
G01*
X0619395Y0263574D01*
G75*
G02*
X0618410Y0264558I0000000J0000984D01*
G01*
X0618410Y0275779D01*
G75*
G02*
X0619395Y0276763I0000984J0000000D01*
G01*
X0622249Y0276763D01*
G75*
G02*
X0623233Y0275779I0000000J-000984D01*
G01*
G37*
G36*
G01*
X0599907Y0275779D02*
X0599907Y0264558D01*
G75*
G02*
X0598922Y0263574I-000984J0000000D01*
G01*
X0596068Y0263574D01*
G75*
G02*
X0595084Y0264558I0000000J0000984D01*
G01*
X0595084Y0275779D01*
G75*
G02*
X0596068Y0276763I0000984J0000000D01*
G01*
X0598922Y0276763D01*
G75*
G02*
X0599907Y0275779I0000000J-000984D01*
G01*
G37*
D140*
X0618371Y0249302D03*
X0598371Y0249302D03*
D262*
X0253253Y0369184D03*
X0240261Y0369184D03*
D92*
X0394395Y0045651D03*
X0392426Y0045651D03*
X0390458Y0045651D03*
X0388489Y0045651D03*
D154*
X0388440Y0043633D03*
X0388440Y0041664D03*
D92*
X0388489Y0039647D03*
X0390458Y0039647D03*
X0392426Y0039647D03*
X0394395Y0039647D03*
D154*
X0394444Y0041664D03*
X0394444Y0043633D03*
G36*
G01*
X0383076Y0393593D02*
X0387997Y0393593D01*
G75*
G02*
X0388391Y0393200I0000000J-000394D01*
G01*
X0388391Y0390050D01*
G75*
G02*
X0387997Y0389656I-000394J0000000D01*
G01*
X0383076Y0389656D01*
G75*
G02*
X0382682Y0390050I0000000J0000394D01*
G01*
X0382682Y0393200D01*
G75*
G02*
X0383076Y0393593I0000394J0000000D01*
G01*
G37*
D266*
X0385536Y0395385D03*
X0385536Y0380385D03*
G36*
G01*
X0383076Y0386113D02*
X0387997Y0386113D01*
G75*
G02*
X0388391Y0385719I0000000J-000394D01*
G01*
X0388391Y0382570D01*
G75*
G02*
X0387997Y0382176I-000394J0000000D01*
G01*
X0383076Y0382176D01*
G75*
G02*
X0382682Y0382570I0000000J0000394D01*
G01*
X0382682Y0385719D01*
G75*
G02*
X0383076Y0386113I0000394J0000000D01*
G01*
G37*
D42*
X0065317Y0043397D03*
G36*
G01*
X0168883Y0157826D02*
X0168883Y0159282D01*
G75*
G02*
X0169414Y0159814I0000531J0000000D01*
G01*
X0170477Y0159814D01*
G75*
G02*
X0171009Y0159282I0000000J-000531D01*
G01*
X0171009Y0157826D01*
G75*
G02*
X0170477Y0157294I-000531J0000000D01*
G01*
X0169414Y0157294D01*
G75*
G02*
X0168883Y0157826I0000000J0000531D01*
G01*
G37*
G36*
G01*
X0172899Y0157826D02*
X0172899Y0159282D01*
G75*
G02*
X0173430Y0159814I0000531J0000000D01*
G01*
X0174493Y0159814D01*
G75*
G02*
X0175025Y0159282I0000000J-000531D01*
G01*
X0175025Y0157826D01*
G75*
G02*
X0174493Y0157294I-000531J0000000D01*
G01*
X0173430Y0157294D01*
G75*
G02*
X0172899Y0157826I0000000J0000531D01*
G01*
G37*
D304*
X0342229Y0324893D03*
D140*
X0618765Y0087097D03*
X0598765Y0087097D03*
X0618765Y0124893D03*
X0598765Y0124893D03*
G36*
G01*
X0544040Y0248869D02*
X0544040Y0245798D01*
G75*
G02*
X0543765Y0245523I-000276J0000000D01*
G01*
X0541560Y0245523D01*
G75*
G02*
X0541284Y0245798I0000000J0000276D01*
G01*
X0541284Y0248869D01*
G75*
G02*
X0541560Y0249145I0000276J0000000D01*
G01*
X0543765Y0249145D01*
G75*
G02*
X0544040Y0248869I0000000J-000276D01*
G01*
G37*
G36*
G01*
X0537741Y0248869D02*
X0537741Y0245798D01*
G75*
G02*
X0537466Y0245523I-000276J0000000D01*
G01*
X0535261Y0245523D01*
G75*
G02*
X0534985Y0245798I0000000J0000276D01*
G01*
X0534985Y0248869D01*
G75*
G02*
X0535261Y0249145I0000276J0000000D01*
G01*
X0537466Y0249145D01*
G75*
G02*
X0537741Y0248869I0000000J-000276D01*
G01*
G37*
G36*
G01*
X0105064Y0197609D02*
X0105064Y0196271D01*
G75*
G02*
X0104513Y0195719I-000551J0000000D01*
G01*
X0103410Y0195719D01*
G75*
G02*
X0102859Y0196271I0000000J0000551D01*
G01*
X0102859Y0197609D01*
G75*
G02*
X0103410Y0198160I0000551J0000000D01*
G01*
X0104513Y0198160D01*
G75*
G02*
X0105064Y0197609I0000000J-000551D01*
G01*
G37*
G36*
G01*
X0101284Y0197609D02*
X0101284Y0196271D01*
G75*
G02*
X0100733Y0195719I-000551J0000000D01*
G01*
X0099631Y0195719D01*
G75*
G02*
X0099080Y0196271I0000000J0000551D01*
G01*
X0099080Y0197609D01*
G75*
G02*
X0099631Y0198160I0000551J0000000D01*
G01*
X0100733Y0198160D01*
G75*
G02*
X0101284Y0197609I0000000J-000551D01*
G01*
G37*
D40*
X0005741Y0333420D03*
X0015741Y0333420D03*
X0025741Y0333420D03*
X0035741Y0333420D03*
X0045741Y0333420D03*
X0005741Y0323420D03*
X0015741Y0323420D03*
X0025741Y0323420D03*
X0035741Y0323420D03*
X0045741Y0323420D03*
X0005741Y0313420D03*
X0015741Y0313420D03*
X0025741Y0313420D03*
X0035741Y0313420D03*
X0045741Y0313420D03*
D42*
X0105671Y0043397D03*
G36*
G01*
X0316324Y0225385D02*
X0316324Y0227156D01*
G75*
G02*
X0316816Y0227649I0000492J0000000D01*
G01*
X0316816Y0227649D01*
G75*
G02*
X0317308Y0227156I0000000J-000492D01*
G01*
X0317308Y0225385D01*
G75*
G02*
X0316816Y0224893I-000492J0000000D01*
G01*
X0316816Y0224893D01*
G75*
G02*
X0316324Y0225385I0000000J0000492D01*
G01*
G37*
D304*
X0424907Y0333751D03*
D280*
X0263292Y0292609D03*
X0255025Y0292609D03*
G36*
G01*
X0065714Y0376192D02*
X0067170Y0376192D01*
G75*
G02*
X0067702Y0375660I0000000J-000531D01*
G01*
X0067702Y0374597D01*
G75*
G02*
X0067170Y0374066I-000531J0000000D01*
G01*
X0065714Y0374066D01*
G75*
G02*
X0065182Y0374597I0000000J0000531D01*
G01*
X0065182Y0375660D01*
G75*
G02*
X0065714Y0376192I0000531J0000000D01*
G01*
G37*
G36*
G01*
X0065714Y0372176D02*
X0067170Y0372176D01*
G75*
G02*
X0067702Y0371645I0000000J-000531D01*
G01*
X0067702Y0370582D01*
G75*
G02*
X0067170Y0370050I-000531J0000000D01*
G01*
X0065714Y0370050D01*
G75*
G02*
X0065182Y0370582I0000000J0000531D01*
G01*
X0065182Y0371645D01*
G75*
G02*
X0065714Y0372176I0000531J0000000D01*
G01*
G37*
D48*
X0037308Y0045365D03*
D302*
X0027308Y0045365D03*
X0017308Y0045365D03*
X0007308Y0045365D03*
D280*
X0307977Y0292609D03*
X0316245Y0292609D03*
D304*
X0225103Y0352260D03*
X0283174Y0380011D03*
G36*
G01*
X0019434Y0102649D02*
X0022505Y0102649D01*
G75*
G02*
X0022781Y0102373I0000000J-000276D01*
G01*
X0022781Y0100168D01*
G75*
G02*
X0022505Y0099893I-000276J0000000D01*
G01*
X0019434Y0099893D01*
G75*
G02*
X0019158Y0100168I0000000J0000276D01*
G01*
X0019158Y0102373D01*
G75*
G02*
X0019434Y0102649I0000276J0000000D01*
G01*
G37*
G36*
G01*
X0019434Y0096349D02*
X0022505Y0096349D01*
G75*
G02*
X0022781Y0096074I0000000J-000276D01*
G01*
X0022781Y0093869D01*
G75*
G02*
X0022505Y0093593I-000276J0000000D01*
G01*
X0019434Y0093593D01*
G75*
G02*
X0019158Y0093869I0000000J0000276D01*
G01*
X0019158Y0096074D01*
G75*
G02*
X0019434Y0096349I0000276J0000000D01*
G01*
G37*
G36*
G01*
X0254336Y0284711D02*
X0254336Y0286728D01*
G75*
G02*
X0255197Y0287590I0000861J0000000D01*
G01*
X0256919Y0287590D01*
G75*
G02*
X0257781Y0286728I0000000J-000861D01*
G01*
X0257781Y0284711D01*
G75*
G02*
X0256919Y0283849I-000861J0000000D01*
G01*
X0255197Y0283849D01*
G75*
G02*
X0254336Y0284711I0000000J0000861D01*
G01*
G37*
G36*
G01*
X0260536Y0284711D02*
X0260536Y0286728D01*
G75*
G02*
X0261398Y0287590I0000861J0000000D01*
G01*
X0263120Y0287590D01*
G75*
G02*
X0263981Y0286728I0000000J-000861D01*
G01*
X0263981Y0284711D01*
G75*
G02*
X0263120Y0283849I-000861J0000000D01*
G01*
X0261398Y0283849D01*
G75*
G02*
X0260536Y0284711I0000000J0000861D01*
G01*
G37*
X0255615Y0185129D03*
D110*
X0256107Y0319493D03*
X0256107Y0326284D03*
X0256107Y0333075D03*
X0256107Y0339768D03*
D211*
X0308076Y0313686D03*
D110*
X0330737Y0337392D03*
X0330714Y0323134D03*
G36*
G01*
X0087210Y0198318D02*
X0087210Y0196349D01*
G75*
G02*
X0086324Y0195464I-000886J0000000D01*
G01*
X0084552Y0195464D01*
G75*
G02*
X0083666Y0196349I0000000J0000886D01*
G01*
X0083666Y0198318D01*
G75*
G02*
X0084552Y0199204I0000886J0000000D01*
G01*
X0086324Y0199204D01*
G75*
G02*
X0087210Y0198318I0000000J-000886D01*
G01*
G37*
G36*
G01*
X0081107Y0198318D02*
X0081107Y0196349D01*
G75*
G02*
X0080221Y0195464I-000886J0000000D01*
G01*
X0078450Y0195464D01*
G75*
G02*
X0077564Y0196349I0000000J0000886D01*
G01*
X0077564Y0198318D01*
G75*
G02*
X0078450Y0199204I0000886J0000000D01*
G01*
X0080221Y0199204D01*
G75*
G02*
X0081107Y0198318I0000000J-000886D01*
G01*
G37*
D79*
X0013391Y0065050D03*
G36*
G01*
X0048430Y0059735D02*
X0035832Y0059735D01*
G75*
G02*
X0034847Y0060719I0000000J0000984D01*
G01*
X0034847Y0069381D01*
G75*
G02*
X0035832Y0070365I0000984J0000000D01*
G01*
X0048430Y0070365D01*
G75*
G02*
X0049414Y0069381I0000000J-000984D01*
G01*
X0049414Y0060719D01*
G75*
G02*
X0048430Y0059735I-000984J0000000D01*
G01*
G37*
D243*
X0063784Y0065050D03*
D280*
X0177072Y0148712D03*
X0168804Y0148712D03*
D304*
X0246757Y0200877D03*
X0438686Y0325877D03*
G36*
G01*
X0384513Y0055523D02*
X0384513Y0056861D01*
G75*
G02*
X0385064Y0057412I0000551J0000000D01*
G01*
X0386166Y0057412D01*
G75*
G02*
X0386718Y0056861I0000000J-000551D01*
G01*
X0386718Y0055523D01*
G75*
G02*
X0386166Y0054971I-000551J0000000D01*
G01*
X0385064Y0054971D01*
G75*
G02*
X0384513Y0055523I0000000J0000551D01*
G01*
G37*
G36*
G01*
X0388292Y0055523D02*
X0388292Y0056861D01*
G75*
G02*
X0388844Y0057412I0000551J0000000D01*
G01*
X0389946Y0057412D01*
G75*
G02*
X0390497Y0056861I0000000J-000551D01*
G01*
X0390497Y0055523D01*
G75*
G02*
X0389946Y0054971I-000551J0000000D01*
G01*
X0388844Y0054971D01*
G75*
G02*
X0388292Y0055523I0000000J0000551D01*
G01*
G37*
G36*
G01*
X0414700Y0040060D02*
X0413361Y0040060D01*
G75*
G02*
X0412810Y0040611I0000000J0000551D01*
G01*
X0412810Y0041714D01*
G75*
G02*
X0413361Y0042265I0000551J0000000D01*
G01*
X0414700Y0042265D01*
G75*
G02*
X0415251Y0041714I0000000J-000551D01*
G01*
X0415251Y0040611D01*
G75*
G02*
X0414700Y0040060I-000551J0000000D01*
G01*
G37*
G36*
G01*
X0414700Y0043840D02*
X0413361Y0043840D01*
G75*
G02*
X0412810Y0044391I0000000J0000551D01*
G01*
X0412810Y0045493D01*
G75*
G02*
X0413361Y0046044I0000551J0000000D01*
G01*
X0414700Y0046044D01*
G75*
G02*
X0415251Y0045493I0000000J-000551D01*
G01*
X0415251Y0044391D01*
G75*
G02*
X0414700Y0043840I-000551J0000000D01*
G01*
G37*
X0114080Y0168593D03*
D40*
X0005741Y0363420D03*
X0015741Y0363420D03*
X0025741Y0363420D03*
X0035741Y0363420D03*
X0045741Y0363420D03*
X0005741Y0353420D03*
X0015741Y0353420D03*
X0025741Y0353420D03*
X0035741Y0353420D03*
X0045741Y0353420D03*
X0005741Y0343420D03*
X0015741Y0343420D03*
X0025741Y0343420D03*
X0035741Y0343420D03*
X0045741Y0343420D03*
D304*
X0441639Y0395759D03*
G36*
G01*
X0385674Y0033790D02*
X0385674Y0036468D01*
G75*
G02*
X0386009Y0036802I0000335J0000000D01*
G01*
X0388686Y0036802D01*
G75*
G02*
X0389021Y0036468I0000000J-000335D01*
G01*
X0389021Y0033790D01*
G75*
G02*
X0388686Y0033456I-000335J0000000D01*
G01*
X0386009Y0033456D01*
G75*
G02*
X0385674Y0033790I0000000J0000335D01*
G01*
G37*
G36*
G01*
X0391895Y0033790D02*
X0391895Y0036468D01*
G75*
G02*
X0392229Y0036802I0000335J0000000D01*
G01*
X0394907Y0036802D01*
G75*
G02*
X0395241Y0036468I0000000J-000335D01*
G01*
X0395241Y0033790D01*
G75*
G02*
X0394907Y0033456I-000335J0000000D01*
G01*
X0392229Y0033456D01*
G75*
G02*
X0391895Y0033790I0000000J0000335D01*
G01*
G37*
X0356009Y0381979D03*
X0246757Y0216625D03*
X0140458Y0343593D03*
G36*
G01*
X0484208Y0252427D02*
X0484208Y0254445D01*
G75*
G02*
X0485069Y0255306I0000861J0000000D01*
G01*
X0486791Y0255306D01*
G75*
G02*
X0487653Y0254445I0000000J-000861D01*
G01*
X0487653Y0252427D01*
G75*
G02*
X0486791Y0251566I-000861J0000000D01*
G01*
X0485069Y0251566D01*
G75*
G02*
X0484208Y0252427I0000000J0000861D01*
G01*
G37*
G36*
G01*
X0490408Y0252427D02*
X0490408Y0254445D01*
G75*
G02*
X0491270Y0255306I0000861J0000000D01*
G01*
X0492992Y0255306D01*
G75*
G02*
X0493853Y0254445I0000000J-000861D01*
G01*
X0493853Y0252427D01*
G75*
G02*
X0492992Y0251566I-000861J0000000D01*
G01*
X0491270Y0251566D01*
G75*
G02*
X0490408Y0252427I0000000J0000861D01*
G01*
G37*
X0509946Y0060326D03*
G36*
G01*
X0316934Y0286728D02*
X0316934Y0284711D01*
G75*
G02*
X0316073Y0283849I-000861J0000000D01*
G01*
X0314350Y0283849D01*
G75*
G02*
X0313489Y0284711I0000000J0000861D01*
G01*
X0313489Y0286728D01*
G75*
G02*
X0314350Y0287590I0000861J0000000D01*
G01*
X0316073Y0287590D01*
G75*
G02*
X0316934Y0286728I0000000J-000861D01*
G01*
G37*
G36*
G01*
X0310733Y0286728D02*
X0310733Y0284711D01*
G75*
G02*
X0309872Y0283849I-000861J0000000D01*
G01*
X0308150Y0283849D01*
G75*
G02*
X0307288Y0284711I0000000J0000861D01*
G01*
X0307288Y0286728D01*
G75*
G02*
X0308150Y0287590I0000861J0000000D01*
G01*
X0309872Y0287590D01*
G75*
G02*
X0310733Y0286728I0000000J-000861D01*
G01*
G37*
X0258568Y0158554D03*
X0246757Y0185129D03*
X0423922Y0044381D03*
G36*
G01*
X0543607Y0325641D02*
X0543607Y0322570D01*
G75*
G02*
X0543332Y0322294I-000276J0000000D01*
G01*
X0541127Y0322294D01*
G75*
G02*
X0540851Y0322570I0000000J0000276D01*
G01*
X0540851Y0325641D01*
G75*
G02*
X0541127Y0325916I0000276J0000000D01*
G01*
X0543332Y0325916D01*
G75*
G02*
X0543607Y0325641I0000000J-000276D01*
G01*
G37*
G36*
G01*
X0537308Y0325641D02*
X0537308Y0322570D01*
G75*
G02*
X0537032Y0322294I-000276J0000000D01*
G01*
X0534828Y0322294D01*
G75*
G02*
X0534552Y0322570I0000000J0000276D01*
G01*
X0534552Y0325641D01*
G75*
G02*
X0534828Y0325916I0000276J0000000D01*
G01*
X0537032Y0325916D01*
G75*
G02*
X0537308Y0325641I0000000J-000276D01*
G01*
G37*
D110*
X0074513Y0184292D03*
X0074513Y0180847D03*
X0074513Y0178091D03*
X0004336Y0176320D03*
X0004336Y0185769D03*
D138*
X0497055Y0002895D03*
D33*
X0345940Y0017560D03*
D138*
X0448775Y0002895D03*
X0392869Y0002895D03*
X0349956Y0002895D03*
D33*
X0345940Y0010080D03*
D138*
X0491590Y0017855D03*
D304*
X0122741Y0343593D03*
X0423922Y0052255D03*
G36*
G01*
X0079336Y0355429D02*
X0079336Y0353411D01*
G75*
G02*
X0078474Y0352550I-000861J0000000D01*
G01*
X0076752Y0352550D01*
G75*
G02*
X0075891Y0353411I0000000J0000861D01*
G01*
X0075891Y0355429D01*
G75*
G02*
X0076752Y0356290I0000861J0000000D01*
G01*
X0078474Y0356290D01*
G75*
G02*
X0079336Y0355429I0000000J-000861D01*
G01*
G37*
G36*
G01*
X0073135Y0355429D02*
X0073135Y0353411D01*
G75*
G02*
X0072274Y0352550I-000861J0000000D01*
G01*
X0070551Y0352550D01*
G75*
G02*
X0069690Y0353411I0000000J0000861D01*
G01*
X0069690Y0355429D01*
G75*
G02*
X0070551Y0356290I0000861J0000000D01*
G01*
X0072274Y0356290D01*
G75*
G02*
X0073135Y0355429I0000000J-000861D01*
G01*
G37*
G36*
G01*
X0544001Y0288239D02*
X0544001Y0285168D01*
G75*
G02*
X0543725Y0284893I-000276J0000000D01*
G01*
X0541521Y0284893D01*
G75*
G02*
X0541245Y0285168I0000000J0000276D01*
G01*
X0541245Y0288239D01*
G75*
G02*
X0541521Y0288515I0000276J0000000D01*
G01*
X0543725Y0288515D01*
G75*
G02*
X0544001Y0288239I0000000J-000276D01*
G01*
G37*
G36*
G01*
X0537702Y0288239D02*
X0537702Y0285168D01*
G75*
G02*
X0537426Y0284893I-000276J0000000D01*
G01*
X0535221Y0284893D01*
G75*
G02*
X0534946Y0285168I0000000J0000276D01*
G01*
X0534946Y0288239D01*
G75*
G02*
X0535221Y0288515I0000276J0000000D01*
G01*
X0537426Y0288515D01*
G75*
G02*
X0537702Y0288239I0000000J-000276D01*
G01*
G37*
G36*
G01*
X0125103Y0016921D02*
X0125103Y0011605D01*
G75*
G02*
X0124120Y0010621I-000984J0000000D01*
G01*
X0119394Y0010621D01*
G75*
G02*
X0118410Y0011605I0000000J0000984D01*
G01*
X0118410Y0016921D01*
G75*
G02*
X0119394Y0017905I0000984J0000000D01*
G01*
X0124120Y0017905D01*
G75*
G02*
X0125103Y0016921I0000000J-000984D01*
G01*
G37*
D181*
X0111914Y0014263D03*
X0102072Y0014263D03*
X0092229Y0014263D03*
X0082387Y0014263D03*
X0072544Y0014263D03*
X0062702Y0014263D03*
X0052859Y0014263D03*
D304*
X0159158Y0354420D03*
G36*
G01*
X0163145Y0163500D02*
X0163145Y0161482D01*
G75*
G02*
X0162283Y0160621I-000861J0000000D01*
G01*
X0160561Y0160621D01*
G75*
G02*
X0159700Y0161482I0000000J0000861D01*
G01*
X0159700Y0163500D01*
G75*
G02*
X0160561Y0164361I0000861J0000000D01*
G01*
X0162283Y0164361D01*
G75*
G02*
X0163145Y0163500I0000000J-000861D01*
G01*
G37*
G36*
G01*
X0156944Y0163500D02*
X0156944Y0161482D01*
G75*
G02*
X0156083Y0160621I-000861J0000000D01*
G01*
X0154360Y0160621D01*
G75*
G02*
X0153499Y0161482I0000000J0000861D01*
G01*
X0153499Y0163500D01*
G75*
G02*
X0154360Y0164361I0000861J0000000D01*
G01*
X0156083Y0164361D01*
G75*
G02*
X0156944Y0163500I0000000J-000861D01*
G01*
G37*
D286*
X0329631Y0054912D03*
D291*
X0326481Y0048023D03*
X0323332Y0054912D03*
X0320182Y0048023D03*
X0317032Y0054912D03*
D128*
X0337702Y0051468D03*
X0308962Y0051468D03*
D304*
X0330418Y0234342D03*
D169*
X0361914Y0044381D03*
D27*
X0361914Y0051074D03*
X0361914Y0037688D03*
D304*
X0269395Y0348515D03*
X0412111Y0325680D03*
D280*
X0263292Y0251271D03*
X0255025Y0251271D03*
G36*
G01*
X0163145Y0156610D02*
X0163145Y0154593D01*
G75*
G02*
X0162283Y0153731I-000861J0000000D01*
G01*
X0160561Y0153731D01*
G75*
G02*
X0159700Y0154593I0000000J0000861D01*
G01*
X0159700Y0156610D01*
G75*
G02*
X0160561Y0157471I0000861J0000000D01*
G01*
X0162283Y0157471D01*
G75*
G02*
X0163145Y0156610I0000000J-000861D01*
G01*
G37*
G36*
G01*
X0156944Y0156610D02*
X0156944Y0154593D01*
G75*
G02*
X0156083Y0153731I-000861J0000000D01*
G01*
X0154360Y0153731D01*
G75*
G02*
X0153499Y0154593I0000000J0000861D01*
G01*
X0153499Y0156610D01*
G75*
G02*
X0154360Y0157471I0000861J0000000D01*
G01*
X0156083Y0157471D01*
G75*
G02*
X0156944Y0156610I0000000J-000861D01*
G01*
G37*
D304*
X0230025Y0360134D03*
X0525694Y0060326D03*
D42*
X0052522Y0043397D03*
D304*
X0259158Y0380011D03*
D48*
X0056206Y0084735D03*
D302*
X0046206Y0084735D03*
X0036206Y0084735D03*
X0026206Y0084735D03*
X0016206Y0084735D03*
X0006206Y0084735D03*
G36*
G01*
X0192741Y0140582D02*
X0192741Y0139125D01*
G75*
G02*
X0192210Y0138593I-000531J0000000D01*
G01*
X0191147Y0138593D01*
G75*
G02*
X0190615Y0139125I0000000J0000531D01*
G01*
X0190615Y0140582D01*
G75*
G02*
X0191147Y0141113I0000531J0000000D01*
G01*
X0192210Y0141113D01*
G75*
G02*
X0192741Y0140582I0000000J-000531D01*
G01*
G37*
G36*
G01*
X0188725Y0140582D02*
X0188725Y0139125D01*
G75*
G02*
X0188194Y0138593I-000531J0000000D01*
G01*
X0187131Y0138593D01*
G75*
G02*
X0186599Y0139125I0000000J0000531D01*
G01*
X0186599Y0140582D01*
G75*
G02*
X0187131Y0141113I0000531J0000000D01*
G01*
X0188194Y0141113D01*
G75*
G02*
X0188725Y0140582I0000000J-000531D01*
G01*
G37*
D304*
X0246757Y0193003D03*
X0312702Y0234342D03*
D161*
X0171954Y0133948D03*
D304*
X0260536Y0348515D03*
X0362899Y0395759D03*
G36*
G01*
X0409700Y0043052D02*
X0409700Y0042265D01*
G75*
G02*
X0409306Y0041871I-000394J0000000D01*
G01*
X0407928Y0041871D01*
G75*
G02*
X0407534Y0042265I0000000J0000394D01*
G01*
X0407534Y0043052D01*
G75*
G02*
X0407928Y0043446I0000394J0000000D01*
G01*
X0409306Y0043446D01*
G75*
G02*
X0409700Y0043052I0000000J-000394D01*
G01*
G37*
G36*
G01*
X0409700Y0045414D02*
X0409700Y0044627D01*
G75*
G02*
X0409306Y0044233I-000394J0000000D01*
G01*
X0407928Y0044233D01*
G75*
G02*
X0407534Y0044627I0000000J0000394D01*
G01*
X0407534Y0045414D01*
G75*
G02*
X0407928Y0045808I0000394J0000000D01*
G01*
X0409306Y0045808D01*
G75*
G02*
X0409700Y0045414I0000000J-000394D01*
G01*
G37*
G36*
G01*
X0408125Y0048170D02*
X0408125Y0046792D01*
G75*
G02*
X0407731Y0046399I-000394J0000000D01*
G01*
X0406944Y0046399D01*
G75*
G02*
X0406550Y0046792I0000000J0000394D01*
G01*
X0406550Y0048170D01*
G75*
G02*
X0406944Y0048564I0000394J0000000D01*
G01*
X0407731Y0048564D01*
G75*
G02*
X0408125Y0048170I0000000J-000394D01*
G01*
G37*
G36*
G01*
X0405763Y0048170D02*
X0405763Y0046792D01*
G75*
G02*
X0405369Y0046399I-000394J0000000D01*
G01*
X0404582Y0046399D01*
G75*
G02*
X0404188Y0046792I0000000J0000394D01*
G01*
X0404188Y0048170D01*
G75*
G02*
X0404582Y0048564I0000394J0000000D01*
G01*
X0405369Y0048564D01*
G75*
G02*
X0405763Y0048170I0000000J-000394D01*
G01*
G37*
G36*
G01*
X0403401Y0048170D02*
X0403401Y0046792D01*
G75*
G02*
X0403007Y0046399I-000394J0000000D01*
G01*
X0402220Y0046399D01*
G75*
G02*
X0401826Y0046792I0000000J0000394D01*
G01*
X0401826Y0048170D01*
G75*
G02*
X0402220Y0048564I0000394J0000000D01*
G01*
X0403007Y0048564D01*
G75*
G02*
X0403401Y0048170I0000000J-000394D01*
G01*
G37*
G36*
G01*
X0402416Y0045414D02*
X0402416Y0044627D01*
G75*
G02*
X0402023Y0044233I-000394J0000000D01*
G01*
X0400645Y0044233D01*
G75*
G02*
X0400251Y0044627I0000000J0000394D01*
G01*
X0400251Y0045414D01*
G75*
G02*
X0400645Y0045808I0000394J0000000D01*
G01*
X0402023Y0045808D01*
G75*
G02*
X0402416Y0045414I0000000J-000394D01*
G01*
G37*
G36*
G01*
X0402416Y0043052D02*
X0402416Y0042265D01*
G75*
G02*
X0402023Y0041871I-000394J0000000D01*
G01*
X0400645Y0041871D01*
G75*
G02*
X0400251Y0042265I0000000J0000394D01*
G01*
X0400251Y0043052D01*
G75*
G02*
X0400645Y0043446I0000394J0000000D01*
G01*
X0402023Y0043446D01*
G75*
G02*
X0402416Y0043052I0000000J-000394D01*
G01*
G37*
G36*
G01*
X0403401Y0040887D02*
X0403401Y0039509D01*
G75*
G02*
X0403007Y0039115I-000394J0000000D01*
G01*
X0402220Y0039115D01*
G75*
G02*
X0401826Y0039509I0000000J0000394D01*
G01*
X0401826Y0040887D01*
G75*
G02*
X0402220Y0041280I0000394J0000000D01*
G01*
X0403007Y0041280D01*
G75*
G02*
X0403401Y0040887I0000000J-000394D01*
G01*
G37*
G36*
G01*
X0405763Y0040887D02*
X0405763Y0039509D01*
G75*
G02*
X0405369Y0039115I-000394J0000000D01*
G01*
X0404582Y0039115D01*
G75*
G02*
X0404188Y0039509I0000000J0000394D01*
G01*
X0404188Y0040887D01*
G75*
G02*
X0404582Y0041280I0000394J0000000D01*
G01*
X0405369Y0041280D01*
G75*
G02*
X0405763Y0040887I0000000J-000394D01*
G01*
G37*
G36*
G01*
X0408125Y0040887D02*
X0408125Y0039509D01*
G75*
G02*
X0407731Y0039115I-000394J0000000D01*
G01*
X0406944Y0039115D01*
G75*
G02*
X0406550Y0039509I0000000J0000394D01*
G01*
X0406550Y0040887D01*
G75*
G02*
X0406944Y0041280I0000394J0000000D01*
G01*
X0407731Y0041280D01*
G75*
G02*
X0408125Y0040887I0000000J-000394D01*
G01*
G37*
X0261521Y0168397D03*
X0237899Y0313082D03*
X0346166Y0317019D03*
X0246757Y0177255D03*
X0321560Y0234342D03*
G36*
G01*
X0186599Y0150936D02*
X0186599Y0152393D01*
G75*
G02*
X0187131Y0152924I0000531J0000000D01*
G01*
X0188194Y0152924D01*
G75*
G02*
X0188725Y0152393I0000000J-000531D01*
G01*
X0188725Y0150936D01*
G75*
G02*
X0188194Y0150405I-000531J0000000D01*
G01*
X0187131Y0150405D01*
G75*
G02*
X0186599Y0150936I0000000J0000531D01*
G01*
G37*
G36*
G01*
X0190615Y0150936D02*
X0190615Y0152393D01*
G75*
G02*
X0191147Y0152924I0000531J0000000D01*
G01*
X0192210Y0152924D01*
G75*
G02*
X0192741Y0152393I0000000J-000531D01*
G01*
X0192741Y0150936D01*
G75*
G02*
X0192210Y0150405I-000531J0000000D01*
G01*
X0191147Y0150405D01*
G75*
G02*
X0190615Y0150936I0000000J0000531D01*
G01*
G37*
X0237899Y0305208D03*
X0209355Y0352260D03*
G36*
G01*
X0316934Y0245390D02*
X0316934Y0243372D01*
G75*
G02*
X0316073Y0242511I-000861J0000000D01*
G01*
X0314350Y0242511D01*
G75*
G02*
X0313489Y0243372I0000000J0000861D01*
G01*
X0313489Y0245390D01*
G75*
G02*
X0314350Y0246251I0000861J0000000D01*
G01*
X0316073Y0246251D01*
G75*
G02*
X0316934Y0245390I0000000J-000861D01*
G01*
G37*
G36*
G01*
X0310733Y0245390D02*
X0310733Y0243372D01*
G75*
G02*
X0309872Y0242511I-000861J0000000D01*
G01*
X0308150Y0242511D01*
G75*
G02*
X0307288Y0243372I0000000J0000861D01*
G01*
X0307288Y0245390D01*
G75*
G02*
X0308150Y0246251I0000861J0000000D01*
G01*
X0309872Y0246251D01*
G75*
G02*
X0310733Y0245390I0000000J-000861D01*
G01*
G37*
X0293607Y0055798D03*
X0131599Y0343593D03*
X0100103Y0164460D03*
X0249710Y0380011D03*
X0232977Y0380011D03*
X0347151Y0332767D03*
D110*
X0074513Y0165591D03*
X0074513Y0162147D03*
X0074513Y0159391D03*
X0004336Y0157619D03*
X0004336Y0167068D03*
D40*
X0005741Y0273420D03*
X0015741Y0273420D03*
X0025741Y0273420D03*
X0035741Y0273420D03*
X0045741Y0273420D03*
X0005741Y0263420D03*
X0015741Y0263420D03*
X0025741Y0263420D03*
X0035741Y0263420D03*
X0045741Y0263420D03*
X0005741Y0253420D03*
X0015741Y0253420D03*
X0025741Y0253420D03*
X0035741Y0253420D03*
X0045741Y0253420D03*
G36*
G01*
X0192741Y0144519D02*
X0192741Y0143062D01*
G75*
G02*
X0192210Y0142530I-000531J0000000D01*
G01*
X0191147Y0142530D01*
G75*
G02*
X0190615Y0143062I0000000J0000531D01*
G01*
X0190615Y0144519D01*
G75*
G02*
X0191147Y0145050I0000531J0000000D01*
G01*
X0192210Y0145050D01*
G75*
G02*
X0192741Y0144519I0000000J-000531D01*
G01*
G37*
G36*
G01*
X0188725Y0144519D02*
X0188725Y0143062D01*
G75*
G02*
X0188194Y0142530I-000531J0000000D01*
G01*
X0187131Y0142530D01*
G75*
G02*
X0186599Y0143062I0000000J0000531D01*
G01*
X0186599Y0144519D01*
G75*
G02*
X0187131Y0145050I0000531J0000000D01*
G01*
X0188194Y0145050D01*
G75*
G02*
X0188725Y0144519I0000000J-000531D01*
G01*
G37*
D304*
X0470182Y0395759D03*
X0288292Y0065247D03*
G36*
G01*
X0622840Y0350188D02*
X0622840Y0338968D01*
G75*
G02*
X0621855Y0337983I-000984J0000000D01*
G01*
X0619001Y0337983D01*
G75*
G02*
X0618017Y0338968I0000000J0000984D01*
G01*
X0618017Y0350188D01*
G75*
G02*
X0619001Y0351172I0000984J0000000D01*
G01*
X0621855Y0351172D01*
G75*
G02*
X0622840Y0350188I0000000J-000984D01*
G01*
G37*
G36*
G01*
X0599513Y0350188D02*
X0599513Y0338968D01*
G75*
G02*
X0598529Y0337983I-000984J0000000D01*
G01*
X0595674Y0337983D01*
G75*
G02*
X0594690Y0338968I0000000J0000984D01*
G01*
X0594690Y0350188D01*
G75*
G02*
X0595674Y0351172I0000984J0000000D01*
G01*
X0598529Y0351172D01*
G75*
G02*
X0599513Y0350188I0000000J-000984D01*
G01*
G37*
D140*
X0618371Y0360326D03*
X0598371Y0360326D03*
D304*
X0200497Y0352260D03*
X0169985Y0395759D03*
D202*
X0113476Y0064342D03*
X0113476Y0154342D03*
D266*
X0163476Y0084342D03*
X0163476Y0094342D03*
X0163476Y0104342D03*
X0163476Y0114342D03*
X0163476Y0124342D03*
X0163476Y0134342D03*
G36*
G01*
X0248942Y0080818D02*
X0250910Y0080818D01*
G75*
G02*
X0251796Y0079932I0000000J-000886D01*
G01*
X0251796Y0078160D01*
G75*
G02*
X0250910Y0077275I-000886J0000000D01*
G01*
X0248942Y0077275D01*
G75*
G02*
X0248056Y0078160I0000000J0000886D01*
G01*
X0248056Y0079932D01*
G75*
G02*
X0248942Y0080818I0000886J0000000D01*
G01*
G37*
G36*
G01*
X0248942Y0074716D02*
X0250910Y0074716D01*
G75*
G02*
X0251796Y0073830I0000000J-000886D01*
G01*
X0251796Y0072058D01*
G75*
G02*
X0250910Y0071172I-000886J0000000D01*
G01*
X0248942Y0071172D01*
G75*
G02*
X0248056Y0072058I0000000J0000886D01*
G01*
X0248056Y0073830D01*
G75*
G02*
X0248942Y0074716I0000886J0000000D01*
G01*
G37*
G36*
G01*
X0484060Y0224474D02*
X0484060Y0226492D01*
G75*
G02*
X0484921Y0227353I0000861J0000000D01*
G01*
X0486644Y0227353D01*
G75*
G02*
X0487505Y0226492I0000000J-000861D01*
G01*
X0487505Y0224474D01*
G75*
G02*
X0486644Y0223613I-000861J0000000D01*
G01*
X0484921Y0223613D01*
G75*
G02*
X0484060Y0224474I0000000J0000861D01*
G01*
G37*
G36*
G01*
X0490261Y0224474D02*
X0490261Y0226492D01*
G75*
G02*
X0491122Y0227353I0000861J0000000D01*
G01*
X0492845Y0227353D01*
G75*
G02*
X0493706Y0226492I0000000J-000861D01*
G01*
X0493706Y0224474D01*
G75*
G02*
X0492845Y0223613I-000861J0000000D01*
G01*
X0491122Y0223613D01*
G75*
G02*
X0490261Y0224474I0000000J0000861D01*
G01*
G37*
D137*
X0134129Y0333948D03*
X0139074Y0333948D03*
X0195668Y0333948D03*
D253*
X0231318Y0320183D03*
D304*
X0252662Y0395759D03*
X0072544Y0395759D03*
X0354040Y0395759D03*
X0255812Y0208751D03*
D266*
X0094395Y0359971D03*
G36*
G01*
X0091934Y0358180D02*
X0096855Y0358180D01*
G75*
G02*
X0097249Y0357786I0000000J-000394D01*
G01*
X0097249Y0354637D01*
G75*
G02*
X0096855Y0354243I-000394J0000000D01*
G01*
X0091934Y0354243D01*
G75*
G02*
X0091540Y0354637I0000000J0000394D01*
G01*
X0091540Y0357786D01*
G75*
G02*
X0091934Y0358180I0000394J0000000D01*
G01*
G37*
G36*
G01*
X0091934Y0350700D02*
X0096855Y0350700D01*
G75*
G02*
X0097249Y0350306I0000000J-000394D01*
G01*
X0097249Y0347156D01*
G75*
G02*
X0096855Y0346763I-000394J0000000D01*
G01*
X0091934Y0346763D01*
G75*
G02*
X0091540Y0347156I0000000J0000394D01*
G01*
X0091540Y0350306D01*
G75*
G02*
X0091934Y0350700I0000394J0000000D01*
G01*
G37*
X0094395Y0344971D03*
D304*
X0546954Y0395759D03*
D138*
X0004666Y0118936D03*
X0033603Y0123366D03*
X0026192Y0125305D03*
X0026123Y0145905D03*
X0058505Y0151121D03*
D100*
X0002009Y0117460D03*
D33*
X0063131Y0133405D03*
D311*
X0471068Y0182517D03*
X0474060Y0182517D03*
X0478686Y0182517D03*
X0483312Y0182517D03*
X0486619Y0182517D03*
X0489572Y0182517D03*
X0494198Y0182517D03*
X0498824Y0182517D03*
D138*
X0478981Y0142754D03*
X0471757Y0144428D03*
X0479828Y0146593D03*
X0478981Y0150038D03*
X0478686Y0153384D03*
X0471757Y0154664D03*
X0476914Y0159782D03*
X0471757Y0162341D03*
X0495084Y0134093D03*
X0479040Y0135274D03*
D304*
X0205418Y0360134D03*
G36*
G01*
X0405773Y0378475D02*
X0405773Y0381546D01*
G75*
G02*
X0406048Y0381822I0000276J0000000D01*
G01*
X0408253Y0381822D01*
G75*
G02*
X0408529Y0381546I0000000J-000276D01*
G01*
X0408529Y0378475D01*
G75*
G02*
X0408253Y0378200I-000276J0000000D01*
G01*
X0406048Y0378200D01*
G75*
G02*
X0405773Y0378475I0000000J0000276D01*
G01*
G37*
G36*
G01*
X0412072Y0378475D02*
X0412072Y0381546D01*
G75*
G02*
X0412347Y0381822I0000276J0000000D01*
G01*
X0414552Y0381822D01*
G75*
G02*
X0414828Y0381546I0000000J-000276D01*
G01*
X0414828Y0378475D01*
G75*
G02*
X0414552Y0378200I-000276J0000000D01*
G01*
X0412347Y0378200D01*
G75*
G02*
X0412072Y0378475I0000000J0000276D01*
G01*
G37*
X0197544Y0375090D03*
G36*
G01*
X0163145Y0149720D02*
X0163145Y0147703D01*
G75*
G02*
X0162283Y0146842I-000861J0000000D01*
G01*
X0160561Y0146842D01*
G75*
G02*
X0159700Y0147703I0000000J0000861D01*
G01*
X0159700Y0149720D01*
G75*
G02*
X0160561Y0150582I0000861J0000000D01*
G01*
X0162283Y0150582D01*
G75*
G02*
X0163145Y0149720I0000000J-000861D01*
G01*
G37*
G36*
G01*
X0156944Y0149720D02*
X0156944Y0147703D01*
G75*
G02*
X0156083Y0146842I-000861J0000000D01*
G01*
X0154360Y0146842D01*
G75*
G02*
X0153499Y0147703I0000000J0000861D01*
G01*
X0153499Y0149720D01*
G75*
G02*
X0154360Y0150582I0000861J0000000D01*
G01*
X0156083Y0150582D01*
G75*
G02*
X0156944Y0149720I0000000J-000861D01*
G01*
G37*
G36*
G01*
X0544001Y0168160D02*
X0544001Y0165090D01*
G75*
G02*
X0543725Y0164814I-000276J0000000D01*
G01*
X0541521Y0164814D01*
G75*
G02*
X0541245Y0165090I0000000J0000276D01*
G01*
X0541245Y0168160D01*
G75*
G02*
X0541521Y0168436I0000276J0000000D01*
G01*
X0543725Y0168436D01*
G75*
G02*
X0544001Y0168160I0000000J-000276D01*
G01*
G37*
G36*
G01*
X0537702Y0168160D02*
X0537702Y0165090D01*
G75*
G02*
X0537426Y0164814I-000276J0000000D01*
G01*
X0535221Y0164814D01*
G75*
G02*
X0534946Y0165090I0000000J0000276D01*
G01*
X0534946Y0168160D01*
G75*
G02*
X0535221Y0168436I0000276J0000000D01*
G01*
X0537426Y0168436D01*
G75*
G02*
X0537702Y0168160I0000000J-000276D01*
G01*
G37*
X0301481Y0046743D03*
D301*
X0100300Y0292019D03*
X0091245Y0292019D03*
X0082190Y0292019D03*
D225*
X0091245Y0267216D03*
G36*
G01*
X0297643Y0308579D02*
X0297643Y0306561D01*
G75*
G02*
X0296782Y0305700I-000861J0000000D01*
G01*
X0295059Y0305700D01*
G75*
G02*
X0294198Y0306561I0000000J0000861D01*
G01*
X0294198Y0308579D01*
G75*
G02*
X0295059Y0309440I0000861J0000000D01*
G01*
X0296782Y0309440D01*
G75*
G02*
X0297643Y0308579I0000000J-000861D01*
G01*
G37*
G36*
G01*
X0291442Y0308579D02*
X0291442Y0306561D01*
G75*
G02*
X0290581Y0305700I-000861J0000000D01*
G01*
X0288858Y0305700D01*
G75*
G02*
X0287997Y0306561I0000000J0000861D01*
G01*
X0287997Y0308579D01*
G75*
G02*
X0288858Y0309440I0000861J0000000D01*
G01*
X0290581Y0309440D01*
G75*
G02*
X0291442Y0308579I0000000J-000861D01*
G01*
G37*
D280*
X0272938Y0219775D03*
X0264670Y0219775D03*
D304*
X0270379Y0380011D03*
D161*
X0138489Y0163475D03*
D304*
X0546954Y0382964D03*
D280*
X0306403Y0301664D03*
X0314670Y0301664D03*
D304*
X0433765Y0333751D03*
X0423922Y0060129D03*
G36*
G01*
X0250379Y0154578D02*
X0249040Y0154578D01*
G75*
G02*
X0248489Y0155129I0000000J0000551D01*
G01*
X0248489Y0156231D01*
G75*
G02*
X0249040Y0156782I0000551J0000000D01*
G01*
X0250379Y0156782D01*
G75*
G02*
X0250930Y0156231I0000000J-000551D01*
G01*
X0250930Y0155129D01*
G75*
G02*
X0250379Y0154578I-000551J0000000D01*
G01*
G37*
G36*
G01*
X0250379Y0158357D02*
X0249040Y0158357D01*
G75*
G02*
X0248489Y0158908I0000000J0000551D01*
G01*
X0248489Y0160011D01*
G75*
G02*
X0249040Y0160562I0000551J0000000D01*
G01*
X0250379Y0160562D01*
G75*
G02*
X0250930Y0160011I0000000J-000551D01*
G01*
X0250930Y0158908D01*
G75*
G02*
X0250379Y0158357I-000551J0000000D01*
G01*
G37*
G36*
G01*
X0103098Y0221898D02*
X0103098Y0221898D01*
G75*
G02*
X0096417Y0221898I-003341J0003341D01*
G01*
X0094746Y0223568D01*
G75*
G02*
X0094746Y0230250I0003341J0003341D01*
G01*
X0094746Y0230250D01*
G75*
G02*
X0101428Y0230250I0003341J-003341D01*
G01*
X0103098Y0228579D01*
G75*
G02*
X0103098Y0221898I-003341J-003341D01*
G01*
G37*
G36*
G01*
X0095618Y0213237D02*
X0095618Y0213237D01*
G75*
G02*
X0088936Y0213237I-003341J0003341D01*
G01*
X0087266Y0214907D01*
G75*
G02*
X0087266Y0221588I0003341J0003341D01*
G01*
X0087266Y0221588D01*
G75*
G02*
X0093947Y0221588I0003341J-003341D01*
G01*
X0095618Y0219918D01*
G75*
G02*
X0095618Y0213237I-003341J-003341D01*
G01*
G37*
G36*
G01*
X0071208Y0213237D02*
X0071208Y0213237D01*
G75*
G02*
X0064527Y0213237I-003341J0003341D01*
G01*
X0062857Y0214907D01*
G75*
G02*
X0062857Y0221588I0003341J0003341D01*
G01*
X0062857Y0221588D01*
G75*
G02*
X0069538Y0221588I0003341J-003341D01*
G01*
X0071208Y0219918D01*
G75*
G02*
X0071208Y0213237I-003341J-003341D01*
G01*
G37*
G36*
G01*
X0081051Y0221898D02*
X0081051Y0221898D01*
G75*
G02*
X0074370Y0221898I-003341J0003341D01*
G01*
X0072699Y0223568D01*
G75*
G02*
X0072699Y0230250I0003341J0003341D01*
G01*
X0072699Y0230250D01*
G75*
G02*
X0079381Y0230250I0003341J-003341D01*
G01*
X0081051Y0228579D01*
G75*
G02*
X0081051Y0221898I-003341J-003341D01*
G01*
G37*
G36*
G01*
X0117665Y0213237D02*
X0117665Y0213237D01*
G75*
G02*
X0110984Y0213237I-003341J0003341D01*
G01*
X0109313Y0214907D01*
G75*
G02*
X0109313Y0221588I0003341J0003341D01*
G01*
X0109313Y0221588D01*
G75*
G02*
X0115995Y0221588I0003341J-003341D01*
G01*
X0117665Y0219918D01*
G75*
G02*
X0117665Y0213237I-003341J-003341D01*
G01*
G37*
G36*
G01*
X0316934Y0259169D02*
X0316934Y0257152D01*
G75*
G02*
X0316073Y0256290I-000861J0000000D01*
G01*
X0314350Y0256290D01*
G75*
G02*
X0313489Y0257152I0000000J0000861D01*
G01*
X0313489Y0259169D01*
G75*
G02*
X0314350Y0260030I0000861J0000000D01*
G01*
X0316073Y0260030D01*
G75*
G02*
X0316934Y0259169I0000000J-000861D01*
G01*
G37*
G36*
G01*
X0310733Y0259169D02*
X0310733Y0257152D01*
G75*
G02*
X0309872Y0256290I-000861J0000000D01*
G01*
X0308150Y0256290D01*
G75*
G02*
X0307288Y0257152I0000000J0000861D01*
G01*
X0307288Y0259169D01*
G75*
G02*
X0308150Y0260030I0000861J0000000D01*
G01*
X0309872Y0260030D01*
G75*
G02*
X0310733Y0259169I0000000J-000861D01*
G01*
G37*
D140*
X0618765Y0052058D03*
X0598765Y0052058D03*
D280*
X0066442Y0364263D03*
X0074710Y0364263D03*
X0307977Y0278830D03*
X0316245Y0278830D03*
G36*
G01*
X0273647Y0111940D02*
X0274985Y0111940D01*
G75*
G02*
X0275536Y0111389I0000000J-000551D01*
G01*
X0275536Y0110286D01*
G75*
G02*
X0274985Y0109735I-000551J0000000D01*
G01*
X0273647Y0109735D01*
G75*
G02*
X0273095Y0110286I0000000J0000551D01*
G01*
X0273095Y0111389D01*
G75*
G02*
X0273647Y0111940I0000551J0000000D01*
G01*
G37*
G36*
G01*
X0273647Y0108160D02*
X0274985Y0108160D01*
G75*
G02*
X0275536Y0107609I0000000J-000551D01*
G01*
X0275536Y0106507D01*
G75*
G02*
X0274985Y0105956I-000551J0000000D01*
G01*
X0273647Y0105956D01*
G75*
G02*
X0273095Y0106507I0000000J0000551D01*
G01*
X0273095Y0107609D01*
G75*
G02*
X0273647Y0108160I0000551J0000000D01*
G01*
G37*
D42*
X0078112Y0043397D03*
D211*
X0479139Y0082767D03*
D110*
X0479336Y0123515D03*
X0479336Y0121546D03*
D138*
X0483470Y0095759D03*
X0485536Y0099204D03*
X0488489Y0094578D03*
X0502466Y0094873D03*
D304*
X0423922Y0036507D03*
D200*
X0069985Y0331979D03*
X0069985Y0322924D03*
X0069985Y0313869D03*
D87*
X0094788Y0322924D03*
G36*
G01*
X0310655Y0308495D02*
X0310655Y0307038D01*
G75*
G02*
X0310123Y0306507I-000531J0000000D01*
G01*
X0309060Y0306507D01*
G75*
G02*
X0308529Y0307038I0000000J0000531D01*
G01*
X0308529Y0308495D01*
G75*
G02*
X0309060Y0309027I0000531J0000000D01*
G01*
X0310123Y0309027D01*
G75*
G02*
X0310655Y0308495I0000000J-000531D01*
G01*
G37*
G36*
G01*
X0306639Y0308495D02*
X0306639Y0307038D01*
G75*
G02*
X0306107Y0306507I-000531J0000000D01*
G01*
X0305044Y0306507D01*
G75*
G02*
X0304513Y0307038I0000000J0000531D01*
G01*
X0304513Y0308495D01*
G75*
G02*
X0305044Y0309027I0000531J0000000D01*
G01*
X0306107Y0309027D01*
G75*
G02*
X0306639Y0308495I0000000J-000531D01*
G01*
G37*
D280*
X0307977Y0251271D03*
X0316245Y0251271D03*
G36*
G01*
X0225320Y0080818D02*
X0227288Y0080818D01*
G75*
G02*
X0228174Y0079932I0000000J-000886D01*
G01*
X0228174Y0078160D01*
G75*
G02*
X0227288Y0077275I-000886J0000000D01*
G01*
X0225320Y0077275D01*
G75*
G02*
X0224434Y0078160I0000000J0000886D01*
G01*
X0224434Y0079932D01*
G75*
G02*
X0225320Y0080818I0000886J0000000D01*
G01*
G37*
G36*
G01*
X0225320Y0074716D02*
X0227288Y0074716D01*
G75*
G02*
X0228174Y0073830I0000000J-000886D01*
G01*
X0228174Y0072058D01*
G75*
G02*
X0227288Y0071172I-000886J0000000D01*
G01*
X0225320Y0071172D01*
G75*
G02*
X0224434Y0072058I0000000J0000886D01*
G01*
X0224434Y0073830D01*
G75*
G02*
X0225320Y0074716I0000886J0000000D01*
G01*
G37*
D317*
X0200497Y0162688D03*
X0200497Y0154420D03*
G36*
G01*
X0544001Y0128790D02*
X0544001Y0125719D01*
G75*
G02*
X0543725Y0125444I-000276J0000000D01*
G01*
X0541521Y0125444D01*
G75*
G02*
X0541245Y0125719I0000000J0000276D01*
G01*
X0541245Y0128790D01*
G75*
G02*
X0541521Y0129066I0000276J0000000D01*
G01*
X0543725Y0129066D01*
G75*
G02*
X0544001Y0128790I0000000J-000276D01*
G01*
G37*
G36*
G01*
X0537702Y0128790D02*
X0537702Y0125719D01*
G75*
G02*
X0537426Y0125444I-000276J0000000D01*
G01*
X0535221Y0125444D01*
G75*
G02*
X0534946Y0125719I0000000J0000276D01*
G01*
X0534946Y0128790D01*
G75*
G02*
X0535221Y0129066I0000276J0000000D01*
G01*
X0537426Y0129066D01*
G75*
G02*
X0537702Y0128790I0000000J-000276D01*
G01*
G37*
D316*
X0059749Y0309538D03*
X0059749Y0322530D03*
G36*
G01*
X0078666Y0349617D02*
X0080123Y0349617D01*
G75*
G02*
X0080655Y0349086I0000000J-000531D01*
G01*
X0080655Y0348023D01*
G75*
G02*
X0080123Y0347491I-000531J0000000D01*
G01*
X0078666Y0347491D01*
G75*
G02*
X0078135Y0348023I0000000J0000531D01*
G01*
X0078135Y0349086D01*
G75*
G02*
X0078666Y0349617I0000531J0000000D01*
G01*
G37*
G36*
G01*
X0078666Y0345601D02*
X0080123Y0345601D01*
G75*
G02*
X0080655Y0345070I0000000J-000531D01*
G01*
X0080655Y0344007D01*
G75*
G02*
X0080123Y0343475I-000531J0000000D01*
G01*
X0078666Y0343475D01*
G75*
G02*
X0078135Y0344007I0000000J0000531D01*
G01*
X0078135Y0345070D01*
G75*
G02*
X0078666Y0345601I0000531J0000000D01*
G01*
G37*
G36*
G01*
X0244788Y0154716D02*
X0242820Y0154716D01*
G75*
G02*
X0241934Y0155601I0000000J0000886D01*
G01*
X0241934Y0157373D01*
G75*
G02*
X0242820Y0158259I0000886J0000000D01*
G01*
X0244788Y0158259D01*
G75*
G02*
X0245674Y0157373I0000000J-000886D01*
G01*
X0245674Y0155601D01*
G75*
G02*
X0244788Y0154716I-000886J0000000D01*
G01*
G37*
G36*
G01*
X0244788Y0160818D02*
X0242820Y0160818D01*
G75*
G02*
X0241934Y0161704I0000000J0000886D01*
G01*
X0241934Y0163475D01*
G75*
G02*
X0242820Y0164361I0000886J0000000D01*
G01*
X0244788Y0164361D01*
G75*
G02*
X0245674Y0163475I0000000J-000886D01*
G01*
X0245674Y0161704D01*
G75*
G02*
X0244788Y0160818I-000886J0000000D01*
G01*
G37*
D280*
X0263292Y0265050D03*
X0255025Y0265050D03*
D42*
X0120435Y0043397D03*
D317*
X0216245Y0154420D03*
X0216245Y0162688D03*
G36*
G01*
X0220714Y0081034D02*
X0222052Y0081034D01*
G75*
G02*
X0222603Y0080483I0000000J-000551D01*
G01*
X0222603Y0079381D01*
G75*
G02*
X0222052Y0078830I-000551J0000000D01*
G01*
X0220714Y0078830D01*
G75*
G02*
X0220162Y0079381I0000000J0000551D01*
G01*
X0220162Y0080483D01*
G75*
G02*
X0220714Y0081034I0000551J0000000D01*
G01*
G37*
G36*
G01*
X0220714Y0077255D02*
X0222052Y0077255D01*
G75*
G02*
X0222603Y0076704I0000000J-000551D01*
G01*
X0222603Y0075601D01*
G75*
G02*
X0222052Y0075050I-000551J0000000D01*
G01*
X0220714Y0075050D01*
G75*
G02*
X0220162Y0075601I0000000J0000551D01*
G01*
X0220162Y0076704D01*
G75*
G02*
X0220714Y0077255I0000551J0000000D01*
G01*
G37*
G36*
G01*
X0291284Y0348948D02*
X0291284Y0352019D01*
G75*
G02*
X0291560Y0352294I0000276J0000000D01*
G01*
X0293765Y0352294D01*
G75*
G02*
X0294040Y0352019I0000000J-000276D01*
G01*
X0294040Y0348948D01*
G75*
G02*
X0293765Y0348672I-000276J0000000D01*
G01*
X0291560Y0348672D01*
G75*
G02*
X0291284Y0348948I0000000J0000276D01*
G01*
G37*
G36*
G01*
X0297584Y0348948D02*
X0297584Y0352019D01*
G75*
G02*
X0297859Y0352294I0000276J0000000D01*
G01*
X0300064Y0352294D01*
G75*
G02*
X0300340Y0352019I0000000J-000276D01*
G01*
X0300340Y0348948D01*
G75*
G02*
X0300064Y0348672I-000276J0000000D01*
G01*
X0297859Y0348672D01*
G75*
G02*
X0297584Y0348948I0000000J0000276D01*
G01*
G37*
D304*
X0350103Y0054223D03*
D138*
X0490507Y0058298D03*
X0484306Y0038986D03*
X0434290Y0039022D03*
X0467672Y0036349D03*
X0463046Y0036349D03*
X0454483Y0036349D03*
X0445723Y0036349D03*
X0001220Y0091280D02*
G01*
G75*
D23*
X0014803Y0147087D02*
D03*
X0014803Y0135670D02*
D03*
X0006732Y0147185D02*
D03*
X0006732Y0135768D02*
D03*
X0043543Y0148760D02*
D03*
X0043543Y0137343D02*
D03*
D224*
X0036614Y0126713D02*
D03*
X0030393Y0126713D02*
D03*
D173*
X0052421Y0119725D02*
D03*
X0043169Y0123465D02*
D03*
D173*
X0052421Y0127205D02*
D03*
D58*
X0028877Y0140729D02*
D03*
X0036358Y0140729D02*
D03*
X0036358Y0132264D02*
D03*
X0032618Y0132264D02*
D03*
D58*
X0028877Y0132264D02*
D03*
D244*
X0063130Y0133406D02*
D03*
D47*
X0002007Y0117461D02*
D03*
D296*
X0058700Y0104371D02*
D03*
X0031338Y0104371D02*
D03*
D297*
X0017165Y0119430D02*
D03*
X0008503Y0119430D02*
D03*
X0008799Y0129469D02*
D03*
X0017460Y0129469D02*
D03*
D68*
X0049842Y0148760D02*
D03*
X0062834Y0148760D02*
D03*
D74*
X0061259Y0133406D02*
D03*
X0061259Y0142067D02*
D03*
X0052588Y0131723D02*
D03*
X0052588Y0140384D02*
D03*
D147*
X0020807Y0119626D02*
D03*
X0027106Y0119626D02*
D03*
X0020905Y0124449D02*
D03*
X0014606Y0124449D02*
D03*
X0031141Y0119430D02*
D03*
X0037440Y0119430D02*
D03*
D309*
X0004862Y0122776D02*
D03*
X0004862Y0128996D02*
D03*
D300*
X0022381Y0149449D02*
D03*
X0022381Y0136457D02*
D03*
D90*
X0026191Y0125306D02*
D03*
X0058504Y0151122D02*
D03*
X0033602Y0123367D02*
D03*
X0004665Y0118937D02*
D03*
X0026122Y0145906D02*
D03*
X0478055Y0126075D02*
G01*
G75*
D142*
X0479138Y0082768D02*
D03*
D283*
X0479335Y0123516D02*
D03*
X0479335Y0121547D02*
D03*
D347*
X0491067Y0114658D02*
D03*
X0481815Y0118398D02*
D03*
D347*
X0491067Y0122138D02*
D03*
D258*
X0502681Y0107099D02*
D03*
X0497681Y0107099D02*
D03*
X0492681Y0107099D02*
D03*
X0487681Y0107099D02*
D03*
X0502681Y0088201D02*
D03*
X0497681Y0088201D02*
D03*
X0492681Y0088201D02*
D03*
X0487681Y0088201D02*
D03*
D348*
X0482386Y0091390D02*
D03*
X0482386Y0085170D02*
D03*
X0482386Y0099736D02*
D03*
X0482386Y0105957D02*
D03*
D349*
X0495968Y0121548D02*
D03*
X0495968Y0115248D02*
D03*
D90*
X0479925Y0110918D02*
D03*
X0502464Y0094874D02*
D03*
X0488488Y0094579D02*
D03*
X0483468Y0095760D02*
D03*
X0485535Y0099205D02*
D03*
X0286323Y0060327D02*
%LPD*%
G01*
G36*
G01*
X0217730Y0024028D02*
X0219089Y0024028D01*
G75*
G02*
X0219669Y0023447I0000000J-000581D01*
G01*
X0219669Y0022286D01*
G75*
G02*
X0219089Y0021705I-000581J0000000D01*
G01*
X0217730Y0021705D01*
G75*
G02*
X0217150Y0022286I0000000J0000581D01*
G01*
X0217150Y0023447D01*
G75*
G02*
X0217730Y0024028I0000581J0000000D01*
G01*
G37*
G36*
G01*
X0217730Y0020209D02*
X0219089Y0020209D01*
G75*
G02*
X0219669Y0019628I0000000J-000581D01*
G01*
X0219669Y0018467D01*
G75*
G02*
X0219089Y0017886I-000581J0000000D01*
G01*
X0217730Y0017886D01*
G75*
G02*
X0217150Y0018467I0000000J0000581D01*
G01*
X0217150Y0019628D01*
G75*
G02*
X0217730Y0020209I0000581J0000000D01*
G01*
G37*
G36*
G01*
X0182908Y0048685D02*
X0182908Y0050044D01*
G75*
G02*
X0183488Y0050624I0000581J0000000D01*
G01*
X0184650Y0050624D01*
G75*
G02*
X0185230Y0050044I0000000J-000581D01*
G01*
X0185230Y0048685D01*
G75*
G02*
X0184650Y0048105I-000581J0000000D01*
G01*
X0183488Y0048105D01*
G75*
G02*
X0182908Y0048685I0000000J0000581D01*
G01*
G37*
G36*
G01*
X0186727Y0048685D02*
X0186727Y0050044D01*
G75*
G02*
X0187307Y0050624I0000581J0000000D01*
G01*
X0188469Y0050624D01*
G75*
G02*
X0189049Y0050044I0000000J-000581D01*
G01*
X0189049Y0048685D01*
G75*
G02*
X0188469Y0048105I-000581J0000000D01*
G01*
X0187307Y0048105D01*
G75*
G02*
X0186727Y0048685I0000000J0000581D01*
G01*
G37*
G36*
G01*
X0180299Y0023794D02*
X0180299Y0022435D01*
G75*
G02*
X0179719Y0021855I-000581J0000000D01*
G01*
X0178557Y0021855D01*
G75*
G02*
X0177977Y0022435I0000000J0000581D01*
G01*
X0177977Y0023794D01*
G75*
G02*
X0178557Y0024374I0000581J0000000D01*
G01*
X0179719Y0024374D01*
G75*
G02*
X0180299Y0023794I0000000J-000581D01*
G01*
G37*
G36*
G01*
X0176480Y0023794D02*
X0176480Y0022435D01*
G75*
G02*
X0175900Y0021855I-000581J0000000D01*
G01*
X0174738Y0021855D01*
G75*
G02*
X0174158Y0022435I0000000J0000581D01*
G01*
X0174158Y0023794D01*
G75*
G02*
X0174738Y0024374I0000581J0000000D01*
G01*
X0175900Y0024374D01*
G75*
G02*
X0176480Y0023794I0000000J-000581D01*
G01*
G37*
G36*
G01*
X0280323Y0040175D02*
X0280323Y0038817D01*
G75*
G02*
X0279742Y0038236I-000581J0000000D01*
G01*
X0278581Y0038236D01*
G75*
G02*
X0278000Y0038817I0000000J0000581D01*
G01*
X0278000Y0040175D01*
G75*
G02*
X0278581Y0040756I0000581J0000000D01*
G01*
X0279742Y0040756D01*
G75*
G02*
X0280323Y0040175I0000000J-000581D01*
G01*
G37*
G36*
G01*
X0276504Y0040175D02*
X0276504Y0038817D01*
G75*
G02*
X0275923Y0038236I-000581J0000000D01*
G01*
X0274762Y0038236D01*
G75*
G02*
X0274181Y0038817I0000000J0000581D01*
G01*
X0274181Y0040175D01*
G75*
G02*
X0274762Y0040756I0000581J0000000D01*
G01*
X0275923Y0040756D01*
G75*
G02*
X0276504Y0040175I0000000J-000581D01*
G01*
G37*
G36*
G01*
X0266761Y0026173D02*
X0264743Y0026173D01*
G75*
G02*
X0263882Y0027035I0000000J0000861D01*
G01*
X0263882Y0028757D01*
G75*
G02*
X0264743Y0029618I0000861J0000000D01*
G01*
X0266761Y0029618D01*
G75*
G02*
X0267622Y0028757I0000000J-000861D01*
G01*
X0267622Y0027035D01*
G75*
G02*
X0266761Y0026173I-000861J0000000D01*
G01*
G37*
G36*
G01*
X0266761Y0032374D02*
X0264743Y0032374D01*
G75*
G02*
X0263882Y0033235I0000000J0000861D01*
G01*
X0263882Y0034958D01*
G75*
G02*
X0264743Y0035819I0000861J0000000D01*
G01*
X0266761Y0035819D01*
G75*
G02*
X0267622Y0034958I0000000J-000861D01*
G01*
X0267622Y0033235D01*
G75*
G02*
X0266761Y0032374I-000861J0000000D01*
G01*
G37*
G36*
G01*
X0196051Y0023123D02*
X0196051Y0021106D01*
G75*
G02*
X0195190Y0020244I-000861J0000000D01*
G01*
X0193468Y0020244D01*
G75*
G02*
X0192606Y0021106I0000000J0000861D01*
G01*
X0192606Y0023123D01*
G75*
G02*
X0193468Y0023984I0000861J0000000D01*
G01*
X0195190Y0023984D01*
G75*
G02*
X0196051Y0023123I0000000J-000861D01*
G01*
G37*
G36*
G01*
X0189851Y0023123D02*
X0189851Y0021106D01*
G75*
G02*
X0188989Y0020244I-000861J0000000D01*
G01*
X0187267Y0020244D01*
G75*
G02*
X0186406Y0021106I0000000J0000861D01*
G01*
X0186406Y0023123D01*
G75*
G02*
X0187267Y0023984I0000861J0000000D01*
G01*
X0188989Y0023984D01*
G75*
G02*
X0189851Y0023123I0000000J-000861D01*
G01*
G37*
G36*
G01*
X0190658Y0048685D02*
X0190658Y0050044D01*
G75*
G02*
X0191238Y0050624I0000581J0000000D01*
G01*
X0192400Y0050624D01*
G75*
G02*
X0192980Y0050044I0000000J-000581D01*
G01*
X0192980Y0048685D01*
G75*
G02*
X0192400Y0048105I-000581J0000000D01*
G01*
X0191238Y0048105D01*
G75*
G02*
X0190658Y0048685I0000000J0000581D01*
G01*
G37*
G36*
G01*
X0194477Y0048685D02*
X0194477Y0050044D01*
G75*
G02*
X0195057Y0050624I0000581J0000000D01*
G01*
X0196219Y0050624D01*
G75*
G02*
X0196799Y0050044I0000000J-000581D01*
G01*
X0196799Y0048685D01*
G75*
G02*
X0196219Y0048105I-000581J0000000D01*
G01*
X0195057Y0048105D01*
G75*
G02*
X0194477Y0048685I0000000J0000581D01*
G01*
G37*
G36*
G01*
X0178549Y0032185D02*
X0179908Y0032185D01*
G75*
G02*
X0180488Y0031605I0000000J-000581D01*
G01*
X0180488Y0030443D01*
G75*
G02*
X0179908Y0029862I-000581J0000000D01*
G01*
X0178549Y0029862D01*
G75*
G02*
X0177969Y0030443I0000000J0000581D01*
G01*
X0177969Y0031605D01*
G75*
G02*
X0178549Y0032185I0000581J0000000D01*
G01*
G37*
G36*
G01*
X0178549Y0028366D02*
X0179908Y0028366D01*
G75*
G02*
X0180488Y0027786I0000000J-000581D01*
G01*
X0180488Y0026624D01*
G75*
G02*
X0179908Y0026044I-000581J0000000D01*
G01*
X0178549Y0026044D01*
G75*
G02*
X0177969Y0026624I0000000J0000581D01*
G01*
X0177969Y0027786D01*
G75*
G02*
X0178549Y0028366I0000581J0000000D01*
G01*
G37*
G36*
G01*
X0184837Y0010209D02*
X0183479Y0010209D01*
G75*
G02*
X0182898Y0010790I0000000J0000581D01*
G01*
X0182898Y0011951D01*
G75*
G02*
X0183479Y0012532I0000581J0000000D01*
G01*
X0184837Y0012532D01*
G75*
G02*
X0185417Y0011951I0000000J-000581D01*
G01*
X0185417Y0010790D01*
G75*
G02*
X0184837Y0010209I-000581J0000000D01*
G01*
G37*
G36*
G01*
X0184837Y0014028D02*
X0183479Y0014028D01*
G75*
G02*
X0182898Y0014608I0000000J0000581D01*
G01*
X0182898Y0015770D01*
G75*
G02*
X0183479Y0016351I0000581J0000000D01*
G01*
X0184837Y0016351D01*
G75*
G02*
X0185417Y0015770I0000000J-000581D01*
G01*
X0185417Y0014608D01*
G75*
G02*
X0184837Y0014028I-000581J0000000D01*
G01*
G37*
G36*
G01*
X0189394Y0006872D02*
X0189394Y0005514D01*
G75*
G02*
X0188813Y0004933I-000581J0000000D01*
G01*
X0187652Y0004933D01*
G75*
G02*
X0187071Y0005514I0000000J0000581D01*
G01*
X0187071Y0006872D01*
G75*
G02*
X0187652Y0007453I0000581J0000000D01*
G01*
X0188813Y0007453D01*
G75*
G02*
X0189394Y0006872I0000000J-000581D01*
G01*
G37*
G36*
G01*
X0185575Y0006872D02*
X0185575Y0005514D01*
G75*
G02*
X0184994Y0004933I-000581J0000000D01*
G01*
X0183833Y0004933D01*
G75*
G02*
X0183252Y0005514I0000000J0000581D01*
G01*
X0183252Y0006872D01*
G75*
G02*
X0183833Y0007453I0000581J0000000D01*
G01*
X0184994Y0007453D01*
G75*
G02*
X0185575Y0006872I0000000J-000581D01*
G01*
G37*
G36*
G01*
X0214197Y0005691D02*
X0214197Y0004333D01*
G75*
G02*
X0213616Y0003752I-000581J0000000D01*
G01*
X0212455Y0003752D01*
G75*
G02*
X0211874Y0004333I0000000J0000581D01*
G01*
X0211874Y0005691D01*
G75*
G02*
X0212455Y0006272I0000581J0000000D01*
G01*
X0213616Y0006272D01*
G75*
G02*
X0214197Y0005691I0000000J-000581D01*
G01*
G37*
G36*
G01*
X0210378Y0005691D02*
X0210378Y0004333D01*
G75*
G02*
X0209797Y0003752I-000581J0000000D01*
G01*
X0208636Y0003752D01*
G75*
G02*
X0208055Y0004333I0000000J0000581D01*
G01*
X0208055Y0005691D01*
G75*
G02*
X0208636Y0006272I0000581J0000000D01*
G01*
X0209797Y0006272D01*
G75*
G02*
X0210378Y0005691I0000000J-000581D01*
G01*
G37*
G36*
G01*
X0198408Y0048685D02*
X0198408Y0050044D01*
G75*
G02*
X0198988Y0050624I0000581J0000000D01*
G01*
X0200150Y0050624D01*
G75*
G02*
X0200730Y0050044I0000000J-000581D01*
G01*
X0200730Y0048685D01*
G75*
G02*
X0200150Y0048105I-000581J0000000D01*
G01*
X0198988Y0048105D01*
G75*
G02*
X0198408Y0048685I0000000J0000581D01*
G01*
G37*
G36*
G01*
X0202227Y0048685D02*
X0202227Y0050044D01*
G75*
G02*
X0202807Y0050624I0000581J0000000D01*
G01*
X0203969Y0050624D01*
G75*
G02*
X0204549Y0050044I0000000J-000581D01*
G01*
X0204549Y0048685D01*
G75*
G02*
X0203969Y0048105I-000581J0000000D01*
G01*
X0202807Y0048105D01*
G75*
G02*
X0202227Y0048685I0000000J0000581D01*
G01*
G37*
G36*
G01*
X0206158Y0048685D02*
X0206158Y0050044D01*
G75*
G02*
X0206738Y0050624I0000581J0000000D01*
G01*
X0207900Y0050624D01*
G75*
G02*
X0208480Y0050044I0000000J-000581D01*
G01*
X0208480Y0048685D01*
G75*
G02*
X0207900Y0048105I-000581J0000000D01*
G01*
X0206738Y0048105D01*
G75*
G02*
X0206158Y0048685I0000000J0000581D01*
G01*
G37*
G36*
G01*
X0209977Y0048685D02*
X0209977Y0050044D01*
G75*
G02*
X0210557Y0050624I0000581J0000000D01*
G01*
X0211719Y0050624D01*
G75*
G02*
X0212299Y0050044I0000000J-000581D01*
G01*
X0212299Y0048685D01*
G75*
G02*
X0211719Y0048105I-000581J0000000D01*
G01*
X0210557Y0048105D01*
G75*
G02*
X0209977Y0048685I0000000J0000581D01*
G01*
G37*
G36*
G01*
X0182549Y0024185D02*
X0183908Y0024185D01*
G75*
G02*
X0184488Y0023605I0000000J-000581D01*
G01*
X0184488Y0022443D01*
G75*
G02*
X0183908Y0021862I-000581J0000000D01*
G01*
X0182549Y0021862D01*
G75*
G02*
X0181969Y0022443I0000000J0000581D01*
G01*
X0181969Y0023605D01*
G75*
G02*
X0182549Y0024185I0000581J0000000D01*
G01*
G37*
G36*
G01*
X0182549Y0020366D02*
X0183908Y0020366D01*
G75*
G02*
X0184488Y0019786I0000000J-000581D01*
G01*
X0184488Y0018624D01*
G75*
G02*
X0183908Y0018044I-000581J0000000D01*
G01*
X0182549Y0018044D01*
G75*
G02*
X0181969Y0018624I0000000J0000581D01*
G01*
X0181969Y0019786D01*
G75*
G02*
X0182549Y0020366I0000581J0000000D01*
G01*
G37*
D105*
X0272315Y0034136D03*
X0272315Y0026656D03*
X0280189Y0030396D03*
D76*
X0208843Y0028437D03*
X0208843Y0030996D03*
X0208843Y0033555D03*
X0208843Y0036114D03*
X0208843Y0038673D03*
X0208843Y0041233D03*
X0208843Y0043792D03*
X0185614Y0043792D03*
X0185614Y0041233D03*
X0185614Y0038673D03*
X0185614Y0036114D03*
X0185614Y0033555D03*
X0185614Y0030996D03*
X0185614Y0028437D03*
G36*
G01*
X0174549Y0032185D02*
X0175908Y0032185D01*
G75*
G02*
X0176488Y0031605I0000000J-000581D01*
G01*
X0176488Y0030443D01*
G75*
G02*
X0175908Y0029862I-000581J0000000D01*
G01*
X0174549Y0029862D01*
G75*
G02*
X0173969Y0030443I0000000J0000581D01*
G01*
X0173969Y0031605D01*
G75*
G02*
X0174549Y0032185I0000581J0000000D01*
G01*
G37*
G36*
G01*
X0174549Y0028366D02*
X0175908Y0028366D01*
G75*
G02*
X0176488Y0027786I0000000J-000581D01*
G01*
X0176488Y0026624D01*
G75*
G02*
X0175908Y0026044I-000581J0000000D01*
G01*
X0174549Y0026044D01*
G75*
G02*
X0173969Y0026624I0000000J0000581D01*
G01*
X0173969Y0027786D01*
G75*
G02*
X0174549Y0028366I0000581J0000000D01*
G01*
G37*
G36*
G01*
X0221677Y0009431D02*
X0221677Y0008073D01*
G75*
G02*
X0221097Y0007492I-000581J0000000D01*
G01*
X0219935Y0007492D01*
G75*
G02*
X0219354Y0008073I0000000J0000581D01*
G01*
X0219354Y0009431D01*
G75*
G02*
X0219935Y0010012I0000581J0000000D01*
G01*
X0221097Y0010012D01*
G75*
G02*
X0221677Y0009431I0000000J-000581D01*
G01*
G37*
G36*
G01*
X0217858Y0009431D02*
X0217858Y0008073D01*
G75*
G02*
X0217278Y0007492I-000581J0000000D01*
G01*
X0216116Y0007492D01*
G75*
G02*
X0215536Y0008073I0000000J0000581D01*
G01*
X0215536Y0009431D01*
G75*
G02*
X0216116Y0010012I0000581J0000000D01*
G01*
X0217278Y0010012D01*
G75*
G02*
X0217858Y0009431I0000000J-000581D01*
G01*
G37*
G36*
G01*
X0215536Y0004333D02*
X0215536Y0005691D01*
G75*
G02*
X0216116Y0006272I0000581J0000000D01*
G01*
X0217278Y0006272D01*
G75*
G02*
X0217858Y0005691I0000000J-000581D01*
G01*
X0217858Y0004333D01*
G75*
G02*
X0217278Y0003752I-000581J0000000D01*
G01*
X0216116Y0003752D01*
G75*
G02*
X0215536Y0004333I0000000J0000581D01*
G01*
G37*
G36*
G01*
X0219354Y0004333D02*
X0219354Y0005691D01*
G75*
G02*
X0219935Y0006272I0000581J0000000D01*
G01*
X0221097Y0006272D01*
G75*
G02*
X0221677Y0005691I0000000J-000581D01*
G01*
X0221677Y0004333D01*
G75*
G02*
X0221097Y0003752I-000581J0000000D01*
G01*
X0219935Y0003752D01*
G75*
G02*
X0219354Y0004333I0000000J0000581D01*
G01*
G37*
G36*
G01*
X0219089Y0025366D02*
X0217730Y0025366D01*
G75*
G02*
X0217150Y0025947I0000000J0000581D01*
G01*
X0217150Y0027108D01*
G75*
G02*
X0217730Y0027689I0000581J0000000D01*
G01*
X0219089Y0027689D01*
G75*
G02*
X0219669Y0027108I0000000J-000581D01*
G01*
X0219669Y0025947D01*
G75*
G02*
X0219089Y0025366I-000581J0000000D01*
G01*
G37*
G36*
G01*
X0219089Y0029185D02*
X0217730Y0029185D01*
G75*
G02*
X0217150Y0029766I0000000J0000581D01*
G01*
X0217150Y0030927D01*
G75*
G02*
X0217730Y0031508I0000581J0000000D01*
G01*
X0219089Y0031508D01*
G75*
G02*
X0219669Y0030927I0000000J-000581D01*
G01*
X0219669Y0029766D01*
G75*
G02*
X0219089Y0029185I-000581J0000000D01*
G01*
G37*
G36*
G01*
X0172652Y0015170D02*
X0174010Y0015170D01*
G75*
G02*
X0174591Y0014589I0000000J-000581D01*
G01*
X0174591Y0013427D01*
G75*
G02*
X0174010Y0012847I-000581J0000000D01*
G01*
X0172652Y0012847D01*
G75*
G02*
X0172071Y0013427I0000000J0000581D01*
G01*
X0172071Y0014589D01*
G75*
G02*
X0172652Y0015170I0000581J0000000D01*
G01*
G37*
G36*
G01*
X0172652Y0011351D02*
X0174010Y0011351D01*
G75*
G02*
X0174591Y0010770I0000000J-000581D01*
G01*
X0174591Y0009608D01*
G75*
G02*
X0174010Y0009028I-000581J0000000D01*
G01*
X0172652Y0009028D01*
G75*
G02*
X0172071Y0009608I0000000J0000581D01*
G01*
X0172071Y0010770D01*
G75*
G02*
X0172652Y0011351I0000581J0000000D01*
G01*
G37*
G36*
G01*
X0247209Y0005691D02*
X0247209Y0004333D01*
G75*
G02*
X0246628Y0003752I-000581J0000000D01*
G01*
X0245467Y0003752D01*
G75*
G02*
X0244886Y0004333I0000000J0000581D01*
G01*
X0244886Y0005691D01*
G75*
G02*
X0245467Y0006272I0000581J0000000D01*
G01*
X0246628Y0006272D01*
G75*
G02*
X0247209Y0005691I0000000J-000581D01*
G01*
G37*
G36*
G01*
X0243390Y0005691D02*
X0243390Y0004333D01*
G75*
G02*
X0242809Y0003752I-000581J0000000D01*
G01*
X0241648Y0003752D01*
G75*
G02*
X0241067Y0004333I0000000J0000581D01*
G01*
X0241067Y0005691D01*
G75*
G02*
X0241648Y0006272I0000581J0000000D01*
G01*
X0242809Y0006272D01*
G75*
G02*
X0243390Y0005691I0000000J-000581D01*
G01*
G37*
G36*
G01*
X0223813Y0041508D02*
X0222455Y0041508D01*
G75*
G02*
X0221874Y0042089I0000000J0000581D01*
G01*
X0221874Y0043250D01*
G75*
G02*
X0222455Y0043831I0000581J0000000D01*
G01*
X0223813Y0043831D01*
G75*
G02*
X0224394Y0043250I0000000J-000581D01*
G01*
X0224394Y0042089D01*
G75*
G02*
X0223813Y0041508I-000581J0000000D01*
G01*
G37*
G36*
G01*
X0223813Y0045327D02*
X0222455Y0045327D01*
G75*
G02*
X0221874Y0045908I0000000J0000581D01*
G01*
X0221874Y0047069D01*
G75*
G02*
X0222455Y0047650I0000581J0000000D01*
G01*
X0223813Y0047650D01*
G75*
G02*
X0224394Y0047069I0000000J-000581D01*
G01*
X0224394Y0045908D01*
G75*
G02*
X0223813Y0045327I-000581J0000000D01*
G01*
G37*
G36*
G01*
X0258282Y0012414D02*
X0259640Y0012414D01*
G75*
G02*
X0260221Y0011833I0000000J-000581D01*
G01*
X0260221Y0010671D01*
G75*
G02*
X0259640Y0010091I-000581J0000000D01*
G01*
X0258282Y0010091D01*
G75*
G02*
X0257701Y0010671I0000000J0000581D01*
G01*
X0257701Y0011833D01*
G75*
G02*
X0258282Y0012414I0000581J0000000D01*
G01*
G37*
G36*
G01*
X0258282Y0008595D02*
X0259640Y0008595D01*
G75*
G02*
X0260221Y0008014I0000000J-000581D01*
G01*
X0260221Y0006853D01*
G75*
G02*
X0259640Y0006272I-000581J0000000D01*
G01*
X0258282Y0006272D01*
G75*
G02*
X0257701Y0006853I0000000J0000581D01*
G01*
X0257701Y0008014D01*
G75*
G02*
X0258282Y0008595I0000581J0000000D01*
G01*
G37*
D126*
X0148606Y0010819D03*
D98*
X0157583Y0035622D03*
D126*
X0166559Y0010819D03*
G36*
G01*
X0179807Y0053329D02*
X0179807Y0051971D01*
G75*
G02*
X0179227Y0051390I-000581J0000000D01*
G01*
X0178065Y0051390D01*
G75*
G02*
X0177484Y0051971I0000000J0000581D01*
G01*
X0177484Y0053329D01*
G75*
G02*
X0178065Y0053910I0000581J0000000D01*
G01*
X0179227Y0053910D01*
G75*
G02*
X0179807Y0053329I0000000J-000581D01*
G01*
G37*
G36*
G01*
X0175988Y0053329D02*
X0175988Y0051971D01*
G75*
G02*
X0175408Y0051390I-000581J0000000D01*
G01*
X0174246Y0051390D01*
G75*
G02*
X0173666Y0051971I0000000J0000581D01*
G01*
X0173666Y0053329D01*
G75*
G02*
X0174246Y0053910I0000581J0000000D01*
G01*
X0175408Y0053910D01*
G75*
G02*
X0175988Y0053329I0000000J-000581D01*
G01*
G37*
G36*
G01*
X0217927Y0047650D02*
X0219286Y0047650D01*
G75*
G02*
X0219866Y0047069I0000000J-000581D01*
G01*
X0219866Y0045908D01*
G75*
G02*
X0219286Y0045327I-000581J0000000D01*
G01*
X0217927Y0045327D01*
G75*
G02*
X0217347Y0045908I0000000J0000581D01*
G01*
X0217347Y0047069D01*
G75*
G02*
X0217927Y0047650I0000581J0000000D01*
G01*
G37*
G36*
G01*
X0217927Y0043831D02*
X0219286Y0043831D01*
G75*
G02*
X0219866Y0043250I0000000J-000581D01*
G01*
X0219866Y0042089D01*
G75*
G02*
X0219286Y0041508I-000581J0000000D01*
G01*
X0217927Y0041508D01*
G75*
G02*
X0217347Y0042089I0000000J0000581D01*
G01*
X0217347Y0043250D01*
G75*
G02*
X0217927Y0043831I0000581J0000000D01*
G01*
G37*
G36*
G01*
X0181579Y0007069D02*
X0181579Y0005711D01*
G75*
G02*
X0180998Y0005130I-000581J0000000D01*
G01*
X0179837Y0005130D01*
G75*
G02*
X0179256Y0005711I0000000J0000581D01*
G01*
X0179256Y0007069D01*
G75*
G02*
X0179837Y0007650I0000581J0000000D01*
G01*
X0180998Y0007650D01*
G75*
G02*
X0181579Y0007069I0000000J-000581D01*
G01*
G37*
G36*
G01*
X0177760Y0007069D02*
X0177760Y0005711D01*
G75*
G02*
X0177179Y0005130I-000581J0000000D01*
G01*
X0176018Y0005130D01*
G75*
G02*
X0175437Y0005711I0000000J0000581D01*
G01*
X0175437Y0007069D01*
G75*
G02*
X0176018Y0007650I0000581J0000000D01*
G01*
X0177179Y0007650D01*
G75*
G02*
X0177760Y0007069I0000000J-000581D01*
G01*
G37*
G36*
G01*
X0215408Y0040544D02*
X0214049Y0040544D01*
G75*
G02*
X0213469Y0041124I0000000J0000581D01*
G01*
X0213469Y0042286D01*
G75*
G02*
X0214049Y0042866I0000581J0000000D01*
G01*
X0215408Y0042866D01*
G75*
G02*
X0215988Y0042286I0000000J-000581D01*
G01*
X0215988Y0041124D01*
G75*
G02*
X0215408Y0040544I-000581J0000000D01*
G01*
G37*
G36*
G01*
X0215408Y0044362D02*
X0214049Y0044362D01*
G75*
G02*
X0213469Y0044943I0000000J0000581D01*
G01*
X0213469Y0046105D01*
G75*
G02*
X0214049Y0046685I0000581J0000000D01*
G01*
X0215408Y0046685D01*
G75*
G02*
X0215988Y0046105I0000000J-000581D01*
G01*
X0215988Y0044943D01*
G75*
G02*
X0215408Y0044362I-000581J0000000D01*
G01*
G37*
G36*
G01*
X0269512Y0040140D02*
X0269512Y0038782D01*
G75*
G02*
X0268931Y0038201I-000581J0000000D01*
G01*
X0267770Y0038201D01*
G75*
G02*
X0267189Y0038782I0000000J0000581D01*
G01*
X0267189Y0040140D01*
G75*
G02*
X0267770Y0040721I0000581J0000000D01*
G01*
X0268931Y0040721D01*
G75*
G02*
X0269512Y0040140I0000000J-000581D01*
G01*
G37*
G36*
G01*
X0265693Y0040140D02*
X0265693Y0038782D01*
G75*
G02*
X0265112Y0038201I-000581J0000000D01*
G01*
X0263951Y0038201D01*
G75*
G02*
X0263370Y0038782I0000000J0000581D01*
G01*
X0263370Y0040140D01*
G75*
G02*
X0263951Y0040721I0000581J0000000D01*
G01*
X0265112Y0040721D01*
G75*
G02*
X0265693Y0040140I0000000J-000581D01*
G01*
G37*
G36*
G01*
X0230406Y0050106D02*
X0230406Y0052123D01*
G75*
G02*
X0231267Y0052984I0000861J0000000D01*
G01*
X0232989Y0052984D01*
G75*
G02*
X0233851Y0052123I0000000J-000861D01*
G01*
X0233851Y0050106D01*
G75*
G02*
X0232989Y0049244I-000861J0000000D01*
G01*
X0231267Y0049244D01*
G75*
G02*
X0230406Y0050106I0000000J0000861D01*
G01*
G37*
G36*
G01*
X0236606Y0050106D02*
X0236606Y0052123D01*
G75*
G02*
X0237468Y0052984I0000861J0000000D01*
G01*
X0239190Y0052984D01*
G75*
G02*
X0240051Y0052123I0000000J-000861D01*
G01*
X0240051Y0050106D01*
G75*
G02*
X0239190Y0049244I-000861J0000000D01*
G01*
X0237468Y0049244D01*
G75*
G02*
X0236606Y0050106I0000000J0000861D01*
G01*
G37*
G36*
G01*
X0222158Y0050435D02*
X0222158Y0051794D01*
G75*
G02*
X0222738Y0052374I0000581J0000000D01*
G01*
X0223900Y0052374D01*
G75*
G02*
X0224480Y0051794I0000000J-000581D01*
G01*
X0224480Y0050435D01*
G75*
G02*
X0223900Y0049855I-000581J0000000D01*
G01*
X0222738Y0049855D01*
G75*
G02*
X0222158Y0050435I0000000J0000581D01*
G01*
G37*
G36*
G01*
X0225977Y0050435D02*
X0225977Y0051794D01*
G75*
G02*
X0226557Y0052374I0000581J0000000D01*
G01*
X0227719Y0052374D01*
G75*
G02*
X0228299Y0051794I0000000J-000581D01*
G01*
X0228299Y0050435D01*
G75*
G02*
X0227719Y0049855I-000581J0000000D01*
G01*
X0226557Y0049855D01*
G75*
G02*
X0225977Y0050435I0000000J0000581D01*
G01*
G37*
G36*
G01*
X0209658Y0022435D02*
X0209658Y0023794D01*
G75*
G02*
X0210238Y0024374I0000581J0000000D01*
G01*
X0211400Y0024374D01*
G75*
G02*
X0211980Y0023794I0000000J-000581D01*
G01*
X0211980Y0022435D01*
G75*
G02*
X0211400Y0021855I-000581J0000000D01*
G01*
X0210238Y0021855D01*
G75*
G02*
X0209658Y0022435I0000000J0000581D01*
G01*
G37*
G36*
G01*
X0213477Y0022435D02*
X0213477Y0023794D01*
G75*
G02*
X0214057Y0024374I0000581J0000000D01*
G01*
X0215219Y0024374D01*
G75*
G02*
X0215799Y0023794I0000000J-000581D01*
G01*
X0215799Y0022435D01*
G75*
G02*
X0215219Y0021855I-000581J0000000D01*
G01*
X0214057Y0021855D01*
G75*
G02*
X0213477Y0022435I0000000J0000581D01*
G01*
G37*
G36*
G01*
X0203908Y0018044D02*
X0202549Y0018044D01*
G75*
G02*
X0201969Y0018624I0000000J0000581D01*
G01*
X0201969Y0019786D01*
G75*
G02*
X0202549Y0020366I0000581J0000000D01*
G01*
X0203908Y0020366D01*
G75*
G02*
X0204488Y0019786I0000000J-000581D01*
G01*
X0204488Y0018624D01*
G75*
G02*
X0203908Y0018044I-000581J0000000D01*
G01*
G37*
G36*
G01*
X0203908Y0021862D02*
X0202549Y0021862D01*
G75*
G02*
X0201969Y0022443I0000000J0000581D01*
G01*
X0201969Y0023605D01*
G75*
G02*
X0202549Y0024185I0000581J0000000D01*
G01*
X0203908Y0024185D01*
G75*
G02*
X0204488Y0023605I0000000J-000581D01*
G01*
X0204488Y0022443D01*
G75*
G02*
X0203908Y0021862I-000581J0000000D01*
G01*
G37*
G36*
G01*
X0207671Y0018044D02*
X0206313Y0018044D01*
G75*
G02*
X0205732Y0018624I0000000J0000581D01*
G01*
X0205732Y0019786D01*
G75*
G02*
X0206313Y0020366I0000581J0000000D01*
G01*
X0207671Y0020366D01*
G75*
G02*
X0208252Y0019786I0000000J-000581D01*
G01*
X0208252Y0018624D01*
G75*
G02*
X0207671Y0018044I-000581J0000000D01*
G01*
G37*
G36*
G01*
X0207671Y0021862D02*
X0206313Y0021862D01*
G75*
G02*
X0205732Y0022443I0000000J0000581D01*
G01*
X0205732Y0023605D01*
G75*
G02*
X0206313Y0024185I0000581J0000000D01*
G01*
X0207671Y0024185D01*
G75*
G02*
X0208252Y0023605I0000000J-000581D01*
G01*
X0208252Y0022443D01*
G75*
G02*
X0207671Y0021862I-000581J0000000D01*
G01*
G37*
G36*
G01*
X0209658Y0018435D02*
X0209658Y0019794D01*
G75*
G02*
X0210238Y0020374I0000581J0000000D01*
G01*
X0211400Y0020374D01*
G75*
G02*
X0211980Y0019794I0000000J-000581D01*
G01*
X0211980Y0018435D01*
G75*
G02*
X0211400Y0017855I-000581J0000000D01*
G01*
X0210238Y0017855D01*
G75*
G02*
X0209658Y0018435I0000000J0000581D01*
G01*
G37*
G36*
G01*
X0213477Y0018435D02*
X0213477Y0019794D01*
G75*
G02*
X0214057Y0020374I0000581J0000000D01*
G01*
X0215219Y0020374D01*
G75*
G02*
X0215799Y0019794I0000000J-000581D01*
G01*
X0215799Y0018435D01*
G75*
G02*
X0215219Y0017855I-000581J0000000D01*
G01*
X0214057Y0017855D01*
G75*
G02*
X0213477Y0018435I0000000J0000581D01*
G01*
G37*
D188*
X0193567Y0013870D03*
X0193567Y0010130D03*
X0193567Y0006390D03*
X0203882Y0006390D03*
X0203882Y0013870D03*
G36*
G01*
X0199908Y0018044D02*
X0198549Y0018044D01*
G75*
G02*
X0197969Y0018624I0000000J0000581D01*
G01*
X0197969Y0019786D01*
G75*
G02*
X0198549Y0020366I0000581J0000000D01*
G01*
X0199908Y0020366D01*
G75*
G02*
X0200488Y0019786I0000000J-000581D01*
G01*
X0200488Y0018624D01*
G75*
G02*
X0199908Y0018044I-000581J0000000D01*
G01*
G37*
G36*
G01*
X0199908Y0021862D02*
X0198549Y0021862D01*
G75*
G02*
X0197969Y0022443I0000000J0000581D01*
G01*
X0197969Y0023605D01*
G75*
G02*
X0198549Y0024185I0000581J0000000D01*
G01*
X0199908Y0024185D01*
G75*
G02*
X0200488Y0023605I0000000J-000581D01*
G01*
X0200488Y0022443D01*
G75*
G02*
X0199908Y0021862I-000581J0000000D01*
G01*
G37*
G36*
G01*
X0188774Y0010996D02*
X0187416Y0010996D01*
G75*
G02*
X0186835Y0011577I0000000J0000581D01*
G01*
X0186835Y0012738D01*
G75*
G02*
X0187416Y0013319I0000581J0000000D01*
G01*
X0188774Y0013319D01*
G75*
G02*
X0189354Y0012738I0000000J-000581D01*
G01*
X0189354Y0011577D01*
G75*
G02*
X0188774Y0010996I-000581J0000000D01*
G01*
G37*
G36*
G01*
X0188774Y0014815D02*
X0187416Y0014815D01*
G75*
G02*
X0186835Y0015396I0000000J0000581D01*
G01*
X0186835Y0016557D01*
G75*
G02*
X0187416Y0017138I0000581J0000000D01*
G01*
X0188774Y0017138D01*
G75*
G02*
X0189354Y0016557I0000000J-000581D01*
G01*
X0189354Y0015396D01*
G75*
G02*
X0188774Y0014815I-000581J0000000D01*
G01*
G37*
G36*
G01*
X0175408Y0033544D02*
X0174049Y0033544D01*
G75*
G02*
X0173469Y0034124I0000000J0000581D01*
G01*
X0173469Y0035286D01*
G75*
G02*
X0174049Y0035866I0000581J0000000D01*
G01*
X0175408Y0035866D01*
G75*
G02*
X0175988Y0035286I0000000J-000581D01*
G01*
X0175988Y0034124D01*
G75*
G02*
X0175408Y0033544I-000581J0000000D01*
G01*
G37*
G36*
G01*
X0175408Y0037362D02*
X0174049Y0037362D01*
G75*
G02*
X0173469Y0037943I0000000J0000581D01*
G01*
X0173469Y0039105D01*
G75*
G02*
X0174049Y0039685I0000581J0000000D01*
G01*
X0175408Y0039685D01*
G75*
G02*
X0175988Y0039105I0000000J-000581D01*
G01*
X0175988Y0037943D01*
G75*
G02*
X0175408Y0037362I-000581J0000000D01*
G01*
G37*
G36*
G01*
X0177220Y0019937D02*
X0179237Y0019937D01*
G75*
G02*
X0180099Y0019076I0000000J-000861D01*
G01*
X0180099Y0017354D01*
G75*
G02*
X0179237Y0016492I-000861J0000000D01*
G01*
X0177220Y0016492D01*
G75*
G02*
X0176358Y0017354I0000000J0000861D01*
G01*
X0176358Y0019076D01*
G75*
G02*
X0177220Y0019937I0000861J0000000D01*
G01*
G37*
G36*
G01*
X0177220Y0013736D02*
X0179237Y0013736D01*
G75*
G02*
X0180099Y0012875I0000000J-000861D01*
G01*
X0180099Y0011153D01*
G75*
G02*
X0179237Y0010292I-000861J0000000D01*
G01*
X0177220Y0010292D01*
G75*
G02*
X0176358Y0011153I0000000J0000861D01*
G01*
X0176358Y0012875D01*
G75*
G02*
X0177220Y0013736I0000861J0000000D01*
G01*
G37*
G36*
G01*
X0179807Y0045061D02*
X0179807Y0043703D01*
G75*
G02*
X0179227Y0043122I-000581J0000000D01*
G01*
X0178065Y0043122D01*
G75*
G02*
X0177484Y0043703I0000000J0000581D01*
G01*
X0177484Y0045061D01*
G75*
G02*
X0178065Y0045642I0000581J0000000D01*
G01*
X0179227Y0045642D01*
G75*
G02*
X0179807Y0045061I0000000J-000581D01*
G01*
G37*
G36*
G01*
X0175988Y0045061D02*
X0175988Y0043703D01*
G75*
G02*
X0175408Y0043122I-000581J0000000D01*
G01*
X0174246Y0043122D01*
G75*
G02*
X0173666Y0043703I0000000J0000581D01*
G01*
X0173666Y0045061D01*
G75*
G02*
X0174246Y0045642I0000581J0000000D01*
G01*
X0175408Y0045642D01*
G75*
G02*
X0175988Y0045061I0000000J-000581D01*
G01*
G37*
G36*
G01*
X0173666Y0047837D02*
X0173666Y0049195D01*
G75*
G02*
X0174246Y0049776I0000581J0000000D01*
G01*
X0175408Y0049776D01*
G75*
G02*
X0175988Y0049195I0000000J-000581D01*
G01*
X0175988Y0047837D01*
G75*
G02*
X0175408Y0047256I-000581J0000000D01*
G01*
X0174246Y0047256D01*
G75*
G02*
X0173666Y0047837I0000000J0000581D01*
G01*
G37*
G36*
G01*
X0177484Y0047837D02*
X0177484Y0049195D01*
G75*
G02*
X0178065Y0049776I0000581J0000000D01*
G01*
X0179227Y0049776D01*
G75*
G02*
X0179807Y0049195I0000000J-000581D01*
G01*
X0179807Y0047837D01*
G75*
G02*
X0179227Y0047256I-000581J0000000D01*
G01*
X0178065Y0047256D01*
G75*
G02*
X0177484Y0047837I0000000J0000581D01*
G01*
G37*
G36*
G01*
X0252051Y0052123D02*
X0252051Y0050106D01*
G75*
G02*
X0251190Y0049244I-000861J0000000D01*
G01*
X0249468Y0049244D01*
G75*
G02*
X0248606Y0050106I0000000J0000861D01*
G01*
X0248606Y0052123D01*
G75*
G02*
X0249468Y0052984I0000861J0000000D01*
G01*
X0251190Y0052984D01*
G75*
G02*
X0252051Y0052123I0000000J-000861D01*
G01*
G37*
G36*
G01*
X0245851Y0052123D02*
X0245851Y0050106D01*
G75*
G02*
X0244989Y0049244I-000861J0000000D01*
G01*
X0243267Y0049244D01*
G75*
G02*
X0242406Y0050106I0000000J0000861D01*
G01*
X0242406Y0052123D01*
G75*
G02*
X0243267Y0052984I0000861J0000000D01*
G01*
X0244989Y0052984D01*
G75*
G02*
X0245851Y0052123I0000000J-000861D01*
G01*
G37*
G36*
G01*
X0255280Y0056675D02*
X0255280Y0055317D01*
G75*
G02*
X0254699Y0054736I-000581J0000000D01*
G01*
X0253538Y0054736D01*
G75*
G02*
X0252957Y0055317I0000000J0000581D01*
G01*
X0252957Y0056675D01*
G75*
G02*
X0253538Y0057256I0000581J0000000D01*
G01*
X0254699Y0057256D01*
G75*
G02*
X0255280Y0056675I0000000J-000581D01*
G01*
G37*
G36*
G01*
X0251461Y0056675D02*
X0251461Y0055317D01*
G75*
G02*
X0250880Y0054736I-000581J0000000D01*
G01*
X0249719Y0054736D01*
G75*
G02*
X0249138Y0055317I0000000J0000581D01*
G01*
X0249138Y0056675D01*
G75*
G02*
X0249719Y0057256I0000581J0000000D01*
G01*
X0250880Y0057256D01*
G75*
G02*
X0251461Y0056675I0000000J-000581D01*
G01*
G37*
G36*
G01*
X0208055Y0014569D02*
X0208055Y0015927D01*
G75*
G02*
X0208636Y0016508I0000581J0000000D01*
G01*
X0209797Y0016508D01*
G75*
G02*
X0210378Y0015927I0000000J-000581D01*
G01*
X0210378Y0014569D01*
G75*
G02*
X0209797Y0013988I-000581J0000000D01*
G01*
X0208636Y0013988D01*
G75*
G02*
X0208055Y0014569I0000000J0000581D01*
G01*
G37*
G36*
G01*
X0211874Y0014569D02*
X0211874Y0015927D01*
G75*
G02*
X0212455Y0016508I0000581J0000000D01*
G01*
X0213616Y0016508D01*
G75*
G02*
X0214197Y0015927I0000000J-000581D01*
G01*
X0214197Y0014569D01*
G75*
G02*
X0213616Y0013988I-000581J0000000D01*
G01*
X0212455Y0013988D01*
G75*
G02*
X0211874Y0014569I0000000J0000581D01*
G01*
G37*
G36*
G01*
X0221461Y0038181D02*
X0221461Y0039166D01*
G75*
G02*
X0221953Y0039658I0000492J0000000D01*
G01*
X0226874Y0039658D01*
G75*
G02*
X0227366Y0039166I0000000J-000492D01*
G01*
X0227366Y0038181D01*
G75*
G02*
X0226874Y0037689I-000492J0000000D01*
G01*
X0221953Y0037689D01*
G75*
G02*
X0221461Y0038181I0000000J0000492D01*
G01*
G37*
G36*
G01*
X0221461Y0035032D02*
X0221461Y0036016D01*
G75*
G02*
X0221953Y0036508I0000492J0000000D01*
G01*
X0226874Y0036508D01*
G75*
G02*
X0227366Y0036016I0000000J-000492D01*
G01*
X0227366Y0035032D01*
G75*
G02*
X0226874Y0034540I-000492J0000000D01*
G01*
X0221953Y0034540D01*
G75*
G02*
X0221461Y0035032I0000000J0000492D01*
G01*
G37*
G36*
G01*
X0221461Y0031882D02*
X0221461Y0032866D01*
G75*
G02*
X0221953Y0033358I0000492J0000000D01*
G01*
X0226874Y0033358D01*
G75*
G02*
X0227366Y0032866I0000000J-000492D01*
G01*
X0227366Y0031882D01*
G75*
G02*
X0226874Y0031390I-000492J0000000D01*
G01*
X0221953Y0031390D01*
G75*
G02*
X0221461Y0031882I0000000J0000492D01*
G01*
G37*
G36*
G01*
X0221461Y0028733D02*
X0221461Y0029717D01*
G75*
G02*
X0221953Y0030209I0000492J0000000D01*
G01*
X0226874Y0030209D01*
G75*
G02*
X0227366Y0029717I0000000J-000492D01*
G01*
X0227366Y0028733D01*
G75*
G02*
X0226874Y0028240I-000492J0000000D01*
G01*
X0221953Y0028240D01*
G75*
G02*
X0221461Y0028733I0000000J0000492D01*
G01*
G37*
G36*
G01*
X0221461Y0025583D02*
X0221461Y0026567D01*
G75*
G02*
X0221953Y0027059I0000492J0000000D01*
G01*
X0226874Y0027059D01*
G75*
G02*
X0227366Y0026567I0000000J-000492D01*
G01*
X0227366Y0025583D01*
G75*
G02*
X0226874Y0025091I-000492J0000000D01*
G01*
X0221953Y0025091D01*
G75*
G02*
X0221461Y0025583I0000000J0000492D01*
G01*
G37*
G36*
G01*
X0221461Y0022433D02*
X0221461Y0023418D01*
G75*
G02*
X0221953Y0023910I0000492J0000000D01*
G01*
X0226874Y0023910D01*
G75*
G02*
X0227366Y0023418I0000000J-000492D01*
G01*
X0227366Y0022433D01*
G75*
G02*
X0226874Y0021941I-000492J0000000D01*
G01*
X0221953Y0021941D01*
G75*
G02*
X0221461Y0022433I0000000J0000492D01*
G01*
G37*
G36*
G01*
X0221461Y0019284D02*
X0221461Y0020268D01*
G75*
G02*
X0221953Y0020760I0000492J0000000D01*
G01*
X0226874Y0020760D01*
G75*
G02*
X0227366Y0020268I0000000J-000492D01*
G01*
X0227366Y0019284D01*
G75*
G02*
X0226874Y0018792I-000492J0000000D01*
G01*
X0221953Y0018792D01*
G75*
G02*
X0221461Y0019284I0000000J0000492D01*
G01*
G37*
G36*
G01*
X0221461Y0016134D02*
X0221461Y0017118D01*
G75*
G02*
X0221953Y0017610I0000492J0000000D01*
G01*
X0226874Y0017610D01*
G75*
G02*
X0227366Y0017118I0000000J-000492D01*
G01*
X0227366Y0016134D01*
G75*
G02*
X0226874Y0015642I-000492J0000000D01*
G01*
X0221953Y0015642D01*
G75*
G02*
X0221461Y0016134I0000000J0000492D01*
G01*
G37*
G36*
G01*
X0228843Y0008752D02*
X0228843Y0013673D01*
G75*
G02*
X0229335Y0014166I0000492J0000000D01*
G01*
X0230319Y0014166D01*
G75*
G02*
X0230811Y0013673I0000000J-000492D01*
G01*
X0230811Y0008752D01*
G75*
G02*
X0230319Y0008260I-000492J0000000D01*
G01*
X0229335Y0008260D01*
G75*
G02*
X0228843Y0008752I0000000J0000492D01*
G01*
G37*
G36*
G01*
X0231992Y0008752D02*
X0231992Y0013673D01*
G75*
G02*
X0232484Y0014166I0000492J0000000D01*
G01*
X0233469Y0014166D01*
G75*
G02*
X0233961Y0013673I0000000J-000492D01*
G01*
X0233961Y0008752D01*
G75*
G02*
X0233469Y0008260I-000492J0000000D01*
G01*
X0232484Y0008260D01*
G75*
G02*
X0231992Y0008752I0000000J0000492D01*
G01*
G37*
G36*
G01*
X0235142Y0008752D02*
X0235142Y0013673D01*
G75*
G02*
X0235634Y0014166I0000492J0000000D01*
G01*
X0236618Y0014166D01*
G75*
G02*
X0237110Y0013673I0000000J-000492D01*
G01*
X0237110Y0008752D01*
G75*
G02*
X0236618Y0008260I-000492J0000000D01*
G01*
X0235634Y0008260D01*
G75*
G02*
X0235142Y0008752I0000000J0000492D01*
G01*
G37*
G36*
G01*
X0238292Y0008752D02*
X0238292Y0013673D01*
G75*
G02*
X0238784Y0014166I0000492J0000000D01*
G01*
X0239768Y0014166D01*
G75*
G02*
X0240260Y0013673I0000000J-000492D01*
G01*
X0240260Y0008752D01*
G75*
G02*
X0239768Y0008260I-000492J0000000D01*
G01*
X0238784Y0008260D01*
G75*
G02*
X0238292Y0008752I0000000J0000492D01*
G01*
G37*
G36*
G01*
X0241441Y0008752D02*
X0241441Y0013673D01*
G75*
G02*
X0241933Y0014166I0000492J0000000D01*
G01*
X0242917Y0014166D01*
G75*
G02*
X0243410Y0013673I0000000J-000492D01*
G01*
X0243410Y0008752D01*
G75*
G02*
X0242917Y0008260I-000492J0000000D01*
G01*
X0241933Y0008260D01*
G75*
G02*
X0241441Y0008752I0000000J0000492D01*
G01*
G37*
G36*
G01*
X0244591Y0008752D02*
X0244591Y0013673D01*
G75*
G02*
X0245083Y0014166I0000492J0000000D01*
G01*
X0246067Y0014166D01*
G75*
G02*
X0246559Y0013673I0000000J-000492D01*
G01*
X0246559Y0008752D01*
G75*
G02*
X0246067Y0008260I-000492J0000000D01*
G01*
X0245083Y0008260D01*
G75*
G02*
X0244591Y0008752I0000000J0000492D01*
G01*
G37*
G36*
G01*
X0247740Y0008752D02*
X0247740Y0013673D01*
G75*
G02*
X0248232Y0014166I0000492J0000000D01*
G01*
X0249217Y0014166D01*
G75*
G02*
X0249709Y0013673I0000000J-000492D01*
G01*
X0249709Y0008752D01*
G75*
G02*
X0249217Y0008260I-000492J0000000D01*
G01*
X0248232Y0008260D01*
G75*
G02*
X0247740Y0008752I0000000J0000492D01*
G01*
G37*
G36*
G01*
X0250890Y0008752D02*
X0250890Y0013673D01*
G75*
G02*
X0251382Y0014166I0000492J0000000D01*
G01*
X0252366Y0014166D01*
G75*
G02*
X0252858Y0013673I0000000J-000492D01*
G01*
X0252858Y0008752D01*
G75*
G02*
X0252366Y0008260I-000492J0000000D01*
G01*
X0251382Y0008260D01*
G75*
G02*
X0250890Y0008752I0000000J0000492D01*
G01*
G37*
G36*
G01*
X0254335Y0016134D02*
X0254335Y0017118D01*
G75*
G02*
X0254827Y0017610I0000492J0000000D01*
G01*
X0259748Y0017610D01*
G75*
G02*
X0260240Y0017118I0000000J-000492D01*
G01*
X0260240Y0016134D01*
G75*
G02*
X0259748Y0015642I-000492J0000000D01*
G01*
X0254827Y0015642D01*
G75*
G02*
X0254335Y0016134I0000000J0000492D01*
G01*
G37*
G36*
G01*
X0254335Y0019284D02*
X0254335Y0020268D01*
G75*
G02*
X0254827Y0020760I0000492J0000000D01*
G01*
X0259748Y0020760D01*
G75*
G02*
X0260240Y0020268I0000000J-000492D01*
G01*
X0260240Y0019284D01*
G75*
G02*
X0259748Y0018792I-000492J0000000D01*
G01*
X0254827Y0018792D01*
G75*
G02*
X0254335Y0019284I0000000J0000492D01*
G01*
G37*
G36*
G01*
X0254335Y0022433D02*
X0254335Y0023418D01*
G75*
G02*
X0254827Y0023910I0000492J0000000D01*
G01*
X0259748Y0023910D01*
G75*
G02*
X0260240Y0023418I0000000J-000492D01*
G01*
X0260240Y0022433D01*
G75*
G02*
X0259748Y0021941I-000492J0000000D01*
G01*
X0254827Y0021941D01*
G75*
G02*
X0254335Y0022433I0000000J0000492D01*
G01*
G37*
G36*
G01*
X0254335Y0025583D02*
X0254335Y0026567D01*
G75*
G02*
X0254827Y0027059I0000492J0000000D01*
G01*
X0259748Y0027059D01*
G75*
G02*
X0260240Y0026567I0000000J-000492D01*
G01*
X0260240Y0025583D01*
G75*
G02*
X0259748Y0025091I-000492J0000000D01*
G01*
X0254827Y0025091D01*
G75*
G02*
X0254335Y0025583I0000000J0000492D01*
G01*
G37*
G36*
G01*
X0254335Y0028733D02*
X0254335Y0029717D01*
G75*
G02*
X0254827Y0030209I0000492J0000000D01*
G01*
X0259748Y0030209D01*
G75*
G02*
X0260240Y0029717I0000000J-000492D01*
G01*
X0260240Y0028733D01*
G75*
G02*
X0259748Y0028240I-000492J0000000D01*
G01*
X0254827Y0028240D01*
G75*
G02*
X0254335Y0028733I0000000J0000492D01*
G01*
G37*
G36*
G01*
X0254335Y0031882D02*
X0254335Y0032866D01*
G75*
G02*
X0254827Y0033358I0000492J0000000D01*
G01*
X0259748Y0033358D01*
G75*
G02*
X0260240Y0032866I0000000J-000492D01*
G01*
X0260240Y0031882D01*
G75*
G02*
X0259748Y0031390I-000492J0000000D01*
G01*
X0254827Y0031390D01*
G75*
G02*
X0254335Y0031882I0000000J0000492D01*
G01*
G37*
G36*
G01*
X0254335Y0035032D02*
X0254335Y0036016D01*
G75*
G02*
X0254827Y0036508I0000492J0000000D01*
G01*
X0259748Y0036508D01*
G75*
G02*
X0260240Y0036016I0000000J-000492D01*
G01*
X0260240Y0035032D01*
G75*
G02*
X0259748Y0034540I-000492J0000000D01*
G01*
X0254827Y0034540D01*
G75*
G02*
X0254335Y0035032I0000000J0000492D01*
G01*
G37*
G36*
G01*
X0254335Y0038181D02*
X0254335Y0039166D01*
G75*
G02*
X0254827Y0039658I0000492J0000000D01*
G01*
X0259748Y0039658D01*
G75*
G02*
X0260240Y0039166I0000000J-000492D01*
G01*
X0260240Y0038181D01*
G75*
G02*
X0259748Y0037689I-000492J0000000D01*
G01*
X0254827Y0037689D01*
G75*
G02*
X0254335Y0038181I0000000J0000492D01*
G01*
G37*
G36*
G01*
X0250890Y0041626D02*
X0250890Y0046547D01*
G75*
G02*
X0251382Y0047040I0000492J0000000D01*
G01*
X0252366Y0047040D01*
G75*
G02*
X0252858Y0046547I0000000J-000492D01*
G01*
X0252858Y0041626D01*
G75*
G02*
X0252366Y0041134I-000492J0000000D01*
G01*
X0251382Y0041134D01*
G75*
G02*
X0250890Y0041626I0000000J0000492D01*
G01*
G37*
G36*
G01*
X0247740Y0041626D02*
X0247740Y0046547D01*
G75*
G02*
X0248232Y0047040I0000492J0000000D01*
G01*
X0249217Y0047040D01*
G75*
G02*
X0249709Y0046547I0000000J-000492D01*
G01*
X0249709Y0041626D01*
G75*
G02*
X0249217Y0041134I-000492J0000000D01*
G01*
X0248232Y0041134D01*
G75*
G02*
X0247740Y0041626I0000000J0000492D01*
G01*
G37*
G36*
G01*
X0244591Y0041626D02*
X0244591Y0046547D01*
G75*
G02*
X0245083Y0047040I0000492J0000000D01*
G01*
X0246067Y0047040D01*
G75*
G02*
X0246559Y0046547I0000000J-000492D01*
G01*
X0246559Y0041626D01*
G75*
G02*
X0246067Y0041134I-000492J0000000D01*
G01*
X0245083Y0041134D01*
G75*
G02*
X0244591Y0041626I0000000J0000492D01*
G01*
G37*
G36*
G01*
X0241441Y0041626D02*
X0241441Y0046547D01*
G75*
G02*
X0241933Y0047040I0000492J0000000D01*
G01*
X0242917Y0047040D01*
G75*
G02*
X0243410Y0046547I0000000J-000492D01*
G01*
X0243410Y0041626D01*
G75*
G02*
X0242917Y0041134I-000492J0000000D01*
G01*
X0241933Y0041134D01*
G75*
G02*
X0241441Y0041626I0000000J0000492D01*
G01*
G37*
G36*
G01*
X0238292Y0041626D02*
X0238292Y0046547D01*
G75*
G02*
X0238784Y0047040I0000492J0000000D01*
G01*
X0239768Y0047040D01*
G75*
G02*
X0240260Y0046547I0000000J-000492D01*
G01*
X0240260Y0041626D01*
G75*
G02*
X0239768Y0041134I-000492J0000000D01*
G01*
X0238784Y0041134D01*
G75*
G02*
X0238292Y0041626I0000000J0000492D01*
G01*
G37*
G36*
G01*
X0235142Y0041626D02*
X0235142Y0046547D01*
G75*
G02*
X0235634Y0047040I0000492J0000000D01*
G01*
X0236618Y0047040D01*
G75*
G02*
X0237110Y0046547I0000000J-000492D01*
G01*
X0237110Y0041626D01*
G75*
G02*
X0236618Y0041134I-000492J0000000D01*
G01*
X0235634Y0041134D01*
G75*
G02*
X0235142Y0041626I0000000J0000492D01*
G01*
G37*
G36*
G01*
X0231992Y0041626D02*
X0231992Y0046547D01*
G75*
G02*
X0232484Y0047040I0000492J0000000D01*
G01*
X0233469Y0047040D01*
G75*
G02*
X0233961Y0046547I0000000J-000492D01*
G01*
X0233961Y0041626D01*
G75*
G02*
X0233469Y0041134I-000492J0000000D01*
G01*
X0232484Y0041134D01*
G75*
G02*
X0231992Y0041626I0000000J0000492D01*
G01*
G37*
G36*
G01*
X0228843Y0041626D02*
X0228843Y0046547D01*
G75*
G02*
X0229335Y0047040I0000492J0000000D01*
G01*
X0230319Y0047040D01*
G75*
G02*
X0230811Y0046547I0000000J-000492D01*
G01*
X0230811Y0041626D01*
G75*
G02*
X0230319Y0041134I-000492J0000000D01*
G01*
X0229335Y0041134D01*
G75*
G02*
X0228843Y0041626I0000000J0000492D01*
G01*
G37*
G36*
G01*
X0221677Y0013171D02*
X0221677Y0011813D01*
G75*
G02*
X0221097Y0011233I-000581J0000000D01*
G01*
X0219935Y0011233D01*
G75*
G02*
X0219354Y0011813I0000000J0000581D01*
G01*
X0219354Y0013171D01*
G75*
G02*
X0219935Y0013752I0000581J0000000D01*
G01*
X0221097Y0013752D01*
G75*
G02*
X0221677Y0013171I0000000J-000581D01*
G01*
G37*
G36*
G01*
X0217858Y0013171D02*
X0217858Y0011813D01*
G75*
G02*
X0217278Y0011233I-000581J0000000D01*
G01*
X0216116Y0011233D01*
G75*
G02*
X0215536Y0011813I0000000J0000581D01*
G01*
X0215536Y0013171D01*
G75*
G02*
X0216116Y0013752I0000581J0000000D01*
G01*
X0217278Y0013752D01*
G75*
G02*
X0217858Y0013171I0000000J-000581D01*
G01*
G37*
G36*
G01*
X0208055Y0010632D02*
X0208055Y0011990D01*
G75*
G02*
X0208636Y0012571I0000581J0000000D01*
G01*
X0209797Y0012571D01*
G75*
G02*
X0210378Y0011990I0000000J-000581D01*
G01*
X0210378Y0010632D01*
G75*
G02*
X0209797Y0010051I-000581J0000000D01*
G01*
X0208636Y0010051D01*
G75*
G02*
X0208055Y0010632I0000000J0000581D01*
G01*
G37*
G36*
G01*
X0211874Y0010632D02*
X0211874Y0011990D01*
G75*
G02*
X0212455Y0012571I0000581J0000000D01*
G01*
X0213616Y0012571D01*
G75*
G02*
X0214197Y0011990I0000000J-000581D01*
G01*
X0214197Y0010632D01*
G75*
G02*
X0213616Y0010051I-000581J0000000D01*
G01*
X0212455Y0010051D01*
G75*
G02*
X0211874Y0010632I0000000J0000581D01*
G01*
G37*
G36*
G01*
X0213567Y0035829D02*
X0213567Y0037187D01*
G75*
G02*
X0214148Y0037768I0000581J0000000D01*
G01*
X0215309Y0037768D01*
G75*
G02*
X0215890Y0037187I0000000J-000581D01*
G01*
X0215890Y0035829D01*
G75*
G02*
X0215309Y0035248I-000581J0000000D01*
G01*
X0214148Y0035248D01*
G75*
G02*
X0213567Y0035829I0000000J0000581D01*
G01*
G37*
G36*
G01*
X0217386Y0035829D02*
X0217386Y0037187D01*
G75*
G02*
X0217967Y0037768I0000581J0000000D01*
G01*
X0219128Y0037768D01*
G75*
G02*
X0219709Y0037187I0000000J-000581D01*
G01*
X0219709Y0035829D01*
G75*
G02*
X0219128Y0035248I-000581J0000000D01*
G01*
X0217967Y0035248D01*
G75*
G02*
X0217386Y0035829I0000000J0000581D01*
G01*
G37*
G36*
G01*
X0266362Y0017650D02*
X0265004Y0017650D01*
G75*
G02*
X0264423Y0018231I0000000J0000581D01*
G01*
X0264423Y0019392D01*
G75*
G02*
X0265004Y0019973I0000581J0000000D01*
G01*
X0266362Y0019973D01*
G75*
G02*
X0266943Y0019392I0000000J-000581D01*
G01*
X0266943Y0018231D01*
G75*
G02*
X0266362Y0017650I-000581J0000000D01*
G01*
G37*
G36*
G01*
X0266362Y0021469D02*
X0265004Y0021469D01*
G75*
G02*
X0264423Y0022050I0000000J0000581D01*
G01*
X0264423Y0023211D01*
G75*
G02*
X0265004Y0023792I0000581J0000000D01*
G01*
X0266362Y0023792D01*
G75*
G02*
X0266943Y0023211I0000000J-000581D01*
G01*
X0266943Y0022050D01*
G75*
G02*
X0266362Y0021469I-000581J0000000D01*
G01*
G37*
G36*
G01*
X0257081Y0044008D02*
X0255723Y0044008D01*
G75*
G02*
X0255142Y0044589I0000000J0000581D01*
G01*
X0255142Y0045750D01*
G75*
G02*
X0255723Y0046331I0000581J0000000D01*
G01*
X0257081Y0046331D01*
G75*
G02*
X0257662Y0045750I0000000J-000581D01*
G01*
X0257662Y0044589D01*
G75*
G02*
X0257081Y0044008I-000581J0000000D01*
G01*
G37*
G36*
G01*
X0257081Y0047827D02*
X0255723Y0047827D01*
G75*
G02*
X0255142Y0048408I0000000J0000581D01*
G01*
X0255142Y0049569D01*
G75*
G02*
X0255723Y0050150I0000581J0000000D01*
G01*
X0257081Y0050150D01*
G75*
G02*
X0257662Y0049569I0000000J-000581D01*
G01*
X0257662Y0048408D01*
G75*
G02*
X0257081Y0047827I-000581J0000000D01*
G01*
G37*
G36*
G01*
X0280823Y0021675D02*
X0280823Y0020317D01*
G75*
G02*
X0280242Y0019736I-000581J0000000D01*
G01*
X0279081Y0019736D01*
G75*
G02*
X0278500Y0020317I0000000J0000581D01*
G01*
X0278500Y0021675D01*
G75*
G02*
X0279081Y0022256I0000581J0000000D01*
G01*
X0280242Y0022256D01*
G75*
G02*
X0280823Y0021675I0000000J-000581D01*
G01*
G37*
G36*
G01*
X0277004Y0021675D02*
X0277004Y0020317D01*
G75*
G02*
X0276423Y0019736I-000581J0000000D01*
G01*
X0275262Y0019736D01*
G75*
G02*
X0274681Y0020317I0000000J0000581D01*
G01*
X0274681Y0021675D01*
G75*
G02*
X0275262Y0022256I0000581J0000000D01*
G01*
X0276423Y0022256D01*
G75*
G02*
X0277004Y0021675I0000000J-000581D01*
G01*
G37*
D292*
X0279492Y0015933D03*
X0272012Y0015933D03*
X0275752Y0008059D03*
G36*
G01*
X0178049Y0039685D02*
X0179408Y0039685D01*
G75*
G02*
X0179988Y0039105I0000000J-000581D01*
G01*
X0179988Y0037943D01*
G75*
G02*
X0179408Y0037362I-000581J0000000D01*
G01*
X0178049Y0037362D01*
G75*
G02*
X0177469Y0037943I0000000J0000581D01*
G01*
X0177469Y0039105D01*
G75*
G02*
X0178049Y0039685I0000581J0000000D01*
G01*
G37*
G36*
G01*
X0178049Y0035866D02*
X0179408Y0035866D01*
G75*
G02*
X0179988Y0035286I0000000J-000581D01*
G01*
X0179988Y0034124D01*
G75*
G02*
X0179408Y0033544I-000581J0000000D01*
G01*
X0178049Y0033544D01*
G75*
G02*
X0177469Y0034124I0000000J0000581D01*
G01*
X0177469Y0035286D01*
G75*
G02*
X0178049Y0035866I0000581J0000000D01*
G01*
G37*
G36*
G01*
X0266397Y0006016D02*
X0264379Y0006016D01*
G75*
G02*
X0263518Y0006877I0000000J0000861D01*
G01*
X0263518Y0008600D01*
G75*
G02*
X0264379Y0009461I0000861J0000000D01*
G01*
X0266397Y0009461D01*
G75*
G02*
X0267258Y0008600I0000000J-000861D01*
G01*
X0267258Y0006877D01*
G75*
G02*
X0266397Y0006016I-000861J0000000D01*
G01*
G37*
G36*
G01*
X0266397Y0012217D02*
X0264379Y0012217D01*
G75*
G02*
X0263518Y0013078I0000000J0000861D01*
G01*
X0263518Y0014801D01*
G75*
G02*
X0264379Y0015662I0000861J0000000D01*
G01*
X0266397Y0015662D01*
G75*
G02*
X0267258Y0014801I0000000J-000861D01*
G01*
X0267258Y0013078D01*
G75*
G02*
X0266397Y0012217I-000861J0000000D01*
G01*
G37*
D235*
X0282150Y0049500D03*
X0262150Y0053500D03*
X0262150Y0045500D03*
D16*
X0277150Y0052000D03*
X0277150Y0047000D03*
X0272150Y0052000D03*
X0272150Y0047000D03*
X0267150Y0052000D03*
X0267150Y0047000D03*
X0339128Y0029100D02*
G01*
G75*
D283*
X0295821Y0028017D02*
D03*
D142*
X0336569Y0027820D02*
D03*
X0334600Y0027820D02*
D03*
D341*
X0327711Y0016088D02*
D03*
X0331451Y0025340D02*
D03*
D341*
X0335191Y0016088D02*
D03*
D241*
X0320152Y0004474D02*
D03*
X0320152Y0009474D02*
D03*
X0320152Y0014474D02*
D03*
X0320152Y0019474D02*
D03*
X0301254Y0004474D02*
D03*
X0301254Y0009474D02*
D03*
X0301254Y0014474D02*
D03*
X0301254Y0019474D02*
D03*
D342*
X0304443Y0024769D02*
D03*
X0298223Y0024769D02*
D03*
X0312789Y0024769D02*
D03*
X0319010Y0024769D02*
D03*
D343*
X0334601Y0011187D02*
D03*
X0328301Y0011187D02*
D03*
D90*
X0323971Y0027230D02*
D03*
X0307927Y0004691D02*
D03*
X0307632Y0018667D02*
D03*
X0308813Y0023687D02*
D03*
X0312258Y0021620D02*
D03*
X0499561Y0030061D02*
G01*
G75*
D399*
X0479974Y0011655D02*
D03*
X0479974Y0004175D02*
D03*
X0448577Y0011852D02*
D03*
X0448577Y0004372D02*
D03*
D398*
X0350644Y0011951D02*
D03*
X0350644Y0022974D02*
D03*
D406*
X0472297Y0017955D02*
D03*
X0456155Y0017955D02*
D03*
D343*
X0346805Y0006045D02*
D03*
X0353104Y0006045D02*
D03*
X0397691Y0005455D02*
D03*
X0391392Y0005455D02*
D03*
X0436372Y0006045D02*
D03*
X0442671Y0006045D02*
D03*
D404*
X0357671Y0005159D02*
D03*
X0363892Y0005159D02*
D03*
X0442730Y0010573D02*
D03*
X0436510Y0010573D02*
D03*
X0388892Y0025632D02*
D03*
X0382671Y0025632D02*
D03*
D405*
X0432140Y0006774D02*
D03*
X0432140Y0012994D02*
D03*
D107*
X0419246Y0009667D02*
D03*
X0419246Y0014667D02*
D03*
X0419246Y0019667D02*
D03*
X0419246Y0024667D02*
D03*
X0396608Y0009667D02*
D03*
X0396608Y0014667D02*
D03*
X0396608Y0019667D02*
D03*
X0396608Y0024667D02*
D03*
D403*
X0407927Y0017167D02*
D03*
D402*
X0429777Y0020514D02*
D03*
X0445526Y0020514D02*
D03*
D244*
X0345939Y0010081D02*
D03*
X0345939Y0017561D02*
D03*
D400*
X0368557Y0010278D02*
D03*
X0368557Y0021695D02*
D03*
X0385486Y0004175D02*
D03*
X0385486Y0015592D02*
D03*
X0376726Y0021596D02*
D03*
X0376726Y0010179D02*
D03*
X0360486Y0021793D02*
D03*
X0360486Y0010376D02*
D03*
D401*
X0491490Y0006636D02*
D03*
X0491490Y0024352D02*
D03*
D407*
X0427711Y0006734D02*
D03*
X0427711Y0013033D02*
D03*
D35*
X0491490Y0004175D02*
D03*
D90*
X0392868Y0002896D02*
D03*
X0349955Y0002896D02*
D03*
X0491589Y0017856D02*
D03*
X0448774Y0002896D02*
D03*
X0497054Y0002896D02*
D03*
X0332681Y0344592D02*
G01*
G75*
D283*
X0256106Y0339769D02*
D03*
X0256106Y0333076D02*
D03*
X0256106Y0326285D02*
D03*
X0256106Y0319494D02*
D03*
X0330712Y0323135D02*
D03*
X0330736Y0337393D02*
D03*
D142*
X0308075Y0313686D02*
D03*
D287*
X0299709Y0341925D02*
D03*
X0299709Y0339425D02*
D03*
X0299709Y0336925D02*
D03*
X0299709Y0334425D02*
D03*
X0299709Y0331925D02*
D03*
X0299709Y0329425D02*
D03*
X0299709Y0326925D02*
D03*
X0299709Y0324425D02*
D03*
X0320181Y0341925D02*
D03*
X0320181Y0339425D02*
D03*
X0320181Y0336925D02*
D03*
X0320181Y0334425D02*
D03*
X0320181Y0331925D02*
D03*
X0320181Y0329425D02*
D03*
X0320181Y0326925D02*
D03*
X0320181Y0324425D02*
D03*
D343*
X0312110Y0320872D02*
D03*
X0318409Y0320872D02*
D03*
X0312209Y0316246D02*
D03*
X0318508Y0316246D02*
D03*
D421*
X0279039Y0325596D02*
D03*
X0271559Y0325596D02*
D03*
X0266539Y0325596D02*
D03*
X0259059Y0325596D02*
D03*
X0266539Y0318509D02*
D03*
X0259059Y0318509D02*
D03*
X0278941Y0339671D02*
D03*
X0271460Y0339671D02*
D03*
X0266539Y0339671D02*
D03*
X0259059Y0339671D02*
D03*
X0278941Y0332683D02*
D03*
X0271460Y0332683D02*
D03*
X0266539Y0332683D02*
D03*
X0259059Y0332683D02*
D03*
X0279039Y0318509D02*
D03*
X0271559Y0318509D02*
D03*
D399*
X0284846Y0327860D02*
D03*
X0284846Y0320379D02*
D03*
X0291539Y0327860D02*
D03*
X0291539Y0320379D02*
D03*
X0291441Y0340458D02*
D03*
X0291441Y0332978D02*
D03*
X0284748Y0340458D02*
D03*
X0284748Y0332978D02*
D03*
D420*
X0327760Y0330911D02*
D03*
X0327760Y0337604D02*
D03*
X0328252Y0316541D02*
D03*
X0328252Y0323234D02*
D03*
D342*
X0307642Y0320773D02*
D03*
X0301421Y0320773D02*
D03*
X0307740Y0316442D02*
D03*
X0301520Y0316442D02*
D03*
X0459354Y0313386D02*
G01*
G75*
D463*
X0441047Y0296851D02*
D03*
X0441047Y0304331D02*
D03*
D457*
X0450693Y0260728D02*
D03*
X0450693Y0278445D02*
D03*
D407*
X0359059Y0307087D02*
D03*
X0359059Y0300788D02*
D03*
D462*
X0442326Y0309843D02*
D03*
X0449807Y0309843D02*
D03*
D218*
X0446559Y0298032D02*
D03*
X0446559Y0304331D02*
D03*
D460*
X0344590Y0282382D02*
D03*
X0344590Y0278642D02*
D03*
X0344590Y0274902D02*
D03*
X0354039Y0274902D02*
D03*
X0354039Y0278642D02*
D03*
X0354039Y0282382D02*
D03*
X0421756Y0282382D02*
D03*
X0421756Y0278642D02*
D03*
X0421756Y0274902D02*
D03*
X0412307Y0274902D02*
D03*
X0412307Y0278642D02*
D03*
X0412307Y0282382D02*
D03*
X0429236Y0282382D02*
D03*
X0429236Y0278642D02*
D03*
X0429236Y0274902D02*
D03*
X0438685Y0274902D02*
D03*
X0438685Y0278642D02*
D03*
X0438685Y0282382D02*
D03*
X0404826Y0282382D02*
D03*
X0404826Y0278642D02*
D03*
X0404826Y0274902D02*
D03*
X0395378Y0274902D02*
D03*
X0395378Y0278642D02*
D03*
X0395378Y0282382D02*
D03*
X0378449Y0282382D02*
D03*
X0378449Y0278642D02*
D03*
X0378449Y0274902D02*
D03*
X0387897Y0274902D02*
D03*
X0387897Y0278642D02*
D03*
X0387897Y0282382D02*
D03*
X0370968Y0282382D02*
D03*
X0370968Y0278642D02*
D03*
X0370968Y0274902D02*
D03*
X0361519Y0274902D02*
D03*
X0361519Y0278642D02*
D03*
X0361519Y0282382D02*
D03*
D461*
X0344885Y0307776D02*
D03*
X0344885Y0300689D02*
D03*
X0354925Y0300689D02*
D03*
X0354925Y0307776D02*
D03*
X0419984Y0307776D02*
D03*
X0419984Y0300689D02*
D03*
X0409945Y0300689D02*
D03*
X0409945Y0307776D02*
D03*
X0424511Y0307776D02*
D03*
X0424511Y0300689D02*
D03*
X0434551Y0300689D02*
D03*
X0434551Y0307776D02*
D03*
X0404925Y0307776D02*
D03*
X0404925Y0300689D02*
D03*
X0394886Y0300689D02*
D03*
X0394886Y0307776D02*
D03*
X0378055Y0307776D02*
D03*
X0378055Y0300689D02*
D03*
X0388094Y0300689D02*
D03*
X0388094Y0307776D02*
D03*
X0373133Y0307776D02*
D03*
X0373133Y0300689D02*
D03*
X0363094Y0300689D02*
D03*
X0363094Y0307776D02*
D03*
X0410043Y0293996D02*
D03*
X0410043Y0286910D02*
D03*
X0420082Y0286910D02*
D03*
X0420082Y0293996D02*
D03*
X0436027Y0293996D02*
D03*
X0436027Y0286910D02*
D03*
X0425988Y0286910D02*
D03*
X0425988Y0293996D02*
D03*
X0394787Y0293996D02*
D03*
X0394787Y0286910D02*
D03*
X0404826Y0286910D02*
D03*
X0404826Y0293996D02*
D03*
X0388094Y0293996D02*
D03*
X0388094Y0286910D02*
D03*
X0378055Y0286910D02*
D03*
X0378055Y0293996D02*
D03*
X0362799Y0293996D02*
D03*
X0362799Y0286910D02*
D03*
X0372838Y0286910D02*
D03*
X0372838Y0293996D02*
D03*
X0355417Y0293898D02*
D03*
X0355417Y0286811D02*
D03*
X0345378Y0286811D02*
D03*
X0345378Y0293898D02*
D03*
D459*
X0351480Y0300689D02*
D03*
X0348330Y0300689D02*
D03*
X0348330Y0307776D02*
D03*
X0351480Y0307776D02*
D03*
X0416539Y0307776D02*
D03*
X0413389Y0307776D02*
D03*
X0413389Y0300689D02*
D03*
X0416539Y0300689D02*
D03*
X0431106Y0300689D02*
D03*
X0427956Y0300689D02*
D03*
X0427956Y0307776D02*
D03*
X0431106Y0307776D02*
D03*
X0401480Y0307776D02*
D03*
X0398330Y0307776D02*
D03*
X0398330Y0300689D02*
D03*
X0401480Y0300689D02*
D03*
X0384649Y0300689D02*
D03*
X0381500Y0300689D02*
D03*
X0381500Y0307776D02*
D03*
X0384649Y0307776D02*
D03*
X0369689Y0307776D02*
D03*
X0366539Y0307776D02*
D03*
X0366539Y0300689D02*
D03*
X0369689Y0300689D02*
D03*
X0416637Y0286910D02*
D03*
X0413488Y0286910D02*
D03*
X0413488Y0293996D02*
D03*
X0416637Y0293996D02*
D03*
X0432582Y0293996D02*
D03*
X0429433Y0293996D02*
D03*
X0429433Y0286910D02*
D03*
X0432582Y0286910D02*
D03*
X0401381Y0286910D02*
D03*
X0398232Y0286910D02*
D03*
X0398232Y0293996D02*
D03*
X0401381Y0293996D02*
D03*
X0384649Y0293996D02*
D03*
X0381500Y0293996D02*
D03*
X0381500Y0286910D02*
D03*
X0384649Y0286910D02*
D03*
X0369393Y0286910D02*
D03*
X0366244Y0286910D02*
D03*
X0366244Y0293996D02*
D03*
X0369393Y0293996D02*
D03*
X0351972Y0293898D02*
D03*
X0348823Y0293898D02*
D03*
X0348823Y0286811D02*
D03*
X0351972Y0286811D02*
D03*
D405*
X0340850Y0307638D02*
D03*
X0340850Y0301417D02*
D03*
X0375397Y0266201D02*
D03*
X0375397Y0259980D02*
D03*
X0379728Y0259980D02*
D03*
X0379728Y0266201D02*
D03*
X0384059Y0266201D02*
D03*
X0384059Y0259980D02*
D03*
X0388389Y0259980D02*
D03*
X0388389Y0266201D02*
D03*
X0371067Y0266201D02*
D03*
X0371067Y0259980D02*
D03*
X0366736Y0259980D02*
D03*
X0366736Y0266201D02*
D03*
X0362405Y0266201D02*
D03*
X0362405Y0259980D02*
D03*
X0358075Y0259980D02*
D03*
X0358075Y0266201D02*
D03*
X0405712Y0266201D02*
D03*
X0405712Y0259980D02*
D03*
X0401381Y0259980D02*
D03*
X0401381Y0266201D02*
D03*
X0397051Y0266201D02*
D03*
X0397051Y0259980D02*
D03*
X0392720Y0259980D02*
D03*
X0392720Y0266201D02*
D03*
X0440358Y0266201D02*
D03*
X0440358Y0259980D02*
D03*
X0436027Y0259980D02*
D03*
X0436027Y0266201D02*
D03*
X0431697Y0266201D02*
D03*
X0431697Y0259980D02*
D03*
X0427366Y0259980D02*
D03*
X0427366Y0266201D02*
D03*
X0423035Y0266201D02*
D03*
X0423035Y0259980D02*
D03*
X0418704Y0259980D02*
D03*
X0418704Y0266201D02*
D03*
X0414374Y0266201D02*
D03*
X0414374Y0259980D02*
D03*
X0410043Y0259980D02*
D03*
X0410043Y0266201D02*
D03*
X0340850Y0294252D02*
D03*
X0340850Y0288032D02*
D03*
X0353744Y0266201D02*
D03*
X0353744Y0259980D02*
D03*
X0349413Y0259980D02*
D03*
X0349413Y0266201D02*
D03*
X0345082Y0266201D02*
D03*
X0345082Y0259980D02*
D03*
X0340752Y0259980D02*
D03*
X0340752Y0266201D02*
D03*
D458*
X0456795Y0299114D02*
D03*
X0450496Y0299114D02*
D03*
X0450496Y0303642D02*
D03*
X0456795Y0303642D02*
D03*
X0449511Y0290158D02*
D03*
X0455811Y0290158D02*
D03*
X0449511Y0285532D02*
D03*
X0455811Y0285532D02*
D03*
D399*
X0444197Y0284646D02*
D03*
X0444197Y0292126D02*
D03*
D404*
X0456559Y0294587D02*
D03*
X0450338Y0294587D02*
D03*
X0003055Y0173466D02*
G01*
G75*
D283*
X0074512Y0178092D02*
D03*
X0074512Y0180848D02*
D03*
X0074512Y0184293D02*
D03*
X0004335Y0176320D02*
D03*
X0004335Y0185769D02*
D03*
D175*
X0050398Y0181793D02*
D03*
X0050398Y0175572D02*
D03*
X0055713Y0177442D02*
D03*
X0055713Y0183663D02*
D03*
X0045870Y0175572D02*
D03*
X0045870Y0181793D02*
D03*
X0006008Y0182580D02*
D03*
X0006008Y0176360D02*
D03*
X0036913Y0175868D02*
D03*
X0036913Y0182088D02*
D03*
D263*
X0069689Y0183997D02*
D03*
X0069689Y0176517D02*
D03*
X0061224Y0176517D02*
D03*
X0061224Y0180257D02*
D03*
X0026323Y0184490D02*
D03*
X0026323Y0177009D02*
D03*
X0017858Y0177009D02*
D03*
X0017858Y0180749D02*
D03*
D263*
X0061224Y0183997D02*
D03*
X0017858Y0184490D02*
D03*
D151*
X0053941Y0186557D02*
D03*
X0047642Y0186557D02*
D03*
X0043902Y0187344D02*
D03*
X0037602Y0187344D02*
D03*
D290*
X0041441Y0183210D02*
D03*
X0041441Y0176911D02*
D03*
X0012110Y0183210D02*
D03*
X0012110Y0176911D02*
D03*
X0031992Y0183210D02*
D03*
X0031992Y0176911D02*
D03*
X0233173Y0337251D02*
G01*
G75*
D517*
X0170397Y0293157D02*
D03*
X0161145Y0296897D02*
D03*
X0165082Y0317468D02*
D03*
X0174334Y0313727D02*
D03*
D517*
X0170397Y0300637D02*
D03*
X0174334Y0321208D02*
D03*
D516*
X0164078Y0311778D02*
D03*
X0160338Y0302527D02*
D03*
X0162405Y0209967D02*
D03*
X0166146Y0219219D02*
D03*
X0205516Y0324574D02*
D03*
X0209256Y0333826D02*
D03*
X0223232Y0333826D02*
D03*
X0219492Y0324574D02*
D03*
X0195673Y0333826D02*
D03*
X0191933Y0324574D02*
D03*
X0183173Y0301089D02*
D03*
X0179433Y0291837D02*
D03*
X0216145Y0305873D02*
D03*
X0212405Y0296621D02*
D03*
D516*
X0156598Y0311778D02*
D03*
X0169886Y0209967D02*
D03*
X0212996Y0324574D02*
D03*
X0226972Y0324574D02*
D03*
X0199413Y0324574D02*
D03*
X0175693Y0301089D02*
D03*
X0219886Y0296621D02*
D03*
D407*
X0156205Y0301326D02*
D03*
X0156205Y0295027D02*
D03*
X0169492Y0304180D02*
D03*
X0169492Y0310479D02*
D03*
X0126382Y0206778D02*
D03*
X0126382Y0200479D02*
D03*
X0147346Y0203786D02*
D03*
X0147346Y0210086D02*
D03*
X0142720Y0214908D02*
D03*
X0142720Y0208609D02*
D03*
D197*
X0195667Y0333949D02*
D03*
X0139072Y0333949D02*
D03*
X0134128Y0333949D02*
D03*
D160*
X0231317Y0320184D02*
D03*
D514*
X0156008Y0321306D02*
D03*
X0156008Y0332724D02*
D03*
D515*
X0154433Y0226464D02*
D03*
X0172543Y0226464D02*
D03*
X0154433Y0284731D02*
D03*
X0172543Y0284731D02*
D03*
X0145181Y0284731D02*
D03*
X0127071Y0284731D02*
D03*
X0145181Y0226464D02*
D03*
X0127071Y0226464D02*
D03*
X0181795Y0226464D02*
D03*
X0199905Y0226464D02*
D03*
X0227267Y0226464D02*
D03*
X0209157Y0226464D02*
D03*
X0200299Y0284731D02*
D03*
X0182189Y0284731D02*
D03*
X0209945Y0284731D02*
D03*
X0228055Y0284731D02*
D03*
D521*
X0163488Y0226464D02*
D03*
X0163488Y0284731D02*
D03*
X0136126Y0284731D02*
D03*
X0136126Y0226464D02*
D03*
X0190850Y0226464D02*
D03*
X0218212Y0226464D02*
D03*
X0191244Y0284731D02*
D03*
X0219000Y0284731D02*
D03*
D520*
X0163488Y0250873D02*
D03*
X0163488Y0260322D02*
D03*
X0136126Y0260322D02*
D03*
X0136126Y0250873D02*
D03*
X0190850Y0250873D02*
D03*
X0218212Y0250873D02*
D03*
X0191244Y0260322D02*
D03*
X0219000Y0260322D02*
D03*
D519*
X0201579Y0260223D02*
D03*
X0208665Y0260223D02*
D03*
X0208665Y0250184D02*
D03*
X0201579Y0250184D02*
D03*
X0222543Y0213668D02*
D03*
X0229630Y0213668D02*
D03*
X0229630Y0203629D02*
D03*
X0222543Y0203629D02*
D03*
X0145870Y0250676D02*
D03*
X0152957Y0250676D02*
D03*
X0152957Y0260716D02*
D03*
X0145870Y0260716D02*
D03*
D518*
X0201579Y0256779D02*
D03*
X0201579Y0253629D02*
D03*
X0208665Y0253629D02*
D03*
X0208665Y0256779D02*
D03*
X0222543Y0210223D02*
D03*
X0222543Y0207074D02*
D03*
X0229630Y0207074D02*
D03*
X0229630Y0210223D02*
D03*
X0152957Y0257271D02*
D03*
X0152957Y0254121D02*
D03*
X0145870Y0254121D02*
D03*
X0145870Y0257271D02*
D03*
D258*
X0227740Y0193590D02*
D03*
X0222740Y0193590D02*
D03*
X0217740Y0193590D02*
D03*
X0212740Y0193590D02*
D03*
X0207740Y0193590D02*
D03*
X0202740Y0193590D02*
D03*
X0197740Y0193590D02*
D03*
X0192740Y0193590D02*
D03*
X0227740Y0174692D02*
D03*
X0222740Y0174692D02*
D03*
X0217740Y0174692D02*
D03*
X0212740Y0174692D02*
D03*
X0207740Y0174692D02*
D03*
X0202740Y0174692D02*
D03*
X0197740Y0174692D02*
D03*
X0192740Y0174692D02*
D03*
X0151303Y0174495D02*
D03*
X0156303Y0174495D02*
D03*
X0161303Y0174495D02*
D03*
X0166303Y0174495D02*
D03*
X0171303Y0174495D02*
D03*
X0176303Y0174495D02*
D03*
X0181303Y0174495D02*
D03*
X0186303Y0174495D02*
D03*
X0151303Y0193393D02*
D03*
X0156303Y0193393D02*
D03*
X0161303Y0193393D02*
D03*
X0166303Y0193393D02*
D03*
X0171303Y0193393D02*
D03*
X0176303Y0193393D02*
D03*
X0181303Y0193393D02*
D03*
X0186303Y0193393D02*
D03*
X0144708Y0193393D02*
D03*
X0139708Y0193393D02*
D03*
X0134708Y0193393D02*
D03*
X0129708Y0193393D02*
D03*
X0144708Y0174495D02*
D03*
X0139708Y0174495D02*
D03*
X0134708Y0174495D02*
D03*
X0129708Y0174495D02*
D03*
D241*
X0147149Y0318570D02*
D03*
X0147149Y0323570D02*
D03*
X0147149Y0328570D02*
D03*
X0147149Y0333570D02*
D03*
X0128251Y0318570D02*
D03*
X0128251Y0323570D02*
D03*
X0128251Y0328570D02*
D03*
X0128251Y0333570D02*
D03*
X0130023Y0311719D02*
D03*
X0130023Y0306720D02*
D03*
X0130023Y0301720D02*
D03*
X0130023Y0296719D02*
D03*
X0148921Y0311719D02*
D03*
X0148921Y0306720D02*
D03*
X0148921Y0301720D02*
D03*
X0148921Y0296719D02*
D03*
D399*
X0228252Y0312192D02*
D03*
X0228252Y0319672D02*
D03*
X0221362Y0319672D02*
D03*
X0221362Y0312192D02*
D03*
X0214472Y0312192D02*
D03*
X0214472Y0319672D02*
D03*
X0207582Y0319672D02*
D03*
X0207582Y0312192D02*
D03*
X0200693Y0312192D02*
D03*
X0200693Y0319672D02*
D03*
X0193803Y0319672D02*
D03*
X0193803Y0312192D02*
D03*
X0186913Y0312192D02*
D03*
X0186913Y0319672D02*
D03*
X0180023Y0319672D02*
D03*
X0180023Y0312192D02*
D03*
X0167523Y0333944D02*
D03*
X0167523Y0326464D02*
D03*
X0174708Y0326365D02*
D03*
X0174708Y0333846D02*
D03*
D522*
X0189767Y0305893D02*
D03*
X0189767Y0292901D02*
D03*
X0226972Y0293294D02*
D03*
X0226972Y0306286D02*
D03*
X0205811Y0305893D02*
D03*
X0205811Y0292901D02*
D03*
X0197642Y0292901D02*
D03*
X0197642Y0305893D02*
D03*
D343*
X0180220Y0326267D02*
D03*
X0186519Y0326267D02*
D03*
X0186618Y0331877D02*
D03*
X0180319Y0331877D02*
D03*
X0182681Y0305302D02*
D03*
X0176382Y0305302D02*
D03*
X0151806Y0216231D02*
D03*
X0158105Y0216231D02*
D03*
X0211815Y0291916D02*
D03*
X0218114Y0291916D02*
D03*
D462*
X0138783Y0201759D02*
D03*
X0131303Y0201759D02*
D03*
X0501677Y0183602D02*
G01*
G75*
D54*
X0499118Y0182518D02*
D03*
X0494492Y0182518D02*
D03*
X0471362Y0182518D02*
D03*
X0474354Y0182518D02*
D03*
X0478980Y0182518D02*
D03*
X0489866Y0182518D02*
D03*
X0483606Y0182518D02*
D03*
X0486913Y0182518D02*
D03*
D15*
X0474629Y0164901D02*
D03*
X0474629Y0162342D02*
D03*
X0474629Y0159783D02*
D03*
X0474629Y0157224D02*
D03*
X0474629Y0154665D02*
D03*
X0474629Y0152106D02*
D03*
X0474629Y0149547D02*
D03*
X0474629Y0146988D02*
D03*
X0474629Y0144429D02*
D03*
X0474629Y0141870D02*
D03*
X0474629Y0139311D02*
D03*
X0474629Y0136752D02*
D03*
X0497622Y0164901D02*
D03*
X0497622Y0162342D02*
D03*
X0497622Y0159783D02*
D03*
X0497622Y0157224D02*
D03*
X0497622Y0154665D02*
D03*
X0497622Y0152106D02*
D03*
X0497622Y0149547D02*
D03*
X0497622Y0146988D02*
D03*
X0497622Y0144429D02*
D03*
X0497622Y0141870D02*
D03*
X0497622Y0139311D02*
D03*
X0497622Y0136752D02*
D03*
D342*
X0497602Y0132815D02*
D03*
X0491381Y0132815D02*
D03*
X0480850Y0132815D02*
D03*
X0487071Y0132815D02*
D03*
D458*
X0478842Y0170019D02*
D03*
X0472543Y0170019D02*
D03*
X0491834Y0170413D02*
D03*
X0485535Y0170413D02*
D03*
D532*
X0483759Y0181043D02*
D03*
X0483759Y0174744D02*
D03*
X0490082Y0174744D02*
D03*
X0490082Y0181043D02*
D03*
X0494708Y0181043D02*
D03*
X0494708Y0174744D02*
D03*
X0474531Y0174842D02*
D03*
X0474531Y0181141D02*
D03*
X0499334Y0174744D02*
D03*
X0499334Y0181043D02*
D03*
X0479137Y0174744D02*
D03*
X0479137Y0181043D02*
D03*
D90*
X0495378Y0134094D02*
D03*
X0479334Y0135275D02*
D03*
X0472051Y0162342D02*
D03*
X0477208Y0159783D02*
D03*
X0478980Y0153385D02*
D03*
X0472051Y0154665D02*
D03*
X0479275Y0150039D02*
D03*
X0480122Y0146594D02*
D03*
X0472051Y0144429D02*
D03*
X0479275Y0142756D02*
D03*
X0459748Y0228043D02*
G01*
G75*
D343*
X0348921Y0210720D02*
D03*
X0355221Y0210720D02*
D03*
X0376874Y0200779D02*
D03*
X0383173Y0200779D02*
D03*
X0294591Y0151075D02*
D03*
X0300890Y0151075D02*
D03*
X0341489Y0087386D02*
D03*
X0335189Y0087386D02*
D03*
X0288685Y0151271D02*
D03*
X0282386Y0151271D02*
D03*
X0286716Y0156783D02*
D03*
X0280417Y0156783D02*
D03*
X0420870Y0178338D02*
D03*
X0427169Y0178338D02*
D03*
X0281106Y0107866D02*
D03*
X0287405Y0107866D02*
D03*
D608*
X0316815Y0226271D02*
D03*
D607*
X0299217Y0127059D02*
D03*
X0302957Y0127059D02*
D03*
X0306697Y0127059D02*
D03*
X0306697Y0117610D02*
D03*
X0302957Y0117610D02*
D03*
X0299217Y0117610D02*
D03*
D404*
X0372504Y0200189D02*
D03*
X0366283Y0200189D02*
D03*
X0297583Y0207964D02*
D03*
X0303803Y0207964D02*
D03*
X0300339Y0099303D02*
D03*
X0306559Y0099303D02*
D03*
X0290791Y0158161D02*
D03*
X0297012Y0158161D02*
D03*
X0391362Y0200189D02*
D03*
X0397583Y0200189D02*
D03*
X0324551Y0195858D02*
D03*
X0330772Y0195858D02*
D03*
X0411461Y0092610D02*
D03*
X0417681Y0092610D02*
D03*
X0295221Y0132866D02*
D03*
X0301441Y0132866D02*
D03*
X0402307Y0200287D02*
D03*
X0408528Y0200287D02*
D03*
X0349354Y0204618D02*
D03*
X0355575Y0204618D02*
D03*
X0402031Y0093004D02*
D03*
X0395811Y0093004D02*
D03*
X0368252Y0092216D02*
D03*
X0374472Y0092216D02*
D03*
X0350043Y0087787D02*
D03*
X0356264Y0087787D02*
D03*
X0346717Y0195956D02*
D03*
X0340496Y0195956D02*
D03*
X0428311Y0129520D02*
D03*
X0422091Y0129520D02*
D03*
X0420909Y0173811D02*
D03*
X0427130Y0173811D02*
D03*
D532*
X0306205Y0150287D02*
D03*
X0306205Y0143988D02*
D03*
X0312602Y0090149D02*
D03*
X0312602Y0096449D02*
D03*
X0319223Y0091429D02*
D03*
X0319223Y0085130D02*
D03*
X0289571Y0092807D02*
D03*
X0289571Y0086508D02*
D03*
X0280516Y0103634D02*
D03*
X0280516Y0097334D02*
D03*
X0280516Y0093496D02*
D03*
X0280516Y0087197D02*
D03*
X0285142Y0102059D02*
D03*
X0285142Y0095760D02*
D03*
X0421165Y0162000D02*
D03*
X0421165Y0168299D02*
D03*
D229*
X0405516Y0108752D02*
D03*
X0405516Y0110720D02*
D03*
X0405516Y0112689D02*
D03*
X0405516Y0114657D02*
D03*
X0405516Y0116626D02*
D03*
X0405516Y0118594D02*
D03*
X0405516Y0120563D02*
D03*
X0405516Y0122531D02*
D03*
X0405516Y0124500D02*
D03*
X0405516Y0126468D02*
D03*
X0405516Y0128437D02*
D03*
X0405516Y0130405D02*
D03*
X0405516Y0132374D02*
D03*
X0405516Y0134342D02*
D03*
X0405516Y0136311D02*
D03*
X0405516Y0138279D02*
D03*
X0405516Y0140248D02*
D03*
X0405516Y0142216D02*
D03*
X0405516Y0144185D02*
D03*
X0405516Y0146153D02*
D03*
X0405516Y0148122D02*
D03*
X0405516Y0150090D02*
D03*
X0405516Y0152059D02*
D03*
X0405516Y0154027D02*
D03*
X0405516Y0155996D02*
D03*
X0405516Y0157964D02*
D03*
X0405516Y0159933D02*
D03*
X0405516Y0161901D02*
D03*
X0405516Y0163870D02*
D03*
X0405516Y0165838D02*
D03*
X0405516Y0167807D02*
D03*
X0405516Y0169775D02*
D03*
X0405516Y0171744D02*
D03*
X0405516Y0173712D02*
D03*
X0405516Y0175681D02*
D03*
X0405516Y0177649D02*
D03*
X0321854Y0177649D02*
D03*
X0321854Y0175681D02*
D03*
X0321854Y0173712D02*
D03*
X0321854Y0171744D02*
D03*
X0321854Y0169775D02*
D03*
X0321854Y0167807D02*
D03*
X0321854Y0165838D02*
D03*
X0321854Y0163870D02*
D03*
X0321854Y0161901D02*
D03*
X0321854Y0159933D02*
D03*
X0321854Y0157964D02*
D03*
X0321854Y0155996D02*
D03*
X0321854Y0154027D02*
D03*
X0321854Y0152059D02*
D03*
X0321854Y0150090D02*
D03*
X0321854Y0148122D02*
D03*
X0321854Y0146153D02*
D03*
X0321854Y0144185D02*
D03*
X0321854Y0142216D02*
D03*
X0321854Y0140248D02*
D03*
X0321854Y0138279D02*
D03*
X0321854Y0136311D02*
D03*
X0321854Y0134342D02*
D03*
X0321854Y0132374D02*
D03*
X0321854Y0130405D02*
D03*
X0321854Y0128437D02*
D03*
X0321854Y0126468D02*
D03*
X0321854Y0124500D02*
D03*
X0321854Y0122531D02*
D03*
X0321854Y0120563D02*
D03*
X0321854Y0118594D02*
D03*
X0321854Y0116626D02*
D03*
X0321854Y0114657D02*
D03*
X0321854Y0112689D02*
D03*
X0321854Y0110720D02*
D03*
X0321854Y0108752D02*
D03*
D330*
X0398134Y0185031D02*
D03*
X0396165Y0185031D02*
D03*
X0394197Y0185031D02*
D03*
X0392228Y0185031D02*
D03*
X0390260Y0185031D02*
D03*
X0388291Y0185031D02*
D03*
X0386323Y0185031D02*
D03*
X0384354Y0185031D02*
D03*
X0382386Y0185031D02*
D03*
X0380417Y0185031D02*
D03*
X0378449Y0185031D02*
D03*
X0376480Y0185031D02*
D03*
X0374512Y0185031D02*
D03*
X0372543Y0185031D02*
D03*
X0370575Y0185031D02*
D03*
X0368606Y0185031D02*
D03*
X0366638Y0185031D02*
D03*
X0364669Y0185031D02*
D03*
X0362701Y0185031D02*
D03*
X0360732Y0185031D02*
D03*
X0358764Y0185031D02*
D03*
X0356795Y0185031D02*
D03*
X0354827Y0185031D02*
D03*
X0352858Y0185031D02*
D03*
X0350890Y0185031D02*
D03*
X0348921Y0185031D02*
D03*
X0346953Y0185031D02*
D03*
X0344984Y0185031D02*
D03*
X0343016Y0185031D02*
D03*
X0341047Y0185031D02*
D03*
X0339079Y0185031D02*
D03*
X0337110Y0185031D02*
D03*
X0335142Y0185031D02*
D03*
X0333173Y0185031D02*
D03*
X0331205Y0185031D02*
D03*
X0329236Y0185031D02*
D03*
X0329236Y0101370D02*
D03*
X0331205Y0101370D02*
D03*
X0333173Y0101370D02*
D03*
X0335142Y0101370D02*
D03*
X0337110Y0101370D02*
D03*
X0339079Y0101370D02*
D03*
X0341047Y0101370D02*
D03*
X0343016Y0101370D02*
D03*
X0344984Y0101370D02*
D03*
X0346953Y0101370D02*
D03*
X0348921Y0101370D02*
D03*
X0350890Y0101370D02*
D03*
X0352858Y0101370D02*
D03*
X0354827Y0101370D02*
D03*
X0356795Y0101370D02*
D03*
X0358764Y0101370D02*
D03*
X0360732Y0101370D02*
D03*
X0362701Y0101370D02*
D03*
X0364669Y0101370D02*
D03*
X0366638Y0101370D02*
D03*
X0368606Y0101370D02*
D03*
X0370575Y0101370D02*
D03*
X0372543Y0101370D02*
D03*
X0374512Y0101370D02*
D03*
X0376480Y0101370D02*
D03*
X0378449Y0101370D02*
D03*
X0380417Y0101370D02*
D03*
X0382386Y0101370D02*
D03*
X0384354Y0101370D02*
D03*
X0386323Y0101370D02*
D03*
X0388291Y0101370D02*
D03*
X0390260Y0101370D02*
D03*
X0392228Y0101370D02*
D03*
X0394197Y0101370D02*
D03*
X0396165Y0101370D02*
D03*
X0398134Y0101370D02*
D03*
D599*
X0386913Y0203830D02*
D03*
X0386913Y0199893D02*
D03*
D600*
X0291835Y0165051D02*
D03*
D601*
X0282779Y0189460D02*
D03*
X0300890Y0189460D02*
D03*
D602*
X0291835Y0189460D02*
D03*
D59*
X0308764Y0222728D02*
D03*
X0308764Y0220169D02*
D03*
X0308764Y0217610D02*
D03*
X0308764Y0215051D02*
D03*
X0308764Y0212492D02*
D03*
X0308764Y0209933D02*
D03*
X0308764Y0207374D02*
D03*
X0331205Y0222728D02*
D03*
X0331205Y0220169D02*
D03*
X0331205Y0217610D02*
D03*
X0331205Y0215051D02*
D03*
X0331205Y0212492D02*
D03*
X0331205Y0209933D02*
D03*
X0331205Y0207374D02*
D03*
X0432779Y0188378D02*
D03*
X0432779Y0185819D02*
D03*
X0432779Y0183260D02*
D03*
X0432779Y0180700D02*
D03*
X0432779Y0178141D02*
D03*
X0432779Y0175582D02*
D03*
X0432779Y0173023D02*
D03*
X0455221Y0188378D02*
D03*
X0455221Y0185819D02*
D03*
X0455221Y0183260D02*
D03*
X0455221Y0180700D02*
D03*
X0455221Y0178141D02*
D03*
X0455221Y0175582D02*
D03*
X0455221Y0173023D02*
D03*
X0433272Y0143397D02*
D03*
X0433272Y0140838D02*
D03*
X0433272Y0138279D02*
D03*
X0433272Y0135720D02*
D03*
X0433272Y0133161D02*
D03*
X0433272Y0130602D02*
D03*
X0433272Y0128043D02*
D03*
X0455713Y0143397D02*
D03*
X0455713Y0140838D02*
D03*
X0455713Y0138279D02*
D03*
X0455713Y0135720D02*
D03*
X0455713Y0133161D02*
D03*
X0455713Y0130602D02*
D03*
X0455713Y0128043D02*
D03*
X0427464Y0207374D02*
D03*
X0427464Y0209933D02*
D03*
X0427464Y0212492D02*
D03*
X0427464Y0215051D02*
D03*
X0427464Y0217610D02*
D03*
X0427464Y0220169D02*
D03*
X0427464Y0222728D02*
D03*
X0405024Y0207374D02*
D03*
X0405024Y0209933D02*
D03*
X0405024Y0212492D02*
D03*
X0405024Y0215051D02*
D03*
X0405024Y0217610D02*
D03*
X0405024Y0220169D02*
D03*
X0405024Y0222728D02*
D03*
X0383173Y0207374D02*
D03*
X0383173Y0209933D02*
D03*
X0383173Y0212492D02*
D03*
X0383173Y0215051D02*
D03*
X0383173Y0217610D02*
D03*
X0383173Y0220169D02*
D03*
X0383173Y0222728D02*
D03*
X0360732Y0207374D02*
D03*
X0360732Y0209933D02*
D03*
X0360732Y0212492D02*
D03*
X0360732Y0215051D02*
D03*
X0360732Y0217610D02*
D03*
X0360732Y0220169D02*
D03*
X0360732Y0222728D02*
D03*
X0433075Y0222728D02*
D03*
X0433075Y0220169D02*
D03*
X0433075Y0217610D02*
D03*
X0433075Y0215051D02*
D03*
X0433075Y0212492D02*
D03*
X0433075Y0209933D02*
D03*
X0433075Y0207374D02*
D03*
X0455516Y0222728D02*
D03*
X0455516Y0220169D02*
D03*
X0455516Y0217610D02*
D03*
X0455516Y0215051D02*
D03*
X0455516Y0212492D02*
D03*
X0455516Y0209933D02*
D03*
X0455516Y0207374D02*
D03*
D405*
X0294098Y0093555D02*
D03*
X0294098Y0087334D02*
D03*
X0280319Y0198555D02*
D03*
X0280319Y0204775D02*
D03*
X0310142Y0103575D02*
D03*
X0310142Y0109795D02*
D03*
X0422445Y0138220D02*
D03*
X0422445Y0144441D02*
D03*
X0303547Y0104657D02*
D03*
X0303547Y0110878D02*
D03*
X0337405Y0214303D02*
D03*
X0337405Y0220523D02*
D03*
X0302957Y0212826D02*
D03*
X0302957Y0219047D02*
D03*
X0298527Y0219047D02*
D03*
X0298527Y0212827D02*
D03*
X0447248Y0155563D02*
D03*
X0447248Y0149342D02*
D03*
X0426972Y0138220D02*
D03*
X0426972Y0144441D02*
D03*
X0422346Y0182905D02*
D03*
X0422346Y0189126D02*
D03*
X0301382Y0161862D02*
D03*
X0301382Y0155641D02*
D03*
X0427169Y0183004D02*
D03*
X0427169Y0189224D02*
D03*
X0440752Y0195405D02*
D03*
X0440752Y0201626D02*
D03*
X0454335Y0149441D02*
D03*
X0454335Y0155661D02*
D03*
X0312110Y0140779D02*
D03*
X0312110Y0147000D02*
D03*
X0305713Y0166881D02*
D03*
X0305713Y0160661D02*
D03*
X0425988Y0162138D02*
D03*
X0425988Y0168358D02*
D03*
X0421264Y0115307D02*
D03*
X0421264Y0109086D02*
D03*
D420*
X0281303Y0146350D02*
D03*
X0281303Y0139657D02*
D03*
X0294787Y0139559D02*
D03*
X0294787Y0146252D02*
D03*
X0287602Y0146350D02*
D03*
X0287602Y0139657D02*
D03*
X0300516Y0139362D02*
D03*
X0300516Y0146055D02*
D03*
D248*
X0286520Y0197236D02*
D03*
X0286520Y0204716D02*
D03*
D517*
X0307898Y0086704D02*
D03*
X0298646Y0090444D02*
D03*
D517*
X0307898Y0094185D02*
D03*
D46*
X0426579Y0152944D02*
D03*
X0441146Y0152944D02*
D03*
D461*
X0290752Y0219874D02*
D03*
X0290752Y0212787D02*
D03*
X0280713Y0212787D02*
D03*
X0280713Y0219874D02*
D03*
X0292130Y0203338D02*
D03*
X0292130Y0196252D02*
D03*
X0302169Y0196252D02*
D03*
X0302169Y0203338D02*
D03*
X0440358Y0168890D02*
D03*
X0440358Y0161803D02*
D03*
X0430319Y0161803D02*
D03*
X0430319Y0168890D02*
D03*
X0445575Y0168889D02*
D03*
X0445575Y0161803D02*
D03*
X0455614Y0161803D02*
D03*
X0455614Y0168889D02*
D03*
X0436421Y0202256D02*
D03*
X0436421Y0195169D02*
D03*
X0426382Y0195169D02*
D03*
X0426382Y0202256D02*
D03*
X0445083Y0202256D02*
D03*
X0445083Y0195169D02*
D03*
X0455122Y0195169D02*
D03*
X0455122Y0202256D02*
D03*
X0440161Y0123712D02*
D03*
X0440161Y0116626D02*
D03*
X0430122Y0116626D02*
D03*
X0430122Y0123712D02*
D03*
X0307976Y0203043D02*
D03*
X0307976Y0195956D02*
D03*
X0318016Y0195956D02*
D03*
X0318016Y0203043D02*
D03*
X0455516Y0123712D02*
D03*
X0455516Y0116626D02*
D03*
X0445476Y0116626D02*
D03*
X0445476Y0123712D02*
D03*
X0400595Y0204519D02*
D03*
X0400595Y0211606D02*
D03*
X0390555Y0211606D02*
D03*
X0390555Y0204519D02*
D03*
X0389374Y0222826D02*
D03*
X0389374Y0215740D02*
D03*
X0399413Y0215740D02*
D03*
X0399413Y0222826D02*
D03*
D459*
X0287307Y0219874D02*
D03*
X0284157Y0219874D02*
D03*
X0284157Y0212787D02*
D03*
X0287307Y0212787D02*
D03*
X0298724Y0196252D02*
D03*
X0295575Y0196252D02*
D03*
X0295575Y0203338D02*
D03*
X0298724Y0203338D02*
D03*
X0436913Y0168890D02*
D03*
X0433764Y0168890D02*
D03*
X0433764Y0161803D02*
D03*
X0436913Y0161803D02*
D03*
X0452169Y0161803D02*
D03*
X0449020Y0161803D02*
D03*
X0449020Y0168889D02*
D03*
X0452169Y0168889D02*
D03*
X0432976Y0202256D02*
D03*
X0429827Y0202256D02*
D03*
X0429827Y0195169D02*
D03*
X0432976Y0195169D02*
D03*
X0451677Y0195169D02*
D03*
X0448527Y0195169D02*
D03*
X0448527Y0202256D02*
D03*
X0451677Y0202256D02*
D03*
X0436716Y0123712D02*
D03*
X0433567Y0123712D02*
D03*
X0433567Y0116626D02*
D03*
X0436716Y0116626D02*
D03*
X0314571Y0195956D02*
D03*
X0311421Y0195956D02*
D03*
X0311421Y0203043D02*
D03*
X0314571Y0203043D02*
D03*
X0452071Y0123712D02*
D03*
X0448921Y0123712D02*
D03*
X0448921Y0116626D02*
D03*
X0452071Y0116626D02*
D03*
X0394000Y0211606D02*
D03*
X0397150Y0211606D02*
D03*
X0397150Y0204519D02*
D03*
X0394000Y0204519D02*
D03*
X0395968Y0215740D02*
D03*
X0392819Y0215740D02*
D03*
X0392819Y0222826D02*
D03*
X0395968Y0222826D02*
D03*
D603*
X0294591Y0098122D02*
D03*
X0294591Y0111114D02*
D03*
D341*
X0417130Y0202964D02*
D03*
X0413390Y0193712D02*
D03*
D341*
X0420870Y0193712D02*
D03*
D606*
X0354630Y0224795D02*
D03*
X0347543Y0224795D02*
D03*
X0347543Y0214756D02*
D03*
X0354630Y0214756D02*
D03*
X0344394Y0209933D02*
D03*
X0337307Y0209933D02*
D03*
X0337307Y0199893D02*
D03*
X0344394Y0199893D02*
D03*
X0431244Y0109166D02*
D03*
X0438331Y0109166D02*
D03*
X0438331Y0099126D02*
D03*
X0431244Y0099126D02*
D03*
X0446854Y0099401D02*
D03*
X0453941Y0099401D02*
D03*
X0453941Y0089362D02*
D03*
X0446854Y0089362D02*
D03*
D605*
X0347543Y0218200D02*
D03*
X0347543Y0221350D02*
D03*
X0354630Y0221350D02*
D03*
X0354630Y0218200D02*
D03*
X0337307Y0203338D02*
D03*
X0337307Y0206488D02*
D03*
X0344394Y0206488D02*
D03*
X0344394Y0203338D02*
D03*
X0431244Y0105721D02*
D03*
X0431244Y0102571D02*
D03*
X0438331Y0102571D02*
D03*
X0438331Y0105721D02*
D03*
X0446854Y0095956D02*
D03*
X0446854Y0092807D02*
D03*
X0453941Y0092807D02*
D03*
X0453941Y0095956D02*
D03*
D106*
X0288823Y0118122D02*
D03*
X0283823Y0118122D02*
D03*
X0288823Y0123122D02*
D03*
X0283823Y0123122D02*
D03*
X0288823Y0128122D02*
D03*
X0283823Y0128122D02*
D03*
D604*
X0423134Y0125287D02*
D03*
X0423134Y0119382D02*
D03*
D598*
X0417425Y0086212D02*
D03*
X0404433Y0086212D02*
D03*
D102*
X0286323Y0113122D02*
D03*
X0282323Y0133122D02*
D03*
X0290323Y0133122D02*
D03*
X0003055Y0154766D02*
G01*
G75*
D283*
X0074512Y0159392D02*
D03*
X0074512Y0162148D02*
D03*
X0074512Y0165593D02*
D03*
X0004335Y0157620D02*
D03*
X0004335Y0167069D02*
D03*
D175*
X0050398Y0163093D02*
D03*
X0050398Y0156872D02*
D03*
X0055713Y0158742D02*
D03*
X0055713Y0164963D02*
D03*
X0045870Y0156872D02*
D03*
X0045870Y0163093D02*
D03*
X0006008Y0163880D02*
D03*
X0006008Y0157660D02*
D03*
X0036913Y0157168D02*
D03*
X0036913Y0163388D02*
D03*
D263*
X0069689Y0165297D02*
D03*
X0069689Y0157817D02*
D03*
X0061224Y0157817D02*
D03*
X0061224Y0161557D02*
D03*
X0026323Y0165790D02*
D03*
X0026323Y0158309D02*
D03*
X0017858Y0158309D02*
D03*
X0017858Y0162049D02*
D03*
D263*
X0061224Y0165297D02*
D03*
X0017858Y0165790D02*
D03*
D151*
X0053941Y0167857D02*
D03*
X0047642Y0167857D02*
D03*
X0043902Y0168644D02*
D03*
X0037602Y0168644D02*
D03*
D290*
X0041441Y0164510D02*
D03*
X0041441Y0158211D02*
D03*
X0012110Y0164510D02*
D03*
X0012110Y0158211D02*
D03*
X0031992Y0164510D02*
D03*
X0031992Y0158211D02*
D03*
X0503990Y0004854D02*
G01*
G75*
D623*
X0486372Y-043177D02*
D03*
X0486372Y-010500D02*
D03*
X0432238Y-010500D02*
D03*
X0432238Y-043177D02*
D03*
D624*
X0441608Y-032941D02*
D03*
X0445939Y-032941D02*
D03*
X0450270Y-032941D02*
D03*
X0454600Y-032941D02*
D03*
X0458931Y-032941D02*
D03*
X0463262Y-032941D02*
D03*
X0467592Y-032941D02*
D03*
X0471923Y-032941D02*
D03*
D625*
X0492277Y-047744D02*
D03*
X0492277Y-053965D02*
D03*
X0496903Y-047744D02*
D03*
X0496903Y-053965D02*
D03*
D532*
X0501431Y-054004D02*
D03*
X0501431Y-047705D02*
D03*
D90*
X0490506Y-048591D02*
D03*
X0463045Y-026642D02*
D03*
X0445722Y-026642D02*
D03*
X0454482Y-026642D02*
D03*
X0484305Y-029280D02*
D03*
X0467671Y-026642D02*
D03*
X0434289Y-029316D02*
D03*
M02*
