M48
INCH,TZ
T01C0.013750
T02C0.017850
T03C0.029550
T04C0.032000
T05C0.039400
T06C0.070900
T07C0.119050
T08C0.169300
%
T01
X2235Y10639
X7057Y11919
X7727Y16254
X7746Y18611
X7845Y17332
X8632Y10048
X8947Y16919
X10207Y11623
X10207Y10048
X10207Y8474
X11388Y33277
X11782Y12804
X11782Y11623
X11782Y10048
X11880Y32883
X13357Y12804
X13357Y11623
X14931Y35541
X14931Y34359
X15522Y14281
X16605Y35541
X16605Y34359
X17491Y12804
X17687Y10442
X18180Y13887
X18376Y12804
X19065Y10442
X19853Y13789
X19853Y13198
X20443Y9064
X23593Y31800
X23987Y34950
X24282Y30226
X24282Y29438
X24577Y15167
X24676Y35737
X24971Y30226
X25362Y8226
X25758Y15167
X25955Y12804
X26152Y14182
X27333Y6800
X28120Y31013
X28908Y600
X29282Y3159
X29695Y34556
X31073Y6702
X40128Y4537
X40719Y6505
X40719Y3552
X41900Y6505
X43081Y6505
X43278Y4930
X44065Y4438
X44262Y6505
X44853Y4438
X45246Y6505
X46821Y4340
X48790Y4340
X48790Y2174
X48790Y993
X50365Y15068
X50680Y12373
X50857Y18100
X50857Y17641
X52136Y4340
X52431Y4901
X13357Y5383
X13357Y4989
X13357Y4596
X13357Y4202
X28416Y3769
X28416Y3375
X28416Y1978
X28416Y1584
X463Y10836
X463Y9852
X660Y17627
X660Y15757
X1743Y10836
X1743Y9852
X3317Y304
X4203Y304
X4991Y2765
X5778Y3060
X6369Y37804
X6782Y15198
X6925Y2765
X7156Y20481
X7156Y19694
X7353Y37804
X7648Y6800
X7648Y6111
X7736Y7549
X7746Y2765
X8487Y16887
X9189Y2863
X9321Y16643
X9420Y19694
X9617Y6800
X9617Y6111
X9715Y20875
X9813Y18907
X10896Y37312
X11191Y29635
X11191Y18218
X11191Y17037
X11290Y26485
X11354Y403
X11487Y31013
X11585Y27962
X12176Y15757
X12471Y37509
X12732Y403
X12963Y5816
X13554Y37509
X14538Y37509
X15817Y37509
X17097Y37706
X18199Y15659
X18770Y13985
X19361Y8277
X19853Y37706
X20739Y12804
X20739Y10245
X20739Y6928
X21231Y37706
X21329Y8277
X22313Y36033
X22412Y13493
X22412Y9828
X22412Y9458
X22806Y13296
X22904Y16938
X23181Y17154
X23194Y13690
X23298Y9753
X23494Y27174
X23494Y25420
X23691Y21564
X23761Y22658
X23790Y29044
X24085Y38789
X24085Y37509
X24085Y22647
X24085Y9458
X24282Y27076
X24282Y23237
X24380Y34261
X24479Y14674
X24479Y8277
X24774Y22844
X24838Y23914
X24971Y19694
X25038Y23600
X25069Y21269
X25069Y17824
X25266Y38789
X25266Y37509
X25286Y32608
X25453Y24507
X25463Y16052
X25561Y22548
X25575Y24924
X25668Y24230
X25758Y10245
X26152Y21859
X26250Y6604
X26349Y25009
X26349Y22942
X26447Y38789
X26447Y37509
X26447Y35541
X26625Y15757
X26940Y15757
X27491Y18021
X27491Y12912
X27491Y12411
X27628Y38789
X27628Y28159
X28908Y38789
X29006Y36722
X29105Y24419
X29203Y1289
X29400Y6899
X29400Y6013
X29794Y28159
X29991Y36722
X30089Y38789
X31073Y37509
X31565Y29340
X31959Y26584
X32156Y6702
X32451Y35147
X32451Y30816
X32930Y5705
X32943Y26682
X33142Y7388
X33169Y6895
X33259Y29015
X33337Y3552
X33534Y28820
X33534Y23730
X33593Y7190
X33928Y22962
X34026Y4044
X34065Y7190
X34204Y30797
X34321Y5619
X34420Y24812
X34420Y6623
X34518Y4044
X34617Y34261
X34705Y7568
X34820Y7103
X34912Y5422
X34922Y30897
X35010Y31604
X35207Y39084
X35306Y7489
X35601Y5422
X35699Y30816
X35699Y24615
X35699Y23730
X35798Y6623
X36290Y31604
X36290Y6800
X36388Y38789
X36388Y37607
X36585Y31997
X36979Y33474
X36979Y5521
X37668Y34163
X37901Y31544
X38160Y32194
X38455Y4438
X38585Y30924
X38701Y23631
X38849Y34261
X38981Y30935
X39132Y23906
X39341Y35737
X39707Y31997
X39967Y31702
X40227Y31505
X41309Y24812
X42589Y23336
X42589Y22962
X42786Y24615
X44754Y25107
X44754Y24517
X44754Y23237
X44754Y4832
X45195Y25155
X45246Y2667
X45935Y23237
X46034Y24812
X46231Y2371
X47609Y20481
X48494Y22352
X48987Y20088
X50660Y22056
X50660Y21466
X51152Y40560
X51349Y8572
X52235Y9753
X52333Y33572
X52431Y40560
X52628Y12706
X53416Y4537
X53514Y29832
X53514Y18513
X53514Y17824
X53514Y16151
X53514Y15560
X53514Y8769
X53514Y6407
X53613Y33474
X53613Y895
X53711Y37411
X53711Y36033
X53711Y10245
X53809Y32194
X53809Y28356
X54203Y26092
X54400Y895
X467Y11894
X2612Y14591
X2619Y12531
X3360Y12337
X5850Y15112
X29976Y290
X34267Y290
X39858Y290
X44139Y1786
X44686Y290
X47176Y16234
X47176Y15466
X47176Y14443
X47691Y15978
X47869Y15339
X47898Y14276
X47898Y15004
X47904Y13528
X47983Y14659
X48347Y9576
X48554Y9920
X48849Y9458
X49410Y6840
X49439Y5442
X49508Y13409
X49528Y7342
X49872Y7135
X50246Y9487
T02
X6270Y39576
X7550Y39576
X8829Y16052
X8829Y14674
X9617Y15363
X9813Y16643
X11487Y34163
X12372Y34163
X13258Y34163
X14144Y34163
X16998Y39576
X18180Y34439
X19164Y35226
X19656Y39576
X19656Y36013
X20050Y35226
X20542Y36013
X20935Y35226
X21231Y39576
X22510Y35226
X22806Y39576
X23002Y36013
X23396Y38001
X23396Y35226
X23691Y6505
X23790Y31308
X23790Y30521
X24085Y39576
X24380Y6505
X24676Y38001
X24676Y30915
X24676Y21663
X24676Y20875
X24676Y20088
X24676Y19300
X24676Y18513
X24676Y17726
X25069Y6505
X25266Y39576
X25561Y21663
X25561Y20875
X25561Y20088
X25561Y19300
X25561Y18513
X25758Y6505
X25857Y38001
X26054Y34852
X26152Y16840
X26250Y7391
X26447Y39576
X26743Y16151
X26743Y15167
X26743Y14478
X26743Y6505
X26939Y34852
X27038Y38001
X27038Y18611
X27235Y7391
X27727Y39576
X27924Y6505
X28219Y7391
X28317Y38001
X28809Y6505
X28908Y39576
X29302Y7391
X29498Y38001
X29794Y6505
X30187Y39576
X30778Y7489
X31270Y23434
X31664Y7096
X32156Y23434
X32648Y7096
X33042Y23434
X33140Y30226
X33140Y29438
X33140Y28651
X33140Y27863
X33731Y33277
X33731Y31702
X33928Y23434
X34223Y32489
X34617Y31702
X34715Y33277
X34813Y23434
X35207Y32489
X35404Y39576
X35687Y23139
X35699Y25206
X36290Y39576
X36487Y32489
X36979Y31702
X37176Y6308
X37766Y5521
X38258Y6308
X38424Y31701
X38554Y39576
X38849Y5521
X39113Y31701
X40325Y32588
X40719Y33375
X41211Y32588
X41309Y23139
X41605Y33375
X42097Y32588
X42491Y33375
X42589Y25206
X42983Y32588
X43376Y33375
X43869Y32588
X44164Y39576
X45542Y39576
X46132Y6899
X46920Y7096
X47018Y39576
X47313Y8080
X47707Y7096
X54695Y39576
X54695Y38296
X199Y18321
X9321Y18415
X9556Y17566
X17884Y33947
X33566Y31055
X33881Y4416
X35525Y4416
X47315Y18674
X47684Y19037
X48645Y19642
X49235Y19249
X49875Y19596
X50689Y18971
X55089Y21466
X55089Y20678
X55089Y19104
X55089Y18316
X55089Y17529
X55876Y41938
X55876Y41151
X55876Y40363
X55876Y39576
X55876Y38789
X55876Y38001
X55876Y37214
X55876Y22253
X55876Y21466
X55876Y20678
X55876Y19104
X55876Y18316
X55876Y17529
X56270Y36426
X56270Y35639
X56270Y34852
X56270Y34064
X56270Y32883
X56270Y32096
X56270Y31308
X56270Y30521
X56270Y28946
X56270Y28159
X56270Y27371
X56270Y26584
X56270Y25403
X56270Y24615
X56270Y23828
X56270Y23041
X56270Y16741
X56270Y15954
X56270Y15167
X56270Y14379
X56270Y13198
X56270Y12411
X56270Y11623
X56270Y10836
X56270Y9261
X56270Y8474
X56270Y7686
X56270Y6899
X56270Y5718
X56270Y4930
X56270Y4143
X56270Y3356
X56270Y2568
X56270Y1781
X56270Y993
X57057Y36426
X57057Y35639
X57057Y34852
X57057Y34064
X57057Y32883
X57057Y32096
X57057Y31308
X57057Y30521
X57057Y28946
X57057Y28159
X57057Y27371
X57057Y26584
X57057Y25403
X57057Y24615
X57057Y23828
X57057Y23041
X57057Y16741
X57057Y15954
X57057Y15167
X57057Y14379
X57057Y13198
X57057Y12411
X57057Y11623
X57057Y10836
X57057Y9261
X57057Y8474
X57057Y7686
X57057Y6899
X57057Y5718
X57057Y4930
X57057Y4143
X57057Y3356
X57057Y2568
X57057Y1781
X57057Y993
X57845Y36426
X57845Y35639
X57845Y34852
X57845Y34064
X57845Y32883
X57845Y32096
X57845Y31308
X57845Y30521
X57845Y28946
X57845Y28159
X57845Y27371
X57845Y26584
X57845Y25403
X57845Y24615
X57845Y23828
X57845Y23041
X57845Y16741
X57845Y15954
X57845Y15167
X57845Y14379
X57845Y13198
X57845Y12411
X57845Y11623
X57845Y10836
X57845Y9261
X57845Y8474
X57845Y7686
X57845Y6899
X57845Y5718
X57845Y4930
X57845Y4143
X57845Y3356
X57845Y2568
X57845Y1781
X57845Y993
X58632Y36426
X58632Y35639
X58632Y34852
X58632Y34064
X58632Y32883
X58632Y32096
X58632Y31308
X58632Y30521
X58632Y28946
X58632Y28159
X58632Y27371
X58632Y26584
X58632Y25403
X58632Y24615
X58632Y23828
X58632Y23041
X58632Y16741
X58632Y15954
X58632Y15167
X58632Y14379
X58632Y13198
X58632Y12411
X58632Y11623
X58632Y10836
X58632Y9261
X58632Y8474
X58632Y7686
X58632Y6899
X58632Y5718
X58632Y4930
X58632Y4143
X58632Y3356
X58632Y2568
X58632Y1781
X58632Y993
X59420Y36426
X59420Y35639
X59420Y34852
X59420Y34064
X59420Y32883
X59420Y32096
X59420Y31308
X59420Y30521
X59420Y28946
X59420Y28159
X59420Y27371
X59420Y26584
X59420Y25403
X59420Y24615
X59420Y23828
X59420Y23041
X59420Y16741
X59420Y15954
X59420Y15167
X59420Y14379
X59420Y13198
X59420Y12411
X59420Y11623
X59420Y10836
X59420Y9261
X59420Y8474
X59420Y7686
X59420Y6899
X59420Y5718
X59420Y4930
X59420Y4143
X59420Y3356
X59420Y2568
X59420Y1781
X59420Y993
X60207Y36426
X60207Y35639
X60207Y34852
X60207Y34064
X60207Y32883
X60207Y32096
X60207Y31308
X60207Y30521
X60207Y28946
X60207Y28159
X60207Y27371
X60207Y26584
X60207Y25403
X60207Y24615
X60207Y23828
X60207Y23041
X60207Y16741
X60207Y15954
X60207Y15167
X60207Y14379
X60207Y13198
X60207Y12411
X60207Y11623
X60207Y10836
X60207Y9261
X60207Y8474
X60207Y7686
X60207Y6899
X60207Y5718
X60207Y4930
X60207Y4143
X60207Y3356
X60207Y2568
X60207Y1781
X60207Y993
X60994Y36426
X60994Y35639
X60994Y34852
X60994Y34064
X60994Y32883
X60994Y32096
X60994Y31308
X60994Y30521
X60994Y28946
X60994Y28159
X60994Y27371
X60994Y26584
X60994Y25403
X60994Y24615
X60994Y23828
X60994Y23041
X60994Y16741
X60994Y15954
X60994Y15167
X60994Y14379
X60994Y13198
X60994Y12411
X60994Y11623
X60994Y10836
X60994Y9261
X60994Y8474
X60994Y7686
X60994Y6899
X60994Y5718
X60994Y4930
X60994Y4143
X60994Y3356
X60994Y2568
X60994Y1781
X60994Y993
X61782Y36426
X61782Y35639
X61782Y34852
X61782Y34064
X61782Y32883
X61782Y32096
X61782Y31308
X61782Y30521
X61782Y28946
X61782Y28159
X61782Y27371
X61782Y26584
X61782Y25403
X61782Y24615
X61782Y23828
X61782Y23041
X61782Y16741
X61782Y15954
X61782Y15167
X61782Y14379
X61782Y13198
X61782Y12411
X61782Y11623
X61782Y10836
X61782Y9261
X61782Y8474
X61782Y7686
X61782Y6899
X61782Y5718
X61782Y4930
X61782Y4143
X61782Y3356
X61782Y2568
X61782Y1781
X62569Y36426
X62569Y35639
X62569Y34852
X62569Y34064
X62569Y32883
X62569Y32096
X62569Y31308
X62569Y30521
X62569Y28946
X62569Y28159
X62569Y27371
X62569Y26584
X62569Y25403
X62569Y24615
X62569Y23828
X62569Y23041
X62569Y16741
X62569Y15954
X62569Y15167
X62569Y14379
X62569Y13198
X62569Y12411
X62569Y11623
X62569Y10836
X62569Y9261
X62569Y8474
X62569Y7686
X62569Y6899
X62569Y5718
X62569Y4930
X62569Y4143
X62569Y3356
X62569Y2568
T03
X30148Y5472
X30463Y4783
X30778Y5472
X31093Y4783
X31408Y5472
X29341Y4871G85X29341Y5383
X32215Y4871G85X32215Y5383
X10686Y43940
X11572Y41479
X11670Y43940
X12654Y43940
X12851Y41479
X13639Y43940
X14131Y41479
X14623Y43940
X15410Y41479
X15607Y43940
X16591Y43940
X16690Y41479
X17576Y43940
X17969Y41479
X18560Y43940
X19249Y41479
X19544Y43940
X20529Y43940
X20529Y41479
X21513Y43940
X21808Y41479
X22399Y43644
X23088Y44235
X23088Y41479
X23678Y43644
X24367Y44235
X24367Y41479
X24958Y43644
X25647Y44235
X25647Y41479
X26237Y43644
X26926Y44235
X26926Y41479
X27517Y43644
X28206Y44235
X28206Y41479
X28796Y43644
X29485Y44235
X29485Y41479
X30076Y43644
X30765Y44235
X30765Y41479
X31355Y43644
X32044Y44235
X32044Y41479
X32635Y43644
X33324Y44235
X33324Y41479
X33914Y43644
X34603Y44235
X34603Y41479
X35194Y43644
X35883Y44235
X35883Y41479
X36473Y43644
X37162Y44235
X37162Y41479
X37753Y43644
X38442Y44235
X38442Y41479
X39032Y43644
X39721Y44235
X39721Y41479
X40312Y43644
X41001Y41479
X41296Y43940
X42280Y43940
X42280Y41479
X43265Y43940
X43560Y41479
X44249Y43940
X44840Y41479
X45233Y43940
X46119Y41479
X46217Y43940
X47202Y43940
X47399Y41479
X48186Y43940
X48678Y41479
X49170Y43940
X49958Y41479
X50154Y43940
X51139Y43940
X51237Y41479
X52123Y43940
X52517Y41479
X53107Y43940
X54091Y43940
T04
X34275Y4416
X36932Y4416
X7057Y14735
X7057Y13235
X8632Y39539
X8632Y38039
X9715Y39539
X9715Y38039
X10798Y39539
X10798Y38039
X11880Y39539
X11880Y38039
X12963Y39539
X12963Y38039
X14046Y39539
X14046Y38039
X15128Y39539
X15128Y38039
X16211Y39539
X16211Y38039
X16348Y13434
X16348Y12434
X16348Y11434
X16348Y10434
X16348Y9434
X16348Y8434
X17786Y39539
X17786Y38039
X18869Y39539
X18869Y38039
X20443Y39539
X20443Y38039
X22018Y39539
X22018Y38039
X30680Y36586
X30680Y35086
X31369Y39539
X31369Y38039
X31664Y36586
X31664Y35086
X32451Y39539
X32451Y38039
X33042Y36586
X33042Y35086
X33534Y39539
X33534Y38039
X34124Y36586
X34124Y35086
X34617Y39539
X34617Y38039
X35207Y36586
X35207Y35086
X36290Y36586
X36290Y35086
X37372Y36586
X37372Y35086
X37766Y39539
X37766Y38039
X38652Y36586
X38652Y35086
X39735Y39539
X39735Y38039
X42589Y36586
X42589Y35086
X43672Y36586
X43672Y35086
X44754Y36586
X44754Y35086
X45837Y36586
X45837Y35086
X46920Y36586
X46920Y35086
X48002Y36586
X48002Y35086
X49085Y36586
X49085Y35086
X49479Y39539
X49479Y38039
X50168Y36586
X50168Y35086
X51152Y39539
X51152Y38039
X51250Y36586
X51250Y35086
X52235Y39539
X52235Y38039
X53514Y39539
X53514Y38039
X29400Y3651
X30187Y3651
X30975Y3651
X31762Y3651
X32550Y3651
T05
X597Y35997
X597Y34997
X597Y33997
X597Y32997
X597Y31997
X597Y30997
X597Y29997
X597Y28997
X597Y27997
X597Y26997
X597Y25997
X597Y24997
X620Y8474
X731Y4537
X1565Y35997
X1565Y34997
X1565Y33997
X1565Y32997
X1565Y31997
X1565Y30997
X1565Y29997
X1565Y28997
X1565Y27997
X1565Y26997
X1565Y25997
X1565Y24997
X1620Y8474
X1731Y4537
X2597Y35997
X2597Y34997
X2597Y33997
X2597Y32997
X2597Y31997
X2597Y30997
X2597Y29997
X2597Y28997
X2597Y27997
X2597Y26997
X2597Y25997
X2597Y24997
X2620Y8474
X2731Y4537
X3597Y35997
X3597Y34997
X3597Y33997
X3597Y32997
X3597Y31997
X3597Y30997
X3597Y29997
X3597Y28997
X3597Y27997
X3597Y26997
X3597Y25997
X3597Y24997
X3620Y8474
X3731Y4537
X4597Y35997
X4597Y34997
X4597Y33997
X4597Y32997
X4597Y31997
X4597Y30997
X4597Y29997
X4597Y28997
X4597Y27997
X4597Y26997
X4597Y25997
X4597Y24997
X4620Y8474
X5252Y4340
X5286Y1426
X5597Y35997
X5597Y34997
X5597Y33997
X5597Y32997
X5597Y31997
X5597Y30997
X5597Y29997
X5597Y28997
X5597Y27997
X5597Y26997
X5597Y25997
X5597Y24997
X5620Y8474
X6270Y1426
X6532Y4340
X6597Y35997
X6597Y34997
X6597Y33997
X6597Y32997
X6597Y31997
X6597Y30997
X6597Y29997
X6597Y28997
X6597Y27997
X6597Y26997
X6597Y25997
X6597Y24997
X7254Y1426
X7597Y35997
X7597Y34997
X7597Y33997
X7597Y32997
X7597Y31997
X7597Y30997
X7597Y29997
X7597Y28997
X7597Y27997
X7597Y26997
X7597Y25997
X7597Y24997
X7811Y4340
X8239Y1426
X8597Y35997
X8597Y34997
X8597Y33997
X8597Y32997
X8597Y31997
X8597Y30997
X8597Y29997
X8597Y28997
X8597Y27997
X8597Y26997
X8597Y25997
X8597Y24997
X9091Y4340
X9223Y1426
X9636Y28997
X9636Y27997
X9636Y26997
X9636Y25997
X9636Y24997
X10207Y1426
X10567Y4340
X11191Y1426
X12043Y4340
X12176Y1426
X6743Y21623G85X6743Y22017
X7687Y22411G85X7687Y22804
X9144Y21623G85X9144Y22017
X9853Y22411G85X9853Y22804
X11309Y21623G85X11309Y22017
T06
X4213Y6505
X6378Y6505
T07
X1339Y6505
X11348Y15434
X11348Y6434
T08
X3005Y44825
X60371Y44727
X2926Y2230
X51426Y2230
M30
