M48
INCH,TZ
T01C0.013750
T02C0.017850
T03C0.029550
T04C0.032000
T05C0.039200
T06C0.070900
T07C0.119050
T08C0.169300
%
T01
X2235Y10639
X6565Y12607
X6591Y24995
X6762Y12903
X6861Y22745
X7004Y24995
X7057Y30619
X7057Y13530
X7057Y13198
X7424Y12771
X7727Y16254
X7746Y18611
X7845Y17332
X8239Y27765
X9026Y22647
X9223Y23926
X9420Y27765
X9715Y24517
X10207Y10048
X10207Y8474
X11377Y18622
X11782Y33670
X11782Y32883
X11782Y32096
X11782Y31308
X11782Y30521
X11782Y29733
X11782Y28946
X11782Y28159
X11782Y27371
X11782Y26584
X11782Y25796
X11782Y25009
X11782Y24222
X11782Y11623
X11782Y10048
X12269Y35998
X13357Y12804
X13357Y11623
X14144Y8375
X15128Y12509
X15128Y11525
X15128Y10442
X15128Y9359
X15128Y8375
X15522Y14478
X16605Y34359
X17195Y12607
X17491Y34359
X17589Y10245
X17589Y9556
X17796Y37322
X18180Y13887
X18371Y13488
X18376Y12607
X18667Y13193
X18869Y10245
X18869Y9556
X19951Y13887
X19951Y12903
X20010Y7863
X20050Y10147
X20050Y8966
X20345Y13296
X20345Y9556
X20542Y13887
X20542Y8966
X20542Y7844
X20739Y12903
X20739Y10147
X20857Y13434
X21211Y13434
X21285Y7967
X21548Y8229
X22038Y7273
X23298Y9753
X23652Y29399
X23672Y30068
X23689Y31714
X24093Y29395
X24441Y9517
X24548Y14704
X24557Y15088
X24724Y9527
X25542Y7400
X25857Y12804
X25857Y10245
X25857Y9852
X25916Y8867
X25994Y15088
X26152Y13100
X27451Y11564
X28061Y34517
X28120Y31013
X28691Y35442
X29321Y29576
X32530Y28139
X32550Y26170
X33632Y24911
X34109Y1308
X34144Y2096
X34400Y2765
X36998Y4261
X40325Y3611
X40522Y36230
X40522Y34556
X40857Y5147
X41664Y3985
X41802Y34556
X44892Y4438
X45680Y4438
X48416Y7883
X49931Y7883
X50365Y15068
X50366Y17136
X50680Y12373
X50680Y17450
X52136Y9556
X52136Y8966
X52136Y8375
X52136Y7785
X52136Y5718
X52136Y5029
X52136Y4340
X52333Y34852
X52333Y34261
X52333Y33670
X52628Y32194
X52628Y31407
X52727Y13690
X52727Y12804
X52727Y11820
X52924Y33670
X53022Y29733
X53120Y2667
X53120Y1978
X53120Y1387
X53120Y796
X53514Y19005
X53514Y17726
X53514Y16249
X53711Y18415
X53711Y2667
X53711Y1978
X53711Y1387
X53711Y796
X54006Y2371
X54105Y17922
X54105Y6584
X54302Y2667
X54302Y1978
X54302Y1387
X54302Y796
X54892Y2607
X54892Y1978
X54892Y1387
X54892Y796
X13357Y5383
X13357Y4989
X13357Y4596
X13357Y4202
X28416Y3769
X28416Y3375
X28416Y1978
X28416Y1584
X463Y10836
X463Y9852
X660Y17627
X660Y15757
X1743Y10836
X1743Y9852
X3317Y304
X4203Y304
X4991Y2765
X5443Y35304
X5778Y3060
X6664Y15198
X6925Y2765
X7057Y8375
X7156Y20481
X7156Y19694
X7353Y11230
X7353Y9852
X7550Y37903
X7648Y6111
X7687Y33139
X7746Y25796
X7746Y2765
X8317Y37174
X8455Y16783
X8534Y32588
X8534Y31997
X8928Y11131
X9124Y19005
X9189Y2863
X9223Y36820
X9223Y35836
X9223Y34852
X9223Y33867
X9320Y18119
X9321Y25993
X9420Y19694
X9617Y15560
X9617Y6111
X9715Y20875
X9813Y18907
X10109Y12312
X11191Y18218
X11329Y20619
X11354Y403
X12372Y15265
X12471Y37509
X12732Y403
X12963Y5816
X14144Y15659
X14735Y14084
X16998Y38001
X17392Y15127
X17983Y15659
X18770Y13789
X18987Y7745
X19164Y35934
X19951Y34359
X20109Y35954
X21228Y34268
X22412Y13493
X22412Y9458
X22648Y13178
X22846Y9497
X22904Y16938
X23181Y17154
X23194Y13690
X23258Y35029
X23435Y13178
X23494Y27174
X23494Y16682
X23544Y32558
X23554Y25285
X23593Y29005
X23810Y21564
X23865Y9474
X24085Y27174
X24144Y15147
X24183Y35344
X24183Y13178
X24498Y22485
X24971Y19694
X25069Y21269
X25144Y17801
X25365Y16161
X25896Y30107
X26447Y38789
X26447Y37509
X26447Y35541
X26565Y16604
X26743Y24812
X26762Y23415
X26832Y16338
X26895Y16016
X26920Y22194
X26961Y18239
X27338Y18125
X27471Y16328
X27491Y12912
X27491Y12598
X27491Y12214
X27628Y38789
X28908Y38789
X29006Y36722
X29203Y3552
X29203Y993
X29991Y36722
X30089Y38789
X30246Y38060
X30719Y5915
X31073Y37509
X31290Y4517
X31339Y25127
X32097Y31033
X32097Y30482
X32353Y29832
X32372Y35029
X32609Y23434
X33180Y4438
X33315Y28949
X33573Y28769
X33573Y27135
X33632Y33277
X33632Y31899
X33928Y22962
X33967Y35029
X34124Y36722
X34124Y501
X34617Y34419
X34912Y37509
X35010Y31604
X35207Y39084
X35581Y7371
X35699Y4930
X36250Y34044
X36288Y31995
X36290Y31604
X36388Y38789
X36388Y37607
X36467Y32509
X36979Y33474
X37372Y5422
X37668Y34163
X38042Y39989
X38160Y36879
X38445Y32736
X38556Y5053
X38583Y4560
X38652Y31978
X38672Y34340
X38699Y24072
X39006Y4856
X39065Y33356
X39132Y24111
X39164Y32627
X39164Y31643
X39183Y35856
X39479Y4856
X39577Y31604
X39808Y4895
X39951Y31525
X40207Y33334
X40246Y5265
X40561Y33356
X41186Y4895
X41211Y33336
X42589Y23336
X42589Y22962
X43002Y32588
X44085Y4812
X44565Y24812
X44754Y25107
X44754Y23237
X45195Y25155
X45896Y23257
X46526Y29537
X46526Y28257
X46526Y26781
X47412Y21170
X47412Y20481
X49479Y24419
X49479Y23631
X50038Y22653
X50168Y19871
X50266Y3552
X50365Y22647
X50463Y600
X50505Y19248
X50645Y18661
X50660Y22056
X50660Y21466
X51152Y40560
X51447Y6308
X52431Y40560
X52628Y27637
X52648Y28070
X52668Y34989
X52746Y36249
X52855Y27411
X52884Y30117
X52884Y27834
X53061Y11544
X53081Y8946
X53101Y34989
X53120Y36259
X53130Y12499
X53140Y27253
X53140Y11850
X53150Y27598
X53180Y8454
X53180Y6584
X53189Y30098
X53189Y12184
X53209Y12824
X53219Y31564
X53239Y32194
X53298Y4694
X53445Y12470
X53465Y6544
X53494Y30088
X53494Y5206
X53514Y8769
X53544Y36259
X53544Y28680
X53544Y12824
X53573Y10501
X53593Y10245
X53613Y33474
X53632Y29861
X53662Y28464
X53681Y29606
X53711Y37411
X53711Y6289
X53770Y33739
X53780Y34025
X53780Y12578
X53800Y28680
X53809Y32194
X53809Y30088
X53809Y6604
X53849Y10501
X53849Y10186
X53888Y4812
X53898Y29812
X53947Y26328
X53967Y36259
X53967Y28503
X54065Y30974
X54065Y34025
X54065Y33749
X54065Y15304
X54075Y35255
X54075Y34920
X54085Y3828
X54105Y27509
X54115Y27233
X54129Y26116
X54134Y30009
X54134Y28680
X54134Y12578
X54134Y11653
X54134Y11397
X54134Y10501
X54134Y10265
X54134Y7893
X54134Y7558
X54164Y23444
X54174Y22401
X54189Y31146
X54223Y14950
X54302Y5186
X54311Y15550
X54341Y34871
X54351Y36259
X54351Y34054
X54351Y33749
X54361Y35255
X54361Y23602
X54361Y23287
X54361Y15216
X54361Y14104
X54361Y3838
X54380Y26111
X54469Y3237
X54479Y22922
X54479Y3543
X54528Y34645
X54577Y34989
X54617Y15560
X54626Y34054
X54636Y33759
X54636Y23602
X54636Y23287
X54636Y22617
X54636Y14113
X54636Y3838
X54646Y35255
X54646Y15304
X54646Y14369
X54784Y34753
X54784Y3552
X54912Y9950
X54922Y35255
X54922Y34999
X54922Y34054
X54922Y23602
X54922Y23277
X54922Y22617
X54922Y15550
X54922Y14369
X54922Y14084
X54922Y3838
X54931Y33759
X54931Y15226
X55158Y9940
X467Y11894
X2612Y14591
X2619Y12531
X3360Y12337
X5850Y15112
X30763Y1867
X30793Y469
X30881Y2369
X31226Y2162
X34995Y290
X39287Y290
X44877Y290
X47176Y16234
X47176Y15466
X47176Y14443
X47691Y15978
X47869Y15339
X47898Y14276
X47898Y15004
X47904Y13528
X47983Y14659
X48347Y9576
X48554Y9920
X48849Y9458
X49159Y1786
X49508Y13409
X49705Y290
X50246Y9487
X466Y11894
X2619Y12531
X3360Y12337
X2612Y14591
X5850Y15112
X48554Y9921
X48347Y9577
X48849Y9458
X50247Y9488
X28415Y1584
X28415Y1978
X28415Y3376
X28415Y3769
X13356Y4202
X13356Y4596
X13356Y4990
X13356Y5383
X28455Y285
X28435Y1230
X28396Y3021
X28376Y2332
X28356Y5757
X28215Y4019
X28067Y4287
X27982Y777
X27766Y5502
X27530Y4517
X27451Y5482
X27225Y3050
X27215Y3789
X27199Y1187
X27195Y2096
X27018Y738
X26644Y5679
X26250Y3750
X26191Y1722
X26152Y2899
X25955Y5797
X25896Y344
X25640Y5265
X25620Y4222
X25581Y718
X25266Y3056
X25187Y3376
X25010Y2706
X24931Y521
X24774Y3651
X24695Y2017
X24636Y5797
X24223Y3120
X23986Y2096
X23888Y3907
X23868Y541
X23455Y5718
X23323Y1622
X23258Y2982
X23026Y3352
X23003Y2602
X23002Y1663
X23002Y1978
X22648Y4379
X22648Y4714
X22392Y5521
X22352Y1112
X21919Y3356
X21900Y5816
X21841Y1564
X21526Y5231
X21523Y2862
X21388Y4931
X21329Y816
X20404Y4379
X20246Y3809
X20167Y2785
X20010Y3100
X19990Y1407
X19872Y639
X19793Y935
X19459Y5816
X19360Y1879
X19341Y5226
X19223Y4124
X19065Y3257
X19065Y3612
X18967Y2765
X18927Y974
X18632Y1879
X18323Y2562
X18297Y5324
X18101Y1525
X17913Y4122
X17372Y620
X17183Y3772
X17175Y2824
X17173Y3462
X17173Y4532
X17097Y1781
X16585Y5816
X16250Y876
X16250Y1309
X15935Y876
X15935Y1309
X15778Y1820
X14971Y5344
X14912Y344
X14715Y1919
X14301Y797
X14301Y1171
X13849Y797
X13849Y1171
X13396Y324
X13356Y1151
X13337Y5816
X31226Y2162
X30882Y2369
X30763Y1867
X30793Y469
X49159Y1786
X49705Y289
X44877Y289
X39287Y289
X34995Y289
X45679Y30611
X45423Y29557
X45266Y29282
X45585Y28322
X45594Y27400
X44556Y27405
X44104Y27028
X43723Y27086
X43169Y27058
X42785Y27120
X42431Y27016
X42047Y27120
X41348Y27166
X40994Y27077
X40551Y27048
X40128Y27195
X39911Y27447
X39665Y27166
X39242Y27058
X38829Y26969
X38366Y27008
X38238Y27451
X37933Y27166
X37539Y27028
X37165Y27117
X36663Y27117
X36250Y27166
X36526Y27461
X36860Y27806
X36398Y28180
X35807Y29065
X35482Y29065
X35896Y29381
X35925Y29774
X36240Y29764
X36602Y29779
X36929Y29833
X37473Y30136
X37490Y29046
X37814Y29046
X38081Y28199
X38533Y27874
X39774Y28199
X40236Y27865
X41506Y28199
X41900Y27874
X41613Y27450
X43169Y27804
X43464Y28178
X43295Y28445
X43957Y28849
X43966Y29164
X43957Y29479
X44016Y30059
X43583Y29764
X43248Y29735
X42926Y29742
X42589Y29758
X42096Y29754
X41781Y29743
X41287Y29759
X40965Y29754
X40443Y29676
X40127Y29753
X39026Y29907
X38560Y29754
X39084Y29054
X39478Y29046
X35079Y29715
X34764Y29735
X34449Y29813
X34163Y30365
X34123Y29192
X34204Y28731
X34695Y28248
X35078Y27932
X34833Y27500
X34941Y27087
X34557Y27166
X34065Y27156
X35541Y27166
X35856Y26962
X45049Y26565
X44547Y28258
X43819Y30857
X23051Y29083
X21496Y28931
X21486Y28489
X21683Y27564
X21211Y27534
X21358Y27199
X21152Y26648
X21014Y26362
X21004Y26038
X20512Y25445
X20512Y25115
X20177Y25073
X20817Y24512
X20412Y24002
X19931Y24039
X19626Y24148
X19370Y23115
X19370Y22898
X19577Y22855
X19577Y22540
X19647Y22093
X21467Y22105
X21772Y22026
X22028Y22700
X22264Y22705
X22264Y22951
X22411Y23459
X22648Y23469
X22971Y23599
X22992Y23276
X23010Y23914
X23020Y24229
X23022Y24556
X23041Y24920
X23041Y25235
X22884Y25536
X22884Y25792
X22943Y26780
X22549Y27818
X20581Y27715
X20581Y27922
X20581Y27479
X18612Y27469
X18612Y27705
X18612Y27942
X18297Y27705
X18297Y27469
X18297Y27233
X18612Y27131
X17982Y27381
X17982Y27617
X17982Y27853
X16949Y28138
X16702Y29020
X16427Y29197
X16476Y29552
X16595Y30142
X16392Y30794
X15161Y30675
X15069Y30172
X14843Y29670
X15039Y29355
X14159Y29699
X13711Y29414
X13179Y29217
X12776Y29674
X12776Y29920
X12776Y30166
X13051Y30658
X13061Y30904
X13061Y31170
X14191Y30886
X14260Y30667
X14193Y31599
X14695Y31766
X15049Y32190
X15610Y32819
X14242Y32849
X17008Y33424
X17303Y33424
X18061Y31068
X18061Y29621
X17400Y29574
X20128Y29752
X20345Y30329
X21614Y29821
X21408Y29581
X21240Y23512
X20994Y23512
X20742Y23512
X21083Y21554
X20797Y21249
X20807Y20048
X19931Y20087
X19707Y18997
X19301Y19005
X19203Y18699
X19439Y18483
X19762Y18481
X19962Y18762
X20254Y18599
X20266Y18918
X20571Y18778
X20610Y19093
X22402Y18375
X22474Y20186
X22608Y20499
X22608Y20814
X21868Y20765
X18474Y20910
X18032Y21107
X17982Y21501
X17185Y21888
X17352Y23272
X17352Y23489
X17559Y23558
X17776Y23325
X17667Y25310
X16643Y24305
X14823Y23833
X14526Y23462
X14085Y22721
X14080Y22478
X14203Y21609
X14715Y22003
X14872Y21352
X15285Y20732
X15354Y20260
X15114Y19974
X14675Y20005
X14282Y20477
X13540Y19952
X13287Y20792
X13711Y18814
X13809Y18498
X13691Y18115
X12943Y18705
X12421Y18562
X12421Y18306
X14813Y18837
X15807Y19654
X16240Y19654
X16630Y19654
X17121Y19689
X17628Y19812
X18130Y19644
X18199Y19965
X18573Y19942
X18848Y18325
X17786Y18670
X15738Y21589
X13258Y23193
X13396Y24241
X13730Y24079
X14508Y24672
X14695Y25727
X14498Y26180
X15030Y26583
X14774Y27006
X14695Y27577
X15307Y27947
X13455Y27843
X13455Y27597
X13455Y27351
X13455Y27105
X13455Y26859
X13846Y26828
X16957Y26886
X17156Y17853
X17648Y17853
X16622Y17949
X16130Y17949
X15628Y17949
X14813Y17873
X12894Y17950
X12421Y18069
X19223Y17823
X21959Y17115
X22451Y17105
X47720Y15977
X47204Y16233
X47204Y15465
X47897Y15337
X47926Y15003
X48011Y14658
X47926Y14274
X47932Y13526
X47204Y14442
X49537Y13408
X45611Y22548
X45001Y22263
X44627Y22282
X44184Y21702
X43662Y21505
X43692Y21190
X44026Y20560
X44853Y20688
X45188Y21200
X45178Y21751
X43160Y21761
X42471Y21771
X42225Y21977
X41812Y22302
X41378Y22312
X41566Y21790
X42038Y21308
X42432Y21259
X42323Y20767
X41851Y20845
X41152Y21210
X40936Y20393
X40384Y20481
X40394Y19999
X40325Y19487
X40305Y19054
X40640Y19074
X41349Y19143
X41142Y18749
X41703Y18818
X41694Y18335
X41418Y17981
X40995Y17548
X41211Y16760
X41023Y16288
X41245Y16003
X41516Y15835
X41103Y14969
X41467Y14575
X41743Y14743
X41467Y12883
X42451Y12961
X43603Y13316
X43514Y13828
X43751Y14044
X44430Y13808
X44115Y13444
X44036Y12607
X43829Y11830
X43209Y11869
X42717Y10865
X42921Y10572
X43406Y10255
X43386Y9940
X44194Y9733
X44459Y9556
X44381Y8975
X44125Y9162
X43249Y8936
X42973Y9162
X42678Y9448
X42284Y9812
X42264Y8808
X41568Y8991
X41231Y8601
X40906Y8650
X41418Y9586
X40916Y10491
X39508Y10589
X39508Y10904
X39381Y9654
X39066Y9664
X39036Y8828
X39341Y8749
X37914Y9389
X37274Y9467
X36875Y9368
X36388Y9182
X36073Y9211
X35768Y9329
X35345Y9015
X35020Y9231
X34312Y9162
X34312Y8670
X33209Y9477
X32903Y9339
X32599Y9241
X32442Y9517
X32119Y9515
X31802Y9515
X31280Y8847
X30571Y9044
X30516Y9562
X31005Y9940
X31270Y10904
X31644Y10589
X32264Y10313
X32963Y10914
X32963Y11229
X32844Y11613
X33632Y11357
X33662Y12617
X33938Y12774
X34725Y12656
X34971Y12873
X35197Y13158
X35128Y14418
X34537Y14093
X34468Y13777
X33677Y13646
X33681Y13995
X33121Y14074
X32884Y13837
X31782Y13680
X31310Y13710
X30465Y14802
X31487Y15511
X31789Y15396
X31251Y15786
X30940Y16099
X32796Y16219
X32953Y15944
X33258Y16032
X33367Y15688
X33426Y15019
X34430Y14881
X35286Y15363
X36250Y15215
X36753Y14979
X36998Y14772
X37126Y15461
X37441Y15540
X38071Y15294
X38140Y15908
X37875Y16091
X37195Y16180
X36713Y16160
X36113Y15835
X36221Y17440
X36064Y17715
X35778Y17853
X35482Y18050
X35188Y17893
X34253Y18021
X34094Y18886
X34110Y19209
X33810Y19034
X33682Y19330
X33692Y19645
X33219Y19645
X32569Y20019
X32560Y20924
X32303Y21141
X31999Y21003
X31644Y20973
X31486Y20501
X31162Y20498
X30846Y20481
X31851Y20501
X31781Y19398
X31457Y19398
X31142Y19389
X30788Y19398
X32215Y18670
X32550Y18670
X32629Y16495
X33878Y16790
X34961Y16652
X35010Y19339
X35305Y19497
X35365Y20530
X34656Y20540
X34085Y20373
X33770Y20353
X34105Y21465
X34390Y21318
X34784Y21288
X35109Y21426
X35296Y21967
X36486Y21898
X36497Y22213
X36516Y21347
X36792Y20796
X37284Y20393
X38081Y20432
X37776Y20855
X37904Y21150
X38721Y20914
X39183Y20776
X39430Y21013
X39873Y20944
X39735Y20383
X39075Y20038
X39292Y19595
X39341Y19280
X39646Y19428
X39922Y18946
X39794Y17863
X39312Y17883
X39508Y17627
X40128Y17291
X39803Y16721
X39853Y16239
X39056Y16160
X39016Y16662
X39213Y15530
X39188Y14920
X39482Y15045
X38573Y14408
X38022Y14585
X37943Y13748
X38760Y13582
X38564Y12105
X38318Y12322
X38042Y12164
X38140Y11839
X37565Y12056
X37746Y12321
X37510Y11652
X37284Y11426
X36418Y10589
X36083Y10589
X37058Y8532
X35915Y13780
X38416Y15658
X37688Y16820
X37501Y17204
X37008Y17400
X38170Y17952
X37577Y19045
X37343Y19261
X38564Y19261
X38868Y19349
X38573Y19753
X38258Y19700
X36398Y19888
X37166Y21830
X37392Y22056
X39420Y22194
X39577Y21515
X40335Y21505
X40453Y18188
X42235Y18690
X42589Y18700
X43603Y18326
X43564Y17804
X43918Y17243
X44400Y17322
X44479Y17637
X45266Y17794
X45178Y18306
X44233Y18454
X44223Y16337
X44755Y16554
X44725Y15954
X45047Y15835
X45148Y15521
X44705Y15176
X45434Y14684
X45739Y14605
X45384Y13572
X45050Y12774
X45355Y11849
X44745Y11830
X44331Y11239
X45670Y11141
X42264Y11111
X41083Y11938
X39932Y12292
X40099Y12763
X42510Y16426
X42467Y17259
X43305Y16613
X43406Y16012
X45621Y16534
X45709Y19113
X42816Y19861
X33760Y22460
X32274Y21613
X31556Y22282
X31704Y11534
X44597Y8276
X44942Y8414
X29814Y8749
X29440Y9103
X28928Y9675
X28573Y9428
X28357Y8956
X27983Y9074
X28131Y10196
X28436Y10412
X28731Y10540
X29046Y10506
X29409Y10195
X29726Y10215
X30193Y9551
X30306Y11967
X30237Y12912
X29288Y12932
X29282Y12145
X29095Y11200
X28249Y10708
X28141Y11859
X28160Y12440
X28662Y15137
X28436Y15639
X29104Y15491
X29342Y15491
X29882Y14999
X29666Y17922
X29271Y18129
X28888Y18129
X28396Y17922
X28475Y17568
X28190Y18178
X28219Y19704
X28308Y20924
X28630Y20924
X28859Y21416
X29479Y21652
X29475Y22095
X29981Y20875
X29932Y19822
X29587Y19822
X29760Y19231
X30157Y18079
T02
X6270Y39576
X7254Y39576
X10010Y16446
X11408Y17647
X11408Y16859
X12274Y34359
X13160Y34359
X14046Y34359
X14931Y34359
X15916Y35442
X16998Y39576
X18376Y36033
X19164Y35226
X19656Y39576
X19656Y36013
X19754Y37509
X20050Y35226
X20542Y36013
X20935Y35226
X22510Y35226
X23002Y36013
X23298Y39576
X23298Y38001
X23790Y31308
X23790Y30521
X23928Y22883
X24676Y21663
X24676Y20875
X24676Y20088
X24676Y19300
X24676Y18513
X24676Y17726
X24892Y6525
X24971Y38001
X25266Y39576
X25561Y18513
X25581Y20875
X25581Y20088
X25581Y19300
X25680Y6525
X25857Y38001
X25857Y15856
X26054Y34852
X26152Y16840
X26447Y39576
X26467Y6525
X26743Y14478
X26939Y34852
X27038Y38001
X27254Y6525
X27727Y39576
X28042Y6525
X28317Y38001
X28829Y6525
X28908Y39576
X29361Y5580
X29498Y38001
X30148Y5580
X30148Y4674
X30187Y39576
X30443Y6485
X31231Y6485
X31270Y23434
X32156Y23434
X33042Y23434
X33140Y30226
X33140Y29438
X33908Y6800
X33947Y23434
X34223Y32489
X34617Y31702
X34715Y33277
X35010Y5422
X35010Y3946
X35207Y32489
X35404Y39576
X35601Y38198
X36290Y39576
X36979Y31702
X40306Y32568
X41211Y32568
X42117Y32568
X42392Y6013
X42392Y5226
X42392Y4438
X42392Y3651
X42491Y33375
X42589Y25206
X43376Y33375
X43869Y32588
X44164Y39576
X45542Y39576
X47018Y39576
X48002Y6210
X48790Y6210
X49577Y6210
X50365Y6210
X54695Y39576
X54695Y38296
X199Y18321
X9400Y18552
X9657Y18235
X17884Y33947
X33566Y31055
X47315Y18674
X47684Y19037
X48645Y19642
X48896Y18997
X49648Y19328
X50266Y18983
X55089Y21466
X55089Y20678
X55089Y19104
X55089Y18316
X55089Y17529
X55876Y41938
X55876Y41151
X55876Y40363
X55876Y39576
X55876Y38789
X55876Y38001
X55876Y37214
X55876Y22253
X55876Y21466
X55876Y20678
X55876Y19104
X55876Y18316
X55876Y17529
X56270Y36426
X56270Y35639
X56270Y34852
X56270Y34064
X56270Y32883
X56270Y32096
X56270Y31308
X56270Y30521
X56270Y28946
X56270Y28159
X56270Y27371
X56270Y26584
X56270Y25403
X56270Y24615
X56270Y23828
X56270Y23041
X56270Y16741
X56270Y15954
X56270Y15167
X56270Y14379
X56270Y13198
X56270Y12411
X56270Y11623
X56270Y10836
X56270Y9261
X56270Y8474
X56270Y7686
X56270Y6899
X56270Y5718
X56270Y4930
X56270Y4143
X56270Y3356
X56270Y2568
X56270Y1781
X56270Y993
X57057Y36426
X57057Y35639
X57057Y34852
X57057Y34064
X57057Y32883
X57057Y32096
X57057Y31308
X57057Y30521
X57057Y28946
X57057Y28159
X57057Y27371
X57057Y26584
X57057Y25403
X57057Y24615
X57057Y23828
X57057Y23041
X57057Y16741
X57057Y15954
X57057Y15167
X57057Y14379
X57057Y13198
X57057Y12411
X57057Y11623
X57057Y10836
X57057Y9261
X57057Y8474
X57057Y7686
X57057Y6899
X57057Y5718
X57057Y4930
X57057Y4143
X57057Y3356
X57057Y2568
X57057Y1781
X57057Y993
X57845Y36426
X57845Y35639
X57845Y34852
X57845Y34064
X57845Y32883
X57845Y32096
X57845Y31308
X57845Y30521
X57845Y28946
X57845Y28159
X57845Y27371
X57845Y26584
X57845Y25403
X57845Y24615
X57845Y23828
X57845Y23041
X57845Y16741
X57845Y15954
X57845Y15167
X57845Y14379
X57845Y13198
X57845Y12411
X57845Y11623
X57845Y10836
X57845Y9261
X57845Y8474
X57845Y7686
X57845Y6899
X57845Y5718
X57845Y4930
X57845Y4143
X57845Y3356
X57845Y2568
X57845Y1781
X57845Y993
X58632Y36426
X58632Y35639
X58632Y34852
X58632Y34064
X58632Y32883
X58632Y32096
X58632Y31308
X58632Y30521
X58632Y28946
X58632Y28159
X58632Y27371
X58632Y26584
X58632Y25403
X58632Y24615
X58632Y23828
X58632Y23041
X58632Y16741
X58632Y15954
X58632Y15167
X58632Y14379
X58632Y13198
X58632Y12411
X58632Y11623
X58632Y10836
X58632Y9261
X58632Y8474
X58632Y7686
X58632Y6899
X58632Y5718
X58632Y4930
X58632Y4143
X58632Y3356
X58632Y2568
X58632Y1781
X58632Y993
X59420Y36426
X59420Y35639
X59420Y34852
X59420Y34064
X59420Y32883
X59420Y32096
X59420Y31308
X59420Y30521
X59420Y28946
X59420Y28159
X59420Y27371
X59420Y26584
X59420Y25403
X59420Y24615
X59420Y23828
X59420Y23041
X59420Y16741
X59420Y15954
X59420Y15167
X59420Y14379
X59420Y13198
X59420Y12411
X59420Y11623
X59420Y10836
X59420Y9261
X59420Y8474
X59420Y7686
X59420Y6899
X59420Y5718
X59420Y4930
X59420Y4143
X59420Y3356
X59420Y2568
X59420Y1781
X59420Y993
X60207Y36426
X60207Y35639
X60207Y34852
X60207Y34064
X60207Y32883
X60207Y32096
X60207Y31308
X60207Y30521
X60207Y28946
X60207Y28159
X60207Y27371
X60207Y26584
X60207Y25403
X60207Y24615
X60207Y23828
X60207Y23041
X60207Y16741
X60207Y15954
X60207Y15167
X60207Y14379
X60207Y13198
X60207Y12411
X60207Y11623
X60207Y10836
X60207Y9261
X60207Y8474
X60207Y7686
X60207Y6899
X60207Y5718
X60207Y4930
X60207Y4143
X60207Y3356
X60207Y2568
X60207Y1781
X60207Y993
X60994Y36426
X60994Y35639
X60994Y34852
X60994Y34064
X60994Y32883
X60994Y32096
X60994Y31308
X60994Y30521
X60994Y28946
X60994Y28159
X60994Y27371
X60994Y26584
X60994Y25403
X60994Y24615
X60994Y23828
X60994Y23041
X60994Y16741
X60994Y15954
X60994Y15167
X60994Y14379
X60994Y13198
X60994Y12411
X60994Y11623
X60994Y10836
X60994Y9261
X60994Y8474
X60994Y7686
X60994Y6899
X60994Y5718
X60994Y4930
X60994Y4143
X60994Y3356
X60994Y2568
X60994Y1781
X60994Y993
X61782Y36426
X61782Y35639
X61782Y34852
X61782Y34064
X61782Y32883
X61782Y32096
X61782Y31308
X61782Y30521
X61782Y28946
X61782Y28159
X61782Y27371
X61782Y26584
X61782Y25403
X61782Y24615
X61782Y23828
X61782Y23041
X61782Y16741
X61782Y15954
X61782Y15167
X61782Y14379
X61782Y13198
X61782Y12411
X61782Y11623
X61782Y10836
X61782Y9261
X61782Y8474
X61782Y7686
X61782Y6899
X61782Y5718
X61782Y4930
X61782Y4143
X61782Y3356
X61782Y2568
X61782Y1781
X62569Y36426
X62569Y35639
X62569Y34852
X62569Y34064
X62569Y32883
X62569Y32096
X62569Y31308
X62569Y30521
X62569Y28946
X62569Y28159
X62569Y27371
X62569Y26584
X62569Y25403
X62569Y24615
X62569Y23828
X62569Y23041
X62569Y16741
X62569Y15954
X62569Y15167
X62569Y14379
X62569Y13198
X62569Y12411
X62569Y11623
X62569Y10836
X62569Y9261
X62569Y8474
X62569Y7686
X62569Y6899
X62569Y5718
X62569Y4930
X62569Y4143
X62569Y3356
X62569Y2568
T03
X31703Y5491
X32018Y4802
X32333Y5491
X32648Y4802
X32963Y5491
X30896Y4891G85X30896Y5403
X33770Y4891G85X33770Y5403
X10686Y43940
X11572Y41479
X11670Y43940
X12654Y43940
X12851Y41479
X13639Y43940
X14131Y41479
X14623Y43940
X15410Y41479
X15607Y43940
X16591Y43940
X16690Y41479
X17576Y43940
X17969Y41479
X18560Y43940
X19249Y41479
X19544Y43940
X20529Y43940
X20529Y41479
X21513Y43940
X21808Y41479
X22399Y43644
X23088Y44235
X23088Y41479
X23678Y43644
X24367Y44235
X24367Y41479
X24958Y43644
X25647Y44235
X25647Y41479
X26237Y43644
X26926Y44235
X26926Y41479
X27517Y43644
X28206Y44235
X28206Y41479
X28796Y43644
X29485Y44235
X29485Y41479
X30076Y43644
X30765Y44235
X30765Y41479
X31355Y43644
X32044Y44235
X32044Y41479
X32635Y43644
X33324Y44235
X33324Y41479
X33914Y43644
X34603Y44235
X34603Y41479
X35194Y43644
X35883Y44235
X35883Y41479
X36473Y43644
X37162Y44235
X37162Y41479
X37753Y43644
X38442Y44235
X38442Y41479
X39032Y43644
X39721Y44235
X39721Y41479
X40312Y43644
X41001Y41479
X41296Y43940
X42280Y43940
X42280Y41479
X43265Y43940
X43560Y41479
X44249Y43940
X44840Y41479
X45233Y43940
X46119Y41479
X46217Y43940
X47202Y43940
X47399Y41479
X48186Y43940
X48678Y41479
X49170Y43940
X49958Y41479
X50154Y43940
X51139Y43940
X51237Y41479
X52123Y43940
X52517Y41479
X53107Y43940
X54091Y43940
T04
X36191Y4438
X37766Y4438
X8239Y39539
X8239Y38039
X8790Y15700
X8790Y14200
X9321Y39539
X9321Y38039
X10798Y39539
X10798Y38039
X11880Y39539
X11880Y38039
X12963Y39539
X12963Y38039
X14046Y39539
X14046Y38039
X15128Y39539
X15128Y38039
X16211Y39539
X16211Y38039
X16348Y13434
X16348Y12434
X16348Y11434
X16348Y10434
X16348Y9434
X16348Y8434
X17786Y39539
X17786Y38039
X18869Y39539
X18869Y38039
X20443Y39539
X20443Y38039
X21526Y39539
X21526Y38039
X22510Y39539
X22510Y38039
X24085Y39618
X24085Y38118
X30680Y36586
X30680Y35086
X31369Y39539
X31369Y38039
X31664Y36586
X31664Y35086
X32451Y39539
X32451Y38039
X33042Y36586
X33042Y35086
X33534Y39539
X33534Y38039
X34617Y39539
X34617Y38039
X35207Y36586
X35207Y35086
X36290Y36586
X36290Y35086
X37372Y39539
X37372Y38039
X37372Y36586
X37372Y35086
X38554Y39539
X38554Y38039
X38652Y36586
X38652Y35086
X39735Y39539
X39735Y38039
X42589Y36586
X42589Y35086
X43672Y36586
X43672Y35086
X44754Y36586
X44754Y35086
X45837Y36586
X45837Y35086
X46920Y36586
X46920Y35086
X48002Y36586
X48002Y35086
X49085Y36586
X49085Y35086
X49479Y39539
X49479Y38039
X50168Y36586
X50168Y35086
X51152Y39539
X51152Y38039
X51250Y36586
X51250Y35086
X52235Y39539
X52235Y38039
X53514Y39539
X53514Y38039
X30581Y3651
X31369Y3651
X32156Y3651
X32943Y3651
X33731Y3651
T05
X597Y35997
X597Y34997
X597Y33997
X597Y32997
X597Y31997
X597Y30997
X597Y29997
X597Y28997
X597Y27997
X597Y26997
X597Y25997
X597Y24997
X620Y8474
X731Y4537
X1565Y35997
X1565Y34997
X1565Y33997
X1565Y32997
X1565Y31997
X1565Y30997
X1565Y29997
X1565Y28997
X1565Y27997
X1565Y26997
X1565Y25997
X1565Y24997
X1620Y8474
X1731Y4537
X2597Y35997
X2597Y34997
X2597Y33997
X2597Y32997
X2597Y31997
X2597Y30997
X2597Y29997
X2597Y28997
X2597Y27997
X2597Y26997
X2597Y25997
X2597Y24997
X2620Y8474
X2731Y4537
X3597Y35997
X3597Y34997
X3597Y33997
X3597Y32997
X3597Y31997
X3597Y30997
X3597Y29997
X3597Y28997
X3597Y27997
X3597Y26997
X3597Y25997
X3597Y24997
X3620Y8474
X3731Y4537
X4597Y35997
X4597Y34997
X4597Y33997
X4597Y32997
X4597Y31997
X4597Y30997
X4597Y29997
X4597Y28997
X4597Y27997
X4597Y26997
X4597Y25997
X4597Y24997
X4620Y8474
X5252Y4340
X5286Y1426
X5620Y8474
X6014Y28995
X6014Y27995
X6014Y26995
X6014Y25995
X6014Y24995
X6270Y1426
X6532Y4340
X7254Y1426
X7811Y4340
X8239Y1426
X9091Y4340
X9223Y1426
X10207Y1426
X10567Y4340
X11191Y1426
X12043Y4340
X12176Y1426
X6743Y21623G85X6743Y22017
X7687Y22411G85X7687Y22804
X9144Y21623G85X9144Y22017
X9853Y22411G85X9853Y22804
X11309Y21623G85X11309Y22017
X28215Y4950
X26215Y4550
X26215Y5350
X29032Y13312
X28232Y13312
X28632Y11312
T06
X4213Y6505
X6378Y6505
T07
X1339Y6505
X11348Y15434
X11348Y6434
T08
X3005Y44825
X60371Y44727
X2926Y2230
X51426Y2230
M30
