G75*
G70*
%OFA0B0*%
%FSLAX25Y25*%
%IPPOS*%
%LPD*%
%AMOC8*
5,1,8,0,0,1.08239X$1,22.5*
%
%ADD10C,0.00787*%
%ADD195C,0.00079*%
X0000000Y0000000D02*
%LPD*%
G01*
D10*
X0057087Y0191960D02*
X0057087Y0243929D01*
X0564961Y0172275D02*
X0629921Y0172275D01*
X0629921Y0369126D02*
X0629921Y0224244D01*
X0000000Y0369126D02*
X0057087Y0369126D01*
X0618110Y0464401D02*
X0629921Y0452590D01*
X0000000Y0191960D02*
X0057087Y0191960D01*
X0057087Y0369126D02*
X0057087Y0421094D01*
X0629921Y0452590D02*
X0629921Y0421094D01*
X0000000Y0243929D02*
X0000000Y0369126D01*
X0564961Y0421094D02*
X0564961Y0369126D01*
X0564961Y0369126D02*
X0629921Y0369126D01*
X0011811Y0464401D02*
X0618110Y0464401D01*
X0057087Y0421094D02*
X0000000Y0421094D01*
X0629921Y0172275D02*
X0629921Y0023622D01*
X0057087Y0243929D02*
X0000000Y0243929D01*
X0629921Y0023622D02*
X0606299Y0000000D01*
X0000000Y0023622D02*
X0000000Y0191960D01*
X0564961Y0224244D02*
X0564961Y0172275D01*
X0629921Y0224244D02*
X0564961Y0224244D01*
X0629921Y0421094D02*
X0564961Y0421094D01*
X0023622Y0000000D02*
X0000000Y0023622D01*
X0000000Y0421094D02*
X0000000Y0452590D01*
X0606299Y0000000D02*
X0023622Y0000000D01*
X0000000Y0452590D02*
X0011811Y0464401D01*
X0001220Y0091280D02*
G01*
G75*
X0478055Y0126075D02*
G01*
G75*
X0286323Y0060327D02*
%LPD*%
G01*
D195*
X0286323Y0060327D02*
X0131402Y0060327D01*
X0131402Y0060327D02*
X0131402Y0000878D01*
X0131402Y0000878D02*
X0286323Y0000878D01*
X0286323Y0000878D02*
X0286323Y0060327D01*
X0339128Y0029100D02*
G01*
G75*
X0499561Y0030061D02*
G01*
G75*
X0332681Y0344592D02*
G01*
G75*
X0459354Y0313386D02*
G01*
G75*
X0003055Y0173466D02*
G01*
G75*
X0233173Y0337251D02*
G01*
G75*
X0501677Y0183602D02*
G01*
G75*
X0459748Y0228043D02*
G01*
G75*
X0003055Y0154766D02*
G01*
G75*
X0503990Y0004854D02*
G01*
G75*
M02*
