G75*
G70*
%OFA0B0*%
%FSLAX25Y25*%
%IPPOS*%
%LPD*%
%AMOC8*
5,1,8,0,0,1.08239X$1,22.5*
%
%AMM373*
21,1,0.078740,0.045670,-0.000000,0.000000,90.000000*
21,1,0.067320,0.057090,-0.000000,0.000000,90.000000*
1,1,0.011420,0.022840,-0.033660*
1,1,0.011420,0.022840,0.033660*
1,1,0.011420,-0.022840,0.033660*
1,1,0.011420,-0.022840,-0.033660*
%
%AMM374*
21,1,0.059060,0.020470,-0.000000,0.000000,90.000000*
21,1,0.053940,0.025590,-0.000000,0.000000,90.000000*
1,1,0.005120,0.010240,-0.026970*
1,1,0.005120,0.010240,0.026970*
1,1,0.005120,-0.010240,0.026970*
1,1,0.005120,-0.010240,-0.026970*
%
%AMM375*
21,1,0.033470,0.026770,-0.000000,0.000000,270.000000*
21,1,0.026770,0.033470,-0.000000,0.000000,270.000000*
1,1,0.006690,-0.013390,0.013390*
1,1,0.006690,-0.013390,-0.013390*
1,1,0.006690,0.013390,-0.013390*
1,1,0.006690,0.013390,0.013390*
%
%AMM376*
21,1,0.027560,0.030710,-0.000000,0.000000,90.000000*
21,1,0.022050,0.036220,-0.000000,0.000000,90.000000*
1,1,0.005510,0.015350,-0.011020*
1,1,0.005510,0.015350,0.011020*
1,1,0.005510,-0.015350,0.011020*
1,1,0.005510,-0.015350,-0.011020*
%
%ADD111O,0.00000X0.00000*%
%ADD634M373*%
%ADD635M374*%
%ADD636M375*%
%ADD637M376*%
X0000000Y0000000D02*
%LPD*%
G01*
G36*
G01*
X0451462Y0256487D02*
X0451462Y0257471D01*
G75*
G02*
X0451954Y0257964I0000492J0000000D01*
G01*
X0451954Y0257964D01*
G75*
G02*
X0452446Y0257471I0000000J-000492D01*
G01*
X0452446Y0256487D01*
G75*
G02*
X0451954Y0255995I-000492J0000000D01*
G01*
X0451954Y0255995D01*
G75*
G02*
X0451462Y0256487I0000000J0000492D01*
G01*
G37*
G36*
G01*
X0448115Y0257471D02*
X0448115Y0256487D01*
G75*
G02*
X0447623Y0255995I-000492J0000000D01*
G01*
X0447623Y0255995D01*
G75*
G02*
X0447131Y0256487I0000000J0000492D01*
G01*
X0447131Y0257471D01*
G75*
G02*
X0447623Y0257964I0000492J0000000D01*
G01*
X0447623Y0257964D01*
G75*
G02*
X0448115Y0257471I0000000J-000492D01*
G01*
G37*
G36*
G01*
X0443784Y0257471D02*
X0443784Y0256487D01*
G75*
G02*
X0443292Y0255995I-000492J0000000D01*
G01*
X0443292Y0255995D01*
G75*
G02*
X0442800Y0256487I0000000J0000492D01*
G01*
X0442800Y0257471D01*
G75*
G02*
X0443292Y0257964I0000492J0000000D01*
G01*
X0443292Y0257964D01*
G75*
G02*
X0443784Y0257471I0000000J-000492D01*
G01*
G37*
G36*
G01*
X0439454Y0257471D02*
X0439454Y0256487D01*
G75*
G02*
X0438962Y0255995I-000492J0000000D01*
G01*
X0438962Y0255995D01*
G75*
G02*
X0438469Y0256487I0000000J0000492D01*
G01*
X0438469Y0257471D01*
G75*
G02*
X0438962Y0257964I0000492J0000000D01*
G01*
X0438962Y0257964D01*
G75*
G02*
X0439454Y0257471I0000000J-000492D01*
G01*
G37*
G36*
G01*
X0435123Y0257471D02*
X0435123Y0256487D01*
G75*
G02*
X0434631Y0255995I-000492J0000000D01*
G01*
X0434631Y0255995D01*
G75*
G02*
X0434139Y0256487I0000000J0000492D01*
G01*
X0434139Y0257471D01*
G75*
G02*
X0434631Y0257964I0000492J0000000D01*
G01*
X0434631Y0257964D01*
G75*
G02*
X0435123Y0257471I0000000J-000492D01*
G01*
G37*
G36*
G01*
X0430792Y0257471D02*
X0430792Y0256487D01*
G75*
G02*
X0430300Y0255995I-000492J0000000D01*
G01*
X0430300Y0255995D01*
G75*
G02*
X0429808Y0256487I0000000J0000492D01*
G01*
X0429808Y0257471D01*
G75*
G02*
X0430300Y0257964I0000492J0000000D01*
G01*
X0430300Y0257964D01*
G75*
G02*
X0430792Y0257471I0000000J-000492D01*
G01*
G37*
G36*
G01*
X0426462Y0257471D02*
X0426462Y0256487D01*
G75*
G02*
X0425970Y0255995I-000492J0000000D01*
G01*
X0425970Y0255995D01*
G75*
G02*
X0425477Y0256487I0000000J0000492D01*
G01*
X0425477Y0257471D01*
G75*
G02*
X0425970Y0257964I0000492J0000000D01*
G01*
X0425970Y0257964D01*
G75*
G02*
X0426462Y0257471I0000000J-000492D01*
G01*
G37*
G36*
G01*
X0422131Y0257471D02*
X0422131Y0256487D01*
G75*
G02*
X0421639Y0255995I-000492J0000000D01*
G01*
X0421639Y0255995D01*
G75*
G02*
X0421147Y0256487I0000000J0000492D01*
G01*
X0421147Y0257471D01*
G75*
G02*
X0421639Y0257964I0000492J0000000D01*
G01*
X0421639Y0257964D01*
G75*
G02*
X0422131Y0257471I0000000J-000492D01*
G01*
G37*
G36*
G01*
X0417800Y0257471D02*
X0417800Y0256487D01*
G75*
G02*
X0417308Y0255995I-000492J0000000D01*
G01*
X0417308Y0255995D01*
G75*
G02*
X0416816Y0256487I0000000J0000492D01*
G01*
X0416816Y0257471D01*
G75*
G02*
X0417308Y0257964I0000492J0000000D01*
G01*
X0417308Y0257964D01*
G75*
G02*
X0417800Y0257471I0000000J-000492D01*
G01*
G37*
G36*
G01*
X0413470Y0257471D02*
X0413470Y0256487D01*
G75*
G02*
X0412977Y0255995I-000492J0000000D01*
G01*
X0412977Y0255995D01*
G75*
G02*
X0412485Y0256487I0000000J0000492D01*
G01*
X0412485Y0257471D01*
G75*
G02*
X0412977Y0257964I0000492J0000000D01*
G01*
X0412977Y0257964D01*
G75*
G02*
X0413470Y0257471I0000000J-000492D01*
G01*
G37*
G36*
G01*
X0409139Y0257471D02*
X0409139Y0256487D01*
G75*
G02*
X0408647Y0255995I-000492J0000000D01*
G01*
X0408647Y0255995D01*
G75*
G02*
X0408155Y0256487I0000000J0000492D01*
G01*
X0408155Y0257471D01*
G75*
G02*
X0408647Y0257964I0000492J0000000D01*
G01*
X0408647Y0257964D01*
G75*
G02*
X0409139Y0257471I0000000J-000492D01*
G01*
G37*
G36*
G01*
X0404808Y0257471D02*
X0404808Y0256487D01*
G75*
G02*
X0404316Y0255995I-000492J0000000D01*
G01*
X0404316Y0255995D01*
G75*
G02*
X0403824Y0256487I0000000J0000492D01*
G01*
X0403824Y0257471D01*
G75*
G02*
X0404316Y0257964I0000492J0000000D01*
G01*
X0404316Y0257964D01*
G75*
G02*
X0404808Y0257471I0000000J-000492D01*
G01*
G37*
G36*
G01*
X0400477Y0257471D02*
X0400477Y0256487D01*
G75*
G02*
X0399985Y0255995I-000492J0000000D01*
G01*
X0399985Y0255995D01*
G75*
G02*
X0399493Y0256487I0000000J0000492D01*
G01*
X0399493Y0257471D01*
G75*
G02*
X0399985Y0257964I0000492J0000000D01*
G01*
X0399985Y0257964D01*
G75*
G02*
X0400477Y0257471I0000000J-000492D01*
G01*
G37*
G36*
G01*
X0396147Y0257471D02*
X0396147Y0256487D01*
G75*
G02*
X0395655Y0255995I-000492J0000000D01*
G01*
X0395655Y0255995D01*
G75*
G02*
X0395162Y0256487I0000000J0000492D01*
G01*
X0395162Y0257471D01*
G75*
G02*
X0395655Y0257964I0000492J0000000D01*
G01*
X0395655Y0257964D01*
G75*
G02*
X0396147Y0257471I0000000J-000492D01*
G01*
G37*
G36*
G01*
X0391816Y0257471D02*
X0391816Y0256487D01*
G75*
G02*
X0391324Y0255995I-000492J0000000D01*
G01*
X0391324Y0255995D01*
G75*
G02*
X0390832Y0256487I0000000J0000492D01*
G01*
X0390832Y0257471D01*
G75*
G02*
X0391324Y0257964I0000492J0000000D01*
G01*
X0391324Y0257964D01*
G75*
G02*
X0391816Y0257471I0000000J-000492D01*
G01*
G37*
G36*
G01*
X0387485Y0257471D02*
X0387485Y0256487D01*
G75*
G02*
X0386993Y0255995I-000492J0000000D01*
G01*
X0386993Y0255995D01*
G75*
G02*
X0386501Y0256487I0000000J0000492D01*
G01*
X0386501Y0257471D01*
G75*
G02*
X0386993Y0257964I0000492J0000000D01*
G01*
X0386993Y0257964D01*
G75*
G02*
X0387485Y0257471I0000000J-000492D01*
G01*
G37*
G36*
G01*
X0383155Y0257471D02*
X0383155Y0256487D01*
G75*
G02*
X0382663Y0255995I-000492J0000000D01*
G01*
X0382663Y0255995D01*
G75*
G02*
X0382170Y0256487I0000000J0000492D01*
G01*
X0382170Y0257471D01*
G75*
G02*
X0382663Y0257964I0000492J0000000D01*
G01*
X0382663Y0257964D01*
G75*
G02*
X0383155Y0257471I0000000J-000492D01*
G01*
G37*
G36*
G01*
X0378824Y0257471D02*
X0378824Y0256487D01*
G75*
G02*
X0378332Y0255995I-000492J0000000D01*
G01*
X0378332Y0255995D01*
G75*
G02*
X0377840Y0256487I0000000J0000492D01*
G01*
X0377840Y0257471D01*
G75*
G02*
X0378332Y0257964I0000492J0000000D01*
G01*
X0378332Y0257964D01*
G75*
G02*
X0378824Y0257471I0000000J-000492D01*
G01*
G37*
G36*
G01*
X0374493Y0257471D02*
X0374493Y0256487D01*
G75*
G02*
X0374001Y0255995I-000492J0000000D01*
G01*
X0374001Y0255995D01*
G75*
G02*
X0373509Y0256487I0000000J0000492D01*
G01*
X0373509Y0257471D01*
G75*
G02*
X0374001Y0257964I0000492J0000000D01*
G01*
X0374001Y0257964D01*
G75*
G02*
X0374493Y0257471I0000000J-000492D01*
G01*
G37*
G36*
G01*
X0370163Y0257471D02*
X0370163Y0256487D01*
G75*
G02*
X0369670Y0255995I-000492J0000000D01*
G01*
X0369670Y0255995D01*
G75*
G02*
X0369178Y0256487I0000000J0000492D01*
G01*
X0369178Y0257471D01*
G75*
G02*
X0369670Y0257964I0000492J0000000D01*
G01*
X0369670Y0257964D01*
G75*
G02*
X0370163Y0257471I0000000J-000492D01*
G01*
G37*
G36*
G01*
X0365832Y0257471D02*
X0365832Y0256487D01*
G75*
G02*
X0365340Y0255995I-000492J0000000D01*
G01*
X0365340Y0255995D01*
G75*
G02*
X0364848Y0256487I0000000J0000492D01*
G01*
X0364848Y0257471D01*
G75*
G02*
X0365340Y0257964I0000492J0000000D01*
G01*
X0365340Y0257964D01*
G75*
G02*
X0365832Y0257471I0000000J-000492D01*
G01*
G37*
G36*
G01*
X0361501Y0257471D02*
X0361501Y0256487D01*
G75*
G02*
X0361009Y0255995I-000492J0000000D01*
G01*
X0361009Y0255995D01*
G75*
G02*
X0360517Y0256487I0000000J0000492D01*
G01*
X0360517Y0257471D01*
G75*
G02*
X0361009Y0257964I0000492J0000000D01*
G01*
X0361009Y0257964D01*
G75*
G02*
X0361501Y0257471I0000000J-000492D01*
G01*
G37*
G36*
G01*
X0357170Y0257471D02*
X0357170Y0256487D01*
G75*
G02*
X0356678Y0255995I-000492J0000000D01*
G01*
X0356678Y0255995D01*
G75*
G02*
X0356186Y0256487I0000000J0000492D01*
G01*
X0356186Y0257471D01*
G75*
G02*
X0356678Y0257964I0000492J0000000D01*
G01*
X0356678Y0257964D01*
G75*
G02*
X0357170Y0257471I0000000J-000492D01*
G01*
G37*
G36*
G01*
X0352840Y0257471D02*
X0352840Y0256487D01*
G75*
G02*
X0352348Y0255995I-000492J0000000D01*
G01*
X0352348Y0255995D01*
G75*
G02*
X0351855Y0256487I0000000J0000492D01*
G01*
X0351855Y0257471D01*
G75*
G02*
X0352348Y0257964I0000492J0000000D01*
G01*
X0352348Y0257964D01*
G75*
G02*
X0352840Y0257471I0000000J-000492D01*
G01*
G37*
G36*
G01*
X0348509Y0257471D02*
X0348509Y0256487D01*
G75*
G02*
X0348017Y0255995I-000492J0000000D01*
G01*
X0348017Y0255995D01*
G75*
G02*
X0347525Y0256487I0000000J0000492D01*
G01*
X0347525Y0257471D01*
G75*
G02*
X0348017Y0257964I0000492J0000000D01*
G01*
X0348017Y0257964D01*
G75*
G02*
X0348509Y0257471I0000000J-000492D01*
G01*
G37*
G36*
G01*
X0344178Y0257471D02*
X0344178Y0256487D01*
G75*
G02*
X0343686Y0255995I-000492J0000000D01*
G01*
X0343686Y0255995D01*
G75*
G02*
X0343194Y0256487I0000000J0000492D01*
G01*
X0343194Y0257471D01*
G75*
G02*
X0343686Y0257964I0000492J0000000D01*
G01*
X0343686Y0257964D01*
G75*
G02*
X0344178Y0257471I0000000J-000492D01*
G01*
G37*
D111*
X0181396Y0335719D03*
X0185235Y0335326D03*
X0188659Y0335719D03*
X0191534Y0335719D03*
X0195057Y0335719D03*
X0203226Y0335719D03*
X0206770Y0335719D03*
X0209566Y0335719D03*
X0213582Y0335326D03*
X0218208Y0335326D03*
X0223522Y0335326D03*
X0228148Y0335326D03*
X0231692Y0331663D03*
X0231692Y0328928D03*
X0231692Y0326250D03*
X0231318Y0323023D03*
X0231692Y0317884D03*
X0231318Y0314066D03*
X0231692Y0309046D03*
X0231692Y0306487D03*
X0231318Y0301763D03*
X0231318Y0297530D03*
X0231318Y0294086D03*
X0231692Y0290838D03*
X0231692Y0267806D03*
X0463932Y0064597D03*
X0460901Y0006231D03*
X0433420Y0011250D03*
G36*
X0092100Y0092166D02*
G01*
X0102122Y0102188D01*
X0109360Y0094950D01*
X0099338Y0084928D01*
X0092100Y0092166D01*
G37*
G36*
X0010532Y0173733D02*
G01*
X0020554Y0183755D01*
X0027792Y0176517D01*
X0017770Y0166495D01*
X0010532Y0173733D01*
G37*
X0503990Y0004854D02*
G01*
G75*
D634*
X0486372Y0052885D02*
D03*
X0486372Y0020208D02*
D03*
X0432238Y0020208D02*
D03*
X0432238Y0052885D02*
D03*
D635*
X0441608Y0042649D02*
D03*
X0445939Y0042649D02*
D03*
X0450270Y0042649D02*
D03*
X0454600Y0042649D02*
D03*
X0458931Y0042649D02*
D03*
X0463262Y0042649D02*
D03*
X0467592Y0042649D02*
D03*
X0471923Y0042649D02*
D03*
D636*
X0492277Y0057452D02*
D03*
X0492277Y0063673D02*
D03*
X0496903Y0057452D02*
D03*
X0496903Y0063673D02*
D03*
D637*
X0501431Y0063712D02*
D03*
X0501431Y0057413D02*
D03*
M02*
