M48
INCH,TZ
T01C0.013750
T02C0.017850
T03C0.029550
T04C0.032000
T05C0.039200
T06C0.045250
T07C0.070900
T08C0.078700
T09C0.119050
T10C0.169300
%
T01
X467Y11894
X2612Y14591
X2619Y12531
X3360Y12337
X5850Y15112
X30763Y1867
X30793Y469
X30881Y2369
X31226Y2162
X34995Y290
X39287Y290
X43429Y3902
X44572Y3635
X44877Y290
X45448Y3635
X46305Y3635
X46767Y3635
X47176Y16234
X47176Y15466
X47176Y14443
X47691Y15978
X47869Y15339
X47898Y14276
X47898Y15004
X47904Y13528
X47983Y14659
X48347Y9576
X48431Y3899
X48554Y9920
X48849Y9458
X49051Y5830
X49159Y1786
X49508Y13409
X49705Y290
X50246Y9487
X199Y18321
X207Y18985
X463Y10836
X463Y9852
X660Y17627
X660Y15757
X1063Y2441
X1743Y10836
X1743Y9852
X3317Y304
X4203Y304
X4991Y2765
X5443Y35304
X5778Y3060
X6664Y15198
X6925Y2765
X7057Y8375
X7156Y20481
X7156Y19694
X7254Y38001
X7353Y9852
X7362Y12284
X7441Y11024
X7648Y6111
X7687Y33139
X7746Y25796
X7746Y18611
X7746Y2765
X7788Y14519
X7845Y17332
X8239Y21820
X8317Y37174
X8455Y16783
X8534Y32588
X8534Y31997
X8578Y22514
X8790Y14200
X8928Y11131
X9189Y2863
X9223Y33867
X9320Y18119
X9321Y25993
X9400Y18552
X9420Y19694
X9459Y18907
X9617Y6111
X9657Y18235
X9715Y20875
X10109Y12312
X10551Y16929
X11034Y17293
X11113Y11426
X11152Y12253
X11329Y20619
X11354Y403
X11378Y4724
X11417Y3819
X11772Y18268
X11782Y17647
X12372Y15265
X12451Y37922
X12732Y403
X12795Y4173
X12953Y2126
X12953Y1536
X12963Y5816
X13002Y15363
X13987Y7765
X14144Y15659
X14735Y14084
X17244Y37371
X17392Y15127
X17687Y34852
X17983Y15659
X18770Y13789
X18987Y7745
X19164Y35934
X19951Y34359
X20109Y35954
X21228Y34268
X22412Y13493
X22412Y9458
X22846Y9497
X22874Y13178
X22954Y16927
X23181Y17154
X23194Y13690
X23238Y35206
X23435Y13178
X23494Y27174
X23494Y16682
X23543Y39134
X23544Y32558
X23554Y25285
X23593Y29005
X23766Y32781
X23810Y21564
X23865Y9474
X23987Y30915
X24085Y27174
X24144Y15147
X24183Y35344
X24183Y13178
X24498Y22485
X24971Y19694
X25050Y35442
X25069Y21269
X25144Y17801
X25276Y38898
X25365Y16161
X25896Y30107
X26447Y38789
X26447Y37509
X26447Y35541
X26565Y16604
X26743Y24812
X26762Y23415
X26832Y16338
X26895Y16016
X26920Y22194
X26961Y18239
X27254Y23434
X27338Y18125
X27471Y16328
X27490Y12558
X27490Y12873
X27491Y12214
X27628Y38789
X27648Y6544
X28199Y27607
X28790Y245
X28908Y38789
X29006Y36722
X29203Y3552
X29203Y993
X29991Y36722
X30089Y38789
X30246Y38060
X30719Y5915
X31073Y37509
X31290Y4517
X31339Y25127
X32097Y31033
X32097Y30482
X32353Y29832
X32372Y35029
X32609Y23434
X33180Y4438
X33189Y29074
X33504Y31969
X33566Y31055
X33573Y28769
X33573Y27135
X33632Y33277
X33928Y22962
X33967Y35029
X34124Y36722
X34124Y501
X34617Y34419
X34912Y37509
X35010Y32056
X35040Y33956
X35207Y39084
X35581Y7371
X35630Y4930
X35827Y33139
X35827Y32795
X36250Y34044
X36288Y31995
X36325Y31624
X36388Y38898
X36388Y37607
X36467Y32509
X37097Y33001
X37668Y34163
X37716Y5591
X38042Y39989
X38160Y36879
X38445Y32736
X38556Y5053
X38583Y4560
X38652Y31978
X38869Y31505
X38898Y34252
X39006Y4856
X39065Y33356
X39145Y34803
X39164Y32627
X39164Y31643
X39302Y35512
X39479Y4856
X39808Y4895
X40207Y33334
X40246Y5265
X40315Y36260
X40561Y33356
X40748Y35236
X40837Y31918
X41186Y4895
X41211Y33336
X41345Y37651
X41614Y35276
X42087Y37323
X42087Y36654
X42333Y6742
X42520Y36142
X42657Y6732
X43002Y32588
X44085Y4812
X44774Y25363
X44774Y22922
X45039Y34528
X45128Y6735
X45896Y23257
X46152Y6735
X46526Y29537
X46526Y28257
X46526Y26781
X47122Y31218
X47412Y21170
X47412Y20481
X49166Y20704
X49341Y20442
X49498Y26033
X49577Y23985
X49813Y19655
X50266Y3552
X50463Y600
X50483Y18110
X50495Y18958
X50680Y18670
X50680Y18356
X51113Y6584
X51152Y40560
X51664Y29458
X51968Y28701
X52323Y26024
X52324Y23268
X52451Y28670
X52538Y25612
X52589Y32391
X52589Y12726
X52589Y8985
X52618Y23957
X52907Y24404
X52913Y5039
X52953Y36732
X53189Y17008
X53238Y25627
X53573Y35048
X53573Y34537
X53573Y34025
X53612Y31111
X53612Y30600
X53612Y30088
X53612Y27371
X53612Y26859
X53612Y26348
X53612Y23434
X53612Y22922
X53612Y22411
X53612Y15363
X53612Y14852
X53612Y14340
X53612Y11426
X53612Y10915
X53612Y10403
X53612Y7686
X53612Y7174
X53612Y6663
X53612Y4143
X53612Y3631
X53612Y3119
X53966Y35048
X53966Y34025
X54006Y31111
X54006Y30088
X54006Y27371
X54006Y26348
X54006Y23434
X54006Y22411
X54006Y15363
X54006Y14340
X54006Y11426
X54006Y10403
X54006Y7686
X54006Y6663
X54006Y4143
X54006Y3119
X62412Y34458
X62491Y14733
X62491Y7096
X62491Y3592
X62495Y27017
X62495Y23395
X62535Y30521
X62535Y10875
X13357Y5383
X13357Y4989
X13357Y4596
X13357Y4202
X28416Y3769
X28416Y3375
X28416Y1978
X28416Y1584
X2235Y10639
X6259Y20571
X6565Y12607
X6591Y24995
X6762Y12903
X7004Y24995
X7057Y30619
X7057Y13530
X7057Y13198
X7727Y16254
X8239Y27765
X9223Y23926
X9420Y27765
X9813Y10324
X10325Y8356
X11782Y33670
X11782Y32883
X11782Y32096
X11782Y31308
X11782Y30521
X11782Y29733
X11782Y28946
X11782Y28159
X11782Y27371
X11782Y26584
X11782Y25796
X11782Y25009
X11782Y24222
X11782Y11623
X11782Y10048
X13357Y12804
X13357Y11623
X14459Y7883
X15128Y12509
X15128Y11525
X15128Y10442
X15128Y9359
X15128Y8375
X15522Y14478
X17018Y33907
X17195Y12607
X17491Y34359
X17589Y10245
X17589Y9556
X17796Y37322
X18180Y13887
X18371Y13488
X18376Y12607
X18667Y13193
X18869Y10245
X18869Y9556
X19951Y13887
X19951Y12903
X20010Y7863
X20050Y10147
X20050Y8966
X20345Y13296
X20345Y9556
X20542Y13887
X20542Y8966
X20542Y7844
X20739Y12903
X20739Y10147
X20857Y13434
X21211Y13434
X21285Y7967
X21548Y8229
X22038Y7273
X23298Y9753
X23652Y29399
X23672Y30068
X23689Y31714
X24093Y29395
X24441Y9517
X24548Y14704
X24557Y15088
X24724Y9527
X25542Y7400
X25857Y12804
X25857Y10245
X25857Y9852
X25916Y8867
X25994Y15088
X26152Y13100
X27451Y11564
X28061Y34517
X28120Y31013
X28691Y35442
X29321Y29576
X32530Y28139
X32550Y26170
X33632Y24911
X34109Y1308
X34144Y2096
X34400Y2765
X36998Y4261
X40325Y3611
X40857Y5147
X41664Y3985
X48435Y7883
X49931Y7883
X50365Y15068
X50680Y12373
X466Y11894
X2619Y12531
X3360Y12337
X2612Y14591
X5850Y15112
X48554Y9921
X48347Y9577
X48849Y9458
X50247Y9488
X28455Y285
X28435Y1230
X28396Y3021
X28376Y2332
X28356Y5757
X28215Y4019
X28067Y4287
X27982Y777
X27766Y5502
X27530Y4517
X27451Y5482
X27225Y3050
X27215Y3789
X27199Y1187
X27195Y2096
X27018Y738
X26644Y5679
X26250Y3750
X26191Y1722
X26152Y2899
X25955Y5797
X25896Y344
X25640Y5265
X25620Y4222
X25581Y718
X25266Y3056
X25187Y3376
X25010Y2706
X24931Y521
X24774Y3651
X24695Y2017
X24636Y5797
X24223Y3120
X23986Y2096
X23888Y3907
X23868Y541
X23455Y5718
X23323Y1622
X23258Y2982
X23026Y3352
X23003Y2602
X23002Y1663
X23002Y1978
X22648Y4379
X22648Y4714
X22392Y5521
X22352Y1112
X21919Y3356
X21900Y5816
X21841Y1564
X21526Y5231
X21523Y2862
X21388Y4931
X21329Y816
X20404Y4379
X20246Y3809
X20167Y2785
X20010Y3100
X19990Y1407
X19872Y639
X19793Y935
X19459Y5816
X19360Y1879
X19341Y5226
X19223Y4124
X19065Y3257
X19065Y3612
X18967Y2765
X18927Y974
X18632Y1879
X18323Y2562
X18297Y5324
X18101Y1525
X17913Y4122
X17805Y5521
X17372Y620
X17372Y1820
X17175Y324
X17175Y2824
X17173Y3462
X17173Y4419
X17162Y3841
X17136Y5049
X17136Y5757
X16191Y2450
X14498Y299
X14380Y5088
X14380Y5718
X14223Y1624
X14223Y2017
X13829Y1624
X13829Y2017
X13789Y5088
X13750Y4183
X13396Y324
X13337Y5816
X28415Y1584
X28415Y1978
X28415Y3376
X28415Y3769
X13356Y4202
X13356Y4596
X13356Y4990
X13356Y5383
X31226Y2162
X30882Y2369
X30763Y1867
X30793Y469
X49159Y1786
X49705Y289
X44877Y289
X39287Y289
X34995Y289
X45679Y30611
X45423Y29557
X45266Y29282
X45585Y28322
X45594Y27400
X44556Y27405
X44104Y27028
X43723Y27086
X43169Y27058
X42785Y27120
X42431Y27016
X42047Y27120
X41348Y27166
X40994Y27077
X40551Y27048
X40128Y27195
X39911Y27447
X39665Y27166
X39242Y27058
X38829Y26969
X38366Y27008
X38238Y27451
X37933Y27166
X37539Y27028
X37165Y27117
X36663Y27117
X36250Y27166
X36526Y27461
X36860Y27806
X36398Y28180
X35807Y29065
X35482Y29065
X35896Y29381
X35925Y29774
X36240Y29764
X36602Y29779
X36929Y29833
X37473Y30136
X37490Y29046
X37814Y29046
X38081Y28199
X38533Y27874
X39774Y28199
X40236Y27865
X41506Y28199
X41900Y27874
X41613Y27450
X43169Y27804
X43464Y28178
X43295Y28445
X43957Y28849
X43966Y29164
X43957Y29479
X44016Y30059
X43583Y29764
X43248Y29735
X42926Y29742
X42589Y29758
X42096Y29754
X41781Y29743
X41287Y29759
X40965Y29754
X40443Y29676
X40127Y29753
X39026Y29907
X38560Y29754
X39084Y29054
X39478Y29046
X35079Y29715
X34764Y29735
X34449Y29813
X34163Y30365
X34123Y29192
X34204Y28731
X34695Y28248
X35078Y27932
X34833Y27500
X34941Y27087
X34557Y27166
X34065Y27156
X35541Y27166
X35856Y26962
X45049Y26565
X44547Y28258
X43819Y30857
X23051Y29083
X21496Y28931
X21486Y28489
X21683Y27564
X21211Y27534
X21358Y27199
X21152Y26648
X21014Y26362
X21004Y26038
X20512Y25445
X20512Y25115
X20177Y25073
X20817Y24512
X20412Y24002
X19931Y24039
X19626Y24148
X19045Y24463
X19370Y23115
X19370Y22898
X19577Y22855
X19577Y22540
X19647Y22093
X21467Y22105
X21772Y22026
X22028Y22700
X22264Y22705
X22264Y22951
X22411Y23459
X22648Y23469
X22971Y23599
X22992Y23276
X23010Y23914
X23020Y24229
X23022Y24556
X23041Y24920
X23041Y25235
X22884Y25536
X22884Y25792
X22943Y26780
X22549Y27818
X20581Y27715
X20581Y27922
X20581Y27479
X18612Y27469
X18612Y27705
X18612Y27942
X18297Y27705
X18297Y27469
X18297Y27233
X18612Y27131
X17982Y27381
X17982Y27617
X17982Y27853
X16949Y28138
X16702Y29020
X16427Y29197
X16476Y29552
X16595Y30142
X16392Y30794
X15161Y30675
X15069Y30172
X14843Y29670
X15039Y29355
X14159Y29699
X13711Y29414
X13179Y29217
X12776Y29674
X12776Y29920
X12776Y30166
X13051Y30658
X13061Y30904
X13061Y31170
X14191Y30886
X14260Y30667
X14193Y31599
X14695Y31766
X15049Y32190
X15610Y32819
X14242Y32849
X17008Y33424
X17303Y33424
X18061Y31068
X18061Y29621
X17400Y29574
X20128Y29752
X20345Y30329
X21614Y29821
X21408Y29581
X21240Y23512
X20994Y23512
X20742Y23512
X21083Y21554
X20797Y21249
X20807Y20048
X19931Y20087
X19707Y18997
X19301Y19005
X19203Y18699
X19439Y18483
X19762Y18481
X19962Y18762
X20254Y18599
X20266Y18918
X20571Y18778
X20610Y19093
X22402Y18375
X22474Y20186
X22608Y20499
X22608Y20814
X21868Y20765
X18474Y20910
X18032Y21107
X17982Y21501
X17185Y21888
X17352Y23272
X17352Y23489
X17559Y23558
X17776Y23325
X16643Y24305
X14823Y23833
X14526Y23462
X14085Y22721
X14080Y22478
X14124Y21727
X13740Y21727
X13278Y21894
X13284Y20937
X12923Y20733
X13625Y20499
X13517Y19580
X13278Y19060
X12781Y18932
X12864Y19375
X12519Y18205
X13543Y18390
X14085Y18764
X14813Y18837
X14862Y18282
X14587Y19316
X15094Y20102
X15374Y20260
X15285Y20732
X14872Y20369
X14872Y21352
X14390Y21530
X14386Y20907
X14715Y22003
X15541Y21579
X15807Y19654
X16240Y19654
X16630Y19654
X17121Y19689
X17628Y19812
X18130Y19644
X18199Y19965
X18573Y19942
X18848Y18325
X17786Y18670
X18002Y26304
X16957Y26886
X15030Y26583
X14774Y27006
X14695Y27577
X15307Y27947
X13455Y27843
X13455Y27597
X13455Y27351
X13455Y27105
X13455Y26859
X13846Y26828
X14498Y26180
X14695Y25727
X14508Y24672
X13730Y24079
X13396Y24241
X13258Y23193
X12343Y21589
X12697Y17800
X13386Y17455
X15628Y17949
X16130Y17949
X16622Y17949
X17156Y17853
X17648Y17853
X19223Y17823
X21959Y17115
X22451Y17105
X47692Y15978
X47176Y16234
X47176Y15466
X47869Y15338
X47898Y15004
X47983Y14659
X47898Y14275
X47904Y13527
X47176Y14443
X49509Y13409
X45611Y22548
X45001Y22263
X44627Y22282
X44184Y21702
X43662Y21505
X43692Y21190
X44026Y20560
X44853Y20688
X45188Y21200
X45178Y21751
X43160Y21761
X42471Y21771
X42225Y21977
X41812Y22302
X41378Y22312
X41566Y21790
X42038Y21308
X42432Y21259
X42323Y20767
X41851Y20845
X41152Y21210
X40936Y20393
X40384Y20481
X40394Y19999
X40325Y19487
X40305Y19054
X40640Y19074
X41349Y19143
X41142Y18749
X41703Y18818
X41694Y18335
X41418Y17981
X40995Y17548
X41211Y16760
X41023Y16288
X41245Y16003
X41516Y15835
X41565Y14802
X41885Y14885
X41093Y14969
X39482Y15045
X39188Y14920
X39213Y15530
X39056Y16160
X39016Y16662
X39803Y16721
X39853Y16239
X40128Y17291
X39794Y17863
X39312Y17883
X39508Y17627
X40453Y18188
X39922Y18946
X39646Y19428
X39341Y19280
X39292Y19595
X39075Y20038
X38573Y19753
X38258Y19700
X38564Y19261
X38868Y19349
X37577Y19045
X37343Y19261
X37284Y20393
X38081Y20432
X37776Y20855
X37904Y21150
X38721Y20914
X39183Y20776
X39430Y21013
X39873Y20944
X39735Y20383
X39577Y21515
X40335Y21505
X39420Y22194
X37392Y22056
X37166Y21830
X36486Y21898
X36497Y22213
X36516Y21347
X36792Y20796
X36398Y19888
X35305Y19497
X35010Y19339
X34110Y19209
X34094Y18886
X33810Y19034
X33682Y19330
X33692Y19645
X33219Y19645
X32569Y20019
X32560Y20924
X32303Y21141
X31999Y21003
X31644Y20973
X31486Y20501
X31162Y20498
X30846Y20481
X31851Y20501
X31781Y19398
X31457Y19398
X31142Y19389
X30788Y19398
X32215Y18670
X32550Y18670
X32629Y16495
X32796Y16219
X32953Y15944
X33258Y16032
X33367Y15688
X33426Y15019
X34430Y14881
X34537Y14093
X34468Y13777
X33677Y13646
X33681Y13995
X33121Y14074
X32884Y13837
X31782Y13680
X31310Y13710
X30465Y14802
X31487Y15511
X31789Y15396
X31251Y15786
X30940Y16099
X33878Y16790
X34961Y16652
X35188Y17893
X35482Y18050
X35778Y17853
X36064Y17715
X36221Y17440
X37008Y17400
X37501Y17204
X37688Y16820
X37875Y16091
X38140Y15908
X38416Y15658
X38071Y15294
X38022Y14585
X38573Y14408
X38760Y13582
X37943Y13748
X37746Y12321
X37565Y12056
X37510Y11652
X37284Y11426
X38140Y11839
X38042Y12164
X38318Y12322
X38564Y12105
X39932Y12292
X40099Y12763
X41251Y13217
X41487Y13001
X42097Y13168
X43603Y13316
X43514Y13828
X43751Y14044
X44430Y13808
X44115Y13444
X44036Y12607
X43829Y11830
X43209Y11869
X43573Y10966
X43406Y10215
X43455Y9861
X44194Y9733
X44459Y9556
X44381Y8975
X44125Y9162
X43249Y8936
X42973Y9162
X42678Y9448
X42284Y9812
X42264Y8808
X41568Y8991
X41231Y8601
X40906Y8650
X41418Y9586
X40778Y10550
X39508Y10589
X39508Y10904
X39381Y9654
X39066Y9664
X39036Y8828
X39341Y8749
X37914Y9389
X37274Y9467
X36875Y9368
X36388Y9182
X36073Y9211
X35768Y9329
X35345Y9015
X35020Y9231
X34312Y9162
X34312Y8670
X33209Y9477
X32903Y9339
X32599Y9241
X32442Y9517
X32119Y9515
X31802Y9515
X31280Y8847
X30571Y9044
X30516Y9562
X31005Y9940
X31270Y10904
X31644Y10589
X32264Y10313
X32963Y10914
X32963Y11229
X32844Y11613
X33632Y11357
X33662Y12617
X33938Y12774
X34725Y12656
X34971Y12873
X35197Y13158
X35128Y14418
X35286Y15363
X36250Y15215
X36753Y14979
X36998Y14772
X37126Y15461
X37441Y15540
X37195Y16180
X36713Y16160
X36113Y15835
X35915Y13780
X36083Y10589
X36418Y10589
X37058Y8532
X41014Y11702
X42186Y11141
X42717Y10826
X42921Y10483
X44745Y11830
X45355Y11849
X45670Y11141
X45050Y12774
X45384Y13572
X45434Y14684
X45739Y14605
X45148Y15521
X45047Y15835
X44725Y15954
X44755Y16554
X44223Y16337
X43406Y16012
X43305Y16613
X42510Y16426
X42467Y17259
X43918Y17243
X44400Y17322
X44479Y17637
X45266Y17794
X45178Y18306
X44233Y18454
X43603Y18326
X43564Y17804
X42589Y18700
X42235Y18690
X42816Y19861
X45709Y19113
X45621Y16534
X44705Y15176
X44942Y8414
X44597Y8276
X38170Y17952
X34253Y18021
X34085Y20373
X33770Y20353
X34656Y20540
X35365Y20530
X35109Y21426
X34784Y21288
X34390Y21318
X34105Y21465
X33760Y22460
X35296Y21967
X32274Y21613
X31556Y22282
X31704Y11534
X30306Y11967
X30237Y12912
X29288Y12932
X29282Y12145
X29095Y11200
X29046Y10506
X28731Y10540
X28436Y10412
X28249Y10708
X28131Y10196
X28573Y9428
X28928Y9675
X29409Y10195
X29726Y10215
X30193Y9551
X29814Y8749
X29440Y9103
X28357Y8956
X27983Y9074
X28141Y11859
X28160Y12440
X28662Y15137
X28436Y15639
X29104Y15491
X29342Y15491
X29882Y14999
X29666Y17922
X29271Y18129
X28888Y18129
X28396Y17922
X28475Y17568
X28190Y18178
X28219Y19704
X28199Y20422
X28457Y21276
X28859Y21416
X29479Y21652
X29475Y22095
X29981Y20875
X29932Y19822
X29587Y19822
X29760Y19231
X30157Y18079
X48430Y3899
X46767Y3635
X46305Y3635
X45448Y3635
X44572Y3635
X43429Y3903
X49051Y5829
T02
X17884Y33947
X6270Y39576
X7254Y39576
X10010Y16446
X11408Y17647
X11408Y16859
X12274Y34359
X13160Y34359
X14046Y34359
X14931Y34359
X15916Y35442
X16998Y39576
X19164Y35226
X19656Y39576
X19656Y36013
X19754Y37509
X20050Y35226
X20542Y36013
X20935Y35226
X22510Y35226
X23002Y36013
X23298Y39576
X23790Y31308
X23790Y30521
X23928Y22883
X24676Y21663
X24676Y20875
X24676Y20088
X24676Y19300
X24676Y18513
X24676Y17726
X24892Y6525
X24971Y38001
X25266Y39576
X25561Y18513
X25581Y20875
X25581Y20088
X25581Y19300
X25680Y6525
X25857Y15856
X25916Y38001
X26054Y34852
X26152Y16840
X26447Y39576
X26467Y6525
X26743Y14478
X26939Y34852
X27038Y38001
X27254Y6525
X27727Y39576
X28042Y6525
X28317Y38001
X28829Y6525
X28908Y39576
X29361Y5580
X29498Y38001
X30148Y5580
X30148Y4674
X30187Y39576
X30443Y6485
X31231Y6485
X31270Y23434
X32156Y23434
X33042Y23434
X33140Y30226
X33140Y29438
X33908Y6800
X33947Y23434
X34223Y32489
X34617Y31702
X34715Y33277
X35010Y5422
X35010Y3946
X35207Y32489
X35404Y39576
X35601Y38198
X36290Y39576
X36979Y31702
X41211Y32568
X42117Y32568
X42392Y6013
X42392Y5226
X42392Y4438
X42392Y3651
X42491Y33375
X43376Y33375
X43869Y32588
X44164Y39576
X45542Y39576
X47018Y39576
X50994Y6033
X51782Y6033
X52569Y6033
X53357Y6033
X54695Y39576
X54695Y38296
T03
X31703Y5491
X32018Y4802
X32333Y5491
X32648Y4802
X32963Y5491
X30896Y4891G85X30896Y5403
X33770Y4891G85X33770Y5403
T04
X30581Y3651
X31369Y3651
X32156Y3651
X32943Y3651
X33731Y3651
X8239Y39539
X8239Y38039
X9321Y39539
X9321Y38039
X9439Y35997
X9439Y34497
X10798Y39753
X10798Y37824
X11880Y39539
X11880Y38039
X12963Y39539
X12963Y38039
X14046Y39539
X14046Y38039
X15128Y39539
X15128Y38039
X16211Y39539
X16211Y38039
X16348Y13434
X16348Y12434
X16348Y11434
X16348Y10434
X16348Y9434
X16348Y8434
X17144Y36063
X17786Y39539
X17786Y38039
X18644Y36063
X18869Y39539
X18869Y38039
X20443Y39539
X20443Y38039
X21526Y39539
X21526Y38039
X22569Y39539
X22569Y38039
X24085Y39618
X24085Y38118
X30680Y36586
X30680Y35086
X31369Y39539
X31369Y38039
X31782Y36586
X31782Y35086
X32451Y39539
X32451Y38039
X33042Y36586
X33042Y35086
X33534Y39539
X33534Y38039
X34617Y39539
X34617Y38039
X35207Y36586
X35207Y35086
X36290Y36586
X36290Y35086
X37372Y39539
X37372Y38039
X37372Y36586
X37372Y35086
X38554Y39539
X38554Y38039
X38652Y36586
X38652Y35086
X39735Y39539
X39735Y38039
X51034Y36586
X51034Y35086
X51152Y39539
X51152Y38039
X52117Y36586
X52117Y35086
X52235Y39970
X52235Y38041
X53514Y39539
X53514Y38039
T05
X40157Y35276
X43174Y35295
X574Y36342
X574Y35342
X574Y34342
X574Y33342
X574Y32342
X574Y31342
X574Y30342
X574Y29342
X574Y28342
X574Y27342
X574Y26342
X574Y25342
X620Y8474
X731Y4537
X1574Y36342
X1574Y35342
X1574Y34342
X1574Y33342
X1574Y32342
X1574Y31342
X1574Y30342
X1574Y29342
X1574Y28342
X1574Y27342
X1574Y26342
X1574Y25342
X1620Y8474
X1731Y4537
X2574Y36342
X2574Y35342
X2574Y34342
X2574Y33342
X2574Y32342
X2574Y31342
X2574Y30342
X2574Y29342
X2574Y28342
X2574Y27342
X2574Y26342
X2574Y25342
X2620Y8474
X2731Y4537
X3574Y36342
X3574Y35342
X3574Y34342
X3574Y33342
X3574Y32342
X3574Y31342
X3574Y30342
X3574Y29342
X3574Y28342
X3574Y27342
X3574Y26342
X3574Y25342
X3620Y8474
X3731Y4537
X4574Y36342
X4574Y35342
X4574Y34342
X4574Y33342
X4574Y32342
X4574Y31342
X4574Y30342
X4574Y29342
X4574Y28342
X4574Y27342
X4574Y26342
X4574Y25342
X4620Y8474
X5252Y4340
X5286Y1426
X5574Y29342
X5574Y28342
X5574Y27342
X5574Y26342
X5574Y25342
X5620Y8474
X6270Y1426
X6532Y4340
X7254Y1426
X7811Y4340
X8239Y1426
X9091Y4340
X9223Y1426
X10207Y1426
X10567Y4340
X11191Y1426
X12043Y4340
X12176Y1426
X21329Y12706
X21329Y11525
X21329Y10344
X23298Y12706
X23298Y11525
X23298Y10344
X25266Y12706
X25266Y11525
X25266Y10344
X16545Y4773
X15758Y3592
X14971Y4773
X28215Y4950
X26215Y4550
X26215Y5350
X29032Y13312
X28232Y13312
X28632Y11312
T06
X59837Y36033
X59837Y28670
X59837Y24930
X59876Y32135
X59876Y16348
X59876Y12489
X59876Y8710
X59876Y5206
X61837Y36033
X61837Y28670
X61837Y24930
X61876Y32135
X61876Y16348
X61876Y12489
X61876Y8710
X61876Y5206
X10686Y43940
X11572Y41479
X11670Y43940
X12654Y43940
X12851Y41479
X13639Y43940
X14131Y41479
X14623Y43940
X15410Y41479
X15607Y43940
X16591Y43940
X16690Y41479
X17576Y43940
X17969Y41479
X18560Y43940
X19249Y41479
X19544Y43940
X20529Y43940
X20529Y41479
X21513Y43940
X21808Y41479
X22399Y43644
X23088Y44235
X23088Y41479
X23678Y43644
X24367Y44235
X24367Y41479
X24958Y43644
X25647Y44235
X25647Y41479
X26237Y43644
X26926Y44235
X26926Y41479
X27517Y43644
X28206Y44235
X28206Y41479
X28796Y43644
X29485Y44235
X29485Y41479
X30076Y43644
X30765Y44235
X30765Y41479
X31355Y43644
X32044Y44235
X32044Y41479
X32635Y43644
X33324Y44235
X33324Y41479
X33914Y43644
X34603Y44235
X34603Y41479
X35194Y43644
X35883Y44235
X35883Y41479
X36473Y43644
X37162Y44235
X37162Y41479
X37753Y43644
X38442Y44235
X38442Y41479
X39032Y43644
X39721Y44235
X39721Y41479
X40312Y43644
X41001Y41479
X41296Y43940
X42280Y43940
X42280Y41479
X43265Y43940
X43560Y41479
X44249Y43940
X44840Y41479
X45233Y43940
X46119Y41479
X46217Y43940
X47202Y43940
X47399Y41479
X48186Y43940
X48678Y41479
X49170Y43940
X49958Y41479
X50154Y43940
X51139Y43940
X51237Y41479
X52123Y43940
X52517Y41479
X53107Y43940
X54091Y43940
X16561Y876
X15561Y876
X14561Y876
T07
X4213Y6505
X6378Y6505
T08
X6703Y21741
X7687Y22607
X9144Y21741
X9892Y22607
X11349Y21741
T09
X11348Y15434
X11348Y6434
X1339Y6505
T10
X3005Y44825
X60371Y44727
X2926Y2230
X51426Y2230
M30
