G04 #@! TF.GenerationSoftware,KiCad,Pcbnew,(5.99.0-11247-g3f6811f413)*
G04 #@! TF.CreationDate,2021-08-04T01:05:31+03:00*
G04 #@! TF.ProjectId,hellen88bmw,68656c6c-656e-4383-9862-6d772e6b6963,rev?*
G04 #@! TF.SameCoordinates,PX3d1b110PY9269338*
G04 #@! TF.FileFunction,Paste,Bot*
G04 #@! TF.FilePolarity,Positive*
%FSLAX46Y46*%
G04 Gerber Fmt 4.6, Leading zero omitted, Abs format (unit mm)*
G04 Created by KiCad (PCBNEW (5.99.0-11247-g3f6811f413)) date 2021-08-04 01:05:31*
%MOMM*%
%LPD*%
G01*
G04 APERTURE LIST*
%ADD10C,1.524000*%
%ADD11O,0.000001X0.000001*%
%ADD12R,2.200000X0.800000*%
%ADD13R,5.080000X2.032000*%
%ADD14R,7.620000X11.430000*%
%ADD15R,0.350000X0.400000*%
%ADD16R,0.400000X0.350000*%
%ADD17R,0.450000X0.600000*%
G04 APERTURE END LIST*
D10*
G04 #@! TO.C,\u002Aref1*
X74892400Y112356400D03*
G04 #@! TD*
G04 #@! TO.C,M7*
G36*
G01*
X114671000Y65148000D02*
X114671000Y65398000D01*
G75*
G02*
X114796000Y65523000I125000J0D01*
G01*
X114796000Y65523000D01*
G75*
G02*
X114921000Y65398000I0J-125000D01*
G01*
X114921000Y65148000D01*
G75*
G02*
X114796000Y65023000I-125000J0D01*
G01*
X114796000Y65023000D01*
G75*
G02*
X114671000Y65148000I0J125000D01*
G01*
G37*
G36*
G01*
X113820996Y65398000D02*
X113820996Y65148000D01*
G75*
G02*
X113695996Y65023000I-125000J0D01*
G01*
X113695996Y65023000D01*
G75*
G02*
X113570996Y65148000I0J125000D01*
G01*
X113570996Y65398000D01*
G75*
G02*
X113695996Y65523000I125000J0D01*
G01*
X113695996Y65523000D01*
G75*
G02*
X113820996Y65398000I0J-125000D01*
G01*
G37*
G36*
G01*
X112720995Y65398000D02*
X112720995Y65148000D01*
G75*
G02*
X112595995Y65023000I-125000J0D01*
G01*
X112595995Y65023000D01*
G75*
G02*
X112470995Y65148000I0J125000D01*
G01*
X112470995Y65398000D01*
G75*
G02*
X112595995Y65523000I125000J0D01*
G01*
X112595995Y65523000D01*
G75*
G02*
X112720995Y65398000I0J-125000D01*
G01*
G37*
G36*
G01*
X111620998Y65398000D02*
X111620998Y65148000D01*
G75*
G02*
X111495998Y65023000I-125000J0D01*
G01*
X111495998Y65023000D01*
G75*
G02*
X111370998Y65148000I0J125000D01*
G01*
X111370998Y65398000D01*
G75*
G02*
X111495998Y65523000I125000J0D01*
G01*
X111495998Y65523000D01*
G75*
G02*
X111620998Y65398000I0J-125000D01*
G01*
G37*
G36*
G01*
X110521000Y65398000D02*
X110521000Y65148000D01*
G75*
G02*
X110396000Y65023000I-125000J0D01*
G01*
X110396000Y65023000D01*
G75*
G02*
X110271000Y65148000I0J125000D01*
G01*
X110271000Y65398000D01*
G75*
G02*
X110396000Y65523000I125000J0D01*
G01*
X110396000Y65523000D01*
G75*
G02*
X110521000Y65398000I0J-125000D01*
G01*
G37*
G36*
G01*
X109421002Y65398000D02*
X109421002Y65148000D01*
G75*
G02*
X109296002Y65023000I-125000J0D01*
G01*
X109296002Y65023000D01*
G75*
G02*
X109171002Y65148000I0J125000D01*
G01*
X109171002Y65398000D01*
G75*
G02*
X109296002Y65523000I125000J0D01*
G01*
X109296002Y65523000D01*
G75*
G02*
X109421002Y65398000I0J-125000D01*
G01*
G37*
G36*
G01*
X108321004Y65398000D02*
X108321004Y65148000D01*
G75*
G02*
X108196004Y65023000I-125000J0D01*
G01*
X108196004Y65023000D01*
G75*
G02*
X108071004Y65148000I0J125000D01*
G01*
X108071004Y65398000D01*
G75*
G02*
X108196004Y65523000I125000J0D01*
G01*
X108196004Y65523000D01*
G75*
G02*
X108321004Y65398000I0J-125000D01*
G01*
G37*
G36*
G01*
X107221006Y65398000D02*
X107221006Y65148000D01*
G75*
G02*
X107096006Y65023000I-125000J0D01*
G01*
X107096006Y65023000D01*
G75*
G02*
X106971006Y65148000I0J125000D01*
G01*
X106971006Y65398000D01*
G75*
G02*
X107096006Y65523000I125000J0D01*
G01*
X107096006Y65523000D01*
G75*
G02*
X107221006Y65398000I0J-125000D01*
G01*
G37*
G36*
G01*
X106121009Y65398000D02*
X106121009Y65148000D01*
G75*
G02*
X105996009Y65023000I-125000J0D01*
G01*
X105996009Y65023000D01*
G75*
G02*
X105871009Y65148000I0J125000D01*
G01*
X105871009Y65398000D01*
G75*
G02*
X105996009Y65523000I125000J0D01*
G01*
X105996009Y65523000D01*
G75*
G02*
X106121009Y65398000I0J-125000D01*
G01*
G37*
G36*
G01*
X105021011Y65398000D02*
X105021011Y65148000D01*
G75*
G02*
X104896011Y65023000I-125000J0D01*
G01*
X104896011Y65023000D01*
G75*
G02*
X104771011Y65148000I0J125000D01*
G01*
X104771011Y65398000D01*
G75*
G02*
X104896011Y65523000I125000J0D01*
G01*
X104896011Y65523000D01*
G75*
G02*
X105021011Y65398000I0J-125000D01*
G01*
G37*
G36*
G01*
X103921013Y65398000D02*
X103921013Y65148000D01*
G75*
G02*
X103796013Y65023000I-125000J0D01*
G01*
X103796013Y65023000D01*
G75*
G02*
X103671013Y65148000I0J125000D01*
G01*
X103671013Y65398000D01*
G75*
G02*
X103796013Y65523000I125000J0D01*
G01*
X103796013Y65523000D01*
G75*
G02*
X103921013Y65398000I0J-125000D01*
G01*
G37*
G36*
G01*
X102821015Y65398000D02*
X102821015Y65148000D01*
G75*
G02*
X102696015Y65023000I-125000J0D01*
G01*
X102696015Y65023000D01*
G75*
G02*
X102571015Y65148000I0J125000D01*
G01*
X102571015Y65398000D01*
G75*
G02*
X102696015Y65523000I125000J0D01*
G01*
X102696015Y65523000D01*
G75*
G02*
X102821015Y65398000I0J-125000D01*
G01*
G37*
G36*
G01*
X101721017Y65398000D02*
X101721017Y65148000D01*
G75*
G02*
X101596017Y65023000I-125000J0D01*
G01*
X101596017Y65023000D01*
G75*
G02*
X101471017Y65148000I0J125000D01*
G01*
X101471017Y65398000D01*
G75*
G02*
X101596017Y65523000I125000J0D01*
G01*
X101596017Y65523000D01*
G75*
G02*
X101721017Y65398000I0J-125000D01*
G01*
G37*
G36*
G01*
X100621020Y65398000D02*
X100621020Y65148000D01*
G75*
G02*
X100496020Y65023000I-125000J0D01*
G01*
X100496020Y65023000D01*
G75*
G02*
X100371020Y65148000I0J125000D01*
G01*
X100371020Y65398000D01*
G75*
G02*
X100496020Y65523000I125000J0D01*
G01*
X100496020Y65523000D01*
G75*
G02*
X100621020Y65398000I0J-125000D01*
G01*
G37*
G36*
G01*
X99521022Y65398000D02*
X99521022Y65148000D01*
G75*
G02*
X99396022Y65023000I-125000J0D01*
G01*
X99396022Y65023000D01*
G75*
G02*
X99271022Y65148000I0J125000D01*
G01*
X99271022Y65398000D01*
G75*
G02*
X99396022Y65523000I125000J0D01*
G01*
X99396022Y65523000D01*
G75*
G02*
X99521022Y65398000I0J-125000D01*
G01*
G37*
G36*
G01*
X98421024Y65398000D02*
X98421024Y65148000D01*
G75*
G02*
X98296024Y65023000I-125000J0D01*
G01*
X98296024Y65023000D01*
G75*
G02*
X98171024Y65148000I0J125000D01*
G01*
X98171024Y65398000D01*
G75*
G02*
X98296024Y65523000I125000J0D01*
G01*
X98296024Y65523000D01*
G75*
G02*
X98421024Y65398000I0J-125000D01*
G01*
G37*
G36*
G01*
X97321026Y65398000D02*
X97321026Y65148000D01*
G75*
G02*
X97196026Y65023000I-125000J0D01*
G01*
X97196026Y65023000D01*
G75*
G02*
X97071026Y65148000I0J125000D01*
G01*
X97071026Y65398000D01*
G75*
G02*
X97196026Y65523000I125000J0D01*
G01*
X97196026Y65523000D01*
G75*
G02*
X97321026Y65398000I0J-125000D01*
G01*
G37*
G36*
G01*
X96221028Y65398000D02*
X96221028Y65148000D01*
G75*
G02*
X96096028Y65023000I-125000J0D01*
G01*
X96096028Y65023000D01*
G75*
G02*
X95971028Y65148000I0J125000D01*
G01*
X95971028Y65398000D01*
G75*
G02*
X96096028Y65523000I125000J0D01*
G01*
X96096028Y65523000D01*
G75*
G02*
X96221028Y65398000I0J-125000D01*
G01*
G37*
G36*
G01*
X95121031Y65398000D02*
X95121031Y65148000D01*
G75*
G02*
X94996031Y65023000I-125000J0D01*
G01*
X94996031Y65023000D01*
G75*
G02*
X94871031Y65148000I0J125000D01*
G01*
X94871031Y65398000D01*
G75*
G02*
X94996031Y65523000I125000J0D01*
G01*
X94996031Y65523000D01*
G75*
G02*
X95121031Y65398000I0J-125000D01*
G01*
G37*
G36*
G01*
X94021033Y65398000D02*
X94021033Y65148000D01*
G75*
G02*
X93896033Y65023000I-125000J0D01*
G01*
X93896033Y65023000D01*
G75*
G02*
X93771033Y65148000I0J125000D01*
G01*
X93771033Y65398000D01*
G75*
G02*
X93896033Y65523000I125000J0D01*
G01*
X93896033Y65523000D01*
G75*
G02*
X94021033Y65398000I0J-125000D01*
G01*
G37*
G36*
G01*
X92921035Y65398000D02*
X92921035Y65148000D01*
G75*
G02*
X92796035Y65023000I-125000J0D01*
G01*
X92796035Y65023000D01*
G75*
G02*
X92671035Y65148000I0J125000D01*
G01*
X92671035Y65398000D01*
G75*
G02*
X92796035Y65523000I125000J0D01*
G01*
X92796035Y65523000D01*
G75*
G02*
X92921035Y65398000I0J-125000D01*
G01*
G37*
G36*
G01*
X91821037Y65398000D02*
X91821037Y65148000D01*
G75*
G02*
X91696037Y65023000I-125000J0D01*
G01*
X91696037Y65023000D01*
G75*
G02*
X91571037Y65148000I0J125000D01*
G01*
X91571037Y65398000D01*
G75*
G02*
X91696037Y65523000I125000J0D01*
G01*
X91696037Y65523000D01*
G75*
G02*
X91821037Y65398000I0J-125000D01*
G01*
G37*
G36*
G01*
X90721039Y65398000D02*
X90721039Y65148000D01*
G75*
G02*
X90596039Y65023000I-125000J0D01*
G01*
X90596039Y65023000D01*
G75*
G02*
X90471039Y65148000I0J125000D01*
G01*
X90471039Y65398000D01*
G75*
G02*
X90596039Y65523000I125000J0D01*
G01*
X90596039Y65523000D01*
G75*
G02*
X90721039Y65398000I0J-125000D01*
G01*
G37*
G36*
G01*
X89621042Y65398000D02*
X89621042Y65148000D01*
G75*
G02*
X89496042Y65023000I-125000J0D01*
G01*
X89496042Y65023000D01*
G75*
G02*
X89371042Y65148000I0J125000D01*
G01*
X89371042Y65398000D01*
G75*
G02*
X89496042Y65523000I125000J0D01*
G01*
X89496042Y65523000D01*
G75*
G02*
X89621042Y65398000I0J-125000D01*
G01*
G37*
G36*
G01*
X88521044Y65398000D02*
X88521044Y65148000D01*
G75*
G02*
X88396044Y65023000I-125000J0D01*
G01*
X88396044Y65023000D01*
G75*
G02*
X88271044Y65148000I0J125000D01*
G01*
X88271044Y65398000D01*
G75*
G02*
X88396044Y65523000I125000J0D01*
G01*
X88396044Y65523000D01*
G75*
G02*
X88521044Y65398000I0J-125000D01*
G01*
G37*
G36*
G01*
X87421046Y65398000D02*
X87421046Y65148000D01*
G75*
G02*
X87296046Y65023000I-125000J0D01*
G01*
X87296046Y65023000D01*
G75*
G02*
X87171046Y65148000I0J125000D01*
G01*
X87171046Y65398000D01*
G75*
G02*
X87296046Y65523000I125000J0D01*
G01*
X87296046Y65523000D01*
G75*
G02*
X87421046Y65398000I0J-125000D01*
G01*
G37*
G04 #@! TD*
D11*
G04 #@! TO.C,M9*
X46074449Y85273000D03*
X47049461Y85172995D03*
X47919218Y85273000D03*
X48649455Y85273000D03*
X49544218Y85273000D03*
X51619218Y85273000D03*
X52519214Y85273000D03*
X53229456Y85273000D03*
X54249457Y85173000D03*
X55424456Y85173000D03*
X56774455Y85173000D03*
X57949454Y85173000D03*
X58849455Y84242761D03*
X58849455Y83548002D03*
X58849455Y82867762D03*
X58754457Y82048000D03*
X58849455Y80742763D03*
X58754457Y79772998D03*
X58849455Y78498000D03*
X58849455Y77847998D03*
X58754457Y76647998D03*
X58754457Y75572994D03*
X58754457Y74697992D03*
X58849455Y73873000D03*
X58849455Y68022999D03*
G04 #@! TD*
G04 #@! TO.C,R16*
G36*
G01*
X88861000Y15493000D02*
X88491000Y15493000D01*
G75*
G02*
X88356000Y15628000I0J135000D01*
G01*
X88356000Y15898000D01*
G75*
G02*
X88491000Y16033000I135000J0D01*
G01*
X88861000Y16033000D01*
G75*
G02*
X88996000Y15898000I0J-135000D01*
G01*
X88996000Y15628000D01*
G75*
G02*
X88861000Y15493000I-135000J0D01*
G01*
G37*
G36*
G01*
X88861000Y16513000D02*
X88491000Y16513000D01*
G75*
G02*
X88356000Y16648000I0J135000D01*
G01*
X88356000Y16918000D01*
G75*
G02*
X88491000Y17053000I135000J0D01*
G01*
X88861000Y17053000D01*
G75*
G02*
X88996000Y16918000I0J-135000D01*
G01*
X88996000Y16648000D01*
G75*
G02*
X88861000Y16513000I-135000J0D01*
G01*
G37*
G04 #@! TD*
G04 #@! TO.C,R6*
G36*
G01*
X99991000Y84553000D02*
X100361000Y84553000D01*
G75*
G02*
X100496000Y84418000I0J-135000D01*
G01*
X100496000Y84148000D01*
G75*
G02*
X100361000Y84013000I-135000J0D01*
G01*
X99991000Y84013000D01*
G75*
G02*
X99856000Y84148000I0J135000D01*
G01*
X99856000Y84418000D01*
G75*
G02*
X99991000Y84553000I135000J0D01*
G01*
G37*
G36*
G01*
X99991000Y83533000D02*
X100361000Y83533000D01*
G75*
G02*
X100496000Y83398000I0J-135000D01*
G01*
X100496000Y83128000D01*
G75*
G02*
X100361000Y82993000I-135000J0D01*
G01*
X99991000Y82993000D01*
G75*
G02*
X99856000Y83128000I0J135000D01*
G01*
X99856000Y83398000D01*
G75*
G02*
X99991000Y83533000I135000J0D01*
G01*
G37*
G04 #@! TD*
G04 #@! TO.C,C13*
G36*
G01*
X15676000Y26798000D02*
X15176000Y26798000D01*
G75*
G02*
X14951000Y27023000I0J225000D01*
G01*
X14951000Y27473000D01*
G75*
G02*
X15176000Y27698000I225000J0D01*
G01*
X15676000Y27698000D01*
G75*
G02*
X15901000Y27473000I0J-225000D01*
G01*
X15901000Y27023000D01*
G75*
G02*
X15676000Y26798000I-225000J0D01*
G01*
G37*
G36*
G01*
X15676000Y28348000D02*
X15176000Y28348000D01*
G75*
G02*
X14951000Y28573000I0J225000D01*
G01*
X14951000Y29023000D01*
G75*
G02*
X15176000Y29248000I225000J0D01*
G01*
X15676000Y29248000D01*
G75*
G02*
X15901000Y29023000I0J-225000D01*
G01*
X15901000Y28573000D01*
G75*
G02*
X15676000Y28348000I-225000J0D01*
G01*
G37*
G04 #@! TD*
D12*
G04 #@! TO.C,U6*
X35776000Y28238000D03*
X35776000Y26968000D03*
X35776000Y25698000D03*
X35776000Y24428000D03*
X35776000Y23158000D03*
X35776000Y21888000D03*
X35776000Y20618000D03*
X35776000Y19348000D03*
X35776000Y18078000D03*
X35776000Y16808000D03*
X22576000Y16808000D03*
X22576000Y18078000D03*
X22576000Y19348000D03*
X22576000Y20618000D03*
X22576000Y21888000D03*
X22576000Y23158000D03*
X22576000Y24428000D03*
X22576000Y25698000D03*
X22576000Y26968000D03*
X22576000Y28238000D03*
D13*
X29176000Y29635000D03*
D14*
X29176000Y22523000D03*
D13*
X29176000Y15411000D03*
G04 #@! TD*
G04 #@! TO.C,C21*
G36*
G01*
X44426000Y26998000D02*
X44926000Y26998000D01*
G75*
G02*
X45151000Y26773000I0J-225000D01*
G01*
X45151000Y26323000D01*
G75*
G02*
X44926000Y26098000I-225000J0D01*
G01*
X44426000Y26098000D01*
G75*
G02*
X44201000Y26323000I0J225000D01*
G01*
X44201000Y26773000D01*
G75*
G02*
X44426000Y26998000I225000J0D01*
G01*
G37*
G36*
G01*
X44426000Y25448000D02*
X44926000Y25448000D01*
G75*
G02*
X45151000Y25223000I0J-225000D01*
G01*
X45151000Y24773000D01*
G75*
G02*
X44926000Y24548000I-225000J0D01*
G01*
X44426000Y24548000D01*
G75*
G02*
X44201000Y24773000I0J225000D01*
G01*
X44201000Y25223000D01*
G75*
G02*
X44426000Y25448000I225000J0D01*
G01*
G37*
G04 #@! TD*
G04 #@! TO.C,C17*
G36*
G01*
X40926000Y26998000D02*
X41426000Y26998000D01*
G75*
G02*
X41651000Y26773000I0J-225000D01*
G01*
X41651000Y26323000D01*
G75*
G02*
X41426000Y26098000I-225000J0D01*
G01*
X40926000Y26098000D01*
G75*
G02*
X40701000Y26323000I0J225000D01*
G01*
X40701000Y26773000D01*
G75*
G02*
X40926000Y26998000I225000J0D01*
G01*
G37*
G36*
G01*
X40926000Y25448000D02*
X41426000Y25448000D01*
G75*
G02*
X41651000Y25223000I0J-225000D01*
G01*
X41651000Y24773000D01*
G75*
G02*
X41426000Y24548000I-225000J0D01*
G01*
X40926000Y24548000D01*
G75*
G02*
X40701000Y24773000I0J225000D01*
G01*
X40701000Y25223000D01*
G75*
G02*
X40926000Y25448000I225000J0D01*
G01*
G37*
G04 #@! TD*
G04 #@! TO.C,C11*
G36*
G01*
X17426000Y26798000D02*
X16926000Y26798000D01*
G75*
G02*
X16701000Y27023000I0J225000D01*
G01*
X16701000Y27473000D01*
G75*
G02*
X16926000Y27698000I225000J0D01*
G01*
X17426000Y27698000D01*
G75*
G02*
X17651000Y27473000I0J-225000D01*
G01*
X17651000Y27023000D01*
G75*
G02*
X17426000Y26798000I-225000J0D01*
G01*
G37*
G36*
G01*
X17426000Y28348000D02*
X16926000Y28348000D01*
G75*
G02*
X16701000Y28573000I0J225000D01*
G01*
X16701000Y29023000D01*
G75*
G02*
X16926000Y29248000I225000J0D01*
G01*
X17426000Y29248000D01*
G75*
G02*
X17651000Y29023000I0J-225000D01*
G01*
X17651000Y28573000D01*
G75*
G02*
X17426000Y28348000I-225000J0D01*
G01*
G37*
G04 #@! TD*
G04 #@! TO.C,C15*
G36*
G01*
X47666000Y26603000D02*
X47666000Y26943000D01*
G75*
G02*
X47806000Y27083000I140000J0D01*
G01*
X48086000Y27083000D01*
G75*
G02*
X48226000Y26943000I0J-140000D01*
G01*
X48226000Y26603000D01*
G75*
G02*
X48086000Y26463000I-140000J0D01*
G01*
X47806000Y26463000D01*
G75*
G02*
X47666000Y26603000I0J140000D01*
G01*
G37*
G36*
G01*
X48626000Y26603000D02*
X48626000Y26943000D01*
G75*
G02*
X48766000Y27083000I140000J0D01*
G01*
X49046000Y27083000D01*
G75*
G02*
X49186000Y26943000I0J-140000D01*
G01*
X49186000Y26603000D01*
G75*
G02*
X49046000Y26463000I-140000J0D01*
G01*
X48766000Y26463000D01*
G75*
G02*
X48626000Y26603000I0J140000D01*
G01*
G37*
G04 #@! TD*
G04 #@! TO.C,C19*
G36*
G01*
X42676000Y26998000D02*
X43176000Y26998000D01*
G75*
G02*
X43401000Y26773000I0J-225000D01*
G01*
X43401000Y26323000D01*
G75*
G02*
X43176000Y26098000I-225000J0D01*
G01*
X42676000Y26098000D01*
G75*
G02*
X42451000Y26323000I0J225000D01*
G01*
X42451000Y26773000D01*
G75*
G02*
X42676000Y26998000I225000J0D01*
G01*
G37*
G36*
G01*
X42676000Y25448000D02*
X43176000Y25448000D01*
G75*
G02*
X43401000Y25223000I0J-225000D01*
G01*
X43401000Y24773000D01*
G75*
G02*
X43176000Y24548000I-225000J0D01*
G01*
X42676000Y24548000D01*
G75*
G02*
X42451000Y24773000I0J225000D01*
G01*
X42451000Y25223000D01*
G75*
G02*
X42676000Y25448000I225000J0D01*
G01*
G37*
G04 #@! TD*
G04 #@! TO.C,C12*
G36*
G01*
X40186000Y23693000D02*
X40186000Y23353000D01*
G75*
G02*
X40046000Y23213000I-140000J0D01*
G01*
X39766000Y23213000D01*
G75*
G02*
X39626000Y23353000I0J140000D01*
G01*
X39626000Y23693000D01*
G75*
G02*
X39766000Y23833000I140000J0D01*
G01*
X40046000Y23833000D01*
G75*
G02*
X40186000Y23693000I0J-140000D01*
G01*
G37*
G36*
G01*
X39226000Y23693000D02*
X39226000Y23353000D01*
G75*
G02*
X39086000Y23213000I-140000J0D01*
G01*
X38806000Y23213000D01*
G75*
G02*
X38666000Y23353000I0J140000D01*
G01*
X38666000Y23693000D01*
G75*
G02*
X38806000Y23833000I140000J0D01*
G01*
X39086000Y23833000D01*
G75*
G02*
X39226000Y23693000I0J-140000D01*
G01*
G37*
G04 #@! TD*
D15*
G04 #@! TO.C,U3*
X85426000Y17283000D03*
X85926000Y17283000D03*
X86426000Y17283000D03*
X86926000Y17283000D03*
D16*
X86936000Y16773000D03*
X86936000Y16273000D03*
D15*
X86926000Y15763000D03*
X86426000Y15763000D03*
X85926000Y15763000D03*
X85426000Y15763000D03*
D16*
X85416000Y16273000D03*
X85416000Y16773000D03*
G04 #@! TD*
G04 #@! TO.C,R15*
G36*
G01*
X92196000Y18958000D02*
X92196000Y18588000D01*
G75*
G02*
X92061000Y18453000I-135000J0D01*
G01*
X91791000Y18453000D01*
G75*
G02*
X91656000Y18588000I0J135000D01*
G01*
X91656000Y18958000D01*
G75*
G02*
X91791000Y19093000I135000J0D01*
G01*
X92061000Y19093000D01*
G75*
G02*
X92196000Y18958000I0J-135000D01*
G01*
G37*
G36*
G01*
X91176000Y18958000D02*
X91176000Y18588000D01*
G75*
G02*
X91041000Y18453000I-135000J0D01*
G01*
X90771000Y18453000D01*
G75*
G02*
X90636000Y18588000I0J135000D01*
G01*
X90636000Y18958000D01*
G75*
G02*
X90771000Y19093000I135000J0D01*
G01*
X91041000Y19093000D01*
G75*
G02*
X91176000Y18958000I0J-135000D01*
G01*
G37*
G04 #@! TD*
G04 #@! TO.C,C4*
G36*
G01*
X93006000Y17013000D02*
X93346000Y17013000D01*
G75*
G02*
X93486000Y16873000I0J-140000D01*
G01*
X93486000Y16593000D01*
G75*
G02*
X93346000Y16453000I-140000J0D01*
G01*
X93006000Y16453000D01*
G75*
G02*
X92866000Y16593000I0J140000D01*
G01*
X92866000Y16873000D01*
G75*
G02*
X93006000Y17013000I140000J0D01*
G01*
G37*
G36*
G01*
X93006000Y16053000D02*
X93346000Y16053000D01*
G75*
G02*
X93486000Y15913000I0J-140000D01*
G01*
X93486000Y15633000D01*
G75*
G02*
X93346000Y15493000I-140000J0D01*
G01*
X93006000Y15493000D01*
G75*
G02*
X92866000Y15633000I0J140000D01*
G01*
X92866000Y15913000D01*
G75*
G02*
X93006000Y16053000I140000J0D01*
G01*
G37*
G04 #@! TD*
G04 #@! TO.C,C5*
G36*
G01*
X85646000Y14353000D02*
X85646000Y14693000D01*
G75*
G02*
X85786000Y14833000I140000J0D01*
G01*
X86066000Y14833000D01*
G75*
G02*
X86206000Y14693000I0J-140000D01*
G01*
X86206000Y14353000D01*
G75*
G02*
X86066000Y14213000I-140000J0D01*
G01*
X85786000Y14213000D01*
G75*
G02*
X85646000Y14353000I0J140000D01*
G01*
G37*
G36*
G01*
X86606000Y14353000D02*
X86606000Y14693000D01*
G75*
G02*
X86746000Y14833000I140000J0D01*
G01*
X87026000Y14833000D01*
G75*
G02*
X87166000Y14693000I0J-140000D01*
G01*
X87166000Y14353000D01*
G75*
G02*
X87026000Y14213000I-140000J0D01*
G01*
X86746000Y14213000D01*
G75*
G02*
X86606000Y14353000I0J140000D01*
G01*
G37*
G04 #@! TD*
D11*
G04 #@! TO.C,M5*
X102150980Y510476D03*
X125970976Y4460491D03*
X87275978Y3916187D03*
X125970981Y2560490D03*
X88975995Y5918164D03*
G04 #@! TD*
G04 #@! TO.C,R29*
G36*
G01*
X41361000Y20993000D02*
X40991000Y20993000D01*
G75*
G02*
X40856000Y21128000I0J135000D01*
G01*
X40856000Y21398000D01*
G75*
G02*
X40991000Y21533000I135000J0D01*
G01*
X41361000Y21533000D01*
G75*
G02*
X41496000Y21398000I0J-135000D01*
G01*
X41496000Y21128000D01*
G75*
G02*
X41361000Y20993000I-135000J0D01*
G01*
G37*
G36*
G01*
X41361000Y22013000D02*
X40991000Y22013000D01*
G75*
G02*
X40856000Y22148000I0J135000D01*
G01*
X40856000Y22418000D01*
G75*
G02*
X40991000Y22553000I135000J0D01*
G01*
X41361000Y22553000D01*
G75*
G02*
X41496000Y22418000I0J-135000D01*
G01*
X41496000Y22148000D01*
G75*
G02*
X41361000Y22013000I-135000J0D01*
G01*
G37*
G04 #@! TD*
G04 #@! TO.C,U4*
G36*
G01*
X89726000Y16123000D02*
X89726000Y16323000D01*
G75*
G02*
X89826000Y16423000I100000J0D01*
G01*
X90176000Y16423000D01*
G75*
G02*
X90276000Y16323000I0J-100000D01*
G01*
X90276000Y16123000D01*
G75*
G02*
X90176000Y16023000I-100000J0D01*
G01*
X89826000Y16023000D01*
G75*
G02*
X89726000Y16123000I0J100000D01*
G01*
G37*
G36*
G01*
X89726000Y16723000D02*
X89726000Y16923000D01*
G75*
G02*
X89826000Y17023000I100000J0D01*
G01*
X90176000Y17023000D01*
G75*
G02*
X90276000Y16923000I0J-100000D01*
G01*
X90276000Y16723000D01*
G75*
G02*
X90176000Y16623000I-100000J0D01*
G01*
X89826000Y16623000D01*
G75*
G02*
X89726000Y16723000I0J100000D01*
G01*
G37*
G36*
G01*
X90126000Y17273000D02*
X90126000Y17623000D01*
G75*
G02*
X90226000Y17723000I100000J0D01*
G01*
X90426000Y17723000D01*
G75*
G02*
X90526000Y17623000I0J-100000D01*
G01*
X90526000Y17273000D01*
G75*
G02*
X90426000Y17173000I-100000J0D01*
G01*
X90226000Y17173000D01*
G75*
G02*
X90126000Y17273000I0J100000D01*
G01*
G37*
G36*
G01*
X90726000Y17273000D02*
X90726000Y17623000D01*
G75*
G02*
X90826000Y17723000I100000J0D01*
G01*
X91026000Y17723000D01*
G75*
G02*
X91126000Y17623000I0J-100000D01*
G01*
X91126000Y17273000D01*
G75*
G02*
X91026000Y17173000I-100000J0D01*
G01*
X90826000Y17173000D01*
G75*
G02*
X90726000Y17273000I0J100000D01*
G01*
G37*
G36*
G01*
X91326000Y17273000D02*
X91326000Y17623000D01*
G75*
G02*
X91426000Y17723000I100000J0D01*
G01*
X91626000Y17723000D01*
G75*
G02*
X91726000Y17623000I0J-100000D01*
G01*
X91726000Y17273000D01*
G75*
G02*
X91626000Y17173000I-100000J0D01*
G01*
X91426000Y17173000D01*
G75*
G02*
X91326000Y17273000I0J100000D01*
G01*
G37*
G36*
G01*
X91576000Y16723000D02*
X91576000Y16923000D01*
G75*
G02*
X91676000Y17023000I100000J0D01*
G01*
X92026000Y17023000D01*
G75*
G02*
X92126000Y16923000I0J-100000D01*
G01*
X92126000Y16723000D01*
G75*
G02*
X92026000Y16623000I-100000J0D01*
G01*
X91676000Y16623000D01*
G75*
G02*
X91576000Y16723000I0J100000D01*
G01*
G37*
G36*
G01*
X91576000Y16123000D02*
X91576000Y16323000D01*
G75*
G02*
X91676000Y16423000I100000J0D01*
G01*
X92026000Y16423000D01*
G75*
G02*
X92126000Y16323000I0J-100000D01*
G01*
X92126000Y16123000D01*
G75*
G02*
X92026000Y16023000I-100000J0D01*
G01*
X91676000Y16023000D01*
G75*
G02*
X91576000Y16123000I0J100000D01*
G01*
G37*
G36*
G01*
X91326000Y15423000D02*
X91326000Y15773000D01*
G75*
G02*
X91426000Y15873000I100000J0D01*
G01*
X91626000Y15873000D01*
G75*
G02*
X91726000Y15773000I0J-100000D01*
G01*
X91726000Y15423000D01*
G75*
G02*
X91626000Y15323000I-100000J0D01*
G01*
X91426000Y15323000D01*
G75*
G02*
X91326000Y15423000I0J100000D01*
G01*
G37*
G36*
G01*
X90726000Y15423000D02*
X90726000Y15773000D01*
G75*
G02*
X90826000Y15873000I100000J0D01*
G01*
X91026000Y15873000D01*
G75*
G02*
X91126000Y15773000I0J-100000D01*
G01*
X91126000Y15423000D01*
G75*
G02*
X91026000Y15323000I-100000J0D01*
G01*
X90826000Y15323000D01*
G75*
G02*
X90726000Y15423000I0J100000D01*
G01*
G37*
G36*
G01*
X90126000Y15423000D02*
X90126000Y15773000D01*
G75*
G02*
X90226000Y15873000I100000J0D01*
G01*
X90426000Y15873000D01*
G75*
G02*
X90526000Y15773000I0J-100000D01*
G01*
X90526000Y15423000D01*
G75*
G02*
X90426000Y15323000I-100000J0D01*
G01*
X90226000Y15323000D01*
G75*
G02*
X90126000Y15423000I0J100000D01*
G01*
G37*
G04 #@! TD*
G04 #@! TO.C,R30*
G36*
G01*
X41646000Y23338000D02*
X41646000Y23708000D01*
G75*
G02*
X41781000Y23843000I135000J0D01*
G01*
X42051000Y23843000D01*
G75*
G02*
X42186000Y23708000I0J-135000D01*
G01*
X42186000Y23338000D01*
G75*
G02*
X42051000Y23203000I-135000J0D01*
G01*
X41781000Y23203000D01*
G75*
G02*
X41646000Y23338000I0J135000D01*
G01*
G37*
G36*
G01*
X42666000Y23338000D02*
X42666000Y23708000D01*
G75*
G02*
X42801000Y23843000I135000J0D01*
G01*
X43071000Y23843000D01*
G75*
G02*
X43206000Y23708000I0J-135000D01*
G01*
X43206000Y23338000D01*
G75*
G02*
X43071000Y23203000I-135000J0D01*
G01*
X42801000Y23203000D01*
G75*
G02*
X42666000Y23338000I0J135000D01*
G01*
G37*
G04 #@! TD*
G04 #@! TO.C,R28*
G36*
G01*
X38636000Y22088000D02*
X38636000Y22458000D01*
G75*
G02*
X38771000Y22593000I135000J0D01*
G01*
X39041000Y22593000D01*
G75*
G02*
X39176000Y22458000I0J-135000D01*
G01*
X39176000Y22088000D01*
G75*
G02*
X39041000Y21953000I-135000J0D01*
G01*
X38771000Y21953000D01*
G75*
G02*
X38636000Y22088000I0J135000D01*
G01*
G37*
G36*
G01*
X39656000Y22088000D02*
X39656000Y22458000D01*
G75*
G02*
X39791000Y22593000I135000J0D01*
G01*
X40061000Y22593000D01*
G75*
G02*
X40196000Y22458000I0J-135000D01*
G01*
X40196000Y22088000D01*
G75*
G02*
X40061000Y21953000I-135000J0D01*
G01*
X39791000Y21953000D01*
G75*
G02*
X39656000Y22088000I0J135000D01*
G01*
G37*
G04 #@! TD*
G04 #@! TO.C,C14*
G36*
G01*
X13926000Y26823000D02*
X13426000Y26823000D01*
G75*
G02*
X13201000Y27048000I0J225000D01*
G01*
X13201000Y27498000D01*
G75*
G02*
X13426000Y27723000I225000J0D01*
G01*
X13926000Y27723000D01*
G75*
G02*
X14151000Y27498000I0J-225000D01*
G01*
X14151000Y27048000D01*
G75*
G02*
X13926000Y26823000I-225000J0D01*
G01*
G37*
G36*
G01*
X13926000Y28373000D02*
X13426000Y28373000D01*
G75*
G02*
X13201000Y28598000I0J225000D01*
G01*
X13201000Y29048000D01*
G75*
G02*
X13426000Y29273000I225000J0D01*
G01*
X13926000Y29273000D01*
G75*
G02*
X14151000Y29048000I0J-225000D01*
G01*
X14151000Y28598000D01*
G75*
G02*
X13926000Y28373000I-225000J0D01*
G01*
G37*
G04 #@! TD*
G04 #@! TO.C,R27*
G36*
G01*
X25906000Y73338000D02*
X25906000Y73708000D01*
G75*
G02*
X26041000Y73843000I135000J0D01*
G01*
X26311000Y73843000D01*
G75*
G02*
X26446000Y73708000I0J-135000D01*
G01*
X26446000Y73338000D01*
G75*
G02*
X26311000Y73203000I-135000J0D01*
G01*
X26041000Y73203000D01*
G75*
G02*
X25906000Y73338000I0J135000D01*
G01*
G37*
G36*
G01*
X26926000Y73338000D02*
X26926000Y73708000D01*
G75*
G02*
X27061000Y73843000I135000J0D01*
G01*
X27331000Y73843000D01*
G75*
G02*
X27466000Y73708000I0J-135000D01*
G01*
X27466000Y73338000D01*
G75*
G02*
X27331000Y73203000I-135000J0D01*
G01*
X27061000Y73203000D01*
G75*
G02*
X26926000Y73338000I0J135000D01*
G01*
G37*
G04 #@! TD*
G04 #@! TO.C,C20*
G36*
G01*
X37756000Y27033000D02*
X38096000Y27033000D01*
G75*
G02*
X38236000Y26893000I0J-140000D01*
G01*
X38236000Y26613000D01*
G75*
G02*
X38096000Y26473000I-140000J0D01*
G01*
X37756000Y26473000D01*
G75*
G02*
X37616000Y26613000I0J140000D01*
G01*
X37616000Y26893000D01*
G75*
G02*
X37756000Y27033000I140000J0D01*
G01*
G37*
G36*
G01*
X37756000Y26073000D02*
X38096000Y26073000D01*
G75*
G02*
X38236000Y25933000I0J-140000D01*
G01*
X38236000Y25653000D01*
G75*
G02*
X38096000Y25513000I-140000J0D01*
G01*
X37756000Y25513000D01*
G75*
G02*
X37616000Y25653000I0J140000D01*
G01*
X37616000Y25933000D01*
G75*
G02*
X37756000Y26073000I140000J0D01*
G01*
G37*
G04 #@! TD*
G04 #@! TO.C,C10*
G36*
G01*
X20436000Y23443000D02*
X20436000Y23103000D01*
G75*
G02*
X20296000Y22963000I-140000J0D01*
G01*
X20016000Y22963000D01*
G75*
G02*
X19876000Y23103000I0J140000D01*
G01*
X19876000Y23443000D01*
G75*
G02*
X20016000Y23583000I140000J0D01*
G01*
X20296000Y23583000D01*
G75*
G02*
X20436000Y23443000I0J-140000D01*
G01*
G37*
G36*
G01*
X19476000Y23443000D02*
X19476000Y23103000D01*
G75*
G02*
X19336000Y22963000I-140000J0D01*
G01*
X19056000Y22963000D01*
G75*
G02*
X18916000Y23103000I0J140000D01*
G01*
X18916000Y23443000D01*
G75*
G02*
X19056000Y23583000I140000J0D01*
G01*
X19336000Y23583000D01*
G75*
G02*
X19476000Y23443000I0J-140000D01*
G01*
G37*
G04 #@! TD*
G04 #@! TO.C,C9*
G36*
G01*
X19176000Y26798000D02*
X18676000Y26798000D01*
G75*
G02*
X18451000Y27023000I0J225000D01*
G01*
X18451000Y27473000D01*
G75*
G02*
X18676000Y27698000I225000J0D01*
G01*
X19176000Y27698000D01*
G75*
G02*
X19401000Y27473000I0J-225000D01*
G01*
X19401000Y27023000D01*
G75*
G02*
X19176000Y26798000I-225000J0D01*
G01*
G37*
G36*
G01*
X19176000Y28348000D02*
X18676000Y28348000D01*
G75*
G02*
X18451000Y28573000I0J225000D01*
G01*
X18451000Y29023000D01*
G75*
G02*
X18676000Y29248000I225000J0D01*
G01*
X19176000Y29248000D01*
G75*
G02*
X19401000Y29023000I0J-225000D01*
G01*
X19401000Y28573000D01*
G75*
G02*
X19176000Y28348000I-225000J0D01*
G01*
G37*
G04 #@! TD*
D17*
G04 #@! TO.C,D33*
X49676000Y25573000D03*
X49676000Y23473000D03*
G04 #@! TD*
G04 #@! TO.C,C16*
G36*
G01*
X39176000Y26998000D02*
X39676000Y26998000D01*
G75*
G02*
X39901000Y26773000I0J-225000D01*
G01*
X39901000Y26323000D01*
G75*
G02*
X39676000Y26098000I-225000J0D01*
G01*
X39176000Y26098000D01*
G75*
G02*
X38951000Y26323000I0J225000D01*
G01*
X38951000Y26773000D01*
G75*
G02*
X39176000Y26998000I225000J0D01*
G01*
G37*
G36*
G01*
X39176000Y25448000D02*
X39676000Y25448000D01*
G75*
G02*
X39901000Y25223000I0J-225000D01*
G01*
X39901000Y24773000D01*
G75*
G02*
X39676000Y24548000I-225000J0D01*
G01*
X39176000Y24548000D01*
G75*
G02*
X38951000Y24773000I0J225000D01*
G01*
X38951000Y25223000D01*
G75*
G02*
X39176000Y25448000I225000J0D01*
G01*
G37*
G04 #@! TD*
G04 #@! TO.C,D32*
X47176000Y23473000D03*
X47176000Y25573000D03*
G04 #@! TD*
G04 #@! TO.C,C18*
G36*
G01*
X20596000Y26763000D02*
X20256000Y26763000D01*
G75*
G02*
X20116000Y26903000I0J140000D01*
G01*
X20116000Y27183000D01*
G75*
G02*
X20256000Y27323000I140000J0D01*
G01*
X20596000Y27323000D01*
G75*
G02*
X20736000Y27183000I0J-140000D01*
G01*
X20736000Y26903000D01*
G75*
G02*
X20596000Y26763000I-140000J0D01*
G01*
G37*
G36*
G01*
X20596000Y27723000D02*
X20256000Y27723000D01*
G75*
G02*
X20116000Y27863000I0J140000D01*
G01*
X20116000Y28143000D01*
G75*
G02*
X20256000Y28283000I140000J0D01*
G01*
X20596000Y28283000D01*
G75*
G02*
X20736000Y28143000I0J-140000D01*
G01*
X20736000Y27863000D01*
G75*
G02*
X20596000Y27723000I-140000J0D01*
G01*
G37*
G04 #@! TD*
M02*
