G04 #@! TF.GenerationSoftware,KiCad,Pcbnew,(5.99.0-11164-g062c4fda62)*
G04 #@! TF.CreationDate,2021-07-14T15:35:42+03:00*
G04 #@! TF.ProjectId,hellen88bmw,68656c6c-656e-4383-9862-6d772e6b6963,rev?*
G04 #@! TF.SameCoordinates,PX3d1b110PY9269338*
G04 #@! TF.FileFunction,Profile,NP*
%FSLAX46Y46*%
G04 Gerber Fmt 4.6, Leading zero omitted, Abs format (unit mm)*
G04 Created by KiCad (PCBNEW (5.99.0-11164-g062c4fda62)) date 2021-07-14 15:35:42*
%MOMM*%
%LPD*%
G01*
G04 APERTURE LIST*
G04 #@! TA.AperFunction,Profile*
%ADD10C,0.200000*%
G04 #@! TD*
G04 #@! TA.AperFunction,Profile*
%ADD11C,0.120000*%
G04 #@! TD*
G04 APERTURE END LIST*
D10*
X14499800Y48758200D02*
X14499800Y61958200D01*
X143499800Y43758200D02*
X159999800Y43758200D01*
X159999800Y93758200D02*
X159999800Y56958200D01*
X-200Y93758200D02*
X14499800Y93758200D01*
X156999800Y117958200D02*
X159999800Y114958200D01*
X-200Y48758200D02*
X14499800Y48758200D01*
X14499800Y93758200D02*
X14499800Y106958200D01*
X159999800Y114958200D02*
X159999800Y106958200D01*
X-200Y61958200D02*
X-200Y93758200D01*
X143499800Y106958200D02*
X143499800Y93758200D01*
X143499800Y93758200D02*
X159999800Y93758200D01*
X2999800Y117958200D02*
X156999800Y117958200D01*
X14499800Y106958200D02*
X-200Y106958200D01*
X159999800Y43758200D02*
X159999800Y6000200D01*
X14499800Y61958200D02*
X-200Y61958200D01*
X159999800Y6000200D02*
X153999800Y200D01*
X-200Y6000200D02*
X-200Y48758200D01*
X143499800Y56958200D02*
X143499800Y43758200D01*
X159999800Y56958200D02*
X143499800Y56958200D01*
X159999800Y106958200D02*
X143499800Y106958200D01*
X5999800Y200D02*
X-200Y6000200D01*
X-200Y106958200D02*
X-200Y114958200D01*
X153999800Y200D02*
X5999800Y200D01*
X-200Y114958200D02*
X2999800Y117958200D01*
D11*
G04 #@! TO.C,J1*
X75772060Y4019593D02*
X77151715Y4019593D01*
X77086079Y3131886D02*
X75706424Y3131886D01*
X75778199Y11314114D02*
X77157854Y11314114D01*
X77092218Y10426407D02*
X75712563Y10426407D01*
X77086079Y3131888D02*
G75*
G03*
X77151715Y4019592I-7526J446835D01*
G01*
X75772060Y4019594D02*
G75*
G03*
X75706424Y3131887I7527J-446837D01*
G01*
X77092218Y10426409D02*
G75*
G03*
X77157854Y11314113I-7526J446835D01*
G01*
X75778199Y11314115D02*
G75*
G03*
X75712563Y10426408I7527J-446837D01*
G01*
G04 #@! TD*
M02*
