G04 #@! TF.GenerationSoftware,KiCad,Pcbnew,(5.99.0-11247-g3f6811f413)*
G04 #@! TF.CreationDate,2021-08-04T01:05:31+03:00*
G04 #@! TF.ProjectId,hellen88bmw,68656c6c-656e-4383-9862-6d772e6b6963,rev?*
G04 #@! TF.SameCoordinates,PX3d1b110PY9269338*
G04 #@! TF.FileFunction,Soldermask,Top*
G04 #@! TF.FilePolarity,Negative*
%FSLAX46Y46*%
G04 Gerber Fmt 4.6, Leading zero omitted, Abs format (unit mm)*
G04 Created by KiCad (PCBNEW (5.99.0-11247-g3f6811f413)) date 2021-08-04 01:05:31*
%MOMM*%
%LPD*%
G01*
G04 APERTURE LIST*
%ADD10R,0.850000X0.850000*%
%ADD11C,6.000000*%
%ADD12C,1.524000*%
%ADD13R,1.397000X0.889000*%
%ADD14R,0.203200X1.524000*%
%ADD15R,2.200000X1.200000*%
%ADD16R,6.400000X5.800000*%
%ADD17R,0.800000X1.500000*%
%ADD18R,1.450000X2.000000*%
%ADD19R,1.700000X1.700000*%
%ADD20O,1.700000X1.700000*%
%ADD21R,2.160000X0.640000*%
%ADD22C,4.300000*%
%ADD23C,1.000000*%
%ADD24C,0.800000*%
%ADD25R,0.900000X1.700000*%
%ADD26R,0.900000X0.400000*%
%ADD27C,2.000000*%
%ADD28R,1.350000X1.350000*%
%ADD29O,1.350000X1.350000*%
%ADD30R,1.100000X1.100000*%
%ADD31C,1.100000*%
%ADD32O,2.400000X1.100000*%
%ADD33O,0.250000X0.499999*%
%ADD34O,0.499999X0.250000*%
%ADD35C,0.599999*%
%ADD36O,0.500000X0.250000*%
%ADD37O,0.250000X0.500000*%
%ADD38C,3.000000*%
%ADD39O,3.700000X2.700000*%
%ADD40O,1.700000X1.850000*%
%ADD41O,1.800000X2.800000*%
%ADD42C,3.302000*%
%ADD43O,1.000001X1.500000*%
%ADD44O,0.800001X0.599999*%
%ADD45O,1.000001X0.499999*%
%ADD46O,0.200000X0.499999*%
%ADD47O,0.200000X0.399999*%
G04 APERTURE END LIST*
D10*
G04 #@! TO.C,MMCU15*
X62926000Y16523000D03*
G04 #@! TD*
D11*
G04 #@! TO.C,\u002Aref1*
X7632400Y113856400D03*
X153342400Y113606400D03*
D12*
X27142400Y111606400D03*
X32142400Y111606400D03*
X37142400Y111606400D03*
X42142400Y111606400D03*
X47142400Y111606400D03*
X52142400Y111606400D03*
X56892400Y110856400D03*
X60142400Y110856400D03*
X63392400Y110856400D03*
X66642400Y110856400D03*
X69892400Y110856400D03*
X73142400Y110856400D03*
X76392400Y110856400D03*
X79642400Y110856400D03*
X82892400Y110856400D03*
X86142400Y110856400D03*
X89392400Y110856400D03*
X92642400Y110856400D03*
X95892400Y110856400D03*
X99142400Y110856400D03*
X102392400Y110856400D03*
X107392400Y111606400D03*
X112392400Y111606400D03*
X117392400Y111606400D03*
X122392400Y111606400D03*
X127392400Y111606400D03*
X132392400Y111606400D03*
X137392400Y111606400D03*
X29642400Y111606400D03*
X34642400Y111606400D03*
X39642400Y111606400D03*
X44642400Y111606400D03*
X49642400Y111606400D03*
X54642400Y111606400D03*
X58642400Y112356400D03*
X61892400Y112356400D03*
X65142400Y112356400D03*
X68392400Y112356400D03*
X71642400Y112356400D03*
X74892400Y112356400D03*
X78142400Y112356400D03*
X81392400Y112356400D03*
X84642400Y112356400D03*
X87892400Y112356400D03*
X91142400Y112356400D03*
X94392400Y112356400D03*
X97642400Y112356400D03*
X100892400Y112356400D03*
X104892400Y111606400D03*
X109892400Y111606400D03*
X114892400Y111606400D03*
X119892400Y111606400D03*
X124892400Y111606400D03*
X129892400Y111606400D03*
X134892400Y111606400D03*
X29392400Y105356400D03*
X32642400Y105356400D03*
X35892400Y105356400D03*
X39142400Y105356400D03*
X42392400Y105356400D03*
X45642400Y105356400D03*
X48892400Y105356400D03*
X52142400Y105356400D03*
X55392400Y105356400D03*
X58642400Y105356400D03*
X61892400Y105356400D03*
X65142400Y105356400D03*
X68392400Y105356400D03*
X71642400Y105356400D03*
X74892400Y105356400D03*
X78142400Y105356400D03*
X81392400Y105356400D03*
X84642400Y105356400D03*
X87892400Y105356400D03*
X91142400Y105356400D03*
X94392400Y105356400D03*
X97642400Y105356400D03*
X100892400Y105356400D03*
X104142400Y105356400D03*
X107392400Y105356400D03*
X110642400Y105356400D03*
X113892400Y105356400D03*
X117142400Y105356400D03*
X120392400Y105356400D03*
X123642400Y105356400D03*
X126892400Y105356400D03*
X130142400Y105356400D03*
X133392400Y105356400D03*
G04 #@! TD*
D13*
G04 #@! TO.C,JP1*
X21926000Y99475500D03*
D12*
X21926000Y100428000D03*
D14*
X21926000Y99793000D03*
X21926000Y97253000D03*
D12*
X21926000Y96618000D03*
D13*
X21926000Y97570500D03*
G04 #@! TD*
G04 #@! TO.C,JP3*
X30176000Y99475500D03*
D12*
X30176000Y100428000D03*
D14*
X30176000Y99793000D03*
D12*
X30176000Y96618000D03*
D14*
X30176000Y97253000D03*
D13*
X30176000Y97570500D03*
G04 #@! TD*
G04 #@! TO.C,JP4*
X35676000Y99475500D03*
D12*
X35676000Y100428000D03*
D14*
X35676000Y99793000D03*
D13*
X35676000Y97570500D03*
D12*
X35676000Y96618000D03*
D14*
X35676000Y97253000D03*
G04 #@! TD*
G04 #@! TO.C,JP5*
X45176000Y99793000D03*
D12*
X45176000Y100428000D03*
D13*
X45176000Y99475500D03*
D14*
X45176000Y97253000D03*
D13*
X45176000Y97570500D03*
D12*
X45176000Y96618000D03*
G04 #@! TD*
G04 #@! TO.C,JP7*
X51926000Y100428000D03*
D13*
X51926000Y99475500D03*
D14*
X51926000Y99793000D03*
D13*
X51926000Y97570500D03*
D14*
X51926000Y97253000D03*
D12*
X51926000Y96618000D03*
G04 #@! TD*
D13*
G04 #@! TO.C,JP14*
X79676000Y99475500D03*
D12*
X79676000Y100428000D03*
D14*
X79676000Y99793000D03*
D13*
X79676000Y97570500D03*
D14*
X79676000Y97253000D03*
D12*
X79676000Y96618000D03*
G04 #@! TD*
D14*
G04 #@! TO.C,JP16*
X85176000Y99793000D03*
D12*
X85176000Y100428000D03*
D13*
X85176000Y99475500D03*
X85176000Y97570500D03*
D12*
X85176000Y96618000D03*
D14*
X85176000Y97253000D03*
G04 #@! TD*
G04 #@! TO.C,JP17*
X87926000Y99793000D03*
D13*
X87926000Y99475500D03*
D12*
X87926000Y100428000D03*
D13*
X87926000Y97570500D03*
D14*
X87926000Y97253000D03*
D12*
X87926000Y96618000D03*
G04 #@! TD*
D14*
G04 #@! TO.C,JP20*
X94926000Y92293000D03*
D13*
X94926000Y91975500D03*
D12*
X94926000Y92928000D03*
D13*
X94926000Y90070500D03*
D14*
X94926000Y89753000D03*
D12*
X94926000Y89118000D03*
G04 #@! TD*
D14*
G04 #@! TO.C,JP21*
X98176000Y92293000D03*
D13*
X98176000Y91975500D03*
D12*
X98176000Y92928000D03*
X98176000Y89118000D03*
D14*
X98176000Y89753000D03*
D13*
X98176000Y90070500D03*
G04 #@! TD*
D12*
G04 #@! TO.C,JP22*
X110926000Y92928000D03*
D13*
X110926000Y91975500D03*
D14*
X110926000Y92293000D03*
D12*
X110926000Y89118000D03*
D13*
X110926000Y90070500D03*
D14*
X110926000Y89753000D03*
G04 #@! TD*
D13*
G04 #@! TO.C,JP23*
X116426000Y91975500D03*
D14*
X116426000Y92293000D03*
D12*
X116426000Y92928000D03*
X116426000Y89118000D03*
D14*
X116426000Y89753000D03*
D13*
X116426000Y90070500D03*
G04 #@! TD*
G04 #@! TO.C,JP24*
X121926000Y91975500D03*
D14*
X121926000Y92293000D03*
D12*
X121926000Y92928000D03*
X121926000Y89118000D03*
D13*
X121926000Y90070500D03*
D14*
X121926000Y89753000D03*
G04 #@! TD*
G04 #@! TO.C,JP25*
X125676000Y99793000D03*
D13*
X125676000Y99475500D03*
D12*
X125676000Y100428000D03*
X125676000Y96618000D03*
D13*
X125676000Y97570500D03*
D14*
X125676000Y97253000D03*
G04 #@! TD*
D12*
G04 #@! TO.C,JP26*
X129926000Y100428000D03*
D14*
X129926000Y99793000D03*
D13*
X129926000Y99475500D03*
D14*
X129926000Y97253000D03*
D12*
X129926000Y96618000D03*
D13*
X129926000Y97570500D03*
G04 #@! TD*
D12*
G04 #@! TO.C,JP27*
X135926000Y100428000D03*
D13*
X135926000Y99475500D03*
D14*
X135926000Y99793000D03*
D13*
X135926000Y97570500D03*
D12*
X135926000Y96618000D03*
D14*
X135926000Y97253000D03*
G04 #@! TD*
D13*
G04 #@! TO.C,JP29*
X24676000Y99475500D03*
D12*
X24676000Y100428000D03*
D14*
X24676000Y99793000D03*
D12*
X24676000Y96618000D03*
D14*
X24676000Y97253000D03*
D13*
X24676000Y97570500D03*
G04 #@! TD*
G04 #@! TO.C,JP31*
X32926000Y99475500D03*
D12*
X32926000Y100428000D03*
D14*
X32926000Y99793000D03*
D12*
X32926000Y96618000D03*
D13*
X32926000Y97570500D03*
D14*
X32926000Y97253000D03*
G04 #@! TD*
D13*
G04 #@! TO.C,JP32*
X41176000Y99475500D03*
D12*
X41176000Y100428000D03*
D14*
X41176000Y99793000D03*
D12*
X41176000Y96618000D03*
D13*
X41176000Y97570500D03*
D14*
X41176000Y97253000D03*
G04 #@! TD*
D13*
G04 #@! TO.C,JP33*
X47926000Y99475500D03*
D14*
X47926000Y99793000D03*
D12*
X47926000Y100428000D03*
D14*
X47926000Y97253000D03*
D13*
X47926000Y97570500D03*
D12*
X47926000Y96618000D03*
G04 #@! TD*
G04 #@! TO.C,JP35*
X55926000Y100428000D03*
D14*
X55926000Y99793000D03*
D13*
X55926000Y99475500D03*
D14*
X55926000Y97253000D03*
D13*
X55926000Y97570500D03*
D12*
X55926000Y96618000D03*
G04 #@! TD*
D13*
G04 #@! TO.C,JP41*
X77926000Y91975500D03*
D14*
X77926000Y92293000D03*
D12*
X77926000Y92928000D03*
D13*
X77926000Y90070500D03*
D12*
X77926000Y89118000D03*
D14*
X77926000Y89753000D03*
G04 #@! TD*
D13*
G04 #@! TO.C,JP42*
X80426000Y91975500D03*
D14*
X80426000Y92293000D03*
D12*
X80426000Y92928000D03*
D13*
X80426000Y90070500D03*
D14*
X80426000Y89753000D03*
D12*
X80426000Y89118000D03*
G04 #@! TD*
G04 #@! TO.C,JP43*
X82426000Y100428000D03*
D14*
X82426000Y99793000D03*
D13*
X82426000Y99475500D03*
D12*
X82426000Y96618000D03*
D14*
X82426000Y97253000D03*
D13*
X82426000Y97570500D03*
G04 #@! TD*
D14*
G04 #@! TO.C,JP44*
X86676000Y92293000D03*
D12*
X86676000Y92928000D03*
D13*
X86676000Y91975500D03*
D14*
X86676000Y89753000D03*
D13*
X86676000Y90070500D03*
D12*
X86676000Y89118000D03*
G04 #@! TD*
D13*
G04 #@! TO.C,JP46*
X89426000Y91975500D03*
D12*
X89426000Y92928000D03*
D14*
X89426000Y92293000D03*
D12*
X89426000Y89118000D03*
D14*
X89426000Y89753000D03*
D13*
X89426000Y90070500D03*
G04 #@! TD*
D14*
G04 #@! TO.C,JP47*
X92176000Y92293000D03*
D13*
X92176000Y91975500D03*
D12*
X92176000Y92928000D03*
D13*
X92176000Y90070500D03*
D14*
X92176000Y89753000D03*
D12*
X92176000Y89118000D03*
G04 #@! TD*
G04 #@! TO.C,JP50*
X113676000Y92928000D03*
D14*
X113676000Y92293000D03*
D13*
X113676000Y91975500D03*
D12*
X113676000Y89118000D03*
D13*
X113676000Y90070500D03*
D14*
X113676000Y89753000D03*
G04 #@! TD*
D13*
G04 #@! TO.C,JP51*
X119176000Y91975500D03*
D12*
X119176000Y92928000D03*
D14*
X119176000Y92293000D03*
D12*
X119176000Y89118000D03*
D14*
X119176000Y89753000D03*
D13*
X119176000Y90070500D03*
G04 #@! TD*
G04 #@! TO.C,JP52*
X124676000Y91975500D03*
D14*
X124676000Y92293000D03*
D12*
X124676000Y92928000D03*
D14*
X124676000Y89753000D03*
D13*
X124676000Y90070500D03*
D12*
X124676000Y89118000D03*
G04 #@! TD*
D14*
G04 #@! TO.C,JP54*
X132676000Y99793000D03*
D13*
X132676000Y99475500D03*
D12*
X132676000Y100428000D03*
X132676000Y96618000D03*
D14*
X132676000Y97253000D03*
D13*
X132676000Y97570500D03*
G04 #@! TD*
G04 #@! TO.C,JP56*
X27426000Y99475500D03*
D12*
X27426000Y100428000D03*
D14*
X27426000Y99793000D03*
D13*
X27426000Y97570500D03*
D14*
X27426000Y97253000D03*
D12*
X27426000Y96618000D03*
G04 #@! TD*
D14*
G04 #@! TO.C,JP73*
X83926000Y92293000D03*
D12*
X83926000Y92928000D03*
D13*
X83926000Y91975500D03*
D14*
X83926000Y89753000D03*
D12*
X83926000Y89118000D03*
D13*
X83926000Y90070500D03*
G04 #@! TD*
D12*
G04 #@! TO.C,JP77*
X95926000Y100428000D03*
D14*
X95926000Y99793000D03*
D13*
X95926000Y99475500D03*
X95926000Y97570500D03*
D12*
X95926000Y96618000D03*
D14*
X95926000Y97253000D03*
G04 #@! TD*
D12*
G04 #@! TO.C,JP78*
X100926000Y100428000D03*
D13*
X100926000Y99475500D03*
D14*
X100926000Y99793000D03*
D12*
X100926000Y96618000D03*
D13*
X100926000Y97570500D03*
D14*
X100926000Y97253000D03*
G04 #@! TD*
D13*
G04 #@! TO.C,JP85*
X130176000Y91975500D03*
D14*
X130176000Y92293000D03*
D12*
X130176000Y92928000D03*
D13*
X130176000Y90070500D03*
D12*
X130176000Y89118000D03*
D14*
X130176000Y89753000D03*
G04 #@! TD*
G04 #@! TO.C,JP86*
X127426000Y92293000D03*
D13*
X127426000Y91975500D03*
D12*
X127426000Y92928000D03*
D13*
X127426000Y90070500D03*
D14*
X127426000Y89753000D03*
D12*
X127426000Y89118000D03*
G04 #@! TD*
D14*
G04 #@! TO.C,JP59*
X38426000Y99793000D03*
D12*
X38426000Y100428000D03*
D13*
X38426000Y99475500D03*
D14*
X38426000Y97253000D03*
D12*
X38426000Y96618000D03*
D13*
X38426000Y97570500D03*
G04 #@! TD*
D14*
G04 #@! TO.C,JP49*
X108176000Y92293000D03*
D13*
X108176000Y91975500D03*
D12*
X108176000Y92928000D03*
D13*
X108176000Y90070500D03*
D12*
X108176000Y89118000D03*
D14*
X108176000Y89753000D03*
G04 #@! TD*
D15*
G04 #@! TO.C,Q1*
X139726000Y32303000D03*
D16*
X146026000Y30023000D03*
D15*
X139726000Y27743000D03*
G04 #@! TD*
G04 #@! TO.C,Q6*
X139726000Y92303000D03*
D16*
X146026000Y90023000D03*
D15*
X139726000Y87743000D03*
G04 #@! TD*
G04 #@! TO.C,Q2*
X139726000Y42303000D03*
D16*
X146026000Y40023000D03*
D15*
X139726000Y37743000D03*
G04 #@! TD*
G04 #@! TO.C,Q5*
X139726000Y82303000D03*
D16*
X146026000Y80023000D03*
D15*
X139726000Y77743000D03*
G04 #@! TD*
G04 #@! TO.C,Q3*
X139726000Y62803000D03*
D16*
X146026000Y60523000D03*
D15*
X139726000Y58243000D03*
G04 #@! TD*
G04 #@! TO.C,Q4*
X139726000Y72803000D03*
D16*
X146026000Y70523000D03*
D15*
X139726000Y68243000D03*
G04 #@! TD*
D17*
G04 #@! TO.C,J3*
X109476000Y9973000D03*
X110576000Y9973000D03*
X111676000Y9973000D03*
X112776000Y9973000D03*
X113876000Y9973000D03*
X114976000Y9973000D03*
X116076000Y9973000D03*
X117176000Y9973000D03*
D18*
X119551000Y4273000D03*
X105801000Y4273000D03*
X119551000Y12573000D03*
X105801000Y12573000D03*
G04 #@! TD*
G04 #@! TO.C,C1*
G36*
G01*
X45596000Y17993000D02*
X45256000Y17993000D01*
G75*
G02*
X45116000Y18133000I0J140000D01*
G01*
X45116000Y18413000D01*
G75*
G02*
X45256000Y18553000I140000J0D01*
G01*
X45596000Y18553000D01*
G75*
G02*
X45736000Y18413000I0J-140000D01*
G01*
X45736000Y18133000D01*
G75*
G02*
X45596000Y17993000I-140000J0D01*
G01*
G37*
G36*
G01*
X45596000Y18953000D02*
X45256000Y18953000D01*
G75*
G02*
X45116000Y19093000I0J140000D01*
G01*
X45116000Y19373000D01*
G75*
G02*
X45256000Y19513000I140000J0D01*
G01*
X45596000Y19513000D01*
G75*
G02*
X45736000Y19373000I0J-140000D01*
G01*
X45736000Y19093000D01*
G75*
G02*
X45596000Y18953000I-140000J0D01*
G01*
G37*
G04 #@! TD*
G04 #@! TO.C,C2*
G36*
G01*
X44596000Y18013000D02*
X44256000Y18013000D01*
G75*
G02*
X44116000Y18153000I0J140000D01*
G01*
X44116000Y18433000D01*
G75*
G02*
X44256000Y18573000I140000J0D01*
G01*
X44596000Y18573000D01*
G75*
G02*
X44736000Y18433000I0J-140000D01*
G01*
X44736000Y18153000D01*
G75*
G02*
X44596000Y18013000I-140000J0D01*
G01*
G37*
G36*
G01*
X44596000Y18973000D02*
X44256000Y18973000D01*
G75*
G02*
X44116000Y19113000I0J140000D01*
G01*
X44116000Y19393000D01*
G75*
G02*
X44256000Y19533000I140000J0D01*
G01*
X44596000Y19533000D01*
G75*
G02*
X44736000Y19393000I0J-140000D01*
G01*
X44736000Y19113000D01*
G75*
G02*
X44596000Y18973000I-140000J0D01*
G01*
G37*
G04 #@! TD*
D19*
G04 #@! TO.C,J4*
X24476000Y73653000D03*
D20*
X24476000Y71113000D03*
X24476000Y68573000D03*
X24476000Y66033000D03*
X24476000Y63493000D03*
G04 #@! TD*
D19*
G04 #@! TO.C,J5*
X1516000Y91433000D03*
D20*
X1516000Y88893000D03*
X1516000Y86353000D03*
X1516000Y83813000D03*
X1516000Y81273000D03*
X1516000Y78733000D03*
X1516000Y76193000D03*
X1516000Y73653000D03*
X1516000Y71113000D03*
X1516000Y68573000D03*
X1516000Y66033000D03*
X1516000Y63493000D03*
G04 #@! TD*
D19*
G04 #@! TO.C,J6*
X3976001Y91433000D03*
D20*
X3976001Y88893000D03*
X3976001Y86353000D03*
X3976001Y83813000D03*
X3976001Y81273000D03*
X3976001Y78733000D03*
X3976001Y76193000D03*
X3976001Y73653000D03*
X3976001Y71113000D03*
X3976001Y68573000D03*
X3976001Y66033000D03*
X3976001Y63493000D03*
G04 #@! TD*
D19*
G04 #@! TO.C,J7*
X6596000Y91433000D03*
D20*
X6596000Y88893000D03*
X6596000Y86353000D03*
X6596000Y83813000D03*
X6596000Y81273000D03*
X6596000Y78733000D03*
X6596000Y76193000D03*
X6596000Y73653000D03*
X6596000Y71113000D03*
X6596000Y68573000D03*
X6596000Y66033000D03*
X6596000Y63493000D03*
G04 #@! TD*
D19*
G04 #@! TO.C,J8*
X9136000Y91433000D03*
D20*
X9136000Y88893000D03*
X9136000Y86353000D03*
X9136000Y83813000D03*
X9136000Y81273000D03*
X9136000Y78733000D03*
X9136000Y76193000D03*
X9136000Y73653000D03*
X9136000Y71113000D03*
X9136000Y68573000D03*
X9136000Y66033000D03*
X9136000Y63493000D03*
G04 #@! TD*
D19*
G04 #@! TO.C,J9*
X11676000Y91433000D03*
D20*
X11676000Y88893000D03*
X11676000Y86353000D03*
X11676000Y83813000D03*
X11676000Y81273000D03*
X11676000Y78733000D03*
X11676000Y76193000D03*
X11676000Y73653000D03*
X11676000Y71113000D03*
X11676000Y68573000D03*
X11676000Y66033000D03*
X11676000Y63493000D03*
G04 #@! TD*
D19*
G04 #@! TO.C,J10*
X14216000Y91433000D03*
D20*
X14216000Y88893000D03*
X14216000Y86353000D03*
X14216000Y83813000D03*
X14216000Y81273000D03*
X14216000Y78733000D03*
X14216000Y76193000D03*
X14216000Y73653000D03*
X14216000Y71113000D03*
X14216000Y68573000D03*
X14216000Y66033000D03*
X14216000Y63493000D03*
G04 #@! TD*
D19*
G04 #@! TO.C,J11*
X16756000Y91433000D03*
D20*
X16756000Y88893000D03*
X16756000Y86353000D03*
X16756000Y83813000D03*
X16756000Y81273000D03*
X16756000Y78733000D03*
X16756000Y76193000D03*
X16756000Y73653000D03*
X16756000Y71113000D03*
X16756000Y68573000D03*
X16756000Y66033000D03*
X16756000Y63493000D03*
G04 #@! TD*
D19*
G04 #@! TO.C,J12*
X19296000Y91433000D03*
D20*
X19296000Y88893000D03*
X19296000Y86353000D03*
X19296000Y83813000D03*
X19296000Y81273000D03*
X19296000Y78733000D03*
X19296000Y76193000D03*
X19296000Y73653000D03*
X19296000Y71113000D03*
X19296000Y68573000D03*
X19296000Y66033000D03*
X19296000Y63493000D03*
G04 #@! TD*
D19*
G04 #@! TO.C,J13*
X21836000Y91433000D03*
D20*
X21836000Y88893000D03*
X21836000Y86353000D03*
X21836000Y83813000D03*
X21836000Y81273000D03*
X21836000Y78733000D03*
X21836000Y76193000D03*
X21836000Y73653000D03*
X21836000Y71113000D03*
X21836000Y68573000D03*
X21836000Y66033000D03*
X21836000Y63493000D03*
G04 #@! TD*
D21*
G04 #@! TO.C,U1*
X42446000Y16868000D03*
X42446000Y18138000D03*
X42446000Y19408000D03*
X42446000Y20678000D03*
X33906000Y20678000D03*
X33906000Y19408000D03*
X33906000Y18138000D03*
X33906000Y16868000D03*
G04 #@! TD*
D22*
G04 #@! TO.C,H1*
X130622000Y5663000D03*
G04 #@! TD*
G04 #@! TO.C,H2*
X7432000Y5663000D03*
G04 #@! TD*
G04 #@! TO.C,R1*
G36*
G01*
X96646000Y8288000D02*
X96646000Y8658000D01*
G75*
G02*
X96781000Y8793000I135000J0D01*
G01*
X97051000Y8793000D01*
G75*
G02*
X97186000Y8658000I0J-135000D01*
G01*
X97186000Y8288000D01*
G75*
G02*
X97051000Y8153000I-135000J0D01*
G01*
X96781000Y8153000D01*
G75*
G02*
X96646000Y8288000I0J135000D01*
G01*
G37*
G36*
G01*
X97666000Y8288000D02*
X97666000Y8658000D01*
G75*
G02*
X97801000Y8793000I135000J0D01*
G01*
X98071000Y8793000D01*
G75*
G02*
X98206000Y8658000I0J-135000D01*
G01*
X98206000Y8288000D01*
G75*
G02*
X98071000Y8153000I-135000J0D01*
G01*
X97801000Y8153000D01*
G75*
G02*
X97666000Y8288000I0J135000D01*
G01*
G37*
G04 #@! TD*
G04 #@! TO.C,D14*
G36*
G01*
X26901000Y16529250D02*
X26901000Y16016750D01*
G75*
G02*
X26682250Y15798000I-218750J0D01*
G01*
X26244750Y15798000D01*
G75*
G02*
X26026000Y16016750I0J218750D01*
G01*
X26026000Y16529250D01*
G75*
G02*
X26244750Y16748000I218750J0D01*
G01*
X26682250Y16748000D01*
G75*
G02*
X26901000Y16529250I0J-218750D01*
G01*
G37*
G36*
G01*
X25326000Y16529250D02*
X25326000Y16016750D01*
G75*
G02*
X25107250Y15798000I-218750J0D01*
G01*
X24669750Y15798000D01*
G75*
G02*
X24451000Y16016750I0J218750D01*
G01*
X24451000Y16529250D01*
G75*
G02*
X24669750Y16748000I218750J0D01*
G01*
X25107250Y16748000D01*
G75*
G02*
X25326000Y16529250I0J-218750D01*
G01*
G37*
G04 #@! TD*
G04 #@! TO.C,R10*
G36*
G01*
X137601000Y17448000D02*
X134751000Y17448000D01*
G75*
G02*
X134501000Y17698000I0J250000D01*
G01*
X134501000Y18423000D01*
G75*
G02*
X134751000Y18673000I250000J0D01*
G01*
X137601000Y18673000D01*
G75*
G02*
X137851000Y18423000I0J-250000D01*
G01*
X137851000Y17698000D01*
G75*
G02*
X137601000Y17448000I-250000J0D01*
G01*
G37*
G36*
G01*
X137601000Y23373000D02*
X134751000Y23373000D01*
G75*
G02*
X134501000Y23623000I0J250000D01*
G01*
X134501000Y24348000D01*
G75*
G02*
X134751000Y24598000I250000J0D01*
G01*
X137601000Y24598000D01*
G75*
G02*
X137851000Y24348000I0J-250000D01*
G01*
X137851000Y23623000D01*
G75*
G02*
X137601000Y23373000I-250000J0D01*
G01*
G37*
G04 #@! TD*
D10*
G04 #@! TO.C,VOUT18*
X52176000Y91474215D03*
G04 #@! TD*
G04 #@! TO.C,D23*
G36*
G01*
X121988500Y66266750D02*
X121988500Y66779250D01*
G75*
G02*
X122207250Y66998000I218750J0D01*
G01*
X122644750Y66998000D01*
G75*
G02*
X122863500Y66779250I0J-218750D01*
G01*
X122863500Y66266750D01*
G75*
G02*
X122644750Y66048000I-218750J0D01*
G01*
X122207250Y66048000D01*
G75*
G02*
X121988500Y66266750I0J218750D01*
G01*
G37*
G36*
G01*
X123563500Y66266750D02*
X123563500Y66779250D01*
G75*
G02*
X123782250Y66998000I218750J0D01*
G01*
X124219750Y66998000D01*
G75*
G02*
X124438500Y66779250I0J-218750D01*
G01*
X124438500Y66266750D01*
G75*
G02*
X124219750Y66048000I-218750J0D01*
G01*
X123782250Y66048000D01*
G75*
G02*
X123563500Y66266750I0J218750D01*
G01*
G37*
G04 #@! TD*
G04 #@! TO.C,VOUT27*
X28926000Y38523000D03*
G04 #@! TD*
G04 #@! TO.C,VIN16*
X84176000Y76773000D03*
G04 #@! TD*
G04 #@! TO.C,D25*
G36*
G01*
X68151000Y66779250D02*
X68151000Y66266750D01*
G75*
G02*
X67932250Y66048000I-218750J0D01*
G01*
X67494750Y66048000D01*
G75*
G02*
X67276000Y66266750I0J218750D01*
G01*
X67276000Y66779250D01*
G75*
G02*
X67494750Y66998000I218750J0D01*
G01*
X67932250Y66998000D01*
G75*
G02*
X68151000Y66779250I0J-218750D01*
G01*
G37*
G36*
G01*
X66576000Y66779250D02*
X66576000Y66266750D01*
G75*
G02*
X66357250Y66048000I-218750J0D01*
G01*
X65919750Y66048000D01*
G75*
G02*
X65701000Y66266750I0J218750D01*
G01*
X65701000Y66779250D01*
G75*
G02*
X65919750Y66998000I218750J0D01*
G01*
X66357250Y66998000D01*
G75*
G02*
X66576000Y66779250I0J-218750D01*
G01*
G37*
G04 #@! TD*
G04 #@! TO.C,VOUT20*
X46176000Y87474215D03*
G04 #@! TD*
G04 #@! TO.C,D8*
G36*
G01*
X78201000Y69016750D02*
X78201000Y69529250D01*
G75*
G02*
X78419750Y69748000I218750J0D01*
G01*
X78857250Y69748000D01*
G75*
G02*
X79076000Y69529250I0J-218750D01*
G01*
X79076000Y69016750D01*
G75*
G02*
X78857250Y68798000I-218750J0D01*
G01*
X78419750Y68798000D01*
G75*
G02*
X78201000Y69016750I0J218750D01*
G01*
G37*
G36*
G01*
X79776000Y69016750D02*
X79776000Y69529250D01*
G75*
G02*
X79994750Y69748000I218750J0D01*
G01*
X80432250Y69748000D01*
G75*
G02*
X80651000Y69529250I0J-218750D01*
G01*
X80651000Y69016750D01*
G75*
G02*
X80432250Y68798000I-218750J0D01*
G01*
X79994750Y68798000D01*
G75*
G02*
X79776000Y69016750I0J218750D01*
G01*
G37*
G04 #@! TD*
D23*
G04 #@! TO.C,TP4*
X12676000Y2523000D03*
G04 #@! TD*
D10*
G04 #@! TO.C,VOUT1*
X60426000Y77523000D03*
G04 #@! TD*
G04 #@! TO.C,D27*
G36*
G01*
X68151000Y59279250D02*
X68151000Y58766750D01*
G75*
G02*
X67932250Y58548000I-218750J0D01*
G01*
X67494750Y58548000D01*
G75*
G02*
X67276000Y58766750I0J218750D01*
G01*
X67276000Y59279250D01*
G75*
G02*
X67494750Y59498000I218750J0D01*
G01*
X67932250Y59498000D01*
G75*
G02*
X68151000Y59279250I0J-218750D01*
G01*
G37*
G36*
G01*
X66576000Y59279250D02*
X66576000Y58766750D01*
G75*
G02*
X66357250Y58548000I-218750J0D01*
G01*
X65919750Y58548000D01*
G75*
G02*
X65701000Y58766750I0J218750D01*
G01*
X65701000Y59279250D01*
G75*
G02*
X65919750Y59498000I218750J0D01*
G01*
X66357250Y59498000D01*
G75*
G02*
X66576000Y59279250I0J-218750D01*
G01*
G37*
G04 #@! TD*
G04 #@! TO.C,MMCU14*
X62926000Y22023000D03*
G04 #@! TD*
G04 #@! TO.C,VIN14*
X99346002Y80520316D03*
G04 #@! TD*
G04 #@! TO.C,MMCU4*
X118426000Y15273000D03*
G04 #@! TD*
G04 #@! TO.C,MMCU31*
X61676000Y18773000D03*
G04 #@! TD*
G04 #@! TO.C,cr8*
X15926000Y100523000D03*
G04 #@! TD*
G04 #@! TO.C,D29*
G36*
G01*
X68151000Y65029250D02*
X68151000Y64516750D01*
G75*
G02*
X67932250Y64298000I-218750J0D01*
G01*
X67494750Y64298000D01*
G75*
G02*
X67276000Y64516750I0J218750D01*
G01*
X67276000Y65029250D01*
G75*
G02*
X67494750Y65248000I218750J0D01*
G01*
X67932250Y65248000D01*
G75*
G02*
X68151000Y65029250I0J-218750D01*
G01*
G37*
G36*
G01*
X66576000Y65029250D02*
X66576000Y64516750D01*
G75*
G02*
X66357250Y64298000I-218750J0D01*
G01*
X65919750Y64298000D01*
G75*
G02*
X65701000Y64516750I0J218750D01*
G01*
X65701000Y65029250D01*
G75*
G02*
X65919750Y65248000I218750J0D01*
G01*
X66357250Y65248000D01*
G75*
G02*
X66576000Y65029250I0J-218750D01*
G01*
G37*
G04 #@! TD*
D24*
G04 #@! TO.C,SW2*
X97676000Y10973000D03*
D25*
X95976000Y10973000D03*
X99376000Y10973000D03*
G04 #@! TD*
G04 #@! TO.C,D1*
G36*
G01*
X94613500Y8729250D02*
X94613500Y8216750D01*
G75*
G02*
X94394750Y7998000I-218750J0D01*
G01*
X93957250Y7998000D01*
G75*
G02*
X93738500Y8216750I0J218750D01*
G01*
X93738500Y8729250D01*
G75*
G02*
X93957250Y8948000I218750J0D01*
G01*
X94394750Y8948000D01*
G75*
G02*
X94613500Y8729250I0J-218750D01*
G01*
G37*
G36*
G01*
X93038500Y8729250D02*
X93038500Y8216750D01*
G75*
G02*
X92819750Y7998000I-218750J0D01*
G01*
X92382250Y7998000D01*
G75*
G02*
X92163500Y8216750I0J218750D01*
G01*
X92163500Y8729250D01*
G75*
G02*
X92382250Y8948000I218750J0D01*
G01*
X92819750Y8948000D01*
G75*
G02*
X93038500Y8729250I0J-218750D01*
G01*
G37*
G04 #@! TD*
D10*
G04 #@! TO.C,MMCU28*
X66676000Y18773000D03*
G04 #@! TD*
G04 #@! TO.C,VOUT10*
X31176000Y34773000D03*
G04 #@! TD*
G04 #@! TO.C,cr1*
X70426000Y100523000D03*
G04 #@! TD*
G04 #@! TO.C,MMCU30*
X64176000Y18773000D03*
G04 #@! TD*
D26*
G04 #@! TO.C,RN7*
X72526000Y66323000D03*
X72526000Y67123000D03*
X72526000Y67923000D03*
X72526000Y68723000D03*
X70826000Y68723000D03*
X70826000Y67923000D03*
X70826000Y67123000D03*
X70826000Y66323000D03*
G04 #@! TD*
D15*
G04 #@! TO.C,Q7*
X139726000Y22803000D03*
D16*
X146026000Y20523000D03*
D15*
X139726000Y18243000D03*
G04 #@! TD*
D10*
G04 #@! TO.C,MMCU18*
X65426000Y16523000D03*
G04 #@! TD*
G04 #@! TO.C,VIN11*
X85676000Y84523000D03*
G04 #@! TD*
G04 #@! TO.C,VIN4*
X106926000Y82773000D03*
G04 #@! TD*
G04 #@! TO.C,cr11*
X67176000Y100523000D03*
G04 #@! TD*
D27*
G04 #@! TO.C,P3*
X26676000Y11023000D03*
G04 #@! TD*
D10*
G04 #@! TO.C,MMCU9*
X74676000Y18773000D03*
G04 #@! TD*
G04 #@! TO.C,VIN6*
X84176000Y70773000D03*
G04 #@! TD*
G04 #@! TO.C,D28*
G36*
G01*
X68151000Y68529250D02*
X68151000Y68016750D01*
G75*
G02*
X67932250Y67798000I-218750J0D01*
G01*
X67494750Y67798000D01*
G75*
G02*
X67276000Y68016750I0J218750D01*
G01*
X67276000Y68529250D01*
G75*
G02*
X67494750Y68748000I218750J0D01*
G01*
X67932250Y68748000D01*
G75*
G02*
X68151000Y68529250I0J-218750D01*
G01*
G37*
G36*
G01*
X66576000Y68529250D02*
X66576000Y68016750D01*
G75*
G02*
X66357250Y67798000I-218750J0D01*
G01*
X65919750Y67798000D01*
G75*
G02*
X65701000Y68016750I0J218750D01*
G01*
X65701000Y68529250D01*
G75*
G02*
X65919750Y68748000I218750J0D01*
G01*
X66357250Y68748000D01*
G75*
G02*
X66576000Y68529250I0J-218750D01*
G01*
G37*
G04 #@! TD*
G04 #@! TO.C,R9*
G36*
G01*
X137601000Y57448000D02*
X134751000Y57448000D01*
G75*
G02*
X134501000Y57698000I0J250000D01*
G01*
X134501000Y58423000D01*
G75*
G02*
X134751000Y58673000I250000J0D01*
G01*
X137601000Y58673000D01*
G75*
G02*
X137851000Y58423000I0J-250000D01*
G01*
X137851000Y57698000D01*
G75*
G02*
X137601000Y57448000I-250000J0D01*
G01*
G37*
G36*
G01*
X137601000Y63373000D02*
X134751000Y63373000D01*
G75*
G02*
X134501000Y63623000I0J250000D01*
G01*
X134501000Y64348000D01*
G75*
G02*
X134751000Y64598000I250000J0D01*
G01*
X137601000Y64598000D01*
G75*
G02*
X137851000Y64348000I0J-250000D01*
G01*
X137851000Y63623000D01*
G75*
G02*
X137601000Y63373000I-250000J0D01*
G01*
G37*
G04 #@! TD*
G04 #@! TO.C,D11*
G36*
G01*
X68151000Y76029250D02*
X68151000Y75516750D01*
G75*
G02*
X67932250Y75298000I-218750J0D01*
G01*
X67494750Y75298000D01*
G75*
G02*
X67276000Y75516750I0J218750D01*
G01*
X67276000Y76029250D01*
G75*
G02*
X67494750Y76248000I218750J0D01*
G01*
X67932250Y76248000D01*
G75*
G02*
X68151000Y76029250I0J-218750D01*
G01*
G37*
G36*
G01*
X66576000Y76029250D02*
X66576000Y75516750D01*
G75*
G02*
X66357250Y75298000I-218750J0D01*
G01*
X65919750Y75298000D01*
G75*
G02*
X65701000Y75516750I0J218750D01*
G01*
X65701000Y76029250D01*
G75*
G02*
X65919750Y76248000I218750J0D01*
G01*
X66357250Y76248000D01*
G75*
G02*
X66576000Y76029250I0J-218750D01*
G01*
G37*
G04 #@! TD*
G04 #@! TO.C,VOUT5*
X48676000Y89474215D03*
G04 #@! TD*
G04 #@! TO.C,VIN19*
X107926000Y84773000D03*
G04 #@! TD*
G04 #@! TO.C,D22*
G36*
G01*
X121988500Y62766750D02*
X121988500Y63279250D01*
G75*
G02*
X122207250Y63498000I218750J0D01*
G01*
X122644750Y63498000D01*
G75*
G02*
X122863500Y63279250I0J-218750D01*
G01*
X122863500Y62766750D01*
G75*
G02*
X122644750Y62548000I-218750J0D01*
G01*
X122207250Y62548000D01*
G75*
G02*
X121988500Y62766750I0J218750D01*
G01*
G37*
G36*
G01*
X123563500Y62766750D02*
X123563500Y63279250D01*
G75*
G02*
X123782250Y63498000I218750J0D01*
G01*
X124219750Y63498000D01*
G75*
G02*
X124438500Y63279250I0J-218750D01*
G01*
X124438500Y62766750D01*
G75*
G02*
X124219750Y62548000I-218750J0D01*
G01*
X123782250Y62548000D01*
G75*
G02*
X123563500Y62766750I0J218750D01*
G01*
G37*
G04 #@! TD*
G04 #@! TO.C,KNOCK_RAW2*
X74926000Y96523000D03*
G04 #@! TD*
D26*
G04 #@! TO.C,RN4*
X72526000Y72573000D03*
X72526000Y73373000D03*
X72526000Y74173000D03*
X72526000Y74973000D03*
X70826000Y74973000D03*
X70826000Y74173000D03*
X70826000Y73373000D03*
X70826000Y72573000D03*
G04 #@! TD*
D10*
G04 #@! TO.C,MMCU2*
X120426000Y17523000D03*
G04 #@! TD*
G04 #@! TO.C,VIN18*
X93926000Y80523000D03*
G04 #@! TD*
G04 #@! TO.C,MMCU7*
X79176000Y19523000D03*
G04 #@! TD*
G04 #@! TO.C,R26*
G36*
G01*
X104706000Y95458000D02*
X104706000Y95088000D01*
G75*
G02*
X104571000Y94953000I-135000J0D01*
G01*
X104301000Y94953000D01*
G75*
G02*
X104166000Y95088000I0J135000D01*
G01*
X104166000Y95458000D01*
G75*
G02*
X104301000Y95593000I135000J0D01*
G01*
X104571000Y95593000D01*
G75*
G02*
X104706000Y95458000I0J-135000D01*
G01*
G37*
G36*
G01*
X103686000Y95458000D02*
X103686000Y95088000D01*
G75*
G02*
X103551000Y94953000I-135000J0D01*
G01*
X103281000Y94953000D01*
G75*
G02*
X103146000Y95088000I0J135000D01*
G01*
X103146000Y95458000D01*
G75*
G02*
X103281000Y95593000I135000J0D01*
G01*
X103551000Y95593000D01*
G75*
G02*
X103686000Y95458000I0J-135000D01*
G01*
G37*
G04 #@! TD*
G04 #@! TO.C,R14*
G36*
G01*
X134751000Y15098000D02*
X137601000Y15098000D01*
G75*
G02*
X137851000Y14848000I0J-250000D01*
G01*
X137851000Y14123000D01*
G75*
G02*
X137601000Y13873000I-250000J0D01*
G01*
X134751000Y13873000D01*
G75*
G02*
X134501000Y14123000I0J250000D01*
G01*
X134501000Y14848000D01*
G75*
G02*
X134751000Y15098000I250000J0D01*
G01*
G37*
G36*
G01*
X134751000Y9173000D02*
X137601000Y9173000D01*
G75*
G02*
X137851000Y8923000I0J-250000D01*
G01*
X137851000Y8198000D01*
G75*
G02*
X137601000Y7948000I-250000J0D01*
G01*
X134751000Y7948000D01*
G75*
G02*
X134501000Y8198000I0J250000D01*
G01*
X134501000Y8923000D01*
G75*
G02*
X134751000Y9173000I250000J0D01*
G01*
G37*
G04 #@! TD*
D23*
G04 #@! TO.C,TP3*
X28963500Y30273000D03*
G04 #@! TD*
G04 #@! TO.C,D16*
G36*
G01*
X121951000Y53916750D02*
X121951000Y54429250D01*
G75*
G02*
X122169750Y54648000I218750J0D01*
G01*
X122607250Y54648000D01*
G75*
G02*
X122826000Y54429250I0J-218750D01*
G01*
X122826000Y53916750D01*
G75*
G02*
X122607250Y53698000I-218750J0D01*
G01*
X122169750Y53698000D01*
G75*
G02*
X121951000Y53916750I0J218750D01*
G01*
G37*
G36*
G01*
X123526000Y53916750D02*
X123526000Y54429250D01*
G75*
G02*
X123744750Y54648000I218750J0D01*
G01*
X124182250Y54648000D01*
G75*
G02*
X124401000Y54429250I0J-218750D01*
G01*
X124401000Y53916750D01*
G75*
G02*
X124182250Y53698000I-218750J0D01*
G01*
X123744750Y53698000D01*
G75*
G02*
X123526000Y53916750I0J218750D01*
G01*
G37*
G04 #@! TD*
D28*
G04 #@! TO.C,J2*
X85551000Y4273000D03*
D29*
X85551000Y6273000D03*
X85551000Y8273000D03*
X85551000Y10273000D03*
X85551000Y12273000D03*
G04 #@! TD*
D10*
G04 #@! TO.C,MMCU10*
X73176000Y16523000D03*
G04 #@! TD*
G04 #@! TO.C,VIN15*
X97596002Y80520316D03*
G04 #@! TD*
G04 #@! TO.C,MMCU29*
X64926000Y51023000D03*
G04 #@! TD*
G04 #@! TO.C,R4*
G36*
G01*
X74646000Y88838000D02*
X74646000Y89208000D01*
G75*
G02*
X74781000Y89343000I135000J0D01*
G01*
X75051000Y89343000D01*
G75*
G02*
X75186000Y89208000I0J-135000D01*
G01*
X75186000Y88838000D01*
G75*
G02*
X75051000Y88703000I-135000J0D01*
G01*
X74781000Y88703000D01*
G75*
G02*
X74646000Y88838000I0J135000D01*
G01*
G37*
G36*
G01*
X75666000Y88838000D02*
X75666000Y89208000D01*
G75*
G02*
X75801000Y89343000I135000J0D01*
G01*
X76071000Y89343000D01*
G75*
G02*
X76206000Y89208000I0J-135000D01*
G01*
X76206000Y88838000D01*
G75*
G02*
X76071000Y88703000I-135000J0D01*
G01*
X75801000Y88703000D01*
G75*
G02*
X75666000Y88838000I0J135000D01*
G01*
G37*
G04 #@! TD*
G04 #@! TO.C,R7*
G36*
G01*
X137601000Y27198000D02*
X134751000Y27198000D01*
G75*
G02*
X134501000Y27448000I0J250000D01*
G01*
X134501000Y28173000D01*
G75*
G02*
X134751000Y28423000I250000J0D01*
G01*
X137601000Y28423000D01*
G75*
G02*
X137851000Y28173000I0J-250000D01*
G01*
X137851000Y27448000D01*
G75*
G02*
X137601000Y27198000I-250000J0D01*
G01*
G37*
G36*
G01*
X137601000Y33123000D02*
X134751000Y33123000D01*
G75*
G02*
X134501000Y33373000I0J250000D01*
G01*
X134501000Y34098000D01*
G75*
G02*
X134751000Y34348000I250000J0D01*
G01*
X137601000Y34348000D01*
G75*
G02*
X137851000Y34098000I0J-250000D01*
G01*
X137851000Y33373000D01*
G75*
G02*
X137601000Y33123000I-250000J0D01*
G01*
G37*
G04 #@! TD*
D26*
G04 #@! TO.C,RN5*
X117826000Y57523000D03*
X117826000Y56723000D03*
X117826000Y55923000D03*
X117826000Y55123000D03*
X119526000Y55123000D03*
X119526000Y55923000D03*
X119526000Y56723000D03*
X119526000Y57523000D03*
G04 #@! TD*
D10*
G04 #@! TO.C,VIN21*
X109176000Y82773000D03*
G04 #@! TD*
G04 #@! TO.C,VIN7*
X90676000Y64023000D03*
G04 #@! TD*
G04 #@! TO.C,R18*
G36*
G01*
X136646000Y44088000D02*
X136646000Y44458000D01*
G75*
G02*
X136781000Y44593000I135000J0D01*
G01*
X137051000Y44593000D01*
G75*
G02*
X137186000Y44458000I0J-135000D01*
G01*
X137186000Y44088000D01*
G75*
G02*
X137051000Y43953000I-135000J0D01*
G01*
X136781000Y43953000D01*
G75*
G02*
X136646000Y44088000I0J135000D01*
G01*
G37*
G36*
G01*
X137666000Y44088000D02*
X137666000Y44458000D01*
G75*
G02*
X137801000Y44593000I135000J0D01*
G01*
X138071000Y44593000D01*
G75*
G02*
X138206000Y44458000I0J-135000D01*
G01*
X138206000Y44088000D01*
G75*
G02*
X138071000Y43953000I-135000J0D01*
G01*
X137801000Y43953000D01*
G75*
G02*
X137666000Y44088000I0J135000D01*
G01*
G37*
G04 #@! TD*
G04 #@! TO.C,VOUT19*
X57176000Y89474215D03*
G04 #@! TD*
G04 #@! TO.C,MMCU17*
X104926000Y58773000D03*
G04 #@! TD*
G04 #@! TO.C,R5*
G36*
G01*
X84906000Y94588000D02*
X84906000Y94958000D01*
G75*
G02*
X85041000Y95093000I135000J0D01*
G01*
X85311000Y95093000D01*
G75*
G02*
X85446000Y94958000I0J-135000D01*
G01*
X85446000Y94588000D01*
G75*
G02*
X85311000Y94453000I-135000J0D01*
G01*
X85041000Y94453000D01*
G75*
G02*
X84906000Y94588000I0J135000D01*
G01*
G37*
G36*
G01*
X85926000Y94588000D02*
X85926000Y94958000D01*
G75*
G02*
X86061000Y95093000I135000J0D01*
G01*
X86331000Y95093000D01*
G75*
G02*
X86466000Y94958000I0J-135000D01*
G01*
X86466000Y94588000D01*
G75*
G02*
X86331000Y94453000I-135000J0D01*
G01*
X86061000Y94453000D01*
G75*
G02*
X85926000Y94588000I0J135000D01*
G01*
G37*
G04 #@! TD*
G04 #@! TO.C,cr15*
X57926000Y100523000D03*
G04 #@! TD*
G04 #@! TO.C,MMCU8*
X76676000Y16523000D03*
G04 #@! TD*
G04 #@! TO.C,cr20*
X115676000Y100523000D03*
G04 #@! TD*
G04 #@! TO.C,R12*
G36*
G01*
X134751000Y84098000D02*
X137601000Y84098000D01*
G75*
G02*
X137851000Y83848000I0J-250000D01*
G01*
X137851000Y83123000D01*
G75*
G02*
X137601000Y82873000I-250000J0D01*
G01*
X134751000Y82873000D01*
G75*
G02*
X134501000Y83123000I0J250000D01*
G01*
X134501000Y83848000D01*
G75*
G02*
X134751000Y84098000I250000J0D01*
G01*
G37*
G36*
G01*
X134751000Y78173000D02*
X137601000Y78173000D01*
G75*
G02*
X137851000Y77923000I0J-250000D01*
G01*
X137851000Y77198000D01*
G75*
G02*
X137601000Y76948000I-250000J0D01*
G01*
X134751000Y76948000D01*
G75*
G02*
X134501000Y77198000I0J250000D01*
G01*
X134501000Y77923000D01*
G75*
G02*
X134751000Y78173000I250000J0D01*
G01*
G37*
G04 #@! TD*
D26*
G04 #@! TO.C,RN6*
X118076000Y65123000D03*
X118076000Y64323000D03*
X118076000Y63523000D03*
X118076000Y62723000D03*
X119776000Y62723000D03*
X119776000Y63523000D03*
X119776000Y64323000D03*
X119776000Y65123000D03*
G04 #@! TD*
D10*
G04 #@! TO.C,VIN10*
X89426000Y82523000D03*
G04 #@! TD*
G04 #@! TO.C,D3*
G36*
G01*
X78201000Y67266750D02*
X78201000Y67779250D01*
G75*
G02*
X78419750Y67998000I218750J0D01*
G01*
X78857250Y67998000D01*
G75*
G02*
X79076000Y67779250I0J-218750D01*
G01*
X79076000Y67266750D01*
G75*
G02*
X78857250Y67048000I-218750J0D01*
G01*
X78419750Y67048000D01*
G75*
G02*
X78201000Y67266750I0J218750D01*
G01*
G37*
G36*
G01*
X79776000Y67266750D02*
X79776000Y67779250D01*
G75*
G02*
X79994750Y67998000I218750J0D01*
G01*
X80432250Y67998000D01*
G75*
G02*
X80651000Y67779250I0J-218750D01*
G01*
X80651000Y67266750D01*
G75*
G02*
X80432250Y67048000I-218750J0D01*
G01*
X79994750Y67048000D01*
G75*
G02*
X79776000Y67266750I0J218750D01*
G01*
G37*
G04 #@! TD*
G04 #@! TO.C,MMCU5*
X83426000Y17773000D03*
G04 #@! TD*
G04 #@! TO.C,VIN17*
X84176000Y74773000D03*
G04 #@! TD*
G04 #@! TO.C,C8*
G36*
G01*
X28676000Y48548000D02*
X28176000Y48548000D01*
G75*
G02*
X27951000Y48773000I0J225000D01*
G01*
X27951000Y49223000D01*
G75*
G02*
X28176000Y49448000I225000J0D01*
G01*
X28676000Y49448000D01*
G75*
G02*
X28901000Y49223000I0J-225000D01*
G01*
X28901000Y48773000D01*
G75*
G02*
X28676000Y48548000I-225000J0D01*
G01*
G37*
G36*
G01*
X28676000Y50098000D02*
X28176000Y50098000D01*
G75*
G02*
X27951000Y50323000I0J225000D01*
G01*
X27951000Y50773000D01*
G75*
G02*
X28176000Y50998000I225000J0D01*
G01*
X28676000Y50998000D01*
G75*
G02*
X28901000Y50773000I0J-225000D01*
G01*
X28901000Y50323000D01*
G75*
G02*
X28676000Y50098000I-225000J0D01*
G01*
G37*
G04 #@! TD*
G04 #@! TO.C,D18*
G36*
G01*
X121988500Y61016750D02*
X121988500Y61529250D01*
G75*
G02*
X122207250Y61748000I218750J0D01*
G01*
X122644750Y61748000D01*
G75*
G02*
X122863500Y61529250I0J-218750D01*
G01*
X122863500Y61016750D01*
G75*
G02*
X122644750Y60798000I-218750J0D01*
G01*
X122207250Y60798000D01*
G75*
G02*
X121988500Y61016750I0J218750D01*
G01*
G37*
G36*
G01*
X123563500Y61016750D02*
X123563500Y61529250D01*
G75*
G02*
X123782250Y61748000I218750J0D01*
G01*
X124219750Y61748000D01*
G75*
G02*
X124438500Y61529250I0J-218750D01*
G01*
X124438500Y61016750D01*
G75*
G02*
X124219750Y60798000I-218750J0D01*
G01*
X123782250Y60798000D01*
G75*
G02*
X123563500Y61016750I0J218750D01*
G01*
G37*
G04 #@! TD*
G04 #@! TO.C,VIN25*
X105676000Y84773000D03*
G04 #@! TD*
G04 #@! TO.C,VOUT21*
X58426000Y91474215D03*
G04 #@! TD*
G04 #@! TO.C,R2*
G36*
G01*
X89358500Y8288000D02*
X89358500Y8658000D01*
G75*
G02*
X89493500Y8793000I135000J0D01*
G01*
X89763500Y8793000D01*
G75*
G02*
X89898500Y8658000I0J-135000D01*
G01*
X89898500Y8288000D01*
G75*
G02*
X89763500Y8153000I-135000J0D01*
G01*
X89493500Y8153000D01*
G75*
G02*
X89358500Y8288000I0J135000D01*
G01*
G37*
G36*
G01*
X90378500Y8288000D02*
X90378500Y8658000D01*
G75*
G02*
X90513500Y8793000I135000J0D01*
G01*
X90783500Y8793000D01*
G75*
G02*
X90918500Y8658000I0J-135000D01*
G01*
X90918500Y8288000D01*
G75*
G02*
X90783500Y8153000I-135000J0D01*
G01*
X90513500Y8153000D01*
G75*
G02*
X90378500Y8288000I0J135000D01*
G01*
G37*
G04 #@! TD*
D15*
G04 #@! TO.C,Q8*
X139726000Y12803000D03*
D16*
X146026000Y10523000D03*
D15*
X139726000Y8243000D03*
G04 #@! TD*
D10*
G04 #@! TO.C,VIN12*
X85676000Y80523000D03*
G04 #@! TD*
G04 #@! TO.C,MMCU39*
X64926000Y49023000D03*
G04 #@! TD*
G04 #@! TO.C,VOUT15*
X35926000Y86773000D03*
G04 #@! TD*
G04 #@! TO.C,VOUT3*
X59426000Y89474215D03*
G04 #@! TD*
G04 #@! TO.C,D15*
G36*
G01*
X68151000Y74279250D02*
X68151000Y73766750D01*
G75*
G02*
X67932250Y73548000I-218750J0D01*
G01*
X67494750Y73548000D01*
G75*
G02*
X67276000Y73766750I0J218750D01*
G01*
X67276000Y74279250D01*
G75*
G02*
X67494750Y74498000I218750J0D01*
G01*
X67932250Y74498000D01*
G75*
G02*
X68151000Y74279250I0J-218750D01*
G01*
G37*
G36*
G01*
X66576000Y74279250D02*
X66576000Y73766750D01*
G75*
G02*
X66357250Y73548000I-218750J0D01*
G01*
X65919750Y73548000D01*
G75*
G02*
X65701000Y73766750I0J218750D01*
G01*
X65701000Y74279250D01*
G75*
G02*
X65919750Y74498000I218750J0D01*
G01*
X66357250Y74498000D01*
G75*
G02*
X66576000Y74279250I0J-218750D01*
G01*
G37*
G04 #@! TD*
G04 #@! TO.C,D20*
G36*
G01*
X121913500Y55666750D02*
X121913500Y56179250D01*
G75*
G02*
X122132250Y56398000I218750J0D01*
G01*
X122569750Y56398000D01*
G75*
G02*
X122788500Y56179250I0J-218750D01*
G01*
X122788500Y55666750D01*
G75*
G02*
X122569750Y55448000I-218750J0D01*
G01*
X122132250Y55448000D01*
G75*
G02*
X121913500Y55666750I0J218750D01*
G01*
G37*
G36*
G01*
X123488500Y55666750D02*
X123488500Y56179250D01*
G75*
G02*
X123707250Y56398000I218750J0D01*
G01*
X124144750Y56398000D01*
G75*
G02*
X124363500Y56179250I0J-218750D01*
G01*
X124363500Y55666750D01*
G75*
G02*
X124144750Y55448000I-218750J0D01*
G01*
X123707250Y55448000D01*
G75*
G02*
X123488500Y55666750I0J218750D01*
G01*
G37*
G04 #@! TD*
G04 #@! TO.C,VOUT25*
X62676000Y52023000D03*
G04 #@! TD*
D26*
G04 #@! TO.C,RN8*
X72526000Y58823000D03*
X72526000Y59623000D03*
X72526000Y60423000D03*
X72526000Y61223000D03*
X70826000Y61223000D03*
X70826000Y60423000D03*
X70826000Y59623000D03*
X70826000Y58823000D03*
G04 #@! TD*
D30*
G04 #@! TO.C,J1*
X81926000Y5673000D03*
D31*
X80176000Y6473000D03*
X81926000Y7273000D03*
X80176000Y8073000D03*
X81926000Y8873000D03*
D32*
X81051000Y3623000D03*
X81051000Y10923000D03*
G04 #@! TD*
G04 #@! TO.C,R24*
G36*
G01*
X138956000Y15958000D02*
X138956000Y15588000D01*
G75*
G02*
X138821000Y15453000I-135000J0D01*
G01*
X138551000Y15453000D01*
G75*
G02*
X138416000Y15588000I0J135000D01*
G01*
X138416000Y15958000D01*
G75*
G02*
X138551000Y16093000I135000J0D01*
G01*
X138821000Y16093000D01*
G75*
G02*
X138956000Y15958000I0J-135000D01*
G01*
G37*
G36*
G01*
X137936000Y15958000D02*
X137936000Y15588000D01*
G75*
G02*
X137801000Y15453000I-135000J0D01*
G01*
X137531000Y15453000D01*
G75*
G02*
X137396000Y15588000I0J135000D01*
G01*
X137396000Y15958000D01*
G75*
G02*
X137531000Y16093000I135000J0D01*
G01*
X137801000Y16093000D01*
G75*
G02*
X137936000Y15958000I0J-135000D01*
G01*
G37*
G04 #@! TD*
D10*
G04 #@! TO.C,VIN3*
X102426000Y82773000D03*
G04 #@! TD*
G04 #@! TO.C,cr13*
X49926000Y100523000D03*
G04 #@! TD*
G04 #@! TO.C,MMCU38*
X64926000Y53023000D03*
G04 #@! TD*
G04 #@! TO.C,cr2*
X73426000Y100523000D03*
G04 #@! TD*
G04 #@! TO.C,R23*
G36*
G01*
X138966000Y75458000D02*
X138966000Y75088000D01*
G75*
G02*
X138831000Y74953000I-135000J0D01*
G01*
X138561000Y74953000D01*
G75*
G02*
X138426000Y75088000I0J135000D01*
G01*
X138426000Y75458000D01*
G75*
G02*
X138561000Y75593000I135000J0D01*
G01*
X138831000Y75593000D01*
G75*
G02*
X138966000Y75458000I0J-135000D01*
G01*
G37*
G36*
G01*
X137946000Y75458000D02*
X137946000Y75088000D01*
G75*
G02*
X137811000Y74953000I-135000J0D01*
G01*
X137541000Y74953000D01*
G75*
G02*
X137406000Y75088000I0J135000D01*
G01*
X137406000Y75458000D01*
G75*
G02*
X137541000Y75593000I135000J0D01*
G01*
X137811000Y75593000D01*
G75*
G02*
X137946000Y75458000I0J-135000D01*
G01*
G37*
G04 #@! TD*
G04 #@! TO.C,cr3*
X76676000Y100523000D03*
G04 #@! TD*
G04 #@! TO.C,U5*
G36*
G01*
X20726000Y48278000D02*
X20726000Y48578000D01*
G75*
G02*
X20876000Y48728000I150000J0D01*
G01*
X22526000Y48728000D01*
G75*
G02*
X22676000Y48578000I0J-150000D01*
G01*
X22676000Y48278000D01*
G75*
G02*
X22526000Y48128000I-150000J0D01*
G01*
X20876000Y48128000D01*
G75*
G02*
X20726000Y48278000I0J150000D01*
G01*
G37*
G36*
G01*
X20726000Y47008000D02*
X20726000Y47308000D01*
G75*
G02*
X20876000Y47458000I150000J0D01*
G01*
X22526000Y47458000D01*
G75*
G02*
X22676000Y47308000I0J-150000D01*
G01*
X22676000Y47008000D01*
G75*
G02*
X22526000Y46858000I-150000J0D01*
G01*
X20876000Y46858000D01*
G75*
G02*
X20726000Y47008000I0J150000D01*
G01*
G37*
G36*
G01*
X20726000Y45738000D02*
X20726000Y46038000D01*
G75*
G02*
X20876000Y46188000I150000J0D01*
G01*
X22526000Y46188000D01*
G75*
G02*
X22676000Y46038000I0J-150000D01*
G01*
X22676000Y45738000D01*
G75*
G02*
X22526000Y45588000I-150000J0D01*
G01*
X20876000Y45588000D01*
G75*
G02*
X20726000Y45738000I0J150000D01*
G01*
G37*
G36*
G01*
X20726000Y44468000D02*
X20726000Y44768000D01*
G75*
G02*
X20876000Y44918000I150000J0D01*
G01*
X22526000Y44918000D01*
G75*
G02*
X22676000Y44768000I0J-150000D01*
G01*
X22676000Y44468000D01*
G75*
G02*
X22526000Y44318000I-150000J0D01*
G01*
X20876000Y44318000D01*
G75*
G02*
X20726000Y44468000I0J150000D01*
G01*
G37*
G36*
G01*
X25676000Y44468000D02*
X25676000Y44768000D01*
G75*
G02*
X25826000Y44918000I150000J0D01*
G01*
X27476000Y44918000D01*
G75*
G02*
X27626000Y44768000I0J-150000D01*
G01*
X27626000Y44468000D01*
G75*
G02*
X27476000Y44318000I-150000J0D01*
G01*
X25826000Y44318000D01*
G75*
G02*
X25676000Y44468000I0J150000D01*
G01*
G37*
G36*
G01*
X25676000Y45738000D02*
X25676000Y46038000D01*
G75*
G02*
X25826000Y46188000I150000J0D01*
G01*
X27476000Y46188000D01*
G75*
G02*
X27626000Y46038000I0J-150000D01*
G01*
X27626000Y45738000D01*
G75*
G02*
X27476000Y45588000I-150000J0D01*
G01*
X25826000Y45588000D01*
G75*
G02*
X25676000Y45738000I0J150000D01*
G01*
G37*
G36*
G01*
X25676000Y47008000D02*
X25676000Y47308000D01*
G75*
G02*
X25826000Y47458000I150000J0D01*
G01*
X27476000Y47458000D01*
G75*
G02*
X27626000Y47308000I0J-150000D01*
G01*
X27626000Y47008000D01*
G75*
G02*
X27476000Y46858000I-150000J0D01*
G01*
X25826000Y46858000D01*
G75*
G02*
X25676000Y47008000I0J150000D01*
G01*
G37*
G36*
G01*
X25676000Y48278000D02*
X25676000Y48578000D01*
G75*
G02*
X25826000Y48728000I150000J0D01*
G01*
X27476000Y48728000D01*
G75*
G02*
X27626000Y48578000I0J-150000D01*
G01*
X27626000Y48278000D01*
G75*
G02*
X27476000Y48128000I-150000J0D01*
G01*
X25826000Y48128000D01*
G75*
G02*
X25676000Y48278000I0J150000D01*
G01*
G37*
G04 #@! TD*
G04 #@! TO.C,R25*
G36*
G01*
X104706000Y96708000D02*
X104706000Y96338000D01*
G75*
G02*
X104571000Y96203000I-135000J0D01*
G01*
X104301000Y96203000D01*
G75*
G02*
X104166000Y96338000I0J135000D01*
G01*
X104166000Y96708000D01*
G75*
G02*
X104301000Y96843000I135000J0D01*
G01*
X104571000Y96843000D01*
G75*
G02*
X104706000Y96708000I0J-135000D01*
G01*
G37*
G36*
G01*
X103686000Y96708000D02*
X103686000Y96338000D01*
G75*
G02*
X103551000Y96203000I-135000J0D01*
G01*
X103281000Y96203000D01*
G75*
G02*
X103146000Y96338000I0J135000D01*
G01*
X103146000Y96708000D01*
G75*
G02*
X103281000Y96843000I135000J0D01*
G01*
X103551000Y96843000D01*
G75*
G02*
X103686000Y96708000I0J-135000D01*
G01*
G37*
G04 #@! TD*
D33*
G04 #@! TO.C,M4*
X121701003Y9023007D03*
D34*
X121751001Y19373001D03*
X121751001Y18873000D03*
D35*
X122800999Y12323003D03*
X123325999Y13198005D03*
X124075997Y12023001D03*
X127625998Y12098004D03*
G04 #@! TD*
G04 #@! TO.C,R8*
G36*
G01*
X137601000Y36198000D02*
X134751000Y36198000D01*
G75*
G02*
X134501000Y36448000I0J250000D01*
G01*
X134501000Y37173000D01*
G75*
G02*
X134751000Y37423000I250000J0D01*
G01*
X137601000Y37423000D01*
G75*
G02*
X137851000Y37173000I0J-250000D01*
G01*
X137851000Y36448000D01*
G75*
G02*
X137601000Y36198000I-250000J0D01*
G01*
G37*
G36*
G01*
X137601000Y42123000D02*
X134751000Y42123000D01*
G75*
G02*
X134501000Y42373000I0J250000D01*
G01*
X134501000Y43098000D01*
G75*
G02*
X134751000Y43348000I250000J0D01*
G01*
X137601000Y43348000D01*
G75*
G02*
X137851000Y43098000I0J-250000D01*
G01*
X137851000Y42373000D01*
G75*
G02*
X137601000Y42123000I-250000J0D01*
G01*
G37*
G04 #@! TD*
G04 #@! TO.C,D21*
G36*
G01*
X121951000Y59166750D02*
X121951000Y59679250D01*
G75*
G02*
X122169750Y59898000I218750J0D01*
G01*
X122607250Y59898000D01*
G75*
G02*
X122826000Y59679250I0J-218750D01*
G01*
X122826000Y59166750D01*
G75*
G02*
X122607250Y58948000I-218750J0D01*
G01*
X122169750Y58948000D01*
G75*
G02*
X121951000Y59166750I0J218750D01*
G01*
G37*
G36*
G01*
X123526000Y59166750D02*
X123526000Y59679250D01*
G75*
G02*
X123744750Y59898000I218750J0D01*
G01*
X124182250Y59898000D01*
G75*
G02*
X124401000Y59679250I0J-218750D01*
G01*
X124401000Y59166750D01*
G75*
G02*
X124182250Y58948000I-218750J0D01*
G01*
X123744750Y58948000D01*
G75*
G02*
X123526000Y59166750I0J218750D01*
G01*
G37*
G04 #@! TD*
G04 #@! TO.C,R13*
G36*
G01*
X134751000Y74598000D02*
X137601000Y74598000D01*
G75*
G02*
X137851000Y74348000I0J-250000D01*
G01*
X137851000Y73623000D01*
G75*
G02*
X137601000Y73373000I-250000J0D01*
G01*
X134751000Y73373000D01*
G75*
G02*
X134501000Y73623000I0J250000D01*
G01*
X134501000Y74348000D01*
G75*
G02*
X134751000Y74598000I250000J0D01*
G01*
G37*
G36*
G01*
X134751000Y68673000D02*
X137601000Y68673000D01*
G75*
G02*
X137851000Y68423000I0J-250000D01*
G01*
X137851000Y67698000D01*
G75*
G02*
X137601000Y67448000I-250000J0D01*
G01*
X134751000Y67448000D01*
G75*
G02*
X134501000Y67698000I0J250000D01*
G01*
X134501000Y68423000D01*
G75*
G02*
X134751000Y68673000I250000J0D01*
G01*
G37*
G04 #@! TD*
D27*
G04 #@! TO.C,P5*
X20176000Y11023000D03*
G04 #@! TD*
G04 #@! TO.C,R3*
G36*
G01*
X36433500Y27838000D02*
X36433500Y28208000D01*
G75*
G02*
X36568500Y28343000I135000J0D01*
G01*
X36838500Y28343000D01*
G75*
G02*
X36973500Y28208000I0J-135000D01*
G01*
X36973500Y27838000D01*
G75*
G02*
X36838500Y27703000I-135000J0D01*
G01*
X36568500Y27703000D01*
G75*
G02*
X36433500Y27838000I0J135000D01*
G01*
G37*
G36*
G01*
X37453500Y27838000D02*
X37453500Y28208000D01*
G75*
G02*
X37588500Y28343000I135000J0D01*
G01*
X37858500Y28343000D01*
G75*
G02*
X37993500Y28208000I0J-135000D01*
G01*
X37993500Y27838000D01*
G75*
G02*
X37858500Y27703000I-135000J0D01*
G01*
X37588500Y27703000D01*
G75*
G02*
X37453500Y27838000I0J135000D01*
G01*
G37*
G04 #@! TD*
D10*
G04 #@! TO.C,VIN8*
X86926000Y82523000D03*
G04 #@! TD*
G04 #@! TO.C,R21*
G36*
G01*
X138956000Y94958000D02*
X138956000Y94588000D01*
G75*
G02*
X138821000Y94453000I-135000J0D01*
G01*
X138551000Y94453000D01*
G75*
G02*
X138416000Y94588000I0J135000D01*
G01*
X138416000Y94958000D01*
G75*
G02*
X138551000Y95093000I135000J0D01*
G01*
X138821000Y95093000D01*
G75*
G02*
X138956000Y94958000I0J-135000D01*
G01*
G37*
G36*
G01*
X137936000Y94958000D02*
X137936000Y94588000D01*
G75*
G02*
X137801000Y94453000I-135000J0D01*
G01*
X137531000Y94453000D01*
G75*
G02*
X137396000Y94588000I0J135000D01*
G01*
X137396000Y94958000D01*
G75*
G02*
X137531000Y95093000I135000J0D01*
G01*
X137801000Y95093000D01*
G75*
G02*
X137936000Y94958000I0J-135000D01*
G01*
G37*
G04 #@! TD*
G04 #@! TO.C,C6*
G36*
G01*
X26686000Y50193000D02*
X26686000Y49853000D01*
G75*
G02*
X26546000Y49713000I-140000J0D01*
G01*
X26266000Y49713000D01*
G75*
G02*
X26126000Y49853000I0J140000D01*
G01*
X26126000Y50193000D01*
G75*
G02*
X26266000Y50333000I140000J0D01*
G01*
X26546000Y50333000D01*
G75*
G02*
X26686000Y50193000I0J-140000D01*
G01*
G37*
G36*
G01*
X25726000Y50193000D02*
X25726000Y49853000D01*
G75*
G02*
X25586000Y49713000I-140000J0D01*
G01*
X25306000Y49713000D01*
G75*
G02*
X25166000Y49853000I0J140000D01*
G01*
X25166000Y50193000D01*
G75*
G02*
X25306000Y50333000I140000J0D01*
G01*
X25586000Y50333000D01*
G75*
G02*
X25726000Y50193000I0J-140000D01*
G01*
G37*
G04 #@! TD*
D27*
G04 #@! TO.C,P2*
X30426000Y11023000D03*
G04 #@! TD*
G04 #@! TO.C,M11*
G36*
G01*
X80346000Y57248000D02*
X80346000Y57698000D01*
G75*
G02*
X80471000Y57823000I125000J0D01*
G01*
X80471000Y57823000D01*
G75*
G02*
X80596000Y57698000I0J-125000D01*
G01*
X80596000Y57248000D01*
G75*
G02*
X80471000Y57123000I-125000J0D01*
G01*
X80471000Y57123000D01*
G75*
G02*
X80346000Y57248000I0J125000D01*
G01*
G37*
G04 #@! TD*
D19*
G04 #@! TO.C,J21*
X9476000Y11523000D03*
D20*
X6936000Y11523000D03*
X4396000Y11523000D03*
X1856000Y11523000D03*
G04 #@! TD*
D10*
G04 #@! TO.C,VOUT2*
X50926000Y89474215D03*
G04 #@! TD*
G04 #@! TO.C,VOUT26*
X25926000Y34773000D03*
G04 #@! TD*
G04 #@! TO.C,MMCU21*
X68676000Y47273000D03*
G04 #@! TD*
G04 #@! TO.C,KNOCK_RAW1*
X71926000Y96523000D03*
G04 #@! TD*
G04 #@! TO.C,D24*
G36*
G01*
X68151000Y70279250D02*
X68151000Y69766750D01*
G75*
G02*
X67932250Y69548000I-218750J0D01*
G01*
X67494750Y69548000D01*
G75*
G02*
X67276000Y69766750I0J218750D01*
G01*
X67276000Y70279250D01*
G75*
G02*
X67494750Y70498000I218750J0D01*
G01*
X67932250Y70498000D01*
G75*
G02*
X68151000Y70279250I0J-218750D01*
G01*
G37*
G36*
G01*
X66576000Y70279250D02*
X66576000Y69766750D01*
G75*
G02*
X66357250Y69548000I-218750J0D01*
G01*
X65919750Y69548000D01*
G75*
G02*
X65701000Y69766750I0J218750D01*
G01*
X65701000Y70279250D01*
G75*
G02*
X65919750Y70498000I218750J0D01*
G01*
X66357250Y70498000D01*
G75*
G02*
X66576000Y70279250I0J-218750D01*
G01*
G37*
G04 #@! TD*
G04 #@! TO.C,MMCU40*
X64926000Y47023000D03*
G04 #@! TD*
D36*
G04 #@! TO.C,M6*
X65051002Y81151414D03*
X65051002Y82876416D03*
X65051002Y84601416D03*
X65051002Y86301414D03*
D37*
X78251001Y79676414D03*
D36*
X84006875Y85697812D03*
X84001003Y82076414D03*
G04 #@! TD*
G04 #@! TO.C,C7*
G36*
G01*
X21926000Y48798000D02*
X21426000Y48798000D01*
G75*
G02*
X21201000Y49023000I0J225000D01*
G01*
X21201000Y49473000D01*
G75*
G02*
X21426000Y49698000I225000J0D01*
G01*
X21926000Y49698000D01*
G75*
G02*
X22151000Y49473000I0J-225000D01*
G01*
X22151000Y49023000D01*
G75*
G02*
X21926000Y48798000I-225000J0D01*
G01*
G37*
G36*
G01*
X21926000Y50348000D02*
X21426000Y50348000D01*
G75*
G02*
X21201000Y50573000I0J225000D01*
G01*
X21201000Y51023000D01*
G75*
G02*
X21426000Y51248000I225000J0D01*
G01*
X21926000Y51248000D01*
G75*
G02*
X22151000Y51023000I0J-225000D01*
G01*
X22151000Y50573000D01*
G75*
G02*
X21926000Y50348000I-225000J0D01*
G01*
G37*
G04 #@! TD*
D38*
G04 #@! TO.C,J19*
X3401000Y16523000D03*
G36*
G01*
X12300999Y15173000D02*
X9101001Y15173000D01*
G75*
G02*
X8851000Y15423001I0J250001D01*
G01*
X8851000Y17622999D01*
G75*
G02*
X9101001Y17873000I250001J0D01*
G01*
X12300999Y17873000D01*
G75*
G02*
X12551000Y17622999I0J-250001D01*
G01*
X12551000Y15423001D01*
G75*
G02*
X12300999Y15173000I-250001J0D01*
G01*
G37*
D39*
X16201000Y16523000D03*
G04 #@! TD*
G04 #@! TO.C,D2*
G36*
G01*
X102688500Y8729250D02*
X102688500Y8216750D01*
G75*
G02*
X102469750Y7998000I-218750J0D01*
G01*
X102032250Y7998000D01*
G75*
G02*
X101813500Y8216750I0J218750D01*
G01*
X101813500Y8729250D01*
G75*
G02*
X102032250Y8948000I218750J0D01*
G01*
X102469750Y8948000D01*
G75*
G02*
X102688500Y8729250I0J-218750D01*
G01*
G37*
G36*
G01*
X101113500Y8729250D02*
X101113500Y8216750D01*
G75*
G02*
X100894750Y7998000I-218750J0D01*
G01*
X100457250Y7998000D01*
G75*
G02*
X100238500Y8216750I0J218750D01*
G01*
X100238500Y8729250D01*
G75*
G02*
X100457250Y8948000I218750J0D01*
G01*
X100894750Y8948000D01*
G75*
G02*
X101113500Y8729250I0J-218750D01*
G01*
G37*
G04 #@! TD*
G04 #@! TO.C,C3*
G36*
G01*
X103186000Y8303000D02*
X103186000Y8643000D01*
G75*
G02*
X103326000Y8783000I140000J0D01*
G01*
X103606000Y8783000D01*
G75*
G02*
X103746000Y8643000I0J-140000D01*
G01*
X103746000Y8303000D01*
G75*
G02*
X103606000Y8163000I-140000J0D01*
G01*
X103326000Y8163000D01*
G75*
G02*
X103186000Y8303000I0J140000D01*
G01*
G37*
G36*
G01*
X104146000Y8303000D02*
X104146000Y8643000D01*
G75*
G02*
X104286000Y8783000I140000J0D01*
G01*
X104566000Y8783000D01*
G75*
G02*
X104706000Y8643000I0J-140000D01*
G01*
X104706000Y8303000D01*
G75*
G02*
X104566000Y8163000I-140000J0D01*
G01*
X104286000Y8163000D01*
G75*
G02*
X104146000Y8303000I0J140000D01*
G01*
G37*
G04 #@! TD*
G04 #@! TO.C,D9*
G36*
G01*
X26901000Y21779250D02*
X26901000Y21266750D01*
G75*
G02*
X26682250Y21048000I-218750J0D01*
G01*
X26244750Y21048000D01*
G75*
G02*
X26026000Y21266750I0J218750D01*
G01*
X26026000Y21779250D01*
G75*
G02*
X26244750Y21998000I218750J0D01*
G01*
X26682250Y21998000D01*
G75*
G02*
X26901000Y21779250I0J-218750D01*
G01*
G37*
G36*
G01*
X25326000Y21779250D02*
X25326000Y21266750D01*
G75*
G02*
X25107250Y21048000I-218750J0D01*
G01*
X24669750Y21048000D01*
G75*
G02*
X24451000Y21266750I0J218750D01*
G01*
X24451000Y21779250D01*
G75*
G02*
X24669750Y21998000I218750J0D01*
G01*
X25107250Y21998000D01*
G75*
G02*
X25326000Y21779250I0J-218750D01*
G01*
G37*
G04 #@! TD*
G04 #@! TO.C,D10*
G36*
G01*
X26901000Y18279250D02*
X26901000Y17766750D01*
G75*
G02*
X26682250Y17548000I-218750J0D01*
G01*
X26244750Y17548000D01*
G75*
G02*
X26026000Y17766750I0J218750D01*
G01*
X26026000Y18279250D01*
G75*
G02*
X26244750Y18498000I218750J0D01*
G01*
X26682250Y18498000D01*
G75*
G02*
X26901000Y18279250I0J-218750D01*
G01*
G37*
G36*
G01*
X25326000Y18279250D02*
X25326000Y17766750D01*
G75*
G02*
X25107250Y17548000I-218750J0D01*
G01*
X24669750Y17548000D01*
G75*
G02*
X24451000Y17766750I0J218750D01*
G01*
X24451000Y18279250D01*
G75*
G02*
X24669750Y18498000I218750J0D01*
G01*
X25107250Y18498000D01*
G75*
G02*
X25326000Y18279250I0J-218750D01*
G01*
G37*
G04 #@! TD*
D10*
G04 #@! TO.C,cr19*
X112176000Y100523000D03*
G04 #@! TD*
G04 #@! TO.C,MMCU34*
X88426000Y59523000D03*
G04 #@! TD*
G04 #@! TO.C,VOUT14*
X33676000Y86773000D03*
G04 #@! TD*
G04 #@! TO.C,D19*
G36*
G01*
X121988500Y64516750D02*
X121988500Y65029250D01*
G75*
G02*
X122207250Y65248000I218750J0D01*
G01*
X122644750Y65248000D01*
G75*
G02*
X122863500Y65029250I0J-218750D01*
G01*
X122863500Y64516750D01*
G75*
G02*
X122644750Y64298000I-218750J0D01*
G01*
X122207250Y64298000D01*
G75*
G02*
X121988500Y64516750I0J218750D01*
G01*
G37*
G36*
G01*
X123563500Y64516750D02*
X123563500Y65029250D01*
G75*
G02*
X123782250Y65248000I218750J0D01*
G01*
X124219750Y65248000D01*
G75*
G02*
X124438500Y65029250I0J-218750D01*
G01*
X124438500Y64516750D01*
G75*
G02*
X124219750Y64298000I-218750J0D01*
G01*
X123782250Y64298000D01*
G75*
G02*
X123563500Y64516750I0J218750D01*
G01*
G37*
G04 #@! TD*
G04 #@! TO.C,MMCU19*
X67926000Y16523000D03*
G04 #@! TD*
G04 #@! TO.C,MMCU3*
X116426000Y15273000D03*
G04 #@! TD*
D26*
G04 #@! TO.C,RN2*
X37776000Y29323000D03*
X37776000Y30123000D03*
X37776000Y30923000D03*
X37776000Y31723000D03*
X36076000Y31723000D03*
X36076000Y30923000D03*
X36076000Y30123000D03*
X36076000Y29323000D03*
G04 #@! TD*
G04 #@! TO.C,D31*
G36*
G01*
X68151000Y57529250D02*
X68151000Y57016750D01*
G75*
G02*
X67932250Y56798000I-218750J0D01*
G01*
X67494750Y56798000D01*
G75*
G02*
X67276000Y57016750I0J218750D01*
G01*
X67276000Y57529250D01*
G75*
G02*
X67494750Y57748000I218750J0D01*
G01*
X67932250Y57748000D01*
G75*
G02*
X68151000Y57529250I0J-218750D01*
G01*
G37*
G36*
G01*
X66576000Y57529250D02*
X66576000Y57016750D01*
G75*
G02*
X66357250Y56798000I-218750J0D01*
G01*
X65919750Y56798000D01*
G75*
G02*
X65701000Y57016750I0J218750D01*
G01*
X65701000Y57529250D01*
G75*
G02*
X65919750Y57748000I218750J0D01*
G01*
X66357250Y57748000D01*
G75*
G02*
X66576000Y57529250I0J-218750D01*
G01*
G37*
G04 #@! TD*
D10*
G04 #@! TO.C,MMCU26*
X100676000Y14523000D03*
G04 #@! TD*
G04 #@! TO.C,R20*
G36*
G01*
X137396000Y25088000D02*
X137396000Y25458000D01*
G75*
G02*
X137531000Y25593000I135000J0D01*
G01*
X137801000Y25593000D01*
G75*
G02*
X137936000Y25458000I0J-135000D01*
G01*
X137936000Y25088000D01*
G75*
G02*
X137801000Y24953000I-135000J0D01*
G01*
X137531000Y24953000D01*
G75*
G02*
X137396000Y25088000I0J135000D01*
G01*
G37*
G36*
G01*
X138416000Y25088000D02*
X138416000Y25458000D01*
G75*
G02*
X138551000Y25593000I135000J0D01*
G01*
X138821000Y25593000D01*
G75*
G02*
X138956000Y25458000I0J-135000D01*
G01*
X138956000Y25088000D01*
G75*
G02*
X138821000Y24953000I-135000J0D01*
G01*
X138551000Y24953000D01*
G75*
G02*
X138416000Y25088000I0J135000D01*
G01*
G37*
G04 #@! TD*
D34*
G04 #@! TO.C,M8*
X18926000Y46810476D03*
X18926000Y45935476D03*
X18926000Y45235475D03*
X1101002Y44785476D03*
X1101002Y47185479D03*
G04 #@! TD*
D26*
G04 #@! TO.C,RN3*
X31276000Y17573000D03*
X31276000Y18373000D03*
X31276000Y19173000D03*
X31276000Y19973000D03*
X29576000Y19973000D03*
X29576000Y19173000D03*
X29576000Y18373000D03*
X29576000Y17573000D03*
G04 #@! TD*
D10*
G04 #@! TO.C,VOUT22*
X29176000Y86773000D03*
G04 #@! TD*
G04 #@! TO.C,MMCU25*
X101926000Y12523000D03*
G04 #@! TD*
G04 #@! TO.C,D12*
G36*
G01*
X68151000Y72529250D02*
X68151000Y72016750D01*
G75*
G02*
X67932250Y71798000I-218750J0D01*
G01*
X67494750Y71798000D01*
G75*
G02*
X67276000Y72016750I0J218750D01*
G01*
X67276000Y72529250D01*
G75*
G02*
X67494750Y72748000I218750J0D01*
G01*
X67932250Y72748000D01*
G75*
G02*
X68151000Y72529250I0J-218750D01*
G01*
G37*
G36*
G01*
X66576000Y72529250D02*
X66576000Y72016750D01*
G75*
G02*
X66357250Y71798000I-218750J0D01*
G01*
X65919750Y71798000D01*
G75*
G02*
X65701000Y72016750I0J218750D01*
G01*
X65701000Y72529250D01*
G75*
G02*
X65919750Y72748000I218750J0D01*
G01*
X66357250Y72748000D01*
G75*
G02*
X66576000Y72529250I0J-218750D01*
G01*
G37*
G04 #@! TD*
G04 #@! TO.C,D13*
G36*
G01*
X26901000Y20029250D02*
X26901000Y19516750D01*
G75*
G02*
X26682250Y19298000I-218750J0D01*
G01*
X26244750Y19298000D01*
G75*
G02*
X26026000Y19516750I0J218750D01*
G01*
X26026000Y20029250D01*
G75*
G02*
X26244750Y20248000I218750J0D01*
G01*
X26682250Y20248000D01*
G75*
G02*
X26901000Y20029250I0J-218750D01*
G01*
G37*
G36*
G01*
X25326000Y20029250D02*
X25326000Y19516750D01*
G75*
G02*
X25107250Y19298000I-218750J0D01*
G01*
X24669750Y19298000D01*
G75*
G02*
X24451000Y19516750I0J218750D01*
G01*
X24451000Y20029250D01*
G75*
G02*
X24669750Y20248000I218750J0D01*
G01*
X25107250Y20248000D01*
G75*
G02*
X25326000Y20029250I0J-218750D01*
G01*
G37*
G04 #@! TD*
G04 #@! TO.C,R22*
G36*
G01*
X138956000Y84958000D02*
X138956000Y84588000D01*
G75*
G02*
X138821000Y84453000I-135000J0D01*
G01*
X138551000Y84453000D01*
G75*
G02*
X138416000Y84588000I0J135000D01*
G01*
X138416000Y84958000D01*
G75*
G02*
X138551000Y85093000I135000J0D01*
G01*
X138821000Y85093000D01*
G75*
G02*
X138956000Y84958000I0J-135000D01*
G01*
G37*
G36*
G01*
X137936000Y84958000D02*
X137936000Y84588000D01*
G75*
G02*
X137801000Y84453000I-135000J0D01*
G01*
X137531000Y84453000D01*
G75*
G02*
X137396000Y84588000I0J135000D01*
G01*
X137396000Y84958000D01*
G75*
G02*
X137531000Y85093000I135000J0D01*
G01*
X137801000Y85093000D01*
G75*
G02*
X137936000Y84958000I0J-135000D01*
G01*
G37*
G04 #@! TD*
G04 #@! TO.C,J17*
G36*
G01*
X36026000Y4298100D02*
X36026000Y2947900D01*
G75*
G02*
X35776100Y2698000I-249900J0D01*
G01*
X34575900Y2698000D01*
G75*
G02*
X34326000Y2947900I0J249900D01*
G01*
X34326000Y4298100D01*
G75*
G02*
X34575900Y4548000I249900J0D01*
G01*
X35776100Y4548000D01*
G75*
G02*
X36026000Y4298100I0J-249900D01*
G01*
G37*
D40*
X32676000Y3623000D03*
X30176000Y3623000D03*
X27676000Y3623000D03*
X25176000Y3623000D03*
X22676000Y3623000D03*
X20176000Y3623000D03*
X17676000Y3623000D03*
G04 #@! TD*
D10*
G04 #@! TO.C,VOUT6*
X62676000Y78523000D03*
G04 #@! TD*
G04 #@! TO.C,VOUT24*
X25926000Y39773000D03*
G04 #@! TD*
G04 #@! TO.C,D5*
G36*
G01*
X33938500Y32029250D02*
X33938500Y31516750D01*
G75*
G02*
X33719750Y31298000I-218750J0D01*
G01*
X33282250Y31298000D01*
G75*
G02*
X33063500Y31516750I0J218750D01*
G01*
X33063500Y32029250D01*
G75*
G02*
X33282250Y32248000I218750J0D01*
G01*
X33719750Y32248000D01*
G75*
G02*
X33938500Y32029250I0J-218750D01*
G01*
G37*
G36*
G01*
X32363500Y32029250D02*
X32363500Y31516750D01*
G75*
G02*
X32144750Y31298000I-218750J0D01*
G01*
X31707250Y31298000D01*
G75*
G02*
X31488500Y31516750I0J218750D01*
G01*
X31488500Y32029250D01*
G75*
G02*
X31707250Y32248000I218750J0D01*
G01*
X32144750Y32248000D01*
G75*
G02*
X32363500Y32029250I0J-218750D01*
G01*
G37*
G04 #@! TD*
G04 #@! TO.C,MMCU35*
X83926000Y59523000D03*
G04 #@! TD*
D24*
G04 #@! TO.C,SW1*
X90926000Y10973000D03*
D25*
X89226000Y10973000D03*
X92626000Y10973000D03*
G04 #@! TD*
D10*
G04 #@! TO.C,VOUT16*
X49926000Y91474215D03*
G04 #@! TD*
G04 #@! TO.C,J14*
X68426000Y88523000D03*
G04 #@! TD*
G04 #@! TO.C,VIN1*
X110176000Y84773000D03*
G04 #@! TD*
G04 #@! TO.C,D6*
G36*
G01*
X33938500Y30279250D02*
X33938500Y29766750D01*
G75*
G02*
X33719750Y29548000I-218750J0D01*
G01*
X33282250Y29548000D01*
G75*
G02*
X33063500Y29766750I0J218750D01*
G01*
X33063500Y30279250D01*
G75*
G02*
X33282250Y30498000I218750J0D01*
G01*
X33719750Y30498000D01*
G75*
G02*
X33938500Y30279250I0J-218750D01*
G01*
G37*
G36*
G01*
X32363500Y30279250D02*
X32363500Y29766750D01*
G75*
G02*
X32144750Y29548000I-218750J0D01*
G01*
X31707250Y29548000D01*
G75*
G02*
X31488500Y29766750I0J218750D01*
G01*
X31488500Y30279250D01*
G75*
G02*
X31707250Y30498000I218750J0D01*
G01*
X32144750Y30498000D01*
G75*
G02*
X32363500Y30279250I0J-218750D01*
G01*
G37*
G04 #@! TD*
G04 #@! TO.C,MMCU36*
X90646002Y58773000D03*
G04 #@! TD*
G04 #@! TO.C,cr9*
X61176000Y100523000D03*
G04 #@! TD*
G04 #@! TO.C,MMCU1*
X120426000Y15273000D03*
G04 #@! TD*
D27*
G04 #@! TO.C,P6*
X16926000Y11023000D03*
G04 #@! TD*
D10*
G04 #@! TO.C,cr17*
X65676000Y96523000D03*
G04 #@! TD*
G04 #@! TO.C,VIN20*
X111426000Y82773000D03*
G04 #@! TD*
D19*
G04 #@! TO.C,J20*
X14276000Y21523000D03*
D20*
X11736000Y21523000D03*
X9196000Y21523000D03*
X6656000Y21523000D03*
X4116000Y21523000D03*
X1576000Y21523000D03*
G04 #@! TD*
D10*
G04 #@! TO.C,MMCU22*
X79426000Y59523000D03*
G04 #@! TD*
D23*
G04 #@! TO.C,TP1*
X28906000Y28273000D03*
G04 #@! TD*
D10*
G04 #@! TO.C,J15*
X66176000Y88523000D03*
G04 #@! TD*
G04 #@! TO.C,cr7*
X92176000Y100523000D03*
G04 #@! TD*
G04 #@! TO.C,VOUT7*
X23676000Y36023000D03*
G04 #@! TD*
G04 #@! TO.C,VOUT4*
X60426000Y79523000D03*
G04 #@! TD*
G04 #@! TO.C,VIN9*
X87926000Y80523000D03*
G04 #@! TD*
G04 #@! TO.C,VIN13*
X92676000Y82523000D03*
G04 #@! TD*
G04 #@! TO.C,MMCU23*
X81676000Y59523000D03*
G04 #@! TD*
G04 #@! TO.C,VOUT9*
X25926000Y42273000D03*
G04 #@! TD*
G04 #@! TO.C,VOUT28*
X31176000Y37273000D03*
G04 #@! TD*
G04 #@! TO.C,D26*
G36*
G01*
X68151000Y62779250D02*
X68151000Y62266750D01*
G75*
G02*
X67932250Y62048000I-218750J0D01*
G01*
X67494750Y62048000D01*
G75*
G02*
X67276000Y62266750I0J218750D01*
G01*
X67276000Y62779250D01*
G75*
G02*
X67494750Y62998000I218750J0D01*
G01*
X67932250Y62998000D01*
G75*
G02*
X68151000Y62779250I0J-218750D01*
G01*
G37*
G36*
G01*
X66576000Y62779250D02*
X66576000Y62266750D01*
G75*
G02*
X66357250Y62048000I-218750J0D01*
G01*
X65919750Y62048000D01*
G75*
G02*
X65701000Y62266750I0J218750D01*
G01*
X65701000Y62779250D01*
G75*
G02*
X65919750Y62998000I218750J0D01*
G01*
X66357250Y62998000D01*
G75*
G02*
X66576000Y62779250I0J-218750D01*
G01*
G37*
G04 #@! TD*
G04 #@! TO.C,MMCU12*
X70926000Y16523000D03*
G04 #@! TD*
G04 #@! TO.C,VIN5*
X84176000Y72773000D03*
G04 #@! TD*
D26*
G04 #@! TO.C,RN1*
X75776000Y66323000D03*
X75776000Y67123000D03*
X75776000Y67923000D03*
X75776000Y68723000D03*
X74076000Y68723000D03*
X74076000Y67923000D03*
X74076000Y67123000D03*
X74076000Y66323000D03*
G04 #@! TD*
D10*
G04 #@! TO.C,VOUT23*
X31426000Y86773000D03*
G04 #@! TD*
G04 #@! TO.C,cr16*
X62676000Y96523000D03*
G04 #@! TD*
G04 #@! TO.C,cr5*
X59426000Y96523000D03*
G04 #@! TD*
G04 #@! TO.C,J16*
X88176000Y84523000D03*
G04 #@! TD*
D34*
G04 #@! TO.C,M12*
X18926000Y42060476D03*
X18926000Y41185476D03*
X18926000Y40485475D03*
X1101002Y40035476D03*
X1101002Y42435479D03*
G04 #@! TD*
D41*
G04 #@! TO.C,J18*
X25026000Y57423000D03*
X23226000Y55423000D03*
X17126000Y55423000D03*
X19526000Y57423000D03*
X28726000Y55423000D03*
G04 #@! TD*
D10*
G04 #@! TO.C,cr21*
X119426000Y100523000D03*
G04 #@! TD*
G04 #@! TO.C,MMCU13*
X69176000Y18773000D03*
G04 #@! TD*
G04 #@! TO.C,R11*
G36*
G01*
X134751000Y94098000D02*
X137601000Y94098000D01*
G75*
G02*
X137851000Y93848000I0J-250000D01*
G01*
X137851000Y93123000D01*
G75*
G02*
X137601000Y92873000I-250000J0D01*
G01*
X134751000Y92873000D01*
G75*
G02*
X134501000Y93123000I0J250000D01*
G01*
X134501000Y93848000D01*
G75*
G02*
X134751000Y94098000I250000J0D01*
G01*
G37*
G36*
G01*
X134751000Y88173000D02*
X137601000Y88173000D01*
G75*
G02*
X137851000Y87923000I0J-250000D01*
G01*
X137851000Y87198000D01*
G75*
G02*
X137601000Y86948000I-250000J0D01*
G01*
X134751000Y86948000D01*
G75*
G02*
X134501000Y87198000I0J250000D01*
G01*
X134501000Y87923000D01*
G75*
G02*
X134751000Y88173000I250000J0D01*
G01*
G37*
G04 #@! TD*
G04 #@! TO.C,VOUT8*
X28926000Y36023000D03*
G04 #@! TD*
G04 #@! TO.C,VOUT29*
X62676000Y54023000D03*
G04 #@! TD*
G04 #@! TO.C,cr12*
X43176000Y100523000D03*
G04 #@! TD*
G04 #@! TO.C,VIN24*
X104676000Y82773000D03*
G04 #@! TD*
D42*
G04 #@! TO.C,U2*
X41496000Y29713000D03*
X64356000Y29713000D03*
D12*
X46576000Y17013000D03*
X49116000Y17013000D03*
X51656000Y17013000D03*
X54196000Y17013000D03*
X56736000Y17013000D03*
X59276000Y17013000D03*
G04 #@! TD*
G04 #@! TO.C,D17*
G36*
G01*
X121951000Y57416750D02*
X121951000Y57929250D01*
G75*
G02*
X122169750Y58148000I218750J0D01*
G01*
X122607250Y58148000D01*
G75*
G02*
X122826000Y57929250I0J-218750D01*
G01*
X122826000Y57416750D01*
G75*
G02*
X122607250Y57198000I-218750J0D01*
G01*
X122169750Y57198000D01*
G75*
G02*
X121951000Y57416750I0J218750D01*
G01*
G37*
G36*
G01*
X123526000Y57416750D02*
X123526000Y57929250D01*
G75*
G02*
X123744750Y58148000I218750J0D01*
G01*
X124182250Y58148000D01*
G75*
G02*
X124401000Y57929250I0J-218750D01*
G01*
X124401000Y57416750D01*
G75*
G02*
X124182250Y57198000I-218750J0D01*
G01*
X123744750Y57198000D01*
G75*
G02*
X123526000Y57416750I0J218750D01*
G01*
G37*
G04 #@! TD*
D43*
G04 #@! TO.C,M9*
X34068570Y84822993D03*
X35324435Y84822993D03*
X49699461Y84822993D03*
D44*
X58754459Y81326709D03*
G04 #@! TD*
D10*
G04 #@! TO.C,cr10*
X64176000Y100523000D03*
G04 #@! TD*
G04 #@! TO.C,cr4*
X19176000Y100523000D03*
G04 #@! TD*
G04 #@! TO.C,cr6*
X89926000Y100523000D03*
G04 #@! TD*
G04 #@! TO.C,MMCU32*
X64926000Y55023000D03*
G04 #@! TD*
G04 #@! TO.C,VOUT12*
X23676000Y38523000D03*
G04 #@! TD*
D14*
G04 #@! TO.C,JP2*
X17676000Y32550500D03*
D12*
X17676000Y31915500D03*
D13*
X17676000Y32868000D03*
D14*
X17676000Y35090500D03*
D12*
X17676000Y35725500D03*
D13*
X17676000Y34773000D03*
G04 #@! TD*
D10*
G04 #@! TO.C,cr23*
X138926000Y100523000D03*
G04 #@! TD*
D45*
G04 #@! TO.C,M1*
X16034985Y33885113D03*
D46*
X509985Y29835103D03*
D35*
X14859984Y38385112D03*
X6634984Y37060108D03*
X6652489Y31827614D03*
X8534985Y31335108D03*
X1184992Y30210122D03*
G04 #@! TD*
D47*
G04 #@! TO.C,M10*
X119651052Y46359475D03*
X120411031Y46359475D03*
X121586024Y46359475D03*
X122761011Y46359475D03*
X123600923Y46359475D03*
X124350995Y46359475D03*
X125526006Y46359475D03*
X126701003Y46359475D03*
D35*
X121661000Y36259868D03*
X119825990Y36684876D03*
X121875998Y37234873D03*
X121661003Y38109832D03*
X121585996Y38959855D03*
X119825990Y39284871D03*
X121135990Y40584838D03*
X119825990Y41234855D03*
X125751005Y34059852D03*
X121675999Y34359854D03*
G04 #@! TD*
D10*
G04 #@! TO.C,cr14*
X53926000Y100523000D03*
G04 #@! TD*
G04 #@! TO.C,D4*
G36*
G01*
X33938500Y28529250D02*
X33938500Y28016750D01*
G75*
G02*
X33719750Y27798000I-218750J0D01*
G01*
X33282250Y27798000D01*
G75*
G02*
X33063500Y28016750I0J218750D01*
G01*
X33063500Y28529250D01*
G75*
G02*
X33282250Y28748000I218750J0D01*
G01*
X33719750Y28748000D01*
G75*
G02*
X33938500Y28529250I0J-218750D01*
G01*
G37*
G36*
G01*
X32363500Y28529250D02*
X32363500Y28016750D01*
G75*
G02*
X32144750Y27798000I-218750J0D01*
G01*
X31707250Y27798000D01*
G75*
G02*
X31488500Y28016750I0J218750D01*
G01*
X31488500Y28529250D01*
G75*
G02*
X31707250Y28748000I218750J0D01*
G01*
X32144750Y28748000D01*
G75*
G02*
X32363500Y28529250I0J-218750D01*
G01*
G37*
G04 #@! TD*
G04 #@! TO.C,R19*
G36*
G01*
X137396000Y65088000D02*
X137396000Y65458000D01*
G75*
G02*
X137531000Y65593000I135000J0D01*
G01*
X137801000Y65593000D01*
G75*
G02*
X137936000Y65458000I0J-135000D01*
G01*
X137936000Y65088000D01*
G75*
G02*
X137801000Y64953000I-135000J0D01*
G01*
X137531000Y64953000D01*
G75*
G02*
X137396000Y65088000I0J135000D01*
G01*
G37*
G36*
G01*
X138416000Y65088000D02*
X138416000Y65458000D01*
G75*
G02*
X138551000Y65593000I135000J0D01*
G01*
X138821000Y65593000D01*
G75*
G02*
X138956000Y65458000I0J-135000D01*
G01*
X138956000Y65088000D01*
G75*
G02*
X138821000Y64953000I-135000J0D01*
G01*
X138551000Y64953000D01*
G75*
G02*
X138416000Y65088000I0J135000D01*
G01*
G37*
G04 #@! TD*
G04 #@! TO.C,MMCU11*
X71676000Y18773000D03*
G04 #@! TD*
G04 #@! TO.C,D7*
G36*
G01*
X78201000Y65516750D02*
X78201000Y66029250D01*
G75*
G02*
X78419750Y66248000I218750J0D01*
G01*
X78857250Y66248000D01*
G75*
G02*
X79076000Y66029250I0J-218750D01*
G01*
X79076000Y65516750D01*
G75*
G02*
X78857250Y65298000I-218750J0D01*
G01*
X78419750Y65298000D01*
G75*
G02*
X78201000Y65516750I0J218750D01*
G01*
G37*
G36*
G01*
X79776000Y65516750D02*
X79776000Y66029250D01*
G75*
G02*
X79994750Y66248000I218750J0D01*
G01*
X80432250Y66248000D01*
G75*
G02*
X80651000Y66029250I0J-218750D01*
G01*
X80651000Y65516750D01*
G75*
G02*
X80432250Y65298000I-218750J0D01*
G01*
X79994750Y65298000D01*
G75*
G02*
X79776000Y65516750I0J218750D01*
G01*
G37*
G04 #@! TD*
G04 #@! TO.C,cr18*
X68676000Y96523000D03*
G04 #@! TD*
D23*
G04 #@! TO.C,TP2*
X28963500Y32273000D03*
G04 #@! TD*
D10*
G04 #@! TO.C,cr22*
X138926000Y97273000D03*
G04 #@! TD*
G04 #@! TO.C,MMCU33*
X86176000Y59523000D03*
G04 #@! TD*
G04 #@! TO.C,MMCU24*
X103176000Y14523000D03*
G04 #@! TD*
G04 #@! TO.C,D30*
G36*
G01*
X68151000Y61029250D02*
X68151000Y60516750D01*
G75*
G02*
X67932250Y60298000I-218750J0D01*
G01*
X67494750Y60298000D01*
G75*
G02*
X67276000Y60516750I0J218750D01*
G01*
X67276000Y61029250D01*
G75*
G02*
X67494750Y61248000I218750J0D01*
G01*
X67932250Y61248000D01*
G75*
G02*
X68151000Y61029250I0J-218750D01*
G01*
G37*
G36*
G01*
X66576000Y61029250D02*
X66576000Y60516750D01*
G75*
G02*
X66357250Y60298000I-218750J0D01*
G01*
X65919750Y60298000D01*
G75*
G02*
X65701000Y60516750I0J218750D01*
G01*
X65701000Y61029250D01*
G75*
G02*
X65919750Y61248000I218750J0D01*
G01*
X66357250Y61248000D01*
G75*
G02*
X66576000Y61029250I0J-218750D01*
G01*
G37*
G04 #@! TD*
G04 #@! TO.C,cr24*
X97926000Y100523000D03*
G04 #@! TD*
G04 #@! TO.C,VOUT11*
X23676000Y41023000D03*
G04 #@! TD*
D27*
G04 #@! TO.C,P4*
X23426000Y11023000D03*
G04 #@! TD*
D10*
G04 #@! TO.C,VOUT17*
X53176000Y89474215D03*
G04 #@! TD*
D33*
G04 #@! TO.C,M2*
X121701003Y21023007D03*
D34*
X121751001Y31373001D03*
X121751001Y30873000D03*
D35*
X122800999Y24323003D03*
X123325999Y25198005D03*
X124075997Y24023001D03*
X127625998Y24098004D03*
G04 #@! TD*
D10*
G04 #@! TO.C,MMCU27*
X98176000Y14523000D03*
G04 #@! TD*
G04 #@! TO.C,VIN22*
X108176000Y64023000D03*
G04 #@! TD*
G04 #@! TO.C,VIN2*
X103426000Y84773000D03*
G04 #@! TD*
G04 #@! TO.C,R17*
G36*
G01*
X137396000Y34838000D02*
X137396000Y35208000D01*
G75*
G02*
X137531000Y35343000I135000J0D01*
G01*
X137801000Y35343000D01*
G75*
G02*
X137936000Y35208000I0J-135000D01*
G01*
X137936000Y34838000D01*
G75*
G02*
X137801000Y34703000I-135000J0D01*
G01*
X137531000Y34703000D01*
G75*
G02*
X137396000Y34838000I0J135000D01*
G01*
G37*
G36*
G01*
X138416000Y34838000D02*
X138416000Y35208000D01*
G75*
G02*
X138551000Y35343000I135000J0D01*
G01*
X138821000Y35343000D01*
G75*
G02*
X138956000Y35208000I0J-135000D01*
G01*
X138956000Y34838000D01*
G75*
G02*
X138821000Y34703000I-135000J0D01*
G01*
X138551000Y34703000D01*
G75*
G02*
X138416000Y34838000I0J135000D01*
G01*
G37*
G04 #@! TD*
G04 #@! TO.C,VOUT13*
X25926000Y37273000D03*
G04 #@! TD*
D27*
G04 #@! TO.C,P1*
X34176000Y11023000D03*
G04 #@! TD*
D10*
G04 #@! TO.C,MMCU6*
X81176000Y17773000D03*
G04 #@! TD*
D35*
G04 #@! TO.C,M5*
X124950978Y735480D03*
X87587712Y735480D03*
X99850980Y735480D03*
X114050979Y735480D03*
X88975985Y4535492D03*
G04 #@! TD*
M02*
