G04 #@! TF.GenerationSoftware,KiCad,Pcbnew,(5.99.0-11247-g3f6811f413)*
G04 #@! TF.CreationDate,2021-08-14T14:37:13+03:00*
G04 #@! TF.ProjectId,hellen88bmw,68656c6c-656e-4383-9862-6d772e6b6963,rev?*
G04 #@! TF.SameCoordinates,PX3d1b110PY9269338*
G04 #@! TF.FileFunction,Paste,Bot*
G04 #@! TF.FilePolarity,Positive*
%FSLAX46Y46*%
G04 Gerber Fmt 4.6, Leading zero omitted, Abs format (unit mm)*
G04 Created by KiCad (PCBNEW (5.99.0-11247-g3f6811f413)) date 2021-08-14 14:37:13*
%MOMM*%
%LPD*%
G01*
G04 APERTURE LIST*
%ADD10C,1.524000*%
%ADD11O,0.000001X0.000001*%
%ADD12R,0.800000X1.500000*%
%ADD13R,1.450000X2.000000*%
G04 APERTURE END LIST*
D10*
G04 #@! TO.C,\u002Aref1*
X74892400Y112356400D03*
G04 #@! TD*
G04 #@! TO.C,M7*
G36*
G01*
X114671000Y65148000D02*
X114671000Y65398000D01*
G75*
G02*
X114796000Y65523000I125000J0D01*
G01*
X114796000Y65523000D01*
G75*
G02*
X114921000Y65398000I0J-125000D01*
G01*
X114921000Y65148000D01*
G75*
G02*
X114796000Y65023000I-125000J0D01*
G01*
X114796000Y65023000D01*
G75*
G02*
X114671000Y65148000I0J125000D01*
G01*
G37*
G36*
G01*
X113820996Y65398000D02*
X113820996Y65148000D01*
G75*
G02*
X113695996Y65023000I-125000J0D01*
G01*
X113695996Y65023000D01*
G75*
G02*
X113570996Y65148000I0J125000D01*
G01*
X113570996Y65398000D01*
G75*
G02*
X113695996Y65523000I125000J0D01*
G01*
X113695996Y65523000D01*
G75*
G02*
X113820996Y65398000I0J-125000D01*
G01*
G37*
G36*
G01*
X112720995Y65398000D02*
X112720995Y65148000D01*
G75*
G02*
X112595995Y65023000I-125000J0D01*
G01*
X112595995Y65023000D01*
G75*
G02*
X112470995Y65148000I0J125000D01*
G01*
X112470995Y65398000D01*
G75*
G02*
X112595995Y65523000I125000J0D01*
G01*
X112595995Y65523000D01*
G75*
G02*
X112720995Y65398000I0J-125000D01*
G01*
G37*
G36*
G01*
X111620998Y65398000D02*
X111620998Y65148000D01*
G75*
G02*
X111495998Y65023000I-125000J0D01*
G01*
X111495998Y65023000D01*
G75*
G02*
X111370998Y65148000I0J125000D01*
G01*
X111370998Y65398000D01*
G75*
G02*
X111495998Y65523000I125000J0D01*
G01*
X111495998Y65523000D01*
G75*
G02*
X111620998Y65398000I0J-125000D01*
G01*
G37*
G36*
G01*
X110521000Y65398000D02*
X110521000Y65148000D01*
G75*
G02*
X110396000Y65023000I-125000J0D01*
G01*
X110396000Y65023000D01*
G75*
G02*
X110271000Y65148000I0J125000D01*
G01*
X110271000Y65398000D01*
G75*
G02*
X110396000Y65523000I125000J0D01*
G01*
X110396000Y65523000D01*
G75*
G02*
X110521000Y65398000I0J-125000D01*
G01*
G37*
G36*
G01*
X109421002Y65398000D02*
X109421002Y65148000D01*
G75*
G02*
X109296002Y65023000I-125000J0D01*
G01*
X109296002Y65023000D01*
G75*
G02*
X109171002Y65148000I0J125000D01*
G01*
X109171002Y65398000D01*
G75*
G02*
X109296002Y65523000I125000J0D01*
G01*
X109296002Y65523000D01*
G75*
G02*
X109421002Y65398000I0J-125000D01*
G01*
G37*
G36*
G01*
X108321004Y65398000D02*
X108321004Y65148000D01*
G75*
G02*
X108196004Y65023000I-125000J0D01*
G01*
X108196004Y65023000D01*
G75*
G02*
X108071004Y65148000I0J125000D01*
G01*
X108071004Y65398000D01*
G75*
G02*
X108196004Y65523000I125000J0D01*
G01*
X108196004Y65523000D01*
G75*
G02*
X108321004Y65398000I0J-125000D01*
G01*
G37*
G36*
G01*
X107221006Y65398000D02*
X107221006Y65148000D01*
G75*
G02*
X107096006Y65023000I-125000J0D01*
G01*
X107096006Y65023000D01*
G75*
G02*
X106971006Y65148000I0J125000D01*
G01*
X106971006Y65398000D01*
G75*
G02*
X107096006Y65523000I125000J0D01*
G01*
X107096006Y65523000D01*
G75*
G02*
X107221006Y65398000I0J-125000D01*
G01*
G37*
G36*
G01*
X106121009Y65398000D02*
X106121009Y65148000D01*
G75*
G02*
X105996009Y65023000I-125000J0D01*
G01*
X105996009Y65023000D01*
G75*
G02*
X105871009Y65148000I0J125000D01*
G01*
X105871009Y65398000D01*
G75*
G02*
X105996009Y65523000I125000J0D01*
G01*
X105996009Y65523000D01*
G75*
G02*
X106121009Y65398000I0J-125000D01*
G01*
G37*
G36*
G01*
X105021011Y65398000D02*
X105021011Y65148000D01*
G75*
G02*
X104896011Y65023000I-125000J0D01*
G01*
X104896011Y65023000D01*
G75*
G02*
X104771011Y65148000I0J125000D01*
G01*
X104771011Y65398000D01*
G75*
G02*
X104896011Y65523000I125000J0D01*
G01*
X104896011Y65523000D01*
G75*
G02*
X105021011Y65398000I0J-125000D01*
G01*
G37*
G36*
G01*
X103921013Y65398000D02*
X103921013Y65148000D01*
G75*
G02*
X103796013Y65023000I-125000J0D01*
G01*
X103796013Y65023000D01*
G75*
G02*
X103671013Y65148000I0J125000D01*
G01*
X103671013Y65398000D01*
G75*
G02*
X103796013Y65523000I125000J0D01*
G01*
X103796013Y65523000D01*
G75*
G02*
X103921013Y65398000I0J-125000D01*
G01*
G37*
G36*
G01*
X102821015Y65398000D02*
X102821015Y65148000D01*
G75*
G02*
X102696015Y65023000I-125000J0D01*
G01*
X102696015Y65023000D01*
G75*
G02*
X102571015Y65148000I0J125000D01*
G01*
X102571015Y65398000D01*
G75*
G02*
X102696015Y65523000I125000J0D01*
G01*
X102696015Y65523000D01*
G75*
G02*
X102821015Y65398000I0J-125000D01*
G01*
G37*
G36*
G01*
X101721017Y65398000D02*
X101721017Y65148000D01*
G75*
G02*
X101596017Y65023000I-125000J0D01*
G01*
X101596017Y65023000D01*
G75*
G02*
X101471017Y65148000I0J125000D01*
G01*
X101471017Y65398000D01*
G75*
G02*
X101596017Y65523000I125000J0D01*
G01*
X101596017Y65523000D01*
G75*
G02*
X101721017Y65398000I0J-125000D01*
G01*
G37*
G36*
G01*
X100621020Y65398000D02*
X100621020Y65148000D01*
G75*
G02*
X100496020Y65023000I-125000J0D01*
G01*
X100496020Y65023000D01*
G75*
G02*
X100371020Y65148000I0J125000D01*
G01*
X100371020Y65398000D01*
G75*
G02*
X100496020Y65523000I125000J0D01*
G01*
X100496020Y65523000D01*
G75*
G02*
X100621020Y65398000I0J-125000D01*
G01*
G37*
G36*
G01*
X99521022Y65398000D02*
X99521022Y65148000D01*
G75*
G02*
X99396022Y65023000I-125000J0D01*
G01*
X99396022Y65023000D01*
G75*
G02*
X99271022Y65148000I0J125000D01*
G01*
X99271022Y65398000D01*
G75*
G02*
X99396022Y65523000I125000J0D01*
G01*
X99396022Y65523000D01*
G75*
G02*
X99521022Y65398000I0J-125000D01*
G01*
G37*
G36*
G01*
X98421024Y65398000D02*
X98421024Y65148000D01*
G75*
G02*
X98296024Y65023000I-125000J0D01*
G01*
X98296024Y65023000D01*
G75*
G02*
X98171024Y65148000I0J125000D01*
G01*
X98171024Y65398000D01*
G75*
G02*
X98296024Y65523000I125000J0D01*
G01*
X98296024Y65523000D01*
G75*
G02*
X98421024Y65398000I0J-125000D01*
G01*
G37*
G36*
G01*
X97321026Y65398000D02*
X97321026Y65148000D01*
G75*
G02*
X97196026Y65023000I-125000J0D01*
G01*
X97196026Y65023000D01*
G75*
G02*
X97071026Y65148000I0J125000D01*
G01*
X97071026Y65398000D01*
G75*
G02*
X97196026Y65523000I125000J0D01*
G01*
X97196026Y65523000D01*
G75*
G02*
X97321026Y65398000I0J-125000D01*
G01*
G37*
G36*
G01*
X96221028Y65398000D02*
X96221028Y65148000D01*
G75*
G02*
X96096028Y65023000I-125000J0D01*
G01*
X96096028Y65023000D01*
G75*
G02*
X95971028Y65148000I0J125000D01*
G01*
X95971028Y65398000D01*
G75*
G02*
X96096028Y65523000I125000J0D01*
G01*
X96096028Y65523000D01*
G75*
G02*
X96221028Y65398000I0J-125000D01*
G01*
G37*
G36*
G01*
X95121031Y65398000D02*
X95121031Y65148000D01*
G75*
G02*
X94996031Y65023000I-125000J0D01*
G01*
X94996031Y65023000D01*
G75*
G02*
X94871031Y65148000I0J125000D01*
G01*
X94871031Y65398000D01*
G75*
G02*
X94996031Y65523000I125000J0D01*
G01*
X94996031Y65523000D01*
G75*
G02*
X95121031Y65398000I0J-125000D01*
G01*
G37*
G36*
G01*
X94021033Y65398000D02*
X94021033Y65148000D01*
G75*
G02*
X93896033Y65023000I-125000J0D01*
G01*
X93896033Y65023000D01*
G75*
G02*
X93771033Y65148000I0J125000D01*
G01*
X93771033Y65398000D01*
G75*
G02*
X93896033Y65523000I125000J0D01*
G01*
X93896033Y65523000D01*
G75*
G02*
X94021033Y65398000I0J-125000D01*
G01*
G37*
G36*
G01*
X92921035Y65398000D02*
X92921035Y65148000D01*
G75*
G02*
X92796035Y65023000I-125000J0D01*
G01*
X92796035Y65023000D01*
G75*
G02*
X92671035Y65148000I0J125000D01*
G01*
X92671035Y65398000D01*
G75*
G02*
X92796035Y65523000I125000J0D01*
G01*
X92796035Y65523000D01*
G75*
G02*
X92921035Y65398000I0J-125000D01*
G01*
G37*
G36*
G01*
X91821037Y65398000D02*
X91821037Y65148000D01*
G75*
G02*
X91696037Y65023000I-125000J0D01*
G01*
X91696037Y65023000D01*
G75*
G02*
X91571037Y65148000I0J125000D01*
G01*
X91571037Y65398000D01*
G75*
G02*
X91696037Y65523000I125000J0D01*
G01*
X91696037Y65523000D01*
G75*
G02*
X91821037Y65398000I0J-125000D01*
G01*
G37*
G36*
G01*
X90721039Y65398000D02*
X90721039Y65148000D01*
G75*
G02*
X90596039Y65023000I-125000J0D01*
G01*
X90596039Y65023000D01*
G75*
G02*
X90471039Y65148000I0J125000D01*
G01*
X90471039Y65398000D01*
G75*
G02*
X90596039Y65523000I125000J0D01*
G01*
X90596039Y65523000D01*
G75*
G02*
X90721039Y65398000I0J-125000D01*
G01*
G37*
G36*
G01*
X89621042Y65398000D02*
X89621042Y65148000D01*
G75*
G02*
X89496042Y65023000I-125000J0D01*
G01*
X89496042Y65023000D01*
G75*
G02*
X89371042Y65148000I0J125000D01*
G01*
X89371042Y65398000D01*
G75*
G02*
X89496042Y65523000I125000J0D01*
G01*
X89496042Y65523000D01*
G75*
G02*
X89621042Y65398000I0J-125000D01*
G01*
G37*
G36*
G01*
X88521044Y65398000D02*
X88521044Y65148000D01*
G75*
G02*
X88396044Y65023000I-125000J0D01*
G01*
X88396044Y65023000D01*
G75*
G02*
X88271044Y65148000I0J125000D01*
G01*
X88271044Y65398000D01*
G75*
G02*
X88396044Y65523000I125000J0D01*
G01*
X88396044Y65523000D01*
G75*
G02*
X88521044Y65398000I0J-125000D01*
G01*
G37*
G36*
G01*
X87421046Y65398000D02*
X87421046Y65148000D01*
G75*
G02*
X87296046Y65023000I-125000J0D01*
G01*
X87296046Y65023000D01*
G75*
G02*
X87171046Y65148000I0J125000D01*
G01*
X87171046Y65398000D01*
G75*
G02*
X87296046Y65523000I125000J0D01*
G01*
X87296046Y65523000D01*
G75*
G02*
X87421046Y65398000I0J-125000D01*
G01*
G37*
G04 #@! TD*
D11*
G04 #@! TO.C,M9*
X46074449Y85273000D03*
X47049461Y85172995D03*
X47919218Y85273000D03*
X48649455Y85273000D03*
X49544218Y85273000D03*
X51619218Y85273000D03*
X52519214Y85273000D03*
X53229456Y85273000D03*
X54249457Y85173000D03*
X55424456Y85173000D03*
X56774455Y85173000D03*
X57949454Y85173000D03*
X58849455Y84242761D03*
X58849455Y83548002D03*
X58849455Y82867762D03*
X58754457Y82048000D03*
X58849455Y80742763D03*
X58754457Y79772998D03*
X58849455Y78498000D03*
X58849455Y77847998D03*
X58754457Y76647998D03*
X58754457Y75572994D03*
X58754457Y74697992D03*
X58849455Y73873000D03*
X58849455Y68022999D03*
G04 #@! TD*
D12*
G04 #@! TO.C,J3*
X117376000Y9973000D03*
X116276000Y9973000D03*
X115176000Y9973000D03*
X114076000Y9973000D03*
X112976000Y9973000D03*
X111876000Y9973000D03*
X110776000Y9973000D03*
X109676000Y9973000D03*
D13*
X107301000Y4273000D03*
X121051000Y4273000D03*
X107301000Y12573000D03*
X121051000Y12573000D03*
G04 #@! TD*
G04 #@! TO.C,R6*
G36*
G01*
X99991000Y84553000D02*
X100361000Y84553000D01*
G75*
G02*
X100496000Y84418000I0J-135000D01*
G01*
X100496000Y84148000D01*
G75*
G02*
X100361000Y84013000I-135000J0D01*
G01*
X99991000Y84013000D01*
G75*
G02*
X99856000Y84148000I0J135000D01*
G01*
X99856000Y84418000D01*
G75*
G02*
X99991000Y84553000I135000J0D01*
G01*
G37*
G36*
G01*
X99991000Y83533000D02*
X100361000Y83533000D01*
G75*
G02*
X100496000Y83398000I0J-135000D01*
G01*
X100496000Y83128000D01*
G75*
G02*
X100361000Y82993000I-135000J0D01*
G01*
X99991000Y82993000D01*
G75*
G02*
X99856000Y83128000I0J135000D01*
G01*
X99856000Y83398000D01*
G75*
G02*
X99991000Y83533000I135000J0D01*
G01*
G37*
G04 #@! TD*
G04 #@! TO.C,R27*
G36*
G01*
X25906000Y73338000D02*
X25906000Y73708000D01*
G75*
G02*
X26041000Y73843000I135000J0D01*
G01*
X26311000Y73843000D01*
G75*
G02*
X26446000Y73708000I0J-135000D01*
G01*
X26446000Y73338000D01*
G75*
G02*
X26311000Y73203000I-135000J0D01*
G01*
X26041000Y73203000D01*
G75*
G02*
X25906000Y73338000I0J135000D01*
G01*
G37*
G36*
G01*
X26926000Y73338000D02*
X26926000Y73708000D01*
G75*
G02*
X27061000Y73843000I135000J0D01*
G01*
X27331000Y73843000D01*
G75*
G02*
X27466000Y73708000I0J-135000D01*
G01*
X27466000Y73338000D01*
G75*
G02*
X27331000Y73203000I-135000J0D01*
G01*
X27061000Y73203000D01*
G75*
G02*
X26926000Y73338000I0J135000D01*
G01*
G37*
G04 #@! TD*
M02*
