G04 #@! TF.GenerationSoftware,KiCad,Pcbnew,(5.99.0-11247-g3f6811f413)*
G04 #@! TF.CreationDate,2021-08-13T00:10:12+03:00*
G04 #@! TF.ProjectId,hellen88bmw,68656c6c-656e-4383-9862-6d772e6b6963,rev?*
G04 #@! TF.SameCoordinates,PX3d1b110PY9269338*
G04 #@! TF.FileFunction,Profile,NP*
%FSLAX46Y46*%
G04 Gerber Fmt 4.6, Leading zero omitted, Abs format (unit mm)*
G04 Created by KiCad (PCBNEW (5.99.0-11247-g3f6811f413)) date 2021-08-13 00:10:12*
%MOMM*%
%LPD*%
G01*
G04 APERTURE LIST*
G04 #@! TA.AperFunction,Profile*
%ADD10C,0.200000*%
G04 #@! TD*
G04 #@! TA.AperFunction,Profile*
%ADD11C,0.120000*%
G04 #@! TD*
G04 APERTURE END LIST*
D10*
X14499800Y48758200D02*
X14499800Y61958200D01*
X143499800Y43758200D02*
X159999800Y43758200D01*
X159999800Y93758200D02*
X159999800Y56958200D01*
X-200Y93758200D02*
X14499800Y93758200D01*
X156999800Y117958200D02*
X159999800Y114958200D01*
X-200Y48758200D02*
X14499800Y48758200D01*
X14499800Y93758200D02*
X14499800Y106958200D01*
X159999800Y114958200D02*
X159999800Y106958200D01*
X-200Y61958200D02*
X-200Y93758200D01*
X143499800Y106958200D02*
X143499800Y93758200D01*
X143499800Y93758200D02*
X159999800Y93758200D01*
X2999800Y117958200D02*
X156999800Y117958200D01*
X14499800Y106958200D02*
X-200Y106958200D01*
X159999800Y43758200D02*
X159999800Y6000200D01*
X14499800Y61958200D02*
X-200Y61958200D01*
X159999800Y6000200D02*
X153999800Y200D01*
X-200Y6000200D02*
X-200Y48758200D01*
X143499800Y56958200D02*
X143499800Y43758200D01*
X159999800Y56958200D02*
X143499800Y56958200D01*
X159999800Y106958200D02*
X143499800Y106958200D01*
X5999800Y200D02*
X-200Y6000200D01*
X-200Y106958200D02*
X-200Y114958200D01*
X153999800Y200D02*
X5999800Y200D01*
X-200Y114958200D02*
X2999800Y117958200D01*
D11*
G04 #@! TO.C,J1*
X81379407Y12369060D02*
X81379407Y13748715D01*
X82267114Y13683079D02*
X82267114Y12303424D01*
X74084886Y12375199D02*
X74084886Y13754854D01*
X74972593Y13689218D02*
X74972593Y12309563D01*
X82267112Y13683079D02*
G75*
G03*
X81379408Y13748715I-446835J-7526D01*
G01*
X81379406Y12369060D02*
G75*
G03*
X82267113Y12303424I446837J7527D01*
G01*
X74972591Y13689218D02*
G75*
G03*
X74084887Y13754854I-446835J-7526D01*
G01*
X74084885Y12375199D02*
G75*
G03*
X74972592Y12309563I446837J7527D01*
G01*
G04 #@! TD*
M02*
