M48
; DRILL file {KiCad (5.99.0-11164-g062c4fda62)} date Wed Jul 14 15:35:39 2021
; FORMAT={2:4/ absolute / inch / suppress leading zeros}
; #@! TF.CreationDate,2021-07-14T15:35:39+03:00
; #@! TF.GenerationSoftware,Kicad,Pcbnew,(5.99.0-11164-g062c4fda62)
; #@! TF.FileFunction,MixedPlating,1,4
FMAT,2
INCH,TZ
; #@! TA.AperFunction,Plated,PTH,ComponentDrill
T1C0.0118
; #@! TA.AperFunction,Plated,PTH,ComponentDrill
T2C0.0118
; #@! TA.AperFunction,Plated,PTH,ViaDrill
T3C0.0160
; #@! TA.AperFunction,Plated,PTH,ComponentDrill
T4C0.0197
; #@! TA.AperFunction,Plated,PTH,ComponentDrill
T5C0.0276
; #@! TA.AperFunction,Plated,PTH,ComponentDrill
T6C0.0300
; #@! TA.AperFunction,Plated,PTH,ComponentDrill
T7C0.0315
; #@! TA.AperFunction,Plated,PTH,ComponentDrill
T8C0.0320
; #@! TA.AperFunction,Plated,PTH,ComponentDrill
T9C0.0394
; #@! TA.AperFunction,Plated,PTH,ComponentDrill
T10C0.1200
; #@! TA.AperFunction,Plated,PTH,ComponentDrill
T11C0.1693
; #@! TA.AperFunction,NonPlated,NPTH,ComponentDrill
T12C0.0315
; #@! TA.AperFunction,NonPlated,NPTH,ComponentDrill
T13C0.1693
%
G90
G05
T1
X419Y14550
X941Y11312
X3001Y11319
X3194Y12060
X3637Y9166
X32894Y290
X33440Y1786
X37722Y290
X43312Y290
X44613Y4478
X44819Y4822
X45115Y4359
X46512Y4389
X47176Y16234
X47176Y15466
X47176Y14443
X47604Y290
X47691Y15978
X47762Y4478
X47869Y15339
X47898Y14276
X47898Y15004
X47904Y13528
X47969Y4822
X47983Y14659
X48264Y4359
X49508Y13409
X49662Y4389
T2
X13416Y5363
X13416Y4970
X13416Y4576
X13416Y4182
X28475Y3749
X28475Y3356
X28475Y1958
X28475Y1564
T3
X31843Y7912
X33435Y4320
X35079Y4320
X35822Y3577
X38443Y30007
X39132Y29915
X43975Y7672
X46674Y1613
X46723Y2450
X46723Y2051
X47055Y7071
X47315Y18674
X47684Y19037
X48645Y19642
X49235Y19249
X49875Y19596
X50266Y10147
X50660Y10048
X50689Y18971
X55089Y21466
X55089Y20678
X55089Y19104
X55089Y18316
X55089Y17529
X55876Y41938
X55876Y41151
X55876Y40363
X55876Y39576
X55876Y38789
X55876Y38001
X55876Y37214
X55876Y22253
X55876Y21466
X55876Y20678
X55876Y19104
X55876Y18316
X55876Y17529
X56270Y36426
X56270Y35639
X56270Y34852
X56270Y34064
X56270Y32883
X56270Y32096
X56270Y31308
X56270Y30521
X56270Y28946
X56270Y28159
X56270Y27371
X56270Y26584
X56270Y25403
X56270Y24615
X56270Y23828
X56270Y23041
X56270Y16741
X56270Y15954
X56270Y15167
X56270Y14379
X56270Y13198
X56270Y12411
X56270Y11623
X56270Y10836
X56270Y9261
X56270Y8474
X56270Y7686
X56270Y6899
X56270Y5718
X56270Y4930
X56270Y4143
X56270Y3356
X56270Y2568
X56270Y1781
X56270Y993
X57057Y36426
X57057Y35639
X57057Y34852
X57057Y34064
X57057Y32883
X57057Y32096
X57057Y31308
X57057Y30521
X57057Y28946
X57057Y28159
X57057Y27371
X57057Y26584
X57057Y25403
X57057Y24615
X57057Y23828
X57057Y23041
X57057Y16741
X57057Y15954
X57057Y15167
X57057Y14379
X57057Y13198
X57057Y12411
X57057Y11623
X57057Y10836
X57057Y9261
X57057Y8474
X57057Y7686
X57057Y6899
X57057Y5718
X57057Y4930
X57057Y4143
X57057Y3356
X57057Y2568
X57057Y1781
X57057Y993
X57845Y36426
X57845Y35639
X57845Y34852
X57845Y34064
X57845Y32883
X57845Y32096
X57845Y31308
X57845Y30521
X57845Y28946
X57845Y28159
X57845Y27371
X57845Y26584
X57845Y25403
X57845Y24615
X57845Y23828
X57845Y23041
X57845Y16741
X57845Y15954
X57845Y15167
X57845Y14379
X57845Y13198
X57845Y12411
X57845Y11623
X57845Y10836
X57845Y9261
X57845Y8474
X57845Y7686
X57845Y6899
X57845Y5718
X57845Y4930
X57845Y4143
X57845Y3356
X57845Y2568
X57845Y1781
X57845Y993
X58632Y36426
X58632Y35639
X58632Y34852
X58632Y34064
X58632Y32883
X58632Y32096
X58632Y31308
X58632Y30521
X58632Y28946
X58632Y28159
X58632Y27371
X58632Y26584
X58632Y25403
X58632Y24615
X58632Y23828
X58632Y23041
X58632Y16741
X58632Y15954
X58632Y15167
X58632Y14379
X58632Y13198
X58632Y12411
X58632Y11623
X58632Y10836
X58632Y9261
X58632Y8474
X58632Y7686
X58632Y6899
X58632Y5718
X58632Y4930
X58632Y4143
X58632Y3356
X58632Y2568
X58632Y1781
X58632Y993
X59420Y36426
X59420Y35639
X59420Y34852
X59420Y34064
X59420Y32883
X59420Y32096
X59420Y31308
X59420Y30521
X59420Y28946
X59420Y28159
X59420Y27371
X59420Y26584
X59420Y25403
X59420Y24615
X59420Y23828
X59420Y23041
X59420Y16741
X59420Y15954
X59420Y15167
X59420Y14379
X59420Y13198
X59420Y12411
X59420Y11623
X59420Y10836
X59420Y9261
X59420Y8474
X59420Y7686
X59420Y6899
X59420Y5718
X59420Y4930
X59420Y4143
X59420Y3356
X59420Y2568
X59420Y1781
X59420Y993
X60207Y36426
X60207Y35639
X60207Y34852
X60207Y34064
X60207Y32883
X60207Y32096
X60207Y31308
X60207Y30521
X60207Y28946
X60207Y28159
X60207Y27371
X60207Y26584
X60207Y25403
X60207Y24615
X60207Y23828
X60207Y23041
X60207Y16741
X60207Y15954
X60207Y15167
X60207Y14379
X60207Y13198
X60207Y12411
X60207Y11623
X60207Y10836
X60207Y9261
X60207Y8474
X60207Y7686
X60207Y6899
X60207Y5718
X60207Y4930
X60207Y4143
X60207Y3356
X60207Y2568
X60207Y1781
X60207Y993
X60994Y36426
X60994Y35639
X60994Y34852
X60994Y34064
X60994Y32883
X60994Y32096
X60994Y31308
X60994Y30521
X60994Y28946
X60994Y28159
X60994Y27371
X60994Y26584
X60994Y25403
X60994Y24615
X60994Y23828
X60994Y23041
X60994Y16741
X60994Y15954
X60994Y15167
X60994Y14379
X60994Y13198
X60994Y12411
X60994Y11623
X60994Y10836
X60994Y9261
X60994Y8474
X60994Y7686
X60994Y6899
X60994Y5718
X60994Y4930
X60994Y4143
X60994Y3356
X60994Y2568
X60994Y1781
X60994Y993
X61782Y36426
X61782Y35639
X61782Y34852
X61782Y34064
X61782Y32883
X61782Y32096
X61782Y31308
X61782Y30521
X61782Y28946
X61782Y28159
X61782Y27371
X61782Y26584
X61782Y25403
X61782Y24615
X61782Y23828
X61782Y23041
X61782Y16741
X61782Y15954
X61782Y15167
X61782Y14379
X61782Y13198
X61782Y12411
X61782Y11623
X61782Y10836
X61782Y9261
X61782Y8474
X61782Y7686
X61782Y6899
X61782Y5718
X61782Y4930
X61782Y4143
X61782Y3356
X61782Y2568
X61782Y1781
X62569Y36426
X62569Y35639
X62569Y34852
X62569Y34064
X62569Y32883
X62569Y32096
X62569Y31308
X62569Y30521
X62569Y28946
X62569Y28159
X62569Y27371
X62569Y26584
X62569Y25403
X62569Y24615
X62569Y23828
X62569Y23041
X62569Y16741
X62569Y15954
X62569Y15167
X62569Y14379
X62569Y13198
X62569Y12411
X62569Y11623
X62569Y10836
X62569Y9261
X62569Y8474
X62569Y7686
X62569Y6899
X62569Y5718
X62569Y4930
X62569Y4143
X62569Y3356
X62569Y2568
T4
X-44025Y-14263
X-43927Y-7471
X-43927Y-8652
X-33097Y50220
X-33097Y49020
X-33097Y47819
X-33097Y46618
X-31778Y50102
X-31778Y48901
X-31778Y47701
X-31778Y46500
X-30605Y51303
X-30459Y50102
X-30459Y48901
X-30459Y47701
X-30459Y46500
X-29286Y51303
X-29140Y50102
X-29140Y48901
X-29140Y47701
X-29140Y46500
X-27967Y51303
X-27821Y50102
X-27821Y48901
X-27821Y47701
X-27821Y46500
X-26648Y51303
X-26502Y50102
X-26502Y48901
X-26502Y47701
X-25329Y51303
X-25183Y50102
X-25183Y48901
X-24010Y51303
X-23865Y50102
X6270Y39576
X7550Y39576
X10798Y-2648
X10994Y-5503
X15680Y8356
X16998Y39576
X17746Y9241
X18475Y-6192
X19065Y29635
X19656Y39576
X19754Y29635
X20109Y10127
X20739Y29635
X21231Y39576
X21428Y29635
X22117Y29635
X22176Y10029
X22806Y39576
X23396Y38001
X24085Y39576
X24085Y10344
X24676Y38001
X24774Y15265
X25266Y39576
X25857Y38001
X26447Y39576
X26447Y10718
X26447Y9537
X26447Y8356
X27038Y38001
X27038Y11210
X27038Y10127
X27038Y8946
X27727Y39576
X28317Y38001
X28908Y39576
X29498Y38001
X30187Y39576
X30778Y6879
X31270Y7568
X31455Y26076
X31455Y25387
X31455Y24694
X31762Y6879
X32833Y31293
X33030Y26765
X33030Y26076
X33030Y25387
X33227Y29422
X33227Y28733
X33916Y31391
X34703Y31391
X35404Y39576
X35491Y31391
X35687Y24206
X35798Y6210
X35983Y31391
X36290Y39576
X36290Y6899
X36475Y31391
X36782Y6210
X37274Y6899
X38443Y30899
X38554Y39576
X39132Y30899
X41002Y30899
X41790Y30899
X41998Y7293
X41998Y6308
X42577Y30899
X42687Y6800
X42687Y5816
X43365Y30899
X44164Y39576
X45542Y39576
X47018Y39576
X54695Y39576
X54695Y38296
X74183Y18611
X79892Y10954
X79892Y9753
X79892Y8552
X79892Y7352
X81211Y10954
X81211Y9753
X81211Y8552
X81211Y7352
X82530Y10954
X82530Y9753
X83849Y9753
X83849Y8552
X83849Y7352
X85168Y9753
X86487Y10954
X86487Y9753
T5
X29744Y3159
X29744Y2529
X30433Y3474
X30433Y2844
X30433Y2214
T6
X10686Y43940
X11572Y41479
X11670Y43940
X12654Y43940
X12851Y41479
X13639Y43940
X14131Y41479
X14623Y43940
X15410Y41479
X15607Y43940
X16591Y43940
X16690Y41479
X17576Y43940
X17969Y41479
X18560Y43940
X19249Y41479
X19544Y43940
X20529Y43940
X20529Y41479
X21513Y43940
X21808Y41479
X22399Y43644
X23088Y44235
X23088Y41479
X23678Y43644
X24367Y44235
X24367Y41479
X24958Y43644
X25647Y44235
X25647Y41479
X26237Y43644
X26926Y44235
X26926Y41479
X27517Y43644
X28206Y44235
X28206Y41479
X28796Y43644
X29485Y44235
X29485Y41479
X30076Y43644
X30765Y44235
X30765Y41479
X31355Y43644
X32044Y44235
X32044Y41479
X32635Y43644
X33324Y44235
X33324Y41479
X33914Y43644
X34603Y44235
X34603Y41479
X35194Y43644
X35883Y44235
X35883Y41479
X36473Y43644
X37162Y44235
X37162Y41479
X37753Y43644
X38442Y44235
X38442Y41479
X39032Y43644
X39721Y44235
X39721Y41479
X40312Y43644
X41001Y41479
X41296Y43940
X42280Y43940
X42280Y41479
X43265Y43940
X43560Y41479
X44249Y43940
X44840Y41479
X45233Y43940
X46119Y41479
X46217Y43940
X47202Y43940
X47399Y41479
X48186Y43940
X48678Y41479
X49170Y43940
X49958Y41479
X50154Y43940
X51139Y43940
X51237Y41479
X52123Y43940
X52517Y41479
X53107Y43940
X54091Y43940
T7
X31861Y4812
X31861Y4025
X31861Y3237
X31861Y2450
X31861Y1663
T8
X-33259Y51387
X-31759Y51387
X4853Y10480
X5853Y10480
X6853Y10480
X7853Y10480
X8632Y39539
X8632Y38039
X8853Y10480
X9715Y39539
X9715Y38039
X9853Y10480
X10798Y39539
X10798Y38039
X11880Y39539
X11880Y38039
X12963Y39539
X12963Y38039
X14046Y39539
X14046Y38039
X15128Y39539
X15128Y38039
X16211Y39539
X16211Y38039
X17786Y39539
X17786Y38039
X18869Y39539
X18869Y38039
X20443Y39539
X20443Y38039
X22018Y39539
X22018Y38039
X30680Y36586
X30680Y35086
X31369Y39539
X31369Y38039
X31664Y36586
X31664Y35086
X32451Y39539
X32451Y38039
X33042Y36586
X33042Y35086
X33534Y39539
X33534Y38039
X34124Y36586
X34124Y35086
X34617Y39539
X34617Y38039
X35207Y36586
X35207Y35086
X36290Y36586
X36290Y35086
X37372Y36586
X37372Y35086
X37766Y39539
X37766Y38039
X38652Y36586
X38652Y35086
X39735Y39539
X39735Y38039
X42589Y36586
X42589Y35086
X43672Y36586
X43672Y35086
X44754Y36586
X44754Y35086
X45837Y36586
X45837Y35086
X46920Y36586
X46920Y35086
X48002Y36586
X48002Y35086
X49085Y36586
X49085Y35086
X49479Y39539
X49479Y38039
X50168Y36586
X50168Y35086
X51152Y39539
X51152Y38039
X51250Y36586
X51250Y35086
X52235Y39539
X52235Y38039
X53514Y39539
X53514Y38039
T9
X597Y35997
X597Y34997
X597Y33997
X597Y32997
X597Y31997
X597Y30997
X597Y29997
X597Y28997
X597Y27997
X597Y26997
X597Y25997
X597Y24997
X1565Y35997
X1565Y34997
X1565Y33997
X1565Y32997
X1565Y31997
X1565Y30997
X1565Y29997
X1565Y28997
X1565Y27997
X1565Y26997
X1565Y25997
X1565Y24997
X2597Y35997
X2597Y34997
X2597Y33997
X2597Y32997
X2597Y31997
X2597Y30997
X2597Y29997
X2597Y28997
X2597Y27997
X2597Y26997
X2597Y25997
X2597Y24997
X3597Y35997
X3597Y34997
X3597Y33997
X3597Y32997
X3597Y31997
X3597Y30997
X3597Y29997
X3597Y28997
X3597Y27997
X3597Y26997
X3597Y25997
X3597Y24997
X4597Y35997
X4597Y34997
X4597Y33997
X4597Y32997
X4597Y31997
X4597Y30997
X4597Y29997
X4597Y28997
X4597Y27997
X4597Y26997
X4597Y25997
X4597Y24997
X5597Y35997
X5597Y34997
X5597Y33997
X5597Y32997
X5597Y31997
X5597Y30997
X5597Y29997
X5597Y28997
X5597Y27997
X5597Y26997
X5597Y25997
X5597Y24997
X6597Y35997
X6597Y34997
X6597Y33997
X6597Y32997
X6597Y31997
X6597Y30997
X6597Y29997
X6597Y28997
X6597Y27997
X6597Y26997
X6597Y25997
X6597Y24997
X7597Y35997
X7597Y34997
X7597Y33997
X7597Y32997
X7597Y31997
X7597Y30997
X7597Y29997
X7597Y28997
X7597Y27997
X7597Y26997
X7597Y25997
X7597Y24997
X8597Y35997
X8597Y34997
X8597Y33997
X8597Y32997
X8597Y31997
X8597Y30997
X8597Y29997
X8597Y28997
X8597Y27997
X8597Y26997
X8597Y25997
X8597Y24997
X9636Y28997
X9636Y27997
X9636Y26997
X9636Y25997
X9636Y24997
T10
X2853Y5480
X11853Y5480
T11
X3005Y44825
X60371Y44727
T12
X33829Y4320
X36487Y4320
T13
X2926Y2230
X51426Y2230
T5
X29833Y4281G85X30345Y4281
G05
X29833Y1407G85X30345Y1407
G05
T9
X6743Y21623G85X6743Y22017
G05
X7687Y22411G85X7687Y22804
G05
X9144Y21623G85X9144Y22017
G05
X9853Y22411G85X9853Y22804
G05
X11309Y21623G85X11309Y22017
G05
T0
M30
