G04 #@! TF.GenerationSoftware,KiCad,Pcbnew,(5.99.0-11164-g062c4fda62)*
G04 #@! TF.CreationDate,2021-07-14T15:35:42+03:00*
G04 #@! TF.ProjectId,hellen88bmw,68656c6c-656e-4383-9862-6d772e6b6963,rev?*
G04 #@! TF.SameCoordinates,PX3d1b110PY9269338*
G04 #@! TF.FileFunction,Soldermask,Top*
G04 #@! TF.FilePolarity,Negative*
%FSLAX46Y46*%
G04 Gerber Fmt 4.6, Leading zero omitted, Abs format (unit mm)*
G04 Created by KiCad (PCBNEW (5.99.0-11164-g062c4fda62)) date 2021-07-14 15:35:42*
%MOMM*%
%LPD*%
G01*
G04 APERTURE LIST*
%ADD10C,6.000000*%
%ADD11C,1.524000*%
%ADD12R,1.397000X0.889000*%
%ADD13R,0.203200X1.524000*%
%ADD14R,2.200000X1.200000*%
%ADD15R,6.400000X5.800000*%
%ADD16R,1.700000X1.700000*%
%ADD17O,1.700000X1.700000*%
%ADD18C,4.300000*%
%ADD19R,0.850000X0.850000*%
%ADD20C,1.000000*%
%ADD21C,0.800000*%
%ADD22R,0.900000X1.700000*%
%ADD23R,0.900000X0.400000*%
%ADD24R,1.350000X1.350000*%
%ADD25O,1.350000X1.350000*%
%ADD26R,1.100000X1.100000*%
%ADD27C,1.100000*%
%ADD28O,2.400000X1.100000*%
%ADD29O,0.250000X0.499999*%
%ADD30O,0.499999X0.250000*%
%ADD31C,0.599999*%
%ADD32O,0.250000X0.500000*%
%ADD33O,0.500000X0.250000*%
%ADD34O,1.800000X2.800000*%
%ADD35C,3.302000*%
%ADD36O,1.000001X1.500000*%
%ADD37O,0.800001X0.599999*%
%ADD38R,1.524000X0.203200*%
%ADD39R,0.889000X1.397000*%
%ADD40O,0.499999X1.000001*%
%ADD41O,0.499999X0.200000*%
%ADD42O,0.200000X0.399999*%
G04 APERTURE END LIST*
D10*
G04 #@! TO.C,\u002Aref1*
X7632400Y113856400D03*
X153342400Y113606400D03*
D11*
X27142400Y111606400D03*
X32142400Y111606400D03*
X37142400Y111606400D03*
X42142400Y111606400D03*
X47142400Y111606400D03*
X52142400Y111606400D03*
X56892400Y110856400D03*
X60142400Y110856400D03*
X63392400Y110856400D03*
X66642400Y110856400D03*
X69892400Y110856400D03*
X73142400Y110856400D03*
X76392400Y110856400D03*
X79642400Y110856400D03*
X82892400Y110856400D03*
X86142400Y110856400D03*
X89392400Y110856400D03*
X92642400Y110856400D03*
X95892400Y110856400D03*
X99142400Y110856400D03*
X102392400Y110856400D03*
X107392400Y111606400D03*
X112392400Y111606400D03*
X117392400Y111606400D03*
X122392400Y111606400D03*
X127392400Y111606400D03*
X132392400Y111606400D03*
X137392400Y111606400D03*
X29642400Y111606400D03*
X34642400Y111606400D03*
X39642400Y111606400D03*
X44642400Y111606400D03*
X49642400Y111606400D03*
X54642400Y111606400D03*
X58642400Y112356400D03*
X61892400Y112356400D03*
X65142400Y112356400D03*
X68392400Y112356400D03*
X71642400Y112356400D03*
X74892400Y112356400D03*
X78142400Y112356400D03*
X81392400Y112356400D03*
X84642400Y112356400D03*
X87892400Y112356400D03*
X91142400Y112356400D03*
X94392400Y112356400D03*
X97642400Y112356400D03*
X100892400Y112356400D03*
X104892400Y111606400D03*
X109892400Y111606400D03*
X114892400Y111606400D03*
X119892400Y111606400D03*
X124892400Y111606400D03*
X129892400Y111606400D03*
X134892400Y111606400D03*
X29392400Y105356400D03*
X32642400Y105356400D03*
X35892400Y105356400D03*
X39142400Y105356400D03*
X42392400Y105356400D03*
X45642400Y105356400D03*
X48892400Y105356400D03*
X52142400Y105356400D03*
X55392400Y105356400D03*
X58642400Y105356400D03*
X61892400Y105356400D03*
X65142400Y105356400D03*
X68392400Y105356400D03*
X71642400Y105356400D03*
X74892400Y105356400D03*
X78142400Y105356400D03*
X81392400Y105356400D03*
X84642400Y105356400D03*
X87892400Y105356400D03*
X91142400Y105356400D03*
X94392400Y105356400D03*
X97642400Y105356400D03*
X100892400Y105356400D03*
X104142400Y105356400D03*
X107392400Y105356400D03*
X110642400Y105356400D03*
X113892400Y105356400D03*
X117142400Y105356400D03*
X120392400Y105356400D03*
X123642400Y105356400D03*
X126892400Y105356400D03*
X130142400Y105356400D03*
X133392400Y105356400D03*
G04 #@! TD*
D12*
G04 #@! TO.C,JP1*
X21926000Y99475500D03*
D11*
X21926000Y100428000D03*
D13*
X21926000Y99793000D03*
X21926000Y97253000D03*
D11*
X21926000Y96618000D03*
D12*
X21926000Y97570500D03*
G04 #@! TD*
G04 #@! TO.C,JP3*
X30176000Y99475500D03*
D11*
X30176000Y100428000D03*
D13*
X30176000Y99793000D03*
D11*
X30176000Y96618000D03*
D13*
X30176000Y97253000D03*
D12*
X30176000Y97570500D03*
G04 #@! TD*
G04 #@! TO.C,JP4*
X35676000Y99475500D03*
D11*
X35676000Y100428000D03*
D13*
X35676000Y99793000D03*
D12*
X35676000Y97570500D03*
D11*
X35676000Y96618000D03*
D13*
X35676000Y97253000D03*
G04 #@! TD*
G04 #@! TO.C,JP5*
X45176000Y99793000D03*
D11*
X45176000Y100428000D03*
D12*
X45176000Y99475500D03*
D13*
X45176000Y97253000D03*
D12*
X45176000Y97570500D03*
D11*
X45176000Y96618000D03*
G04 #@! TD*
G04 #@! TO.C,JP7*
X51926000Y100428000D03*
D12*
X51926000Y99475500D03*
D13*
X51926000Y99793000D03*
D12*
X51926000Y97570500D03*
D13*
X51926000Y97253000D03*
D11*
X51926000Y96618000D03*
G04 #@! TD*
D12*
G04 #@! TO.C,JP14*
X79676000Y99475500D03*
D11*
X79676000Y100428000D03*
D13*
X79676000Y99793000D03*
D12*
X79676000Y97570500D03*
D13*
X79676000Y97253000D03*
D11*
X79676000Y96618000D03*
G04 #@! TD*
D13*
G04 #@! TO.C,JP16*
X85176000Y99793000D03*
D11*
X85176000Y100428000D03*
D12*
X85176000Y99475500D03*
X85176000Y97570500D03*
D11*
X85176000Y96618000D03*
D13*
X85176000Y97253000D03*
G04 #@! TD*
G04 #@! TO.C,JP17*
X87926000Y99793000D03*
D12*
X87926000Y99475500D03*
D11*
X87926000Y100428000D03*
D12*
X87926000Y97570500D03*
D13*
X87926000Y97253000D03*
D11*
X87926000Y96618000D03*
G04 #@! TD*
D13*
G04 #@! TO.C,JP20*
X94926000Y92293000D03*
D12*
X94926000Y91975500D03*
D11*
X94926000Y92928000D03*
D12*
X94926000Y90070500D03*
D13*
X94926000Y89753000D03*
D11*
X94926000Y89118000D03*
G04 #@! TD*
D13*
G04 #@! TO.C,JP21*
X98176000Y92293000D03*
D12*
X98176000Y91975500D03*
D11*
X98176000Y92928000D03*
X98176000Y89118000D03*
D13*
X98176000Y89753000D03*
D12*
X98176000Y90070500D03*
G04 #@! TD*
D11*
G04 #@! TO.C,JP22*
X110926000Y92928000D03*
D12*
X110926000Y91975500D03*
D13*
X110926000Y92293000D03*
D11*
X110926000Y89118000D03*
D12*
X110926000Y90070500D03*
D13*
X110926000Y89753000D03*
G04 #@! TD*
D12*
G04 #@! TO.C,JP23*
X116426000Y91975500D03*
D13*
X116426000Y92293000D03*
D11*
X116426000Y92928000D03*
X116426000Y89118000D03*
D13*
X116426000Y89753000D03*
D12*
X116426000Y90070500D03*
G04 #@! TD*
G04 #@! TO.C,JP24*
X121926000Y91975500D03*
D13*
X121926000Y92293000D03*
D11*
X121926000Y92928000D03*
X121926000Y89118000D03*
D12*
X121926000Y90070500D03*
D13*
X121926000Y89753000D03*
G04 #@! TD*
G04 #@! TO.C,JP25*
X125676000Y99793000D03*
D12*
X125676000Y99475500D03*
D11*
X125676000Y100428000D03*
X125676000Y96618000D03*
D12*
X125676000Y97570500D03*
D13*
X125676000Y97253000D03*
G04 #@! TD*
D11*
G04 #@! TO.C,JP26*
X129926000Y100428000D03*
D13*
X129926000Y99793000D03*
D12*
X129926000Y99475500D03*
D13*
X129926000Y97253000D03*
D11*
X129926000Y96618000D03*
D12*
X129926000Y97570500D03*
G04 #@! TD*
D11*
G04 #@! TO.C,JP27*
X135926000Y100428000D03*
D12*
X135926000Y99475500D03*
D13*
X135926000Y99793000D03*
D12*
X135926000Y97570500D03*
D11*
X135926000Y96618000D03*
D13*
X135926000Y97253000D03*
G04 #@! TD*
D12*
G04 #@! TO.C,JP29*
X24676000Y99475500D03*
D11*
X24676000Y100428000D03*
D13*
X24676000Y99793000D03*
D11*
X24676000Y96618000D03*
D13*
X24676000Y97253000D03*
D12*
X24676000Y97570500D03*
G04 #@! TD*
G04 #@! TO.C,JP31*
X32926000Y99475500D03*
D11*
X32926000Y100428000D03*
D13*
X32926000Y99793000D03*
D11*
X32926000Y96618000D03*
D12*
X32926000Y97570500D03*
D13*
X32926000Y97253000D03*
G04 #@! TD*
D12*
G04 #@! TO.C,JP32*
X41176000Y99475500D03*
D11*
X41176000Y100428000D03*
D13*
X41176000Y99793000D03*
D11*
X41176000Y96618000D03*
D12*
X41176000Y97570500D03*
D13*
X41176000Y97253000D03*
G04 #@! TD*
D12*
G04 #@! TO.C,JP33*
X47926000Y99475500D03*
D13*
X47926000Y99793000D03*
D11*
X47926000Y100428000D03*
D13*
X47926000Y97253000D03*
D12*
X47926000Y97570500D03*
D11*
X47926000Y96618000D03*
G04 #@! TD*
G04 #@! TO.C,JP35*
X55926000Y100428000D03*
D13*
X55926000Y99793000D03*
D12*
X55926000Y99475500D03*
D13*
X55926000Y97253000D03*
D12*
X55926000Y97570500D03*
D11*
X55926000Y96618000D03*
G04 #@! TD*
D12*
G04 #@! TO.C,JP41*
X77926000Y91975500D03*
D13*
X77926000Y92293000D03*
D11*
X77926000Y92928000D03*
D12*
X77926000Y90070500D03*
D11*
X77926000Y89118000D03*
D13*
X77926000Y89753000D03*
G04 #@! TD*
D12*
G04 #@! TO.C,JP42*
X80426000Y91975500D03*
D13*
X80426000Y92293000D03*
D11*
X80426000Y92928000D03*
D12*
X80426000Y90070500D03*
D13*
X80426000Y89753000D03*
D11*
X80426000Y89118000D03*
G04 #@! TD*
G04 #@! TO.C,JP43*
X82426000Y100428000D03*
D13*
X82426000Y99793000D03*
D12*
X82426000Y99475500D03*
D11*
X82426000Y96618000D03*
D13*
X82426000Y97253000D03*
D12*
X82426000Y97570500D03*
G04 #@! TD*
D13*
G04 #@! TO.C,JP44*
X86676000Y92293000D03*
D11*
X86676000Y92928000D03*
D12*
X86676000Y91975500D03*
D13*
X86676000Y89753000D03*
D12*
X86676000Y90070500D03*
D11*
X86676000Y89118000D03*
G04 #@! TD*
D12*
G04 #@! TO.C,JP46*
X89426000Y91975500D03*
D11*
X89426000Y92928000D03*
D13*
X89426000Y92293000D03*
D11*
X89426000Y89118000D03*
D13*
X89426000Y89753000D03*
D12*
X89426000Y90070500D03*
G04 #@! TD*
D13*
G04 #@! TO.C,JP47*
X92176000Y92293000D03*
D12*
X92176000Y91975500D03*
D11*
X92176000Y92928000D03*
D12*
X92176000Y90070500D03*
D13*
X92176000Y89753000D03*
D11*
X92176000Y89118000D03*
G04 #@! TD*
G04 #@! TO.C,JP50*
X113676000Y92928000D03*
D13*
X113676000Y92293000D03*
D12*
X113676000Y91975500D03*
D11*
X113676000Y89118000D03*
D12*
X113676000Y90070500D03*
D13*
X113676000Y89753000D03*
G04 #@! TD*
D12*
G04 #@! TO.C,JP51*
X119176000Y91975500D03*
D11*
X119176000Y92928000D03*
D13*
X119176000Y92293000D03*
D11*
X119176000Y89118000D03*
D13*
X119176000Y89753000D03*
D12*
X119176000Y90070500D03*
G04 #@! TD*
G04 #@! TO.C,JP52*
X124676000Y91975500D03*
D13*
X124676000Y92293000D03*
D11*
X124676000Y92928000D03*
D13*
X124676000Y89753000D03*
D12*
X124676000Y90070500D03*
D11*
X124676000Y89118000D03*
G04 #@! TD*
D13*
G04 #@! TO.C,JP54*
X132676000Y99793000D03*
D12*
X132676000Y99475500D03*
D11*
X132676000Y100428000D03*
X132676000Y96618000D03*
D13*
X132676000Y97253000D03*
D12*
X132676000Y97570500D03*
G04 #@! TD*
G04 #@! TO.C,JP56*
X27426000Y99475500D03*
D11*
X27426000Y100428000D03*
D13*
X27426000Y99793000D03*
D12*
X27426000Y97570500D03*
D13*
X27426000Y97253000D03*
D11*
X27426000Y96618000D03*
G04 #@! TD*
D13*
G04 #@! TO.C,JP73*
X83926000Y92293000D03*
D11*
X83926000Y92928000D03*
D12*
X83926000Y91975500D03*
D13*
X83926000Y89753000D03*
D11*
X83926000Y89118000D03*
D12*
X83926000Y90070500D03*
G04 #@! TD*
D11*
G04 #@! TO.C,JP77*
X95926000Y100428000D03*
D13*
X95926000Y99793000D03*
D12*
X95926000Y99475500D03*
X95926000Y97570500D03*
D11*
X95926000Y96618000D03*
D13*
X95926000Y97253000D03*
G04 #@! TD*
D11*
G04 #@! TO.C,JP78*
X100926000Y100428000D03*
D12*
X100926000Y99475500D03*
D13*
X100926000Y99793000D03*
D11*
X100926000Y96618000D03*
D12*
X100926000Y97570500D03*
D13*
X100926000Y97253000D03*
G04 #@! TD*
D12*
G04 #@! TO.C,JP85*
X130176000Y91975500D03*
D13*
X130176000Y92293000D03*
D11*
X130176000Y92928000D03*
D12*
X130176000Y90070500D03*
D11*
X130176000Y89118000D03*
D13*
X130176000Y89753000D03*
G04 #@! TD*
G04 #@! TO.C,JP86*
X127426000Y92293000D03*
D12*
X127426000Y91975500D03*
D11*
X127426000Y92928000D03*
D12*
X127426000Y90070500D03*
D13*
X127426000Y89753000D03*
D11*
X127426000Y89118000D03*
G04 #@! TD*
D13*
G04 #@! TO.C,JP59*
X38426000Y99793000D03*
D11*
X38426000Y100428000D03*
D12*
X38426000Y99475500D03*
D13*
X38426000Y97253000D03*
D11*
X38426000Y96618000D03*
D12*
X38426000Y97570500D03*
G04 #@! TD*
D13*
G04 #@! TO.C,JP49*
X108176000Y92293000D03*
D12*
X108176000Y91975500D03*
D11*
X108176000Y92928000D03*
D12*
X108176000Y90070500D03*
D11*
X108176000Y89118000D03*
D13*
X108176000Y89753000D03*
G04 #@! TD*
D14*
G04 #@! TO.C,Q1*
X139726000Y32303000D03*
D15*
X146026000Y30023000D03*
D14*
X139726000Y27743000D03*
G04 #@! TD*
G04 #@! TO.C,Q6*
X139726000Y92303000D03*
D15*
X146026000Y90023000D03*
D14*
X139726000Y87743000D03*
G04 #@! TD*
G04 #@! TO.C,Q2*
X139726000Y42303000D03*
D15*
X146026000Y40023000D03*
D14*
X139726000Y37743000D03*
G04 #@! TD*
G04 #@! TO.C,Q5*
X139726000Y82303000D03*
D15*
X146026000Y80023000D03*
D14*
X139726000Y77743000D03*
G04 #@! TD*
G04 #@! TO.C,Q3*
X139726000Y62803000D03*
D15*
X146026000Y60523000D03*
D14*
X139726000Y58243000D03*
G04 #@! TD*
G04 #@! TO.C,Q4*
X139726000Y72803000D03*
D15*
X146026000Y70523000D03*
D14*
X139726000Y68243000D03*
G04 #@! TD*
D16*
G04 #@! TO.C,J4*
X24476000Y73653000D03*
D17*
X24476000Y71113000D03*
X24476000Y68573000D03*
X24476000Y66033000D03*
X24476000Y63493000D03*
G04 #@! TD*
D16*
G04 #@! TO.C,J5*
X1516000Y91433000D03*
D17*
X1516000Y88893000D03*
X1516000Y86353000D03*
X1516000Y83813000D03*
X1516000Y81273000D03*
X1516000Y78733000D03*
X1516000Y76193000D03*
X1516000Y73653000D03*
X1516000Y71113000D03*
X1516000Y68573000D03*
X1516000Y66033000D03*
X1516000Y63493000D03*
G04 #@! TD*
D16*
G04 #@! TO.C,J6*
X3976001Y91433000D03*
D17*
X3976001Y88893000D03*
X3976001Y86353000D03*
X3976001Y83813000D03*
X3976001Y81273000D03*
X3976001Y78733000D03*
X3976001Y76193000D03*
X3976001Y73653000D03*
X3976001Y71113000D03*
X3976001Y68573000D03*
X3976001Y66033000D03*
X3976001Y63493000D03*
G04 #@! TD*
D16*
G04 #@! TO.C,J7*
X6596000Y91433000D03*
D17*
X6596000Y88893000D03*
X6596000Y86353000D03*
X6596000Y83813000D03*
X6596000Y81273000D03*
X6596000Y78733000D03*
X6596000Y76193000D03*
X6596000Y73653000D03*
X6596000Y71113000D03*
X6596000Y68573000D03*
X6596000Y66033000D03*
X6596000Y63493000D03*
G04 #@! TD*
D16*
G04 #@! TO.C,J8*
X9136000Y91433000D03*
D17*
X9136000Y88893000D03*
X9136000Y86353000D03*
X9136000Y83813000D03*
X9136000Y81273000D03*
X9136000Y78733000D03*
X9136000Y76193000D03*
X9136000Y73653000D03*
X9136000Y71113000D03*
X9136000Y68573000D03*
X9136000Y66033000D03*
X9136000Y63493000D03*
G04 #@! TD*
D16*
G04 #@! TO.C,J9*
X11676000Y91433000D03*
D17*
X11676000Y88893000D03*
X11676000Y86353000D03*
X11676000Y83813000D03*
X11676000Y81273000D03*
X11676000Y78733000D03*
X11676000Y76193000D03*
X11676000Y73653000D03*
X11676000Y71113000D03*
X11676000Y68573000D03*
X11676000Y66033000D03*
X11676000Y63493000D03*
G04 #@! TD*
D16*
G04 #@! TO.C,J10*
X14216000Y91433000D03*
D17*
X14216000Y88893000D03*
X14216000Y86353000D03*
X14216000Y83813000D03*
X14216000Y81273000D03*
X14216000Y78733000D03*
X14216000Y76193000D03*
X14216000Y73653000D03*
X14216000Y71113000D03*
X14216000Y68573000D03*
X14216000Y66033000D03*
X14216000Y63493000D03*
G04 #@! TD*
D16*
G04 #@! TO.C,J11*
X16756000Y91433000D03*
D17*
X16756000Y88893000D03*
X16756000Y86353000D03*
X16756000Y83813000D03*
X16756000Y81273000D03*
X16756000Y78733000D03*
X16756000Y76193000D03*
X16756000Y73653000D03*
X16756000Y71113000D03*
X16756000Y68573000D03*
X16756000Y66033000D03*
X16756000Y63493000D03*
G04 #@! TD*
D16*
G04 #@! TO.C,J12*
X19296000Y91433000D03*
D17*
X19296000Y88893000D03*
X19296000Y86353000D03*
X19296000Y83813000D03*
X19296000Y81273000D03*
X19296000Y78733000D03*
X19296000Y76193000D03*
X19296000Y73653000D03*
X19296000Y71113000D03*
X19296000Y68573000D03*
X19296000Y66033000D03*
X19296000Y63493000D03*
G04 #@! TD*
D16*
G04 #@! TO.C,J13*
X21836000Y91433000D03*
D17*
X21836000Y88893000D03*
X21836000Y86353000D03*
X21836000Y83813000D03*
X21836000Y81273000D03*
X21836000Y78733000D03*
X21836000Y76193000D03*
X21836000Y73653000D03*
X21836000Y71113000D03*
X21836000Y68573000D03*
X21836000Y66033000D03*
X21836000Y63493000D03*
G04 #@! TD*
D18*
G04 #@! TO.C,H1*
X130622000Y5663000D03*
G04 #@! TD*
G04 #@! TO.C,H2*
X7432000Y5663000D03*
G04 #@! TD*
G04 #@! TO.C,R1*
G36*
G01*
X91201000Y8198000D02*
X91201000Y8748000D01*
G75*
G02*
X91401000Y8948000I200000J0D01*
G01*
X91801000Y8948000D01*
G75*
G02*
X92001000Y8748000I0J-200000D01*
G01*
X92001000Y8198000D01*
G75*
G02*
X91801000Y7998000I-200000J0D01*
G01*
X91401000Y7998000D01*
G75*
G02*
X91201000Y8198000I0J200000D01*
G01*
G37*
G36*
G01*
X92851000Y8198000D02*
X92851000Y8748000D01*
G75*
G02*
X93051000Y8948000I200000J0D01*
G01*
X93451000Y8948000D01*
G75*
G02*
X93651000Y8748000I0J-200000D01*
G01*
X93651000Y8198000D01*
G75*
G02*
X93451000Y7998000I-200000J0D01*
G01*
X93051000Y7998000D01*
G75*
G02*
X92851000Y8198000I0J200000D01*
G01*
G37*
G04 #@! TD*
G04 #@! TO.C,D14*
G36*
G01*
X-94299000Y92516750D02*
X-94299000Y93029250D01*
G75*
G02*
X-94080250Y93248000I218750J0D01*
G01*
X-93642750Y93248000D01*
G75*
G02*
X-93424000Y93029250I0J-218750D01*
G01*
X-93424000Y92516750D01*
G75*
G02*
X-93642750Y92298000I-218750J0D01*
G01*
X-94080250Y92298000D01*
G75*
G02*
X-94299000Y92516750I0J218750D01*
G01*
G37*
G36*
G01*
X-92724000Y92516750D02*
X-92724000Y93029250D01*
G75*
G02*
X-92505250Y93248000I218750J0D01*
G01*
X-92067750Y93248000D01*
G75*
G02*
X-91849000Y93029250I0J-218750D01*
G01*
X-91849000Y92516750D01*
G75*
G02*
X-92067750Y92298000I-218750J0D01*
G01*
X-92505250Y92298000D01*
G75*
G02*
X-92724000Y92516750I0J218750D01*
G01*
G37*
G04 #@! TD*
G04 #@! TO.C,R10*
G36*
G01*
X137601000Y17448000D02*
X134751000Y17448000D01*
G75*
G02*
X134501000Y17698000I0J250000D01*
G01*
X134501000Y18423000D01*
G75*
G02*
X134751000Y18673000I250000J0D01*
G01*
X137601000Y18673000D01*
G75*
G02*
X137851000Y18423000I0J-250000D01*
G01*
X137851000Y17698000D01*
G75*
G02*
X137601000Y17448000I-250000J0D01*
G01*
G37*
G36*
G01*
X137601000Y23373000D02*
X134751000Y23373000D01*
G75*
G02*
X134501000Y23623000I0J250000D01*
G01*
X134501000Y24348000D01*
G75*
G02*
X134751000Y24598000I250000J0D01*
G01*
X137601000Y24598000D01*
G75*
G02*
X137851000Y24348000I0J-250000D01*
G01*
X137851000Y23623000D01*
G75*
G02*
X137601000Y23373000I-250000J0D01*
G01*
G37*
G04 #@! TD*
D19*
G04 #@! TO.C,VOUT18*
X202926000Y21723000D03*
G04 #@! TD*
G04 #@! TO.C,D23*
G36*
G01*
X-93799000Y76096750D02*
X-93799000Y76609250D01*
G75*
G02*
X-93580250Y76828000I218750J0D01*
G01*
X-93142750Y76828000D01*
G75*
G02*
X-92924000Y76609250I0J-218750D01*
G01*
X-92924000Y76096750D01*
G75*
G02*
X-93142750Y75878000I-218750J0D01*
G01*
X-93580250Y75878000D01*
G75*
G02*
X-93799000Y76096750I0J218750D01*
G01*
G37*
G36*
G01*
X-92224000Y76096750D02*
X-92224000Y76609250D01*
G75*
G02*
X-92005250Y76828000I218750J0D01*
G01*
X-91567750Y76828000D01*
G75*
G02*
X-91349000Y76609250I0J-218750D01*
G01*
X-91349000Y76096750D01*
G75*
G02*
X-91567750Y75878000I-218750J0D01*
G01*
X-92005250Y75878000D01*
G75*
G02*
X-92224000Y76096750I0J218750D01*
G01*
G37*
G04 #@! TD*
G04 #@! TO.C,VOUT27*
X-64336000Y130309530D03*
G04 #@! TD*
G04 #@! TO.C,VIN16*
X84396002Y74733003D03*
G04 #@! TD*
G04 #@! TO.C,D25*
G36*
G01*
X-97799000Y54946750D02*
X-97799000Y55459250D01*
G75*
G02*
X-97580250Y55678000I218750J0D01*
G01*
X-97142750Y55678000D01*
G75*
G02*
X-96924000Y55459250I0J-218750D01*
G01*
X-96924000Y54946750D01*
G75*
G02*
X-97142750Y54728000I-218750J0D01*
G01*
X-97580250Y54728000D01*
G75*
G02*
X-97799000Y54946750I0J218750D01*
G01*
G37*
G36*
G01*
X-96224000Y54946750D02*
X-96224000Y55459250D01*
G75*
G02*
X-96005250Y55678000I218750J0D01*
G01*
X-95567750Y55678000D01*
G75*
G02*
X-95349000Y55459250I0J-218750D01*
G01*
X-95349000Y54946750D01*
G75*
G02*
X-95567750Y54728000I-218750J0D01*
G01*
X-96005250Y54728000D01*
G75*
G02*
X-96224000Y54946750I0J218750D01*
G01*
G37*
G04 #@! TD*
G04 #@! TO.C,VOUT20*
X209626000Y24773000D03*
G04 #@! TD*
G04 #@! TO.C,D8*
G36*
G01*
X-97549000Y60946750D02*
X-97549000Y61459250D01*
G75*
G02*
X-97330250Y61678000I218750J0D01*
G01*
X-96892750Y61678000D01*
G75*
G02*
X-96674000Y61459250I0J-218750D01*
G01*
X-96674000Y60946750D01*
G75*
G02*
X-96892750Y60728000I-218750J0D01*
G01*
X-97330250Y60728000D01*
G75*
G02*
X-97549000Y60946750I0J218750D01*
G01*
G37*
G36*
G01*
X-95974000Y60946750D02*
X-95974000Y61459250D01*
G75*
G02*
X-95755250Y61678000I218750J0D01*
G01*
X-95317750Y61678000D01*
G75*
G02*
X-95099000Y61459250I0J-218750D01*
G01*
X-95099000Y60946750D01*
G75*
G02*
X-95317750Y60728000I-218750J0D01*
G01*
X-95755250Y60728000D01*
G75*
G02*
X-95974000Y60946750I0J218750D01*
G01*
G37*
G04 #@! TD*
D20*
G04 #@! TO.C,TP4*
X-42824000Y-25727000D03*
G04 #@! TD*
D19*
G04 #@! TO.C,VOUT1*
X-111574000Y-18977000D03*
G04 #@! TD*
G04 #@! TO.C,D27*
G36*
G01*
X-99724000Y33696750D02*
X-99724000Y34209250D01*
G75*
G02*
X-99505250Y34428000I218750J0D01*
G01*
X-99067750Y34428000D01*
G75*
G02*
X-98849000Y34209250I0J-218750D01*
G01*
X-98849000Y33696750D01*
G75*
G02*
X-99067750Y33478000I-218750J0D01*
G01*
X-99505250Y33478000D01*
G75*
G02*
X-99724000Y33696750I0J218750D01*
G01*
G37*
G36*
G01*
X-98149000Y33696750D02*
X-98149000Y34209250D01*
G75*
G02*
X-97930250Y34428000I218750J0D01*
G01*
X-97492750Y34428000D01*
G75*
G02*
X-97274000Y34209250I0J-218750D01*
G01*
X-97274000Y33696750D01*
G75*
G02*
X-97492750Y33478000I-218750J0D01*
G01*
X-97930250Y33478000D01*
G75*
G02*
X-98149000Y33696750I0J218750D01*
G01*
G37*
G04 #@! TD*
G04 #@! TO.C,MMCU14*
X202926000Y18673000D03*
G04 #@! TD*
G04 #@! TO.C,VIN14*
X99396002Y78483003D03*
G04 #@! TD*
G04 #@! TO.C,R6*
G36*
G01*
X37451000Y-24752000D02*
X37451000Y-24202000D01*
G75*
G02*
X37651000Y-24002000I200000J0D01*
G01*
X38051000Y-24002000D01*
G75*
G02*
X38251000Y-24202000I0J-200000D01*
G01*
X38251000Y-24752000D01*
G75*
G02*
X38051000Y-24952000I-200000J0D01*
G01*
X37651000Y-24952000D01*
G75*
G02*
X37451000Y-24752000I0J200000D01*
G01*
G37*
G36*
G01*
X39101000Y-24752000D02*
X39101000Y-24202000D01*
G75*
G02*
X39301000Y-24002000I200000J0D01*
G01*
X39701000Y-24002000D01*
G75*
G02*
X39901000Y-24202000I0J-200000D01*
G01*
X39901000Y-24752000D01*
G75*
G02*
X39701000Y-24952000I-200000J0D01*
G01*
X39301000Y-24952000D01*
G75*
G02*
X39101000Y-24752000I0J200000D01*
G01*
G37*
G04 #@! TD*
G04 #@! TO.C,MMCU4*
X106676000Y16023000D03*
G04 #@! TD*
G04 #@! TO.C,MMCU31*
X39826000Y21223000D03*
G04 #@! TD*
G04 #@! TO.C,cr8*
X15926000Y100523000D03*
G04 #@! TD*
G04 #@! TO.C,D29*
G36*
G01*
X-94049000Y56446750D02*
X-94049000Y56959250D01*
G75*
G02*
X-93830250Y57178000I218750J0D01*
G01*
X-93392750Y57178000D01*
G75*
G02*
X-93174000Y56959250I0J-218750D01*
G01*
X-93174000Y56446750D01*
G75*
G02*
X-93392750Y56228000I-218750J0D01*
G01*
X-93830250Y56228000D01*
G75*
G02*
X-94049000Y56446750I0J218750D01*
G01*
G37*
G36*
G01*
X-92474000Y56446750D02*
X-92474000Y56959250D01*
G75*
G02*
X-92255250Y57178000I218750J0D01*
G01*
X-91817750Y57178000D01*
G75*
G02*
X-91599000Y56959250I0J-218750D01*
G01*
X-91599000Y56446750D01*
G75*
G02*
X-91817750Y56228000I-218750J0D01*
G01*
X-92255250Y56228000D01*
G75*
G02*
X-92474000Y56446750I0J218750D01*
G01*
G37*
G04 #@! TD*
D21*
G04 #@! TO.C,SW2*
X92676000Y10973000D03*
D22*
X90976000Y10973000D03*
X94376000Y10973000D03*
G04 #@! TD*
G04 #@! TO.C,D1*
G36*
G01*
X89613500Y8729250D02*
X89613500Y8216750D01*
G75*
G02*
X89394750Y7998000I-218750J0D01*
G01*
X88957250Y7998000D01*
G75*
G02*
X88738500Y8216750I0J218750D01*
G01*
X88738500Y8729250D01*
G75*
G02*
X88957250Y8948000I218750J0D01*
G01*
X89394750Y8948000D01*
G75*
G02*
X89613500Y8729250I0J-218750D01*
G01*
G37*
G36*
G01*
X88038500Y8729250D02*
X88038500Y8216750D01*
G75*
G02*
X87819750Y7998000I-218750J0D01*
G01*
X87382250Y7998000D01*
G75*
G02*
X87163500Y8216750I0J218750D01*
G01*
X87163500Y8729250D01*
G75*
G02*
X87382250Y8948000I218750J0D01*
G01*
X87819750Y8948000D01*
G75*
G02*
X88038500Y8729250I0J-218750D01*
G01*
G37*
G04 #@! TD*
D19*
G04 #@! TO.C,MMCU28*
X188426000Y47273000D03*
G04 #@! TD*
G04 #@! TO.C,VOUT10*
X206276000Y21723000D03*
G04 #@! TD*
G04 #@! TO.C,cr1*
X70426000Y100523000D03*
G04 #@! TD*
G04 #@! TO.C,MMCU30*
X45076000Y23473000D03*
G04 #@! TD*
D23*
G04 #@! TO.C,RN7*
X-102274000Y54953000D03*
X-102274000Y54153000D03*
X-102274000Y53353000D03*
X-102274000Y52553000D03*
X-100574000Y52553000D03*
X-100574000Y53353000D03*
X-100574000Y54153000D03*
X-100574000Y54953000D03*
G04 #@! TD*
D14*
G04 #@! TO.C,Q7*
X139726000Y22803000D03*
D15*
X146026000Y20523000D03*
D14*
X139726000Y18243000D03*
G04 #@! TD*
D19*
G04 #@! TO.C,MMCU18*
X212976000Y18673000D03*
G04 #@! TD*
G04 #@! TO.C,VIN11*
X83396002Y79483003D03*
G04 #@! TD*
G04 #@! TO.C,VIN4*
X108146002Y78483003D03*
G04 #@! TD*
G04 #@! TO.C,cr11*
X67176000Y100523000D03*
G04 #@! TD*
G04 #@! TO.C,P3*
X-84066000Y118409530D03*
G04 #@! TD*
G04 #@! TO.C,MMCU9*
X68676000Y22723000D03*
G04 #@! TD*
G04 #@! TO.C,VIN6*
X83896002Y66233003D03*
G04 #@! TD*
G04 #@! TO.C,D28*
G36*
G01*
X-94049000Y53446750D02*
X-94049000Y53959250D01*
G75*
G02*
X-93830250Y54178000I218750J0D01*
G01*
X-93392750Y54178000D01*
G75*
G02*
X-93174000Y53959250I0J-218750D01*
G01*
X-93174000Y53446750D01*
G75*
G02*
X-93392750Y53228000I-218750J0D01*
G01*
X-93830250Y53228000D01*
G75*
G02*
X-94049000Y53446750I0J218750D01*
G01*
G37*
G36*
G01*
X-92474000Y53446750D02*
X-92474000Y53959250D01*
G75*
G02*
X-92255250Y54178000I218750J0D01*
G01*
X-91817750Y54178000D01*
G75*
G02*
X-91599000Y53959250I0J-218750D01*
G01*
X-91599000Y53446750D01*
G75*
G02*
X-91817750Y53228000I-218750J0D01*
G01*
X-92255250Y53228000D01*
G75*
G02*
X-92474000Y53446750I0J218750D01*
G01*
G37*
G04 #@! TD*
G04 #@! TO.C,R9*
G36*
G01*
X137601000Y57448000D02*
X134751000Y57448000D01*
G75*
G02*
X134501000Y57698000I0J250000D01*
G01*
X134501000Y58423000D01*
G75*
G02*
X134751000Y58673000I250000J0D01*
G01*
X137601000Y58673000D01*
G75*
G02*
X137851000Y58423000I0J-250000D01*
G01*
X137851000Y57698000D01*
G75*
G02*
X137601000Y57448000I-250000J0D01*
G01*
G37*
G36*
G01*
X137601000Y63373000D02*
X134751000Y63373000D01*
G75*
G02*
X134501000Y63623000I0J250000D01*
G01*
X134501000Y64348000D01*
G75*
G02*
X134751000Y64598000I250000J0D01*
G01*
X137601000Y64598000D01*
G75*
G02*
X137851000Y64348000I0J-250000D01*
G01*
X137851000Y63623000D01*
G75*
G02*
X137601000Y63373000I-250000J0D01*
G01*
G37*
G04 #@! TD*
G04 #@! TO.C,D11*
G36*
G01*
X-98049000Y79346750D02*
X-98049000Y79859250D01*
G75*
G02*
X-97830250Y80078000I218750J0D01*
G01*
X-97392750Y80078000D01*
G75*
G02*
X-97174000Y79859250I0J-218750D01*
G01*
X-97174000Y79346750D01*
G75*
G02*
X-97392750Y79128000I-218750J0D01*
G01*
X-97830250Y79128000D01*
G75*
G02*
X-98049000Y79346750I0J218750D01*
G01*
G37*
G36*
G01*
X-96474000Y79346750D02*
X-96474000Y79859250D01*
G75*
G02*
X-96255250Y80078000I218750J0D01*
G01*
X-95817750Y80078000D01*
G75*
G02*
X-95599000Y79859250I0J-218750D01*
G01*
X-95599000Y79346750D01*
G75*
G02*
X-95817750Y79128000I-218750J0D01*
G01*
X-96255250Y79128000D01*
G75*
G02*
X-96474000Y79346750I0J218750D01*
G01*
G37*
G04 #@! TD*
G04 #@! TO.C,VOUT5*
X50176000Y75273000D03*
G04 #@! TD*
G04 #@! TO.C,VIN19*
X-80716000Y124209530D03*
G04 #@! TD*
G04 #@! TO.C,D22*
G36*
G01*
X-93799000Y72346750D02*
X-93799000Y72859250D01*
G75*
G02*
X-93580250Y73078000I218750J0D01*
G01*
X-93142750Y73078000D01*
G75*
G02*
X-92924000Y72859250I0J-218750D01*
G01*
X-92924000Y72346750D01*
G75*
G02*
X-93142750Y72128000I-218750J0D01*
G01*
X-93580250Y72128000D01*
G75*
G02*
X-93799000Y72346750I0J218750D01*
G01*
G37*
G36*
G01*
X-92224000Y72346750D02*
X-92224000Y72859250D01*
G75*
G02*
X-92005250Y73078000I218750J0D01*
G01*
X-91567750Y73078000D01*
G75*
G02*
X-91349000Y72859250I0J-218750D01*
G01*
X-91349000Y72346750D01*
G75*
G02*
X-91567750Y72128000I-218750J0D01*
G01*
X-92005250Y72128000D01*
G75*
G02*
X-92224000Y72346750I0J218750D01*
G01*
G37*
G04 #@! TD*
G04 #@! TO.C,KNOCK_RAW2*
X74926000Y96523000D03*
G04 #@! TD*
D23*
G04 #@! TO.C,RN4*
X-101924000Y83803000D03*
X-101924000Y83003000D03*
X-101924000Y82203000D03*
X-101924000Y81403000D03*
X-100224000Y81403000D03*
X-100224000Y82203000D03*
X-100224000Y83003000D03*
X-100224000Y83803000D03*
G04 #@! TD*
D19*
G04 #@! TO.C,MMCU2*
X106676000Y18523000D03*
G04 #@! TD*
G04 #@! TO.C,VIN18*
X-80716000Y121159530D03*
G04 #@! TD*
G04 #@! TO.C,MMCU7*
X78176000Y17473000D03*
G04 #@! TD*
G04 #@! TO.C,R26*
G36*
G01*
X-41049000Y44248000D02*
X-41049000Y44798000D01*
G75*
G02*
X-40849000Y44998000I200000J0D01*
G01*
X-40449000Y44998000D01*
G75*
G02*
X-40249000Y44798000I0J-200000D01*
G01*
X-40249000Y44248000D01*
G75*
G02*
X-40449000Y44048000I-200000J0D01*
G01*
X-40849000Y44048000D01*
G75*
G02*
X-41049000Y44248000I0J200000D01*
G01*
G37*
G36*
G01*
X-39399000Y44248000D02*
X-39399000Y44798000D01*
G75*
G02*
X-39199000Y44998000I200000J0D01*
G01*
X-38799000Y44998000D01*
G75*
G02*
X-38599000Y44798000I0J-200000D01*
G01*
X-38599000Y44248000D01*
G75*
G02*
X-38799000Y44048000I-200000J0D01*
G01*
X-39199000Y44048000D01*
G75*
G02*
X-39399000Y44248000I0J200000D01*
G01*
G37*
G04 #@! TD*
G04 #@! TO.C,R14*
G36*
G01*
X134751000Y15098000D02*
X137601000Y15098000D01*
G75*
G02*
X137851000Y14848000I0J-250000D01*
G01*
X137851000Y14123000D01*
G75*
G02*
X137601000Y13873000I-250000J0D01*
G01*
X134751000Y13873000D01*
G75*
G02*
X134501000Y14123000I0J250000D01*
G01*
X134501000Y14848000D01*
G75*
G02*
X134751000Y15098000I250000J0D01*
G01*
G37*
G36*
G01*
X134751000Y9173000D02*
X137601000Y9173000D01*
G75*
G02*
X137851000Y8923000I0J-250000D01*
G01*
X137851000Y8198000D01*
G75*
G02*
X137601000Y7948000I-250000J0D01*
G01*
X134751000Y7948000D01*
G75*
G02*
X134501000Y8198000I0J250000D01*
G01*
X134501000Y8923000D01*
G75*
G02*
X134751000Y9173000I250000J0D01*
G01*
G37*
G04 #@! TD*
D20*
G04 #@! TO.C,TP3*
X-85574000Y43203000D03*
G04 #@! TD*
G04 #@! TO.C,D16*
G36*
G01*
X182451000Y84766750D02*
X182451000Y85279250D01*
G75*
G02*
X182669750Y85498000I218750J0D01*
G01*
X183107250Y85498000D01*
G75*
G02*
X183326000Y85279250I0J-218750D01*
G01*
X183326000Y84766750D01*
G75*
G02*
X183107250Y84548000I-218750J0D01*
G01*
X182669750Y84548000D01*
G75*
G02*
X182451000Y84766750I0J218750D01*
G01*
G37*
G36*
G01*
X184026000Y84766750D02*
X184026000Y85279250D01*
G75*
G02*
X184244750Y85498000I218750J0D01*
G01*
X184682250Y85498000D01*
G75*
G02*
X184901000Y85279250I0J-218750D01*
G01*
X184901000Y84766750D01*
G75*
G02*
X184682250Y84548000I-218750J0D01*
G01*
X184244750Y84548000D01*
G75*
G02*
X184026000Y84766750I0J218750D01*
G01*
G37*
G04 #@! TD*
D24*
G04 #@! TO.C,J2*
X80926000Y4223000D03*
D25*
X80926000Y6223000D03*
X80926000Y8223000D03*
X80926000Y10223000D03*
X80926000Y12223000D03*
G04 #@! TD*
D19*
G04 #@! TO.C,MMCU10*
X67176000Y24223000D03*
G04 #@! TD*
G04 #@! TO.C,VIN15*
X97646002Y78483003D03*
G04 #@! TD*
G04 #@! TO.C,MMCU29*
X56326000Y25473000D03*
G04 #@! TD*
G04 #@! TO.C,R4*
G36*
G01*
X-95049000Y14928000D02*
X-95049000Y15478000D01*
G75*
G02*
X-94849000Y15678000I200000J0D01*
G01*
X-94449000Y15678000D01*
G75*
G02*
X-94249000Y15478000I0J-200000D01*
G01*
X-94249000Y14928000D01*
G75*
G02*
X-94449000Y14728000I-200000J0D01*
G01*
X-94849000Y14728000D01*
G75*
G02*
X-95049000Y14928000I0J200000D01*
G01*
G37*
G36*
G01*
X-93399000Y14928000D02*
X-93399000Y15478000D01*
G75*
G02*
X-93199000Y15678000I200000J0D01*
G01*
X-92799000Y15678000D01*
G75*
G02*
X-92599000Y15478000I0J-200000D01*
G01*
X-92599000Y14928000D01*
G75*
G02*
X-92799000Y14728000I-200000J0D01*
G01*
X-93199000Y14728000D01*
G75*
G02*
X-93399000Y14928000I0J200000D01*
G01*
G37*
G04 #@! TD*
G04 #@! TO.C,R7*
G36*
G01*
X137601000Y27198000D02*
X134751000Y27198000D01*
G75*
G02*
X134501000Y27448000I0J250000D01*
G01*
X134501000Y28173000D01*
G75*
G02*
X134751000Y28423000I250000J0D01*
G01*
X137601000Y28423000D01*
G75*
G02*
X137851000Y28173000I0J-250000D01*
G01*
X137851000Y27448000D01*
G75*
G02*
X137601000Y27198000I-250000J0D01*
G01*
G37*
G36*
G01*
X137601000Y33123000D02*
X134751000Y33123000D01*
G75*
G02*
X134501000Y33373000I0J250000D01*
G01*
X134501000Y34098000D01*
G75*
G02*
X134751000Y34348000I250000J0D01*
G01*
X137601000Y34348000D01*
G75*
G02*
X137851000Y34098000I0J-250000D01*
G01*
X137851000Y33373000D01*
G75*
G02*
X137601000Y33123000I-250000J0D01*
G01*
G37*
G04 #@! TD*
D23*
G04 #@! TO.C,RN5*
X178826000Y88223000D03*
X178826000Y87423000D03*
X178826000Y86623000D03*
X178826000Y85823000D03*
X180526000Y85823000D03*
X180526000Y86623000D03*
X180526000Y87423000D03*
X180526000Y88223000D03*
G04 #@! TD*
D19*
G04 #@! TO.C,VIN21*
X-74016000Y121159530D03*
G04 #@! TD*
G04 #@! TO.C,VIN7*
X83896002Y64483003D03*
G04 #@! TD*
G04 #@! TO.C,R18*
G36*
G01*
X136646000Y44088000D02*
X136646000Y44458000D01*
G75*
G02*
X136781000Y44593000I135000J0D01*
G01*
X137051000Y44593000D01*
G75*
G02*
X137186000Y44458000I0J-135000D01*
G01*
X137186000Y44088000D01*
G75*
G02*
X137051000Y43953000I-135000J0D01*
G01*
X136781000Y43953000D01*
G75*
G02*
X136646000Y44088000I0J135000D01*
G01*
G37*
G36*
G01*
X137666000Y44088000D02*
X137666000Y44458000D01*
G75*
G02*
X137801000Y44593000I135000J0D01*
G01*
X138071000Y44593000D01*
G75*
G02*
X138206000Y44458000I0J-135000D01*
G01*
X138206000Y44088000D01*
G75*
G02*
X138071000Y43953000I-135000J0D01*
G01*
X137801000Y43953000D01*
G75*
G02*
X137666000Y44088000I0J135000D01*
G01*
G37*
G04 #@! TD*
G04 #@! TO.C,MMCU37*
X-77736000Y130309530D03*
G04 #@! TD*
G04 #@! TO.C,VOUT19*
X54426000Y75273000D03*
G04 #@! TD*
G04 #@! TO.C,MMCU17*
X219676000Y24773000D03*
G04 #@! TD*
G04 #@! TO.C,R5*
G36*
G01*
X35521000Y-33492000D02*
X35521000Y-32942000D01*
G75*
G02*
X35721000Y-32742000I200000J0D01*
G01*
X36121000Y-32742000D01*
G75*
G02*
X36321000Y-32942000I0J-200000D01*
G01*
X36321000Y-33492000D01*
G75*
G02*
X36121000Y-33692000I-200000J0D01*
G01*
X35721000Y-33692000D01*
G75*
G02*
X35521000Y-33492000I0J200000D01*
G01*
G37*
G36*
G01*
X37171000Y-33492000D02*
X37171000Y-32942000D01*
G75*
G02*
X37371000Y-32742000I200000J0D01*
G01*
X37771000Y-32742000D01*
G75*
G02*
X37971000Y-32942000I0J-200000D01*
G01*
X37971000Y-33492000D01*
G75*
G02*
X37771000Y-33692000I-200000J0D01*
G01*
X37371000Y-33692000D01*
G75*
G02*
X37171000Y-33492000I0J200000D01*
G01*
G37*
G04 #@! TD*
G04 #@! TO.C,cr15*
X57926000Y100523000D03*
G04 #@! TD*
G04 #@! TO.C,MMCU8*
X67176000Y21223000D03*
G04 #@! TD*
G04 #@! TO.C,cr20*
X115676000Y100523000D03*
G04 #@! TD*
G04 #@! TO.C,R12*
G36*
G01*
X134751000Y84098000D02*
X137601000Y84098000D01*
G75*
G02*
X137851000Y83848000I0J-250000D01*
G01*
X137851000Y83123000D01*
G75*
G02*
X137601000Y82873000I-250000J0D01*
G01*
X134751000Y82873000D01*
G75*
G02*
X134501000Y83123000I0J250000D01*
G01*
X134501000Y83848000D01*
G75*
G02*
X134751000Y84098000I250000J0D01*
G01*
G37*
G36*
G01*
X134751000Y78173000D02*
X137601000Y78173000D01*
G75*
G02*
X137851000Y77923000I0J-250000D01*
G01*
X137851000Y77198000D01*
G75*
G02*
X137601000Y76948000I-250000J0D01*
G01*
X134751000Y76948000D01*
G75*
G02*
X134501000Y77198000I0J250000D01*
G01*
X134501000Y77923000D01*
G75*
G02*
X134751000Y78173000I250000J0D01*
G01*
G37*
G04 #@! TD*
D23*
G04 #@! TO.C,RN6*
X-101924000Y73553000D03*
X-101924000Y72753000D03*
X-101924000Y71953000D03*
X-101924000Y71153000D03*
X-100224000Y71153000D03*
X-100224000Y71953000D03*
X-100224000Y72753000D03*
X-100224000Y73553000D03*
G04 #@! TD*
D19*
G04 #@! TO.C,VIN10*
X91396002Y79733003D03*
G04 #@! TD*
G04 #@! TO.C,D3*
G36*
G01*
X-94086500Y62446750D02*
X-94086500Y62959250D01*
G75*
G02*
X-93867750Y63178000I218750J0D01*
G01*
X-93430250Y63178000D01*
G75*
G02*
X-93211500Y62959250I0J-218750D01*
G01*
X-93211500Y62446750D01*
G75*
G02*
X-93430250Y62228000I-218750J0D01*
G01*
X-93867750Y62228000D01*
G75*
G02*
X-94086500Y62446750I0J218750D01*
G01*
G37*
G36*
G01*
X-92511500Y62446750D02*
X-92511500Y62959250D01*
G75*
G02*
X-92292750Y63178000I218750J0D01*
G01*
X-91855250Y63178000D01*
G75*
G02*
X-91636500Y62959250I0J-218750D01*
G01*
X-91636500Y62446750D01*
G75*
G02*
X-91855250Y62228000I-218750J0D01*
G01*
X-92292750Y62228000D01*
G75*
G02*
X-92511500Y62446750I0J218750D01*
G01*
G37*
G04 #@! TD*
G04 #@! TO.C,MMCU5*
X80676000Y17473000D03*
G04 #@! TD*
G04 #@! TO.C,VIN17*
X84396002Y72983003D03*
G04 #@! TD*
G04 #@! TO.C,C8*
G36*
G01*
X28596000Y49013000D02*
X28256000Y49013000D01*
G75*
G02*
X28116000Y49153000I0J140000D01*
G01*
X28116000Y49433000D01*
G75*
G02*
X28256000Y49573000I140000J0D01*
G01*
X28596000Y49573000D01*
G75*
G02*
X28736000Y49433000I0J-140000D01*
G01*
X28736000Y49153000D01*
G75*
G02*
X28596000Y49013000I-140000J0D01*
G01*
G37*
G36*
G01*
X28596000Y49973000D02*
X28256000Y49973000D01*
G75*
G02*
X28116000Y50113000I0J140000D01*
G01*
X28116000Y50393000D01*
G75*
G02*
X28256000Y50533000I140000J0D01*
G01*
X28596000Y50533000D01*
G75*
G02*
X28736000Y50393000I0J-140000D01*
G01*
X28736000Y50113000D01*
G75*
G02*
X28596000Y49973000I-140000J0D01*
G01*
G37*
G04 #@! TD*
G04 #@! TO.C,D18*
G36*
G01*
X-97049000Y70346750D02*
X-97049000Y70859250D01*
G75*
G02*
X-96830250Y71078000I218750J0D01*
G01*
X-96392750Y71078000D01*
G75*
G02*
X-96174000Y70859250I0J-218750D01*
G01*
X-96174000Y70346750D01*
G75*
G02*
X-96392750Y70128000I-218750J0D01*
G01*
X-96830250Y70128000D01*
G75*
G02*
X-97049000Y70346750I0J218750D01*
G01*
G37*
G36*
G01*
X-95474000Y70346750D02*
X-95474000Y70859250D01*
G75*
G02*
X-95255250Y71078000I218750J0D01*
G01*
X-94817750Y71078000D01*
G75*
G02*
X-94599000Y70859250I0J-218750D01*
G01*
X-94599000Y70346750D01*
G75*
G02*
X-94817750Y70128000I-218750J0D01*
G01*
X-95255250Y70128000D01*
G75*
G02*
X-95474000Y70346750I0J218750D01*
G01*
G37*
G04 #@! TD*
G04 #@! TO.C,VIN25*
X-80716000Y127259530D03*
G04 #@! TD*
G04 #@! TO.C,VOUT21*
X-67316000Y121159530D03*
G04 #@! TD*
G04 #@! TO.C,R2*
G36*
G01*
X83913500Y8198000D02*
X83913500Y8748000D01*
G75*
G02*
X84113500Y8948000I200000J0D01*
G01*
X84513500Y8948000D01*
G75*
G02*
X84713500Y8748000I0J-200000D01*
G01*
X84713500Y8198000D01*
G75*
G02*
X84513500Y7998000I-200000J0D01*
G01*
X84113500Y7998000D01*
G75*
G02*
X83913500Y8198000I0J200000D01*
G01*
G37*
G36*
G01*
X85563500Y8198000D02*
X85563500Y8748000D01*
G75*
G02*
X85763500Y8948000I200000J0D01*
G01*
X86163500Y8948000D01*
G75*
G02*
X86363500Y8748000I0J-200000D01*
G01*
X86363500Y8198000D01*
G75*
G02*
X86163500Y7998000I-200000J0D01*
G01*
X85763500Y7998000D01*
G75*
G02*
X85563500Y8198000I0J200000D01*
G01*
G37*
G04 #@! TD*
D14*
G04 #@! TO.C,Q8*
X139726000Y12803000D03*
D15*
X146026000Y10523000D03*
D14*
X139726000Y8243000D03*
G04 #@! TD*
D19*
G04 #@! TO.C,VIN12*
X90146002Y79733003D03*
G04 #@! TD*
G04 #@! TO.C,MMCU39*
X-74016000Y118109530D03*
G04 #@! TD*
G04 #@! TO.C,VIN23*
X-80716000Y118109530D03*
G04 #@! TD*
G04 #@! TO.C,VOUT15*
X212976000Y24773000D03*
G04 #@! TD*
G04 #@! TO.C,VOUT3*
X48426000Y75273000D03*
G04 #@! TD*
G04 #@! TO.C,D15*
G36*
G01*
X-94799000Y81096750D02*
X-94799000Y81609250D01*
G75*
G02*
X-94580250Y81828000I218750J0D01*
G01*
X-94142750Y81828000D01*
G75*
G02*
X-93924000Y81609250I0J-218750D01*
G01*
X-93924000Y81096750D01*
G75*
G02*
X-94142750Y80878000I-218750J0D01*
G01*
X-94580250Y80878000D01*
G75*
G02*
X-94799000Y81096750I0J218750D01*
G01*
G37*
G36*
G01*
X-93224000Y81096750D02*
X-93224000Y81609250D01*
G75*
G02*
X-93005250Y81828000I218750J0D01*
G01*
X-92567750Y81828000D01*
G75*
G02*
X-92349000Y81609250I0J-218750D01*
G01*
X-92349000Y81096750D01*
G75*
G02*
X-92567750Y80878000I-218750J0D01*
G01*
X-93005250Y80878000D01*
G75*
G02*
X-93224000Y81096750I0J218750D01*
G01*
G37*
G04 #@! TD*
G04 #@! TO.C,D20*
G36*
G01*
X186201000Y87016750D02*
X186201000Y87529250D01*
G75*
G02*
X186419750Y87748000I218750J0D01*
G01*
X186857250Y87748000D01*
G75*
G02*
X187076000Y87529250I0J-218750D01*
G01*
X187076000Y87016750D01*
G75*
G02*
X186857250Y86798000I-218750J0D01*
G01*
X186419750Y86798000D01*
G75*
G02*
X186201000Y87016750I0J218750D01*
G01*
G37*
G36*
G01*
X187776000Y87016750D02*
X187776000Y87529250D01*
G75*
G02*
X187994750Y87748000I218750J0D01*
G01*
X188432250Y87748000D01*
G75*
G02*
X188651000Y87529250I0J-218750D01*
G01*
X188651000Y87016750D01*
G75*
G02*
X188432250Y86798000I-218750J0D01*
G01*
X187994750Y86798000D01*
G75*
G02*
X187776000Y87016750I0J218750D01*
G01*
G37*
G04 #@! TD*
G04 #@! TO.C,VOUT25*
X-70666000Y121159530D03*
G04 #@! TD*
D23*
G04 #@! TO.C,RN8*
X-102849000Y33653000D03*
X-102849000Y32853000D03*
X-102849000Y32053000D03*
X-102849000Y31253000D03*
X-101149000Y31253000D03*
X-101149000Y32053000D03*
X-101149000Y32853000D03*
X-101149000Y33653000D03*
G04 #@! TD*
D26*
G04 #@! TO.C,J1*
X77301000Y5623000D03*
D27*
X75551000Y6423000D03*
X77301000Y7223000D03*
X75551000Y8023000D03*
X77301000Y8823000D03*
D28*
X76426000Y3573000D03*
X76426000Y10873000D03*
G04 #@! TD*
G04 #@! TO.C,R24*
G36*
G01*
X138956000Y15958000D02*
X138956000Y15588000D01*
G75*
G02*
X138821000Y15453000I-135000J0D01*
G01*
X138551000Y15453000D01*
G75*
G02*
X138416000Y15588000I0J135000D01*
G01*
X138416000Y15958000D01*
G75*
G02*
X138551000Y16093000I135000J0D01*
G01*
X138821000Y16093000D01*
G75*
G02*
X138956000Y15958000I0J-135000D01*
G01*
G37*
G36*
G01*
X137936000Y15958000D02*
X137936000Y15588000D01*
G75*
G02*
X137801000Y15453000I-135000J0D01*
G01*
X137531000Y15453000D01*
G75*
G02*
X137396000Y15588000I0J135000D01*
G01*
X137396000Y15958000D01*
G75*
G02*
X137531000Y16093000I135000J0D01*
G01*
X137801000Y16093000D01*
G75*
G02*
X137936000Y15958000I0J-135000D01*
G01*
G37*
G04 #@! TD*
D19*
G04 #@! TO.C,VIN3*
X106146002Y78483003D03*
G04 #@! TD*
G04 #@! TO.C,cr13*
X49926000Y100523000D03*
G04 #@! TD*
G04 #@! TO.C,MMCU38*
X-67316000Y124209530D03*
G04 #@! TD*
G04 #@! TO.C,cr2*
X73426000Y100523000D03*
G04 #@! TD*
G04 #@! TO.C,R23*
G36*
G01*
X138966000Y75458000D02*
X138966000Y75088000D01*
G75*
G02*
X138831000Y74953000I-135000J0D01*
G01*
X138561000Y74953000D01*
G75*
G02*
X138426000Y75088000I0J135000D01*
G01*
X138426000Y75458000D01*
G75*
G02*
X138561000Y75593000I135000J0D01*
G01*
X138831000Y75593000D01*
G75*
G02*
X138966000Y75458000I0J-135000D01*
G01*
G37*
G36*
G01*
X137946000Y75458000D02*
X137946000Y75088000D01*
G75*
G02*
X137811000Y74953000I-135000J0D01*
G01*
X137541000Y74953000D01*
G75*
G02*
X137406000Y75088000I0J135000D01*
G01*
X137406000Y75458000D01*
G75*
G02*
X137541000Y75593000I135000J0D01*
G01*
X137811000Y75593000D01*
G75*
G02*
X137946000Y75458000I0J-135000D01*
G01*
G37*
G04 #@! TD*
G04 #@! TO.C,cr3*
X76676000Y100523000D03*
G04 #@! TD*
G04 #@! TO.C,U5*
G36*
G01*
X20726000Y48278000D02*
X20726000Y48578000D01*
G75*
G02*
X20876000Y48728000I150000J0D01*
G01*
X22526000Y48728000D01*
G75*
G02*
X22676000Y48578000I0J-150000D01*
G01*
X22676000Y48278000D01*
G75*
G02*
X22526000Y48128000I-150000J0D01*
G01*
X20876000Y48128000D01*
G75*
G02*
X20726000Y48278000I0J150000D01*
G01*
G37*
G36*
G01*
X20726000Y47008000D02*
X20726000Y47308000D01*
G75*
G02*
X20876000Y47458000I150000J0D01*
G01*
X22526000Y47458000D01*
G75*
G02*
X22676000Y47308000I0J-150000D01*
G01*
X22676000Y47008000D01*
G75*
G02*
X22526000Y46858000I-150000J0D01*
G01*
X20876000Y46858000D01*
G75*
G02*
X20726000Y47008000I0J150000D01*
G01*
G37*
G36*
G01*
X20726000Y45738000D02*
X20726000Y46038000D01*
G75*
G02*
X20876000Y46188000I150000J0D01*
G01*
X22526000Y46188000D01*
G75*
G02*
X22676000Y46038000I0J-150000D01*
G01*
X22676000Y45738000D01*
G75*
G02*
X22526000Y45588000I-150000J0D01*
G01*
X20876000Y45588000D01*
G75*
G02*
X20726000Y45738000I0J150000D01*
G01*
G37*
G36*
G01*
X20726000Y44468000D02*
X20726000Y44768000D01*
G75*
G02*
X20876000Y44918000I150000J0D01*
G01*
X22526000Y44918000D01*
G75*
G02*
X22676000Y44768000I0J-150000D01*
G01*
X22676000Y44468000D01*
G75*
G02*
X22526000Y44318000I-150000J0D01*
G01*
X20876000Y44318000D01*
G75*
G02*
X20726000Y44468000I0J150000D01*
G01*
G37*
G36*
G01*
X25676000Y44468000D02*
X25676000Y44768000D01*
G75*
G02*
X25826000Y44918000I150000J0D01*
G01*
X27476000Y44918000D01*
G75*
G02*
X27626000Y44768000I0J-150000D01*
G01*
X27626000Y44468000D01*
G75*
G02*
X27476000Y44318000I-150000J0D01*
G01*
X25826000Y44318000D01*
G75*
G02*
X25676000Y44468000I0J150000D01*
G01*
G37*
G36*
G01*
X25676000Y45738000D02*
X25676000Y46038000D01*
G75*
G02*
X25826000Y46188000I150000J0D01*
G01*
X27476000Y46188000D01*
G75*
G02*
X27626000Y46038000I0J-150000D01*
G01*
X27626000Y45738000D01*
G75*
G02*
X27476000Y45588000I-150000J0D01*
G01*
X25826000Y45588000D01*
G75*
G02*
X25676000Y45738000I0J150000D01*
G01*
G37*
G36*
G01*
X25676000Y47008000D02*
X25676000Y47308000D01*
G75*
G02*
X25826000Y47458000I150000J0D01*
G01*
X27476000Y47458000D01*
G75*
G02*
X27626000Y47308000I0J-150000D01*
G01*
X27626000Y47008000D01*
G75*
G02*
X27476000Y46858000I-150000J0D01*
G01*
X25826000Y46858000D01*
G75*
G02*
X25676000Y47008000I0J150000D01*
G01*
G37*
G36*
G01*
X25676000Y48278000D02*
X25676000Y48578000D01*
G75*
G02*
X25826000Y48728000I150000J0D01*
G01*
X27476000Y48728000D01*
G75*
G02*
X27626000Y48578000I0J-150000D01*
G01*
X27626000Y48278000D01*
G75*
G02*
X27476000Y48128000I-150000J0D01*
G01*
X25826000Y48128000D01*
G75*
G02*
X25676000Y48278000I0J150000D01*
G01*
G37*
G04 #@! TD*
G04 #@! TO.C,R25*
G36*
G01*
X-40799000Y40048000D02*
X-40799000Y40598000D01*
G75*
G02*
X-40599000Y40798000I200000J0D01*
G01*
X-40199000Y40798000D01*
G75*
G02*
X-39999000Y40598000I0J-200000D01*
G01*
X-39999000Y40048000D01*
G75*
G02*
X-40199000Y39848000I-200000J0D01*
G01*
X-40599000Y39848000D01*
G75*
G02*
X-40799000Y40048000I0J200000D01*
G01*
G37*
G36*
G01*
X-39149000Y40048000D02*
X-39149000Y40598000D01*
G75*
G02*
X-38949000Y40798000I200000J0D01*
G01*
X-38549000Y40798000D01*
G75*
G02*
X-38349000Y40598000I0J-200000D01*
G01*
X-38349000Y40048000D01*
G75*
G02*
X-38549000Y39848000I-200000J0D01*
G01*
X-38949000Y39848000D01*
G75*
G02*
X-39149000Y40048000I0J200000D01*
G01*
G37*
G04 #@! TD*
D29*
G04 #@! TO.C,M4*
X120215841Y8073003D03*
D30*
X120265839Y18422997D03*
X120265839Y17922996D03*
D31*
X121315837Y11372999D03*
X121840837Y12248001D03*
X122590835Y11072997D03*
X126140836Y11148000D03*
G04 #@! TD*
G04 #@! TO.C,R8*
G36*
G01*
X137601000Y36198000D02*
X134751000Y36198000D01*
G75*
G02*
X134501000Y36448000I0J250000D01*
G01*
X134501000Y37173000D01*
G75*
G02*
X134751000Y37423000I250000J0D01*
G01*
X137601000Y37423000D01*
G75*
G02*
X137851000Y37173000I0J-250000D01*
G01*
X137851000Y36448000D01*
G75*
G02*
X137601000Y36198000I-250000J0D01*
G01*
G37*
G36*
G01*
X137601000Y42123000D02*
X134751000Y42123000D01*
G75*
G02*
X134501000Y42373000I0J250000D01*
G01*
X134501000Y43098000D01*
G75*
G02*
X134751000Y43348000I250000J0D01*
G01*
X137601000Y43348000D01*
G75*
G02*
X137851000Y43098000I0J-250000D01*
G01*
X137851000Y42373000D01*
G75*
G02*
X137601000Y42123000I-250000J0D01*
G01*
G37*
G04 #@! TD*
G04 #@! TO.C,D21*
G36*
G01*
X188013500Y90666750D02*
X188013500Y91179250D01*
G75*
G02*
X188232250Y91398000I218750J0D01*
G01*
X188669750Y91398000D01*
G75*
G02*
X188888500Y91179250I0J-218750D01*
G01*
X188888500Y90666750D01*
G75*
G02*
X188669750Y90448000I-218750J0D01*
G01*
X188232250Y90448000D01*
G75*
G02*
X188013500Y90666750I0J218750D01*
G01*
G37*
G36*
G01*
X189588500Y90666750D02*
X189588500Y91179250D01*
G75*
G02*
X189807250Y91398000I218750J0D01*
G01*
X190244750Y91398000D01*
G75*
G02*
X190463500Y91179250I0J-218750D01*
G01*
X190463500Y90666750D01*
G75*
G02*
X190244750Y90448000I-218750J0D01*
G01*
X189807250Y90448000D01*
G75*
G02*
X189588500Y90666750I0J218750D01*
G01*
G37*
G04 #@! TD*
G04 #@! TO.C,R13*
G36*
G01*
X134751000Y74598000D02*
X137601000Y74598000D01*
G75*
G02*
X137851000Y74348000I0J-250000D01*
G01*
X137851000Y73623000D01*
G75*
G02*
X137601000Y73373000I-250000J0D01*
G01*
X134751000Y73373000D01*
G75*
G02*
X134501000Y73623000I0J250000D01*
G01*
X134501000Y74348000D01*
G75*
G02*
X134751000Y74598000I250000J0D01*
G01*
G37*
G36*
G01*
X134751000Y68673000D02*
X137601000Y68673000D01*
G75*
G02*
X137851000Y68423000I0J-250000D01*
G01*
X137851000Y67698000D01*
G75*
G02*
X137601000Y67448000I-250000J0D01*
G01*
X134751000Y67448000D01*
G75*
G02*
X134501000Y67698000I0J250000D01*
G01*
X134501000Y68423000D01*
G75*
G02*
X134751000Y68673000I250000J0D01*
G01*
G37*
G04 #@! TD*
D19*
G04 #@! TO.C,MMCU20*
X-63966000Y124209530D03*
G04 #@! TD*
G04 #@! TO.C,P5*
X-74016000Y127259530D03*
G04 #@! TD*
G04 #@! TO.C,R3*
G36*
G01*
X-98589000Y46258000D02*
X-98589000Y46808000D01*
G75*
G02*
X-98389000Y47008000I200000J0D01*
G01*
X-97989000Y47008000D01*
G75*
G02*
X-97789000Y46808000I0J-200000D01*
G01*
X-97789000Y46258000D01*
G75*
G02*
X-97989000Y46058000I-200000J0D01*
G01*
X-98389000Y46058000D01*
G75*
G02*
X-98589000Y46258000I0J200000D01*
G01*
G37*
G36*
G01*
X-96939000Y46258000D02*
X-96939000Y46808000D01*
G75*
G02*
X-96739000Y47008000I200000J0D01*
G01*
X-96339000Y47008000D01*
G75*
G02*
X-96139000Y46808000I0J-200000D01*
G01*
X-96139000Y46258000D01*
G75*
G02*
X-96339000Y46058000I-200000J0D01*
G01*
X-96739000Y46058000D01*
G75*
G02*
X-96939000Y46258000I0J200000D01*
G01*
G37*
G04 #@! TD*
G04 #@! TO.C,VIN8*
X86146002Y79733003D03*
G04 #@! TD*
G04 #@! TO.C,R21*
G36*
G01*
X138956000Y94958000D02*
X138956000Y94588000D01*
G75*
G02*
X138821000Y94453000I-135000J0D01*
G01*
X138551000Y94453000D01*
G75*
G02*
X138416000Y94588000I0J135000D01*
G01*
X138416000Y94958000D01*
G75*
G02*
X138551000Y95093000I135000J0D01*
G01*
X138821000Y95093000D01*
G75*
G02*
X138956000Y94958000I0J-135000D01*
G01*
G37*
G36*
G01*
X137936000Y94958000D02*
X137936000Y94588000D01*
G75*
G02*
X137801000Y94453000I-135000J0D01*
G01*
X137531000Y94453000D01*
G75*
G02*
X137396000Y94588000I0J135000D01*
G01*
X137396000Y94958000D01*
G75*
G02*
X137531000Y95093000I135000J0D01*
G01*
X137801000Y95093000D01*
G75*
G02*
X137936000Y94958000I0J-135000D01*
G01*
G37*
G04 #@! TD*
G04 #@! TO.C,C6*
G36*
G01*
X27151000Y50273000D02*
X27151000Y49773000D01*
G75*
G02*
X26926000Y49548000I-225000J0D01*
G01*
X26476000Y49548000D01*
G75*
G02*
X26251000Y49773000I0J225000D01*
G01*
X26251000Y50273000D01*
G75*
G02*
X26476000Y50498000I225000J0D01*
G01*
X26926000Y50498000D01*
G75*
G02*
X27151000Y50273000I0J-225000D01*
G01*
G37*
G36*
G01*
X25601000Y50273000D02*
X25601000Y49773000D01*
G75*
G02*
X25376000Y49548000I-225000J0D01*
G01*
X24926000Y49548000D01*
G75*
G02*
X24701000Y49773000I0J225000D01*
G01*
X24701000Y50273000D01*
G75*
G02*
X24926000Y50498000I225000J0D01*
G01*
X25376000Y50498000D01*
G75*
G02*
X25601000Y50273000I0J-225000D01*
G01*
G37*
G04 #@! TD*
G04 #@! TO.C,P2*
X-77366000Y124209530D03*
G04 #@! TD*
G04 #@! TO.C,M11*
G36*
G01*
X80346000Y57248000D02*
X80346000Y57698000D01*
G75*
G02*
X80471000Y57823000I125000J0D01*
G01*
X80471000Y57823000D01*
G75*
G02*
X80596000Y57698000I0J-125000D01*
G01*
X80596000Y57248000D01*
G75*
G02*
X80471000Y57123000I-125000J0D01*
G01*
X80471000Y57123000D01*
G75*
G02*
X80346000Y57248000I0J125000D01*
G01*
G37*
G04 #@! TD*
G04 #@! TO.C,VOUT2*
X52676000Y75273000D03*
G04 #@! TD*
G04 #@! TO.C,VOUT26*
X-71036000Y130309530D03*
G04 #@! TD*
G04 #@! TO.C,MMCU21*
X-70666000Y124209530D03*
G04 #@! TD*
G04 #@! TO.C,KNOCK_RAW1*
X71926000Y96523000D03*
G04 #@! TD*
G04 #@! TO.C,D24*
G36*
G01*
X-98049000Y51946750D02*
X-98049000Y52459250D01*
G75*
G02*
X-97830250Y52678000I218750J0D01*
G01*
X-97392750Y52678000D01*
G75*
G02*
X-97174000Y52459250I0J-218750D01*
G01*
X-97174000Y51946750D01*
G75*
G02*
X-97392750Y51728000I-218750J0D01*
G01*
X-97830250Y51728000D01*
G75*
G02*
X-98049000Y51946750I0J218750D01*
G01*
G37*
G36*
G01*
X-96474000Y51946750D02*
X-96474000Y52459250D01*
G75*
G02*
X-96255250Y52678000I218750J0D01*
G01*
X-95817750Y52678000D01*
G75*
G02*
X-95599000Y52459250I0J-218750D01*
G01*
X-95599000Y51946750D01*
G75*
G02*
X-95817750Y51728000I-218750J0D01*
G01*
X-96255250Y51728000D01*
G75*
G02*
X-96474000Y51946750I0J218750D01*
G01*
G37*
G04 #@! TD*
G04 #@! TO.C,MMCU40*
X-77366000Y121159530D03*
G04 #@! TD*
D32*
G04 #@! TO.C,M6*
X74297586Y67398002D03*
X72572584Y67398002D03*
X70847584Y67398002D03*
X69147586Y67398002D03*
D33*
X75772586Y80598001D03*
D32*
X69751188Y86353875D03*
X73372586Y86348003D03*
G04 #@! TD*
G04 #@! TO.C,C7*
G36*
G01*
X21846000Y49263000D02*
X21506000Y49263000D01*
G75*
G02*
X21366000Y49403000I0J140000D01*
G01*
X21366000Y49683000D01*
G75*
G02*
X21506000Y49823000I140000J0D01*
G01*
X21846000Y49823000D01*
G75*
G02*
X21986000Y49683000I0J-140000D01*
G01*
X21986000Y49403000D01*
G75*
G02*
X21846000Y49263000I-140000J0D01*
G01*
G37*
G36*
G01*
X21846000Y50223000D02*
X21506000Y50223000D01*
G75*
G02*
X21366000Y50363000I0J140000D01*
G01*
X21366000Y50643000D01*
G75*
G02*
X21506000Y50783000I140000J0D01*
G01*
X21846000Y50783000D01*
G75*
G02*
X21986000Y50643000I0J-140000D01*
G01*
X21986000Y50363000D01*
G75*
G02*
X21846000Y50223000I-140000J0D01*
G01*
G37*
G04 #@! TD*
G04 #@! TO.C,D2*
G36*
G01*
X97688500Y8729250D02*
X97688500Y8216750D01*
G75*
G02*
X97469750Y7998000I-218750J0D01*
G01*
X97032250Y7998000D01*
G75*
G02*
X96813500Y8216750I0J218750D01*
G01*
X96813500Y8729250D01*
G75*
G02*
X97032250Y8948000I218750J0D01*
G01*
X97469750Y8948000D01*
G75*
G02*
X97688500Y8729250I0J-218750D01*
G01*
G37*
G36*
G01*
X96113500Y8729250D02*
X96113500Y8216750D01*
G75*
G02*
X95894750Y7998000I-218750J0D01*
G01*
X95457250Y7998000D01*
G75*
G02*
X95238500Y8216750I0J218750D01*
G01*
X95238500Y8729250D01*
G75*
G02*
X95457250Y8948000I218750J0D01*
G01*
X95894750Y8948000D01*
G75*
G02*
X96113500Y8729250I0J-218750D01*
G01*
G37*
G04 #@! TD*
G04 #@! TO.C,C3*
G36*
G01*
X99201000Y8223000D02*
X99201000Y8723000D01*
G75*
G02*
X99426000Y8948000I225000J0D01*
G01*
X99876000Y8948000D01*
G75*
G02*
X100101000Y8723000I0J-225000D01*
G01*
X100101000Y8223000D01*
G75*
G02*
X99876000Y7998000I-225000J0D01*
G01*
X99426000Y7998000D01*
G75*
G02*
X99201000Y8223000I0J225000D01*
G01*
G37*
G36*
G01*
X100751000Y8223000D02*
X100751000Y8723000D01*
G75*
G02*
X100976000Y8948000I225000J0D01*
G01*
X101426000Y8948000D01*
G75*
G02*
X101651000Y8723000I0J-225000D01*
G01*
X101651000Y8223000D01*
G75*
G02*
X101426000Y7998000I-225000J0D01*
G01*
X100976000Y7998000D01*
G75*
G02*
X100751000Y8223000I0J225000D01*
G01*
G37*
G04 #@! TD*
G04 #@! TO.C,D9*
G36*
G01*
X-98549000Y88016750D02*
X-98549000Y88529250D01*
G75*
G02*
X-98330250Y88748000I218750J0D01*
G01*
X-97892750Y88748000D01*
G75*
G02*
X-97674000Y88529250I0J-218750D01*
G01*
X-97674000Y88016750D01*
G75*
G02*
X-97892750Y87798000I-218750J0D01*
G01*
X-98330250Y87798000D01*
G75*
G02*
X-98549000Y88016750I0J218750D01*
G01*
G37*
G36*
G01*
X-96974000Y88016750D02*
X-96974000Y88529250D01*
G75*
G02*
X-96755250Y88748000I218750J0D01*
G01*
X-96317750Y88748000D01*
G75*
G02*
X-96099000Y88529250I0J-218750D01*
G01*
X-96099000Y88016750D01*
G75*
G02*
X-96317750Y87798000I-218750J0D01*
G01*
X-96755250Y87798000D01*
G75*
G02*
X-96974000Y88016750I0J218750D01*
G01*
G37*
G04 #@! TD*
G04 #@! TO.C,D10*
G36*
G01*
X-98549000Y91016750D02*
X-98549000Y91529250D01*
G75*
G02*
X-98330250Y91748000I218750J0D01*
G01*
X-97892750Y91748000D01*
G75*
G02*
X-97674000Y91529250I0J-218750D01*
G01*
X-97674000Y91016750D01*
G75*
G02*
X-97892750Y90798000I-218750J0D01*
G01*
X-98330250Y90798000D01*
G75*
G02*
X-98549000Y91016750I0J218750D01*
G01*
G37*
G36*
G01*
X-96974000Y91016750D02*
X-96974000Y91529250D01*
G75*
G02*
X-96755250Y91748000I218750J0D01*
G01*
X-96317750Y91748000D01*
G75*
G02*
X-96099000Y91529250I0J-218750D01*
G01*
X-96099000Y91016750D01*
G75*
G02*
X-96317750Y90798000I-218750J0D01*
G01*
X-96755250Y90798000D01*
G75*
G02*
X-96974000Y91016750I0J218750D01*
G01*
G37*
G04 #@! TD*
D19*
G04 #@! TO.C,cr19*
X112176000Y100523000D03*
G04 #@! TD*
G04 #@! TO.C,MMCU34*
X79896002Y66233003D03*
G04 #@! TD*
G04 #@! TO.C,VOUT14*
X219676000Y27823000D03*
G04 #@! TD*
G04 #@! TO.C,D19*
G36*
G01*
X-97299000Y74346750D02*
X-97299000Y74859250D01*
G75*
G02*
X-97080250Y75078000I218750J0D01*
G01*
X-96642750Y75078000D01*
G75*
G02*
X-96424000Y74859250I0J-218750D01*
G01*
X-96424000Y74346750D01*
G75*
G02*
X-96642750Y74128000I-218750J0D01*
G01*
X-97080250Y74128000D01*
G75*
G02*
X-97299000Y74346750I0J218750D01*
G01*
G37*
G36*
G01*
X-95724000Y74346750D02*
X-95724000Y74859250D01*
G75*
G02*
X-95505250Y75078000I218750J0D01*
G01*
X-95067750Y75078000D01*
G75*
G02*
X-94849000Y74859250I0J-218750D01*
G01*
X-94849000Y74346750D01*
G75*
G02*
X-95067750Y74128000I-218750J0D01*
G01*
X-95505250Y74128000D01*
G75*
G02*
X-95724000Y74346750I0J218750D01*
G01*
G37*
G04 #@! TD*
G04 #@! TO.C,MMCU19*
X212976000Y21723000D03*
G04 #@! TD*
G04 #@! TO.C,MMCU3*
X108426000Y14773000D03*
G04 #@! TD*
D23*
G04 #@! TO.C,RN2*
X-102674000Y46403000D03*
X-102674000Y45603000D03*
X-102674000Y44803000D03*
X-102674000Y44003000D03*
X-100974000Y44003000D03*
X-100974000Y44803000D03*
X-100974000Y45603000D03*
X-100974000Y46403000D03*
G04 #@! TD*
G04 #@! TO.C,D31*
G36*
G01*
X-95724000Y34946750D02*
X-95724000Y35459250D01*
G75*
G02*
X-95505250Y35678000I218750J0D01*
G01*
X-95067750Y35678000D01*
G75*
G02*
X-94849000Y35459250I0J-218750D01*
G01*
X-94849000Y34946750D01*
G75*
G02*
X-95067750Y34728000I-218750J0D01*
G01*
X-95505250Y34728000D01*
G75*
G02*
X-95724000Y34946750I0J218750D01*
G01*
G37*
G36*
G01*
X-94149000Y34946750D02*
X-94149000Y35459250D01*
G75*
G02*
X-93930250Y35678000I218750J0D01*
G01*
X-93492750Y35678000D01*
G75*
G02*
X-93274000Y35459250I0J-218750D01*
G01*
X-93274000Y34946750D01*
G75*
G02*
X-93492750Y34728000I-218750J0D01*
G01*
X-93930250Y34728000D01*
G75*
G02*
X-94149000Y34946750I0J218750D01*
G01*
G37*
G04 #@! TD*
D19*
G04 #@! TO.C,MMCU16*
X206276000Y18673000D03*
G04 #@! TD*
G04 #@! TO.C,MMCU26*
X92176000Y17523000D03*
G04 #@! TD*
G04 #@! TO.C,R20*
G36*
G01*
X137396000Y25088000D02*
X137396000Y25458000D01*
G75*
G02*
X137531000Y25593000I135000J0D01*
G01*
X137801000Y25593000D01*
G75*
G02*
X137936000Y25458000I0J-135000D01*
G01*
X137936000Y25088000D01*
G75*
G02*
X137801000Y24953000I-135000J0D01*
G01*
X137531000Y24953000D01*
G75*
G02*
X137396000Y25088000I0J135000D01*
G01*
G37*
G36*
G01*
X138416000Y25088000D02*
X138416000Y25458000D01*
G75*
G02*
X138551000Y25593000I135000J0D01*
G01*
X138821000Y25593000D01*
G75*
G02*
X138956000Y25458000I0J-135000D01*
G01*
X138956000Y25088000D01*
G75*
G02*
X138821000Y24953000I-135000J0D01*
G01*
X138551000Y24953000D01*
G75*
G02*
X138416000Y25088000I0J135000D01*
G01*
G37*
G04 #@! TD*
D30*
G04 #@! TO.C,M8*
X18926000Y46810476D03*
X18926000Y45935476D03*
X18926000Y45235475D03*
X1101002Y44785476D03*
X1101002Y47185479D03*
G04 #@! TD*
D19*
G04 #@! TO.C,MMCU15*
X202926000Y24773000D03*
G04 #@! TD*
D23*
G04 #@! TO.C,RN3*
X-102174000Y91473000D03*
X-102174000Y90673000D03*
X-102174000Y89873000D03*
X-102174000Y89073000D03*
X-100474000Y89073000D03*
X-100474000Y89873000D03*
X-100474000Y90673000D03*
X-100474000Y91473000D03*
G04 #@! TD*
D19*
G04 #@! TO.C,VOUT22*
X-60616000Y127259530D03*
G04 #@! TD*
G04 #@! TO.C,MMCU25*
X93426000Y15773000D03*
G04 #@! TD*
G04 #@! TO.C,D12*
G36*
G01*
X-98299000Y82846750D02*
X-98299000Y83359250D01*
G75*
G02*
X-98080250Y83578000I218750J0D01*
G01*
X-97642750Y83578000D01*
G75*
G02*
X-97424000Y83359250I0J-218750D01*
G01*
X-97424000Y82846750D01*
G75*
G02*
X-97642750Y82628000I-218750J0D01*
G01*
X-98080250Y82628000D01*
G75*
G02*
X-98299000Y82846750I0J218750D01*
G01*
G37*
G36*
G01*
X-96724000Y82846750D02*
X-96724000Y83359250D01*
G75*
G02*
X-96505250Y83578000I218750J0D01*
G01*
X-96067750Y83578000D01*
G75*
G02*
X-95849000Y83359250I0J-218750D01*
G01*
X-95849000Y82846750D01*
G75*
G02*
X-96067750Y82628000I-218750J0D01*
G01*
X-96505250Y82628000D01*
G75*
G02*
X-96724000Y82846750I0J218750D01*
G01*
G37*
G04 #@! TD*
G04 #@! TO.C,D13*
G36*
G01*
X-94299000Y89516750D02*
X-94299000Y90029250D01*
G75*
G02*
X-94080250Y90248000I218750J0D01*
G01*
X-93642750Y90248000D01*
G75*
G02*
X-93424000Y90029250I0J-218750D01*
G01*
X-93424000Y89516750D01*
G75*
G02*
X-93642750Y89298000I-218750J0D01*
G01*
X-94080250Y89298000D01*
G75*
G02*
X-94299000Y89516750I0J218750D01*
G01*
G37*
G36*
G01*
X-92724000Y89516750D02*
X-92724000Y90029250D01*
G75*
G02*
X-92505250Y90248000I218750J0D01*
G01*
X-92067750Y90248000D01*
G75*
G02*
X-91849000Y90029250I0J-218750D01*
G01*
X-91849000Y89516750D01*
G75*
G02*
X-92067750Y89298000I-218750J0D01*
G01*
X-92505250Y89298000D01*
G75*
G02*
X-92724000Y89516750I0J218750D01*
G01*
G37*
G04 #@! TD*
G04 #@! TO.C,R22*
G36*
G01*
X138956000Y84958000D02*
X138956000Y84588000D01*
G75*
G02*
X138821000Y84453000I-135000J0D01*
G01*
X138551000Y84453000D01*
G75*
G02*
X138416000Y84588000I0J135000D01*
G01*
X138416000Y84958000D01*
G75*
G02*
X138551000Y85093000I135000J0D01*
G01*
X138821000Y85093000D01*
G75*
G02*
X138956000Y84958000I0J-135000D01*
G01*
G37*
G36*
G01*
X137936000Y84958000D02*
X137936000Y84588000D01*
G75*
G02*
X137801000Y84453000I-135000J0D01*
G01*
X137531000Y84453000D01*
G75*
G02*
X137396000Y84588000I0J135000D01*
G01*
X137396000Y84958000D01*
G75*
G02*
X137531000Y85093000I135000J0D01*
G01*
X137801000Y85093000D01*
G75*
G02*
X137936000Y84958000I0J-135000D01*
G01*
G37*
G04 #@! TD*
G04 #@! TO.C,VOUT6*
X-111574000Y-21977000D03*
G04 #@! TD*
G04 #@! TO.C,VOUT24*
X-84066000Y121459530D03*
G04 #@! TD*
G04 #@! TO.C,D5*
G36*
G01*
X-98049000Y42946750D02*
X-98049000Y43459250D01*
G75*
G02*
X-97830250Y43678000I218750J0D01*
G01*
X-97392750Y43678000D01*
G75*
G02*
X-97174000Y43459250I0J-218750D01*
G01*
X-97174000Y42946750D01*
G75*
G02*
X-97392750Y42728000I-218750J0D01*
G01*
X-97830250Y42728000D01*
G75*
G02*
X-98049000Y42946750I0J218750D01*
G01*
G37*
G36*
G01*
X-96474000Y42946750D02*
X-96474000Y43459250D01*
G75*
G02*
X-96255250Y43678000I218750J0D01*
G01*
X-95817750Y43678000D01*
G75*
G02*
X-95599000Y43459250I0J-218750D01*
G01*
X-95599000Y42946750D01*
G75*
G02*
X-95817750Y42728000I-218750J0D01*
G01*
X-96255250Y42728000D01*
G75*
G02*
X-96474000Y42946750I0J218750D01*
G01*
G37*
G04 #@! TD*
G04 #@! TO.C,MMCU35*
X79896002Y62723000D03*
G04 #@! TD*
D21*
G04 #@! TO.C,SW1*
X85926000Y10973000D03*
D22*
X84226000Y10973000D03*
X87626000Y10973000D03*
G04 #@! TD*
D19*
G04 #@! TO.C,VOUT16*
X206276000Y24773000D03*
G04 #@! TD*
G04 #@! TO.C,J14*
X27426000Y-6727000D03*
G04 #@! TD*
G04 #@! TO.C,VIN1*
X110146002Y78483003D03*
G04 #@! TD*
G04 #@! TO.C,D6*
G36*
G01*
X-90836500Y42946750D02*
X-90836500Y43459250D01*
G75*
G02*
X-90617750Y43678000I218750J0D01*
G01*
X-90180250Y43678000D01*
G75*
G02*
X-89961500Y43459250I0J-218750D01*
G01*
X-89961500Y42946750D01*
G75*
G02*
X-90180250Y42728000I-218750J0D01*
G01*
X-90617750Y42728000D01*
G75*
G02*
X-90836500Y42946750I0J218750D01*
G01*
G37*
G36*
G01*
X-89261500Y42946750D02*
X-89261500Y43459250D01*
G75*
G02*
X-89042750Y43678000I218750J0D01*
G01*
X-88605250Y43678000D01*
G75*
G02*
X-88386500Y43459250I0J-218750D01*
G01*
X-88386500Y42946750D01*
G75*
G02*
X-88605250Y42728000I-218750J0D01*
G01*
X-89042750Y42728000D01*
G75*
G02*
X-89261500Y42946750I0J218750D01*
G01*
G37*
G04 #@! TD*
G04 #@! TO.C,MMCU36*
X90646002Y61483003D03*
G04 #@! TD*
G04 #@! TO.C,cr9*
X61176000Y100523000D03*
G04 #@! TD*
G04 #@! TO.C,MMCU1*
X108426000Y17273000D03*
G04 #@! TD*
G04 #@! TO.C,P6*
X-60986000Y130309530D03*
G04 #@! TD*
G04 #@! TO.C,cr17*
X65676000Y96523000D03*
G04 #@! TD*
G04 #@! TO.C,VIN20*
X-70666000Y127259530D03*
G04 #@! TD*
G04 #@! TO.C,MMCU22*
X-67686000Y130309530D03*
G04 #@! TD*
D20*
G04 #@! TO.C,TP1*
X-93804000Y46623000D03*
G04 #@! TD*
D19*
G04 #@! TO.C,J15*
X27926000Y-13977000D03*
G04 #@! TD*
G04 #@! TO.C,cr7*
X92176000Y100523000D03*
G04 #@! TD*
G04 #@! TO.C,VOUT7*
X209626000Y27823000D03*
G04 #@! TD*
G04 #@! TO.C,VOUT4*
X-111824000Y-36227000D03*
G04 #@! TD*
G04 #@! TO.C,VIN9*
X88146002Y79733003D03*
G04 #@! TD*
G04 #@! TO.C,VIN13*
X92646002Y79733003D03*
G04 #@! TD*
G04 #@! TO.C,MMCU23*
X-70666000Y118109530D03*
G04 #@! TD*
G04 #@! TO.C,VOUT9*
X61176000Y26273000D03*
G04 #@! TD*
G04 #@! TO.C,VOUT28*
X-63966000Y127259530D03*
G04 #@! TD*
G04 #@! TO.C,D26*
G36*
G01*
X-99474000Y30696750D02*
X-99474000Y31209250D01*
G75*
G02*
X-99255250Y31428000I218750J0D01*
G01*
X-98817750Y31428000D01*
G75*
G02*
X-98599000Y31209250I0J-218750D01*
G01*
X-98599000Y30696750D01*
G75*
G02*
X-98817750Y30478000I-218750J0D01*
G01*
X-99255250Y30478000D01*
G75*
G02*
X-99474000Y30696750I0J218750D01*
G01*
G37*
G36*
G01*
X-97899000Y30696750D02*
X-97899000Y31209250D01*
G75*
G02*
X-97680250Y31428000I218750J0D01*
G01*
X-97242750Y31428000D01*
G75*
G02*
X-97024000Y31209250I0J-218750D01*
G01*
X-97024000Y30696750D01*
G75*
G02*
X-97242750Y30478000I-218750J0D01*
G01*
X-97680250Y30478000D01*
G75*
G02*
X-97899000Y30696750I0J218750D01*
G01*
G37*
G04 #@! TD*
G04 #@! TO.C,MMCU12*
X67176000Y27223000D03*
G04 #@! TD*
G04 #@! TO.C,VIN5*
X83896002Y67983003D03*
G04 #@! TD*
D23*
G04 #@! TO.C,RN1*
X-102174000Y63653000D03*
X-102174000Y62853000D03*
X-102174000Y62053000D03*
X-102174000Y61253000D03*
X-100474000Y61253000D03*
X-100474000Y62053000D03*
X-100474000Y62853000D03*
X-100474000Y63653000D03*
G04 #@! TD*
D19*
G04 #@! TO.C,VOUT23*
X-67316000Y127259530D03*
G04 #@! TD*
G04 #@! TO.C,cr16*
X62676000Y96523000D03*
G04 #@! TD*
G04 #@! TO.C,MMCU41*
X-84066000Y127559530D03*
G04 #@! TD*
G04 #@! TO.C,cr5*
X59426000Y96523000D03*
G04 #@! TD*
G04 #@! TO.C,J16*
X46926000Y-15727000D03*
G04 #@! TD*
D30*
G04 #@! TO.C,M12*
X18926000Y42060476D03*
X18926000Y41185476D03*
X18926000Y40485475D03*
X1101002Y40035476D03*
X1101002Y42435479D03*
G04 #@! TD*
D34*
G04 #@! TO.C,J18*
X25026000Y57423000D03*
X23226000Y55423000D03*
X17126000Y55423000D03*
X19526000Y57423000D03*
X28726000Y55423000D03*
G04 #@! TD*
D19*
G04 #@! TO.C,cr21*
X119426000Y100523000D03*
G04 #@! TD*
G04 #@! TO.C,MMCU13*
X68676000Y28473000D03*
G04 #@! TD*
G04 #@! TO.C,R11*
G36*
G01*
X134751000Y94098000D02*
X137601000Y94098000D01*
G75*
G02*
X137851000Y93848000I0J-250000D01*
G01*
X137851000Y93123000D01*
G75*
G02*
X137601000Y92873000I-250000J0D01*
G01*
X134751000Y92873000D01*
G75*
G02*
X134501000Y93123000I0J250000D01*
G01*
X134501000Y93848000D01*
G75*
G02*
X134751000Y94098000I250000J0D01*
G01*
G37*
G36*
G01*
X134751000Y88173000D02*
X137601000Y88173000D01*
G75*
G02*
X137851000Y87923000I0J-250000D01*
G01*
X137851000Y87198000D01*
G75*
G02*
X137601000Y86948000I-250000J0D01*
G01*
X134751000Y86948000D01*
G75*
G02*
X134501000Y87198000I0J250000D01*
G01*
X134501000Y87923000D01*
G75*
G02*
X134751000Y88173000I250000J0D01*
G01*
G37*
G04 #@! TD*
G04 #@! TO.C,VOUT8*
X62926000Y38773000D03*
G04 #@! TD*
G04 #@! TO.C,VOUT29*
X-74386000Y130309530D03*
G04 #@! TD*
G04 #@! TO.C,cr12*
X43176000Y100523000D03*
G04 #@! TD*
G04 #@! TO.C,VIN24*
X-84066000Y124509530D03*
G04 #@! TD*
D35*
G04 #@! TO.C,U2*
X30106000Y13919750D03*
X7246000Y13919750D03*
D11*
X25026000Y26619750D03*
X22486000Y26619750D03*
X19946000Y26619750D03*
X17406000Y26619750D03*
X14866000Y26619750D03*
X12326000Y26619750D03*
G04 #@! TD*
G04 #@! TO.C,D17*
G36*
G01*
X182451000Y89266750D02*
X182451000Y89779250D01*
G75*
G02*
X182669750Y89998000I218750J0D01*
G01*
X183107250Y89998000D01*
G75*
G02*
X183326000Y89779250I0J-218750D01*
G01*
X183326000Y89266750D01*
G75*
G02*
X183107250Y89048000I-218750J0D01*
G01*
X182669750Y89048000D01*
G75*
G02*
X182451000Y89266750I0J218750D01*
G01*
G37*
G36*
G01*
X184026000Y89266750D02*
X184026000Y89779250D01*
G75*
G02*
X184244750Y89998000I218750J0D01*
G01*
X184682250Y89998000D01*
G75*
G02*
X184901000Y89779250I0J-218750D01*
G01*
X184901000Y89266750D01*
G75*
G02*
X184682250Y89048000I-218750J0D01*
G01*
X184244750Y89048000D01*
G75*
G02*
X184026000Y89266750I0J218750D01*
G01*
G37*
G04 #@! TD*
D36*
G04 #@! TO.C,M9*
X36168570Y70871778D03*
X37424435Y70871778D03*
X51799461Y70871778D03*
D37*
X60854459Y67375494D03*
G04 #@! TD*
D19*
G04 #@! TO.C,cr10*
X64176000Y100523000D03*
G04 #@! TD*
G04 #@! TO.C,cr4*
X19176000Y100523000D03*
G04 #@! TD*
G04 #@! TO.C,cr6*
X89926000Y100523000D03*
G04 #@! TD*
G04 #@! TO.C,MMCU32*
X51076000Y25723000D03*
G04 #@! TD*
G04 #@! TO.C,VOUT12*
X216326000Y24773000D03*
G04 #@! TD*
G04 #@! TO.C,R27*
G36*
G01*
X-44799000Y40148000D02*
X-44799000Y40698000D01*
G75*
G02*
X-44599000Y40898000I200000J0D01*
G01*
X-44199000Y40898000D01*
G75*
G02*
X-43999000Y40698000I0J-200000D01*
G01*
X-43999000Y40148000D01*
G75*
G02*
X-44199000Y39948000I-200000J0D01*
G01*
X-44599000Y39948000D01*
G75*
G02*
X-44799000Y40148000I0J200000D01*
G01*
G37*
G36*
G01*
X-43149000Y40148000D02*
X-43149000Y40698000D01*
G75*
G02*
X-42949000Y40898000I200000J0D01*
G01*
X-42549000Y40898000D01*
G75*
G02*
X-42349000Y40698000I0J-200000D01*
G01*
X-42349000Y40148000D01*
G75*
G02*
X-42549000Y39948000I-200000J0D01*
G01*
X-42949000Y39948000D01*
G75*
G02*
X-43149000Y40148000I0J200000D01*
G01*
G37*
G04 #@! TD*
D38*
G04 #@! TO.C,JP2*
X-83844000Y130523000D03*
D11*
X-84479000Y130523000D03*
D39*
X-83526500Y130523000D03*
D38*
X-81304000Y130523000D03*
D11*
X-80669000Y130523000D03*
D39*
X-81621500Y130523000D03*
G04 #@! TD*
D19*
G04 #@! TO.C,cr23*
X138926000Y100523000D03*
G04 #@! TD*
D40*
G04 #@! TO.C,M1*
X5563887Y38131985D03*
D41*
X9613897Y22606985D03*
D31*
X1063888Y36956984D03*
X2388892Y28731984D03*
X7621386Y28749489D03*
X8113892Y30631985D03*
X9238878Y23281992D03*
G04 #@! TD*
D42*
G04 #@! TO.C,M10*
X119651052Y46359475D03*
X120411031Y46359475D03*
X121586024Y46359475D03*
X122761011Y46359475D03*
X123600923Y46359475D03*
X124350995Y46359475D03*
X125526006Y46359475D03*
X126701003Y46359475D03*
D31*
X121661000Y36259868D03*
X119825990Y36684876D03*
X121875998Y37234873D03*
X121661003Y38109832D03*
X121585996Y38959855D03*
X119825990Y39284871D03*
X121135990Y40584838D03*
X119825990Y41234855D03*
X125751005Y34059852D03*
X121675999Y34359854D03*
G04 #@! TD*
D19*
G04 #@! TO.C,cr14*
X53926000Y100523000D03*
G04 #@! TD*
G04 #@! TO.C,D4*
G36*
G01*
X-90299000Y45946750D02*
X-90299000Y46459250D01*
G75*
G02*
X-90080250Y46678000I218750J0D01*
G01*
X-89642750Y46678000D01*
G75*
G02*
X-89424000Y46459250I0J-218750D01*
G01*
X-89424000Y45946750D01*
G75*
G02*
X-89642750Y45728000I-218750J0D01*
G01*
X-90080250Y45728000D01*
G75*
G02*
X-90299000Y45946750I0J218750D01*
G01*
G37*
G36*
G01*
X-88724000Y45946750D02*
X-88724000Y46459250D01*
G75*
G02*
X-88505250Y46678000I218750J0D01*
G01*
X-88067750Y46678000D01*
G75*
G02*
X-87849000Y46459250I0J-218750D01*
G01*
X-87849000Y45946750D01*
G75*
G02*
X-88067750Y45728000I-218750J0D01*
G01*
X-88505250Y45728000D01*
G75*
G02*
X-88724000Y45946750I0J218750D01*
G01*
G37*
G04 #@! TD*
G04 #@! TO.C,R19*
G36*
G01*
X137396000Y65088000D02*
X137396000Y65458000D01*
G75*
G02*
X137531000Y65593000I135000J0D01*
G01*
X137801000Y65593000D01*
G75*
G02*
X137936000Y65458000I0J-135000D01*
G01*
X137936000Y65088000D01*
G75*
G02*
X137801000Y64953000I-135000J0D01*
G01*
X137531000Y64953000D01*
G75*
G02*
X137396000Y65088000I0J135000D01*
G01*
G37*
G36*
G01*
X138416000Y65088000D02*
X138416000Y65458000D01*
G75*
G02*
X138551000Y65593000I135000J0D01*
G01*
X138821000Y65593000D01*
G75*
G02*
X138956000Y65458000I0J-135000D01*
G01*
X138956000Y65088000D01*
G75*
G02*
X138821000Y64953000I-135000J0D01*
G01*
X138551000Y64953000D01*
G75*
G02*
X138416000Y65088000I0J135000D01*
G01*
G37*
G04 #@! TD*
G04 #@! TO.C,MMCU11*
X68676000Y25723000D03*
G04 #@! TD*
G04 #@! TO.C,D7*
G36*
G01*
X-97549000Y63696750D02*
X-97549000Y64209250D01*
G75*
G02*
X-97330250Y64428000I218750J0D01*
G01*
X-96892750Y64428000D01*
G75*
G02*
X-96674000Y64209250I0J-218750D01*
G01*
X-96674000Y63696750D01*
G75*
G02*
X-96892750Y63478000I-218750J0D01*
G01*
X-97330250Y63478000D01*
G75*
G02*
X-97549000Y63696750I0J218750D01*
G01*
G37*
G36*
G01*
X-95974000Y63696750D02*
X-95974000Y64209250D01*
G75*
G02*
X-95755250Y64428000I218750J0D01*
G01*
X-95317750Y64428000D01*
G75*
G02*
X-95099000Y64209250I0J-218750D01*
G01*
X-95099000Y63696750D01*
G75*
G02*
X-95317750Y63478000I-218750J0D01*
G01*
X-95755250Y63478000D01*
G75*
G02*
X-95974000Y63696750I0J218750D01*
G01*
G37*
G04 #@! TD*
G04 #@! TO.C,cr18*
X68676000Y96523000D03*
G04 #@! TD*
D20*
G04 #@! TO.C,TP2*
X-94324000Y43203000D03*
G04 #@! TD*
D19*
G04 #@! TO.C,cr22*
X138926000Y97273000D03*
G04 #@! TD*
G04 #@! TO.C,MMCU33*
X79896002Y64483003D03*
G04 #@! TD*
G04 #@! TO.C,MMCU24*
X94676000Y17523000D03*
G04 #@! TD*
G04 #@! TO.C,D30*
G36*
G01*
X-95511500Y32196750D02*
X-95511500Y32709250D01*
G75*
G02*
X-95292750Y32928000I218750J0D01*
G01*
X-94855250Y32928000D01*
G75*
G02*
X-94636500Y32709250I0J-218750D01*
G01*
X-94636500Y32196750D01*
G75*
G02*
X-94855250Y31978000I-218750J0D01*
G01*
X-95292750Y31978000D01*
G75*
G02*
X-95511500Y32196750I0J218750D01*
G01*
G37*
G36*
G01*
X-93936500Y32196750D02*
X-93936500Y32709250D01*
G75*
G02*
X-93717750Y32928000I218750J0D01*
G01*
X-93280250Y32928000D01*
G75*
G02*
X-93061500Y32709250I0J-218750D01*
G01*
X-93061500Y32196750D01*
G75*
G02*
X-93280250Y31978000I-218750J0D01*
G01*
X-93717750Y31978000D01*
G75*
G02*
X-93936500Y32196750I0J218750D01*
G01*
G37*
G04 #@! TD*
G04 #@! TO.C,cr24*
X97926000Y100523000D03*
G04 #@! TD*
G04 #@! TO.C,VOUT11*
X206276000Y27823000D03*
G04 #@! TD*
G04 #@! TO.C,P4*
X-74016000Y124209530D03*
G04 #@! TD*
G04 #@! TO.C,VOUT17*
X56176000Y75273000D03*
G04 #@! TD*
D29*
G04 #@! TO.C,M2*
X112215841Y8073003D03*
D30*
X112265839Y18422997D03*
X112265839Y17922996D03*
D31*
X113315837Y11372999D03*
X113840837Y12248001D03*
X114590835Y11072997D03*
X118140836Y11148000D03*
G04 #@! TD*
D19*
G04 #@! TO.C,MMCU27*
X90926000Y15773000D03*
G04 #@! TD*
G04 #@! TO.C,VIN22*
X-77366000Y118109530D03*
G04 #@! TD*
G04 #@! TO.C,VIN2*
X104146002Y78483003D03*
G04 #@! TD*
G04 #@! TO.C,R17*
G36*
G01*
X137396000Y34838000D02*
X137396000Y35208000D01*
G75*
G02*
X137531000Y35343000I135000J0D01*
G01*
X137801000Y35343000D01*
G75*
G02*
X137936000Y35208000I0J-135000D01*
G01*
X137936000Y34838000D01*
G75*
G02*
X137801000Y34703000I-135000J0D01*
G01*
X137531000Y34703000D01*
G75*
G02*
X137396000Y34838000I0J135000D01*
G01*
G37*
G36*
G01*
X138416000Y34838000D02*
X138416000Y35208000D01*
G75*
G02*
X138551000Y35343000I135000J0D01*
G01*
X138821000Y35343000D01*
G75*
G02*
X138956000Y35208000I0J-135000D01*
G01*
X138956000Y34838000D01*
G75*
G02*
X138821000Y34703000I-135000J0D01*
G01*
X138551000Y34703000D01*
G75*
G02*
X138416000Y34838000I0J135000D01*
G01*
G37*
G04 #@! TD*
G04 #@! TO.C,VOUT13*
X202926000Y27823000D03*
G04 #@! TD*
G04 #@! TO.C,P1*
X-77366000Y127259530D03*
G04 #@! TD*
G04 #@! TO.C,MMCU6*
X79426000Y19223000D03*
G04 #@! TD*
D31*
G04 #@! TO.C,M5*
X120913498Y735480D03*
X83550232Y735480D03*
X95813500Y735480D03*
X110013499Y735480D03*
X84938505Y4535492D03*
G04 #@! TD*
M02*
