M48
; DRILL file {KiCad (5.99.0-11247-g3f6811f413)} date Sat Sep  4 00:52:19 2021
; FORMAT={2:4/ absolute / inch / suppress leading zeros}
; #@! TF.CreationDate,2021-09-04T00:52:19+03:00
; #@! TF.GenerationSoftware,Kicad,Pcbnew,(5.99.0-11247-g3f6811f413)
; #@! TF.FileFunction,MixedPlating,1,4
FMAT,2
INCH,TZ
; #@! TA.AperFunction,Plated,PTH,ComponentDrill
T1C0.0118
; #@! TA.AperFunction,Plated,PTH,ViaDrill
T2C0.0118
; #@! TA.AperFunction,Plated,PTH,ComponentDrill
T3C0.0118
; #@! TA.AperFunction,Plated,PTH,ViaDrill
T4C0.0157
; #@! TA.AperFunction,Plated,PTH,ViaDrill
T5C0.0160
; #@! TA.AperFunction,Plated,PTH,ComponentDrill
T6C0.0197
; #@! TA.AperFunction,Plated,PTH,ComponentDrill
T7C0.0276
; #@! TA.AperFunction,Plated,PTH,ComponentDrill
T8C0.0300
; #@! TA.AperFunction,Plated,PTH,ComponentDrill
T9C0.0315
; #@! TA.AperFunction,Plated,PTH,ComponentDrill
T10C0.0320
; #@! TA.AperFunction,Plated,PTH,ComponentDrill
T11C0.0394
; #@! TA.AperFunction,Plated,PTH,ComponentDrill
T12C0.0709
; #@! TA.AperFunction,Plated,PTH,ComponentDrill
T13C0.1200
; #@! TA.AperFunction,Plated,PTH,ComponentDrill
T14C0.1693
; #@! TA.AperFunction,NonPlated,NPTH,ComponentDrill
T15C0.0315
; #@! TA.AperFunction,NonPlated,NPTH,ComponentDrill
T16C0.1181
; #@! TA.AperFunction,NonPlated,NPTH,ComponentDrill
T17C0.1693
%
G90
G05
T1
X467Y11894
X2612Y14591
X2619Y12531
X3360Y12337
X5850Y15112
X30763Y1867
X30793Y469
X30881Y2369
X31226Y2162
X34995Y290
X39287Y290
X44877Y290
X47176Y16234
X47176Y15466
X47176Y14443
X47691Y15978
X47869Y15339
X47898Y14276
X47898Y15004
X47904Y13528
X47983Y14659
X48347Y9576
X48554Y9920
X48849Y9458
X49159Y1786
X49508Y13409
X49705Y290
X50246Y9487
T2
X463Y10836
X463Y9852
X660Y17627
X660Y15757
X1743Y10836
X1743Y9852
X3317Y304
X4203Y304
X4991Y2765
X5443Y35304
X5778Y3060
X6664Y15198
X6925Y2765
X7057Y8375
X7156Y20481
X7156Y19694
X7353Y11230
X7353Y9852
X7550Y37903
X7648Y6800
X7648Y6111
X7687Y33139
X7746Y25796
X7746Y2765
X8239Y7686
X8317Y37174
X8455Y16783
X8534Y32588
X8534Y31997
X8928Y11131
X9124Y19005
X9189Y2863
X9223Y36820
X9223Y35836
X9223Y34852
X9223Y33867
X9320Y18119
X9321Y25993
X9420Y19694
X9617Y15560
X9617Y6800
X9617Y6111
X9715Y20875
X9813Y18907
X10109Y12312
X11191Y18218
X11329Y20619
X11354Y403
X12372Y15265
X12471Y37509
X12732Y403
X12963Y5816
X14144Y15659
X14735Y14084
X16998Y38001
X17392Y15127
X17983Y15659
X18770Y13789
X18869Y7685
X19164Y35934
X19951Y34359
X20109Y35954
X21116Y13476
X21228Y34268
X21428Y8375
X22412Y13493
X22412Y9458
X22846Y9497
X22904Y16938
X23181Y17154
X23194Y13690
X23258Y35029
X23494Y27174
X23494Y16682
X23544Y32558
X23554Y25285
X23593Y29005
X23810Y21564
X24085Y27174
X24183Y35344
X24183Y9359
X24479Y14674
X24479Y8493
X24498Y22485
X24971Y19694
X25069Y21269
X25144Y17801
X25365Y16161
X25896Y30107
X26447Y38789
X26447Y37509
X26447Y35541
X26565Y16604
X26743Y24812
X26762Y23415
X26832Y16338
X26895Y16016
X26920Y22194
X26961Y18239
X27338Y18125
X27471Y16328
X27491Y12912
X27491Y12598
X27491Y12214
X27628Y38789
X28908Y38789
X29006Y36722
X29203Y3552
X29203Y993
X29991Y36722
X30089Y38789
X30246Y38060
X30719Y5915
X31073Y37509
X31290Y4517
X31339Y25127
X32097Y31033
X32097Y30482
X32353Y29832
X32372Y35029
X32609Y23434
X33180Y4438
X33315Y28949
X33573Y28769
X33573Y27135
X33632Y33277
X33632Y31899
X33928Y22962
X33967Y35029
X34124Y36722
X34124Y501
X34617Y34419
X34912Y37509
X35010Y31604
X35207Y39084
X35581Y7371
X35699Y4930
X36250Y34044
X36288Y31995
X36290Y31604
X36388Y38789
X36388Y37607
X36467Y32509
X36979Y33474
X37372Y5422
X37668Y34163
X38042Y39989
X38160Y36879
X38445Y32736
X38556Y5053
X38583Y4560
X38652Y31978
X38672Y34340
X38699Y24072
X39006Y4856
X39065Y33356
X39132Y24111
X39164Y32627
X39164Y31643
X39183Y35856
X39479Y4856
X39577Y31604
X39808Y4895
X39951Y31525
X40207Y33334
X40246Y5265
X40561Y33356
X41186Y4895
X41211Y33336
X42589Y23336
X42589Y22962
X43002Y32588
X44085Y4812
X44565Y24812
X44754Y25107
X44754Y23237
X45195Y25155
X45896Y23257
X46526Y29537
X46526Y28257
X46526Y26781
X47412Y21170
X47412Y20481
X49479Y24419
X49479Y23631
X50038Y22653
X50168Y19871
X50266Y3552
X50365Y22647
X50463Y600
X50505Y19248
X50645Y18661
X50660Y22056
X50660Y21466
X51152Y40560
X51447Y6308
X52431Y40560
X52628Y27637
X52648Y28070
X52668Y34989
X52746Y36249
X52855Y27411
X52884Y30117
X52884Y27834
X53061Y11544
X53081Y8946
X53101Y34989
X53120Y36259
X53130Y12499
X53140Y27253
X53140Y11850
X53150Y27598
X53180Y8454
X53180Y6584
X53189Y30098
X53189Y12184
X53209Y12824
X53219Y31564
X53239Y32194
X53298Y4694
X53445Y12470
X53465Y6544
X53494Y30088
X53494Y5206
X53514Y8769
X53544Y36259
X53544Y28680
X53544Y12824
X53573Y10501
X53593Y10245
X53613Y33474
X53632Y29861
X53662Y28464
X53681Y29606
X53711Y37411
X53711Y6289
X53770Y33739
X53780Y34025
X53780Y12578
X53800Y28680
X53809Y32194
X53809Y30088
X53809Y6604
X53849Y10501
X53849Y10186
X53888Y4812
X53898Y29812
X53947Y26328
X53967Y36259
X53967Y28503
X54065Y30974
X54065Y34025
X54065Y33749
X54065Y15304
X54075Y35255
X54075Y34920
X54085Y3828
X54105Y27509
X54115Y27233
X54129Y26116
X54134Y30009
X54134Y28680
X54134Y12578
X54134Y11653
X54134Y11397
X54134Y10501
X54134Y10265
X54134Y7893
X54134Y7558
X54164Y23444
X54174Y22401
X54189Y31146
X54223Y14950
X54302Y5186
X54311Y15550
X54341Y34871
X54351Y36259
X54351Y34054
X54351Y33749
X54361Y35255
X54361Y23602
X54361Y23287
X54361Y15216
X54361Y14104
X54361Y3838
X54380Y26111
X54469Y3237
X54479Y22922
X54479Y3543
X54528Y34645
X54577Y34989
X54617Y15560
X54626Y34054
X54636Y33759
X54636Y23602
X54636Y23287
X54636Y22617
X54636Y14113
X54636Y3838
X54646Y35255
X54646Y15304
X54646Y14369
X54784Y34753
X54784Y3552
X54912Y9950
X54922Y35255
X54922Y34999
X54922Y34054
X54922Y23602
X54922Y23277
X54922Y22617
X54922Y15550
X54922Y14369
X54922Y14084
X54922Y3838
X54931Y33759
X54931Y15226
X55158Y9940
T3
X13357Y5383
X13357Y4989
X13357Y4596
X13357Y4202
X28416Y3769
X28416Y3375
X28416Y1978
X28416Y1584
T4
X2235Y10639
X6565Y12607
X6591Y24995
X6762Y12903
X6861Y22745
X7004Y24995
X7057Y30619
X7057Y13530
X7057Y13198
X7424Y12771
X7727Y16254
X7746Y18611
X7845Y17332
X8239Y27765
X9026Y22647
X9223Y23926
X9420Y27765
X9715Y24517
X10207Y10048
X10207Y8474
X11377Y18622
X11782Y33670
X11782Y32883
X11782Y32096
X11782Y31308
X11782Y30521
X11782Y29733
X11782Y28946
X11782Y28159
X11782Y27371
X11782Y26584
X11782Y25796
X11782Y25009
X11782Y24222
X11782Y11623
X11782Y10048
X12269Y35998
X13357Y12804
X13357Y11623
X14144Y8375
X14144Y7391
X15128Y12509
X15128Y11525
X15128Y10442
X15128Y9359
X15128Y8375
X15128Y7391
X15522Y14478
X16605Y34359
X16900Y7391
X17195Y12607
X17491Y34359
X17589Y10245
X17589Y9556
X17786Y7391
X17796Y37322
X18180Y13887
X18371Y13488
X18376Y12607
X18667Y13193
X18869Y10245
X18869Y9556
X19951Y13887
X19951Y12903
X20050Y10147
X20050Y8966
X20050Y7686
X20345Y13296
X20345Y9556
X20542Y13887
X20542Y8966
X20542Y7686
X20739Y12903
X20739Y10147
X21821Y7194
X23298Y9753
X23652Y29399
X23672Y30068
X23689Y31714
X24093Y29395
X24282Y15068
X25542Y7400
X25857Y12804
X25857Y10245
X25994Y15088
X26152Y13100
X27451Y11564
X28061Y34517
X28120Y31013
X28691Y35442
X29321Y29576
X32530Y28139
X32550Y26170
X33632Y24911
X34109Y1308
X34144Y2096
X34400Y2765
X36998Y4261
X40325Y3611
X40522Y36230
X40522Y34556
X40857Y5147
X41664Y3985
X41802Y34556
X44892Y4438
X45680Y4438
X48416Y7883
X49931Y7883
X50365Y15068
X50366Y17136
X50680Y12373
X50680Y17450
X52136Y9556
X52136Y8966
X52136Y8375
X52136Y7785
X52136Y5718
X52136Y5029
X52136Y4340
X52333Y34852
X52333Y34261
X52333Y33670
X52628Y32194
X52628Y31407
X52727Y13690
X52727Y12804
X52727Y11820
X52924Y33670
X53022Y29733
X53120Y2667
X53120Y1978
X53120Y1387
X53120Y796
X53514Y19005
X53514Y17726
X53514Y16249
X53711Y18415
X53711Y2667
X53711Y1978
X53711Y1387
X53711Y796
X54006Y2371
X54105Y17922
X54105Y6584
X54302Y2667
X54302Y1978
X54302Y1387
X54302Y796
X54892Y2607
X54892Y1978
X54892Y1387
X54892Y796
T5
X199Y18321
X9400Y18552
X9657Y18235
X17884Y33947
X33566Y31055
X47315Y18674
X47684Y19037
X48645Y19642
X48896Y18997
X49648Y19328
X50266Y18983
X55089Y21466
X55089Y20678
X55089Y19104
X55089Y18316
X55089Y17529
X55876Y41938
X55876Y41151
X55876Y40363
X55876Y39576
X55876Y38789
X55876Y38001
X55876Y37214
X55876Y22253
X55876Y21466
X55876Y20678
X55876Y19104
X55876Y18316
X55876Y17529
X56270Y36426
X56270Y35639
X56270Y34852
X56270Y34064
X56270Y32883
X56270Y32096
X56270Y31308
X56270Y30521
X56270Y28946
X56270Y28159
X56270Y27371
X56270Y26584
X56270Y25403
X56270Y24615
X56270Y23828
X56270Y23041
X56270Y16741
X56270Y15954
X56270Y15167
X56270Y14379
X56270Y13198
X56270Y12411
X56270Y11623
X56270Y10836
X56270Y9261
X56270Y8474
X56270Y7686
X56270Y6899
X56270Y5718
X56270Y4930
X56270Y4143
X56270Y3356
X56270Y2568
X56270Y1781
X56270Y993
X57057Y36426
X57057Y35639
X57057Y34852
X57057Y34064
X57057Y32883
X57057Y32096
X57057Y31308
X57057Y30521
X57057Y28946
X57057Y28159
X57057Y27371
X57057Y26584
X57057Y25403
X57057Y24615
X57057Y23828
X57057Y23041
X57057Y16741
X57057Y15954
X57057Y15167
X57057Y14379
X57057Y13198
X57057Y12411
X57057Y11623
X57057Y10836
X57057Y9261
X57057Y8474
X57057Y7686
X57057Y6899
X57057Y5718
X57057Y4930
X57057Y4143
X57057Y3356
X57057Y2568
X57057Y1781
X57057Y993
X57845Y36426
X57845Y35639
X57845Y34852
X57845Y34064
X57845Y32883
X57845Y32096
X57845Y31308
X57845Y30521
X57845Y28946
X57845Y28159
X57845Y27371
X57845Y26584
X57845Y25403
X57845Y24615
X57845Y23828
X57845Y23041
X57845Y16741
X57845Y15954
X57845Y15167
X57845Y14379
X57845Y13198
X57845Y12411
X57845Y11623
X57845Y10836
X57845Y9261
X57845Y8474
X57845Y7686
X57845Y6899
X57845Y5718
X57845Y4930
X57845Y4143
X57845Y3356
X57845Y2568
X57845Y1781
X57845Y993
X58632Y36426
X58632Y35639
X58632Y34852
X58632Y34064
X58632Y32883
X58632Y32096
X58632Y31308
X58632Y30521
X58632Y28946
X58632Y28159
X58632Y27371
X58632Y26584
X58632Y25403
X58632Y24615
X58632Y23828
X58632Y23041
X58632Y16741
X58632Y15954
X58632Y15167
X58632Y14379
X58632Y13198
X58632Y12411
X58632Y11623
X58632Y10836
X58632Y9261
X58632Y8474
X58632Y7686
X58632Y6899
X58632Y5718
X58632Y4930
X58632Y4143
X58632Y3356
X58632Y2568
X58632Y1781
X58632Y993
X59420Y36426
X59420Y35639
X59420Y34852
X59420Y34064
X59420Y32883
X59420Y32096
X59420Y31308
X59420Y30521
X59420Y28946
X59420Y28159
X59420Y27371
X59420Y26584
X59420Y25403
X59420Y24615
X59420Y23828
X59420Y23041
X59420Y16741
X59420Y15954
X59420Y15167
X59420Y14379
X59420Y13198
X59420Y12411
X59420Y11623
X59420Y10836
X59420Y9261
X59420Y8474
X59420Y7686
X59420Y6899
X59420Y5718
X59420Y4930
X59420Y4143
X59420Y3356
X59420Y2568
X59420Y1781
X59420Y993
X60207Y36426
X60207Y35639
X60207Y34852
X60207Y34064
X60207Y32883
X60207Y32096
X60207Y31308
X60207Y30521
X60207Y28946
X60207Y28159
X60207Y27371
X60207Y26584
X60207Y25403
X60207Y24615
X60207Y23828
X60207Y23041
X60207Y16741
X60207Y15954
X60207Y15167
X60207Y14379
X60207Y13198
X60207Y12411
X60207Y11623
X60207Y10836
X60207Y9261
X60207Y8474
X60207Y7686
X60207Y6899
X60207Y5718
X60207Y4930
X60207Y4143
X60207Y3356
X60207Y2568
X60207Y1781
X60207Y993
X60994Y36426
X60994Y35639
X60994Y34852
X60994Y34064
X60994Y32883
X60994Y32096
X60994Y31308
X60994Y30521
X60994Y28946
X60994Y28159
X60994Y27371
X60994Y26584
X60994Y25403
X60994Y24615
X60994Y23828
X60994Y23041
X60994Y16741
X60994Y15954
X60994Y15167
X60994Y14379
X60994Y13198
X60994Y12411
X60994Y11623
X60994Y10836
X60994Y9261
X60994Y8474
X60994Y7686
X60994Y6899
X60994Y5718
X60994Y4930
X60994Y4143
X60994Y3356
X60994Y2568
X60994Y1781
X60994Y993
X61782Y36426
X61782Y35639
X61782Y34852
X61782Y34064
X61782Y32883
X61782Y32096
X61782Y31308
X61782Y30521
X61782Y28946
X61782Y28159
X61782Y27371
X61782Y26584
X61782Y25403
X61782Y24615
X61782Y23828
X61782Y23041
X61782Y16741
X61782Y15954
X61782Y15167
X61782Y14379
X61782Y13198
X61782Y12411
X61782Y11623
X61782Y10836
X61782Y9261
X61782Y8474
X61782Y7686
X61782Y6899
X61782Y5718
X61782Y4930
X61782Y4143
X61782Y3356
X61782Y2568
X61782Y1781
X62569Y36426
X62569Y35639
X62569Y34852
X62569Y34064
X62569Y32883
X62569Y32096
X62569Y31308
X62569Y30521
X62569Y28946
X62569Y28159
X62569Y27371
X62569Y26584
X62569Y25403
X62569Y24615
X62569Y23828
X62569Y23041
X62569Y16741
X62569Y15954
X62569Y15167
X62569Y14379
X62569Y13198
X62569Y12411
X62569Y11623
X62569Y10836
X62569Y9261
X62569Y8474
X62569Y7686
X62569Y6899
X62569Y5718
X62569Y4930
X62569Y4143
X62569Y3356
X62569Y2568
T6
X6270Y39576
X7254Y39576
X10010Y16446
X11408Y17647
X11408Y16859
X12274Y34359
X13160Y34359
X14046Y34359
X14931Y34359
X15916Y35442
X16998Y39576
X18376Y36033
X19164Y35226
X19656Y39576
X19656Y36013
X19754Y37509
X20050Y35226
X20542Y36013
X20935Y35226
X22510Y35226
X23002Y36013
X23298Y39576
X23298Y38001
X23790Y31308
X23790Y30521
X23928Y22883
X24676Y21663
X24676Y20875
X24676Y20088
X24676Y19300
X24676Y18513
X24676Y17726
X24892Y6525
X24971Y38001
X25266Y39576
X25561Y18513
X25581Y20875
X25581Y20088
X25581Y19300
X25680Y6525
X25857Y38001
X25857Y15856
X26054Y34852
X26152Y16840
X26447Y39576
X26467Y6525
X26743Y14478
X26939Y34852
X27038Y38001
X27254Y6525
X27727Y39576
X28042Y6525
X28317Y38001
X28829Y6525
X28908Y39576
X29361Y5580
X29498Y38001
X30148Y5580
X30148Y4674
X30187Y39576
X30443Y6485
X31231Y6485
X31270Y23434
X32156Y23434
X33042Y23434
X33140Y30226
X33140Y29438
X33908Y6800
X33947Y23434
X34223Y32489
X34617Y31702
X34715Y33277
X35010Y5422
X35010Y3946
X35207Y32489
X35404Y39576
X35601Y38198
X36290Y39576
X36979Y31702
X40306Y32568
X41211Y32568
X42117Y32568
X42392Y6013
X42392Y5226
X42392Y4438
X42392Y3651
X42491Y33375
X42589Y25206
X43376Y33375
X43869Y32588
X44164Y39576
X45542Y39576
X47018Y39576
X48002Y6210
X48790Y6210
X49577Y6210
X50365Y6210
X54695Y39576
X54695Y38296
T7
X31703Y5491
X32018Y4802
X32333Y5491
X32648Y4802
X32963Y5491
T8
X10686Y43940
X11572Y41479
X11670Y43940
X12654Y43940
X12851Y41479
X13639Y43940
X14131Y41479
X14623Y43940
X15410Y41479
X15607Y43940
X16591Y43940
X16690Y41479
X17576Y43940
X17969Y41479
X18560Y43940
X19249Y41479
X19544Y43940
X20529Y43940
X20529Y41479
X21513Y43940
X21808Y41479
X22399Y43644
X23088Y44235
X23088Y41479
X23678Y43644
X24367Y44235
X24367Y41479
X24958Y43644
X25647Y44235
X25647Y41479
X26237Y43644
X26926Y44235
X26926Y41479
X27517Y43644
X28206Y44235
X28206Y41479
X28796Y43644
X29485Y44235
X29485Y41479
X30076Y43644
X30765Y44235
X30765Y41479
X31355Y43644
X32044Y44235
X32044Y41479
X32635Y43644
X33324Y44235
X33324Y41479
X33914Y43644
X34603Y44235
X34603Y41479
X35194Y43644
X35883Y44235
X35883Y41479
X36473Y43644
X37162Y44235
X37162Y41479
X37753Y43644
X38442Y44235
X38442Y41479
X39032Y43644
X39721Y44235
X39721Y41479
X40312Y43644
X41001Y41479
X41296Y43940
X42280Y43940
X42280Y41479
X43265Y43940
X43560Y41479
X44249Y43940
X44840Y41479
X45233Y43940
X46119Y41479
X46217Y43940
X47202Y43940
X47399Y41479
X48186Y43940
X48678Y41479
X49170Y43940
X49958Y41479
X50154Y43940
X51139Y43940
X51237Y41479
X52123Y43940
X52517Y41479
X53107Y43940
X54091Y43940
T9
X30581Y3651
X31369Y3651
X32156Y3651
X32943Y3651
X33731Y3651
T10
X8239Y39539
X8239Y38039
X8790Y15700
X8790Y14200
X9321Y39539
X9321Y38039
X10798Y39539
X10798Y38039
X11880Y39539
X11880Y38039
X12963Y39539
X12963Y38039
X14046Y39539
X14046Y38039
X15128Y39539
X15128Y38039
X16211Y39539
X16211Y38039
X16348Y13434
X16348Y12434
X16348Y11434
X16348Y10434
X16348Y9434
X16348Y8434
X17786Y39539
X17786Y38039
X18869Y39539
X18869Y38039
X20443Y39539
X20443Y38039
X21526Y39539
X21526Y38039
X22510Y39539
X22510Y38039
X24085Y39618
X24085Y38118
X30680Y36586
X30680Y35086
X31369Y39539
X31369Y38039
X31664Y36586
X31664Y35086
X32451Y39539
X32451Y38039
X33042Y36586
X33042Y35086
X33534Y39539
X33534Y38039
X34617Y39539
X34617Y38039
X35207Y36586
X35207Y35086
X36290Y36586
X36290Y35086
X37372Y39539
X37372Y38039
X37372Y36586
X37372Y35086
X38554Y39539
X38554Y38039
X38652Y36586
X38652Y35086
X39735Y39539
X39735Y38039
X42589Y36586
X42589Y35086
X43672Y36586
X43672Y35086
X44754Y36586
X44754Y35086
X45837Y36586
X45837Y35086
X46920Y36586
X46920Y35086
X48002Y36586
X48002Y35086
X49085Y36586
X49085Y35086
X49479Y39539
X49479Y38039
X50168Y36586
X50168Y35086
X51152Y39539
X51152Y38039
X51250Y36586
X51250Y35086
X52235Y39539
X52235Y38039
X53514Y39539
X53514Y38039
T11
X597Y35997
X597Y34997
X597Y33997
X597Y32997
X597Y31997
X597Y30997
X597Y29997
X597Y28997
X597Y27997
X597Y26997
X597Y25997
X597Y24997
X620Y8474
X731Y4537
X1565Y35997
X1565Y34997
X1565Y33997
X1565Y32997
X1565Y31997
X1565Y30997
X1565Y29997
X1565Y28997
X1565Y27997
X1565Y26997
X1565Y25997
X1565Y24997
X1620Y8474
X1731Y4537
X2597Y35997
X2597Y34997
X2597Y33997
X2597Y32997
X2597Y31997
X2597Y30997
X2597Y29997
X2597Y28997
X2597Y27997
X2597Y26997
X2597Y25997
X2597Y24997
X2620Y8474
X2731Y4537
X3597Y35997
X3597Y34997
X3597Y33997
X3597Y32997
X3597Y31997
X3597Y30997
X3597Y29997
X3597Y28997
X3597Y27997
X3597Y26997
X3597Y25997
X3597Y24997
X3620Y8474
X3731Y4537
X4597Y35997
X4597Y34997
X4597Y33997
X4597Y32997
X4597Y31997
X4597Y30997
X4597Y29997
X4597Y28997
X4597Y27997
X4597Y26997
X4597Y25997
X4597Y24997
X4620Y8474
X5252Y4340
X5286Y1426
X5620Y8474
X6014Y28995
X6014Y27995
X6014Y26995
X6014Y25995
X6014Y24995
X6270Y1426
X6532Y4340
X7254Y1426
X7811Y4340
X8239Y1426
X9091Y4340
X9223Y1426
X10207Y1426
X10567Y4340
X11191Y1426
X12043Y4340
X12176Y1426
T12
X4213Y6505
X6378Y6505
T13
X11348Y15434
X11348Y6434
T14
X3005Y44825
X60371Y44727
T15
X36191Y4438
X37766Y4438
T16
X1339Y6505
T17
X2926Y2230
X51426Y2230
T7
X30896Y4891G85X30896Y5403
G05
X33770Y4891G85X33770Y5403
G05
T11
X6743Y21623G85X6743Y22017
G05
X7687Y22411G85X7687Y22804
G05
X9144Y21623G85X9144Y22017
G05
X9853Y22411G85X9853Y22804
G05
X11309Y21623G85X11309Y22017
G05
T0
M30
