G04 #@! TF.GenerationSoftware,KiCad,Pcbnew,(5.99.0-11164-g062c4fda62)*
G04 #@! TF.CreationDate,2021-07-14T15:35:42+03:00*
G04 #@! TF.ProjectId,hellen88bmw,68656c6c-656e-4383-9862-6d772e6b6963,rev?*
G04 #@! TF.SameCoordinates,PX3d1b110PY9269338*
G04 #@! TF.FileFunction,Paste,Top*
G04 #@! TF.FilePolarity,Positive*
%FSLAX46Y46*%
G04 Gerber Fmt 4.6, Leading zero omitted, Abs format (unit mm)*
G04 Created by KiCad (PCBNEW (5.99.0-11164-g062c4fda62)) date 2021-07-14 15:35:42*
%MOMM*%
%LPD*%
G01*
G04 APERTURE LIST*
%ADD10R,1.397000X0.889000*%
%ADD11R,0.203200X1.524000*%
%ADD12R,3.050000X2.750000*%
%ADD13R,2.200000X1.200000*%
%ADD14R,0.900000X1.700000*%
%ADD15R,0.900000X0.400000*%
%ADD16O,0.000001X0.000001*%
%ADD17O,0.250000X0.500000*%
%ADD18O,0.500000X0.250000*%
%ADD19R,1.524000X0.203200*%
%ADD20R,0.889000X1.397000*%
G04 APERTURE END LIST*
D10*
G04 #@! TO.C,JP1*
X21926000Y99475500D03*
D11*
X21926000Y99793000D03*
X21926000Y97253000D03*
D10*
X21926000Y97570500D03*
G04 #@! TD*
G04 #@! TO.C,JP3*
X30176000Y99475500D03*
D11*
X30176000Y99793000D03*
X30176000Y97253000D03*
D10*
X30176000Y97570500D03*
G04 #@! TD*
G04 #@! TO.C,JP4*
X35676000Y99475500D03*
D11*
X35676000Y99793000D03*
D10*
X35676000Y97570500D03*
D11*
X35676000Y97253000D03*
G04 #@! TD*
G04 #@! TO.C,JP5*
X45176000Y99793000D03*
D10*
X45176000Y99475500D03*
D11*
X45176000Y97253000D03*
D10*
X45176000Y97570500D03*
G04 #@! TD*
G04 #@! TO.C,JP7*
X51926000Y99475500D03*
D11*
X51926000Y99793000D03*
D10*
X51926000Y97570500D03*
D11*
X51926000Y97253000D03*
G04 #@! TD*
D10*
G04 #@! TO.C,JP14*
X79676000Y99475500D03*
D11*
X79676000Y99793000D03*
D10*
X79676000Y97570500D03*
D11*
X79676000Y97253000D03*
G04 #@! TD*
G04 #@! TO.C,JP16*
X85176000Y99793000D03*
D10*
X85176000Y99475500D03*
X85176000Y97570500D03*
D11*
X85176000Y97253000D03*
G04 #@! TD*
G04 #@! TO.C,JP17*
X87926000Y99793000D03*
D10*
X87926000Y99475500D03*
X87926000Y97570500D03*
D11*
X87926000Y97253000D03*
G04 #@! TD*
G04 #@! TO.C,JP20*
X94926000Y92293000D03*
D10*
X94926000Y91975500D03*
X94926000Y90070500D03*
D11*
X94926000Y89753000D03*
G04 #@! TD*
G04 #@! TO.C,JP21*
X98176000Y92293000D03*
D10*
X98176000Y91975500D03*
D11*
X98176000Y89753000D03*
D10*
X98176000Y90070500D03*
G04 #@! TD*
G04 #@! TO.C,JP22*
X110926000Y91975500D03*
D11*
X110926000Y92293000D03*
D10*
X110926000Y90070500D03*
D11*
X110926000Y89753000D03*
G04 #@! TD*
D10*
G04 #@! TO.C,JP23*
X116426000Y91975500D03*
D11*
X116426000Y92293000D03*
X116426000Y89753000D03*
D10*
X116426000Y90070500D03*
G04 #@! TD*
G04 #@! TO.C,JP24*
X121926000Y91975500D03*
D11*
X121926000Y92293000D03*
D10*
X121926000Y90070500D03*
D11*
X121926000Y89753000D03*
G04 #@! TD*
G04 #@! TO.C,JP25*
X125676000Y99793000D03*
D10*
X125676000Y99475500D03*
X125676000Y97570500D03*
D11*
X125676000Y97253000D03*
G04 #@! TD*
G04 #@! TO.C,JP26*
X129926000Y99793000D03*
D10*
X129926000Y99475500D03*
D11*
X129926000Y97253000D03*
D10*
X129926000Y97570500D03*
G04 #@! TD*
G04 #@! TO.C,JP27*
X135926000Y99475500D03*
D11*
X135926000Y99793000D03*
D10*
X135926000Y97570500D03*
D11*
X135926000Y97253000D03*
G04 #@! TD*
D10*
G04 #@! TO.C,JP29*
X24676000Y99475500D03*
D11*
X24676000Y99793000D03*
X24676000Y97253000D03*
D10*
X24676000Y97570500D03*
G04 #@! TD*
G04 #@! TO.C,JP31*
X32926000Y99475500D03*
D11*
X32926000Y99793000D03*
D10*
X32926000Y97570500D03*
D11*
X32926000Y97253000D03*
G04 #@! TD*
D10*
G04 #@! TO.C,JP32*
X41176000Y99475500D03*
D11*
X41176000Y99793000D03*
D10*
X41176000Y97570500D03*
D11*
X41176000Y97253000D03*
G04 #@! TD*
D10*
G04 #@! TO.C,JP33*
X47926000Y99475500D03*
D11*
X47926000Y99793000D03*
X47926000Y97253000D03*
D10*
X47926000Y97570500D03*
G04 #@! TD*
D11*
G04 #@! TO.C,JP35*
X55926000Y99793000D03*
D10*
X55926000Y99475500D03*
D11*
X55926000Y97253000D03*
D10*
X55926000Y97570500D03*
G04 #@! TD*
G04 #@! TO.C,JP41*
X77926000Y91975500D03*
D11*
X77926000Y92293000D03*
D10*
X77926000Y90070500D03*
D11*
X77926000Y89753000D03*
G04 #@! TD*
D10*
G04 #@! TO.C,JP42*
X80426000Y91975500D03*
D11*
X80426000Y92293000D03*
D10*
X80426000Y90070500D03*
D11*
X80426000Y89753000D03*
G04 #@! TD*
G04 #@! TO.C,JP43*
X82426000Y99793000D03*
D10*
X82426000Y99475500D03*
D11*
X82426000Y97253000D03*
D10*
X82426000Y97570500D03*
G04 #@! TD*
D11*
G04 #@! TO.C,JP44*
X86676000Y92293000D03*
D10*
X86676000Y91975500D03*
D11*
X86676000Y89753000D03*
D10*
X86676000Y90070500D03*
G04 #@! TD*
G04 #@! TO.C,JP46*
X89426000Y91975500D03*
D11*
X89426000Y92293000D03*
X89426000Y89753000D03*
D10*
X89426000Y90070500D03*
G04 #@! TD*
D11*
G04 #@! TO.C,JP47*
X92176000Y92293000D03*
D10*
X92176000Y91975500D03*
X92176000Y90070500D03*
D11*
X92176000Y89753000D03*
G04 #@! TD*
G04 #@! TO.C,JP50*
X113676000Y92293000D03*
D10*
X113676000Y91975500D03*
X113676000Y90070500D03*
D11*
X113676000Y89753000D03*
G04 #@! TD*
D10*
G04 #@! TO.C,JP51*
X119176000Y91975500D03*
D11*
X119176000Y92293000D03*
X119176000Y89753000D03*
D10*
X119176000Y90070500D03*
G04 #@! TD*
G04 #@! TO.C,JP52*
X124676000Y91975500D03*
D11*
X124676000Y92293000D03*
X124676000Y89753000D03*
D10*
X124676000Y90070500D03*
G04 #@! TD*
D11*
G04 #@! TO.C,JP54*
X132676000Y99793000D03*
D10*
X132676000Y99475500D03*
D11*
X132676000Y97253000D03*
D10*
X132676000Y97570500D03*
G04 #@! TD*
G04 #@! TO.C,JP56*
X27426000Y99475500D03*
D11*
X27426000Y99793000D03*
D10*
X27426000Y97570500D03*
D11*
X27426000Y97253000D03*
G04 #@! TD*
G04 #@! TO.C,JP73*
X83926000Y92293000D03*
D10*
X83926000Y91975500D03*
D11*
X83926000Y89753000D03*
D10*
X83926000Y90070500D03*
G04 #@! TD*
D11*
G04 #@! TO.C,JP77*
X95926000Y99793000D03*
D10*
X95926000Y99475500D03*
X95926000Y97570500D03*
D11*
X95926000Y97253000D03*
G04 #@! TD*
D10*
G04 #@! TO.C,JP78*
X100926000Y99475500D03*
D11*
X100926000Y99793000D03*
D10*
X100926000Y97570500D03*
D11*
X100926000Y97253000D03*
G04 #@! TD*
D10*
G04 #@! TO.C,JP85*
X130176000Y91975500D03*
D11*
X130176000Y92293000D03*
D10*
X130176000Y90070500D03*
D11*
X130176000Y89753000D03*
G04 #@! TD*
G04 #@! TO.C,JP86*
X127426000Y92293000D03*
D10*
X127426000Y91975500D03*
X127426000Y90070500D03*
D11*
X127426000Y89753000D03*
G04 #@! TD*
G04 #@! TO.C,JP59*
X38426000Y99793000D03*
D10*
X38426000Y99475500D03*
D11*
X38426000Y97253000D03*
D10*
X38426000Y97570500D03*
G04 #@! TD*
D11*
G04 #@! TO.C,JP49*
X108176000Y92293000D03*
D10*
X108176000Y91975500D03*
X108176000Y90070500D03*
D11*
X108176000Y89753000D03*
G04 #@! TD*
D12*
G04 #@! TO.C,Q1*
X144351000Y31548000D03*
X147701000Y31548000D03*
X147701000Y28498000D03*
X144351000Y28498000D03*
D13*
X139726000Y32303000D03*
X139726000Y27743000D03*
G04 #@! TD*
D12*
G04 #@! TO.C,Q6*
X144351000Y91548000D03*
X147701000Y88498000D03*
X144351000Y88498000D03*
X147701000Y91548000D03*
D13*
X139726000Y92303000D03*
X139726000Y87743000D03*
G04 #@! TD*
D12*
G04 #@! TO.C,Q2*
X147701000Y38498000D03*
X144351000Y41548000D03*
X144351000Y38498000D03*
X147701000Y41548000D03*
D13*
X139726000Y42303000D03*
X139726000Y37743000D03*
G04 #@! TD*
D12*
G04 #@! TO.C,Q5*
X147701000Y81548000D03*
X147701000Y78498000D03*
X144351000Y78498000D03*
X144351000Y81548000D03*
D13*
X139726000Y82303000D03*
X139726000Y77743000D03*
G04 #@! TD*
D12*
G04 #@! TO.C,Q3*
X147701000Y58998000D03*
X144351000Y58998000D03*
X147701000Y62048000D03*
X144351000Y62048000D03*
D13*
X139726000Y62803000D03*
X139726000Y58243000D03*
G04 #@! TD*
D12*
G04 #@! TO.C,Q4*
X147701000Y68998000D03*
X144351000Y68998000D03*
X147701000Y72048000D03*
X144351000Y72048000D03*
D13*
X139726000Y72803000D03*
X139726000Y68243000D03*
G04 #@! TD*
G04 #@! TO.C,R1*
G36*
G01*
X91201000Y8198000D02*
X91201000Y8748000D01*
G75*
G02*
X91401000Y8948000I200000J0D01*
G01*
X91801000Y8948000D01*
G75*
G02*
X92001000Y8748000I0J-200000D01*
G01*
X92001000Y8198000D01*
G75*
G02*
X91801000Y7998000I-200000J0D01*
G01*
X91401000Y7998000D01*
G75*
G02*
X91201000Y8198000I0J200000D01*
G01*
G37*
G36*
G01*
X92851000Y8198000D02*
X92851000Y8748000D01*
G75*
G02*
X93051000Y8948000I200000J0D01*
G01*
X93451000Y8948000D01*
G75*
G02*
X93651000Y8748000I0J-200000D01*
G01*
X93651000Y8198000D01*
G75*
G02*
X93451000Y7998000I-200000J0D01*
G01*
X93051000Y7998000D01*
G75*
G02*
X92851000Y8198000I0J200000D01*
G01*
G37*
G04 #@! TD*
G04 #@! TO.C,D14*
G36*
G01*
X-94299000Y92516750D02*
X-94299000Y93029250D01*
G75*
G02*
X-94080250Y93248000I218750J0D01*
G01*
X-93642750Y93248000D01*
G75*
G02*
X-93424000Y93029250I0J-218750D01*
G01*
X-93424000Y92516750D01*
G75*
G02*
X-93642750Y92298000I-218750J0D01*
G01*
X-94080250Y92298000D01*
G75*
G02*
X-94299000Y92516750I0J218750D01*
G01*
G37*
G36*
G01*
X-92724000Y92516750D02*
X-92724000Y93029250D01*
G75*
G02*
X-92505250Y93248000I218750J0D01*
G01*
X-92067750Y93248000D01*
G75*
G02*
X-91849000Y93029250I0J-218750D01*
G01*
X-91849000Y92516750D01*
G75*
G02*
X-92067750Y92298000I-218750J0D01*
G01*
X-92505250Y92298000D01*
G75*
G02*
X-92724000Y92516750I0J218750D01*
G01*
G37*
G04 #@! TD*
G04 #@! TO.C,R10*
G36*
G01*
X137601000Y17448000D02*
X134751000Y17448000D01*
G75*
G02*
X134501000Y17698000I0J250000D01*
G01*
X134501000Y18423000D01*
G75*
G02*
X134751000Y18673000I250000J0D01*
G01*
X137601000Y18673000D01*
G75*
G02*
X137851000Y18423000I0J-250000D01*
G01*
X137851000Y17698000D01*
G75*
G02*
X137601000Y17448000I-250000J0D01*
G01*
G37*
G36*
G01*
X137601000Y23373000D02*
X134751000Y23373000D01*
G75*
G02*
X134501000Y23623000I0J250000D01*
G01*
X134501000Y24348000D01*
G75*
G02*
X134751000Y24598000I250000J0D01*
G01*
X137601000Y24598000D01*
G75*
G02*
X137851000Y24348000I0J-250000D01*
G01*
X137851000Y23623000D01*
G75*
G02*
X137601000Y23373000I-250000J0D01*
G01*
G37*
G04 #@! TD*
G04 #@! TO.C,D23*
G36*
G01*
X-93799000Y76096750D02*
X-93799000Y76609250D01*
G75*
G02*
X-93580250Y76828000I218750J0D01*
G01*
X-93142750Y76828000D01*
G75*
G02*
X-92924000Y76609250I0J-218750D01*
G01*
X-92924000Y76096750D01*
G75*
G02*
X-93142750Y75878000I-218750J0D01*
G01*
X-93580250Y75878000D01*
G75*
G02*
X-93799000Y76096750I0J218750D01*
G01*
G37*
G36*
G01*
X-92224000Y76096750D02*
X-92224000Y76609250D01*
G75*
G02*
X-92005250Y76828000I218750J0D01*
G01*
X-91567750Y76828000D01*
G75*
G02*
X-91349000Y76609250I0J-218750D01*
G01*
X-91349000Y76096750D01*
G75*
G02*
X-91567750Y75878000I-218750J0D01*
G01*
X-92005250Y75878000D01*
G75*
G02*
X-92224000Y76096750I0J218750D01*
G01*
G37*
G04 #@! TD*
G04 #@! TO.C,D25*
G36*
G01*
X-97799000Y54946750D02*
X-97799000Y55459250D01*
G75*
G02*
X-97580250Y55678000I218750J0D01*
G01*
X-97142750Y55678000D01*
G75*
G02*
X-96924000Y55459250I0J-218750D01*
G01*
X-96924000Y54946750D01*
G75*
G02*
X-97142750Y54728000I-218750J0D01*
G01*
X-97580250Y54728000D01*
G75*
G02*
X-97799000Y54946750I0J218750D01*
G01*
G37*
G36*
G01*
X-96224000Y54946750D02*
X-96224000Y55459250D01*
G75*
G02*
X-96005250Y55678000I218750J0D01*
G01*
X-95567750Y55678000D01*
G75*
G02*
X-95349000Y55459250I0J-218750D01*
G01*
X-95349000Y54946750D01*
G75*
G02*
X-95567750Y54728000I-218750J0D01*
G01*
X-96005250Y54728000D01*
G75*
G02*
X-96224000Y54946750I0J218750D01*
G01*
G37*
G04 #@! TD*
G04 #@! TO.C,D8*
G36*
G01*
X-97549000Y60946750D02*
X-97549000Y61459250D01*
G75*
G02*
X-97330250Y61678000I218750J0D01*
G01*
X-96892750Y61678000D01*
G75*
G02*
X-96674000Y61459250I0J-218750D01*
G01*
X-96674000Y60946750D01*
G75*
G02*
X-96892750Y60728000I-218750J0D01*
G01*
X-97330250Y60728000D01*
G75*
G02*
X-97549000Y60946750I0J218750D01*
G01*
G37*
G36*
G01*
X-95974000Y60946750D02*
X-95974000Y61459250D01*
G75*
G02*
X-95755250Y61678000I218750J0D01*
G01*
X-95317750Y61678000D01*
G75*
G02*
X-95099000Y61459250I0J-218750D01*
G01*
X-95099000Y60946750D01*
G75*
G02*
X-95317750Y60728000I-218750J0D01*
G01*
X-95755250Y60728000D01*
G75*
G02*
X-95974000Y60946750I0J218750D01*
G01*
G37*
G04 #@! TD*
G04 #@! TO.C,D27*
G36*
G01*
X-99724000Y33696750D02*
X-99724000Y34209250D01*
G75*
G02*
X-99505250Y34428000I218750J0D01*
G01*
X-99067750Y34428000D01*
G75*
G02*
X-98849000Y34209250I0J-218750D01*
G01*
X-98849000Y33696750D01*
G75*
G02*
X-99067750Y33478000I-218750J0D01*
G01*
X-99505250Y33478000D01*
G75*
G02*
X-99724000Y33696750I0J218750D01*
G01*
G37*
G36*
G01*
X-98149000Y33696750D02*
X-98149000Y34209250D01*
G75*
G02*
X-97930250Y34428000I218750J0D01*
G01*
X-97492750Y34428000D01*
G75*
G02*
X-97274000Y34209250I0J-218750D01*
G01*
X-97274000Y33696750D01*
G75*
G02*
X-97492750Y33478000I-218750J0D01*
G01*
X-97930250Y33478000D01*
G75*
G02*
X-98149000Y33696750I0J218750D01*
G01*
G37*
G04 #@! TD*
G04 #@! TO.C,R6*
G36*
G01*
X37451000Y-24752000D02*
X37451000Y-24202000D01*
G75*
G02*
X37651000Y-24002000I200000J0D01*
G01*
X38051000Y-24002000D01*
G75*
G02*
X38251000Y-24202000I0J-200000D01*
G01*
X38251000Y-24752000D01*
G75*
G02*
X38051000Y-24952000I-200000J0D01*
G01*
X37651000Y-24952000D01*
G75*
G02*
X37451000Y-24752000I0J200000D01*
G01*
G37*
G36*
G01*
X39101000Y-24752000D02*
X39101000Y-24202000D01*
G75*
G02*
X39301000Y-24002000I200000J0D01*
G01*
X39701000Y-24002000D01*
G75*
G02*
X39901000Y-24202000I0J-200000D01*
G01*
X39901000Y-24752000D01*
G75*
G02*
X39701000Y-24952000I-200000J0D01*
G01*
X39301000Y-24952000D01*
G75*
G02*
X39101000Y-24752000I0J200000D01*
G01*
G37*
G04 #@! TD*
G04 #@! TO.C,D29*
G36*
G01*
X-94049000Y56446750D02*
X-94049000Y56959250D01*
G75*
G02*
X-93830250Y57178000I218750J0D01*
G01*
X-93392750Y57178000D01*
G75*
G02*
X-93174000Y56959250I0J-218750D01*
G01*
X-93174000Y56446750D01*
G75*
G02*
X-93392750Y56228000I-218750J0D01*
G01*
X-93830250Y56228000D01*
G75*
G02*
X-94049000Y56446750I0J218750D01*
G01*
G37*
G36*
G01*
X-92474000Y56446750D02*
X-92474000Y56959250D01*
G75*
G02*
X-92255250Y57178000I218750J0D01*
G01*
X-91817750Y57178000D01*
G75*
G02*
X-91599000Y56959250I0J-218750D01*
G01*
X-91599000Y56446750D01*
G75*
G02*
X-91817750Y56228000I-218750J0D01*
G01*
X-92255250Y56228000D01*
G75*
G02*
X-92474000Y56446750I0J218750D01*
G01*
G37*
G04 #@! TD*
D14*
G04 #@! TO.C,SW2*
X90976000Y10973000D03*
X94376000Y10973000D03*
G04 #@! TD*
G04 #@! TO.C,D1*
G36*
G01*
X89613500Y8729250D02*
X89613500Y8216750D01*
G75*
G02*
X89394750Y7998000I-218750J0D01*
G01*
X88957250Y7998000D01*
G75*
G02*
X88738500Y8216750I0J218750D01*
G01*
X88738500Y8729250D01*
G75*
G02*
X88957250Y8948000I218750J0D01*
G01*
X89394750Y8948000D01*
G75*
G02*
X89613500Y8729250I0J-218750D01*
G01*
G37*
G36*
G01*
X88038500Y8729250D02*
X88038500Y8216750D01*
G75*
G02*
X87819750Y7998000I-218750J0D01*
G01*
X87382250Y7998000D01*
G75*
G02*
X87163500Y8216750I0J218750D01*
G01*
X87163500Y8729250D01*
G75*
G02*
X87382250Y8948000I218750J0D01*
G01*
X87819750Y8948000D01*
G75*
G02*
X88038500Y8729250I0J-218750D01*
G01*
G37*
G04 #@! TD*
D15*
G04 #@! TO.C,RN7*
X-102274000Y54953000D03*
X-102274000Y54153000D03*
X-102274000Y53353000D03*
X-102274000Y52553000D03*
X-100574000Y52553000D03*
X-100574000Y53353000D03*
X-100574000Y54153000D03*
X-100574000Y54953000D03*
G04 #@! TD*
D12*
G04 #@! TO.C,Q7*
X147701000Y22048000D03*
X144351000Y22048000D03*
X147701000Y18998000D03*
X144351000Y18998000D03*
D13*
X139726000Y22803000D03*
X139726000Y18243000D03*
G04 #@! TD*
G04 #@! TO.C,D28*
G36*
G01*
X-94049000Y53446750D02*
X-94049000Y53959250D01*
G75*
G02*
X-93830250Y54178000I218750J0D01*
G01*
X-93392750Y54178000D01*
G75*
G02*
X-93174000Y53959250I0J-218750D01*
G01*
X-93174000Y53446750D01*
G75*
G02*
X-93392750Y53228000I-218750J0D01*
G01*
X-93830250Y53228000D01*
G75*
G02*
X-94049000Y53446750I0J218750D01*
G01*
G37*
G36*
G01*
X-92474000Y53446750D02*
X-92474000Y53959250D01*
G75*
G02*
X-92255250Y54178000I218750J0D01*
G01*
X-91817750Y54178000D01*
G75*
G02*
X-91599000Y53959250I0J-218750D01*
G01*
X-91599000Y53446750D01*
G75*
G02*
X-91817750Y53228000I-218750J0D01*
G01*
X-92255250Y53228000D01*
G75*
G02*
X-92474000Y53446750I0J218750D01*
G01*
G37*
G04 #@! TD*
G04 #@! TO.C,R9*
G36*
G01*
X137601000Y57448000D02*
X134751000Y57448000D01*
G75*
G02*
X134501000Y57698000I0J250000D01*
G01*
X134501000Y58423000D01*
G75*
G02*
X134751000Y58673000I250000J0D01*
G01*
X137601000Y58673000D01*
G75*
G02*
X137851000Y58423000I0J-250000D01*
G01*
X137851000Y57698000D01*
G75*
G02*
X137601000Y57448000I-250000J0D01*
G01*
G37*
G36*
G01*
X137601000Y63373000D02*
X134751000Y63373000D01*
G75*
G02*
X134501000Y63623000I0J250000D01*
G01*
X134501000Y64348000D01*
G75*
G02*
X134751000Y64598000I250000J0D01*
G01*
X137601000Y64598000D01*
G75*
G02*
X137851000Y64348000I0J-250000D01*
G01*
X137851000Y63623000D01*
G75*
G02*
X137601000Y63373000I-250000J0D01*
G01*
G37*
G04 #@! TD*
G04 #@! TO.C,D11*
G36*
G01*
X-98049000Y79346750D02*
X-98049000Y79859250D01*
G75*
G02*
X-97830250Y80078000I218750J0D01*
G01*
X-97392750Y80078000D01*
G75*
G02*
X-97174000Y79859250I0J-218750D01*
G01*
X-97174000Y79346750D01*
G75*
G02*
X-97392750Y79128000I-218750J0D01*
G01*
X-97830250Y79128000D01*
G75*
G02*
X-98049000Y79346750I0J218750D01*
G01*
G37*
G36*
G01*
X-96474000Y79346750D02*
X-96474000Y79859250D01*
G75*
G02*
X-96255250Y80078000I218750J0D01*
G01*
X-95817750Y80078000D01*
G75*
G02*
X-95599000Y79859250I0J-218750D01*
G01*
X-95599000Y79346750D01*
G75*
G02*
X-95817750Y79128000I-218750J0D01*
G01*
X-96255250Y79128000D01*
G75*
G02*
X-96474000Y79346750I0J218750D01*
G01*
G37*
G04 #@! TD*
G04 #@! TO.C,D22*
G36*
G01*
X-93799000Y72346750D02*
X-93799000Y72859250D01*
G75*
G02*
X-93580250Y73078000I218750J0D01*
G01*
X-93142750Y73078000D01*
G75*
G02*
X-92924000Y72859250I0J-218750D01*
G01*
X-92924000Y72346750D01*
G75*
G02*
X-93142750Y72128000I-218750J0D01*
G01*
X-93580250Y72128000D01*
G75*
G02*
X-93799000Y72346750I0J218750D01*
G01*
G37*
G36*
G01*
X-92224000Y72346750D02*
X-92224000Y72859250D01*
G75*
G02*
X-92005250Y73078000I218750J0D01*
G01*
X-91567750Y73078000D01*
G75*
G02*
X-91349000Y72859250I0J-218750D01*
G01*
X-91349000Y72346750D01*
G75*
G02*
X-91567750Y72128000I-218750J0D01*
G01*
X-92005250Y72128000D01*
G75*
G02*
X-92224000Y72346750I0J218750D01*
G01*
G37*
G04 #@! TD*
D15*
G04 #@! TO.C,RN4*
X-101924000Y83803000D03*
X-101924000Y83003000D03*
X-101924000Y82203000D03*
X-101924000Y81403000D03*
X-100224000Y81403000D03*
X-100224000Y82203000D03*
X-100224000Y83003000D03*
X-100224000Y83803000D03*
G04 #@! TD*
G04 #@! TO.C,R26*
G36*
G01*
X-41049000Y44248000D02*
X-41049000Y44798000D01*
G75*
G02*
X-40849000Y44998000I200000J0D01*
G01*
X-40449000Y44998000D01*
G75*
G02*
X-40249000Y44798000I0J-200000D01*
G01*
X-40249000Y44248000D01*
G75*
G02*
X-40449000Y44048000I-200000J0D01*
G01*
X-40849000Y44048000D01*
G75*
G02*
X-41049000Y44248000I0J200000D01*
G01*
G37*
G36*
G01*
X-39399000Y44248000D02*
X-39399000Y44798000D01*
G75*
G02*
X-39199000Y44998000I200000J0D01*
G01*
X-38799000Y44998000D01*
G75*
G02*
X-38599000Y44798000I0J-200000D01*
G01*
X-38599000Y44248000D01*
G75*
G02*
X-38799000Y44048000I-200000J0D01*
G01*
X-39199000Y44048000D01*
G75*
G02*
X-39399000Y44248000I0J200000D01*
G01*
G37*
G04 #@! TD*
G04 #@! TO.C,R14*
G36*
G01*
X134751000Y15098000D02*
X137601000Y15098000D01*
G75*
G02*
X137851000Y14848000I0J-250000D01*
G01*
X137851000Y14123000D01*
G75*
G02*
X137601000Y13873000I-250000J0D01*
G01*
X134751000Y13873000D01*
G75*
G02*
X134501000Y14123000I0J250000D01*
G01*
X134501000Y14848000D01*
G75*
G02*
X134751000Y15098000I250000J0D01*
G01*
G37*
G36*
G01*
X134751000Y9173000D02*
X137601000Y9173000D01*
G75*
G02*
X137851000Y8923000I0J-250000D01*
G01*
X137851000Y8198000D01*
G75*
G02*
X137601000Y7948000I-250000J0D01*
G01*
X134751000Y7948000D01*
G75*
G02*
X134501000Y8198000I0J250000D01*
G01*
X134501000Y8923000D01*
G75*
G02*
X134751000Y9173000I250000J0D01*
G01*
G37*
G04 #@! TD*
G04 #@! TO.C,D16*
G36*
G01*
X182451000Y84766750D02*
X182451000Y85279250D01*
G75*
G02*
X182669750Y85498000I218750J0D01*
G01*
X183107250Y85498000D01*
G75*
G02*
X183326000Y85279250I0J-218750D01*
G01*
X183326000Y84766750D01*
G75*
G02*
X183107250Y84548000I-218750J0D01*
G01*
X182669750Y84548000D01*
G75*
G02*
X182451000Y84766750I0J218750D01*
G01*
G37*
G36*
G01*
X184026000Y84766750D02*
X184026000Y85279250D01*
G75*
G02*
X184244750Y85498000I218750J0D01*
G01*
X184682250Y85498000D01*
G75*
G02*
X184901000Y85279250I0J-218750D01*
G01*
X184901000Y84766750D01*
G75*
G02*
X184682250Y84548000I-218750J0D01*
G01*
X184244750Y84548000D01*
G75*
G02*
X184026000Y84766750I0J218750D01*
G01*
G37*
G04 #@! TD*
G04 #@! TO.C,R4*
G36*
G01*
X-95049000Y14928000D02*
X-95049000Y15478000D01*
G75*
G02*
X-94849000Y15678000I200000J0D01*
G01*
X-94449000Y15678000D01*
G75*
G02*
X-94249000Y15478000I0J-200000D01*
G01*
X-94249000Y14928000D01*
G75*
G02*
X-94449000Y14728000I-200000J0D01*
G01*
X-94849000Y14728000D01*
G75*
G02*
X-95049000Y14928000I0J200000D01*
G01*
G37*
G36*
G01*
X-93399000Y14928000D02*
X-93399000Y15478000D01*
G75*
G02*
X-93199000Y15678000I200000J0D01*
G01*
X-92799000Y15678000D01*
G75*
G02*
X-92599000Y15478000I0J-200000D01*
G01*
X-92599000Y14928000D01*
G75*
G02*
X-92799000Y14728000I-200000J0D01*
G01*
X-93199000Y14728000D01*
G75*
G02*
X-93399000Y14928000I0J200000D01*
G01*
G37*
G04 #@! TD*
G04 #@! TO.C,R7*
G36*
G01*
X137601000Y27198000D02*
X134751000Y27198000D01*
G75*
G02*
X134501000Y27448000I0J250000D01*
G01*
X134501000Y28173000D01*
G75*
G02*
X134751000Y28423000I250000J0D01*
G01*
X137601000Y28423000D01*
G75*
G02*
X137851000Y28173000I0J-250000D01*
G01*
X137851000Y27448000D01*
G75*
G02*
X137601000Y27198000I-250000J0D01*
G01*
G37*
G36*
G01*
X137601000Y33123000D02*
X134751000Y33123000D01*
G75*
G02*
X134501000Y33373000I0J250000D01*
G01*
X134501000Y34098000D01*
G75*
G02*
X134751000Y34348000I250000J0D01*
G01*
X137601000Y34348000D01*
G75*
G02*
X137851000Y34098000I0J-250000D01*
G01*
X137851000Y33373000D01*
G75*
G02*
X137601000Y33123000I-250000J0D01*
G01*
G37*
G04 #@! TD*
G04 #@! TO.C,RN5*
X178826000Y88223000D03*
X178826000Y87423000D03*
X178826000Y86623000D03*
X178826000Y85823000D03*
X180526000Y85823000D03*
X180526000Y86623000D03*
X180526000Y87423000D03*
X180526000Y88223000D03*
G04 #@! TD*
G04 #@! TO.C,R18*
G36*
G01*
X136646000Y44088000D02*
X136646000Y44458000D01*
G75*
G02*
X136781000Y44593000I135000J0D01*
G01*
X137051000Y44593000D01*
G75*
G02*
X137186000Y44458000I0J-135000D01*
G01*
X137186000Y44088000D01*
G75*
G02*
X137051000Y43953000I-135000J0D01*
G01*
X136781000Y43953000D01*
G75*
G02*
X136646000Y44088000I0J135000D01*
G01*
G37*
G36*
G01*
X137666000Y44088000D02*
X137666000Y44458000D01*
G75*
G02*
X137801000Y44593000I135000J0D01*
G01*
X138071000Y44593000D01*
G75*
G02*
X138206000Y44458000I0J-135000D01*
G01*
X138206000Y44088000D01*
G75*
G02*
X138071000Y43953000I-135000J0D01*
G01*
X137801000Y43953000D01*
G75*
G02*
X137666000Y44088000I0J135000D01*
G01*
G37*
G04 #@! TD*
G04 #@! TO.C,R5*
G36*
G01*
X35521000Y-33492000D02*
X35521000Y-32942000D01*
G75*
G02*
X35721000Y-32742000I200000J0D01*
G01*
X36121000Y-32742000D01*
G75*
G02*
X36321000Y-32942000I0J-200000D01*
G01*
X36321000Y-33492000D01*
G75*
G02*
X36121000Y-33692000I-200000J0D01*
G01*
X35721000Y-33692000D01*
G75*
G02*
X35521000Y-33492000I0J200000D01*
G01*
G37*
G36*
G01*
X37171000Y-33492000D02*
X37171000Y-32942000D01*
G75*
G02*
X37371000Y-32742000I200000J0D01*
G01*
X37771000Y-32742000D01*
G75*
G02*
X37971000Y-32942000I0J-200000D01*
G01*
X37971000Y-33492000D01*
G75*
G02*
X37771000Y-33692000I-200000J0D01*
G01*
X37371000Y-33692000D01*
G75*
G02*
X37171000Y-33492000I0J200000D01*
G01*
G37*
G04 #@! TD*
G04 #@! TO.C,R12*
G36*
G01*
X134751000Y84098000D02*
X137601000Y84098000D01*
G75*
G02*
X137851000Y83848000I0J-250000D01*
G01*
X137851000Y83123000D01*
G75*
G02*
X137601000Y82873000I-250000J0D01*
G01*
X134751000Y82873000D01*
G75*
G02*
X134501000Y83123000I0J250000D01*
G01*
X134501000Y83848000D01*
G75*
G02*
X134751000Y84098000I250000J0D01*
G01*
G37*
G36*
G01*
X134751000Y78173000D02*
X137601000Y78173000D01*
G75*
G02*
X137851000Y77923000I0J-250000D01*
G01*
X137851000Y77198000D01*
G75*
G02*
X137601000Y76948000I-250000J0D01*
G01*
X134751000Y76948000D01*
G75*
G02*
X134501000Y77198000I0J250000D01*
G01*
X134501000Y77923000D01*
G75*
G02*
X134751000Y78173000I250000J0D01*
G01*
G37*
G04 #@! TD*
G04 #@! TO.C,RN6*
X-101924000Y73553000D03*
X-101924000Y72753000D03*
X-101924000Y71953000D03*
X-101924000Y71153000D03*
X-100224000Y71153000D03*
X-100224000Y71953000D03*
X-100224000Y72753000D03*
X-100224000Y73553000D03*
G04 #@! TD*
G04 #@! TO.C,D3*
G36*
G01*
X-94086500Y62446750D02*
X-94086500Y62959250D01*
G75*
G02*
X-93867750Y63178000I218750J0D01*
G01*
X-93430250Y63178000D01*
G75*
G02*
X-93211500Y62959250I0J-218750D01*
G01*
X-93211500Y62446750D01*
G75*
G02*
X-93430250Y62228000I-218750J0D01*
G01*
X-93867750Y62228000D01*
G75*
G02*
X-94086500Y62446750I0J218750D01*
G01*
G37*
G36*
G01*
X-92511500Y62446750D02*
X-92511500Y62959250D01*
G75*
G02*
X-92292750Y63178000I218750J0D01*
G01*
X-91855250Y63178000D01*
G75*
G02*
X-91636500Y62959250I0J-218750D01*
G01*
X-91636500Y62446750D01*
G75*
G02*
X-91855250Y62228000I-218750J0D01*
G01*
X-92292750Y62228000D01*
G75*
G02*
X-92511500Y62446750I0J218750D01*
G01*
G37*
G04 #@! TD*
G04 #@! TO.C,C8*
G36*
G01*
X28596000Y49013000D02*
X28256000Y49013000D01*
G75*
G02*
X28116000Y49153000I0J140000D01*
G01*
X28116000Y49433000D01*
G75*
G02*
X28256000Y49573000I140000J0D01*
G01*
X28596000Y49573000D01*
G75*
G02*
X28736000Y49433000I0J-140000D01*
G01*
X28736000Y49153000D01*
G75*
G02*
X28596000Y49013000I-140000J0D01*
G01*
G37*
G36*
G01*
X28596000Y49973000D02*
X28256000Y49973000D01*
G75*
G02*
X28116000Y50113000I0J140000D01*
G01*
X28116000Y50393000D01*
G75*
G02*
X28256000Y50533000I140000J0D01*
G01*
X28596000Y50533000D01*
G75*
G02*
X28736000Y50393000I0J-140000D01*
G01*
X28736000Y50113000D01*
G75*
G02*
X28596000Y49973000I-140000J0D01*
G01*
G37*
G04 #@! TD*
G04 #@! TO.C,D18*
G36*
G01*
X-97049000Y70346750D02*
X-97049000Y70859250D01*
G75*
G02*
X-96830250Y71078000I218750J0D01*
G01*
X-96392750Y71078000D01*
G75*
G02*
X-96174000Y70859250I0J-218750D01*
G01*
X-96174000Y70346750D01*
G75*
G02*
X-96392750Y70128000I-218750J0D01*
G01*
X-96830250Y70128000D01*
G75*
G02*
X-97049000Y70346750I0J218750D01*
G01*
G37*
G36*
G01*
X-95474000Y70346750D02*
X-95474000Y70859250D01*
G75*
G02*
X-95255250Y71078000I218750J0D01*
G01*
X-94817750Y71078000D01*
G75*
G02*
X-94599000Y70859250I0J-218750D01*
G01*
X-94599000Y70346750D01*
G75*
G02*
X-94817750Y70128000I-218750J0D01*
G01*
X-95255250Y70128000D01*
G75*
G02*
X-95474000Y70346750I0J218750D01*
G01*
G37*
G04 #@! TD*
G04 #@! TO.C,R2*
G36*
G01*
X83913500Y8198000D02*
X83913500Y8748000D01*
G75*
G02*
X84113500Y8948000I200000J0D01*
G01*
X84513500Y8948000D01*
G75*
G02*
X84713500Y8748000I0J-200000D01*
G01*
X84713500Y8198000D01*
G75*
G02*
X84513500Y7998000I-200000J0D01*
G01*
X84113500Y7998000D01*
G75*
G02*
X83913500Y8198000I0J200000D01*
G01*
G37*
G36*
G01*
X85563500Y8198000D02*
X85563500Y8748000D01*
G75*
G02*
X85763500Y8948000I200000J0D01*
G01*
X86163500Y8948000D01*
G75*
G02*
X86363500Y8748000I0J-200000D01*
G01*
X86363500Y8198000D01*
G75*
G02*
X86163500Y7998000I-200000J0D01*
G01*
X85763500Y7998000D01*
G75*
G02*
X85563500Y8198000I0J200000D01*
G01*
G37*
G04 #@! TD*
D12*
G04 #@! TO.C,Q8*
X144351000Y8998000D03*
X144351000Y12048000D03*
X147701000Y8998000D03*
X147701000Y12048000D03*
D13*
X139726000Y12803000D03*
X139726000Y8243000D03*
G04 #@! TD*
G04 #@! TO.C,D15*
G36*
G01*
X-94799000Y81096750D02*
X-94799000Y81609250D01*
G75*
G02*
X-94580250Y81828000I218750J0D01*
G01*
X-94142750Y81828000D01*
G75*
G02*
X-93924000Y81609250I0J-218750D01*
G01*
X-93924000Y81096750D01*
G75*
G02*
X-94142750Y80878000I-218750J0D01*
G01*
X-94580250Y80878000D01*
G75*
G02*
X-94799000Y81096750I0J218750D01*
G01*
G37*
G36*
G01*
X-93224000Y81096750D02*
X-93224000Y81609250D01*
G75*
G02*
X-93005250Y81828000I218750J0D01*
G01*
X-92567750Y81828000D01*
G75*
G02*
X-92349000Y81609250I0J-218750D01*
G01*
X-92349000Y81096750D01*
G75*
G02*
X-92567750Y80878000I-218750J0D01*
G01*
X-93005250Y80878000D01*
G75*
G02*
X-93224000Y81096750I0J218750D01*
G01*
G37*
G04 #@! TD*
G04 #@! TO.C,D20*
G36*
G01*
X186201000Y87016750D02*
X186201000Y87529250D01*
G75*
G02*
X186419750Y87748000I218750J0D01*
G01*
X186857250Y87748000D01*
G75*
G02*
X187076000Y87529250I0J-218750D01*
G01*
X187076000Y87016750D01*
G75*
G02*
X186857250Y86798000I-218750J0D01*
G01*
X186419750Y86798000D01*
G75*
G02*
X186201000Y87016750I0J218750D01*
G01*
G37*
G36*
G01*
X187776000Y87016750D02*
X187776000Y87529250D01*
G75*
G02*
X187994750Y87748000I218750J0D01*
G01*
X188432250Y87748000D01*
G75*
G02*
X188651000Y87529250I0J-218750D01*
G01*
X188651000Y87016750D01*
G75*
G02*
X188432250Y86798000I-218750J0D01*
G01*
X187994750Y86798000D01*
G75*
G02*
X187776000Y87016750I0J218750D01*
G01*
G37*
G04 #@! TD*
D15*
G04 #@! TO.C,RN8*
X-102849000Y33653000D03*
X-102849000Y32853000D03*
X-102849000Y32053000D03*
X-102849000Y31253000D03*
X-101149000Y31253000D03*
X-101149000Y32053000D03*
X-101149000Y32853000D03*
X-101149000Y33653000D03*
G04 #@! TD*
G04 #@! TO.C,R24*
G36*
G01*
X138956000Y15958000D02*
X138956000Y15588000D01*
G75*
G02*
X138821000Y15453000I-135000J0D01*
G01*
X138551000Y15453000D01*
G75*
G02*
X138416000Y15588000I0J135000D01*
G01*
X138416000Y15958000D01*
G75*
G02*
X138551000Y16093000I135000J0D01*
G01*
X138821000Y16093000D01*
G75*
G02*
X138956000Y15958000I0J-135000D01*
G01*
G37*
G36*
G01*
X137936000Y15958000D02*
X137936000Y15588000D01*
G75*
G02*
X137801000Y15453000I-135000J0D01*
G01*
X137531000Y15453000D01*
G75*
G02*
X137396000Y15588000I0J135000D01*
G01*
X137396000Y15958000D01*
G75*
G02*
X137531000Y16093000I135000J0D01*
G01*
X137801000Y16093000D01*
G75*
G02*
X137936000Y15958000I0J-135000D01*
G01*
G37*
G04 #@! TD*
G04 #@! TO.C,R23*
G36*
G01*
X138966000Y75458000D02*
X138966000Y75088000D01*
G75*
G02*
X138831000Y74953000I-135000J0D01*
G01*
X138561000Y74953000D01*
G75*
G02*
X138426000Y75088000I0J135000D01*
G01*
X138426000Y75458000D01*
G75*
G02*
X138561000Y75593000I135000J0D01*
G01*
X138831000Y75593000D01*
G75*
G02*
X138966000Y75458000I0J-135000D01*
G01*
G37*
G36*
G01*
X137946000Y75458000D02*
X137946000Y75088000D01*
G75*
G02*
X137811000Y74953000I-135000J0D01*
G01*
X137541000Y74953000D01*
G75*
G02*
X137406000Y75088000I0J135000D01*
G01*
X137406000Y75458000D01*
G75*
G02*
X137541000Y75593000I135000J0D01*
G01*
X137811000Y75593000D01*
G75*
G02*
X137946000Y75458000I0J-135000D01*
G01*
G37*
G04 #@! TD*
G04 #@! TO.C,U5*
G36*
G01*
X20726000Y48278000D02*
X20726000Y48578000D01*
G75*
G02*
X20876000Y48728000I150000J0D01*
G01*
X22526000Y48728000D01*
G75*
G02*
X22676000Y48578000I0J-150000D01*
G01*
X22676000Y48278000D01*
G75*
G02*
X22526000Y48128000I-150000J0D01*
G01*
X20876000Y48128000D01*
G75*
G02*
X20726000Y48278000I0J150000D01*
G01*
G37*
G36*
G01*
X20726000Y47008000D02*
X20726000Y47308000D01*
G75*
G02*
X20876000Y47458000I150000J0D01*
G01*
X22526000Y47458000D01*
G75*
G02*
X22676000Y47308000I0J-150000D01*
G01*
X22676000Y47008000D01*
G75*
G02*
X22526000Y46858000I-150000J0D01*
G01*
X20876000Y46858000D01*
G75*
G02*
X20726000Y47008000I0J150000D01*
G01*
G37*
G36*
G01*
X20726000Y45738000D02*
X20726000Y46038000D01*
G75*
G02*
X20876000Y46188000I150000J0D01*
G01*
X22526000Y46188000D01*
G75*
G02*
X22676000Y46038000I0J-150000D01*
G01*
X22676000Y45738000D01*
G75*
G02*
X22526000Y45588000I-150000J0D01*
G01*
X20876000Y45588000D01*
G75*
G02*
X20726000Y45738000I0J150000D01*
G01*
G37*
G36*
G01*
X20726000Y44468000D02*
X20726000Y44768000D01*
G75*
G02*
X20876000Y44918000I150000J0D01*
G01*
X22526000Y44918000D01*
G75*
G02*
X22676000Y44768000I0J-150000D01*
G01*
X22676000Y44468000D01*
G75*
G02*
X22526000Y44318000I-150000J0D01*
G01*
X20876000Y44318000D01*
G75*
G02*
X20726000Y44468000I0J150000D01*
G01*
G37*
G36*
G01*
X25676000Y44468000D02*
X25676000Y44768000D01*
G75*
G02*
X25826000Y44918000I150000J0D01*
G01*
X27476000Y44918000D01*
G75*
G02*
X27626000Y44768000I0J-150000D01*
G01*
X27626000Y44468000D01*
G75*
G02*
X27476000Y44318000I-150000J0D01*
G01*
X25826000Y44318000D01*
G75*
G02*
X25676000Y44468000I0J150000D01*
G01*
G37*
G36*
G01*
X25676000Y45738000D02*
X25676000Y46038000D01*
G75*
G02*
X25826000Y46188000I150000J0D01*
G01*
X27476000Y46188000D01*
G75*
G02*
X27626000Y46038000I0J-150000D01*
G01*
X27626000Y45738000D01*
G75*
G02*
X27476000Y45588000I-150000J0D01*
G01*
X25826000Y45588000D01*
G75*
G02*
X25676000Y45738000I0J150000D01*
G01*
G37*
G36*
G01*
X25676000Y47008000D02*
X25676000Y47308000D01*
G75*
G02*
X25826000Y47458000I150000J0D01*
G01*
X27476000Y47458000D01*
G75*
G02*
X27626000Y47308000I0J-150000D01*
G01*
X27626000Y47008000D01*
G75*
G02*
X27476000Y46858000I-150000J0D01*
G01*
X25826000Y46858000D01*
G75*
G02*
X25676000Y47008000I0J150000D01*
G01*
G37*
G36*
G01*
X25676000Y48278000D02*
X25676000Y48578000D01*
G75*
G02*
X25826000Y48728000I150000J0D01*
G01*
X27476000Y48728000D01*
G75*
G02*
X27626000Y48578000I0J-150000D01*
G01*
X27626000Y48278000D01*
G75*
G02*
X27476000Y48128000I-150000J0D01*
G01*
X25826000Y48128000D01*
G75*
G02*
X25676000Y48278000I0J150000D01*
G01*
G37*
G04 #@! TD*
G04 #@! TO.C,R25*
G36*
G01*
X-40799000Y40048000D02*
X-40799000Y40598000D01*
G75*
G02*
X-40599000Y40798000I200000J0D01*
G01*
X-40199000Y40798000D01*
G75*
G02*
X-39999000Y40598000I0J-200000D01*
G01*
X-39999000Y40048000D01*
G75*
G02*
X-40199000Y39848000I-200000J0D01*
G01*
X-40599000Y39848000D01*
G75*
G02*
X-40799000Y40048000I0J200000D01*
G01*
G37*
G36*
G01*
X-39149000Y40048000D02*
X-39149000Y40598000D01*
G75*
G02*
X-38949000Y40798000I200000J0D01*
G01*
X-38549000Y40798000D01*
G75*
G02*
X-38349000Y40598000I0J-200000D01*
G01*
X-38349000Y40048000D01*
G75*
G02*
X-38549000Y39848000I-200000J0D01*
G01*
X-38949000Y39848000D01*
G75*
G02*
X-39149000Y40048000I0J200000D01*
G01*
G37*
G04 #@! TD*
D16*
G04 #@! TO.C,M4*
X120215841Y12697997D03*
G04 #@! TD*
G04 #@! TO.C,R8*
G36*
G01*
X137601000Y36198000D02*
X134751000Y36198000D01*
G75*
G02*
X134501000Y36448000I0J250000D01*
G01*
X134501000Y37173000D01*
G75*
G02*
X134751000Y37423000I250000J0D01*
G01*
X137601000Y37423000D01*
G75*
G02*
X137851000Y37173000I0J-250000D01*
G01*
X137851000Y36448000D01*
G75*
G02*
X137601000Y36198000I-250000J0D01*
G01*
G37*
G36*
G01*
X137601000Y42123000D02*
X134751000Y42123000D01*
G75*
G02*
X134501000Y42373000I0J250000D01*
G01*
X134501000Y43098000D01*
G75*
G02*
X134751000Y43348000I250000J0D01*
G01*
X137601000Y43348000D01*
G75*
G02*
X137851000Y43098000I0J-250000D01*
G01*
X137851000Y42373000D01*
G75*
G02*
X137601000Y42123000I-250000J0D01*
G01*
G37*
G04 #@! TD*
G04 #@! TO.C,D21*
G36*
G01*
X188013500Y90666750D02*
X188013500Y91179250D01*
G75*
G02*
X188232250Y91398000I218750J0D01*
G01*
X188669750Y91398000D01*
G75*
G02*
X188888500Y91179250I0J-218750D01*
G01*
X188888500Y90666750D01*
G75*
G02*
X188669750Y90448000I-218750J0D01*
G01*
X188232250Y90448000D01*
G75*
G02*
X188013500Y90666750I0J218750D01*
G01*
G37*
G36*
G01*
X189588500Y90666750D02*
X189588500Y91179250D01*
G75*
G02*
X189807250Y91398000I218750J0D01*
G01*
X190244750Y91398000D01*
G75*
G02*
X190463500Y91179250I0J-218750D01*
G01*
X190463500Y90666750D01*
G75*
G02*
X190244750Y90448000I-218750J0D01*
G01*
X189807250Y90448000D01*
G75*
G02*
X189588500Y90666750I0J218750D01*
G01*
G37*
G04 #@! TD*
G04 #@! TO.C,R13*
G36*
G01*
X134751000Y74598000D02*
X137601000Y74598000D01*
G75*
G02*
X137851000Y74348000I0J-250000D01*
G01*
X137851000Y73623000D01*
G75*
G02*
X137601000Y73373000I-250000J0D01*
G01*
X134751000Y73373000D01*
G75*
G02*
X134501000Y73623000I0J250000D01*
G01*
X134501000Y74348000D01*
G75*
G02*
X134751000Y74598000I250000J0D01*
G01*
G37*
G36*
G01*
X134751000Y68673000D02*
X137601000Y68673000D01*
G75*
G02*
X137851000Y68423000I0J-250000D01*
G01*
X137851000Y67698000D01*
G75*
G02*
X137601000Y67448000I-250000J0D01*
G01*
X134751000Y67448000D01*
G75*
G02*
X134501000Y67698000I0J250000D01*
G01*
X134501000Y68423000D01*
G75*
G02*
X134751000Y68673000I250000J0D01*
G01*
G37*
G04 #@! TD*
G04 #@! TO.C,R3*
G36*
G01*
X-98589000Y46258000D02*
X-98589000Y46808000D01*
G75*
G02*
X-98389000Y47008000I200000J0D01*
G01*
X-97989000Y47008000D01*
G75*
G02*
X-97789000Y46808000I0J-200000D01*
G01*
X-97789000Y46258000D01*
G75*
G02*
X-97989000Y46058000I-200000J0D01*
G01*
X-98389000Y46058000D01*
G75*
G02*
X-98589000Y46258000I0J200000D01*
G01*
G37*
G36*
G01*
X-96939000Y46258000D02*
X-96939000Y46808000D01*
G75*
G02*
X-96739000Y47008000I200000J0D01*
G01*
X-96339000Y47008000D01*
G75*
G02*
X-96139000Y46808000I0J-200000D01*
G01*
X-96139000Y46258000D01*
G75*
G02*
X-96339000Y46058000I-200000J0D01*
G01*
X-96739000Y46058000D01*
G75*
G02*
X-96939000Y46258000I0J200000D01*
G01*
G37*
G04 #@! TD*
G04 #@! TO.C,R21*
G36*
G01*
X138956000Y94958000D02*
X138956000Y94588000D01*
G75*
G02*
X138821000Y94453000I-135000J0D01*
G01*
X138551000Y94453000D01*
G75*
G02*
X138416000Y94588000I0J135000D01*
G01*
X138416000Y94958000D01*
G75*
G02*
X138551000Y95093000I135000J0D01*
G01*
X138821000Y95093000D01*
G75*
G02*
X138956000Y94958000I0J-135000D01*
G01*
G37*
G36*
G01*
X137936000Y94958000D02*
X137936000Y94588000D01*
G75*
G02*
X137801000Y94453000I-135000J0D01*
G01*
X137531000Y94453000D01*
G75*
G02*
X137396000Y94588000I0J135000D01*
G01*
X137396000Y94958000D01*
G75*
G02*
X137531000Y95093000I135000J0D01*
G01*
X137801000Y95093000D01*
G75*
G02*
X137936000Y94958000I0J-135000D01*
G01*
G37*
G04 #@! TD*
G04 #@! TO.C,C6*
G36*
G01*
X27151000Y50273000D02*
X27151000Y49773000D01*
G75*
G02*
X26926000Y49548000I-225000J0D01*
G01*
X26476000Y49548000D01*
G75*
G02*
X26251000Y49773000I0J225000D01*
G01*
X26251000Y50273000D01*
G75*
G02*
X26476000Y50498000I225000J0D01*
G01*
X26926000Y50498000D01*
G75*
G02*
X27151000Y50273000I0J-225000D01*
G01*
G37*
G36*
G01*
X25601000Y50273000D02*
X25601000Y49773000D01*
G75*
G02*
X25376000Y49548000I-225000J0D01*
G01*
X24926000Y49548000D01*
G75*
G02*
X24701000Y49773000I0J225000D01*
G01*
X24701000Y50273000D01*
G75*
G02*
X24926000Y50498000I225000J0D01*
G01*
X25376000Y50498000D01*
G75*
G02*
X25601000Y50273000I0J-225000D01*
G01*
G37*
G04 #@! TD*
G04 #@! TO.C,D24*
G36*
G01*
X-98049000Y51946750D02*
X-98049000Y52459250D01*
G75*
G02*
X-97830250Y52678000I218750J0D01*
G01*
X-97392750Y52678000D01*
G75*
G02*
X-97174000Y52459250I0J-218750D01*
G01*
X-97174000Y51946750D01*
G75*
G02*
X-97392750Y51728000I-218750J0D01*
G01*
X-97830250Y51728000D01*
G75*
G02*
X-98049000Y51946750I0J218750D01*
G01*
G37*
G36*
G01*
X-96474000Y51946750D02*
X-96474000Y52459250D01*
G75*
G02*
X-96255250Y52678000I218750J0D01*
G01*
X-95817750Y52678000D01*
G75*
G02*
X-95599000Y52459250I0J-218750D01*
G01*
X-95599000Y51946750D01*
G75*
G02*
X-95817750Y51728000I-218750J0D01*
G01*
X-96255250Y51728000D01*
G75*
G02*
X-96474000Y51946750I0J218750D01*
G01*
G37*
G04 #@! TD*
D17*
G04 #@! TO.C,M6*
X74297586Y67398002D03*
X72572584Y67398002D03*
X70847584Y67398002D03*
X69147586Y67398002D03*
D18*
X75772586Y80598001D03*
D17*
X69751188Y86353875D03*
X73372586Y86348003D03*
G04 #@! TD*
G04 #@! TO.C,C7*
G36*
G01*
X21846000Y49263000D02*
X21506000Y49263000D01*
G75*
G02*
X21366000Y49403000I0J140000D01*
G01*
X21366000Y49683000D01*
G75*
G02*
X21506000Y49823000I140000J0D01*
G01*
X21846000Y49823000D01*
G75*
G02*
X21986000Y49683000I0J-140000D01*
G01*
X21986000Y49403000D01*
G75*
G02*
X21846000Y49263000I-140000J0D01*
G01*
G37*
G36*
G01*
X21846000Y50223000D02*
X21506000Y50223000D01*
G75*
G02*
X21366000Y50363000I0J140000D01*
G01*
X21366000Y50643000D01*
G75*
G02*
X21506000Y50783000I140000J0D01*
G01*
X21846000Y50783000D01*
G75*
G02*
X21986000Y50643000I0J-140000D01*
G01*
X21986000Y50363000D01*
G75*
G02*
X21846000Y50223000I-140000J0D01*
G01*
G37*
G04 #@! TD*
G04 #@! TO.C,D2*
G36*
G01*
X97688500Y8729250D02*
X97688500Y8216750D01*
G75*
G02*
X97469750Y7998000I-218750J0D01*
G01*
X97032250Y7998000D01*
G75*
G02*
X96813500Y8216750I0J218750D01*
G01*
X96813500Y8729250D01*
G75*
G02*
X97032250Y8948000I218750J0D01*
G01*
X97469750Y8948000D01*
G75*
G02*
X97688500Y8729250I0J-218750D01*
G01*
G37*
G36*
G01*
X96113500Y8729250D02*
X96113500Y8216750D01*
G75*
G02*
X95894750Y7998000I-218750J0D01*
G01*
X95457250Y7998000D01*
G75*
G02*
X95238500Y8216750I0J218750D01*
G01*
X95238500Y8729250D01*
G75*
G02*
X95457250Y8948000I218750J0D01*
G01*
X95894750Y8948000D01*
G75*
G02*
X96113500Y8729250I0J-218750D01*
G01*
G37*
G04 #@! TD*
G04 #@! TO.C,C3*
G36*
G01*
X99201000Y8223000D02*
X99201000Y8723000D01*
G75*
G02*
X99426000Y8948000I225000J0D01*
G01*
X99876000Y8948000D01*
G75*
G02*
X100101000Y8723000I0J-225000D01*
G01*
X100101000Y8223000D01*
G75*
G02*
X99876000Y7998000I-225000J0D01*
G01*
X99426000Y7998000D01*
G75*
G02*
X99201000Y8223000I0J225000D01*
G01*
G37*
G36*
G01*
X100751000Y8223000D02*
X100751000Y8723000D01*
G75*
G02*
X100976000Y8948000I225000J0D01*
G01*
X101426000Y8948000D01*
G75*
G02*
X101651000Y8723000I0J-225000D01*
G01*
X101651000Y8223000D01*
G75*
G02*
X101426000Y7998000I-225000J0D01*
G01*
X100976000Y7998000D01*
G75*
G02*
X100751000Y8223000I0J225000D01*
G01*
G37*
G04 #@! TD*
G04 #@! TO.C,D9*
G36*
G01*
X-98549000Y88016750D02*
X-98549000Y88529250D01*
G75*
G02*
X-98330250Y88748000I218750J0D01*
G01*
X-97892750Y88748000D01*
G75*
G02*
X-97674000Y88529250I0J-218750D01*
G01*
X-97674000Y88016750D01*
G75*
G02*
X-97892750Y87798000I-218750J0D01*
G01*
X-98330250Y87798000D01*
G75*
G02*
X-98549000Y88016750I0J218750D01*
G01*
G37*
G36*
G01*
X-96974000Y88016750D02*
X-96974000Y88529250D01*
G75*
G02*
X-96755250Y88748000I218750J0D01*
G01*
X-96317750Y88748000D01*
G75*
G02*
X-96099000Y88529250I0J-218750D01*
G01*
X-96099000Y88016750D01*
G75*
G02*
X-96317750Y87798000I-218750J0D01*
G01*
X-96755250Y87798000D01*
G75*
G02*
X-96974000Y88016750I0J218750D01*
G01*
G37*
G04 #@! TD*
G04 #@! TO.C,D10*
G36*
G01*
X-98549000Y91016750D02*
X-98549000Y91529250D01*
G75*
G02*
X-98330250Y91748000I218750J0D01*
G01*
X-97892750Y91748000D01*
G75*
G02*
X-97674000Y91529250I0J-218750D01*
G01*
X-97674000Y91016750D01*
G75*
G02*
X-97892750Y90798000I-218750J0D01*
G01*
X-98330250Y90798000D01*
G75*
G02*
X-98549000Y91016750I0J218750D01*
G01*
G37*
G36*
G01*
X-96974000Y91016750D02*
X-96974000Y91529250D01*
G75*
G02*
X-96755250Y91748000I218750J0D01*
G01*
X-96317750Y91748000D01*
G75*
G02*
X-96099000Y91529250I0J-218750D01*
G01*
X-96099000Y91016750D01*
G75*
G02*
X-96317750Y90798000I-218750J0D01*
G01*
X-96755250Y90798000D01*
G75*
G02*
X-96974000Y91016750I0J218750D01*
G01*
G37*
G04 #@! TD*
G04 #@! TO.C,D19*
G36*
G01*
X-97299000Y74346750D02*
X-97299000Y74859250D01*
G75*
G02*
X-97080250Y75078000I218750J0D01*
G01*
X-96642750Y75078000D01*
G75*
G02*
X-96424000Y74859250I0J-218750D01*
G01*
X-96424000Y74346750D01*
G75*
G02*
X-96642750Y74128000I-218750J0D01*
G01*
X-97080250Y74128000D01*
G75*
G02*
X-97299000Y74346750I0J218750D01*
G01*
G37*
G36*
G01*
X-95724000Y74346750D02*
X-95724000Y74859250D01*
G75*
G02*
X-95505250Y75078000I218750J0D01*
G01*
X-95067750Y75078000D01*
G75*
G02*
X-94849000Y74859250I0J-218750D01*
G01*
X-94849000Y74346750D01*
G75*
G02*
X-95067750Y74128000I-218750J0D01*
G01*
X-95505250Y74128000D01*
G75*
G02*
X-95724000Y74346750I0J218750D01*
G01*
G37*
G04 #@! TD*
D15*
G04 #@! TO.C,RN2*
X-102674000Y46403000D03*
X-102674000Y45603000D03*
X-102674000Y44803000D03*
X-102674000Y44003000D03*
X-100974000Y44003000D03*
X-100974000Y44803000D03*
X-100974000Y45603000D03*
X-100974000Y46403000D03*
G04 #@! TD*
G04 #@! TO.C,D31*
G36*
G01*
X-95724000Y34946750D02*
X-95724000Y35459250D01*
G75*
G02*
X-95505250Y35678000I218750J0D01*
G01*
X-95067750Y35678000D01*
G75*
G02*
X-94849000Y35459250I0J-218750D01*
G01*
X-94849000Y34946750D01*
G75*
G02*
X-95067750Y34728000I-218750J0D01*
G01*
X-95505250Y34728000D01*
G75*
G02*
X-95724000Y34946750I0J218750D01*
G01*
G37*
G36*
G01*
X-94149000Y34946750D02*
X-94149000Y35459250D01*
G75*
G02*
X-93930250Y35678000I218750J0D01*
G01*
X-93492750Y35678000D01*
G75*
G02*
X-93274000Y35459250I0J-218750D01*
G01*
X-93274000Y34946750D01*
G75*
G02*
X-93492750Y34728000I-218750J0D01*
G01*
X-93930250Y34728000D01*
G75*
G02*
X-94149000Y34946750I0J218750D01*
G01*
G37*
G04 #@! TD*
G04 #@! TO.C,R20*
G36*
G01*
X137396000Y25088000D02*
X137396000Y25458000D01*
G75*
G02*
X137531000Y25593000I135000J0D01*
G01*
X137801000Y25593000D01*
G75*
G02*
X137936000Y25458000I0J-135000D01*
G01*
X137936000Y25088000D01*
G75*
G02*
X137801000Y24953000I-135000J0D01*
G01*
X137531000Y24953000D01*
G75*
G02*
X137396000Y25088000I0J135000D01*
G01*
G37*
G36*
G01*
X138416000Y25088000D02*
X138416000Y25458000D01*
G75*
G02*
X138551000Y25593000I135000J0D01*
G01*
X138821000Y25593000D01*
G75*
G02*
X138956000Y25458000I0J-135000D01*
G01*
X138956000Y25088000D01*
G75*
G02*
X138821000Y24953000I-135000J0D01*
G01*
X138551000Y24953000D01*
G75*
G02*
X138416000Y25088000I0J135000D01*
G01*
G37*
G04 #@! TD*
G04 #@! TO.C,RN3*
X-102174000Y91473000D03*
X-102174000Y90673000D03*
X-102174000Y89873000D03*
X-102174000Y89073000D03*
X-100474000Y89073000D03*
X-100474000Y89873000D03*
X-100474000Y90673000D03*
X-100474000Y91473000D03*
G04 #@! TD*
G04 #@! TO.C,D12*
G36*
G01*
X-98299000Y82846750D02*
X-98299000Y83359250D01*
G75*
G02*
X-98080250Y83578000I218750J0D01*
G01*
X-97642750Y83578000D01*
G75*
G02*
X-97424000Y83359250I0J-218750D01*
G01*
X-97424000Y82846750D01*
G75*
G02*
X-97642750Y82628000I-218750J0D01*
G01*
X-98080250Y82628000D01*
G75*
G02*
X-98299000Y82846750I0J218750D01*
G01*
G37*
G36*
G01*
X-96724000Y82846750D02*
X-96724000Y83359250D01*
G75*
G02*
X-96505250Y83578000I218750J0D01*
G01*
X-96067750Y83578000D01*
G75*
G02*
X-95849000Y83359250I0J-218750D01*
G01*
X-95849000Y82846750D01*
G75*
G02*
X-96067750Y82628000I-218750J0D01*
G01*
X-96505250Y82628000D01*
G75*
G02*
X-96724000Y82846750I0J218750D01*
G01*
G37*
G04 #@! TD*
G04 #@! TO.C,D13*
G36*
G01*
X-94299000Y89516750D02*
X-94299000Y90029250D01*
G75*
G02*
X-94080250Y90248000I218750J0D01*
G01*
X-93642750Y90248000D01*
G75*
G02*
X-93424000Y90029250I0J-218750D01*
G01*
X-93424000Y89516750D01*
G75*
G02*
X-93642750Y89298000I-218750J0D01*
G01*
X-94080250Y89298000D01*
G75*
G02*
X-94299000Y89516750I0J218750D01*
G01*
G37*
G36*
G01*
X-92724000Y89516750D02*
X-92724000Y90029250D01*
G75*
G02*
X-92505250Y90248000I218750J0D01*
G01*
X-92067750Y90248000D01*
G75*
G02*
X-91849000Y90029250I0J-218750D01*
G01*
X-91849000Y89516750D01*
G75*
G02*
X-92067750Y89298000I-218750J0D01*
G01*
X-92505250Y89298000D01*
G75*
G02*
X-92724000Y89516750I0J218750D01*
G01*
G37*
G04 #@! TD*
G04 #@! TO.C,R22*
G36*
G01*
X138956000Y84958000D02*
X138956000Y84588000D01*
G75*
G02*
X138821000Y84453000I-135000J0D01*
G01*
X138551000Y84453000D01*
G75*
G02*
X138416000Y84588000I0J135000D01*
G01*
X138416000Y84958000D01*
G75*
G02*
X138551000Y85093000I135000J0D01*
G01*
X138821000Y85093000D01*
G75*
G02*
X138956000Y84958000I0J-135000D01*
G01*
G37*
G36*
G01*
X137936000Y84958000D02*
X137936000Y84588000D01*
G75*
G02*
X137801000Y84453000I-135000J0D01*
G01*
X137531000Y84453000D01*
G75*
G02*
X137396000Y84588000I0J135000D01*
G01*
X137396000Y84958000D01*
G75*
G02*
X137531000Y85093000I135000J0D01*
G01*
X137801000Y85093000D01*
G75*
G02*
X137936000Y84958000I0J-135000D01*
G01*
G37*
G04 #@! TD*
G04 #@! TO.C,D5*
G36*
G01*
X-98049000Y42946750D02*
X-98049000Y43459250D01*
G75*
G02*
X-97830250Y43678000I218750J0D01*
G01*
X-97392750Y43678000D01*
G75*
G02*
X-97174000Y43459250I0J-218750D01*
G01*
X-97174000Y42946750D01*
G75*
G02*
X-97392750Y42728000I-218750J0D01*
G01*
X-97830250Y42728000D01*
G75*
G02*
X-98049000Y42946750I0J218750D01*
G01*
G37*
G36*
G01*
X-96474000Y42946750D02*
X-96474000Y43459250D01*
G75*
G02*
X-96255250Y43678000I218750J0D01*
G01*
X-95817750Y43678000D01*
G75*
G02*
X-95599000Y43459250I0J-218750D01*
G01*
X-95599000Y42946750D01*
G75*
G02*
X-95817750Y42728000I-218750J0D01*
G01*
X-96255250Y42728000D01*
G75*
G02*
X-96474000Y42946750I0J218750D01*
G01*
G37*
G04 #@! TD*
D14*
G04 #@! TO.C,SW1*
X84226000Y10973000D03*
X87626000Y10973000D03*
G04 #@! TD*
G04 #@! TO.C,D6*
G36*
G01*
X-90836500Y42946750D02*
X-90836500Y43459250D01*
G75*
G02*
X-90617750Y43678000I218750J0D01*
G01*
X-90180250Y43678000D01*
G75*
G02*
X-89961500Y43459250I0J-218750D01*
G01*
X-89961500Y42946750D01*
G75*
G02*
X-90180250Y42728000I-218750J0D01*
G01*
X-90617750Y42728000D01*
G75*
G02*
X-90836500Y42946750I0J218750D01*
G01*
G37*
G36*
G01*
X-89261500Y42946750D02*
X-89261500Y43459250D01*
G75*
G02*
X-89042750Y43678000I218750J0D01*
G01*
X-88605250Y43678000D01*
G75*
G02*
X-88386500Y43459250I0J-218750D01*
G01*
X-88386500Y42946750D01*
G75*
G02*
X-88605250Y42728000I-218750J0D01*
G01*
X-89042750Y42728000D01*
G75*
G02*
X-89261500Y42946750I0J218750D01*
G01*
G37*
G04 #@! TD*
G04 #@! TO.C,D26*
G36*
G01*
X-99474000Y30696750D02*
X-99474000Y31209250D01*
G75*
G02*
X-99255250Y31428000I218750J0D01*
G01*
X-98817750Y31428000D01*
G75*
G02*
X-98599000Y31209250I0J-218750D01*
G01*
X-98599000Y30696750D01*
G75*
G02*
X-98817750Y30478000I-218750J0D01*
G01*
X-99255250Y30478000D01*
G75*
G02*
X-99474000Y30696750I0J218750D01*
G01*
G37*
G36*
G01*
X-97899000Y30696750D02*
X-97899000Y31209250D01*
G75*
G02*
X-97680250Y31428000I218750J0D01*
G01*
X-97242750Y31428000D01*
G75*
G02*
X-97024000Y31209250I0J-218750D01*
G01*
X-97024000Y30696750D01*
G75*
G02*
X-97242750Y30478000I-218750J0D01*
G01*
X-97680250Y30478000D01*
G75*
G02*
X-97899000Y30696750I0J218750D01*
G01*
G37*
G04 #@! TD*
D15*
G04 #@! TO.C,RN1*
X-102174000Y63653000D03*
X-102174000Y62853000D03*
X-102174000Y62053000D03*
X-102174000Y61253000D03*
X-100474000Y61253000D03*
X-100474000Y62053000D03*
X-100474000Y62853000D03*
X-100474000Y63653000D03*
G04 #@! TD*
G04 #@! TO.C,R11*
G36*
G01*
X134751000Y94098000D02*
X137601000Y94098000D01*
G75*
G02*
X137851000Y93848000I0J-250000D01*
G01*
X137851000Y93123000D01*
G75*
G02*
X137601000Y92873000I-250000J0D01*
G01*
X134751000Y92873000D01*
G75*
G02*
X134501000Y93123000I0J250000D01*
G01*
X134501000Y93848000D01*
G75*
G02*
X134751000Y94098000I250000J0D01*
G01*
G37*
G36*
G01*
X134751000Y88173000D02*
X137601000Y88173000D01*
G75*
G02*
X137851000Y87923000I0J-250000D01*
G01*
X137851000Y87198000D01*
G75*
G02*
X137601000Y86948000I-250000J0D01*
G01*
X134751000Y86948000D01*
G75*
G02*
X134501000Y87198000I0J250000D01*
G01*
X134501000Y87923000D01*
G75*
G02*
X134751000Y88173000I250000J0D01*
G01*
G37*
G04 #@! TD*
G04 #@! TO.C,D17*
G36*
G01*
X182451000Y89266750D02*
X182451000Y89779250D01*
G75*
G02*
X182669750Y89998000I218750J0D01*
G01*
X183107250Y89998000D01*
G75*
G02*
X183326000Y89779250I0J-218750D01*
G01*
X183326000Y89266750D01*
G75*
G02*
X183107250Y89048000I-218750J0D01*
G01*
X182669750Y89048000D01*
G75*
G02*
X182451000Y89266750I0J218750D01*
G01*
G37*
G36*
G01*
X184026000Y89266750D02*
X184026000Y89779250D01*
G75*
G02*
X184244750Y89998000I218750J0D01*
G01*
X184682250Y89998000D01*
G75*
G02*
X184901000Y89779250I0J-218750D01*
G01*
X184901000Y89266750D01*
G75*
G02*
X184682250Y89048000I-218750J0D01*
G01*
X184244750Y89048000D01*
G75*
G02*
X184026000Y89266750I0J218750D01*
G01*
G37*
G04 #@! TD*
D16*
G04 #@! TO.C,M9*
X60854459Y67375494D03*
G04 #@! TD*
G04 #@! TO.C,R27*
G36*
G01*
X-44799000Y40148000D02*
X-44799000Y40698000D01*
G75*
G02*
X-44599000Y40898000I200000J0D01*
G01*
X-44199000Y40898000D01*
G75*
G02*
X-43999000Y40698000I0J-200000D01*
G01*
X-43999000Y40148000D01*
G75*
G02*
X-44199000Y39948000I-200000J0D01*
G01*
X-44599000Y39948000D01*
G75*
G02*
X-44799000Y40148000I0J200000D01*
G01*
G37*
G36*
G01*
X-43149000Y40148000D02*
X-43149000Y40698000D01*
G75*
G02*
X-42949000Y40898000I200000J0D01*
G01*
X-42549000Y40898000D01*
G75*
G02*
X-42349000Y40698000I0J-200000D01*
G01*
X-42349000Y40148000D01*
G75*
G02*
X-42549000Y39948000I-200000J0D01*
G01*
X-42949000Y39948000D01*
G75*
G02*
X-43149000Y40148000I0J200000D01*
G01*
G37*
G04 #@! TD*
D19*
G04 #@! TO.C,JP2*
X-83844000Y130523000D03*
D20*
X-83526500Y130523000D03*
D19*
X-81304000Y130523000D03*
D20*
X-81621500Y130523000D03*
G04 #@! TD*
D16*
G04 #@! TO.C,M1*
X5563887Y38131985D03*
X11066452Y38046784D03*
X12488887Y28806980D03*
G36*
G01*
X15488884Y29306989D02*
X15488884Y29306989D01*
X15488884Y29306989D01*
X15488884Y29306989D01*
X15488884Y29306989D01*
G37*
G04 #@! TD*
G04 #@! TO.C,D4*
G36*
G01*
X-90299000Y45946750D02*
X-90299000Y46459250D01*
G75*
G02*
X-90080250Y46678000I218750J0D01*
G01*
X-89642750Y46678000D01*
G75*
G02*
X-89424000Y46459250I0J-218750D01*
G01*
X-89424000Y45946750D01*
G75*
G02*
X-89642750Y45728000I-218750J0D01*
G01*
X-90080250Y45728000D01*
G75*
G02*
X-90299000Y45946750I0J218750D01*
G01*
G37*
G36*
G01*
X-88724000Y45946750D02*
X-88724000Y46459250D01*
G75*
G02*
X-88505250Y46678000I218750J0D01*
G01*
X-88067750Y46678000D01*
G75*
G02*
X-87849000Y46459250I0J-218750D01*
G01*
X-87849000Y45946750D01*
G75*
G02*
X-88067750Y45728000I-218750J0D01*
G01*
X-88505250Y45728000D01*
G75*
G02*
X-88724000Y45946750I0J218750D01*
G01*
G37*
G04 #@! TD*
G04 #@! TO.C,R19*
G36*
G01*
X137396000Y65088000D02*
X137396000Y65458000D01*
G75*
G02*
X137531000Y65593000I135000J0D01*
G01*
X137801000Y65593000D01*
G75*
G02*
X137936000Y65458000I0J-135000D01*
G01*
X137936000Y65088000D01*
G75*
G02*
X137801000Y64953000I-135000J0D01*
G01*
X137531000Y64953000D01*
G75*
G02*
X137396000Y65088000I0J135000D01*
G01*
G37*
G36*
G01*
X138416000Y65088000D02*
X138416000Y65458000D01*
G75*
G02*
X138551000Y65593000I135000J0D01*
G01*
X138821000Y65593000D01*
G75*
G02*
X138956000Y65458000I0J-135000D01*
G01*
X138956000Y65088000D01*
G75*
G02*
X138821000Y64953000I-135000J0D01*
G01*
X138551000Y64953000D01*
G75*
G02*
X138416000Y65088000I0J135000D01*
G01*
G37*
G04 #@! TD*
G04 #@! TO.C,D7*
G36*
G01*
X-97549000Y63696750D02*
X-97549000Y64209250D01*
G75*
G02*
X-97330250Y64428000I218750J0D01*
G01*
X-96892750Y64428000D01*
G75*
G02*
X-96674000Y64209250I0J-218750D01*
G01*
X-96674000Y63696750D01*
G75*
G02*
X-96892750Y63478000I-218750J0D01*
G01*
X-97330250Y63478000D01*
G75*
G02*
X-97549000Y63696750I0J218750D01*
G01*
G37*
G36*
G01*
X-95974000Y63696750D02*
X-95974000Y64209250D01*
G75*
G02*
X-95755250Y64428000I218750J0D01*
G01*
X-95317750Y64428000D01*
G75*
G02*
X-95099000Y64209250I0J-218750D01*
G01*
X-95099000Y63696750D01*
G75*
G02*
X-95317750Y63478000I-218750J0D01*
G01*
X-95755250Y63478000D01*
G75*
G02*
X-95974000Y63696750I0J218750D01*
G01*
G37*
G04 #@! TD*
G04 #@! TO.C,D30*
G36*
G01*
X-95511500Y32196750D02*
X-95511500Y32709250D01*
G75*
G02*
X-95292750Y32928000I218750J0D01*
G01*
X-94855250Y32928000D01*
G75*
G02*
X-94636500Y32709250I0J-218750D01*
G01*
X-94636500Y32196750D01*
G75*
G02*
X-94855250Y31978000I-218750J0D01*
G01*
X-95292750Y31978000D01*
G75*
G02*
X-95511500Y32196750I0J218750D01*
G01*
G37*
G36*
G01*
X-93936500Y32196750D02*
X-93936500Y32709250D01*
G75*
G02*
X-93717750Y32928000I218750J0D01*
G01*
X-93280250Y32928000D01*
G75*
G02*
X-93061500Y32709250I0J-218750D01*
G01*
X-93061500Y32196750D01*
G75*
G02*
X-93280250Y31978000I-218750J0D01*
G01*
X-93717750Y31978000D01*
G75*
G02*
X-93936500Y32196750I0J218750D01*
G01*
G37*
G04 #@! TD*
G04 #@! TO.C,M2*
X112215841Y12697997D03*
G04 #@! TD*
G04 #@! TO.C,R17*
G36*
G01*
X137396000Y34838000D02*
X137396000Y35208000D01*
G75*
G02*
X137531000Y35343000I135000J0D01*
G01*
X137801000Y35343000D01*
G75*
G02*
X137936000Y35208000I0J-135000D01*
G01*
X137936000Y34838000D01*
G75*
G02*
X137801000Y34703000I-135000J0D01*
G01*
X137531000Y34703000D01*
G75*
G02*
X137396000Y34838000I0J135000D01*
G01*
G37*
G36*
G01*
X138416000Y34838000D02*
X138416000Y35208000D01*
G75*
G02*
X138551000Y35343000I135000J0D01*
G01*
X138821000Y35343000D01*
G75*
G02*
X138956000Y35208000I0J-135000D01*
G01*
X138956000Y34838000D01*
G75*
G02*
X138821000Y34703000I-135000J0D01*
G01*
X138551000Y34703000D01*
G75*
G02*
X138416000Y34838000I0J135000D01*
G01*
G37*
G04 #@! TD*
M02*
