G04 #@! TF.GenerationSoftware,KiCad,Pcbnew,(5.99.0-11247-g3f6811f413)*
G04 #@! TF.CreationDate,2021-08-13T00:10:12+03:00*
G04 #@! TF.ProjectId,hellen88bmw,68656c6c-656e-4383-9862-6d772e6b6963,rev?*
G04 #@! TF.SameCoordinates,PX3d1b110PY9269338*
G04 #@! TF.FileFunction,Legend,Bot*
G04 #@! TF.FilePolarity,Positive*
%FSLAX46Y46*%
G04 Gerber Fmt 4.6, Leading zero omitted, Abs format (unit mm)*
G04 Created by KiCad (PCBNEW (5.99.0-11247-g3f6811f413)) date 2021-08-13 00:10:12*
%MOMM*%
%LPD*%
G01*
G04 APERTURE LIST*
%ADD10C,0.150000*%
%ADD11C,0.120000*%
%ADD12C,0.070000*%
%ADD13C,0.200000*%
G04 APERTURE END LIST*
D10*
X32461714Y110225381D02*
X32414095Y110273000D01*
X32318857Y110320620D01*
X32080761Y110320620D01*
X31985523Y110273000D01*
X31937904Y110225381D01*
X31890285Y110130143D01*
X31890285Y110034905D01*
X31937904Y109892048D01*
X32509333Y109320620D01*
X31890285Y109320620D01*
X130164095Y113820620D02*
X130640285Y113820620D01*
X130687904Y113344429D01*
X130640285Y113392048D01*
X130545047Y113439667D01*
X130306952Y113439667D01*
X130211714Y113392048D01*
X130164095Y113344429D01*
X130116476Y113249191D01*
X130116476Y113011096D01*
X130164095Y112915858D01*
X130211714Y112868239D01*
X130306952Y112820620D01*
X130545047Y112820620D01*
X130640285Y112868239D01*
X130687904Y112915858D01*
X129259333Y113487286D02*
X129259333Y112820620D01*
X129497428Y113868239D02*
X129735523Y113153953D01*
X129116476Y113153953D01*
X91461714Y114237286D02*
X91461714Y113570620D01*
X91699809Y114618239D02*
X91937904Y113903953D01*
X91318857Y113903953D01*
X90461714Y114570620D02*
X90937904Y114570620D01*
X90985523Y114094429D01*
X90937904Y114142048D01*
X90842666Y114189667D01*
X90604571Y114189667D01*
X90509333Y114142048D01*
X90461714Y114094429D01*
X90414095Y113999191D01*
X90414095Y113761096D01*
X90461714Y113665858D01*
X90509333Y113618239D01*
X90604571Y113570620D01*
X90842666Y113570620D01*
X90937904Y113618239D01*
X90985523Y113665858D01*
X72485523Y114570620D02*
X71866476Y114570620D01*
X72199809Y114189667D01*
X72056952Y114189667D01*
X71961714Y114142048D01*
X71914095Y114094429D01*
X71866476Y113999191D01*
X71866476Y113761096D01*
X71914095Y113665858D01*
X71961714Y113618239D01*
X72056952Y113570620D01*
X72342666Y113570620D01*
X72437904Y113618239D01*
X72485523Y113665858D01*
X71390285Y113570620D02*
X71199809Y113570620D01*
X71104571Y113618239D01*
X71056952Y113665858D01*
X70961714Y113808715D01*
X70914095Y113999191D01*
X70914095Y114380143D01*
X70961714Y114475381D01*
X71009333Y114523000D01*
X71104571Y114570620D01*
X71295047Y114570620D01*
X71390285Y114523000D01*
X71437904Y114475381D01*
X71485523Y114380143D01*
X71485523Y114142048D01*
X71437904Y114046810D01*
X71390285Y113999191D01*
X71295047Y113951572D01*
X71104571Y113951572D01*
X71009333Y113999191D01*
X70961714Y114046810D01*
X70914095Y114142048D01*
X124247428Y107142048D02*
X124342666Y107189667D01*
X124390285Y107237286D01*
X124437904Y107332524D01*
X124437904Y107380143D01*
X124390285Y107475381D01*
X124342666Y107523000D01*
X124247428Y107570620D01*
X124056952Y107570620D01*
X123961714Y107523000D01*
X123914095Y107475381D01*
X123866476Y107380143D01*
X123866476Y107332524D01*
X123914095Y107237286D01*
X123961714Y107189667D01*
X124056952Y107142048D01*
X124247428Y107142048D01*
X124342666Y107094429D01*
X124390285Y107046810D01*
X124437904Y106951572D01*
X124437904Y106761096D01*
X124390285Y106665858D01*
X124342666Y106618239D01*
X124247428Y106570620D01*
X124056952Y106570620D01*
X123961714Y106618239D01*
X123914095Y106665858D01*
X123866476Y106761096D01*
X123866476Y106951572D01*
X123914095Y107046810D01*
X123961714Y107094429D01*
X124056952Y107142048D01*
X122961714Y107570620D02*
X123437904Y107570620D01*
X123485523Y107094429D01*
X123437904Y107142048D01*
X123342666Y107189667D01*
X123104571Y107189667D01*
X123009333Y107142048D01*
X122961714Y107094429D01*
X122914095Y106999191D01*
X122914095Y106761096D01*
X122961714Y106665858D01*
X123009333Y106618239D01*
X123104571Y106570620D01*
X123342666Y106570620D01*
X123437904Y106618239D01*
X123485523Y106665858D01*
X76616476Y108570620D02*
X77187904Y108570620D01*
X76902190Y108570620D02*
X76902190Y109570620D01*
X76997428Y109427762D01*
X77092666Y109332524D01*
X77187904Y109284905D01*
X76283142Y109570620D02*
X75664095Y109570620D01*
X75997428Y109189667D01*
X75854571Y109189667D01*
X75759333Y109142048D01*
X75711714Y109094429D01*
X75664095Y108999191D01*
X75664095Y108761096D01*
X75711714Y108665858D01*
X75759333Y108618239D01*
X75854571Y108570620D01*
X76140285Y108570620D01*
X76235523Y108618239D01*
X76283142Y108665858D01*
X29664095Y107570620D02*
X30140285Y107570620D01*
X30187904Y107094429D01*
X30140285Y107142048D01*
X30045047Y107189667D01*
X29806952Y107189667D01*
X29711714Y107142048D01*
X29664095Y107094429D01*
X29616476Y106999191D01*
X29616476Y106761096D01*
X29664095Y106665858D01*
X29711714Y106618239D01*
X29806952Y106570620D01*
X30045047Y106570620D01*
X30140285Y106618239D01*
X30187904Y106665858D01*
X28759333Y107570620D02*
X28949809Y107570620D01*
X29045047Y107523000D01*
X29092666Y107475381D01*
X29187904Y107332524D01*
X29235523Y107142048D01*
X29235523Y106761096D01*
X29187904Y106665858D01*
X29140285Y106618239D01*
X29045047Y106570620D01*
X28854571Y106570620D01*
X28759333Y106618239D01*
X28711714Y106665858D01*
X28664095Y106761096D01*
X28664095Y106999191D01*
X28711714Y107094429D01*
X28759333Y107142048D01*
X28854571Y107189667D01*
X29045047Y107189667D01*
X29140285Y107142048D01*
X29187904Y107094429D01*
X29235523Y106999191D01*
X138187904Y110225381D02*
X138140285Y110273000D01*
X138045047Y110320620D01*
X137806952Y110320620D01*
X137711714Y110273000D01*
X137664095Y110225381D01*
X137616476Y110130143D01*
X137616476Y110034905D01*
X137664095Y109892048D01*
X138235523Y109320620D01*
X137616476Y109320620D01*
X137045047Y109892048D02*
X137140285Y109939667D01*
X137187904Y109987286D01*
X137235523Y110082524D01*
X137235523Y110130143D01*
X137187904Y110225381D01*
X137140285Y110273000D01*
X137045047Y110320620D01*
X136854571Y110320620D01*
X136759333Y110273000D01*
X136711714Y110225381D01*
X136664095Y110130143D01*
X136664095Y110082524D01*
X136711714Y109987286D01*
X136759333Y109939667D01*
X136854571Y109892048D01*
X137045047Y109892048D01*
X137140285Y109844429D01*
X137187904Y109796810D01*
X137235523Y109701572D01*
X137235523Y109511096D01*
X137187904Y109415858D01*
X137140285Y109368239D01*
X137045047Y109320620D01*
X136854571Y109320620D01*
X136759333Y109368239D01*
X136711714Y109415858D01*
X136664095Y109511096D01*
X136664095Y109701572D01*
X136711714Y109796810D01*
X136759333Y109844429D01*
X136854571Y109892048D01*
X59485523Y114570620D02*
X58866476Y114570620D01*
X59199809Y114189667D01*
X59056952Y114189667D01*
X58961714Y114142048D01*
X58914095Y114094429D01*
X58866476Y113999191D01*
X58866476Y113761096D01*
X58914095Y113665858D01*
X58961714Y113618239D01*
X59056952Y113570620D01*
X59342666Y113570620D01*
X59437904Y113618239D01*
X59485523Y113665858D01*
X57961714Y114570620D02*
X58437904Y114570620D01*
X58485523Y114094429D01*
X58437904Y114142048D01*
X58342666Y114189667D01*
X58104571Y114189667D01*
X58009333Y114142048D01*
X57961714Y114094429D01*
X57914095Y113999191D01*
X57914095Y113761096D01*
X57961714Y113665858D01*
X58009333Y113618239D01*
X58104571Y113570620D01*
X58342666Y113570620D01*
X58437904Y113618239D01*
X58485523Y113665858D01*
X57259333Y109570620D02*
X56592666Y109570620D01*
X57021238Y108570620D01*
X130497428Y107142048D02*
X130592666Y107189667D01*
X130640285Y107237286D01*
X130687904Y107332524D01*
X130687904Y107380143D01*
X130640285Y107475381D01*
X130592666Y107523000D01*
X130497428Y107570620D01*
X130306952Y107570620D01*
X130211714Y107523000D01*
X130164095Y107475381D01*
X130116476Y107380143D01*
X130116476Y107332524D01*
X130164095Y107237286D01*
X130211714Y107189667D01*
X130306952Y107142048D01*
X130497428Y107142048D01*
X130592666Y107094429D01*
X130640285Y107046810D01*
X130687904Y106951572D01*
X130687904Y106761096D01*
X130640285Y106665858D01*
X130592666Y106618239D01*
X130497428Y106570620D01*
X130306952Y106570620D01*
X130211714Y106618239D01*
X130164095Y106665858D01*
X130116476Y106761096D01*
X130116476Y106951572D01*
X130164095Y107046810D01*
X130211714Y107094429D01*
X130306952Y107142048D01*
X129783142Y107570620D02*
X129116476Y107570620D01*
X129545047Y106570620D01*
X45485523Y113820620D02*
X44866476Y113820620D01*
X45199809Y113439667D01*
X45056952Y113439667D01*
X44961714Y113392048D01*
X44914095Y113344429D01*
X44866476Y113249191D01*
X44866476Y113011096D01*
X44914095Y112915858D01*
X44961714Y112868239D01*
X45056952Y112820620D01*
X45342666Y112820620D01*
X45437904Y112868239D01*
X45485523Y112915858D01*
X44485523Y113725381D02*
X44437904Y113773000D01*
X44342666Y113820620D01*
X44104571Y113820620D01*
X44009333Y113773000D01*
X43961714Y113725381D01*
X43914095Y113630143D01*
X43914095Y113534905D01*
X43961714Y113392048D01*
X44533142Y112820620D01*
X43914095Y112820620D01*
X120997428Y107142048D02*
X121092666Y107189667D01*
X121140285Y107237286D01*
X121187904Y107332524D01*
X121187904Y107380143D01*
X121140285Y107475381D01*
X121092666Y107523000D01*
X120997428Y107570620D01*
X120806952Y107570620D01*
X120711714Y107523000D01*
X120664095Y107475381D01*
X120616476Y107380143D01*
X120616476Y107332524D01*
X120664095Y107237286D01*
X120711714Y107189667D01*
X120806952Y107142048D01*
X120997428Y107142048D01*
X121092666Y107094429D01*
X121140285Y107046810D01*
X121187904Y106951572D01*
X121187904Y106761096D01*
X121140285Y106665858D01*
X121092666Y106618239D01*
X120997428Y106570620D01*
X120806952Y106570620D01*
X120711714Y106618239D01*
X120664095Y106665858D01*
X120616476Y106761096D01*
X120616476Y106951572D01*
X120664095Y107046810D01*
X120711714Y107094429D01*
X120806952Y107142048D01*
X119759333Y107237286D02*
X119759333Y106570620D01*
X119997428Y107618239D02*
X120235523Y106903953D01*
X119616476Y106903953D01*
X69235523Y114570620D02*
X68616476Y114570620D01*
X68949809Y114189667D01*
X68806952Y114189667D01*
X68711714Y114142048D01*
X68664095Y114094429D01*
X68616476Y113999191D01*
X68616476Y113761096D01*
X68664095Y113665858D01*
X68711714Y113618239D01*
X68806952Y113570620D01*
X69092666Y113570620D01*
X69187904Y113618239D01*
X69235523Y113665858D01*
X68045047Y114142048D02*
X68140285Y114189667D01*
X68187904Y114237286D01*
X68235523Y114332524D01*
X68235523Y114380143D01*
X68187904Y114475381D01*
X68140285Y114523000D01*
X68045047Y114570620D01*
X67854571Y114570620D01*
X67759333Y114523000D01*
X67711714Y114475381D01*
X67664095Y114380143D01*
X67664095Y114332524D01*
X67711714Y114237286D01*
X67759333Y114189667D01*
X67854571Y114142048D01*
X68045047Y114142048D01*
X68140285Y114094429D01*
X68187904Y114046810D01*
X68235523Y113951572D01*
X68235523Y113761096D01*
X68187904Y113665858D01*
X68140285Y113618239D01*
X68045047Y113570620D01*
X67854571Y113570620D01*
X67759333Y113618239D01*
X67711714Y113665858D01*
X67664095Y113761096D01*
X67664095Y113951572D01*
X67711714Y114046810D01*
X67759333Y114094429D01*
X67854571Y114142048D01*
X39414095Y107570620D02*
X39890285Y107570620D01*
X39937904Y107094429D01*
X39890285Y107142048D01*
X39795047Y107189667D01*
X39556952Y107189667D01*
X39461714Y107142048D01*
X39414095Y107094429D01*
X39366476Y106999191D01*
X39366476Y106761096D01*
X39414095Y106665858D01*
X39461714Y106618239D01*
X39556952Y106570620D01*
X39795047Y106570620D01*
X39890285Y106618239D01*
X39937904Y106665858D01*
X38890285Y106570620D02*
X38699809Y106570620D01*
X38604571Y106618239D01*
X38556952Y106665858D01*
X38461714Y106808715D01*
X38414095Y106999191D01*
X38414095Y107380143D01*
X38461714Y107475381D01*
X38509333Y107523000D01*
X38604571Y107570620D01*
X38795047Y107570620D01*
X38890285Y107523000D01*
X38937904Y107475381D01*
X38985523Y107380143D01*
X38985523Y107142048D01*
X38937904Y107046810D01*
X38890285Y106999191D01*
X38795047Y106951572D01*
X38604571Y106951572D01*
X38509333Y106999191D01*
X38461714Y107046810D01*
X38414095Y107142048D01*
X50485523Y113820620D02*
X49866476Y113820620D01*
X50199809Y113439667D01*
X50056952Y113439667D01*
X49961714Y113392048D01*
X49914095Y113344429D01*
X49866476Y113249191D01*
X49866476Y113011096D01*
X49914095Y112915858D01*
X49961714Y112868239D01*
X50056952Y112820620D01*
X50342666Y112820620D01*
X50437904Y112868239D01*
X50485523Y112915858D01*
X49533142Y113820620D02*
X48914095Y113820620D01*
X49247428Y113439667D01*
X49104571Y113439667D01*
X49009333Y113392048D01*
X48961714Y113344429D01*
X48914095Y113249191D01*
X48914095Y113011096D01*
X48961714Y112915858D01*
X49009333Y112868239D01*
X49104571Y112820620D01*
X49390285Y112820620D01*
X49485523Y112868239D01*
X49533142Y112915858D01*
X146580761Y116070620D02*
X146580761Y117070620D01*
X146580761Y116594429D02*
X146009333Y116594429D01*
X146009333Y116070620D02*
X146009333Y117070620D01*
X145152190Y116118239D02*
X145247428Y116070620D01*
X145437904Y116070620D01*
X145533142Y116118239D01*
X145580761Y116213477D01*
X145580761Y116594429D01*
X145533142Y116689667D01*
X145437904Y116737286D01*
X145247428Y116737286D01*
X145152190Y116689667D01*
X145104571Y116594429D01*
X145104571Y116499191D01*
X145580761Y116403953D01*
X144533142Y116070620D02*
X144628380Y116118239D01*
X144676000Y116213477D01*
X144676000Y117070620D01*
X144009333Y116070620D02*
X144104571Y116118239D01*
X144152190Y116213477D01*
X144152190Y117070620D01*
X143247428Y116118239D02*
X143342666Y116070620D01*
X143533142Y116070620D01*
X143628380Y116118239D01*
X143676000Y116213477D01*
X143676000Y116594429D01*
X143628380Y116689667D01*
X143533142Y116737286D01*
X143342666Y116737286D01*
X143247428Y116689667D01*
X143199809Y116594429D01*
X143199809Y116499191D01*
X143676000Y116403953D01*
X142771238Y116737286D02*
X142771238Y116070620D01*
X142771238Y116642048D02*
X142723619Y116689667D01*
X142628380Y116737286D01*
X142485523Y116737286D01*
X142390285Y116689667D01*
X142342666Y116594429D01*
X142342666Y116070620D01*
X140961714Y116642048D02*
X141056952Y116689667D01*
X141104571Y116737286D01*
X141152190Y116832524D01*
X141152190Y116880143D01*
X141104571Y116975381D01*
X141056952Y117023000D01*
X140961714Y117070620D01*
X140771238Y117070620D01*
X140676000Y117023000D01*
X140628380Y116975381D01*
X140580761Y116880143D01*
X140580761Y116832524D01*
X140628380Y116737286D01*
X140676000Y116689667D01*
X140771238Y116642048D01*
X140961714Y116642048D01*
X141056952Y116594429D01*
X141104571Y116546810D01*
X141152190Y116451572D01*
X141152190Y116261096D01*
X141104571Y116165858D01*
X141056952Y116118239D01*
X140961714Y116070620D01*
X140771238Y116070620D01*
X140676000Y116118239D01*
X140628380Y116165858D01*
X140580761Y116261096D01*
X140580761Y116451572D01*
X140628380Y116546810D01*
X140676000Y116594429D01*
X140771238Y116642048D01*
X140009333Y116642048D02*
X140104571Y116689667D01*
X140152190Y116737286D01*
X140199809Y116832524D01*
X140199809Y116880143D01*
X140152190Y116975381D01*
X140104571Y117023000D01*
X140009333Y117070620D01*
X139818857Y117070620D01*
X139723619Y117023000D01*
X139676000Y116975381D01*
X139628380Y116880143D01*
X139628380Y116832524D01*
X139676000Y116737286D01*
X139723619Y116689667D01*
X139818857Y116642048D01*
X140009333Y116642048D01*
X140104571Y116594429D01*
X140152190Y116546810D01*
X140199809Y116451572D01*
X140199809Y116261096D01*
X140152190Y116165858D01*
X140104571Y116118239D01*
X140009333Y116070620D01*
X139818857Y116070620D01*
X139723619Y116118239D01*
X139676000Y116165858D01*
X139628380Y116261096D01*
X139628380Y116451572D01*
X139676000Y116546810D01*
X139723619Y116594429D01*
X139818857Y116642048D01*
X139199809Y116070620D02*
X139199809Y117070620D01*
X139199809Y116689667D02*
X139104571Y116737286D01*
X138914095Y116737286D01*
X138818857Y116689667D01*
X138771238Y116642048D01*
X138723619Y116546810D01*
X138723619Y116261096D01*
X138771238Y116165858D01*
X138818857Y116118239D01*
X138914095Y116070620D01*
X139104571Y116070620D01*
X139199809Y116118239D01*
X138295047Y116070620D02*
X138295047Y116737286D01*
X138295047Y116642048D02*
X138247428Y116689667D01*
X138152190Y116737286D01*
X138009333Y116737286D01*
X137914095Y116689667D01*
X137866476Y116594429D01*
X137866476Y116070620D01*
X137866476Y116594429D02*
X137818857Y116689667D01*
X137723619Y116737286D01*
X137580761Y116737286D01*
X137485523Y116689667D01*
X137437904Y116594429D01*
X137437904Y116070620D01*
X137056952Y116737286D02*
X136866476Y116070620D01*
X136676000Y116546810D01*
X136485523Y116070620D01*
X136295047Y116737286D01*
X135152190Y116070620D02*
X135152190Y116737286D01*
X135152190Y116546810D02*
X135104571Y116642048D01*
X135056952Y116689667D01*
X134961714Y116737286D01*
X134866476Y116737286D01*
X134152190Y116118239D02*
X134247428Y116070620D01*
X134437904Y116070620D01*
X134533142Y116118239D01*
X134580761Y116213477D01*
X134580761Y116594429D01*
X134533142Y116689667D01*
X134437904Y116737286D01*
X134247428Y116737286D01*
X134152190Y116689667D01*
X134104571Y116594429D01*
X134104571Y116499191D01*
X134580761Y116403953D01*
X133771238Y116737286D02*
X133533142Y116070620D01*
X133295047Y116737286D01*
X132199809Y116356334D02*
X131723619Y116356334D01*
X132295047Y116070620D02*
X131961714Y117070620D01*
X131628380Y116070620D01*
X94711714Y114237286D02*
X94711714Y113570620D01*
X94949809Y114618239D02*
X95187904Y113903953D01*
X94568857Y113903953D01*
X93759333Y114570620D02*
X93949809Y114570620D01*
X94045047Y114523000D01*
X94092666Y114475381D01*
X94187904Y114332524D01*
X94235523Y114142048D01*
X94235523Y113761096D01*
X94187904Y113665858D01*
X94140285Y113618239D01*
X94045047Y113570620D01*
X93854571Y113570620D01*
X93759333Y113618239D01*
X93711714Y113665858D01*
X93664095Y113761096D01*
X93664095Y113999191D01*
X93711714Y114094429D01*
X93759333Y114142048D01*
X93854571Y114189667D01*
X94045047Y114189667D01*
X94140285Y114142048D01*
X94187904Y114094429D01*
X94235523Y113999191D01*
X30437904Y113725381D02*
X30390285Y113773000D01*
X30295047Y113820620D01*
X30056952Y113820620D01*
X29961714Y113773000D01*
X29914095Y113725381D01*
X29866476Y113630143D01*
X29866476Y113534905D01*
X29914095Y113392048D01*
X30485523Y112820620D01*
X29866476Y112820620D01*
X29390285Y112820620D02*
X29199809Y112820620D01*
X29104571Y112868239D01*
X29056952Y112915858D01*
X28961714Y113058715D01*
X28914095Y113249191D01*
X28914095Y113630143D01*
X28961714Y113725381D01*
X29009333Y113773000D01*
X29104571Y113820620D01*
X29295047Y113820620D01*
X29390285Y113773000D01*
X29437904Y113725381D01*
X29485523Y113630143D01*
X29485523Y113392048D01*
X29437904Y113296810D01*
X29390285Y113249191D01*
X29295047Y113201572D01*
X29104571Y113201572D01*
X29009333Y113249191D01*
X28961714Y113296810D01*
X28914095Y113392048D01*
X65461714Y107570620D02*
X65652190Y107570620D01*
X65747428Y107523000D01*
X65795047Y107475381D01*
X65890285Y107332524D01*
X65937904Y107142048D01*
X65937904Y106761096D01*
X65890285Y106665858D01*
X65842666Y106618239D01*
X65747428Y106570620D01*
X65556952Y106570620D01*
X65461714Y106618239D01*
X65414095Y106665858D01*
X65366476Y106761096D01*
X65366476Y106999191D01*
X65414095Y107094429D01*
X65461714Y107142048D01*
X65556952Y107189667D01*
X65747428Y107189667D01*
X65842666Y107142048D01*
X65890285Y107094429D01*
X65937904Y106999191D01*
X65033142Y107570620D02*
X64366476Y107570620D01*
X64795047Y106570620D01*
X47473619Y116606334D02*
X46997428Y116606334D01*
X47568857Y116320620D02*
X47235523Y117320620D01*
X46902190Y116320620D01*
X46426000Y116320620D02*
X46521238Y116368239D01*
X46568857Y116463477D01*
X46568857Y117320620D01*
X46140285Y116987286D02*
X45949809Y116320620D01*
X45759333Y116796810D01*
X45568857Y116320620D01*
X45378380Y116987286D01*
X44568857Y116320620D02*
X44568857Y116844429D01*
X44616476Y116939667D01*
X44711714Y116987286D01*
X44902190Y116987286D01*
X44997428Y116939667D01*
X44568857Y116368239D02*
X44664095Y116320620D01*
X44902190Y116320620D01*
X44997428Y116368239D01*
X45045047Y116463477D01*
X45045047Y116558715D01*
X44997428Y116653953D01*
X44902190Y116701572D01*
X44664095Y116701572D01*
X44568857Y116749191D01*
X44187904Y116987286D02*
X43949809Y116320620D01*
X43711714Y116987286D02*
X43949809Y116320620D01*
X44045047Y116082524D01*
X44092666Y116034905D01*
X44187904Y115987286D01*
X43378380Y116368239D02*
X43283142Y116320620D01*
X43092666Y116320620D01*
X42997428Y116368239D01*
X42949809Y116463477D01*
X42949809Y116511096D01*
X42997428Y116606334D01*
X43092666Y116653953D01*
X43235523Y116653953D01*
X43330761Y116701572D01*
X43378380Y116796810D01*
X43378380Y116844429D01*
X43330761Y116939667D01*
X43235523Y116987286D01*
X43092666Y116987286D01*
X42997428Y116939667D01*
X41616476Y116320620D02*
X41711714Y116368239D01*
X41759333Y116463477D01*
X41759333Y117320620D01*
X41092666Y116320620D02*
X41187904Y116368239D01*
X41235523Y116415858D01*
X41283142Y116511096D01*
X41283142Y116796810D01*
X41235523Y116892048D01*
X41187904Y116939667D01*
X41092666Y116987286D01*
X40949809Y116987286D01*
X40854571Y116939667D01*
X40806952Y116892048D01*
X40759333Y116796810D01*
X40759333Y116511096D01*
X40806952Y116415858D01*
X40854571Y116368239D01*
X40949809Y116320620D01*
X41092666Y116320620D01*
X40187904Y116320620D02*
X40283142Y116368239D01*
X40330761Y116415858D01*
X40378380Y116511096D01*
X40378380Y116796810D01*
X40330761Y116892048D01*
X40283142Y116939667D01*
X40187904Y116987286D01*
X40045047Y116987286D01*
X39949809Y116939667D01*
X39902190Y116892048D01*
X39854571Y116796810D01*
X39854571Y116511096D01*
X39902190Y116415858D01*
X39949809Y116368239D01*
X40045047Y116320620D01*
X40187904Y116320620D01*
X39426000Y116320620D02*
X39426000Y117320620D01*
X39330761Y116701572D02*
X39045047Y116320620D01*
X39045047Y116987286D02*
X39426000Y116606334D01*
X38616476Y116320620D02*
X38616476Y116987286D01*
X38616476Y117320620D02*
X38664095Y117273000D01*
X38616476Y117225381D01*
X38568857Y117273000D01*
X38616476Y117320620D01*
X38616476Y117225381D01*
X38140285Y116987286D02*
X38140285Y116320620D01*
X38140285Y116892048D02*
X38092666Y116939667D01*
X37997428Y116987286D01*
X37854571Y116987286D01*
X37759333Y116939667D01*
X37711714Y116844429D01*
X37711714Y116320620D01*
X36806952Y116987286D02*
X36806952Y116177762D01*
X36854571Y116082524D01*
X36902190Y116034905D01*
X36997428Y115987286D01*
X37140285Y115987286D01*
X37235523Y116034905D01*
X36806952Y116368239D02*
X36902190Y116320620D01*
X37092666Y116320620D01*
X37187904Y116368239D01*
X37235523Y116415858D01*
X37283142Y116511096D01*
X37283142Y116796810D01*
X37235523Y116892048D01*
X37187904Y116939667D01*
X37092666Y116987286D01*
X36902190Y116987286D01*
X36806952Y116939667D01*
X35711714Y116987286D02*
X35330761Y116987286D01*
X35568857Y116320620D02*
X35568857Y117177762D01*
X35521238Y117273000D01*
X35426000Y117320620D01*
X35330761Y117320620D01*
X34854571Y116320620D02*
X34949809Y116368239D01*
X34997428Y116415858D01*
X35045047Y116511096D01*
X35045047Y116796810D01*
X34997428Y116892048D01*
X34949809Y116939667D01*
X34854571Y116987286D01*
X34711714Y116987286D01*
X34616476Y116939667D01*
X34568857Y116892048D01*
X34521238Y116796810D01*
X34521238Y116511096D01*
X34568857Y116415858D01*
X34616476Y116368239D01*
X34711714Y116320620D01*
X34854571Y116320620D01*
X34092666Y116320620D02*
X34092666Y116987286D01*
X34092666Y116796810D02*
X34045047Y116892048D01*
X33997428Y116939667D01*
X33902190Y116987286D01*
X33806952Y116987286D01*
X32140285Y116415858D02*
X32187904Y116368239D01*
X32330761Y116320620D01*
X32426000Y116320620D01*
X32568857Y116368239D01*
X32664095Y116463477D01*
X32711714Y116558715D01*
X32759333Y116749191D01*
X32759333Y116892048D01*
X32711714Y117082524D01*
X32664095Y117177762D01*
X32568857Y117273000D01*
X32426000Y117320620D01*
X32330761Y117320620D01*
X32187904Y117273000D01*
X32140285Y117225381D01*
X30997428Y117368239D02*
X31854571Y116082524D01*
X30092666Y116415858D02*
X30140285Y116368239D01*
X30283142Y116320620D01*
X30378380Y116320620D01*
X30521238Y116368239D01*
X30616476Y116463477D01*
X30664095Y116558715D01*
X30711714Y116749191D01*
X30711714Y116892048D01*
X30664095Y117082524D01*
X30616476Y117177762D01*
X30521238Y117273000D01*
X30378380Y117320620D01*
X30283142Y117320620D01*
X30140285Y117273000D01*
X30092666Y117225381D01*
X29664095Y116701572D02*
X28902190Y116701572D01*
X29283142Y116320620D02*
X29283142Y117082524D01*
X28426000Y116701572D02*
X27664095Y116701572D01*
X28045047Y116320620D02*
X28045047Y117082524D01*
X26473619Y117368239D02*
X27330761Y116082524D01*
X26140285Y116320620D02*
X26140285Y117320620D01*
X25759333Y117320620D01*
X25664095Y117273000D01*
X25616476Y117225381D01*
X25568857Y117130143D01*
X25568857Y116987286D01*
X25616476Y116892048D01*
X25664095Y116844429D01*
X25759333Y116796810D01*
X26140285Y116796810D01*
X25140285Y116320620D02*
X25140285Y117320620D01*
X25140285Y116844429D02*
X24568857Y116844429D01*
X24568857Y116320620D02*
X24568857Y117320620D01*
X24092666Y116320620D02*
X24092666Y117320620D01*
X23711714Y117320620D01*
X23616476Y117273000D01*
X23568857Y117225381D01*
X23521238Y117130143D01*
X23521238Y116987286D01*
X23568857Y116892048D01*
X23616476Y116844429D01*
X23711714Y116796810D01*
X24092666Y116796810D01*
X22378380Y117368239D02*
X23235523Y116082524D01*
X21759333Y117320620D02*
X21759333Y116606334D01*
X21806952Y116463477D01*
X21902190Y116368239D01*
X22045047Y116320620D01*
X22140285Y116320620D01*
X20854571Y116320620D02*
X20854571Y116844429D01*
X20902190Y116939667D01*
X20997428Y116987286D01*
X21187904Y116987286D01*
X21283142Y116939667D01*
X20854571Y116368239D02*
X20949809Y116320620D01*
X21187904Y116320620D01*
X21283142Y116368239D01*
X21330761Y116463477D01*
X21330761Y116558715D01*
X21283142Y116653953D01*
X21187904Y116701572D01*
X20949809Y116701572D01*
X20854571Y116749191D01*
X20473619Y116987286D02*
X20235523Y116320620D01*
X19997428Y116987286D01*
X19187904Y116320620D02*
X19187904Y116844429D01*
X19235523Y116939667D01*
X19330761Y116987286D01*
X19521238Y116987286D01*
X19616476Y116939667D01*
X19187904Y116368239D02*
X19283142Y116320620D01*
X19521238Y116320620D01*
X19616476Y116368239D01*
X19664095Y116463477D01*
X19664095Y116558715D01*
X19616476Y116653953D01*
X19521238Y116701572D01*
X19283142Y116701572D01*
X19187904Y116749191D01*
X17521238Y116320620D02*
X17521238Y117320620D01*
X17521238Y116368239D02*
X17616476Y116320620D01*
X17806952Y116320620D01*
X17902190Y116368239D01*
X17949809Y116415858D01*
X17997428Y116511096D01*
X17997428Y116796810D01*
X17949809Y116892048D01*
X17902190Y116939667D01*
X17806952Y116987286D01*
X17616476Y116987286D01*
X17521238Y116939667D01*
X16664095Y116368239D02*
X16759333Y116320620D01*
X16949809Y116320620D01*
X17045047Y116368239D01*
X17092666Y116463477D01*
X17092666Y116844429D01*
X17045047Y116939667D01*
X16949809Y116987286D01*
X16759333Y116987286D01*
X16664095Y116939667D01*
X16616476Y116844429D01*
X16616476Y116749191D01*
X17092666Y116653953D01*
X16283142Y116987286D02*
X16045047Y116320620D01*
X15806952Y116987286D01*
X15045047Y116368239D02*
X15140285Y116320620D01*
X15330761Y116320620D01*
X15426000Y116368239D01*
X15473619Y116463477D01*
X15473619Y116844429D01*
X15426000Y116939667D01*
X15330761Y116987286D01*
X15140285Y116987286D01*
X15045047Y116939667D01*
X14997428Y116844429D01*
X14997428Y116749191D01*
X15473619Y116653953D01*
X14426000Y116320620D02*
X14521238Y116368239D01*
X14568857Y116463477D01*
X14568857Y117320620D01*
X13902190Y116320620D02*
X13997428Y116368239D01*
X14045047Y116415858D01*
X14092666Y116511096D01*
X14092666Y116796810D01*
X14045047Y116892048D01*
X13997428Y116939667D01*
X13902190Y116987286D01*
X13759333Y116987286D01*
X13664095Y116939667D01*
X13616476Y116892048D01*
X13568857Y116796810D01*
X13568857Y116511096D01*
X13616476Y116415858D01*
X13664095Y116368239D01*
X13759333Y116320620D01*
X13902190Y116320620D01*
X13140285Y116987286D02*
X13140285Y115987286D01*
X13140285Y116939667D02*
X13045047Y116987286D01*
X12854571Y116987286D01*
X12759333Y116939667D01*
X12711714Y116892048D01*
X12664095Y116796810D01*
X12664095Y116511096D01*
X12711714Y116415858D01*
X12759333Y116368239D01*
X12854571Y116320620D01*
X13045047Y116320620D01*
X13140285Y116368239D01*
X11854571Y116368239D02*
X11949809Y116320620D01*
X12140285Y116320620D01*
X12235523Y116368239D01*
X12283142Y116463477D01*
X12283142Y116844429D01*
X12235523Y116939667D01*
X12140285Y116987286D01*
X11949809Y116987286D01*
X11854571Y116939667D01*
X11806952Y116844429D01*
X11806952Y116749191D01*
X12283142Y116653953D01*
X11378380Y116320620D02*
X11378380Y116987286D01*
X11378380Y116796810D02*
X11330761Y116892048D01*
X11283142Y116939667D01*
X11187904Y116987286D01*
X11092666Y116987286D01*
X10806952Y116368239D02*
X10711714Y116320620D01*
X10521238Y116320620D01*
X10426000Y116368239D01*
X10378380Y116463477D01*
X10378380Y116511096D01*
X10426000Y116606334D01*
X10521238Y116653953D01*
X10664095Y116653953D01*
X10759333Y116701572D01*
X10806952Y116796810D01*
X10806952Y116844429D01*
X10759333Y116939667D01*
X10664095Y116987286D01*
X10521238Y116987286D01*
X10426000Y116939667D01*
X86366476Y108570620D02*
X86937904Y108570620D01*
X86652190Y108570620D02*
X86652190Y109570620D01*
X86747428Y109427762D01*
X86842666Y109332524D01*
X86937904Y109284905D01*
X85509333Y109570620D02*
X85699809Y109570620D01*
X85795047Y109523000D01*
X85842666Y109475381D01*
X85937904Y109332524D01*
X85985523Y109142048D01*
X85985523Y108761096D01*
X85937904Y108665858D01*
X85890285Y108618239D01*
X85795047Y108570620D01*
X85604571Y108570620D01*
X85509333Y108618239D01*
X85461714Y108665858D01*
X85414095Y108761096D01*
X85414095Y108999191D01*
X85461714Y109094429D01*
X85509333Y109142048D01*
X85604571Y109189667D01*
X85795047Y109189667D01*
X85890285Y109142048D01*
X85937904Y109094429D01*
X85985523Y108999191D01*
X88211714Y114237286D02*
X88211714Y113570620D01*
X88449809Y114618239D02*
X88687904Y113903953D01*
X88068857Y113903953D01*
X87259333Y114237286D02*
X87259333Y113570620D01*
X87497428Y114618239D02*
X87735523Y113903953D01*
X87116476Y113903953D01*
X92866476Y108570620D02*
X93437904Y108570620D01*
X93152190Y108570620D02*
X93152190Y109570620D01*
X93247428Y109427762D01*
X93342666Y109332524D01*
X93437904Y109284905D01*
X92295047Y109142048D02*
X92390285Y109189667D01*
X92437904Y109237286D01*
X92485523Y109332524D01*
X92485523Y109380143D01*
X92437904Y109475381D01*
X92390285Y109523000D01*
X92295047Y109570620D01*
X92104571Y109570620D01*
X92009333Y109523000D01*
X91961714Y109475381D01*
X91914095Y109380143D01*
X91914095Y109332524D01*
X91961714Y109237286D01*
X92009333Y109189667D01*
X92104571Y109142048D01*
X92295047Y109142048D01*
X92390285Y109094429D01*
X92437904Y109046810D01*
X92485523Y108951572D01*
X92485523Y108761096D01*
X92437904Y108665858D01*
X92390285Y108618239D01*
X92295047Y108570620D01*
X92104571Y108570620D01*
X92009333Y108618239D01*
X91961714Y108665858D01*
X91914095Y108761096D01*
X91914095Y108951572D01*
X91961714Y109046810D01*
X92009333Y109094429D01*
X92104571Y109142048D01*
X60271238Y109142048D02*
X60366476Y109189667D01*
X60414095Y109237286D01*
X60461714Y109332524D01*
X60461714Y109380143D01*
X60414095Y109475381D01*
X60366476Y109523000D01*
X60271238Y109570620D01*
X60080761Y109570620D01*
X59985523Y109523000D01*
X59937904Y109475381D01*
X59890285Y109380143D01*
X59890285Y109332524D01*
X59937904Y109237286D01*
X59985523Y109189667D01*
X60080761Y109142048D01*
X60271238Y109142048D01*
X60366476Y109094429D01*
X60414095Y109046810D01*
X60461714Y108951572D01*
X60461714Y108761096D01*
X60414095Y108665858D01*
X60366476Y108618239D01*
X60271238Y108570620D01*
X60080761Y108570620D01*
X59985523Y108618239D01*
X59937904Y108665858D01*
X59890285Y108761096D01*
X59890285Y108951572D01*
X59937904Y109046810D01*
X59985523Y109094429D01*
X60080761Y109142048D01*
X42711714Y107570620D02*
X42902190Y107570620D01*
X42997428Y107523000D01*
X43045047Y107475381D01*
X43140285Y107332524D01*
X43187904Y107142048D01*
X43187904Y106761096D01*
X43140285Y106665858D01*
X43092666Y106618239D01*
X42997428Y106570620D01*
X42806952Y106570620D01*
X42711714Y106618239D01*
X42664095Y106665858D01*
X42616476Y106761096D01*
X42616476Y106999191D01*
X42664095Y107094429D01*
X42711714Y107142048D01*
X42806952Y107189667D01*
X42997428Y107189667D01*
X43092666Y107142048D01*
X43140285Y107094429D01*
X43187904Y106999191D01*
X41997428Y107570620D02*
X41902190Y107570620D01*
X41806952Y107523000D01*
X41759333Y107475381D01*
X41711714Y107380143D01*
X41664095Y107189667D01*
X41664095Y106951572D01*
X41711714Y106761096D01*
X41759333Y106665858D01*
X41806952Y106618239D01*
X41902190Y106570620D01*
X41997428Y106570620D01*
X42092666Y106618239D01*
X42140285Y106665858D01*
X42187904Y106761096D01*
X42235523Y106951572D01*
X42235523Y107189667D01*
X42187904Y107380143D01*
X42140285Y107475381D01*
X42092666Y107523000D01*
X41997428Y107570620D01*
X46937904Y110320620D02*
X47414095Y110320620D01*
X47461714Y109844429D01*
X47414095Y109892048D01*
X47318857Y109939667D01*
X47080761Y109939667D01*
X46985523Y109892048D01*
X46937904Y109844429D01*
X46890285Y109749191D01*
X46890285Y109511096D01*
X46937904Y109415858D01*
X46985523Y109368239D01*
X47080761Y109320620D01*
X47318857Y109320620D01*
X47414095Y109368239D01*
X47461714Y109415858D01*
X75211714Y114237286D02*
X75211714Y113570620D01*
X75449809Y114618239D02*
X75687904Y113903953D01*
X75068857Y113903953D01*
X74497428Y114570620D02*
X74402190Y114570620D01*
X74306952Y114523000D01*
X74259333Y114475381D01*
X74211714Y114380143D01*
X74164095Y114189667D01*
X74164095Y113951572D01*
X74211714Y113761096D01*
X74259333Y113665858D01*
X74306952Y113618239D01*
X74402190Y113570620D01*
X74497428Y113570620D01*
X74592666Y113618239D01*
X74640285Y113665858D01*
X74687904Y113761096D01*
X74735523Y113951572D01*
X74735523Y114189667D01*
X74687904Y114380143D01*
X74640285Y114475381D01*
X74592666Y114523000D01*
X74497428Y114570620D01*
X123437904Y110225381D02*
X123390285Y110273000D01*
X123295047Y110320620D01*
X123056952Y110320620D01*
X122961714Y110273000D01*
X122914095Y110225381D01*
X122866476Y110130143D01*
X122866476Y110034905D01*
X122914095Y109892048D01*
X123485523Y109320620D01*
X122866476Y109320620D01*
X121961714Y110320620D02*
X122437904Y110320620D01*
X122485523Y109844429D01*
X122437904Y109892048D01*
X122342666Y109939667D01*
X122104571Y109939667D01*
X122009333Y109892048D01*
X121961714Y109844429D01*
X121914095Y109749191D01*
X121914095Y109511096D01*
X121961714Y109415858D01*
X122009333Y109368239D01*
X122104571Y109320620D01*
X122342666Y109320620D01*
X122437904Y109368239D01*
X122485523Y109415858D01*
X55711714Y107570620D02*
X55902190Y107570620D01*
X55997428Y107523000D01*
X56045047Y107475381D01*
X56140285Y107332524D01*
X56187904Y107142048D01*
X56187904Y106761096D01*
X56140285Y106665858D01*
X56092666Y106618239D01*
X55997428Y106570620D01*
X55806952Y106570620D01*
X55711714Y106618239D01*
X55664095Y106665858D01*
X55616476Y106761096D01*
X55616476Y106999191D01*
X55664095Y107094429D01*
X55711714Y107142048D01*
X55806952Y107189667D01*
X55997428Y107189667D01*
X56092666Y107142048D01*
X56140285Y107094429D01*
X56187904Y106999191D01*
X54759333Y107237286D02*
X54759333Y106570620D01*
X54997428Y107618239D02*
X55235523Y106903953D01*
X54616476Y106903953D01*
X83116476Y108570620D02*
X83687904Y108570620D01*
X83402190Y108570620D02*
X83402190Y109570620D01*
X83497428Y109427762D01*
X83592666Y109332524D01*
X83687904Y109284905D01*
X82211714Y109570620D02*
X82687904Y109570620D01*
X82735523Y109094429D01*
X82687904Y109142048D01*
X82592666Y109189667D01*
X82354571Y109189667D01*
X82259333Y109142048D01*
X82211714Y109094429D01*
X82164095Y108999191D01*
X82164095Y108761096D01*
X82211714Y108665858D01*
X82259333Y108618239D01*
X82354571Y108570620D01*
X82592666Y108570620D01*
X82687904Y108618239D01*
X82735523Y108665858D01*
X110997428Y107142048D02*
X111092666Y107189667D01*
X111140285Y107237286D01*
X111187904Y107332524D01*
X111187904Y107380143D01*
X111140285Y107475381D01*
X111092666Y107523000D01*
X110997428Y107570620D01*
X110806952Y107570620D01*
X110711714Y107523000D01*
X110664095Y107475381D01*
X110616476Y107380143D01*
X110616476Y107332524D01*
X110664095Y107237286D01*
X110711714Y107189667D01*
X110806952Y107142048D01*
X110997428Y107142048D01*
X111092666Y107094429D01*
X111140285Y107046810D01*
X111187904Y106951572D01*
X111187904Y106761096D01*
X111140285Y106665858D01*
X111092666Y106618239D01*
X110997428Y106570620D01*
X110806952Y106570620D01*
X110711714Y106618239D01*
X110664095Y106665858D01*
X110616476Y106761096D01*
X110616476Y106951572D01*
X110664095Y107046810D01*
X110711714Y107094429D01*
X110806952Y107142048D01*
X109664095Y106570620D02*
X110235523Y106570620D01*
X109949809Y106570620D02*
X109949809Y107570620D01*
X110045047Y107427762D01*
X110140285Y107332524D01*
X110235523Y107284905D01*
X58961714Y107570620D02*
X59152190Y107570620D01*
X59247428Y107523000D01*
X59295047Y107475381D01*
X59390285Y107332524D01*
X59437904Y107142048D01*
X59437904Y106761096D01*
X59390285Y106665858D01*
X59342666Y106618239D01*
X59247428Y106570620D01*
X59056952Y106570620D01*
X58961714Y106618239D01*
X58914095Y106665858D01*
X58866476Y106761096D01*
X58866476Y106999191D01*
X58914095Y107094429D01*
X58961714Y107142048D01*
X59056952Y107189667D01*
X59247428Y107189667D01*
X59342666Y107142048D01*
X59390285Y107094429D01*
X59437904Y106999191D01*
X57961714Y107570620D02*
X58437904Y107570620D01*
X58485523Y107094429D01*
X58437904Y107142048D01*
X58342666Y107189667D01*
X58104571Y107189667D01*
X58009333Y107142048D01*
X57961714Y107094429D01*
X57914095Y106999191D01*
X57914095Y106761096D01*
X57961714Y106665858D01*
X58009333Y106618239D01*
X58104571Y106570620D01*
X58342666Y106570620D01*
X58437904Y106618239D01*
X58485523Y106665858D01*
X105211714Y113487286D02*
X105211714Y112820620D01*
X105449809Y113868239D02*
X105687904Y113153953D01*
X105068857Y113153953D01*
X104640285Y112820620D02*
X104449809Y112820620D01*
X104354571Y112868239D01*
X104306952Y112915858D01*
X104211714Y113058715D01*
X104164095Y113249191D01*
X104164095Y113630143D01*
X104211714Y113725381D01*
X104259333Y113773000D01*
X104354571Y113820620D01*
X104545047Y113820620D01*
X104640285Y113773000D01*
X104687904Y113725381D01*
X104735523Y113630143D01*
X104735523Y113392048D01*
X104687904Y113296810D01*
X104640285Y113249191D01*
X104545047Y113201572D01*
X104354571Y113201572D01*
X104259333Y113249191D01*
X104211714Y113296810D01*
X104164095Y113392048D01*
X75735523Y107570620D02*
X75068857Y107570620D01*
X75497428Y106570620D01*
X74497428Y107570620D02*
X74402190Y107570620D01*
X74306952Y107523000D01*
X74259333Y107475381D01*
X74211714Y107380143D01*
X74164095Y107189667D01*
X74164095Y106951572D01*
X74211714Y106761096D01*
X74259333Y106665858D01*
X74306952Y106618239D01*
X74402190Y106570620D01*
X74497428Y106570620D01*
X74592666Y106618239D01*
X74640285Y106665858D01*
X74687904Y106761096D01*
X74735523Y106951572D01*
X74735523Y107189667D01*
X74687904Y107380143D01*
X74640285Y107475381D01*
X74592666Y107523000D01*
X74497428Y107570620D01*
X35485523Y113820620D02*
X34866476Y113820620D01*
X35199809Y113439667D01*
X35056952Y113439667D01*
X34961714Y113392048D01*
X34914095Y113344429D01*
X34866476Y113249191D01*
X34866476Y113011096D01*
X34914095Y112915858D01*
X34961714Y112868239D01*
X35056952Y112820620D01*
X35342666Y112820620D01*
X35437904Y112868239D01*
X35485523Y112915858D01*
X34247428Y113820620D02*
X34152190Y113820620D01*
X34056952Y113773000D01*
X34009333Y113725381D01*
X33961714Y113630143D01*
X33914095Y113439667D01*
X33914095Y113201572D01*
X33961714Y113011096D01*
X34009333Y112915858D01*
X34056952Y112868239D01*
X34152190Y112820620D01*
X34247428Y112820620D01*
X34342666Y112868239D01*
X34390285Y112915858D01*
X34437904Y113011096D01*
X34485523Y113201572D01*
X34485523Y113439667D01*
X34437904Y113630143D01*
X34390285Y113725381D01*
X34342666Y113773000D01*
X34247428Y113820620D01*
X40068857Y114570620D02*
X40068857Y115570620D01*
X39640285Y114570620D02*
X39640285Y115094429D01*
X39687904Y115189667D01*
X39783142Y115237286D01*
X39926000Y115237286D01*
X40021238Y115189667D01*
X40068857Y115142048D01*
X39306952Y115237286D02*
X38926000Y115237286D01*
X39164095Y115570620D02*
X39164095Y114713477D01*
X39116476Y114618239D01*
X39021238Y114570620D01*
X38926000Y114570620D01*
X38735523Y115237286D02*
X38354571Y115237286D01*
X38592666Y115570620D02*
X38592666Y114713477D01*
X38545047Y114618239D01*
X38449809Y114570620D01*
X38354571Y114570620D01*
X38021238Y115237286D02*
X38021238Y114237286D01*
X38021238Y115189667D02*
X37926000Y115237286D01*
X37735523Y115237286D01*
X37640285Y115189667D01*
X37592666Y115142048D01*
X37545047Y115046810D01*
X37545047Y114761096D01*
X37592666Y114665858D01*
X37640285Y114618239D01*
X37735523Y114570620D01*
X37926000Y114570620D01*
X38021238Y114618239D01*
X37164095Y114618239D02*
X37068857Y114570620D01*
X36878380Y114570620D01*
X36783142Y114618239D01*
X36735523Y114713477D01*
X36735523Y114761096D01*
X36783142Y114856334D01*
X36878380Y114903953D01*
X37021238Y114903953D01*
X37116476Y114951572D01*
X37164095Y115046810D01*
X37164095Y115094429D01*
X37116476Y115189667D01*
X37021238Y115237286D01*
X36878380Y115237286D01*
X36783142Y115189667D01*
X36306952Y114665858D02*
X36259333Y114618239D01*
X36306952Y114570620D01*
X36354571Y114618239D01*
X36306952Y114665858D01*
X36306952Y114570620D01*
X36306952Y115189667D02*
X36259333Y115142048D01*
X36306952Y115094429D01*
X36354571Y115142048D01*
X36306952Y115189667D01*
X36306952Y115094429D01*
X35116476Y115618239D02*
X35973619Y114332524D01*
X34068857Y115618239D02*
X34926000Y114332524D01*
X33735523Y114570620D02*
X33735523Y115237286D01*
X33735523Y115046810D02*
X33687904Y115142048D01*
X33640285Y115189667D01*
X33545047Y115237286D01*
X33449809Y115237286D01*
X32687904Y115237286D02*
X32687904Y114570620D01*
X33116476Y115237286D02*
X33116476Y114713477D01*
X33068857Y114618239D01*
X32973619Y114570620D01*
X32830761Y114570620D01*
X32735523Y114618239D01*
X32687904Y114665858D01*
X32259333Y114618239D02*
X32164095Y114570620D01*
X31973619Y114570620D01*
X31878380Y114618239D01*
X31830761Y114713477D01*
X31830761Y114761096D01*
X31878380Y114856334D01*
X31973619Y114903953D01*
X32116476Y114903953D01*
X32211714Y114951572D01*
X32259333Y115046810D01*
X32259333Y115094429D01*
X32211714Y115189667D01*
X32116476Y115237286D01*
X31973619Y115237286D01*
X31878380Y115189667D01*
X31021238Y114618239D02*
X31116476Y114570620D01*
X31306952Y114570620D01*
X31402190Y114618239D01*
X31449809Y114713477D01*
X31449809Y115094429D01*
X31402190Y115189667D01*
X31306952Y115237286D01*
X31116476Y115237286D01*
X31021238Y115189667D01*
X30973619Y115094429D01*
X30973619Y114999191D01*
X31449809Y114903953D01*
X30687904Y115237286D02*
X30306952Y115237286D01*
X30545047Y114570620D02*
X30545047Y115427762D01*
X30497428Y115523000D01*
X30402190Y115570620D01*
X30306952Y115570620D01*
X29973619Y114570620D02*
X29973619Y115237286D01*
X29973619Y115570620D02*
X30021238Y115523000D01*
X29973619Y115475381D01*
X29926000Y115523000D01*
X29973619Y115570620D01*
X29973619Y115475381D01*
X29497428Y114665858D02*
X29449809Y114618239D01*
X29497428Y114570620D01*
X29545047Y114618239D01*
X29497428Y114665858D01*
X29497428Y114570620D01*
X28592666Y114618239D02*
X28687904Y114570620D01*
X28878380Y114570620D01*
X28973619Y114618239D01*
X29021238Y114665858D01*
X29068857Y114761096D01*
X29068857Y115046810D01*
X29021238Y115142048D01*
X28973619Y115189667D01*
X28878380Y115237286D01*
X28687904Y115237286D01*
X28592666Y115189667D01*
X28021238Y114570620D02*
X28116476Y114618239D01*
X28164095Y114665858D01*
X28211714Y114761096D01*
X28211714Y115046810D01*
X28164095Y115142048D01*
X28116476Y115189667D01*
X28021238Y115237286D01*
X27878380Y115237286D01*
X27783142Y115189667D01*
X27735523Y115142048D01*
X27687904Y115046810D01*
X27687904Y114761096D01*
X27735523Y114665858D01*
X27783142Y114618239D01*
X27878380Y114570620D01*
X28021238Y114570620D01*
X27259333Y114570620D02*
X27259333Y115237286D01*
X27259333Y115142048D02*
X27211714Y115189667D01*
X27116476Y115237286D01*
X26973619Y115237286D01*
X26878380Y115189667D01*
X26830761Y115094429D01*
X26830761Y114570620D01*
X26830761Y115094429D02*
X26783142Y115189667D01*
X26687904Y115237286D01*
X26545047Y115237286D01*
X26449809Y115189667D01*
X26402190Y115094429D01*
X26402190Y114570620D01*
X25211714Y115618239D02*
X26068857Y114332524D01*
X24926000Y114618239D02*
X24830761Y114570620D01*
X24640285Y114570620D01*
X24545047Y114618239D01*
X24497428Y114713477D01*
X24497428Y114761096D01*
X24545047Y114856334D01*
X24640285Y114903953D01*
X24783142Y114903953D01*
X24878380Y114951572D01*
X24926000Y115046810D01*
X24926000Y115094429D01*
X24878380Y115189667D01*
X24783142Y115237286D01*
X24640285Y115237286D01*
X24545047Y115189667D01*
X23354571Y115618239D02*
X24211714Y114332524D01*
X23021238Y114570620D02*
X23021238Y115237286D01*
X23021238Y115142048D02*
X22973619Y115189667D01*
X22878380Y115237286D01*
X22735523Y115237286D01*
X22640285Y115189667D01*
X22592666Y115094429D01*
X22592666Y114570620D01*
X22592666Y115094429D02*
X22545047Y115189667D01*
X22449809Y115237286D01*
X22306952Y115237286D01*
X22211714Y115189667D01*
X22164095Y115094429D01*
X22164095Y114570620D01*
X21687904Y114570620D02*
X21687904Y115237286D01*
X21687904Y115570620D02*
X21735523Y115523000D01*
X21687904Y115475381D01*
X21640285Y115523000D01*
X21687904Y115570620D01*
X21687904Y115475381D01*
X21259333Y114618239D02*
X21164095Y114570620D01*
X20973619Y114570620D01*
X20878380Y114618239D01*
X20830761Y114713477D01*
X20830761Y114761096D01*
X20878380Y114856334D01*
X20973619Y114903953D01*
X21116476Y114903953D01*
X21211714Y114951572D01*
X21259333Y115046810D01*
X21259333Y115094429D01*
X21211714Y115189667D01*
X21116476Y115237286D01*
X20973619Y115237286D01*
X20878380Y115189667D01*
X20449809Y114618239D02*
X20354571Y114570620D01*
X20164095Y114570620D01*
X20068857Y114618239D01*
X20021238Y114713477D01*
X20021238Y114761096D01*
X20068857Y114856334D01*
X20164095Y114903953D01*
X20306952Y114903953D01*
X20402190Y114951572D01*
X20449809Y115046810D01*
X20449809Y115094429D01*
X20402190Y115189667D01*
X20306952Y115237286D01*
X20164095Y115237286D01*
X20068857Y115189667D01*
X19592666Y114570620D02*
X19592666Y115237286D01*
X19592666Y115570620D02*
X19640285Y115523000D01*
X19592666Y115475381D01*
X19545047Y115523000D01*
X19592666Y115570620D01*
X19592666Y115475381D01*
X18973619Y114570620D02*
X19068857Y114618239D01*
X19116476Y114665858D01*
X19164095Y114761096D01*
X19164095Y115046810D01*
X19116476Y115142048D01*
X19068857Y115189667D01*
X18973619Y115237286D01*
X18830761Y115237286D01*
X18735523Y115189667D01*
X18687904Y115142048D01*
X18640285Y115046810D01*
X18640285Y114761096D01*
X18687904Y114665858D01*
X18735523Y114618239D01*
X18830761Y114570620D01*
X18973619Y114570620D01*
X18211714Y115237286D02*
X18211714Y114570620D01*
X18211714Y115142048D02*
X18164095Y115189667D01*
X18068857Y115237286D01*
X17926000Y115237286D01*
X17830761Y115189667D01*
X17783142Y115094429D01*
X17783142Y114570620D01*
X78461714Y114237286D02*
X78461714Y113570620D01*
X78699809Y114618239D02*
X78937904Y113903953D01*
X78318857Y113903953D01*
X77414095Y113570620D02*
X77985523Y113570620D01*
X77699809Y113570620D02*
X77699809Y114570620D01*
X77795047Y114427762D01*
X77890285Y114332524D01*
X77985523Y114284905D01*
X84961714Y114237286D02*
X84961714Y113570620D01*
X85199809Y114618239D02*
X85437904Y113903953D01*
X84818857Y113903953D01*
X84533142Y114570620D02*
X83914095Y114570620D01*
X84247428Y114189667D01*
X84104571Y114189667D01*
X84009333Y114142048D01*
X83961714Y114094429D01*
X83914095Y113999191D01*
X83914095Y113761096D01*
X83961714Y113665858D01*
X84009333Y113618239D01*
X84104571Y113570620D01*
X84390285Y113570620D01*
X84485523Y113618239D01*
X84533142Y113665858D01*
X37509333Y110320620D02*
X36890285Y110320620D01*
X37223619Y109939667D01*
X37080761Y109939667D01*
X36985523Y109892048D01*
X36937904Y109844429D01*
X36890285Y109749191D01*
X36890285Y109511096D01*
X36937904Y109415858D01*
X36985523Y109368239D01*
X37080761Y109320620D01*
X37366476Y109320620D01*
X37461714Y109368239D01*
X37509333Y109415858D01*
X108187904Y110225381D02*
X108140285Y110273000D01*
X108045047Y110320620D01*
X107806952Y110320620D01*
X107711714Y110273000D01*
X107664095Y110225381D01*
X107616476Y110130143D01*
X107616476Y110034905D01*
X107664095Y109892048D01*
X108235523Y109320620D01*
X107616476Y109320620D01*
X107235523Y110225381D02*
X107187904Y110273000D01*
X107092666Y110320620D01*
X106854571Y110320620D01*
X106759333Y110273000D01*
X106711714Y110225381D01*
X106664095Y110130143D01*
X106664095Y110034905D01*
X106711714Y109892048D01*
X107283142Y109320620D01*
X106664095Y109320620D01*
X118187904Y110225381D02*
X118140285Y110273000D01*
X118045047Y110320620D01*
X117806952Y110320620D01*
X117711714Y110273000D01*
X117664095Y110225381D01*
X117616476Y110130143D01*
X117616476Y110034905D01*
X117664095Y109892048D01*
X118235523Y109320620D01*
X117616476Y109320620D01*
X116759333Y109987286D02*
X116759333Y109320620D01*
X116997428Y110368239D02*
X117235523Y109653953D01*
X116616476Y109653953D01*
X51985523Y110320620D02*
X52176000Y110320620D01*
X52271238Y110273000D01*
X52318857Y110225381D01*
X52414095Y110082524D01*
X52461714Y109892048D01*
X52461714Y109511096D01*
X52414095Y109415858D01*
X52366476Y109368239D01*
X52271238Y109320620D01*
X52080761Y109320620D01*
X51985523Y109368239D01*
X51937904Y109415858D01*
X51890285Y109511096D01*
X51890285Y109749191D01*
X51937904Y109844429D01*
X51985523Y109892048D01*
X52080761Y109939667D01*
X52271238Y109939667D01*
X52366476Y109892048D01*
X52414095Y109844429D01*
X52461714Y109749191D01*
X40485523Y113820620D02*
X39866476Y113820620D01*
X40199809Y113439667D01*
X40056952Y113439667D01*
X39961714Y113392048D01*
X39914095Y113344429D01*
X39866476Y113249191D01*
X39866476Y113011096D01*
X39914095Y112915858D01*
X39961714Y112868239D01*
X40056952Y112820620D01*
X40342666Y112820620D01*
X40437904Y112868239D01*
X40485523Y112915858D01*
X38914095Y112820620D02*
X39485523Y112820620D01*
X39199809Y112820620D02*
X39199809Y113820620D01*
X39295047Y113677762D01*
X39390285Y113582524D01*
X39485523Y113534905D01*
X117747428Y107142048D02*
X117842666Y107189667D01*
X117890285Y107237286D01*
X117937904Y107332524D01*
X117937904Y107380143D01*
X117890285Y107475381D01*
X117842666Y107523000D01*
X117747428Y107570620D01*
X117556952Y107570620D01*
X117461714Y107523000D01*
X117414095Y107475381D01*
X117366476Y107380143D01*
X117366476Y107332524D01*
X117414095Y107237286D01*
X117461714Y107189667D01*
X117556952Y107142048D01*
X117747428Y107142048D01*
X117842666Y107094429D01*
X117890285Y107046810D01*
X117937904Y106951572D01*
X117937904Y106761096D01*
X117890285Y106665858D01*
X117842666Y106618239D01*
X117747428Y106570620D01*
X117556952Y106570620D01*
X117461714Y106618239D01*
X117414095Y106665858D01*
X117366476Y106761096D01*
X117366476Y106951572D01*
X117414095Y107046810D01*
X117461714Y107094429D01*
X117556952Y107142048D01*
X117033142Y107570620D02*
X116414095Y107570620D01*
X116747428Y107189667D01*
X116604571Y107189667D01*
X116509333Y107142048D01*
X116461714Y107094429D01*
X116414095Y106999191D01*
X116414095Y106761096D01*
X116461714Y106665858D01*
X116509333Y106618239D01*
X116604571Y106570620D01*
X116890285Y106570620D01*
X116985523Y106618239D01*
X117033142Y106665858D01*
X97961714Y114237286D02*
X97961714Y113570620D01*
X98199809Y114618239D02*
X98437904Y113903953D01*
X97818857Y113903953D01*
X97533142Y114570620D02*
X96866476Y114570620D01*
X97295047Y113570620D01*
X62211714Y107570620D02*
X62402190Y107570620D01*
X62497428Y107523000D01*
X62545047Y107475381D01*
X62640285Y107332524D01*
X62687904Y107142048D01*
X62687904Y106761096D01*
X62640285Y106665858D01*
X62592666Y106618239D01*
X62497428Y106570620D01*
X62306952Y106570620D01*
X62211714Y106618239D01*
X62164095Y106665858D01*
X62116476Y106761096D01*
X62116476Y106999191D01*
X62164095Y107094429D01*
X62211714Y107142048D01*
X62306952Y107189667D01*
X62497428Y107189667D01*
X62592666Y107142048D01*
X62640285Y107094429D01*
X62687904Y106999191D01*
X61259333Y107570620D02*
X61449809Y107570620D01*
X61545047Y107523000D01*
X61592666Y107475381D01*
X61687904Y107332524D01*
X61735523Y107142048D01*
X61735523Y106761096D01*
X61687904Y106665858D01*
X61640285Y106618239D01*
X61545047Y106570620D01*
X61354571Y106570620D01*
X61259333Y106618239D01*
X61211714Y106665858D01*
X61164095Y106761096D01*
X61164095Y106999191D01*
X61211714Y107094429D01*
X61259333Y107142048D01*
X61354571Y107189667D01*
X61545047Y107189667D01*
X61640285Y107142048D01*
X61687904Y107094429D01*
X61735523Y106999191D01*
X99937904Y109475381D02*
X99890285Y109523000D01*
X99795047Y109570620D01*
X99556952Y109570620D01*
X99461714Y109523000D01*
X99414095Y109475381D01*
X99366476Y109380143D01*
X99366476Y109284905D01*
X99414095Y109142048D01*
X99985523Y108570620D01*
X99366476Y108570620D01*
X98747428Y109570620D02*
X98652190Y109570620D01*
X98556952Y109523000D01*
X98509333Y109475381D01*
X98461714Y109380143D01*
X98414095Y109189667D01*
X98414095Y108951572D01*
X98461714Y108761096D01*
X98509333Y108665858D01*
X98556952Y108618239D01*
X98652190Y108570620D01*
X98747428Y108570620D01*
X98842666Y108618239D01*
X98890285Y108665858D01*
X98937904Y108761096D01*
X98985523Y108951572D01*
X98985523Y109189667D01*
X98937904Y109380143D01*
X98890285Y109475381D01*
X98842666Y109523000D01*
X98747428Y109570620D01*
X110164095Y113820620D02*
X110640285Y113820620D01*
X110687904Y113344429D01*
X110640285Y113392048D01*
X110545047Y113439667D01*
X110306952Y113439667D01*
X110211714Y113392048D01*
X110164095Y113344429D01*
X110116476Y113249191D01*
X110116476Y113011096D01*
X110164095Y112915858D01*
X110211714Y112868239D01*
X110306952Y112820620D01*
X110545047Y112820620D01*
X110640285Y112868239D01*
X110687904Y112915858D01*
X109497428Y113820620D02*
X109402190Y113820620D01*
X109306952Y113773000D01*
X109259333Y113725381D01*
X109211714Y113630143D01*
X109164095Y113439667D01*
X109164095Y113201572D01*
X109211714Y113011096D01*
X109259333Y112915858D01*
X109306952Y112868239D01*
X109402190Y112820620D01*
X109497428Y112820620D01*
X109592666Y112868239D01*
X109640285Y112915858D01*
X109687904Y113011096D01*
X109735523Y113201572D01*
X109735523Y113439667D01*
X109687904Y113630143D01*
X109640285Y113725381D01*
X109592666Y113773000D01*
X109497428Y113820620D01*
X115164095Y113820620D02*
X115640285Y113820620D01*
X115687904Y113344429D01*
X115640285Y113392048D01*
X115545047Y113439667D01*
X115306952Y113439667D01*
X115211714Y113392048D01*
X115164095Y113344429D01*
X115116476Y113249191D01*
X115116476Y113011096D01*
X115164095Y112915858D01*
X115211714Y112868239D01*
X115306952Y112820620D01*
X115545047Y112820620D01*
X115640285Y112868239D01*
X115687904Y112915858D01*
X114164095Y112820620D02*
X114735523Y112820620D01*
X114449809Y112820620D02*
X114449809Y113820620D01*
X114545047Y113677762D01*
X114640285Y113582524D01*
X114735523Y113534905D01*
X71961714Y107570620D02*
X72152190Y107570620D01*
X72247428Y107523000D01*
X72295047Y107475381D01*
X72390285Y107332524D01*
X72437904Y107142048D01*
X72437904Y106761096D01*
X72390285Y106665858D01*
X72342666Y106618239D01*
X72247428Y106570620D01*
X72056952Y106570620D01*
X71961714Y106618239D01*
X71914095Y106665858D01*
X71866476Y106761096D01*
X71866476Y106999191D01*
X71914095Y107094429D01*
X71961714Y107142048D01*
X72056952Y107189667D01*
X72247428Y107189667D01*
X72342666Y107142048D01*
X72390285Y107094429D01*
X72437904Y106999191D01*
X71390285Y106570620D02*
X71199809Y106570620D01*
X71104571Y106618239D01*
X71056952Y106665858D01*
X70961714Y106808715D01*
X70914095Y106999191D01*
X70914095Y107380143D01*
X70961714Y107475381D01*
X71009333Y107523000D01*
X71104571Y107570620D01*
X71295047Y107570620D01*
X71390285Y107523000D01*
X71437904Y107475381D01*
X71485523Y107380143D01*
X71485523Y107142048D01*
X71437904Y107046810D01*
X71390285Y106999191D01*
X71295047Y106951572D01*
X71104571Y106951572D01*
X71009333Y106999191D01*
X70961714Y107046810D01*
X70914095Y107142048D01*
X113187904Y110225381D02*
X113140285Y110273000D01*
X113045047Y110320620D01*
X112806952Y110320620D01*
X112711714Y110273000D01*
X112664095Y110225381D01*
X112616476Y110130143D01*
X112616476Y110034905D01*
X112664095Y109892048D01*
X113235523Y109320620D01*
X112616476Y109320620D01*
X112283142Y110320620D02*
X111664095Y110320620D01*
X111997428Y109939667D01*
X111854571Y109939667D01*
X111759333Y109892048D01*
X111711714Y109844429D01*
X111664095Y109749191D01*
X111664095Y109511096D01*
X111711714Y109415858D01*
X111759333Y109368239D01*
X111854571Y109320620D01*
X112140285Y109320620D01*
X112235523Y109368239D01*
X112283142Y109415858D01*
X81711714Y114237286D02*
X81711714Y113570620D01*
X81949809Y114618239D02*
X82187904Y113903953D01*
X81568857Y113903953D01*
X81235523Y114475381D02*
X81187904Y114523000D01*
X81092666Y114570620D01*
X80854571Y114570620D01*
X80759333Y114523000D01*
X80711714Y114475381D01*
X80664095Y114380143D01*
X80664095Y114284905D01*
X80711714Y114142048D01*
X81283142Y113570620D01*
X80664095Y113570620D01*
X127497428Y107142048D02*
X127592666Y107189667D01*
X127640285Y107237286D01*
X127687904Y107332524D01*
X127687904Y107380143D01*
X127640285Y107475381D01*
X127592666Y107523000D01*
X127497428Y107570620D01*
X127306952Y107570620D01*
X127211714Y107523000D01*
X127164095Y107475381D01*
X127116476Y107380143D01*
X127116476Y107332524D01*
X127164095Y107237286D01*
X127211714Y107189667D01*
X127306952Y107142048D01*
X127497428Y107142048D01*
X127592666Y107094429D01*
X127640285Y107046810D01*
X127687904Y106951572D01*
X127687904Y106761096D01*
X127640285Y106665858D01*
X127592666Y106618239D01*
X127497428Y106570620D01*
X127306952Y106570620D01*
X127211714Y106618239D01*
X127164095Y106665858D01*
X127116476Y106761096D01*
X127116476Y106951572D01*
X127164095Y107046810D01*
X127211714Y107094429D01*
X127306952Y107142048D01*
X126259333Y107570620D02*
X126449809Y107570620D01*
X126545047Y107523000D01*
X126592666Y107475381D01*
X126687904Y107332524D01*
X126735523Y107142048D01*
X126735523Y106761096D01*
X126687904Y106665858D01*
X126640285Y106618239D01*
X126545047Y106570620D01*
X126354571Y106570620D01*
X126259333Y106618239D01*
X126211714Y106665858D01*
X126164095Y106761096D01*
X126164095Y106999191D01*
X126211714Y107094429D01*
X126259333Y107142048D01*
X126354571Y107189667D01*
X126545047Y107189667D01*
X126640285Y107142048D01*
X126687904Y107094429D01*
X126735523Y106999191D01*
X89616476Y108570620D02*
X90187904Y108570620D01*
X89902190Y108570620D02*
X89902190Y109570620D01*
X89997428Y109427762D01*
X90092666Y109332524D01*
X90187904Y109284905D01*
X89283142Y109570620D02*
X88616476Y109570620D01*
X89045047Y108570620D01*
X70116476Y108570620D02*
X70687904Y108570620D01*
X70402190Y108570620D02*
X70402190Y109570620D01*
X70497428Y109427762D01*
X70592666Y109332524D01*
X70687904Y109284905D01*
X69164095Y108570620D02*
X69735523Y108570620D01*
X69449809Y108570620D02*
X69449809Y109570620D01*
X69545047Y109427762D01*
X69640285Y109332524D01*
X69735523Y109284905D01*
X98485523Y107570620D02*
X97818857Y107570620D01*
X98247428Y106570620D01*
X97533142Y107570620D02*
X96866476Y107570620D01*
X97295047Y106570620D01*
X96116476Y108570620D02*
X96687904Y108570620D01*
X96402190Y108570620D02*
X96402190Y109570620D01*
X96497428Y109427762D01*
X96592666Y109332524D01*
X96687904Y109284905D01*
X95640285Y108570620D02*
X95449809Y108570620D01*
X95354571Y108618239D01*
X95306952Y108665858D01*
X95211714Y108808715D01*
X95164095Y108999191D01*
X95164095Y109380143D01*
X95211714Y109475381D01*
X95259333Y109523000D01*
X95354571Y109570620D01*
X95545047Y109570620D01*
X95640285Y109523000D01*
X95687904Y109475381D01*
X95735523Y109380143D01*
X95735523Y109142048D01*
X95687904Y109046810D01*
X95640285Y108999191D01*
X95545047Y108951572D01*
X95354571Y108951572D01*
X95259333Y108999191D01*
X95211714Y109046810D01*
X95164095Y109142048D01*
X26640285Y109320620D02*
X27211714Y109320620D01*
X26926000Y109320620D02*
X26926000Y110320620D01*
X27021238Y110177762D01*
X27116476Y110082524D01*
X27211714Y110034905D01*
X65985523Y114570620D02*
X65366476Y114570620D01*
X65699809Y114189667D01*
X65556952Y114189667D01*
X65461714Y114142048D01*
X65414095Y114094429D01*
X65366476Y113999191D01*
X65366476Y113761096D01*
X65414095Y113665858D01*
X65461714Y113618239D01*
X65556952Y113570620D01*
X65842666Y113570620D01*
X65937904Y113618239D01*
X65985523Y113665858D01*
X65033142Y114570620D02*
X64366476Y114570620D01*
X64795047Y113570620D01*
X101211714Y114237286D02*
X101211714Y113570620D01*
X101449809Y114618239D02*
X101687904Y113903953D01*
X101068857Y113903953D01*
X100545047Y114142048D02*
X100640285Y114189667D01*
X100687904Y114237286D01*
X100735523Y114332524D01*
X100735523Y114380143D01*
X100687904Y114475381D01*
X100640285Y114523000D01*
X100545047Y114570620D01*
X100354571Y114570620D01*
X100259333Y114523000D01*
X100211714Y114475381D01*
X100164095Y114380143D01*
X100164095Y114332524D01*
X100211714Y114237286D01*
X100259333Y114189667D01*
X100354571Y114142048D01*
X100545047Y114142048D01*
X100640285Y114094429D01*
X100687904Y114046810D01*
X100735523Y113951572D01*
X100735523Y113761096D01*
X100687904Y113665858D01*
X100640285Y113618239D01*
X100545047Y113570620D01*
X100354571Y113570620D01*
X100259333Y113618239D01*
X100211714Y113665858D01*
X100164095Y113761096D01*
X100164095Y113951572D01*
X100211714Y114046810D01*
X100259333Y114094429D01*
X100354571Y114142048D01*
X79866476Y108570620D02*
X80437904Y108570620D01*
X80152190Y108570620D02*
X80152190Y109570620D01*
X80247428Y109427762D01*
X80342666Y109332524D01*
X80437904Y109284905D01*
X79009333Y109237286D02*
X79009333Y108570620D01*
X79247428Y109618239D02*
X79485523Y108903953D01*
X78866476Y108903953D01*
X68711714Y107570620D02*
X68902190Y107570620D01*
X68997428Y107523000D01*
X69045047Y107475381D01*
X69140285Y107332524D01*
X69187904Y107142048D01*
X69187904Y106761096D01*
X69140285Y106665858D01*
X69092666Y106618239D01*
X68997428Y106570620D01*
X68806952Y106570620D01*
X68711714Y106618239D01*
X68664095Y106665858D01*
X68616476Y106761096D01*
X68616476Y106999191D01*
X68664095Y107094429D01*
X68711714Y107142048D01*
X68806952Y107189667D01*
X68997428Y107189667D01*
X69092666Y107142048D01*
X69140285Y107094429D01*
X69187904Y106999191D01*
X68045047Y107142048D02*
X68140285Y107189667D01*
X68187904Y107237286D01*
X68235523Y107332524D01*
X68235523Y107380143D01*
X68187904Y107475381D01*
X68140285Y107523000D01*
X68045047Y107570620D01*
X67854571Y107570620D01*
X67759333Y107523000D01*
X67711714Y107475381D01*
X67664095Y107380143D01*
X67664095Y107332524D01*
X67711714Y107237286D01*
X67759333Y107189667D01*
X67854571Y107142048D01*
X68045047Y107142048D01*
X68140285Y107094429D01*
X68187904Y107046810D01*
X68235523Y106951572D01*
X68235523Y106761096D01*
X68187904Y106665858D01*
X68140285Y106618239D01*
X68045047Y106570620D01*
X67854571Y106570620D01*
X67759333Y106618239D01*
X67711714Y106665858D01*
X67664095Y106761096D01*
X67664095Y106951572D01*
X67711714Y107046810D01*
X67759333Y107094429D01*
X67854571Y107142048D01*
X135164095Y113820620D02*
X135640285Y113820620D01*
X135687904Y113344429D01*
X135640285Y113392048D01*
X135545047Y113439667D01*
X135306952Y113439667D01*
X135211714Y113392048D01*
X135164095Y113344429D01*
X135116476Y113249191D01*
X135116476Y113011096D01*
X135164095Y112915858D01*
X135211714Y112868239D01*
X135306952Y112820620D01*
X135545047Y112820620D01*
X135640285Y112868239D01*
X135687904Y112915858D01*
X134211714Y113820620D02*
X134687904Y113820620D01*
X134735523Y113344429D01*
X134687904Y113392048D01*
X134592666Y113439667D01*
X134354571Y113439667D01*
X134259333Y113392048D01*
X134211714Y113344429D01*
X134164095Y113249191D01*
X134164095Y113011096D01*
X134211714Y112915858D01*
X134259333Y112868239D01*
X134354571Y112820620D01*
X134592666Y112820620D01*
X134687904Y112868239D01*
X134735523Y112915858D01*
X133997428Y107142048D02*
X134092666Y107189667D01*
X134140285Y107237286D01*
X134187904Y107332524D01*
X134187904Y107380143D01*
X134140285Y107475381D01*
X134092666Y107523000D01*
X133997428Y107570620D01*
X133806952Y107570620D01*
X133711714Y107523000D01*
X133664095Y107475381D01*
X133616476Y107380143D01*
X133616476Y107332524D01*
X133664095Y107237286D01*
X133711714Y107189667D01*
X133806952Y107142048D01*
X133997428Y107142048D01*
X134092666Y107094429D01*
X134140285Y107046810D01*
X134187904Y106951572D01*
X134187904Y106761096D01*
X134140285Y106665858D01*
X134092666Y106618239D01*
X133997428Y106570620D01*
X133806952Y106570620D01*
X133711714Y106618239D01*
X133664095Y106665858D01*
X133616476Y106761096D01*
X133616476Y106951572D01*
X133664095Y107046810D01*
X133711714Y107094429D01*
X133806952Y107142048D01*
X133045047Y107142048D02*
X133140285Y107189667D01*
X133187904Y107237286D01*
X133235523Y107332524D01*
X133235523Y107380143D01*
X133187904Y107475381D01*
X133140285Y107523000D01*
X133045047Y107570620D01*
X132854571Y107570620D01*
X132759333Y107523000D01*
X132711714Y107475381D01*
X132664095Y107380143D01*
X132664095Y107332524D01*
X132711714Y107237286D01*
X132759333Y107189667D01*
X132854571Y107142048D01*
X133045047Y107142048D01*
X133140285Y107094429D01*
X133187904Y107046810D01*
X133235523Y106951572D01*
X133235523Y106761096D01*
X133187904Y106665858D01*
X133140285Y106618239D01*
X133045047Y106570620D01*
X132854571Y106570620D01*
X132759333Y106618239D01*
X132711714Y106665858D01*
X132664095Y106761096D01*
X132664095Y106951572D01*
X132711714Y107046810D01*
X132759333Y107094429D01*
X132854571Y107142048D01*
X55485523Y113820620D02*
X54866476Y113820620D01*
X55199809Y113439667D01*
X55056952Y113439667D01*
X54961714Y113392048D01*
X54914095Y113344429D01*
X54866476Y113249191D01*
X54866476Y113011096D01*
X54914095Y112915858D01*
X54961714Y112868239D01*
X55056952Y112820620D01*
X55342666Y112820620D01*
X55437904Y112868239D01*
X55485523Y112915858D01*
X54009333Y113487286D02*
X54009333Y112820620D01*
X54247428Y113868239D02*
X54485523Y113153953D01*
X53866476Y113153953D01*
X133437904Y110225381D02*
X133390285Y110273000D01*
X133295047Y110320620D01*
X133056952Y110320620D01*
X132961714Y110273000D01*
X132914095Y110225381D01*
X132866476Y110130143D01*
X132866476Y110034905D01*
X132914095Y109892048D01*
X133485523Y109320620D01*
X132866476Y109320620D01*
X132533142Y110320620D02*
X131866476Y110320620D01*
X132295047Y109320620D01*
X114497428Y107142048D02*
X114592666Y107189667D01*
X114640285Y107237286D01*
X114687904Y107332524D01*
X114687904Y107380143D01*
X114640285Y107475381D01*
X114592666Y107523000D01*
X114497428Y107570620D01*
X114306952Y107570620D01*
X114211714Y107523000D01*
X114164095Y107475381D01*
X114116476Y107380143D01*
X114116476Y107332524D01*
X114164095Y107237286D01*
X114211714Y107189667D01*
X114306952Y107142048D01*
X114497428Y107142048D01*
X114592666Y107094429D01*
X114640285Y107046810D01*
X114687904Y106951572D01*
X114687904Y106761096D01*
X114640285Y106665858D01*
X114592666Y106618239D01*
X114497428Y106570620D01*
X114306952Y106570620D01*
X114211714Y106618239D01*
X114164095Y106665858D01*
X114116476Y106761096D01*
X114116476Y106951572D01*
X114164095Y107046810D01*
X114211714Y107094429D01*
X114306952Y107142048D01*
X113735523Y107475381D02*
X113687904Y107523000D01*
X113592666Y107570620D01*
X113354571Y107570620D01*
X113259333Y107523000D01*
X113211714Y107475381D01*
X113164095Y107380143D01*
X113164095Y107284905D01*
X113211714Y107142048D01*
X113783142Y106570620D01*
X113164095Y106570620D01*
X78985523Y107570620D02*
X78318857Y107570620D01*
X78747428Y106570620D01*
X77414095Y106570620D02*
X77985523Y106570620D01*
X77699809Y106570620D02*
X77699809Y107570620D01*
X77795047Y107427762D01*
X77890285Y107332524D01*
X77985523Y107284905D01*
X101735523Y107570620D02*
X101068857Y107570620D01*
X101497428Y106570620D01*
X100545047Y107142048D02*
X100640285Y107189667D01*
X100687904Y107237286D01*
X100735523Y107332524D01*
X100735523Y107380143D01*
X100687904Y107475381D01*
X100640285Y107523000D01*
X100545047Y107570620D01*
X100354571Y107570620D01*
X100259333Y107523000D01*
X100211714Y107475381D01*
X100164095Y107380143D01*
X100164095Y107332524D01*
X100211714Y107237286D01*
X100259333Y107189667D01*
X100354571Y107142048D01*
X100545047Y107142048D01*
X100640285Y107094429D01*
X100687904Y107046810D01*
X100735523Y106951572D01*
X100735523Y106761096D01*
X100687904Y106665858D01*
X100640285Y106618239D01*
X100545047Y106570620D01*
X100354571Y106570620D01*
X100259333Y106618239D01*
X100211714Y106665858D01*
X100164095Y106761096D01*
X100164095Y106951572D01*
X100211714Y107046810D01*
X100259333Y107094429D01*
X100354571Y107142048D01*
X73366476Y108570620D02*
X73937904Y108570620D01*
X73652190Y108570620D02*
X73652190Y109570620D01*
X73747428Y109427762D01*
X73842666Y109332524D01*
X73937904Y109284905D01*
X72985523Y109475381D02*
X72937904Y109523000D01*
X72842666Y109570620D01*
X72604571Y109570620D01*
X72509333Y109523000D01*
X72461714Y109475381D01*
X72414095Y109380143D01*
X72414095Y109284905D01*
X72461714Y109142048D01*
X73033142Y108570620D01*
X72414095Y108570620D01*
X103187904Y109475381D02*
X103140285Y109523000D01*
X103045047Y109570620D01*
X102806952Y109570620D01*
X102711714Y109523000D01*
X102664095Y109475381D01*
X102616476Y109380143D01*
X102616476Y109284905D01*
X102664095Y109142048D01*
X103235523Y108570620D01*
X102616476Y108570620D01*
X101664095Y108570620D02*
X102235523Y108570620D01*
X101949809Y108570620D02*
X101949809Y109570620D01*
X102045047Y109427762D01*
X102140285Y109332524D01*
X102235523Y109284905D01*
X128187904Y110225381D02*
X128140285Y110273000D01*
X128045047Y110320620D01*
X127806952Y110320620D01*
X127711714Y110273000D01*
X127664095Y110225381D01*
X127616476Y110130143D01*
X127616476Y110034905D01*
X127664095Y109892048D01*
X128235523Y109320620D01*
X127616476Y109320620D01*
X126759333Y110320620D02*
X126949809Y110320620D01*
X127045047Y110273000D01*
X127092666Y110225381D01*
X127187904Y110082524D01*
X127235523Y109892048D01*
X127235523Y109511096D01*
X127187904Y109415858D01*
X127140285Y109368239D01*
X127045047Y109320620D01*
X126854571Y109320620D01*
X126759333Y109368239D01*
X126711714Y109415858D01*
X126664095Y109511096D01*
X126664095Y109749191D01*
X126711714Y109844429D01*
X126759333Y109892048D01*
X126854571Y109939667D01*
X127045047Y109939667D01*
X127140285Y109892048D01*
X127187904Y109844429D01*
X127235523Y109749191D01*
X120164095Y113820620D02*
X120640285Y113820620D01*
X120687904Y113344429D01*
X120640285Y113392048D01*
X120545047Y113439667D01*
X120306952Y113439667D01*
X120211714Y113392048D01*
X120164095Y113344429D01*
X120116476Y113249191D01*
X120116476Y113011096D01*
X120164095Y112915858D01*
X120211714Y112868239D01*
X120306952Y112820620D01*
X120545047Y112820620D01*
X120640285Y112868239D01*
X120687904Y112915858D01*
X119735523Y113725381D02*
X119687904Y113773000D01*
X119592666Y113820620D01*
X119354571Y113820620D01*
X119259333Y113773000D01*
X119211714Y113725381D01*
X119164095Y113630143D01*
X119164095Y113534905D01*
X119211714Y113392048D01*
X119783142Y112820620D01*
X119164095Y112820620D01*
X49211714Y107570620D02*
X49402190Y107570620D01*
X49497428Y107523000D01*
X49545047Y107475381D01*
X49640285Y107332524D01*
X49687904Y107142048D01*
X49687904Y106761096D01*
X49640285Y106665858D01*
X49592666Y106618239D01*
X49497428Y106570620D01*
X49306952Y106570620D01*
X49211714Y106618239D01*
X49164095Y106665858D01*
X49116476Y106761096D01*
X49116476Y106999191D01*
X49164095Y107094429D01*
X49211714Y107142048D01*
X49306952Y107189667D01*
X49497428Y107189667D01*
X49592666Y107142048D01*
X49640285Y107094429D01*
X49687904Y106999191D01*
X48735523Y107475381D02*
X48687904Y107523000D01*
X48592666Y107570620D01*
X48354571Y107570620D01*
X48259333Y107523000D01*
X48211714Y107475381D01*
X48164095Y107380143D01*
X48164095Y107284905D01*
X48211714Y107142048D01*
X48783142Y106570620D01*
X48164095Y106570620D01*
X85485523Y107570620D02*
X84818857Y107570620D01*
X85247428Y106570620D01*
X84533142Y107570620D02*
X83914095Y107570620D01*
X84247428Y107189667D01*
X84104571Y107189667D01*
X84009333Y107142048D01*
X83961714Y107094429D01*
X83914095Y106999191D01*
X83914095Y106761096D01*
X83961714Y106665858D01*
X84009333Y106618239D01*
X84104571Y106570620D01*
X84390285Y106570620D01*
X84485523Y106618239D01*
X84533142Y106665858D01*
X41985523Y109987286D02*
X41985523Y109320620D01*
X42223619Y110368239D02*
X42461714Y109653953D01*
X41842666Y109653953D01*
X62735523Y114570620D02*
X62116476Y114570620D01*
X62449809Y114189667D01*
X62306952Y114189667D01*
X62211714Y114142048D01*
X62164095Y114094429D01*
X62116476Y113999191D01*
X62116476Y113761096D01*
X62164095Y113665858D01*
X62211714Y113618239D01*
X62306952Y113570620D01*
X62592666Y113570620D01*
X62687904Y113618239D01*
X62735523Y113665858D01*
X61259333Y114570620D02*
X61449809Y114570620D01*
X61545047Y114523000D01*
X61592666Y114475381D01*
X61687904Y114332524D01*
X61735523Y114142048D01*
X61735523Y113761096D01*
X61687904Y113665858D01*
X61640285Y113618239D01*
X61545047Y113570620D01*
X61354571Y113570620D01*
X61259333Y113618239D01*
X61211714Y113665858D01*
X61164095Y113761096D01*
X61164095Y113999191D01*
X61211714Y114094429D01*
X61259333Y114142048D01*
X61354571Y114189667D01*
X61545047Y114189667D01*
X61640285Y114142048D01*
X61687904Y114094429D01*
X61735523Y113999191D01*
X165103380Y54479191D02*
X165103380Y53907762D01*
X165103380Y54193477D02*
X164103380Y54193477D01*
X164246238Y54098239D01*
X164341476Y54003000D01*
X164389095Y53907762D01*
X165103380Y55431572D02*
X165103380Y54860143D01*
X165103380Y55145858D02*
X164103380Y55145858D01*
X164246238Y55050620D01*
X164341476Y54955381D01*
X164389095Y54860143D01*
X164531952Y56003000D02*
X164484333Y55907762D01*
X164436714Y55860143D01*
X164341476Y55812524D01*
X164293857Y55812524D01*
X164198619Y55860143D01*
X164151000Y55907762D01*
X164103380Y56003000D01*
X164103380Y56193477D01*
X164151000Y56288715D01*
X164198619Y56336334D01*
X164293857Y56383953D01*
X164341476Y56383953D01*
X164436714Y56336334D01*
X164484333Y56288715D01*
X164531952Y56193477D01*
X164531952Y56003000D01*
X164579571Y55907762D01*
X164627190Y55860143D01*
X164722428Y55812524D01*
X164912904Y55812524D01*
X165008142Y55860143D01*
X165055761Y55907762D01*
X165103380Y56003000D01*
X165103380Y56193477D01*
X165055761Y56288715D01*
X165008142Y56336334D01*
X164912904Y56383953D01*
X164722428Y56383953D01*
X164627190Y56336334D01*
X164579571Y56288715D01*
X164531952Y56193477D01*
X165008142Y56812524D02*
X165055761Y56860143D01*
X165103380Y56812524D01*
X165055761Y56764905D01*
X165008142Y56812524D01*
X165103380Y56812524D01*
X165103380Y57812524D02*
X165103380Y57241096D01*
X165103380Y57526810D02*
X164103380Y57526810D01*
X164246238Y57431572D01*
X164341476Y57336334D01*
X164389095Y57241096D01*
X165103380Y58764905D02*
X165103380Y58193477D01*
X165103380Y58479191D02*
X164103380Y58479191D01*
X164246238Y58383953D01*
X164341476Y58288715D01*
X164389095Y58193477D01*
X164103380Y59383953D02*
X164103380Y59479191D01*
X164151000Y59574429D01*
X164198619Y59622048D01*
X164293857Y59669667D01*
X164484333Y59717286D01*
X164722428Y59717286D01*
X164912904Y59669667D01*
X165008142Y59622048D01*
X165055761Y59574429D01*
X165103380Y59479191D01*
X165103380Y59383953D01*
X165055761Y59288715D01*
X165008142Y59241096D01*
X164912904Y59193477D01*
X164722428Y59145858D01*
X164484333Y59145858D01*
X164293857Y59193477D01*
X164198619Y59241096D01*
X164151000Y59288715D01*
X164103380Y59383953D01*
X164103380Y60336334D02*
X164103380Y60431572D01*
X164151000Y60526810D01*
X164198619Y60574429D01*
X164293857Y60622048D01*
X164484333Y60669667D01*
X164722428Y60669667D01*
X164912904Y60622048D01*
X165008142Y60574429D01*
X165055761Y60526810D01*
X165103380Y60431572D01*
X165103380Y60336334D01*
X165055761Y60241096D01*
X165008142Y60193477D01*
X164912904Y60145858D01*
X164722428Y60098239D01*
X164484333Y60098239D01*
X164293857Y60145858D01*
X164198619Y60193477D01*
X164151000Y60241096D01*
X164103380Y60336334D01*
X165103380Y61860143D02*
X164436714Y61860143D01*
X164531952Y61860143D02*
X164484333Y61907762D01*
X164436714Y62003000D01*
X164436714Y62145858D01*
X164484333Y62241096D01*
X164579571Y62288715D01*
X165103380Y62288715D01*
X164579571Y62288715D02*
X164484333Y62336334D01*
X164436714Y62431572D01*
X164436714Y62574429D01*
X164484333Y62669667D01*
X164579571Y62717286D01*
X165103380Y62717286D01*
X165103380Y63193477D02*
X164436714Y63193477D01*
X164531952Y63193477D02*
X164484333Y63241096D01*
X164436714Y63336334D01*
X164436714Y63479191D01*
X164484333Y63574429D01*
X164579571Y63622048D01*
X165103380Y63622048D01*
X164579571Y63622048D02*
X164484333Y63669667D01*
X164436714Y63764905D01*
X164436714Y63907762D01*
X164484333Y64003000D01*
X164579571Y64050620D01*
X165103380Y64050620D01*
D11*
X160086000Y118058000D02*
X166387420Y118058000D01*
X160086000Y-52000D02*
X166387420Y-52000D01*
X165801000Y118058000D02*
X165801000Y64863715D01*
X165801000Y53142286D02*
X165801000Y-52000D01*
X165801000Y118058000D02*
X165214579Y116931496D01*
X165801000Y118058000D02*
X166387421Y116931496D01*
X165801000Y-52000D02*
X166387421Y1074504D01*
X165801000Y-52000D02*
X165214579Y1074504D01*
D10*
X75552190Y120025620D02*
X74980761Y120025620D01*
X75266476Y120025620D02*
X75266476Y121025620D01*
X75171238Y120882762D01*
X75076000Y120787524D01*
X74980761Y120739905D01*
X76409333Y121025620D02*
X76218857Y121025620D01*
X76123619Y120978000D01*
X76076000Y120930381D01*
X75980761Y120787524D01*
X75933142Y120597048D01*
X75933142Y120216096D01*
X75980761Y120120858D01*
X76028380Y120073239D01*
X76123619Y120025620D01*
X76314095Y120025620D01*
X76409333Y120073239D01*
X76456952Y120120858D01*
X76504571Y120216096D01*
X76504571Y120454191D01*
X76456952Y120549429D01*
X76409333Y120597048D01*
X76314095Y120644667D01*
X76123619Y120644667D01*
X76028380Y120597048D01*
X75980761Y120549429D01*
X75933142Y120454191D01*
X77123619Y121025620D02*
X77218857Y121025620D01*
X77314095Y120978000D01*
X77361714Y120930381D01*
X77409333Y120835143D01*
X77456952Y120644667D01*
X77456952Y120406572D01*
X77409333Y120216096D01*
X77361714Y120120858D01*
X77314095Y120073239D01*
X77218857Y120025620D01*
X77123619Y120025620D01*
X77028380Y120073239D01*
X76980761Y120120858D01*
X76933142Y120216096D01*
X76885523Y120406572D01*
X76885523Y120644667D01*
X76933142Y120835143D01*
X76980761Y120930381D01*
X77028380Y120978000D01*
X77123619Y121025620D01*
X77885523Y120120858D02*
X77933142Y120073239D01*
X77885523Y120025620D01*
X77837904Y120073239D01*
X77885523Y120120858D01*
X77885523Y120025620D01*
X78552190Y121025620D02*
X78647428Y121025620D01*
X78742666Y120978000D01*
X78790285Y120930381D01*
X78837904Y120835143D01*
X78885523Y120644667D01*
X78885523Y120406572D01*
X78837904Y120216096D01*
X78790285Y120120858D01*
X78742666Y120073239D01*
X78647428Y120025620D01*
X78552190Y120025620D01*
X78456952Y120073239D01*
X78409333Y120120858D01*
X78361714Y120216096D01*
X78314095Y120406572D01*
X78314095Y120644667D01*
X78361714Y120835143D01*
X78409333Y120930381D01*
X78456952Y120978000D01*
X78552190Y121025620D01*
X79266476Y120930381D02*
X79314095Y120978000D01*
X79409333Y121025620D01*
X79647428Y121025620D01*
X79742666Y120978000D01*
X79790285Y120930381D01*
X79837904Y120835143D01*
X79837904Y120739905D01*
X79790285Y120597048D01*
X79218857Y120025620D01*
X79837904Y120025620D01*
X80456952Y121025620D02*
X80552190Y121025620D01*
X80647428Y120978000D01*
X80695047Y120930381D01*
X80742666Y120835143D01*
X80790285Y120644667D01*
X80790285Y120406572D01*
X80742666Y120216096D01*
X80695047Y120120858D01*
X80647428Y120073239D01*
X80552190Y120025620D01*
X80456952Y120025620D01*
X80361714Y120073239D01*
X80314095Y120120858D01*
X80266476Y120216096D01*
X80218857Y120406572D01*
X80218857Y120644667D01*
X80266476Y120835143D01*
X80314095Y120930381D01*
X80361714Y120978000D01*
X80456952Y121025620D01*
X81409333Y121025620D02*
X81504571Y121025620D01*
X81599809Y120978000D01*
X81647428Y120930381D01*
X81695047Y120835143D01*
X81742666Y120644667D01*
X81742666Y120406572D01*
X81695047Y120216096D01*
X81647428Y120120858D01*
X81599809Y120073239D01*
X81504571Y120025620D01*
X81409333Y120025620D01*
X81314095Y120073239D01*
X81266476Y120120858D01*
X81218857Y120216096D01*
X81171238Y120406572D01*
X81171238Y120644667D01*
X81218857Y120835143D01*
X81266476Y120930381D01*
X81314095Y120978000D01*
X81409333Y121025620D01*
X82933142Y120025620D02*
X82933142Y120692286D01*
X82933142Y120597048D02*
X82980761Y120644667D01*
X83076000Y120692286D01*
X83218857Y120692286D01*
X83314095Y120644667D01*
X83361714Y120549429D01*
X83361714Y120025620D01*
X83361714Y120549429D02*
X83409333Y120644667D01*
X83504571Y120692286D01*
X83647428Y120692286D01*
X83742666Y120644667D01*
X83790285Y120549429D01*
X83790285Y120025620D01*
X84266476Y120025620D02*
X84266476Y120692286D01*
X84266476Y120597048D02*
X84314095Y120644667D01*
X84409333Y120692286D01*
X84552190Y120692286D01*
X84647428Y120644667D01*
X84695047Y120549429D01*
X84695047Y120025620D01*
X84695047Y120549429D02*
X84742666Y120644667D01*
X84837904Y120692286D01*
X84980761Y120692286D01*
X85076000Y120644667D01*
X85123619Y120549429D01*
X85123619Y120025620D01*
D11*
X160086000Y114883000D02*
X160086000Y119914420D01*
X66000Y114883000D02*
X66000Y119914420D01*
X160086000Y119328000D02*
X85936715Y119328000D01*
X74215286Y119328000D02*
X66000Y119328000D01*
X160086000Y119328000D02*
X158959496Y119914421D01*
X160086000Y119328000D02*
X158959496Y118741579D01*
X66000Y119328000D02*
X1192504Y118741579D01*
X66000Y119328000D02*
X1192504Y119914421D01*
D12*
G04 #@! TO.C,J3*
X122152190Y939667D02*
X122509333Y939667D01*
X122580761Y963477D01*
X122628380Y1011096D01*
X122652190Y1082524D01*
X122652190Y1130143D01*
X122152190Y749191D02*
X122152190Y439667D01*
X122342666Y606334D01*
X122342666Y534905D01*
X122366476Y487286D01*
X122390285Y463477D01*
X122437904Y439667D01*
X122556952Y439667D01*
X122604571Y463477D01*
X122628380Y487286D01*
X122652190Y534905D01*
X122652190Y677762D01*
X122628380Y725381D01*
X122604571Y749191D01*
G04 #@! TO.C,R6*
X100402190Y82356334D02*
X100164095Y82523000D01*
X100402190Y82642048D02*
X99902190Y82642048D01*
X99902190Y82451572D01*
X99926000Y82403953D01*
X99949809Y82380143D01*
X99997428Y82356334D01*
X100068857Y82356334D01*
X100116476Y82380143D01*
X100140285Y82403953D01*
X100164095Y82451572D01*
X100164095Y82642048D01*
X99902190Y81927762D02*
X99902190Y82023000D01*
X99926000Y82070620D01*
X99949809Y82094429D01*
X100021238Y82142048D01*
X100116476Y82165858D01*
X100306952Y82165858D01*
X100354571Y82142048D01*
X100378380Y82118239D01*
X100402190Y82070620D01*
X100402190Y81975381D01*
X100378380Y81927762D01*
X100354571Y81903953D01*
X100306952Y81880143D01*
X100187904Y81880143D01*
X100140285Y81903953D01*
X100116476Y81927762D01*
X100092666Y81975381D01*
X100092666Y82070620D01*
X100116476Y82118239D01*
X100140285Y82142048D01*
X100187904Y82165858D01*
G04 #@! TO.C,R27*
X27007428Y74046810D02*
X27174095Y74284905D01*
X27293142Y74046810D02*
X27293142Y74546810D01*
X27102666Y74546810D01*
X27055047Y74523000D01*
X27031238Y74499191D01*
X27007428Y74451572D01*
X27007428Y74380143D01*
X27031238Y74332524D01*
X27055047Y74308715D01*
X27102666Y74284905D01*
X27293142Y74284905D01*
X26816952Y74499191D02*
X26793142Y74523000D01*
X26745523Y74546810D01*
X26626476Y74546810D01*
X26578857Y74523000D01*
X26555047Y74499191D01*
X26531238Y74451572D01*
X26531238Y74403953D01*
X26555047Y74332524D01*
X26840761Y74046810D01*
X26531238Y74046810D01*
X26364571Y74546810D02*
X26031238Y74546810D01*
X26245523Y74046810D01*
D13*
G04 #@! TO.C,M5*
X75788501Y6935498D02*
X75263509Y6935498D01*
X83263498Y1810494D02*
X80638497Y1810494D01*
X76388503Y7535499D02*
X75788501Y6935498D01*
X74613503Y6285492D02*
X74613503Y360157D01*
X114038501Y285679D02*
X74613503Y360157D01*
X75263509Y6935498D02*
X74613503Y6285492D01*
X114038501Y7535499D02*
X114038501Y285679D01*
X114038501Y7535499D02*
X76388503Y7535499D01*
G04 #@! TO.C,J3*
X118416000Y10103000D02*
G75*
G03*
X118416000Y10103000I-100000J0D01*
G01*
X107276000Y13973000D02*
X107276000Y14223000D01*
X121076000Y14223000D02*
X121076000Y13973000D01*
X121076000Y323000D02*
X121076000Y2873000D01*
X108576000Y13673000D02*
X119776000Y13673000D01*
X119776000Y14223000D02*
X121076000Y14223000D01*
X108576000Y14223000D02*
X108576000Y13673000D01*
X107276000Y5573000D02*
X107276000Y11273000D01*
X119776000Y13673000D02*
X119776000Y14223000D01*
X107276000Y2973000D02*
X107276000Y323000D01*
X121076000Y11273000D02*
X121076000Y5573000D01*
X107276000Y323000D02*
X121076000Y323000D01*
X107276000Y14223000D02*
X108576000Y14223000D01*
G04 #@! TO.C,M7*
X115025998Y79500000D02*
X86696000Y79500000D01*
X116575998Y77950000D02*
X115025998Y79500000D01*
X116575998Y65424999D02*
X116175993Y65024994D01*
X116175993Y65024994D02*
X86276000Y65024997D01*
X116575998Y77950000D02*
X116575998Y65424999D01*
X85776000Y78575003D02*
X85776000Y65524997D01*
X86276000Y65024997D02*
X85776000Y65524997D01*
X86700998Y79500000D02*
X85776000Y78575003D01*
G04 #@! TO.C,M4*
X133125994Y19873000D02*
X133125994Y19048001D01*
X133069792Y19923000D02*
X122225998Y19923000D01*
X133125994Y19873000D02*
X133069792Y19923000D01*
X133400998Y13075173D02*
X122225998Y13036326D01*
X133400998Y18772995D02*
X133400998Y13075173D01*
X133400998Y18772995D02*
X133125994Y19048001D01*
X122225998Y19929203D02*
X122225998Y13036326D01*
G04 #@! TO.C,M11*
X116676003Y21160638D02*
X116676000Y57252923D01*
X70694225Y57822007D02*
X70351790Y57479572D01*
X70351798Y21597200D02*
X70351790Y57479572D01*
X116106911Y57822012D02*
X70694225Y57822007D01*
X116188366Y20673000D02*
X72800998Y20673000D01*
X70575998Y21373000D02*
X70351798Y21597200D01*
X116676000Y57252923D02*
X116106911Y57822012D01*
X116676003Y21160638D02*
X116188366Y20673000D01*
X72101000Y21373000D02*
X70575998Y21373000D01*
X72800998Y20673000D02*
X72101000Y21373000D01*
G04 #@! TO.C,M3*
X33476000Y323000D02*
X72626000Y323000D01*
X72626000Y323000D02*
X72626000Y15223000D01*
X72626000Y15223000D02*
X33476000Y15223000D01*
X33476000Y15223000D02*
X33476000Y323000D01*
G04 #@! TO.C,M8*
X19151001Y44160476D02*
X19151001Y47735475D01*
X14676004Y47735475D02*
X19151001Y47735475D01*
X8351000Y48460475D02*
X13951004Y48460475D01*
X876001Y44160476D02*
X876001Y47735475D01*
X13951004Y48460475D02*
X14676004Y47735475D01*
X876001Y44160476D02*
X19151001Y44160476D01*
X876001Y47735475D02*
X7626000Y47735475D01*
X7626000Y47735475D02*
X8351000Y48460475D01*
G04 #@! TO.C,M12*
X8351000Y43710475D02*
X13951004Y43710475D01*
X7626000Y42985475D02*
X8351000Y43710475D01*
X876001Y42985475D02*
X7626000Y42985475D01*
X19151001Y39410476D02*
X19151001Y42985475D01*
X876001Y39410476D02*
X19151001Y39410476D01*
X13951004Y43710475D02*
X14676004Y42985475D01*
X876001Y39410476D02*
X876001Y42985475D01*
X14676004Y42985475D02*
X19151001Y42985475D01*
G04 #@! TO.C,M9*
X58916486Y85555969D02*
X31432426Y85555969D01*
X57449455Y42722999D02*
X31524455Y42722999D01*
X59160001Y85312454D02*
X59160001Y69183543D01*
X31049455Y85172998D02*
X31049455Y43197999D01*
X31432426Y85555969D02*
X31049455Y85172998D01*
X31524455Y42722999D02*
X31049455Y43197999D01*
X59160001Y69183543D02*
X59024456Y69047998D01*
X59160001Y85312454D02*
X58916486Y85555969D01*
X59024456Y69047998D02*
X59024456Y44297999D01*
X59024456Y44297999D02*
X57449455Y42722999D01*
G04 #@! TO.C,M1*
X535019Y29510075D02*
X5685021Y29510075D01*
X409985Y29635109D02*
X409985Y38810112D01*
X409985Y38810112D02*
X16584984Y38810112D01*
X5685021Y29510075D02*
X6434984Y28760112D01*
X16584984Y23285111D02*
X16584984Y38810112D01*
X6434984Y24360110D02*
X7509983Y23285111D01*
X409985Y29635109D02*
X535019Y29510075D01*
X6434984Y24360110D02*
X6434984Y28760112D01*
X7509983Y23285111D02*
X16584984Y23285111D01*
G04 #@! TO.C,M10*
X127400999Y46284474D02*
X127400999Y33222793D01*
X127150999Y46534473D02*
X119800618Y46534473D01*
X121301001Y33459854D02*
X121301001Y32861145D01*
X120551000Y34209855D02*
X119550999Y34209855D01*
X119550999Y46284855D02*
X119550999Y34209855D01*
X127039351Y32861145D02*
X121301001Y32861145D01*
X127400999Y33222793D02*
X127039351Y32861145D01*
X121301001Y33459854D02*
X120551000Y34209855D01*
X127400999Y46284474D02*
X127150999Y46534473D01*
X119800618Y46534473D02*
X119550999Y46284855D01*
G04 #@! TO.C,M2*
X122676005Y31923003D02*
X128373827Y31923003D01*
X121576000Y31647999D02*
X121526000Y31591797D01*
X128373827Y31923003D02*
X128412674Y20748003D01*
X121576000Y31647999D02*
X122400999Y31647999D01*
X122676005Y31923003D02*
X122400999Y31647999D01*
X121526000Y31591797D02*
X121526000Y20748003D01*
X121519797Y20748003D02*
X128412674Y20748003D01*
D11*
G04 #@! TO.C,R6*
X99796000Y83926641D02*
X99796000Y83619359D01*
X100556000Y83926641D02*
X100556000Y83619359D01*
G04 #@! TO.C,R27*
X26532359Y73143000D02*
X26839641Y73143000D01*
X26532359Y73903000D02*
X26839641Y73903000D01*
G04 #@! TD*
M02*
