G04 #@! TF.GenerationSoftware,KiCad,Pcbnew,(5.99.0-11247-g3f6811f413)*
G04 #@! TF.CreationDate,2021-09-04T00:52:15+03:00*
G04 #@! TF.ProjectId,hellen88bmw,68656c6c-656e-4383-9862-6d772e6b6963,rev?*
G04 #@! TF.SameCoordinates,PX3d1b110PY9269338*
G04 #@! TF.FileFunction,Profile,NP*
%FSLAX46Y46*%
G04 Gerber Fmt 4.6, Leading zero omitted, Abs format (unit mm)*
G04 Created by KiCad (PCBNEW (5.99.0-11247-g3f6811f413)) date 2021-09-04 00:52:15*
%MOMM*%
%LPD*%
G01*
G04 APERTURE LIST*
G04 #@! TA.AperFunction,Profile*
%ADD10C,0.200000*%
G04 #@! TD*
G04 #@! TA.AperFunction,Profile*
%ADD11C,0.120000*%
G04 #@! TD*
G04 APERTURE END LIST*
D10*
X14499800Y48758200D02*
X14499800Y61958200D01*
X143499800Y43758200D02*
X159999800Y43758200D01*
X159999800Y93758200D02*
X159999800Y56958200D01*
X-200Y93758200D02*
X14499800Y93758200D01*
X156999800Y117958200D02*
X159999800Y114958200D01*
X-200Y48758200D02*
X14499800Y48758200D01*
X14499800Y93758200D02*
X14499800Y106958200D01*
X159999800Y114958200D02*
X159999800Y106958200D01*
X-200Y61958200D02*
X-200Y93758200D01*
X143499800Y106958200D02*
X143499800Y93758200D01*
X143499800Y93758200D02*
X159999800Y93758200D01*
X2999800Y117958200D02*
X156999800Y117958200D01*
X14499800Y106958200D02*
X-200Y106958200D01*
X159999800Y43758200D02*
X159999800Y6000200D01*
X14499800Y61958200D02*
X-200Y61958200D01*
X159999800Y6000200D02*
X153999800Y200D01*
X-200Y6000200D02*
X-200Y48758200D01*
X143499800Y56958200D02*
X143499800Y43758200D01*
X159999800Y56958200D02*
X143499800Y56958200D01*
X159999800Y106958200D02*
X143499800Y106958200D01*
X5999800Y200D02*
X-200Y6000200D01*
X-200Y106958200D02*
X-200Y114958200D01*
X153999800Y200D02*
X5999800Y200D01*
X-200Y114958200D02*
X2999800Y117958200D01*
D11*
G04 #@! TO.C,J1*
X85329407Y12419060D02*
X85329407Y13798715D01*
X86217114Y13733079D02*
X86217114Y12353424D01*
X78034886Y12425199D02*
X78034886Y13804854D01*
X78922593Y13739218D02*
X78922593Y12359563D01*
X86217112Y13733079D02*
G75*
G03*
X85329408Y13798715I-446835J-7526D01*
G01*
X85329406Y12419060D02*
G75*
G03*
X86217113Y12353424I446837J7527D01*
G01*
X78922591Y13739218D02*
G75*
G03*
X78034887Y13804854I-446835J-7526D01*
G01*
X78034885Y12425199D02*
G75*
G03*
X78922592Y12359563I446837J7527D01*
G01*
G04 #@! TD*
M02*
