G04 #@! TF.GenerationSoftware,KiCad,Pcbnew,7.0.6-7.0.6~ubuntu22.04.1*
G04 #@! TF.CreationDate,2023-07-13T13:33:58+00:00*
G04 #@! TF.ProjectId,hellen88bmw,68656c6c-656e-4383-9862-6d772e6b6963,B*
G04 #@! TF.SameCoordinates,PX3d1b110PY9269338*
G04 #@! TF.FileFunction,Paste,Top*
G04 #@! TF.FilePolarity,Positive*
%FSLAX46Y46*%
G04 Gerber Fmt 4.6, Leading zero omitted, Abs format (unit mm)*
G04 Created by KiCad (PCBNEW 7.0.6-7.0.6~ubuntu22.04.1) date 2023-07-13 13:33:58*
%MOMM*%
%LPD*%
G01*
G04 APERTURE LIST*
%ADD10R,3.050000X2.750000*%
%ADD11R,2.200000X1.200000*%
%ADD12R,0.640000X2.160000*%
%ADD13R,0.600000X0.450000*%
%ADD14R,0.900000X1.200000*%
%ADD15R,0.900000X0.400000*%
%ADD16R,0.800000X2.200000*%
%ADD17R,2.032000X5.080000*%
%ADD18R,11.430000X7.620000*%
%ADD19O,0.000001X0.000001*%
%ADD20R,0.350000X0.375000*%
%ADD21R,0.375000X0.350000*%
%ADD22O,0.500000X0.250000*%
%ADD23O,0.250000X0.500000*%
%ADD24R,1.310000X0.650000*%
%ADD25R,1.310000X0.600000*%
%ADD26R,0.795000X0.900000*%
%ADD27R,1.500000X2.000000*%
%ADD28R,3.800000X2.000000*%
%ADD29R,2.000000X1.500000*%
%ADD30R,2.000000X3.800000*%
%ADD31R,0.450000X0.600000*%
%ADD32R,1.200000X0.900000*%
G04 APERTURE END LIST*
G04 #@! TO.C,JP1*
G36*
G01*
X20301000Y99973001D02*
X21551000Y99973001D01*
G75*
G02*
X21651000Y99873001I0J-100000D01*
G01*
X21651000Y99073001D01*
G75*
G02*
X21551000Y98973001I-100000J0D01*
G01*
X20301000Y98973001D01*
G75*
G02*
X20201000Y99073001I0J100000D01*
G01*
X20201000Y99873001D01*
G75*
G02*
X20301000Y99973001I100000J0D01*
G01*
G37*
G36*
G01*
X20301000Y98072979D02*
X21551000Y98072979D01*
G75*
G02*
X21651000Y97972979I0J-100000D01*
G01*
X21651000Y97172979D01*
G75*
G02*
X21551000Y97072979I-100000J0D01*
G01*
X20301000Y97072979D01*
G75*
G02*
X20201000Y97172979I0J100000D01*
G01*
X20201000Y97972979D01*
G75*
G02*
X20301000Y98072979I100000J0D01*
G01*
G37*
G04 #@! TD*
G04 #@! TO.C,JP3*
G36*
G01*
X29551000Y99973001D02*
X30801000Y99973001D01*
G75*
G02*
X30901000Y99873001I0J-100000D01*
G01*
X30901000Y99073001D01*
G75*
G02*
X30801000Y98973001I-100000J0D01*
G01*
X29551000Y98973001D01*
G75*
G02*
X29451000Y99073001I0J100000D01*
G01*
X29451000Y99873001D01*
G75*
G02*
X29551000Y99973001I100000J0D01*
G01*
G37*
G36*
G01*
X29551000Y98072979D02*
X30801000Y98072979D01*
G75*
G02*
X30901000Y97972979I0J-100000D01*
G01*
X30901000Y97172979D01*
G75*
G02*
X30801000Y97072979I-100000J0D01*
G01*
X29551000Y97072979D01*
G75*
G02*
X29451000Y97172979I0J100000D01*
G01*
X29451000Y97972979D01*
G75*
G02*
X29551000Y98072979I100000J0D01*
G01*
G37*
G04 #@! TD*
G04 #@! TO.C,JP4*
G36*
G01*
X35051000Y99973001D02*
X36301000Y99973001D01*
G75*
G02*
X36401000Y99873001I0J-100000D01*
G01*
X36401000Y99073001D01*
G75*
G02*
X36301000Y98973001I-100000J0D01*
G01*
X35051000Y98973001D01*
G75*
G02*
X34951000Y99073001I0J100000D01*
G01*
X34951000Y99873001D01*
G75*
G02*
X35051000Y99973001I100000J0D01*
G01*
G37*
G36*
G01*
X35051000Y98072979D02*
X36301000Y98072979D01*
G75*
G02*
X36401000Y97972979I0J-100000D01*
G01*
X36401000Y97172979D01*
G75*
G02*
X36301000Y97072979I-100000J0D01*
G01*
X35051000Y97072979D01*
G75*
G02*
X34951000Y97172979I0J100000D01*
G01*
X34951000Y97972979D01*
G75*
G02*
X35051000Y98072979I100000J0D01*
G01*
G37*
G04 #@! TD*
G04 #@! TO.C,JP5*
G36*
G01*
X44551000Y99973001D02*
X45801000Y99973001D01*
G75*
G02*
X45901000Y99873001I0J-100000D01*
G01*
X45901000Y99073001D01*
G75*
G02*
X45801000Y98973001I-100000J0D01*
G01*
X44551000Y98973001D01*
G75*
G02*
X44451000Y99073001I0J100000D01*
G01*
X44451000Y99873001D01*
G75*
G02*
X44551000Y99973001I100000J0D01*
G01*
G37*
G36*
G01*
X44551000Y98072979D02*
X45801000Y98072979D01*
G75*
G02*
X45901000Y97972979I0J-100000D01*
G01*
X45901000Y97172979D01*
G75*
G02*
X45801000Y97072979I-100000J0D01*
G01*
X44551000Y97072979D01*
G75*
G02*
X44451000Y97172979I0J100000D01*
G01*
X44451000Y97972979D01*
G75*
G02*
X44551000Y98072979I100000J0D01*
G01*
G37*
G04 #@! TD*
G04 #@! TO.C,JP7*
G36*
G01*
X51301000Y99973001D02*
X52551000Y99973001D01*
G75*
G02*
X52651000Y99873001I0J-100000D01*
G01*
X52651000Y99073001D01*
G75*
G02*
X52551000Y98973001I-100000J0D01*
G01*
X51301000Y98973001D01*
G75*
G02*
X51201000Y99073001I0J100000D01*
G01*
X51201000Y99873001D01*
G75*
G02*
X51301000Y99973001I100000J0D01*
G01*
G37*
G36*
G01*
X51301000Y98072979D02*
X52551000Y98072979D01*
G75*
G02*
X52651000Y97972979I0J-100000D01*
G01*
X52651000Y97172979D01*
G75*
G02*
X52551000Y97072979I-100000J0D01*
G01*
X51301000Y97072979D01*
G75*
G02*
X51201000Y97172979I0J100000D01*
G01*
X51201000Y97972979D01*
G75*
G02*
X51301000Y98072979I100000J0D01*
G01*
G37*
G04 #@! TD*
G04 #@! TO.C,JP16*
G36*
G01*
X84551000Y99973001D02*
X85801000Y99973001D01*
G75*
G02*
X85901000Y99873001I0J-100000D01*
G01*
X85901000Y99073001D01*
G75*
G02*
X85801000Y98973001I-100000J0D01*
G01*
X84551000Y98973001D01*
G75*
G02*
X84451000Y99073001I0J100000D01*
G01*
X84451000Y99873001D01*
G75*
G02*
X84551000Y99973001I100000J0D01*
G01*
G37*
G36*
G01*
X84551000Y98072979D02*
X85801000Y98072979D01*
G75*
G02*
X85901000Y97972979I0J-100000D01*
G01*
X85901000Y97172979D01*
G75*
G02*
X85801000Y97072979I-100000J0D01*
G01*
X84551000Y97072979D01*
G75*
G02*
X84451000Y97172979I0J100000D01*
G01*
X84451000Y97972979D01*
G75*
G02*
X84551000Y98072979I100000J0D01*
G01*
G37*
G04 #@! TD*
G04 #@! TO.C,JP17*
G36*
G01*
X87301000Y99973001D02*
X88551000Y99973001D01*
G75*
G02*
X88651000Y99873001I0J-100000D01*
G01*
X88651000Y99073001D01*
G75*
G02*
X88551000Y98973001I-100000J0D01*
G01*
X87301000Y98973001D01*
G75*
G02*
X87201000Y99073001I0J100000D01*
G01*
X87201000Y99873001D01*
G75*
G02*
X87301000Y99973001I100000J0D01*
G01*
G37*
G36*
G01*
X87301000Y98072979D02*
X88551000Y98072979D01*
G75*
G02*
X88651000Y97972979I0J-100000D01*
G01*
X88651000Y97172979D01*
G75*
G02*
X88551000Y97072979I-100000J0D01*
G01*
X87301000Y97072979D01*
G75*
G02*
X87201000Y97172979I0J100000D01*
G01*
X87201000Y97972979D01*
G75*
G02*
X87301000Y98072979I100000J0D01*
G01*
G37*
G04 #@! TD*
G04 #@! TO.C,JP20*
G36*
G01*
X94301000Y92473001D02*
X95551000Y92473001D01*
G75*
G02*
X95651000Y92373001I0J-100000D01*
G01*
X95651000Y91573001D01*
G75*
G02*
X95551000Y91473001I-100000J0D01*
G01*
X94301000Y91473001D01*
G75*
G02*
X94201000Y91573001I0J100000D01*
G01*
X94201000Y92373001D01*
G75*
G02*
X94301000Y92473001I100000J0D01*
G01*
G37*
G36*
G01*
X94301000Y90572979D02*
X95551000Y90572979D01*
G75*
G02*
X95651000Y90472979I0J-100000D01*
G01*
X95651000Y89672979D01*
G75*
G02*
X95551000Y89572979I-100000J0D01*
G01*
X94301000Y89572979D01*
G75*
G02*
X94201000Y89672979I0J100000D01*
G01*
X94201000Y90472979D01*
G75*
G02*
X94301000Y90572979I100000J0D01*
G01*
G37*
G04 #@! TD*
G04 #@! TO.C,JP21*
G36*
G01*
X97551000Y92473001D02*
X98801000Y92473001D01*
G75*
G02*
X98901000Y92373001I0J-100000D01*
G01*
X98901000Y91573001D01*
G75*
G02*
X98801000Y91473001I-100000J0D01*
G01*
X97551000Y91473001D01*
G75*
G02*
X97451000Y91573001I0J100000D01*
G01*
X97451000Y92373001D01*
G75*
G02*
X97551000Y92473001I100000J0D01*
G01*
G37*
G36*
G01*
X97551000Y90572979D02*
X98801000Y90572979D01*
G75*
G02*
X98901000Y90472979I0J-100000D01*
G01*
X98901000Y89672979D01*
G75*
G02*
X98801000Y89572979I-100000J0D01*
G01*
X97551000Y89572979D01*
G75*
G02*
X97451000Y89672979I0J100000D01*
G01*
X97451000Y90472979D01*
G75*
G02*
X97551000Y90572979I100000J0D01*
G01*
G37*
G04 #@! TD*
G04 #@! TO.C,JP26*
G36*
G01*
X129301000Y99973001D02*
X130551000Y99973001D01*
G75*
G02*
X130651000Y99873001I0J-100000D01*
G01*
X130651000Y99073001D01*
G75*
G02*
X130551000Y98973001I-100000J0D01*
G01*
X129301000Y98973001D01*
G75*
G02*
X129201000Y99073001I0J100000D01*
G01*
X129201000Y99873001D01*
G75*
G02*
X129301000Y99973001I100000J0D01*
G01*
G37*
G36*
G01*
X129301000Y98072979D02*
X130551000Y98072979D01*
G75*
G02*
X130651000Y97972979I0J-100000D01*
G01*
X130651000Y97172979D01*
G75*
G02*
X130551000Y97072979I-100000J0D01*
G01*
X129301000Y97072979D01*
G75*
G02*
X129201000Y97172979I0J100000D01*
G01*
X129201000Y97972979D01*
G75*
G02*
X129301000Y98072979I100000J0D01*
G01*
G37*
G04 #@! TD*
G04 #@! TO.C,JP27*
G36*
G01*
X135301000Y99973001D02*
X136551000Y99973001D01*
G75*
G02*
X136651000Y99873001I0J-100000D01*
G01*
X136651000Y99073001D01*
G75*
G02*
X136551000Y98973001I-100000J0D01*
G01*
X135301000Y98973001D01*
G75*
G02*
X135201000Y99073001I0J100000D01*
G01*
X135201000Y99873001D01*
G75*
G02*
X135301000Y99973001I100000J0D01*
G01*
G37*
G36*
G01*
X135301000Y98072979D02*
X136551000Y98072979D01*
G75*
G02*
X136651000Y97972979I0J-100000D01*
G01*
X136651000Y97172979D01*
G75*
G02*
X136551000Y97072979I-100000J0D01*
G01*
X135301000Y97072979D01*
G75*
G02*
X135201000Y97172979I0J100000D01*
G01*
X135201000Y97972979D01*
G75*
G02*
X135301000Y98072979I100000J0D01*
G01*
G37*
G04 #@! TD*
G04 #@! TO.C,JP29*
G36*
G01*
X23051000Y99973001D02*
X24301000Y99973001D01*
G75*
G02*
X24401000Y99873001I0J-100000D01*
G01*
X24401000Y99073001D01*
G75*
G02*
X24301000Y98973001I-100000J0D01*
G01*
X23051000Y98973001D01*
G75*
G02*
X22951000Y99073001I0J100000D01*
G01*
X22951000Y99873001D01*
G75*
G02*
X23051000Y99973001I100000J0D01*
G01*
G37*
G36*
G01*
X23051000Y98072979D02*
X24301000Y98072979D01*
G75*
G02*
X24401000Y97972979I0J-100000D01*
G01*
X24401000Y97172979D01*
G75*
G02*
X24301000Y97072979I-100000J0D01*
G01*
X23051000Y97072979D01*
G75*
G02*
X22951000Y97172979I0J100000D01*
G01*
X22951000Y97972979D01*
G75*
G02*
X23051000Y98072979I100000J0D01*
G01*
G37*
G04 #@! TD*
G04 #@! TO.C,JP31*
G36*
G01*
X32301000Y99973001D02*
X33551000Y99973001D01*
G75*
G02*
X33651000Y99873001I0J-100000D01*
G01*
X33651000Y99073001D01*
G75*
G02*
X33551000Y98973001I-100000J0D01*
G01*
X32301000Y98973001D01*
G75*
G02*
X32201000Y99073001I0J100000D01*
G01*
X32201000Y99873001D01*
G75*
G02*
X32301000Y99973001I100000J0D01*
G01*
G37*
G36*
G01*
X32301000Y98072979D02*
X33551000Y98072979D01*
G75*
G02*
X33651000Y97972979I0J-100000D01*
G01*
X33651000Y97172979D01*
G75*
G02*
X33551000Y97072979I-100000J0D01*
G01*
X32301000Y97072979D01*
G75*
G02*
X32201000Y97172979I0J100000D01*
G01*
X32201000Y97972979D01*
G75*
G02*
X32301000Y98072979I100000J0D01*
G01*
G37*
G04 #@! TD*
G04 #@! TO.C,JP32*
G36*
G01*
X40551000Y99973001D02*
X41801000Y99973001D01*
G75*
G02*
X41901000Y99873001I0J-100000D01*
G01*
X41901000Y99073001D01*
G75*
G02*
X41801000Y98973001I-100000J0D01*
G01*
X40551000Y98973001D01*
G75*
G02*
X40451000Y99073001I0J100000D01*
G01*
X40451000Y99873001D01*
G75*
G02*
X40551000Y99973001I100000J0D01*
G01*
G37*
G36*
G01*
X40551000Y98072979D02*
X41801000Y98072979D01*
G75*
G02*
X41901000Y97972979I0J-100000D01*
G01*
X41901000Y97172979D01*
G75*
G02*
X41801000Y97072979I-100000J0D01*
G01*
X40551000Y97072979D01*
G75*
G02*
X40451000Y97172979I0J100000D01*
G01*
X40451000Y97972979D01*
G75*
G02*
X40551000Y98072979I100000J0D01*
G01*
G37*
G04 #@! TD*
G04 #@! TO.C,JP33*
G36*
G01*
X47301000Y99973001D02*
X48551000Y99973001D01*
G75*
G02*
X48651000Y99873001I0J-100000D01*
G01*
X48651000Y99073001D01*
G75*
G02*
X48551000Y98973001I-100000J0D01*
G01*
X47301000Y98973001D01*
G75*
G02*
X47201000Y99073001I0J100000D01*
G01*
X47201000Y99873001D01*
G75*
G02*
X47301000Y99973001I100000J0D01*
G01*
G37*
G36*
G01*
X47301000Y98072979D02*
X48551000Y98072979D01*
G75*
G02*
X48651000Y97972979I0J-100000D01*
G01*
X48651000Y97172979D01*
G75*
G02*
X48551000Y97072979I-100000J0D01*
G01*
X47301000Y97072979D01*
G75*
G02*
X47201000Y97172979I0J100000D01*
G01*
X47201000Y97972979D01*
G75*
G02*
X47301000Y98072979I100000J0D01*
G01*
G37*
G04 #@! TD*
G04 #@! TO.C,JP35*
G36*
G01*
X56701000Y99973001D02*
X57951000Y99973001D01*
G75*
G02*
X58051000Y99873001I0J-100000D01*
G01*
X58051000Y99073001D01*
G75*
G02*
X57951000Y98973001I-100000J0D01*
G01*
X56701000Y98973001D01*
G75*
G02*
X56601000Y99073001I0J100000D01*
G01*
X56601000Y99873001D01*
G75*
G02*
X56701000Y99973001I100000J0D01*
G01*
G37*
G36*
G01*
X56701000Y98072979D02*
X57951000Y98072979D01*
G75*
G02*
X58051000Y97972979I0J-100000D01*
G01*
X58051000Y97172979D01*
G75*
G02*
X57951000Y97072979I-100000J0D01*
G01*
X56701000Y97072979D01*
G75*
G02*
X56601000Y97172979I0J100000D01*
G01*
X56601000Y97972979D01*
G75*
G02*
X56701000Y98072979I100000J0D01*
G01*
G37*
G04 #@! TD*
G04 #@! TO.C,JP41*
G36*
G01*
X77301000Y92473001D02*
X78551000Y92473001D01*
G75*
G02*
X78651000Y92373001I0J-100000D01*
G01*
X78651000Y91573001D01*
G75*
G02*
X78551000Y91473001I-100000J0D01*
G01*
X77301000Y91473001D01*
G75*
G02*
X77201000Y91573001I0J100000D01*
G01*
X77201000Y92373001D01*
G75*
G02*
X77301000Y92473001I100000J0D01*
G01*
G37*
G36*
G01*
X77301000Y90572979D02*
X78551000Y90572979D01*
G75*
G02*
X78651000Y90472979I0J-100000D01*
G01*
X78651000Y89672979D01*
G75*
G02*
X78551000Y89572979I-100000J0D01*
G01*
X77301000Y89572979D01*
G75*
G02*
X77201000Y89672979I0J100000D01*
G01*
X77201000Y90472979D01*
G75*
G02*
X77301000Y90572979I100000J0D01*
G01*
G37*
G04 #@! TD*
G04 #@! TO.C,JP42*
G36*
G01*
X80101000Y92473001D02*
X81351000Y92473001D01*
G75*
G02*
X81451000Y92373001I0J-100000D01*
G01*
X81451000Y91573001D01*
G75*
G02*
X81351000Y91473001I-100000J0D01*
G01*
X80101000Y91473001D01*
G75*
G02*
X80001000Y91573001I0J100000D01*
G01*
X80001000Y92373001D01*
G75*
G02*
X80101000Y92473001I100000J0D01*
G01*
G37*
G36*
G01*
X80101000Y90572979D02*
X81351000Y90572979D01*
G75*
G02*
X81451000Y90472979I0J-100000D01*
G01*
X81451000Y89672979D01*
G75*
G02*
X81351000Y89572979I-100000J0D01*
G01*
X80101000Y89572979D01*
G75*
G02*
X80001000Y89672979I0J100000D01*
G01*
X80001000Y90472979D01*
G75*
G02*
X80101000Y90572979I100000J0D01*
G01*
G37*
G04 #@! TD*
G04 #@! TO.C,JP43*
G36*
G01*
X81801000Y99973001D02*
X83051000Y99973001D01*
G75*
G02*
X83151000Y99873001I0J-100000D01*
G01*
X83151000Y99073001D01*
G75*
G02*
X83051000Y98973001I-100000J0D01*
G01*
X81801000Y98973001D01*
G75*
G02*
X81701000Y99073001I0J100000D01*
G01*
X81701000Y99873001D01*
G75*
G02*
X81801000Y99973001I100000J0D01*
G01*
G37*
G36*
G01*
X81801000Y98072979D02*
X83051000Y98072979D01*
G75*
G02*
X83151000Y97972979I0J-100000D01*
G01*
X83151000Y97172979D01*
G75*
G02*
X83051000Y97072979I-100000J0D01*
G01*
X81801000Y97072979D01*
G75*
G02*
X81701000Y97172979I0J100000D01*
G01*
X81701000Y97972979D01*
G75*
G02*
X81801000Y98072979I100000J0D01*
G01*
G37*
G04 #@! TD*
G04 #@! TO.C,JP46*
G36*
G01*
X88801000Y92473001D02*
X90051000Y92473001D01*
G75*
G02*
X90151000Y92373001I0J-100000D01*
G01*
X90151000Y91573001D01*
G75*
G02*
X90051000Y91473001I-100000J0D01*
G01*
X88801000Y91473001D01*
G75*
G02*
X88701000Y91573001I0J100000D01*
G01*
X88701000Y92373001D01*
G75*
G02*
X88801000Y92473001I100000J0D01*
G01*
G37*
G36*
G01*
X88801000Y90572979D02*
X90051000Y90572979D01*
G75*
G02*
X90151000Y90472979I0J-100000D01*
G01*
X90151000Y89672979D01*
G75*
G02*
X90051000Y89572979I-100000J0D01*
G01*
X88801000Y89572979D01*
G75*
G02*
X88701000Y89672979I0J100000D01*
G01*
X88701000Y90472979D01*
G75*
G02*
X88801000Y90572979I100000J0D01*
G01*
G37*
G04 #@! TD*
G04 #@! TO.C,JP47*
G36*
G01*
X91551000Y92473001D02*
X92801000Y92473001D01*
G75*
G02*
X92901000Y92373001I0J-100000D01*
G01*
X92901000Y91573001D01*
G75*
G02*
X92801000Y91473001I-100000J0D01*
G01*
X91551000Y91473001D01*
G75*
G02*
X91451000Y91573001I0J100000D01*
G01*
X91451000Y92373001D01*
G75*
G02*
X91551000Y92473001I100000J0D01*
G01*
G37*
G36*
G01*
X91551000Y90572979D02*
X92801000Y90572979D01*
G75*
G02*
X92901000Y90472979I0J-100000D01*
G01*
X92901000Y89672979D01*
G75*
G02*
X92801000Y89572979I-100000J0D01*
G01*
X91551000Y89572979D01*
G75*
G02*
X91451000Y89672979I0J100000D01*
G01*
X91451000Y90472979D01*
G75*
G02*
X91551000Y90572979I100000J0D01*
G01*
G37*
G04 #@! TD*
G04 #@! TO.C,JP54*
G36*
G01*
X131776000Y100178010D02*
X131776000Y100868010D01*
G75*
G02*
X132006000Y101098010I230000J0D01*
G01*
X133346000Y101098010D01*
G75*
G02*
X133576000Y100868010I0J-230000D01*
G01*
X133576000Y100178010D01*
G75*
G02*
X133346000Y99948010I-230000J0D01*
G01*
X132006000Y99948010D01*
G75*
G02*
X131776000Y100178010I0J230000D01*
G01*
G37*
G36*
G01*
X131776000Y97277990D02*
X131776000Y97967990D01*
G75*
G02*
X132006000Y98197990I230000J0D01*
G01*
X133346000Y98197990D01*
G75*
G02*
X133576000Y97967990I0J-230000D01*
G01*
X133576000Y97277990D01*
G75*
G02*
X133346000Y97047990I-230000J0D01*
G01*
X132006000Y97047990D01*
G75*
G02*
X131776000Y97277990I0J230000D01*
G01*
G37*
G04 #@! TD*
G04 #@! TO.C,JP56*
G36*
G01*
X26526000Y99628010D02*
X26526000Y100318010D01*
G75*
G02*
X26756000Y100548010I230000J0D01*
G01*
X28096000Y100548010D01*
G75*
G02*
X28326000Y100318010I0J-230000D01*
G01*
X28326000Y99628010D01*
G75*
G02*
X28096000Y99398010I-230000J0D01*
G01*
X26756000Y99398010D01*
G75*
G02*
X26526000Y99628010I0J230000D01*
G01*
G37*
G36*
G01*
X26526000Y96727990D02*
X26526000Y97417990D01*
G75*
G02*
X26756000Y97647990I230000J0D01*
G01*
X28096000Y97647990D01*
G75*
G02*
X28326000Y97417990I0J-230000D01*
G01*
X28326000Y96727990D01*
G75*
G02*
X28096000Y96497990I-230000J0D01*
G01*
X26756000Y96497990D01*
G75*
G02*
X26526000Y96727990I0J230000D01*
G01*
G37*
G04 #@! TD*
G04 #@! TO.C,JP73*
G36*
G01*
X83301000Y92473001D02*
X84551000Y92473001D01*
G75*
G02*
X84651000Y92373001I0J-100000D01*
G01*
X84651000Y91573001D01*
G75*
G02*
X84551000Y91473001I-100000J0D01*
G01*
X83301000Y91473001D01*
G75*
G02*
X83201000Y91573001I0J100000D01*
G01*
X83201000Y92373001D01*
G75*
G02*
X83301000Y92473001I100000J0D01*
G01*
G37*
G36*
G01*
X83301000Y90572979D02*
X84551000Y90572979D01*
G75*
G02*
X84651000Y90472979I0J-100000D01*
G01*
X84651000Y89672979D01*
G75*
G02*
X84551000Y89572979I-100000J0D01*
G01*
X83301000Y89572979D01*
G75*
G02*
X83201000Y89672979I0J100000D01*
G01*
X83201000Y90472979D01*
G75*
G02*
X83301000Y90572979I100000J0D01*
G01*
G37*
G04 #@! TD*
G04 #@! TO.C,JP77*
G36*
G01*
X94301000Y99973001D02*
X95551000Y99973001D01*
G75*
G02*
X95651000Y99873001I0J-100000D01*
G01*
X95651000Y99073001D01*
G75*
G02*
X95551000Y98973001I-100000J0D01*
G01*
X94301000Y98973001D01*
G75*
G02*
X94201000Y99073001I0J100000D01*
G01*
X94201000Y99873001D01*
G75*
G02*
X94301000Y99973001I100000J0D01*
G01*
G37*
G36*
G01*
X94301000Y98072979D02*
X95551000Y98072979D01*
G75*
G02*
X95651000Y97972979I0J-100000D01*
G01*
X95651000Y97172979D01*
G75*
G02*
X95551000Y97072979I-100000J0D01*
G01*
X94301000Y97072979D01*
G75*
G02*
X94201000Y97172979I0J100000D01*
G01*
X94201000Y97972979D01*
G75*
G02*
X94301000Y98072979I100000J0D01*
G01*
G37*
G04 #@! TD*
G04 #@! TO.C,JP78*
G36*
G01*
X100301000Y99973001D02*
X101551000Y99973001D01*
G75*
G02*
X101651000Y99873001I0J-100000D01*
G01*
X101651000Y99073001D01*
G75*
G02*
X101551000Y98973001I-100000J0D01*
G01*
X100301000Y98973001D01*
G75*
G02*
X100201000Y99073001I0J100000D01*
G01*
X100201000Y99873001D01*
G75*
G02*
X100301000Y99973001I100000J0D01*
G01*
G37*
G36*
G01*
X100301000Y98072979D02*
X101551000Y98072979D01*
G75*
G02*
X101651000Y97972979I0J-100000D01*
G01*
X101651000Y97172979D01*
G75*
G02*
X101551000Y97072979I-100000J0D01*
G01*
X100301000Y97072979D01*
G75*
G02*
X100201000Y97172979I0J100000D01*
G01*
X100201000Y97972979D01*
G75*
G02*
X100301000Y98072979I100000J0D01*
G01*
G37*
G04 #@! TD*
G04 #@! TO.C,JP85*
G36*
G01*
X131751000Y92473001D02*
X133001000Y92473001D01*
G75*
G02*
X133101000Y92373001I0J-100000D01*
G01*
X133101000Y91573001D01*
G75*
G02*
X133001000Y91473001I-100000J0D01*
G01*
X131751000Y91473001D01*
G75*
G02*
X131651000Y91573001I0J100000D01*
G01*
X131651000Y92373001D01*
G75*
G02*
X131751000Y92473001I100000J0D01*
G01*
G37*
G36*
G01*
X131751000Y90572979D02*
X133001000Y90572979D01*
G75*
G02*
X133101000Y90472979I0J-100000D01*
G01*
X133101000Y89672979D01*
G75*
G02*
X133001000Y89572979I-100000J0D01*
G01*
X131751000Y89572979D01*
G75*
G02*
X131651000Y89672979I0J100000D01*
G01*
X131651000Y90472979D01*
G75*
G02*
X131751000Y90572979I100000J0D01*
G01*
G37*
G04 #@! TD*
G04 #@! TO.C,JP86*
G36*
G01*
X129001000Y92473001D02*
X130251000Y92473001D01*
G75*
G02*
X130351000Y92373001I0J-100000D01*
G01*
X130351000Y91573001D01*
G75*
G02*
X130251000Y91473001I-100000J0D01*
G01*
X129001000Y91473001D01*
G75*
G02*
X128901000Y91573001I0J100000D01*
G01*
X128901000Y92373001D01*
G75*
G02*
X129001000Y92473001I100000J0D01*
G01*
G37*
G36*
G01*
X129001000Y90572979D02*
X130251000Y90572979D01*
G75*
G02*
X130351000Y90472979I0J-100000D01*
G01*
X130351000Y89672979D01*
G75*
G02*
X130251000Y89572979I-100000J0D01*
G01*
X129001000Y89572979D01*
G75*
G02*
X128901000Y89672979I0J100000D01*
G01*
X128901000Y90472979D01*
G75*
G02*
X129001000Y90572979I100000J0D01*
G01*
G37*
G04 #@! TD*
G04 #@! TO.C,JP59*
G36*
G01*
X37801000Y99973001D02*
X39051000Y99973001D01*
G75*
G02*
X39151000Y99873001I0J-100000D01*
G01*
X39151000Y99073001D01*
G75*
G02*
X39051000Y98973001I-100000J0D01*
G01*
X37801000Y98973001D01*
G75*
G02*
X37701000Y99073001I0J100000D01*
G01*
X37701000Y99873001D01*
G75*
G02*
X37801000Y99973001I100000J0D01*
G01*
G37*
G36*
G01*
X37801000Y98072979D02*
X39051000Y98072979D01*
G75*
G02*
X39151000Y97972979I0J-100000D01*
G01*
X39151000Y97172979D01*
G75*
G02*
X39051000Y97072979I-100000J0D01*
G01*
X37801000Y97072979D01*
G75*
G02*
X37701000Y97172979I0J100000D01*
G01*
X37701000Y97972979D01*
G75*
G02*
X37801000Y98072979I100000J0D01*
G01*
G37*
G04 #@! TD*
D10*
G04 #@! TO.C,Q1*
X142499800Y31548000D03*
X142499800Y28498000D03*
X145849800Y31548000D03*
X145849800Y28498000D03*
D11*
X137874800Y32303000D03*
X137874800Y27743000D03*
G04 #@! TD*
D10*
G04 #@! TO.C,Q6*
X142499800Y91548000D03*
X142499800Y88498000D03*
X145849800Y91548000D03*
X145849800Y88498000D03*
D11*
X137874800Y92303000D03*
X137874800Y87743000D03*
G04 #@! TD*
D10*
G04 #@! TO.C,Q2*
X142499800Y41548000D03*
X142499800Y38498000D03*
X145849800Y41548000D03*
X145849800Y38498000D03*
D11*
X137874800Y42303000D03*
X137874800Y37743000D03*
G04 #@! TD*
D10*
G04 #@! TO.C,Q5*
X142499800Y81548000D03*
X142499800Y78498000D03*
X145849800Y81548000D03*
X145849800Y78498000D03*
D11*
X137874800Y82303000D03*
X137874800Y77743000D03*
G04 #@! TD*
D10*
G04 #@! TO.C,Q3*
X142499800Y62048000D03*
X142499800Y58998000D03*
X145849800Y62048000D03*
X145849800Y58998000D03*
D11*
X137874800Y62803000D03*
X137874800Y58243000D03*
G04 #@! TD*
D10*
G04 #@! TO.C,Q4*
X142499800Y72048000D03*
X142499800Y68998000D03*
X145849800Y72048000D03*
X145849800Y68998000D03*
D11*
X137874800Y72803000D03*
X137874800Y68243000D03*
G04 #@! TD*
G04 #@! TO.C,C1*
G36*
G01*
X42756000Y26033000D02*
X43096000Y26033000D01*
G75*
G02*
X43236000Y25893000I0J-140000D01*
G01*
X43236000Y25613000D01*
G75*
G02*
X43096000Y25473000I-140000J0D01*
G01*
X42756000Y25473000D01*
G75*
G02*
X42616000Y25613000I0J140000D01*
G01*
X42616000Y25893000D01*
G75*
G02*
X42756000Y26033000I140000J0D01*
G01*
G37*
G36*
G01*
X42756000Y25073000D02*
X43096000Y25073000D01*
G75*
G02*
X43236000Y24933000I0J-140000D01*
G01*
X43236000Y24653000D01*
G75*
G02*
X43096000Y24513000I-140000J0D01*
G01*
X42756000Y24513000D01*
G75*
G02*
X42616000Y24653000I0J140000D01*
G01*
X42616000Y24933000D01*
G75*
G02*
X42756000Y25073000I140000J0D01*
G01*
G37*
G04 #@! TD*
G04 #@! TO.C,C2*
G36*
G01*
X43096000Y26513000D02*
X42756000Y26513000D01*
G75*
G02*
X42616000Y26653000I0J140000D01*
G01*
X42616000Y26933000D01*
G75*
G02*
X42756000Y27073000I140000J0D01*
G01*
X43096000Y27073000D01*
G75*
G02*
X43236000Y26933000I0J-140000D01*
G01*
X43236000Y26653000D01*
G75*
G02*
X43096000Y26513000I-140000J0D01*
G01*
G37*
G36*
G01*
X43096000Y27473000D02*
X42756000Y27473000D01*
G75*
G02*
X42616000Y27613000I0J140000D01*
G01*
X42616000Y27893000D01*
G75*
G02*
X42756000Y28033000I140000J0D01*
G01*
X43096000Y28033000D01*
G75*
G02*
X43236000Y27893000I0J-140000D01*
G01*
X43236000Y27613000D01*
G75*
G02*
X43096000Y27473000I-140000J0D01*
G01*
G37*
G04 #@! TD*
D12*
G04 #@! TO.C,U1*
X44771000Y21003000D03*
X46041000Y21003000D03*
X47311000Y21003000D03*
X48581000Y21003000D03*
X48581000Y29543000D03*
X47311000Y29543000D03*
X46041000Y29543000D03*
X44771000Y29543000D03*
G04 #@! TD*
G04 #@! TO.C,R1*
G36*
G01*
X16396000Y86088000D02*
X16396000Y86458000D01*
G75*
G02*
X16531000Y86593000I135000J0D01*
G01*
X16801000Y86593000D01*
G75*
G02*
X16936000Y86458000I0J-135000D01*
G01*
X16936000Y86088000D01*
G75*
G02*
X16801000Y85953000I-135000J0D01*
G01*
X16531000Y85953000D01*
G75*
G02*
X16396000Y86088000I0J135000D01*
G01*
G37*
G36*
G01*
X17416000Y86088000D02*
X17416000Y86458000D01*
G75*
G02*
X17551000Y86593000I135000J0D01*
G01*
X17821000Y86593000D01*
G75*
G02*
X17956000Y86458000I0J-135000D01*
G01*
X17956000Y86088000D01*
G75*
G02*
X17821000Y85953000I-135000J0D01*
G01*
X17551000Y85953000D01*
G75*
G02*
X17416000Y86088000I0J135000D01*
G01*
G37*
G04 #@! TD*
D13*
G04 #@! TO.C,D14*
X66876000Y70823000D03*
X64776000Y70823000D03*
G04 #@! TD*
G04 #@! TO.C,R10*
G36*
G01*
X151251000Y16598000D02*
X151251000Y19448000D01*
G75*
G02*
X151501000Y19698000I250000J0D01*
G01*
X152226000Y19698000D01*
G75*
G02*
X152476000Y19448000I0J-250000D01*
G01*
X152476000Y16598000D01*
G75*
G02*
X152226000Y16348000I-250000J0D01*
G01*
X151501000Y16348000D01*
G75*
G02*
X151251000Y16598000I0J250000D01*
G01*
G37*
G36*
G01*
X157176000Y16598000D02*
X157176000Y19448000D01*
G75*
G02*
X157426000Y19698000I250000J0D01*
G01*
X158151000Y19698000D01*
G75*
G02*
X158401000Y19448000I0J-250000D01*
G01*
X158401000Y16598000D01*
G75*
G02*
X158151000Y16348000I-250000J0D01*
G01*
X157426000Y16348000D01*
G75*
G02*
X157176000Y16598000I0J250000D01*
G01*
G37*
G04 #@! TD*
G04 #@! TO.C,D23*
G36*
G01*
X122988500Y65866750D02*
X122988500Y66379250D01*
G75*
G02*
X123207250Y66598000I218750J0D01*
G01*
X123644750Y66598000D01*
G75*
G02*
X123863500Y66379250I0J-218750D01*
G01*
X123863500Y65866750D01*
G75*
G02*
X123644750Y65648000I-218750J0D01*
G01*
X123207250Y65648000D01*
G75*
G02*
X122988500Y65866750I0J218750D01*
G01*
G37*
G36*
G01*
X124563500Y65866750D02*
X124563500Y66379250D01*
G75*
G02*
X124782250Y66598000I218750J0D01*
G01*
X125219750Y66598000D01*
G75*
G02*
X125438500Y66379250I0J-218750D01*
G01*
X125438500Y65866750D01*
G75*
G02*
X125219750Y65648000I-218750J0D01*
G01*
X124782250Y65648000D01*
G75*
G02*
X124563500Y65866750I0J218750D01*
G01*
G37*
G04 #@! TD*
G04 #@! TO.C,D25*
G36*
G01*
X64601000Y65316750D02*
X64601000Y65829250D01*
G75*
G02*
X64819750Y66048000I218750J0D01*
G01*
X65257250Y66048000D01*
G75*
G02*
X65476000Y65829250I0J-218750D01*
G01*
X65476000Y65316750D01*
G75*
G02*
X65257250Y65098000I-218750J0D01*
G01*
X64819750Y65098000D01*
G75*
G02*
X64601000Y65316750I0J218750D01*
G01*
G37*
G36*
G01*
X66176000Y65316750D02*
X66176000Y65829250D01*
G75*
G02*
X66394750Y66048000I218750J0D01*
G01*
X66832250Y66048000D01*
G75*
G02*
X67051000Y65829250I0J-218750D01*
G01*
X67051000Y65316750D01*
G75*
G02*
X66832250Y65098000I-218750J0D01*
G01*
X66394750Y65098000D01*
G75*
G02*
X66176000Y65316750I0J218750D01*
G01*
G37*
G04 #@! TD*
D14*
G04 #@! TO.C,D10*
X20026000Y76773000D03*
X23326000Y76773000D03*
G04 #@! TD*
G04 #@! TO.C,D27*
G36*
G01*
X80501000Y69329250D02*
X80501000Y68816750D01*
G75*
G02*
X80282250Y68598000I-218750J0D01*
G01*
X79844750Y68598000D01*
G75*
G02*
X79626000Y68816750I0J218750D01*
G01*
X79626000Y69329250D01*
G75*
G02*
X79844750Y69548000I218750J0D01*
G01*
X80282250Y69548000D01*
G75*
G02*
X80501000Y69329250I0J-218750D01*
G01*
G37*
G36*
G01*
X78926000Y69329250D02*
X78926000Y68816750D01*
G75*
G02*
X78707250Y68598000I-218750J0D01*
G01*
X78269750Y68598000D01*
G75*
G02*
X78051000Y68816750I0J218750D01*
G01*
X78051000Y69329250D01*
G75*
G02*
X78269750Y69548000I218750J0D01*
G01*
X78707250Y69548000D01*
G75*
G02*
X78926000Y69329250I0J-218750D01*
G01*
G37*
G04 #@! TD*
G04 #@! TO.C,R6*
G36*
G01*
X99291000Y82403000D02*
X99661000Y82403000D01*
G75*
G02*
X99796000Y82268000I0J-135000D01*
G01*
X99796000Y81998000D01*
G75*
G02*
X99661000Y81863000I-135000J0D01*
G01*
X99291000Y81863000D01*
G75*
G02*
X99156000Y81998000I0J135000D01*
G01*
X99156000Y82268000D01*
G75*
G02*
X99291000Y82403000I135000J0D01*
G01*
G37*
G36*
G01*
X99291000Y81383000D02*
X99661000Y81383000D01*
G75*
G02*
X99796000Y81248000I0J-135000D01*
G01*
X99796000Y80978000D01*
G75*
G02*
X99661000Y80843000I-135000J0D01*
G01*
X99291000Y80843000D01*
G75*
G02*
X99156000Y80978000I0J135000D01*
G01*
X99156000Y81248000D01*
G75*
G02*
X99291000Y81383000I135000J0D01*
G01*
G37*
G04 #@! TD*
G04 #@! TO.C,C13*
G36*
G01*
X61231000Y20528000D02*
X61731000Y20528000D01*
G75*
G02*
X61956000Y20303000I0J-225000D01*
G01*
X61956000Y19853000D01*
G75*
G02*
X61731000Y19628000I-225000J0D01*
G01*
X61231000Y19628000D01*
G75*
G02*
X61006000Y19853000I0J225000D01*
G01*
X61006000Y20303000D01*
G75*
G02*
X61231000Y20528000I225000J0D01*
G01*
G37*
G36*
G01*
X61231000Y18978000D02*
X61731000Y18978000D01*
G75*
G02*
X61956000Y18753000I0J-225000D01*
G01*
X61956000Y18303000D01*
G75*
G02*
X61731000Y18078000I-225000J0D01*
G01*
X61231000Y18078000D01*
G75*
G02*
X61006000Y18303000I0J225000D01*
G01*
X61006000Y18753000D01*
G75*
G02*
X61231000Y18978000I225000J0D01*
G01*
G37*
G04 #@! TD*
G04 #@! TO.C,D29*
G36*
G01*
X64601000Y61816750D02*
X64601000Y62329250D01*
G75*
G02*
X64819750Y62548000I218750J0D01*
G01*
X65257250Y62548000D01*
G75*
G02*
X65476000Y62329250I0J-218750D01*
G01*
X65476000Y61816750D01*
G75*
G02*
X65257250Y61598000I-218750J0D01*
G01*
X64819750Y61598000D01*
G75*
G02*
X64601000Y61816750I0J218750D01*
G01*
G37*
G36*
G01*
X66176000Y61816750D02*
X66176000Y62329250D01*
G75*
G02*
X66394750Y62548000I218750J0D01*
G01*
X66832250Y62548000D01*
G75*
G02*
X67051000Y62329250I0J-218750D01*
G01*
X67051000Y61816750D01*
G75*
G02*
X66832250Y61598000I-218750J0D01*
G01*
X66394750Y61598000D01*
G75*
G02*
X66176000Y61816750I0J218750D01*
G01*
G37*
G04 #@! TD*
D13*
G04 #@! TO.C,D1*
X16876000Y88023000D03*
X18976000Y88023000D03*
G04 #@! TD*
G04 #@! TO.C,R33*
G36*
G01*
X42896000Y39088000D02*
X42896000Y39458000D01*
G75*
G02*
X43031000Y39593000I135000J0D01*
G01*
X43301000Y39593000D01*
G75*
G02*
X43436000Y39458000I0J-135000D01*
G01*
X43436000Y39088000D01*
G75*
G02*
X43301000Y38953000I-135000J0D01*
G01*
X43031000Y38953000D01*
G75*
G02*
X42896000Y39088000I0J135000D01*
G01*
G37*
G36*
G01*
X43916000Y39088000D02*
X43916000Y39458000D01*
G75*
G02*
X44051000Y39593000I135000J0D01*
G01*
X44321000Y39593000D01*
G75*
G02*
X44456000Y39458000I0J-135000D01*
G01*
X44456000Y39088000D01*
G75*
G02*
X44321000Y38953000I-135000J0D01*
G01*
X44051000Y38953000D01*
G75*
G02*
X43916000Y39088000I0J135000D01*
G01*
G37*
G04 #@! TD*
D15*
G04 #@! TO.C,RN7*
X71676000Y66873000D03*
X71676000Y67673000D03*
X71676000Y68473000D03*
X71676000Y69273000D03*
X69976000Y69273000D03*
X69976000Y68473000D03*
X69976000Y67673000D03*
X69976000Y66873000D03*
G04 #@! TD*
D10*
G04 #@! TO.C,Q7*
X142499800Y22048000D03*
X142499800Y18998000D03*
X145849800Y22048000D03*
X145849800Y18998000D03*
D11*
X137874800Y22803000D03*
X137874800Y18243000D03*
G04 #@! TD*
G04 #@! TO.C,D28*
G36*
G01*
X64601000Y68816750D02*
X64601000Y69329250D01*
G75*
G02*
X64819750Y69548000I218750J0D01*
G01*
X65257250Y69548000D01*
G75*
G02*
X65476000Y69329250I0J-218750D01*
G01*
X65476000Y68816750D01*
G75*
G02*
X65257250Y68598000I-218750J0D01*
G01*
X64819750Y68598000D01*
G75*
G02*
X64601000Y68816750I0J218750D01*
G01*
G37*
G36*
G01*
X66176000Y68816750D02*
X66176000Y69329250D01*
G75*
G02*
X66394750Y69548000I218750J0D01*
G01*
X66832250Y69548000D01*
G75*
G02*
X67051000Y69329250I0J-218750D01*
G01*
X67051000Y68816750D01*
G75*
G02*
X66832250Y68598000I-218750J0D01*
G01*
X66394750Y68598000D01*
G75*
G02*
X66176000Y68816750I0J218750D01*
G01*
G37*
G04 #@! TD*
G04 #@! TO.C,R9*
G36*
G01*
X151151000Y57998000D02*
X151151000Y60848000D01*
G75*
G02*
X151401000Y61098000I250000J0D01*
G01*
X152126000Y61098000D01*
G75*
G02*
X152376000Y60848000I0J-250000D01*
G01*
X152376000Y57998000D01*
G75*
G02*
X152126000Y57748000I-250000J0D01*
G01*
X151401000Y57748000D01*
G75*
G02*
X151151000Y57998000I0J250000D01*
G01*
G37*
G36*
G01*
X157076000Y57998000D02*
X157076000Y60848000D01*
G75*
G02*
X157326000Y61098000I250000J0D01*
G01*
X158051000Y61098000D01*
G75*
G02*
X158301000Y60848000I0J-250000D01*
G01*
X158301000Y57998000D01*
G75*
G02*
X158051000Y57748000I-250000J0D01*
G01*
X157326000Y57748000D01*
G75*
G02*
X157076000Y57998000I0J250000D01*
G01*
G37*
G04 #@! TD*
G04 #@! TO.C,D11*
G36*
G01*
X67188500Y57466750D02*
X67188500Y57979250D01*
G75*
G02*
X67407250Y58198000I218750J0D01*
G01*
X67844750Y58198000D01*
G75*
G02*
X68063500Y57979250I0J-218750D01*
G01*
X68063500Y57466750D01*
G75*
G02*
X67844750Y57248000I-218750J0D01*
G01*
X67407250Y57248000D01*
G75*
G02*
X67188500Y57466750I0J218750D01*
G01*
G37*
G36*
G01*
X68763500Y57466750D02*
X68763500Y57979250D01*
G75*
G02*
X68982250Y58198000I218750J0D01*
G01*
X69419750Y58198000D01*
G75*
G02*
X69638500Y57979250I0J-218750D01*
G01*
X69638500Y57466750D01*
G75*
G02*
X69419750Y57248000I-218750J0D01*
G01*
X68982250Y57248000D01*
G75*
G02*
X68763500Y57466750I0J218750D01*
G01*
G37*
G04 #@! TD*
G04 #@! TO.C,C21*
G36*
G01*
X56926000Y39298000D02*
X56426000Y39298000D01*
G75*
G02*
X56201000Y39523000I0J225000D01*
G01*
X56201000Y39973000D01*
G75*
G02*
X56426000Y40198000I225000J0D01*
G01*
X56926000Y40198000D01*
G75*
G02*
X57151000Y39973000I0J-225000D01*
G01*
X57151000Y39523000D01*
G75*
G02*
X56926000Y39298000I-225000J0D01*
G01*
G37*
G36*
G01*
X56926000Y40848000D02*
X56426000Y40848000D01*
G75*
G02*
X56201000Y41073000I0J225000D01*
G01*
X56201000Y41523000D01*
G75*
G02*
X56426000Y41748000I225000J0D01*
G01*
X56926000Y41748000D01*
G75*
G02*
X57151000Y41523000I0J-225000D01*
G01*
X57151000Y41073000D01*
G75*
G02*
X56926000Y40848000I-225000J0D01*
G01*
G37*
G04 #@! TD*
G04 #@! TO.C,R31*
G36*
G01*
X42896000Y41088000D02*
X42896000Y41458000D01*
G75*
G02*
X43031000Y41593000I135000J0D01*
G01*
X43301000Y41593000D01*
G75*
G02*
X43436000Y41458000I0J-135000D01*
G01*
X43436000Y41088000D01*
G75*
G02*
X43301000Y40953000I-135000J0D01*
G01*
X43031000Y40953000D01*
G75*
G02*
X42896000Y41088000I0J135000D01*
G01*
G37*
G36*
G01*
X43916000Y41088000D02*
X43916000Y41458000D01*
G75*
G02*
X44051000Y41593000I135000J0D01*
G01*
X44321000Y41593000D01*
G75*
G02*
X44456000Y41458000I0J-135000D01*
G01*
X44456000Y41088000D01*
G75*
G02*
X44321000Y40953000I-135000J0D01*
G01*
X44051000Y40953000D01*
G75*
G02*
X43916000Y41088000I0J135000D01*
G01*
G37*
G04 #@! TD*
G04 #@! TO.C,D22*
G36*
G01*
X122988500Y62366750D02*
X122988500Y62879250D01*
G75*
G02*
X123207250Y63098000I218750J0D01*
G01*
X123644750Y63098000D01*
G75*
G02*
X123863500Y62879250I0J-218750D01*
G01*
X123863500Y62366750D01*
G75*
G02*
X123644750Y62148000I-218750J0D01*
G01*
X123207250Y62148000D01*
G75*
G02*
X122988500Y62366750I0J218750D01*
G01*
G37*
G36*
G01*
X124563500Y62366750D02*
X124563500Y62879250D01*
G75*
G02*
X124782250Y63098000I218750J0D01*
G01*
X125219750Y63098000D01*
G75*
G02*
X125438500Y62879250I0J-218750D01*
G01*
X125438500Y62366750D01*
G75*
G02*
X125219750Y62148000I-218750J0D01*
G01*
X124782250Y62148000D01*
G75*
G02*
X124563500Y62366750I0J218750D01*
G01*
G37*
G04 #@! TD*
G04 #@! TO.C,C17*
G36*
G01*
X60426000Y39298000D02*
X59926000Y39298000D01*
G75*
G02*
X59701000Y39523000I0J225000D01*
G01*
X59701000Y39973000D01*
G75*
G02*
X59926000Y40198000I225000J0D01*
G01*
X60426000Y40198000D01*
G75*
G02*
X60651000Y39973000I0J-225000D01*
G01*
X60651000Y39523000D01*
G75*
G02*
X60426000Y39298000I-225000J0D01*
G01*
G37*
G36*
G01*
X60426000Y40848000D02*
X59926000Y40848000D01*
G75*
G02*
X59701000Y41073000I0J225000D01*
G01*
X59701000Y41523000D01*
G75*
G02*
X59926000Y41748000I225000J0D01*
G01*
X60426000Y41748000D01*
G75*
G02*
X60651000Y41523000I0J-225000D01*
G01*
X60651000Y41073000D01*
G75*
G02*
X60426000Y40848000I-225000J0D01*
G01*
G37*
G04 #@! TD*
G04 #@! TO.C,C11*
G36*
G01*
X59231000Y20553000D02*
X59731000Y20553000D01*
G75*
G02*
X59956000Y20328000I0J-225000D01*
G01*
X59956000Y19878000D01*
G75*
G02*
X59731000Y19653000I-225000J0D01*
G01*
X59231000Y19653000D01*
G75*
G02*
X59006000Y19878000I0J225000D01*
G01*
X59006000Y20328000D01*
G75*
G02*
X59231000Y20553000I225000J0D01*
G01*
G37*
G36*
G01*
X59231000Y19003000D02*
X59731000Y19003000D01*
G75*
G02*
X59956000Y18778000I0J-225000D01*
G01*
X59956000Y18328000D01*
G75*
G02*
X59731000Y18103000I-225000J0D01*
G01*
X59231000Y18103000D01*
G75*
G02*
X59006000Y18328000I0J225000D01*
G01*
X59006000Y18778000D01*
G75*
G02*
X59231000Y19003000I225000J0D01*
G01*
G37*
G04 #@! TD*
G04 #@! TO.C,JP14*
G36*
G01*
X79051000Y99973001D02*
X80301000Y99973001D01*
G75*
G02*
X80401000Y99873001I0J-100000D01*
G01*
X80401000Y99073001D01*
G75*
G02*
X80301000Y98973001I-100000J0D01*
G01*
X79051000Y98973001D01*
G75*
G02*
X78951000Y99073001I0J100000D01*
G01*
X78951000Y99873001D01*
G75*
G02*
X79051000Y99973001I100000J0D01*
G01*
G37*
G36*
G01*
X79051000Y98072979D02*
X80301000Y98072979D01*
G75*
G02*
X80401000Y97972979I0J-100000D01*
G01*
X80401000Y97172979D01*
G75*
G02*
X80301000Y97072979I-100000J0D01*
G01*
X79051000Y97072979D01*
G75*
G02*
X78951000Y97172979I0J100000D01*
G01*
X78951000Y97972979D01*
G75*
G02*
X79051000Y98072979I100000J0D01*
G01*
G37*
G04 #@! TD*
G04 #@! TO.C,C15*
G36*
G01*
X53686000Y41693000D02*
X53686000Y41353000D01*
G75*
G02*
X53546000Y41213000I-140000J0D01*
G01*
X53266000Y41213000D01*
G75*
G02*
X53126000Y41353000I0J140000D01*
G01*
X53126000Y41693000D01*
G75*
G02*
X53266000Y41833000I140000J0D01*
G01*
X53546000Y41833000D01*
G75*
G02*
X53686000Y41693000I0J-140000D01*
G01*
G37*
G36*
G01*
X52726000Y41693000D02*
X52726000Y41353000D01*
G75*
G02*
X52586000Y41213000I-140000J0D01*
G01*
X52306000Y41213000D01*
G75*
G02*
X52166000Y41353000I0J140000D01*
G01*
X52166000Y41693000D01*
G75*
G02*
X52306000Y41833000I140000J0D01*
G01*
X52586000Y41833000D01*
G75*
G02*
X52726000Y41693000I0J-140000D01*
G01*
G37*
G04 #@! TD*
G04 #@! TO.C,R26*
G36*
G01*
X91801489Y87513000D02*
X91801489Y86733000D01*
G75*
G02*
X91731489Y86663000I-70000J0D01*
G01*
X91171489Y86663000D01*
G75*
G02*
X91101489Y86733000I0J70000D01*
G01*
X91101489Y87513000D01*
G75*
G02*
X91171489Y87583000I70000J0D01*
G01*
X91731489Y87583000D01*
G75*
G02*
X91801489Y87513000I0J-70000D01*
G01*
G37*
G36*
G01*
X90201489Y87513000D02*
X90201489Y86733000D01*
G75*
G02*
X90131489Y86663000I-70000J0D01*
G01*
X89571489Y86663000D01*
G75*
G02*
X89501489Y86733000I0J70000D01*
G01*
X89501489Y87513000D01*
G75*
G02*
X89571489Y87583000I70000J0D01*
G01*
X90131489Y87583000D01*
G75*
G02*
X90201489Y87513000I0J-70000D01*
G01*
G37*
G04 #@! TD*
G04 #@! TO.C,R14*
G36*
G01*
X158401000Y10548000D02*
X158401000Y7698000D01*
G75*
G02*
X158151000Y7448000I-250000J0D01*
G01*
X157426000Y7448000D01*
G75*
G02*
X157176000Y7698000I0J250000D01*
G01*
X157176000Y10548000D01*
G75*
G02*
X157426000Y10798000I250000J0D01*
G01*
X158151000Y10798000D01*
G75*
G02*
X158401000Y10548000I0J-250000D01*
G01*
G37*
G36*
G01*
X152476000Y10548000D02*
X152476000Y7698000D01*
G75*
G02*
X152226000Y7448000I-250000J0D01*
G01*
X151501000Y7448000D01*
G75*
G02*
X151251000Y7698000I0J250000D01*
G01*
X151251000Y10548000D01*
G75*
G02*
X151501000Y10798000I250000J0D01*
G01*
X152226000Y10798000D01*
G75*
G02*
X152476000Y10548000I0J-250000D01*
G01*
G37*
G04 #@! TD*
G04 #@! TO.C,C22*
G36*
G01*
X106494798Y93660200D02*
X106494798Y94340200D01*
G75*
G02*
X106579798Y94425200I85000J0D01*
G01*
X107259798Y94425200D01*
G75*
G02*
X107344798Y94340200I0J-85000D01*
G01*
X107344798Y93660200D01*
G75*
G02*
X107259798Y93575200I-85000J0D01*
G01*
X106579798Y93575200D01*
G75*
G02*
X106494798Y93660200I0J85000D01*
G01*
G37*
G36*
G01*
X108074800Y93660200D02*
X108074800Y94340200D01*
G75*
G02*
X108159800Y94425200I85000J0D01*
G01*
X108839800Y94425200D01*
G75*
G02*
X108924800Y94340200I0J-85000D01*
G01*
X108924800Y93660200D01*
G75*
G02*
X108839800Y93575200I-85000J0D01*
G01*
X108159800Y93575200D01*
G75*
G02*
X108074800Y93660200I0J85000D01*
G01*
G37*
G04 #@! TD*
G04 #@! TO.C,JP36*
G36*
G01*
X60551000Y100175501D02*
X61801000Y100175501D01*
G75*
G02*
X61901000Y100075501I0J-100000D01*
G01*
X61901000Y99275501D01*
G75*
G02*
X61801000Y99175501I-100000J0D01*
G01*
X60551000Y99175501D01*
G75*
G02*
X60451000Y99275501I0J100000D01*
G01*
X60451000Y100075501D01*
G75*
G02*
X60551000Y100175501I100000J0D01*
G01*
G37*
G36*
G01*
X60551000Y98275479D02*
X61801000Y98275479D01*
G75*
G02*
X61901000Y98175479I0J-100000D01*
G01*
X61901000Y97375479D01*
G75*
G02*
X61801000Y97275479I-100000J0D01*
G01*
X60551000Y97275479D01*
G75*
G02*
X60451000Y97375479I0J100000D01*
G01*
X60451000Y98175479D01*
G75*
G02*
X60551000Y98275479I100000J0D01*
G01*
G37*
G04 #@! TD*
G04 #@! TO.C,D16*
G36*
G01*
X122951000Y53516750D02*
X122951000Y54029250D01*
G75*
G02*
X123169750Y54248000I218750J0D01*
G01*
X123607250Y54248000D01*
G75*
G02*
X123826000Y54029250I0J-218750D01*
G01*
X123826000Y53516750D01*
G75*
G02*
X123607250Y53298000I-218750J0D01*
G01*
X123169750Y53298000D01*
G75*
G02*
X122951000Y53516750I0J218750D01*
G01*
G37*
G36*
G01*
X124526000Y53516750D02*
X124526000Y54029250D01*
G75*
G02*
X124744750Y54248000I218750J0D01*
G01*
X125182250Y54248000D01*
G75*
G02*
X125401000Y54029250I0J-218750D01*
G01*
X125401000Y53516750D01*
G75*
G02*
X125182250Y53298000I-218750J0D01*
G01*
X124744750Y53298000D01*
G75*
G02*
X124526000Y53516750I0J218750D01*
G01*
G37*
G04 #@! TD*
G04 #@! TO.C,R4*
G36*
G01*
X2936000Y26073000D02*
X3716000Y26073000D01*
G75*
G02*
X3786000Y26003000I0J-70000D01*
G01*
X3786000Y25443000D01*
G75*
G02*
X3716000Y25373000I-70000J0D01*
G01*
X2936000Y25373000D01*
G75*
G02*
X2866000Y25443000I0J70000D01*
G01*
X2866000Y26003000D01*
G75*
G02*
X2936000Y26073000I70000J0D01*
G01*
G37*
G36*
G01*
X2936000Y24473000D02*
X3716000Y24473000D01*
G75*
G02*
X3786000Y24403000I0J-70000D01*
G01*
X3786000Y23843000D01*
G75*
G02*
X3716000Y23773000I-70000J0D01*
G01*
X2936000Y23773000D01*
G75*
G02*
X2866000Y23843000I0J70000D01*
G01*
X2866000Y24403000D01*
G75*
G02*
X2936000Y24473000I70000J0D01*
G01*
G37*
G04 #@! TD*
G04 #@! TO.C,R7*
G36*
G01*
X151251000Y26198000D02*
X151251000Y29048000D01*
G75*
G02*
X151501000Y29298000I250000J0D01*
G01*
X152226000Y29298000D01*
G75*
G02*
X152476000Y29048000I0J-250000D01*
G01*
X152476000Y26198000D01*
G75*
G02*
X152226000Y25948000I-250000J0D01*
G01*
X151501000Y25948000D01*
G75*
G02*
X151251000Y26198000I0J250000D01*
G01*
G37*
G36*
G01*
X157176000Y26198000D02*
X157176000Y29048000D01*
G75*
G02*
X157426000Y29298000I250000J0D01*
G01*
X158151000Y29298000D01*
G75*
G02*
X158401000Y29048000I0J-250000D01*
G01*
X158401000Y26198000D01*
G75*
G02*
X158151000Y25948000I-250000J0D01*
G01*
X157426000Y25948000D01*
G75*
G02*
X157176000Y26198000I0J250000D01*
G01*
G37*
G04 #@! TD*
D15*
G04 #@! TO.C,RN5*
X119076000Y58473000D03*
X119076000Y57673000D03*
X119076000Y56873000D03*
X119076000Y56073000D03*
X120776000Y56073000D03*
X120776000Y56873000D03*
X120776000Y57673000D03*
X120776000Y58473000D03*
G04 #@! TD*
G04 #@! TO.C,C19*
G36*
G01*
X58676000Y39298000D02*
X58176000Y39298000D01*
G75*
G02*
X57951000Y39523000I0J225000D01*
G01*
X57951000Y39973000D01*
G75*
G02*
X58176000Y40198000I225000J0D01*
G01*
X58676000Y40198000D01*
G75*
G02*
X58901000Y39973000I0J-225000D01*
G01*
X58901000Y39523000D01*
G75*
G02*
X58676000Y39298000I-225000J0D01*
G01*
G37*
G36*
G01*
X58676000Y40848000D02*
X58176000Y40848000D01*
G75*
G02*
X57951000Y41073000I0J225000D01*
G01*
X57951000Y41523000D01*
G75*
G02*
X58176000Y41748000I225000J0D01*
G01*
X58676000Y41748000D01*
G75*
G02*
X58901000Y41523000I0J-225000D01*
G01*
X58901000Y41073000D01*
G75*
G02*
X58676000Y40848000I-225000J0D01*
G01*
G37*
G04 #@! TD*
G04 #@! TO.C,R18*
G36*
G01*
X136334801Y92713000D02*
X136334801Y91933000D01*
G75*
G02*
X136264801Y91863000I-70000J0D01*
G01*
X135704801Y91863000D01*
G75*
G02*
X135634801Y91933000I0J70000D01*
G01*
X135634801Y92713000D01*
G75*
G02*
X135704801Y92783000I70000J0D01*
G01*
X136264801Y92783000D01*
G75*
G02*
X136334801Y92713000I0J-70000D01*
G01*
G37*
G36*
G01*
X134734801Y92713000D02*
X134734801Y91933000D01*
G75*
G02*
X134664801Y91863000I-70000J0D01*
G01*
X134104801Y91863000D01*
G75*
G02*
X134034801Y91933000I0J70000D01*
G01*
X134034801Y92713000D01*
G75*
G02*
X134104801Y92783000I70000J0D01*
G01*
X134664801Y92783000D01*
G75*
G02*
X134734801Y92713000I0J-70000D01*
G01*
G37*
G04 #@! TD*
G04 #@! TO.C,R5*
G36*
G01*
X84906000Y94588000D02*
X84906000Y94958000D01*
G75*
G02*
X85041000Y95093000I135000J0D01*
G01*
X85311000Y95093000D01*
G75*
G02*
X85446000Y94958000I0J-135000D01*
G01*
X85446000Y94588000D01*
G75*
G02*
X85311000Y94453000I-135000J0D01*
G01*
X85041000Y94453000D01*
G75*
G02*
X84906000Y94588000I0J135000D01*
G01*
G37*
G36*
G01*
X85926000Y94588000D02*
X85926000Y94958000D01*
G75*
G02*
X86061000Y95093000I135000J0D01*
G01*
X86331000Y95093000D01*
G75*
G02*
X86466000Y94958000I0J-135000D01*
G01*
X86466000Y94588000D01*
G75*
G02*
X86331000Y94453000I-135000J0D01*
G01*
X86061000Y94453000D01*
G75*
G02*
X85926000Y94588000I0J135000D01*
G01*
G37*
G04 #@! TD*
G04 #@! TO.C,R27*
G36*
G01*
X103066000Y94333000D02*
X103066000Y95113000D01*
G75*
G02*
X103136000Y95183000I70000J0D01*
G01*
X103696000Y95183000D01*
G75*
G02*
X103766000Y95113000I0J-70000D01*
G01*
X103766000Y94333000D01*
G75*
G02*
X103696000Y94263000I-70000J0D01*
G01*
X103136000Y94263000D01*
G75*
G02*
X103066000Y94333000I0J70000D01*
G01*
G37*
G36*
G01*
X104666000Y94333000D02*
X104666000Y95113000D01*
G75*
G02*
X104736000Y95183000I70000J0D01*
G01*
X105296000Y95183000D01*
G75*
G02*
X105366000Y95113000I0J-70000D01*
G01*
X105366000Y94333000D01*
G75*
G02*
X105296000Y94263000I-70000J0D01*
G01*
X104736000Y94263000D01*
G75*
G02*
X104666000Y94333000I0J70000D01*
G01*
G37*
G04 #@! TD*
G04 #@! TO.C,R12*
G36*
G01*
X158401000Y78948000D02*
X158401000Y76098000D01*
G75*
G02*
X158151000Y75848000I-250000J0D01*
G01*
X157426000Y75848000D01*
G75*
G02*
X157176000Y76098000I0J250000D01*
G01*
X157176000Y78948000D01*
G75*
G02*
X157426000Y79198000I250000J0D01*
G01*
X158151000Y79198000D01*
G75*
G02*
X158401000Y78948000I0J-250000D01*
G01*
G37*
G36*
G01*
X152476000Y78948000D02*
X152476000Y76098000D01*
G75*
G02*
X152226000Y75848000I-250000J0D01*
G01*
X151501000Y75848000D01*
G75*
G02*
X151251000Y76098000I0J250000D01*
G01*
X151251000Y78948000D01*
G75*
G02*
X151501000Y79198000I250000J0D01*
G01*
X152226000Y79198000D01*
G75*
G02*
X152476000Y78948000I0J-250000D01*
G01*
G37*
G04 #@! TD*
G04 #@! TO.C,RN6*
X119076000Y63323000D03*
X119076000Y62523000D03*
X119076000Y61723000D03*
X119076000Y60923000D03*
X120776000Y60923000D03*
X120776000Y61723000D03*
X120776000Y62523000D03*
X120776000Y63323000D03*
G04 #@! TD*
G04 #@! TO.C,C12*
G36*
G01*
X47436000Y37353000D02*
X47436000Y37693000D01*
G75*
G02*
X47576000Y37833000I140000J0D01*
G01*
X47856000Y37833000D01*
G75*
G02*
X47996000Y37693000I0J-140000D01*
G01*
X47996000Y37353000D01*
G75*
G02*
X47856000Y37213000I-140000J0D01*
G01*
X47576000Y37213000D01*
G75*
G02*
X47436000Y37353000I0J140000D01*
G01*
G37*
G36*
G01*
X48396000Y37353000D02*
X48396000Y37693000D01*
G75*
G02*
X48536000Y37833000I140000J0D01*
G01*
X48816000Y37833000D01*
G75*
G02*
X48956000Y37693000I0J-140000D01*
G01*
X48956000Y37353000D01*
G75*
G02*
X48816000Y37213000I-140000J0D01*
G01*
X48536000Y37213000D01*
G75*
G02*
X48396000Y37353000I0J140000D01*
G01*
G37*
G04 #@! TD*
G04 #@! TO.C,C8*
G36*
G01*
X29176000Y48298000D02*
X28676000Y48298000D01*
G75*
G02*
X28451000Y48523000I0J225000D01*
G01*
X28451000Y48973000D01*
G75*
G02*
X28676000Y49198000I225000J0D01*
G01*
X29176000Y49198000D01*
G75*
G02*
X29401000Y48973000I0J-225000D01*
G01*
X29401000Y48523000D01*
G75*
G02*
X29176000Y48298000I-225000J0D01*
G01*
G37*
G36*
G01*
X29176000Y49848000D02*
X28676000Y49848000D01*
G75*
G02*
X28451000Y50073000I0J225000D01*
G01*
X28451000Y50523000D01*
G75*
G02*
X28676000Y50748000I225000J0D01*
G01*
X29176000Y50748000D01*
G75*
G02*
X29401000Y50523000I0J-225000D01*
G01*
X29401000Y50073000D01*
G75*
G02*
X29176000Y49848000I-225000J0D01*
G01*
G37*
G04 #@! TD*
G04 #@! TO.C,D18*
G36*
G01*
X122988500Y60616750D02*
X122988500Y61129250D01*
G75*
G02*
X123207250Y61348000I218750J0D01*
G01*
X123644750Y61348000D01*
G75*
G02*
X123863500Y61129250I0J-218750D01*
G01*
X123863500Y60616750D01*
G75*
G02*
X123644750Y60398000I-218750J0D01*
G01*
X123207250Y60398000D01*
G75*
G02*
X122988500Y60616750I0J218750D01*
G01*
G37*
G36*
G01*
X124563500Y60616750D02*
X124563500Y61129250D01*
G75*
G02*
X124782250Y61348000I218750J0D01*
G01*
X125219750Y61348000D01*
G75*
G02*
X125438500Y61129250I0J-218750D01*
G01*
X125438500Y60616750D01*
G75*
G02*
X125219750Y60398000I-218750J0D01*
G01*
X124782250Y60398000D01*
G75*
G02*
X124563500Y60616750I0J218750D01*
G01*
G37*
G04 #@! TD*
G04 #@! TO.C,R2*
G36*
G01*
X21646000Y65338000D02*
X21646000Y65708000D01*
G75*
G02*
X21781000Y65843000I135000J0D01*
G01*
X22051000Y65843000D01*
G75*
G02*
X22186000Y65708000I0J-135000D01*
G01*
X22186000Y65338000D01*
G75*
G02*
X22051000Y65203000I-135000J0D01*
G01*
X21781000Y65203000D01*
G75*
G02*
X21646000Y65338000I0J135000D01*
G01*
G37*
G36*
G01*
X22666000Y65338000D02*
X22666000Y65708000D01*
G75*
G02*
X22801000Y65843000I135000J0D01*
G01*
X23071000Y65843000D01*
G75*
G02*
X23206000Y65708000I0J-135000D01*
G01*
X23206000Y65338000D01*
G75*
G02*
X23071000Y65203000I-135000J0D01*
G01*
X22801000Y65203000D01*
G75*
G02*
X22666000Y65338000I0J135000D01*
G01*
G37*
G04 #@! TD*
D14*
G04 #@! TO.C,D3*
X64326000Y91273000D03*
X61026000Y91273000D03*
G04 #@! TD*
D10*
G04 #@! TO.C,Q8*
X142499800Y13048000D03*
X142499800Y9998000D03*
X145849800Y13048000D03*
X145849800Y9998000D03*
D11*
X137874800Y13803000D03*
X137874800Y9243000D03*
G04 #@! TD*
G04 #@! TO.C,R43*
G36*
G01*
X68556000Y54408000D02*
X68556000Y54038000D01*
G75*
G02*
X68421000Y53903000I-135000J0D01*
G01*
X68151000Y53903000D01*
G75*
G02*
X68016000Y54038000I0J135000D01*
G01*
X68016000Y54408000D01*
G75*
G02*
X68151000Y54543000I135000J0D01*
G01*
X68421000Y54543000D01*
G75*
G02*
X68556000Y54408000I0J-135000D01*
G01*
G37*
G36*
G01*
X67536000Y54408000D02*
X67536000Y54038000D01*
G75*
G02*
X67401000Y53903000I-135000J0D01*
G01*
X67131000Y53903000D01*
G75*
G02*
X66996000Y54038000I0J135000D01*
G01*
X66996000Y54408000D01*
G75*
G02*
X67131000Y54543000I135000J0D01*
G01*
X67401000Y54543000D01*
G75*
G02*
X67536000Y54408000I0J-135000D01*
G01*
G37*
G04 #@! TD*
G04 #@! TO.C,D15*
G36*
G01*
X20151000Y94529250D02*
X20151000Y94016750D01*
G75*
G02*
X19932250Y93798000I-218750J0D01*
G01*
X19494750Y93798000D01*
G75*
G02*
X19276000Y94016750I0J218750D01*
G01*
X19276000Y94529250D01*
G75*
G02*
X19494750Y94748000I218750J0D01*
G01*
X19932250Y94748000D01*
G75*
G02*
X20151000Y94529250I0J-218750D01*
G01*
G37*
G36*
G01*
X18576000Y94529250D02*
X18576000Y94016750D01*
G75*
G02*
X18357250Y93798000I-218750J0D01*
G01*
X17919750Y93798000D01*
G75*
G02*
X17701000Y94016750I0J218750D01*
G01*
X17701000Y94529250D01*
G75*
G02*
X17919750Y94748000I218750J0D01*
G01*
X18357250Y94748000D01*
G75*
G02*
X18576000Y94529250I0J-218750D01*
G01*
G37*
G04 #@! TD*
G04 #@! TO.C,D20*
G36*
G01*
X122913500Y55266750D02*
X122913500Y55779250D01*
G75*
G02*
X123132250Y55998000I218750J0D01*
G01*
X123569750Y55998000D01*
G75*
G02*
X123788500Y55779250I0J-218750D01*
G01*
X123788500Y55266750D01*
G75*
G02*
X123569750Y55048000I-218750J0D01*
G01*
X123132250Y55048000D01*
G75*
G02*
X122913500Y55266750I0J218750D01*
G01*
G37*
G36*
G01*
X124488500Y55266750D02*
X124488500Y55779250D01*
G75*
G02*
X124707250Y55998000I218750J0D01*
G01*
X125144750Y55998000D01*
G75*
G02*
X125363500Y55779250I0J-218750D01*
G01*
X125363500Y55266750D01*
G75*
G02*
X125144750Y55048000I-218750J0D01*
G01*
X124707250Y55048000D01*
G75*
G02*
X124488500Y55266750I0J218750D01*
G01*
G37*
G04 #@! TD*
D15*
G04 #@! TO.C,RN8*
X73226000Y69273000D03*
X73226000Y68473000D03*
X73226000Y67673000D03*
X73226000Y66873000D03*
X74926000Y66873000D03*
X74926000Y67673000D03*
X74926000Y68473000D03*
X74926000Y69273000D03*
G04 #@! TD*
G04 #@! TO.C,JP6*
G36*
G01*
X54051000Y99973001D02*
X55301000Y99973001D01*
G75*
G02*
X55401000Y99873001I0J-100000D01*
G01*
X55401000Y99073001D01*
G75*
G02*
X55301000Y98973001I-100000J0D01*
G01*
X54051000Y98973001D01*
G75*
G02*
X53951000Y99073001I0J100000D01*
G01*
X53951000Y99873001D01*
G75*
G02*
X54051000Y99973001I100000J0D01*
G01*
G37*
G36*
G01*
X54051000Y98072979D02*
X55301000Y98072979D01*
G75*
G02*
X55401000Y97972979I0J-100000D01*
G01*
X55401000Y97172979D01*
G75*
G02*
X55301000Y97072979I-100000J0D01*
G01*
X54051000Y97072979D01*
G75*
G02*
X53951000Y97172979I0J100000D01*
G01*
X53951000Y97972979D01*
G75*
G02*
X54051000Y98072979I100000J0D01*
G01*
G37*
G04 #@! TD*
D13*
G04 #@! TO.C,D37*
X78226000Y67323000D03*
X80326000Y67323000D03*
G04 #@! TD*
G04 #@! TO.C,R24*
G36*
G01*
X136324801Y14203000D02*
X136324801Y13423000D01*
G75*
G02*
X136254801Y13353000I-70000J0D01*
G01*
X135694801Y13353000D01*
G75*
G02*
X135624801Y13423000I0J70000D01*
G01*
X135624801Y14203000D01*
G75*
G02*
X135694801Y14273000I70000J0D01*
G01*
X136254801Y14273000D01*
G75*
G02*
X136324801Y14203000I0J-70000D01*
G01*
G37*
G36*
G01*
X134724801Y14203000D02*
X134724801Y13423000D01*
G75*
G02*
X134654801Y13353000I-70000J0D01*
G01*
X134094801Y13353000D01*
G75*
G02*
X134024801Y13423000I0J70000D01*
G01*
X134024801Y14203000D01*
G75*
G02*
X134094801Y14273000I70000J0D01*
G01*
X134654801Y14273000D01*
G75*
G02*
X134724801Y14203000I0J-70000D01*
G01*
G37*
G04 #@! TD*
G04 #@! TO.C,D9*
G36*
G01*
X38138503Y16284498D02*
X38138503Y16764498D01*
G75*
G02*
X38198503Y16824498I60000J0D01*
G01*
X38678503Y16824498D01*
G75*
G02*
X38738503Y16764498I0J-60000D01*
G01*
X38738503Y16284498D01*
G75*
G02*
X38678503Y16224498I-60000J0D01*
G01*
X38198503Y16224498D01*
G75*
G02*
X38138503Y16284498I0J60000D01*
G01*
G37*
G36*
G01*
X38138503Y18484498D02*
X38138503Y18964498D01*
G75*
G02*
X38198503Y19024498I60000J0D01*
G01*
X38678503Y19024498D01*
G75*
G02*
X38738503Y18964498I0J-60000D01*
G01*
X38738503Y18484498D01*
G75*
G02*
X38678503Y18424498I-60000J0D01*
G01*
X38198503Y18424498D01*
G75*
G02*
X38138503Y18484498I0J60000D01*
G01*
G37*
G04 #@! TD*
G04 #@! TO.C,R23*
G36*
G01*
X136324800Y23213000D02*
X136324800Y22433000D01*
G75*
G02*
X136254800Y22363000I-70000J0D01*
G01*
X135694800Y22363000D01*
G75*
G02*
X135624800Y22433000I0J70000D01*
G01*
X135624800Y23213000D01*
G75*
G02*
X135694800Y23283000I70000J0D01*
G01*
X136254800Y23283000D01*
G75*
G02*
X136324800Y23213000I0J-70000D01*
G01*
G37*
G36*
G01*
X134724800Y23213000D02*
X134724800Y22433000D01*
G75*
G02*
X134654800Y22363000I-70000J0D01*
G01*
X134094800Y22363000D01*
G75*
G02*
X134024800Y22433000I0J70000D01*
G01*
X134024800Y23213000D01*
G75*
G02*
X134094800Y23283000I70000J0D01*
G01*
X134654800Y23283000D01*
G75*
G02*
X134724800Y23213000I0J-70000D01*
G01*
G37*
G04 #@! TD*
G04 #@! TO.C,U5*
G36*
G01*
X20726000Y48278000D02*
X20726000Y48578000D01*
G75*
G02*
X20876000Y48728000I150000J0D01*
G01*
X22526000Y48728000D01*
G75*
G02*
X22676000Y48578000I0J-150000D01*
G01*
X22676000Y48278000D01*
G75*
G02*
X22526000Y48128000I-150000J0D01*
G01*
X20876000Y48128000D01*
G75*
G02*
X20726000Y48278000I0J150000D01*
G01*
G37*
G36*
G01*
X20726000Y47008000D02*
X20726000Y47308000D01*
G75*
G02*
X20876000Y47458000I150000J0D01*
G01*
X22526000Y47458000D01*
G75*
G02*
X22676000Y47308000I0J-150000D01*
G01*
X22676000Y47008000D01*
G75*
G02*
X22526000Y46858000I-150000J0D01*
G01*
X20876000Y46858000D01*
G75*
G02*
X20726000Y47008000I0J150000D01*
G01*
G37*
G36*
G01*
X20726000Y45738000D02*
X20726000Y46038000D01*
G75*
G02*
X20876000Y46188000I150000J0D01*
G01*
X22526000Y46188000D01*
G75*
G02*
X22676000Y46038000I0J-150000D01*
G01*
X22676000Y45738000D01*
G75*
G02*
X22526000Y45588000I-150000J0D01*
G01*
X20876000Y45588000D01*
G75*
G02*
X20726000Y45738000I0J150000D01*
G01*
G37*
G36*
G01*
X20726000Y44468000D02*
X20726000Y44768000D01*
G75*
G02*
X20876000Y44918000I150000J0D01*
G01*
X22526000Y44918000D01*
G75*
G02*
X22676000Y44768000I0J-150000D01*
G01*
X22676000Y44468000D01*
G75*
G02*
X22526000Y44318000I-150000J0D01*
G01*
X20876000Y44318000D01*
G75*
G02*
X20726000Y44468000I0J150000D01*
G01*
G37*
G36*
G01*
X25676000Y44468000D02*
X25676000Y44768000D01*
G75*
G02*
X25826000Y44918000I150000J0D01*
G01*
X27476000Y44918000D01*
G75*
G02*
X27626000Y44768000I0J-150000D01*
G01*
X27626000Y44468000D01*
G75*
G02*
X27476000Y44318000I-150000J0D01*
G01*
X25826000Y44318000D01*
G75*
G02*
X25676000Y44468000I0J150000D01*
G01*
G37*
G36*
G01*
X25676000Y45738000D02*
X25676000Y46038000D01*
G75*
G02*
X25826000Y46188000I150000J0D01*
G01*
X27476000Y46188000D01*
G75*
G02*
X27626000Y46038000I0J-150000D01*
G01*
X27626000Y45738000D01*
G75*
G02*
X27476000Y45588000I-150000J0D01*
G01*
X25826000Y45588000D01*
G75*
G02*
X25676000Y45738000I0J150000D01*
G01*
G37*
G36*
G01*
X25676000Y47008000D02*
X25676000Y47308000D01*
G75*
G02*
X25826000Y47458000I150000J0D01*
G01*
X27476000Y47458000D01*
G75*
G02*
X27626000Y47308000I0J-150000D01*
G01*
X27626000Y47008000D01*
G75*
G02*
X27476000Y46858000I-150000J0D01*
G01*
X25826000Y46858000D01*
G75*
G02*
X25676000Y47008000I0J150000D01*
G01*
G37*
G36*
G01*
X25676000Y48278000D02*
X25676000Y48578000D01*
G75*
G02*
X25826000Y48728000I150000J0D01*
G01*
X27476000Y48728000D01*
G75*
G02*
X27626000Y48578000I0J-150000D01*
G01*
X27626000Y48278000D01*
G75*
G02*
X27476000Y48128000I-150000J0D01*
G01*
X25826000Y48128000D01*
G75*
G02*
X25676000Y48278000I0J150000D01*
G01*
G37*
G04 #@! TD*
D16*
G04 #@! TO.C,U6*
X64891000Y35873000D03*
X63621000Y35873000D03*
X62351000Y35873000D03*
X61081000Y35873000D03*
X59811000Y35873000D03*
X58541000Y35873000D03*
X57271000Y35873000D03*
X56001000Y35873000D03*
X54731000Y35873000D03*
X53461000Y35873000D03*
X53461000Y22673000D03*
X54731000Y22673000D03*
X56001000Y22673000D03*
X57271000Y22673000D03*
X58541000Y22673000D03*
X59811000Y22673000D03*
X61081000Y22673000D03*
X62351000Y22673000D03*
X63621000Y22673000D03*
X64891000Y22673000D03*
D17*
X66288000Y29273000D03*
D18*
X59176000Y29273000D03*
D17*
X52064000Y29273000D03*
G04 #@! TD*
G04 #@! TO.C,R25*
G36*
G01*
X3116000Y6873000D02*
X2336000Y6873000D01*
G75*
G02*
X2266000Y6943000I0J70000D01*
G01*
X2266000Y7503000D01*
G75*
G02*
X2336000Y7573000I70000J0D01*
G01*
X3116000Y7573000D01*
G75*
G02*
X3186000Y7503000I0J-70000D01*
G01*
X3186000Y6943000D01*
G75*
G02*
X3116000Y6873000I-70000J0D01*
G01*
G37*
G36*
G01*
X3116000Y8473000D02*
X2336000Y8473000D01*
G75*
G02*
X2266000Y8543000I0J70000D01*
G01*
X2266000Y9103000D01*
G75*
G02*
X2336000Y9173000I70000J0D01*
G01*
X3116000Y9173000D01*
G75*
G02*
X3186000Y9103000I0J-70000D01*
G01*
X3186000Y8543000D01*
G75*
G02*
X3116000Y8473000I-70000J0D01*
G01*
G37*
G04 #@! TD*
D19*
G04 #@! TO.C,M4*
X79763500Y7116334D03*
G04 #@! TD*
G04 #@! TO.C,R8*
G36*
G01*
X151251000Y35998000D02*
X151251000Y38848000D01*
G75*
G02*
X151501000Y39098000I250000J0D01*
G01*
X152226000Y39098000D01*
G75*
G02*
X152476000Y38848000I0J-250000D01*
G01*
X152476000Y35998000D01*
G75*
G02*
X152226000Y35748000I-250000J0D01*
G01*
X151501000Y35748000D01*
G75*
G02*
X151251000Y35998000I0J250000D01*
G01*
G37*
G36*
G01*
X157176000Y35998000D02*
X157176000Y38848000D01*
G75*
G02*
X157426000Y39098000I250000J0D01*
G01*
X158151000Y39098000D01*
G75*
G02*
X158401000Y38848000I0J-250000D01*
G01*
X158401000Y35998000D01*
G75*
G02*
X158151000Y35748000I-250000J0D01*
G01*
X157426000Y35748000D01*
G75*
G02*
X157176000Y35998000I0J250000D01*
G01*
G37*
G04 #@! TD*
G04 #@! TO.C,D21*
G36*
G01*
X122951000Y58766750D02*
X122951000Y59279250D01*
G75*
G02*
X123169750Y59498000I218750J0D01*
G01*
X123607250Y59498000D01*
G75*
G02*
X123826000Y59279250I0J-218750D01*
G01*
X123826000Y58766750D01*
G75*
G02*
X123607250Y58548000I-218750J0D01*
G01*
X123169750Y58548000D01*
G75*
G02*
X122951000Y58766750I0J218750D01*
G01*
G37*
G36*
G01*
X124526000Y58766750D02*
X124526000Y59279250D01*
G75*
G02*
X124744750Y59498000I218750J0D01*
G01*
X125182250Y59498000D01*
G75*
G02*
X125401000Y59279250I0J-218750D01*
G01*
X125401000Y58766750D01*
G75*
G02*
X125182250Y58548000I-218750J0D01*
G01*
X124744750Y58548000D01*
G75*
G02*
X124526000Y58766750I0J218750D01*
G01*
G37*
G04 #@! TD*
G04 #@! TO.C,R13*
G36*
G01*
X158301000Y70048000D02*
X158301000Y67198000D01*
G75*
G02*
X158051000Y66948000I-250000J0D01*
G01*
X157326000Y66948000D01*
G75*
G02*
X157076000Y67198000I0J250000D01*
G01*
X157076000Y70048000D01*
G75*
G02*
X157326000Y70298000I250000J0D01*
G01*
X158051000Y70298000D01*
G75*
G02*
X158301000Y70048000I0J-250000D01*
G01*
G37*
G36*
G01*
X152376000Y70048000D02*
X152376000Y67198000D01*
G75*
G02*
X152126000Y66948000I-250000J0D01*
G01*
X151401000Y66948000D01*
G75*
G02*
X151151000Y67198000I0J250000D01*
G01*
X151151000Y70048000D01*
G75*
G02*
X151401000Y70298000I250000J0D01*
G01*
X152126000Y70298000D01*
G75*
G02*
X152376000Y70048000I0J-250000D01*
G01*
G37*
G04 #@! TD*
D14*
G04 #@! TO.C,D8*
X64326000Y93773000D03*
X61026000Y93773000D03*
G04 #@! TD*
D20*
G04 #@! TO.C,U3*
X100176000Y11595500D03*
X99676000Y11595500D03*
X99176000Y11595500D03*
X98676000Y11595500D03*
D21*
X98663500Y11083000D03*
X98663500Y10583000D03*
D20*
X98676000Y10070500D03*
X99176000Y10070500D03*
X99676000Y10070500D03*
X100176000Y10070500D03*
D21*
X100188500Y10583000D03*
X100188500Y11083000D03*
G04 #@! TD*
G04 #@! TO.C,JP48*
G36*
G01*
X97301000Y99973001D02*
X98551000Y99973001D01*
G75*
G02*
X98651000Y99873001I0J-100000D01*
G01*
X98651000Y99073001D01*
G75*
G02*
X98551000Y98973001I-100000J0D01*
G01*
X97301000Y98973001D01*
G75*
G02*
X97201000Y99073001I0J100000D01*
G01*
X97201000Y99873001D01*
G75*
G02*
X97301000Y99973001I100000J0D01*
G01*
G37*
G36*
G01*
X97301000Y98072979D02*
X98551000Y98072979D01*
G75*
G02*
X98651000Y97972979I0J-100000D01*
G01*
X98651000Y97172979D01*
G75*
G02*
X98551000Y97072979I-100000J0D01*
G01*
X97301000Y97072979D01*
G75*
G02*
X97201000Y97172979I0J100000D01*
G01*
X97201000Y97972979D01*
G75*
G02*
X97301000Y98072979I100000J0D01*
G01*
G37*
G04 #@! TD*
G04 #@! TO.C,R3*
G36*
G01*
X42896000Y40088000D02*
X42896000Y40458000D01*
G75*
G02*
X43031000Y40593000I135000J0D01*
G01*
X43301000Y40593000D01*
G75*
G02*
X43436000Y40458000I0J-135000D01*
G01*
X43436000Y40088000D01*
G75*
G02*
X43301000Y39953000I-135000J0D01*
G01*
X43031000Y39953000D01*
G75*
G02*
X42896000Y40088000I0J135000D01*
G01*
G37*
G36*
G01*
X43916000Y40088000D02*
X43916000Y40458000D01*
G75*
G02*
X44051000Y40593000I135000J0D01*
G01*
X44321000Y40593000D01*
G75*
G02*
X44456000Y40458000I0J-135000D01*
G01*
X44456000Y40088000D01*
G75*
G02*
X44321000Y39953000I-135000J0D01*
G01*
X44051000Y39953000D01*
G75*
G02*
X43916000Y40088000I0J135000D01*
G01*
G37*
G04 #@! TD*
G04 #@! TO.C,R21*
G36*
G01*
X136334800Y63213000D02*
X136334800Y62433000D01*
G75*
G02*
X136264800Y62363000I-70000J0D01*
G01*
X135704800Y62363000D01*
G75*
G02*
X135634800Y62433000I0J70000D01*
G01*
X135634800Y63213000D01*
G75*
G02*
X135704800Y63283000I70000J0D01*
G01*
X136264800Y63283000D01*
G75*
G02*
X136334800Y63213000I0J-70000D01*
G01*
G37*
G36*
G01*
X134734800Y63213000D02*
X134734800Y62433000D01*
G75*
G02*
X134664800Y62363000I-70000J0D01*
G01*
X134104800Y62363000D01*
G75*
G02*
X134034800Y62433000I0J70000D01*
G01*
X134034800Y63213000D01*
G75*
G02*
X134104800Y63283000I70000J0D01*
G01*
X134664800Y63283000D01*
G75*
G02*
X134734800Y63213000I0J-70000D01*
G01*
G37*
G04 #@! TD*
G04 #@! TO.C,C6*
G36*
G01*
X26686000Y50193000D02*
X26686000Y49853000D01*
G75*
G02*
X26546000Y49713000I-140000J0D01*
G01*
X26266000Y49713000D01*
G75*
G02*
X26126000Y49853000I0J140000D01*
G01*
X26126000Y50193000D01*
G75*
G02*
X26266000Y50333000I140000J0D01*
G01*
X26546000Y50333000D01*
G75*
G02*
X26686000Y50193000I0J-140000D01*
G01*
G37*
G36*
G01*
X25726000Y50193000D02*
X25726000Y49853000D01*
G75*
G02*
X25586000Y49713000I-140000J0D01*
G01*
X25306000Y49713000D01*
G75*
G02*
X25166000Y49853000I0J140000D01*
G01*
X25166000Y50193000D01*
G75*
G02*
X25306000Y50333000I140000J0D01*
G01*
X25586000Y50333000D01*
G75*
G02*
X25726000Y50193000I0J-140000D01*
G01*
G37*
G04 #@! TD*
G04 #@! TO.C,SW1*
G36*
G01*
X90979800Y13600201D02*
X92819800Y13600201D01*
G75*
G02*
X92899800Y13520201I0J-80000D01*
G01*
X92899800Y12880201D01*
G75*
G02*
X92819800Y12800201I-80000J0D01*
G01*
X90979800Y12800201D01*
G75*
G02*
X90899800Y12880201I0J80000D01*
G01*
X90899800Y13520201D01*
G75*
G02*
X90979800Y13600201I80000J0D01*
G01*
G37*
G36*
G01*
X90979800Y9400200D02*
X92819800Y9400200D01*
G75*
G02*
X92899800Y9320200I0J-80000D01*
G01*
X92899800Y8680200D01*
G75*
G02*
X92819800Y8600200I-80000J0D01*
G01*
X90979800Y8600200D01*
G75*
G02*
X90899800Y8680200I0J80000D01*
G01*
X90899800Y9320200D01*
G75*
G02*
X90979800Y9400200I80000J0D01*
G01*
G37*
G04 #@! TD*
D13*
G04 #@! TO.C,D13*
X66876000Y74323000D03*
X64776000Y74323000D03*
G04 #@! TD*
G04 #@! TO.C,C23*
G36*
G01*
X104872301Y89110213D02*
X104192301Y89110213D01*
G75*
G02*
X104107301Y89195213I0J85000D01*
G01*
X104107301Y89875213D01*
G75*
G02*
X104192301Y89960213I85000J0D01*
G01*
X104872301Y89960213D01*
G75*
G02*
X104957301Y89875213I0J-85000D01*
G01*
X104957301Y89195213D01*
G75*
G02*
X104872301Y89110213I-85000J0D01*
G01*
G37*
G36*
G01*
X104872301Y90690215D02*
X104192301Y90690215D01*
G75*
G02*
X104107301Y90775215I0J85000D01*
G01*
X104107301Y91455215D01*
G75*
G02*
X104192301Y91540215I85000J0D01*
G01*
X104872301Y91540215D01*
G75*
G02*
X104957301Y91455215I0J-85000D01*
G01*
X104957301Y90775215D01*
G75*
G02*
X104872301Y90690215I-85000J0D01*
G01*
G37*
G04 #@! TD*
G04 #@! TO.C,R15*
G36*
G01*
X16691000Y95553000D02*
X17061000Y95553000D01*
G75*
G02*
X17196000Y95418000I0J-135000D01*
G01*
X17196000Y95148000D01*
G75*
G02*
X17061000Y95013000I-135000J0D01*
G01*
X16691000Y95013000D01*
G75*
G02*
X16556000Y95148000I0J135000D01*
G01*
X16556000Y95418000D01*
G75*
G02*
X16691000Y95553000I135000J0D01*
G01*
G37*
G36*
G01*
X16691000Y94533000D02*
X17061000Y94533000D01*
G75*
G02*
X17196000Y94398000I0J-135000D01*
G01*
X17196000Y94128000D01*
G75*
G02*
X17061000Y93993000I-135000J0D01*
G01*
X16691000Y93993000D01*
G75*
G02*
X16556000Y94128000I0J135000D01*
G01*
X16556000Y94398000D01*
G75*
G02*
X16691000Y94533000I135000J0D01*
G01*
G37*
G04 #@! TD*
G04 #@! TO.C,D39*
X78226000Y74323000D03*
X80326000Y74323000D03*
G04 #@! TD*
G04 #@! TO.C,R16*
G36*
G01*
X4936000Y26073000D02*
X5716000Y26073000D01*
G75*
G02*
X5786000Y26003000I0J-70000D01*
G01*
X5786000Y25443000D01*
G75*
G02*
X5716000Y25373000I-70000J0D01*
G01*
X4936000Y25373000D01*
G75*
G02*
X4866000Y25443000I0J70000D01*
G01*
X4866000Y26003000D01*
G75*
G02*
X4936000Y26073000I70000J0D01*
G01*
G37*
G36*
G01*
X4936000Y24473000D02*
X5716000Y24473000D01*
G75*
G02*
X5786000Y24403000I0J-70000D01*
G01*
X5786000Y23843000D01*
G75*
G02*
X5716000Y23773000I-70000J0D01*
G01*
X4936000Y23773000D01*
G75*
G02*
X4866000Y23843000I0J70000D01*
G01*
X4866000Y24403000D01*
G75*
G02*
X4936000Y24473000I70000J0D01*
G01*
G37*
G04 #@! TD*
G04 #@! TO.C,D24*
G36*
G01*
X64601000Y72316750D02*
X64601000Y72829250D01*
G75*
G02*
X64819750Y73048000I218750J0D01*
G01*
X65257250Y73048000D01*
G75*
G02*
X65476000Y72829250I0J-218750D01*
G01*
X65476000Y72316750D01*
G75*
G02*
X65257250Y72098000I-218750J0D01*
G01*
X64819750Y72098000D01*
G75*
G02*
X64601000Y72316750I0J218750D01*
G01*
G37*
G36*
G01*
X66176000Y72316750D02*
X66176000Y72829250D01*
G75*
G02*
X66394750Y73048000I218750J0D01*
G01*
X66832250Y73048000D01*
G75*
G02*
X67051000Y72829250I0J-218750D01*
G01*
X67051000Y72316750D01*
G75*
G02*
X66832250Y72098000I-218750J0D01*
G01*
X66394750Y72098000D01*
G75*
G02*
X66176000Y72316750I0J218750D01*
G01*
G37*
G04 #@! TD*
D22*
G04 #@! TO.C,M6*
X65051002Y81151414D03*
X65051002Y82876416D03*
X65051002Y84601416D03*
X65051002Y86301414D03*
D23*
X78251001Y79676414D03*
D22*
X84006875Y85697812D03*
X84001003Y82076414D03*
G04 #@! TD*
G04 #@! TO.C,C7*
G36*
G01*
X22151000Y50373000D02*
X22151000Y49873000D01*
G75*
G02*
X21926000Y49648000I-225000J0D01*
G01*
X21476000Y49648000D01*
G75*
G02*
X21251000Y49873000I0J225000D01*
G01*
X21251000Y50373000D01*
G75*
G02*
X21476000Y50598000I225000J0D01*
G01*
X21926000Y50598000D01*
G75*
G02*
X22151000Y50373000I0J-225000D01*
G01*
G37*
G36*
G01*
X20601000Y50373000D02*
X20601000Y49873000D01*
G75*
G02*
X20376000Y49648000I-225000J0D01*
G01*
X19926000Y49648000D01*
G75*
G02*
X19701000Y49873000I0J225000D01*
G01*
X19701000Y50373000D01*
G75*
G02*
X19926000Y50598000I225000J0D01*
G01*
X20376000Y50598000D01*
G75*
G02*
X20601000Y50373000I0J-225000D01*
G01*
G37*
G04 #@! TD*
D13*
G04 #@! TO.C,D2*
X44976000Y37773000D03*
X42876000Y37773000D03*
G04 #@! TD*
G04 #@! TO.C,C3*
G36*
G01*
X97666000Y14103000D02*
X97666000Y14443000D01*
G75*
G02*
X97806000Y14583000I140000J0D01*
G01*
X98086000Y14583000D01*
G75*
G02*
X98226000Y14443000I0J-140000D01*
G01*
X98226000Y14103000D01*
G75*
G02*
X98086000Y13963000I-140000J0D01*
G01*
X97806000Y13963000D01*
G75*
G02*
X97666000Y14103000I0J140000D01*
G01*
G37*
G36*
G01*
X98626000Y14103000D02*
X98626000Y14443000D01*
G75*
G02*
X98766000Y14583000I140000J0D01*
G01*
X99046000Y14583000D01*
G75*
G02*
X99186000Y14443000I0J-140000D01*
G01*
X99186000Y14103000D01*
G75*
G02*
X99046000Y13963000I-140000J0D01*
G01*
X98766000Y13963000D01*
G75*
G02*
X98626000Y14103000I0J140000D01*
G01*
G37*
G04 #@! TD*
G04 #@! TO.C,C4*
G36*
G01*
X105333500Y10175500D02*
X104993500Y10175500D01*
G75*
G02*
X104853500Y10315500I0J140000D01*
G01*
X104853500Y10595500D01*
G75*
G02*
X104993500Y10735500I140000J0D01*
G01*
X105333500Y10735500D01*
G75*
G02*
X105473500Y10595500I0J-140000D01*
G01*
X105473500Y10315500D01*
G75*
G02*
X105333500Y10175500I-140000J0D01*
G01*
G37*
G36*
G01*
X105333500Y11135500D02*
X104993500Y11135500D01*
G75*
G02*
X104853500Y11275500I0J140000D01*
G01*
X104853500Y11555500D01*
G75*
G02*
X104993500Y11695500I140000J0D01*
G01*
X105333500Y11695500D01*
G75*
G02*
X105473500Y11555500I0J-140000D01*
G01*
X105473500Y11275500D01*
G75*
G02*
X105333500Y11135500I-140000J0D01*
G01*
G37*
G04 #@! TD*
G04 #@! TO.C,C5*
G36*
G01*
X97960999Y8583000D02*
X97960999Y9263000D01*
G75*
G02*
X98045999Y9348000I85000J0D01*
G01*
X98725999Y9348000D01*
G75*
G02*
X98810999Y9263000I0J-85000D01*
G01*
X98810999Y8583000D01*
G75*
G02*
X98725999Y8498000I-85000J0D01*
G01*
X98045999Y8498000D01*
G75*
G02*
X97960999Y8583000I0J85000D01*
G01*
G37*
G36*
G01*
X99541001Y8583000D02*
X99541001Y9263000D01*
G75*
G02*
X99626001Y9348000I85000J0D01*
G01*
X100306001Y9348000D01*
G75*
G02*
X100391001Y9263000I0J-85000D01*
G01*
X100391001Y8583000D01*
G75*
G02*
X100306001Y8498000I-85000J0D01*
G01*
X99626001Y8498000D01*
G75*
G02*
X99541001Y8583000I0J85000D01*
G01*
G37*
G04 #@! TD*
G04 #@! TO.C,D19*
G36*
G01*
X122988500Y64116750D02*
X122988500Y64629250D01*
G75*
G02*
X123207250Y64848000I218750J0D01*
G01*
X123644750Y64848000D01*
G75*
G02*
X123863500Y64629250I0J-218750D01*
G01*
X123863500Y64116750D01*
G75*
G02*
X123644750Y63898000I-218750J0D01*
G01*
X123207250Y63898000D01*
G75*
G02*
X122988500Y64116750I0J218750D01*
G01*
G37*
G36*
G01*
X124563500Y64116750D02*
X124563500Y64629250D01*
G75*
G02*
X124782250Y64848000I218750J0D01*
G01*
X125219750Y64848000D01*
G75*
G02*
X125438500Y64629250I0J-218750D01*
G01*
X125438500Y64116750D01*
G75*
G02*
X125219750Y63898000I-218750J0D01*
G01*
X124782250Y63898000D01*
G75*
G02*
X124563500Y64116750I0J218750D01*
G01*
G37*
G04 #@! TD*
G04 #@! TO.C,D31*
G36*
G01*
X80501000Y72829250D02*
X80501000Y72316750D01*
G75*
G02*
X80282250Y72098000I-218750J0D01*
G01*
X79844750Y72098000D01*
G75*
G02*
X79626000Y72316750I0J218750D01*
G01*
X79626000Y72829250D01*
G75*
G02*
X79844750Y73048000I218750J0D01*
G01*
X80282250Y73048000D01*
G75*
G02*
X80501000Y72829250I0J-218750D01*
G01*
G37*
G36*
G01*
X78926000Y72829250D02*
X78926000Y72316750D01*
G75*
G02*
X78707250Y72098000I-218750J0D01*
G01*
X78269750Y72098000D01*
G75*
G02*
X78051000Y72316750I0J218750D01*
G01*
X78051000Y72829250D01*
G75*
G02*
X78269750Y73048000I218750J0D01*
G01*
X78707250Y73048000D01*
G75*
G02*
X78926000Y72829250I0J-218750D01*
G01*
G37*
G04 #@! TD*
G04 #@! TO.C,JP8*
G36*
G01*
X43999778Y90975200D02*
X43999778Y92225200D01*
G75*
G02*
X44099778Y92325200I100000J0D01*
G01*
X44899778Y92325200D01*
G75*
G02*
X44999778Y92225200I0J-100000D01*
G01*
X44999778Y90975200D01*
G75*
G02*
X44899778Y90875200I-100000J0D01*
G01*
X44099778Y90875200D01*
G75*
G02*
X43999778Y90975200I0J100000D01*
G01*
G37*
G36*
G01*
X45899800Y90975200D02*
X45899800Y92225200D01*
G75*
G02*
X45999800Y92325200I100000J0D01*
G01*
X46799800Y92325200D01*
G75*
G02*
X46899800Y92225200I0J-100000D01*
G01*
X46899800Y90975200D01*
G75*
G02*
X46799800Y90875200I-100000J0D01*
G01*
X45999800Y90875200D01*
G75*
G02*
X45899800Y90975200I0J100000D01*
G01*
G37*
G04 #@! TD*
G04 #@! TO.C,R20*
G36*
G01*
X136224800Y82713000D02*
X136224800Y81933000D01*
G75*
G02*
X136154800Y81863000I-70000J0D01*
G01*
X135594800Y81863000D01*
G75*
G02*
X135524800Y81933000I0J70000D01*
G01*
X135524800Y82713000D01*
G75*
G02*
X135594800Y82783000I70000J0D01*
G01*
X136154800Y82783000D01*
G75*
G02*
X136224800Y82713000I0J-70000D01*
G01*
G37*
G36*
G01*
X134624800Y82713000D02*
X134624800Y81933000D01*
G75*
G02*
X134554800Y81863000I-70000J0D01*
G01*
X133994800Y81863000D01*
G75*
G02*
X133924800Y81933000I0J70000D01*
G01*
X133924800Y82713000D01*
G75*
G02*
X133994800Y82783000I70000J0D01*
G01*
X134554800Y82783000D01*
G75*
G02*
X134624800Y82713000I0J-70000D01*
G01*
G37*
G04 #@! TD*
D19*
G04 #@! TO.C,M5*
X126563503Y3916187D03*
X111688501Y510476D03*
X87868505Y4460491D03*
X87868500Y2560490D03*
X124863486Y5918164D03*
G04 #@! TD*
G04 #@! TO.C,D12*
G36*
G01*
X20151000Y90279250D02*
X20151000Y89766750D01*
G75*
G02*
X19932250Y89548000I-218750J0D01*
G01*
X19494750Y89548000D01*
G75*
G02*
X19276000Y89766750I0J218750D01*
G01*
X19276000Y90279250D01*
G75*
G02*
X19494750Y90498000I218750J0D01*
G01*
X19932250Y90498000D01*
G75*
G02*
X20151000Y90279250I0J-218750D01*
G01*
G37*
G36*
G01*
X18576000Y90279250D02*
X18576000Y89766750D01*
G75*
G02*
X18357250Y89548000I-218750J0D01*
G01*
X17919750Y89548000D01*
G75*
G02*
X17701000Y89766750I0J218750D01*
G01*
X17701000Y90279250D01*
G75*
G02*
X17919750Y90498000I218750J0D01*
G01*
X18357250Y90498000D01*
G75*
G02*
X18576000Y90279250I0J-218750D01*
G01*
G37*
G04 #@! TD*
G04 #@! TO.C,R22*
G36*
G01*
X136324800Y73213000D02*
X136324800Y72433000D01*
G75*
G02*
X136254800Y72363000I-70000J0D01*
G01*
X135694800Y72363000D01*
G75*
G02*
X135624800Y72433000I0J70000D01*
G01*
X135624800Y73213000D01*
G75*
G02*
X135694800Y73283000I70000J0D01*
G01*
X136254800Y73283000D01*
G75*
G02*
X136324800Y73213000I0J-70000D01*
G01*
G37*
G36*
G01*
X134724800Y73213000D02*
X134724800Y72433000D01*
G75*
G02*
X134654800Y72363000I-70000J0D01*
G01*
X134094800Y72363000D01*
G75*
G02*
X134024800Y72433000I0J70000D01*
G01*
X134024800Y73213000D01*
G75*
G02*
X134094800Y73283000I70000J0D01*
G01*
X134654800Y73283000D01*
G75*
G02*
X134724800Y73213000I0J-70000D01*
G01*
G37*
G04 #@! TD*
G04 #@! TO.C,D5*
G36*
G01*
X41438500Y41529250D02*
X41438500Y41016750D01*
G75*
G02*
X41219750Y40798000I-218750J0D01*
G01*
X40782250Y40798000D01*
G75*
G02*
X40563500Y41016750I0J218750D01*
G01*
X40563500Y41529250D01*
G75*
G02*
X40782250Y41748000I218750J0D01*
G01*
X41219750Y41748000D01*
G75*
G02*
X41438500Y41529250I0J-218750D01*
G01*
G37*
G36*
G01*
X39863500Y41529250D02*
X39863500Y41016750D01*
G75*
G02*
X39644750Y40798000I-218750J0D01*
G01*
X39207250Y40798000D01*
G75*
G02*
X38988500Y41016750I0J218750D01*
G01*
X38988500Y41529250D01*
G75*
G02*
X39207250Y41748000I218750J0D01*
G01*
X39644750Y41748000D01*
G75*
G02*
X39863500Y41529250I0J-218750D01*
G01*
G37*
G04 #@! TD*
D24*
G04 #@! TO.C,U7*
X106817300Y91555200D03*
X106817300Y90285200D03*
X106817300Y89015200D03*
D25*
X106817300Y87745200D03*
D24*
X112507300Y87745200D03*
X112507300Y89015200D03*
X112507300Y90285200D03*
X112507300Y91555200D03*
D26*
X108999800Y90400200D03*
X108999800Y88900200D03*
X110324800Y90400200D03*
X110324800Y88900200D03*
G04 #@! TD*
D13*
G04 #@! TO.C,D35*
X66876000Y63823000D03*
X64776000Y63823000D03*
G04 #@! TD*
G04 #@! TO.C,D6*
G36*
G01*
X41438500Y39779250D02*
X41438500Y39266750D01*
G75*
G02*
X41219750Y39048000I-218750J0D01*
G01*
X40782250Y39048000D01*
G75*
G02*
X40563500Y39266750I0J218750D01*
G01*
X40563500Y39779250D01*
G75*
G02*
X40782250Y39998000I218750J0D01*
G01*
X41219750Y39998000D01*
G75*
G02*
X41438500Y39779250I0J-218750D01*
G01*
G37*
G36*
G01*
X39863500Y39779250D02*
X39863500Y39266750D01*
G75*
G02*
X39644750Y39048000I-218750J0D01*
G01*
X39207250Y39048000D01*
G75*
G02*
X38988500Y39266750I0J218750D01*
G01*
X38988500Y39779250D01*
G75*
G02*
X39207250Y39998000I218750J0D01*
G01*
X39644750Y39998000D01*
G75*
G02*
X39863500Y39779250I0J-218750D01*
G01*
G37*
G04 #@! TD*
G04 #@! TO.C,R29*
G36*
G01*
X48956000Y35708000D02*
X48956000Y35338000D01*
G75*
G02*
X48821000Y35203000I-135000J0D01*
G01*
X48551000Y35203000D01*
G75*
G02*
X48416000Y35338000I0J135000D01*
G01*
X48416000Y35708000D01*
G75*
G02*
X48551000Y35843000I135000J0D01*
G01*
X48821000Y35843000D01*
G75*
G02*
X48956000Y35708000I0J-135000D01*
G01*
G37*
G36*
G01*
X47936000Y35708000D02*
X47936000Y35338000D01*
G75*
G02*
X47801000Y35203000I-135000J0D01*
G01*
X47531000Y35203000D01*
G75*
G02*
X47396000Y35338000I0J135000D01*
G01*
X47396000Y35708000D01*
G75*
G02*
X47531000Y35843000I135000J0D01*
G01*
X47801000Y35843000D01*
G75*
G02*
X47936000Y35708000I0J-135000D01*
G01*
G37*
G04 #@! TD*
G04 #@! TO.C,U4*
G36*
G01*
X104063500Y10935500D02*
X104063500Y10735500D01*
G75*
G02*
X103963500Y10635500I-100000J0D01*
G01*
X103613500Y10635500D01*
G75*
G02*
X103513500Y10735500I0J100000D01*
G01*
X103513500Y10935500D01*
G75*
G02*
X103613500Y11035500I100000J0D01*
G01*
X103963500Y11035500D01*
G75*
G02*
X104063500Y10935500I0J-100000D01*
G01*
G37*
G36*
G01*
X104063500Y11535500D02*
X104063500Y11335500D01*
G75*
G02*
X103963500Y11235500I-100000J0D01*
G01*
X103613500Y11235500D01*
G75*
G02*
X103513500Y11335500I0J100000D01*
G01*
X103513500Y11535500D01*
G75*
G02*
X103613500Y11635500I100000J0D01*
G01*
X103963500Y11635500D01*
G75*
G02*
X104063500Y11535500I0J-100000D01*
G01*
G37*
G36*
G01*
X103663500Y12235500D02*
X103663500Y11885500D01*
G75*
G02*
X103563500Y11785500I-100000J0D01*
G01*
X103363500Y11785500D01*
G75*
G02*
X103263500Y11885500I0J100000D01*
G01*
X103263500Y12235500D01*
G75*
G02*
X103363500Y12335500I100000J0D01*
G01*
X103563500Y12335500D01*
G75*
G02*
X103663500Y12235500I0J-100000D01*
G01*
G37*
G36*
G01*
X103063500Y12235500D02*
X103063500Y11885500D01*
G75*
G02*
X102963500Y11785500I-100000J0D01*
G01*
X102763500Y11785500D01*
G75*
G02*
X102663500Y11885500I0J100000D01*
G01*
X102663500Y12235500D01*
G75*
G02*
X102763500Y12335500I100000J0D01*
G01*
X102963500Y12335500D01*
G75*
G02*
X103063500Y12235500I0J-100000D01*
G01*
G37*
G36*
G01*
X102463500Y12235500D02*
X102463500Y11885500D01*
G75*
G02*
X102363500Y11785500I-100000J0D01*
G01*
X102163500Y11785500D01*
G75*
G02*
X102063500Y11885500I0J100000D01*
G01*
X102063500Y12235500D01*
G75*
G02*
X102163500Y12335500I100000J0D01*
G01*
X102363500Y12335500D01*
G75*
G02*
X102463500Y12235500I0J-100000D01*
G01*
G37*
G36*
G01*
X102213500Y11535500D02*
X102213500Y11335500D01*
G75*
G02*
X102113500Y11235500I-100000J0D01*
G01*
X101763500Y11235500D01*
G75*
G02*
X101663500Y11335500I0J100000D01*
G01*
X101663500Y11535500D01*
G75*
G02*
X101763500Y11635500I100000J0D01*
G01*
X102113500Y11635500D01*
G75*
G02*
X102213500Y11535500I0J-100000D01*
G01*
G37*
G36*
G01*
X102213500Y10935500D02*
X102213500Y10735500D01*
G75*
G02*
X102113500Y10635500I-100000J0D01*
G01*
X101763500Y10635500D01*
G75*
G02*
X101663500Y10735500I0J100000D01*
G01*
X101663500Y10935500D01*
G75*
G02*
X101763500Y11035500I100000J0D01*
G01*
X102113500Y11035500D01*
G75*
G02*
X102213500Y10935500I0J-100000D01*
G01*
G37*
G36*
G01*
X102463500Y10385500D02*
X102463500Y10035500D01*
G75*
G02*
X102363500Y9935500I-100000J0D01*
G01*
X102163500Y9935500D01*
G75*
G02*
X102063500Y10035500I0J100000D01*
G01*
X102063500Y10385500D01*
G75*
G02*
X102163500Y10485500I100000J0D01*
G01*
X102363500Y10485500D01*
G75*
G02*
X102463500Y10385500I0J-100000D01*
G01*
G37*
G36*
G01*
X103063500Y10385500D02*
X103063500Y10035500D01*
G75*
G02*
X102963500Y9935500I-100000J0D01*
G01*
X102763500Y9935500D01*
G75*
G02*
X102663500Y10035500I0J100000D01*
G01*
X102663500Y10385500D01*
G75*
G02*
X102763500Y10485500I100000J0D01*
G01*
X102963500Y10485500D01*
G75*
G02*
X103063500Y10385500I0J-100000D01*
G01*
G37*
G36*
G01*
X103663500Y10385500D02*
X103663500Y10035500D01*
G75*
G02*
X103563500Y9935500I-100000J0D01*
G01*
X103363500Y9935500D01*
G75*
G02*
X103263500Y10035500I0J100000D01*
G01*
X103263500Y10385500D01*
G75*
G02*
X103363500Y10485500I100000J0D01*
G01*
X103563500Y10485500D01*
G75*
G02*
X103663500Y10385500I0J-100000D01*
G01*
G37*
G04 #@! TD*
G04 #@! TO.C,R30*
G36*
G01*
X47396000Y38338000D02*
X47396000Y38708000D01*
G75*
G02*
X47531000Y38843000I135000J0D01*
G01*
X47801000Y38843000D01*
G75*
G02*
X47936000Y38708000I0J-135000D01*
G01*
X47936000Y38338000D01*
G75*
G02*
X47801000Y38203000I-135000J0D01*
G01*
X47531000Y38203000D01*
G75*
G02*
X47396000Y38338000I0J135000D01*
G01*
G37*
G36*
G01*
X48416000Y38338000D02*
X48416000Y38708000D01*
G75*
G02*
X48551000Y38843000I135000J0D01*
G01*
X48821000Y38843000D01*
G75*
G02*
X48956000Y38708000I0J-135000D01*
G01*
X48956000Y38338000D01*
G75*
G02*
X48821000Y38203000I-135000J0D01*
G01*
X48551000Y38203000D01*
G75*
G02*
X48416000Y38338000I0J135000D01*
G01*
G37*
G04 #@! TD*
G04 #@! TO.C,D26*
G36*
G01*
X80501000Y62329250D02*
X80501000Y61816750D01*
G75*
G02*
X80282250Y61598000I-218750J0D01*
G01*
X79844750Y61598000D01*
G75*
G02*
X79626000Y61816750I0J218750D01*
G01*
X79626000Y62329250D01*
G75*
G02*
X79844750Y62548000I218750J0D01*
G01*
X80282250Y62548000D01*
G75*
G02*
X80501000Y62329250I0J-218750D01*
G01*
G37*
G36*
G01*
X78926000Y62329250D02*
X78926000Y61816750D01*
G75*
G02*
X78707250Y61598000I-218750J0D01*
G01*
X78269750Y61598000D01*
G75*
G02*
X78051000Y61816750I0J218750D01*
G01*
X78051000Y62329250D01*
G75*
G02*
X78269750Y62548000I218750J0D01*
G01*
X78707250Y62548000D01*
G75*
G02*
X78926000Y62329250I0J-218750D01*
G01*
G37*
G04 #@! TD*
G04 #@! TO.C,R28*
G36*
G01*
X48956000Y36708000D02*
X48956000Y36338000D01*
G75*
G02*
X48821000Y36203000I-135000J0D01*
G01*
X48551000Y36203000D01*
G75*
G02*
X48416000Y36338000I0J135000D01*
G01*
X48416000Y36708000D01*
G75*
G02*
X48551000Y36843000I135000J0D01*
G01*
X48821000Y36843000D01*
G75*
G02*
X48956000Y36708000I0J-135000D01*
G01*
G37*
G36*
G01*
X47936000Y36708000D02*
X47936000Y36338000D01*
G75*
G02*
X47801000Y36203000I-135000J0D01*
G01*
X47531000Y36203000D01*
G75*
G02*
X47396000Y36338000I0J135000D01*
G01*
X47396000Y36708000D01*
G75*
G02*
X47531000Y36843000I135000J0D01*
G01*
X47801000Y36843000D01*
G75*
G02*
X47936000Y36708000I0J-135000D01*
G01*
G37*
G04 #@! TD*
G04 #@! TO.C,R11*
G36*
G01*
X158201000Y88948000D02*
X158201000Y86098000D01*
G75*
G02*
X157951000Y85848000I-250000J0D01*
G01*
X157226000Y85848000D01*
G75*
G02*
X156976000Y86098000I0J250000D01*
G01*
X156976000Y88948000D01*
G75*
G02*
X157226000Y89198000I250000J0D01*
G01*
X157951000Y89198000D01*
G75*
G02*
X158201000Y88948000I0J-250000D01*
G01*
G37*
G36*
G01*
X152276000Y88948000D02*
X152276000Y86098000D01*
G75*
G02*
X152026000Y85848000I-250000J0D01*
G01*
X151301000Y85848000D01*
G75*
G02*
X151051000Y86098000I0J250000D01*
G01*
X151051000Y88948000D01*
G75*
G02*
X151301000Y89198000I250000J0D01*
G01*
X152026000Y89198000D01*
G75*
G02*
X152276000Y88948000I0J-250000D01*
G01*
G37*
G04 #@! TD*
G04 #@! TO.C,C14*
G36*
G01*
X63231000Y20528000D02*
X63731000Y20528000D01*
G75*
G02*
X63956000Y20303000I0J-225000D01*
G01*
X63956000Y19853000D01*
G75*
G02*
X63731000Y19628000I-225000J0D01*
G01*
X63231000Y19628000D01*
G75*
G02*
X63006000Y19853000I0J225000D01*
G01*
X63006000Y20303000D01*
G75*
G02*
X63231000Y20528000I225000J0D01*
G01*
G37*
G36*
G01*
X63231000Y18978000D02*
X63731000Y18978000D01*
G75*
G02*
X63956000Y18753000I0J-225000D01*
G01*
X63956000Y18303000D01*
G75*
G02*
X63731000Y18078000I-225000J0D01*
G01*
X63231000Y18078000D01*
G75*
G02*
X63006000Y18303000I0J225000D01*
G01*
X63006000Y18753000D01*
G75*
G02*
X63231000Y18978000I225000J0D01*
G01*
G37*
G04 #@! TD*
G04 #@! TO.C,D17*
G36*
G01*
X122951000Y57016750D02*
X122951000Y57529250D01*
G75*
G02*
X123169750Y57748000I218750J0D01*
G01*
X123607250Y57748000D01*
G75*
G02*
X123826000Y57529250I0J-218750D01*
G01*
X123826000Y57016750D01*
G75*
G02*
X123607250Y56798000I-218750J0D01*
G01*
X123169750Y56798000D01*
G75*
G02*
X122951000Y57016750I0J218750D01*
G01*
G37*
G36*
G01*
X124526000Y57016750D02*
X124526000Y57529250D01*
G75*
G02*
X124744750Y57748000I218750J0D01*
G01*
X125182250Y57748000D01*
G75*
G02*
X125401000Y57529250I0J-218750D01*
G01*
X125401000Y57016750D01*
G75*
G02*
X125182250Y56798000I-218750J0D01*
G01*
X124744750Y56798000D01*
G75*
G02*
X124526000Y57016750I0J218750D01*
G01*
G37*
G04 #@! TD*
D19*
G04 #@! TO.C,M9*
X58754459Y81326709D03*
G04 #@! TD*
G04 #@! TO.C,JP2*
G36*
G01*
X23351000Y90978001D02*
X24601000Y90978001D01*
G75*
G02*
X24701000Y90878001I0J-100000D01*
G01*
X24701000Y90078001D01*
G75*
G02*
X24601000Y89978001I-100000J0D01*
G01*
X23351000Y89978001D01*
G75*
G02*
X23251000Y90078001I0J100000D01*
G01*
X23251000Y90878001D01*
G75*
G02*
X23351000Y90978001I100000J0D01*
G01*
G37*
G36*
G01*
X23351000Y89077979D02*
X24601000Y89077979D01*
G75*
G02*
X24701000Y88977979I0J-100000D01*
G01*
X24701000Y88177979D01*
G75*
G02*
X24601000Y88077979I-100000J0D01*
G01*
X23351000Y88077979D01*
G75*
G02*
X23251000Y88177979I0J100000D01*
G01*
X23251000Y88977979D01*
G75*
G02*
X23351000Y89077979I100000J0D01*
G01*
G37*
G04 #@! TD*
G04 #@! TO.C,U8*
G36*
G01*
X102274800Y90320200D02*
X102924800Y90320200D01*
G75*
G02*
X103084800Y90160200I0J-160000D01*
G01*
X103084800Y89840200D01*
G75*
G02*
X102924800Y89680200I-160000J0D01*
G01*
X102274800Y89680200D01*
G75*
G02*
X102114800Y89840200I0J160000D01*
G01*
X102114800Y90160200D01*
G75*
G02*
X102274800Y90320200I160000J0D01*
G01*
G37*
G36*
G01*
X101074800Y90320200D02*
X101724800Y90320200D01*
G75*
G02*
X101884800Y90160200I0J-160000D01*
G01*
X101884800Y89840200D01*
G75*
G02*
X101724800Y89680200I-160000J0D01*
G01*
X101074800Y89680200D01*
G75*
G02*
X100914800Y89840200I0J160000D01*
G01*
X100914800Y90160200D01*
G75*
G02*
X101074800Y90320200I160000J0D01*
G01*
G37*
G36*
G01*
X102274800Y89520200D02*
X102924800Y89520200D01*
G75*
G02*
X103084800Y89360200I0J-160000D01*
G01*
X103084800Y89040200D01*
G75*
G02*
X102924800Y88880200I-160000J0D01*
G01*
X102274800Y88880200D01*
G75*
G02*
X102114800Y89040200I0J160000D01*
G01*
X102114800Y89360200D01*
G75*
G02*
X102274800Y89520200I160000J0D01*
G01*
G37*
G36*
G01*
X101074800Y89520200D02*
X101724800Y89520200D01*
G75*
G02*
X101884800Y89360200I0J-160000D01*
G01*
X101884800Y89040200D01*
G75*
G02*
X101724800Y88880200I-160000J0D01*
G01*
X101074800Y88880200D01*
G75*
G02*
X100914800Y89040200I0J160000D01*
G01*
X100914800Y89360200D01*
G75*
G02*
X101074800Y89520200I160000J0D01*
G01*
G37*
G36*
G01*
X102899800Y91475200D02*
X103049800Y91475200D01*
G75*
G02*
X103124800Y91400200I0J-75000D01*
G01*
X103124800Y90700200D01*
G75*
G02*
X103049800Y90625200I-75000J0D01*
G01*
X102899800Y90625200D01*
G75*
G02*
X102824800Y90700200I0J75000D01*
G01*
X102824800Y91400200D01*
G75*
G02*
X102899800Y91475200I75000J0D01*
G01*
G37*
G36*
G01*
X102249800Y91475200D02*
X102399800Y91475200D01*
G75*
G02*
X102474800Y91400200I0J-75000D01*
G01*
X102474800Y90700200D01*
G75*
G02*
X102399800Y90625200I-75000J0D01*
G01*
X102249800Y90625200D01*
G75*
G02*
X102174800Y90700200I0J75000D01*
G01*
X102174800Y91400200D01*
G75*
G02*
X102249800Y91475200I75000J0D01*
G01*
G37*
G36*
G01*
X101599800Y91475200D02*
X101749800Y91475200D01*
G75*
G02*
X101824800Y91400200I0J-75000D01*
G01*
X101824800Y90700200D01*
G75*
G02*
X101749800Y90625200I-75000J0D01*
G01*
X101599800Y90625200D01*
G75*
G02*
X101524800Y90700200I0J75000D01*
G01*
X101524800Y91400200D01*
G75*
G02*
X101599800Y91475200I75000J0D01*
G01*
G37*
G36*
G01*
X100949800Y91475200D02*
X101099800Y91475200D01*
G75*
G02*
X101174800Y91400200I0J-75000D01*
G01*
X101174800Y90700200D01*
G75*
G02*
X101099800Y90625200I-75000J0D01*
G01*
X100949800Y90625200D01*
G75*
G02*
X100874800Y90700200I0J75000D01*
G01*
X100874800Y91400200D01*
G75*
G02*
X100949800Y91475200I75000J0D01*
G01*
G37*
G36*
G01*
X100949800Y88575200D02*
X101099800Y88575200D01*
G75*
G02*
X101174800Y88500200I0J-75000D01*
G01*
X101174800Y87800200D01*
G75*
G02*
X101099800Y87725200I-75000J0D01*
G01*
X100949800Y87725200D01*
G75*
G02*
X100874800Y87800200I0J75000D01*
G01*
X100874800Y88500200D01*
G75*
G02*
X100949800Y88575200I75000J0D01*
G01*
G37*
G36*
G01*
X101599800Y88575200D02*
X101749800Y88575200D01*
G75*
G02*
X101824800Y88500200I0J-75000D01*
G01*
X101824800Y87800200D01*
G75*
G02*
X101749800Y87725200I-75000J0D01*
G01*
X101599800Y87725200D01*
G75*
G02*
X101524800Y87800200I0J75000D01*
G01*
X101524800Y88500200D01*
G75*
G02*
X101599800Y88575200I75000J0D01*
G01*
G37*
G36*
G01*
X102249800Y88575200D02*
X102399800Y88575200D01*
G75*
G02*
X102474800Y88500200I0J-75000D01*
G01*
X102474800Y87800200D01*
G75*
G02*
X102399800Y87725200I-75000J0D01*
G01*
X102249800Y87725200D01*
G75*
G02*
X102174800Y87800200I0J75000D01*
G01*
X102174800Y88500200D01*
G75*
G02*
X102249800Y88575200I75000J0D01*
G01*
G37*
G36*
G01*
X102899800Y88575200D02*
X103049800Y88575200D01*
G75*
G02*
X103124800Y88500200I0J-75000D01*
G01*
X103124800Y87800200D01*
G75*
G02*
X103049800Y87725200I-75000J0D01*
G01*
X102899800Y87725200D01*
G75*
G02*
X102824800Y87800200I0J75000D01*
G01*
X102824800Y88500200D01*
G75*
G02*
X102899800Y88575200I75000J0D01*
G01*
G37*
G04 #@! TD*
G04 #@! TO.C,M1*
X16034985Y33885113D03*
X15949784Y28382548D03*
X6709980Y26960113D03*
G36*
G01*
X7209989Y23960116D02*
X7209989Y23960116D01*
X7209989Y23960116D01*
X7209989Y23960116D01*
X7209989Y23960116D01*
G37*
G04 #@! TD*
G04 #@! TO.C,R34*
G36*
G01*
X103065999Y96133000D02*
X103065999Y96913000D01*
G75*
G02*
X103135999Y96983000I70000J0D01*
G01*
X103695999Y96983000D01*
G75*
G02*
X103765999Y96913000I0J-70000D01*
G01*
X103765999Y96133000D01*
G75*
G02*
X103695999Y96063000I-70000J0D01*
G01*
X103135999Y96063000D01*
G75*
G02*
X103065999Y96133000I0J70000D01*
G01*
G37*
G36*
G01*
X104665999Y96133000D02*
X104665999Y96913000D01*
G75*
G02*
X104735999Y96983000I70000J0D01*
G01*
X105295999Y96983000D01*
G75*
G02*
X105365999Y96913000I0J-70000D01*
G01*
X105365999Y96133000D01*
G75*
G02*
X105295999Y96063000I-70000J0D01*
G01*
X104735999Y96063000D01*
G75*
G02*
X104665999Y96133000I0J70000D01*
G01*
G37*
G04 #@! TD*
G04 #@! TO.C,D4*
G36*
G01*
X41438500Y38029250D02*
X41438500Y37516750D01*
G75*
G02*
X41219750Y37298000I-218750J0D01*
G01*
X40782250Y37298000D01*
G75*
G02*
X40563500Y37516750I0J218750D01*
G01*
X40563500Y38029250D01*
G75*
G02*
X40782250Y38248000I218750J0D01*
G01*
X41219750Y38248000D01*
G75*
G02*
X41438500Y38029250I0J-218750D01*
G01*
G37*
G36*
G01*
X39863500Y38029250D02*
X39863500Y37516750D01*
G75*
G02*
X39644750Y37298000I-218750J0D01*
G01*
X39207250Y37298000D01*
G75*
G02*
X38988500Y37516750I0J218750D01*
G01*
X38988500Y38029250D01*
G75*
G02*
X39207250Y38248000I218750J0D01*
G01*
X39644750Y38248000D01*
G75*
G02*
X39863500Y38029250I0J-218750D01*
G01*
G37*
G04 #@! TD*
G04 #@! TO.C,R19*
G36*
G01*
X136324800Y42713000D02*
X136324800Y41933000D01*
G75*
G02*
X136254800Y41863000I-70000J0D01*
G01*
X135694800Y41863000D01*
G75*
G02*
X135624800Y41933000I0J70000D01*
G01*
X135624800Y42713000D01*
G75*
G02*
X135694800Y42783000I70000J0D01*
G01*
X136254800Y42783000D01*
G75*
G02*
X136324800Y42713000I0J-70000D01*
G01*
G37*
G36*
G01*
X134724800Y42713000D02*
X134724800Y41933000D01*
G75*
G02*
X134654800Y41863000I-70000J0D01*
G01*
X134094800Y41863000D01*
G75*
G02*
X134024800Y41933000I0J70000D01*
G01*
X134024800Y42713000D01*
G75*
G02*
X134094800Y42783000I70000J0D01*
G01*
X134654800Y42783000D01*
G75*
G02*
X134724800Y42713000I0J-70000D01*
G01*
G37*
G04 #@! TD*
G04 #@! TO.C,SW2*
G36*
G01*
X94979800Y13600201D02*
X96819800Y13600201D01*
G75*
G02*
X96899800Y13520201I0J-80000D01*
G01*
X96899800Y12880201D01*
G75*
G02*
X96819800Y12800201I-80000J0D01*
G01*
X94979800Y12800201D01*
G75*
G02*
X94899800Y12880201I0J80000D01*
G01*
X94899800Y13520201D01*
G75*
G02*
X94979800Y13600201I80000J0D01*
G01*
G37*
G36*
G01*
X94979800Y9400200D02*
X96819800Y9400200D01*
G75*
G02*
X96899800Y9320200I0J-80000D01*
G01*
X96899800Y8680200D01*
G75*
G02*
X96819800Y8600200I-80000J0D01*
G01*
X94979800Y8600200D01*
G75*
G02*
X94899800Y8680200I0J80000D01*
G01*
X94899800Y9320200D01*
G75*
G02*
X94979800Y9400200I80000J0D01*
G01*
G37*
G04 #@! TD*
D27*
G04 #@! TO.C,Q9*
X25476000Y74173000D03*
X23176000Y74173000D03*
X20876000Y74173000D03*
D28*
X23176000Y67873000D03*
G04 #@! TD*
G04 #@! TO.C,D7*
G36*
G01*
X75601000Y78379250D02*
X75601000Y77866750D01*
G75*
G02*
X75382250Y77648000I-218750J0D01*
G01*
X74944750Y77648000D01*
G75*
G02*
X74726000Y77866750I0J218750D01*
G01*
X74726000Y78379250D01*
G75*
G02*
X74944750Y78598000I218750J0D01*
G01*
X75382250Y78598000D01*
G75*
G02*
X75601000Y78379250I0J-218750D01*
G01*
G37*
G36*
G01*
X74026000Y78379250D02*
X74026000Y77866750D01*
G75*
G02*
X73807250Y77648000I-218750J0D01*
G01*
X73369750Y77648000D01*
G75*
G02*
X73151000Y77866750I0J218750D01*
G01*
X73151000Y78379250D01*
G75*
G02*
X73369750Y78598000I218750J0D01*
G01*
X73807250Y78598000D01*
G75*
G02*
X74026000Y78379250I0J-218750D01*
G01*
G37*
G04 #@! TD*
D13*
G04 #@! TO.C,D43*
X69326000Y55823000D03*
X67226000Y55823000D03*
G04 #@! TD*
G04 #@! TO.C,D42*
X77826000Y76623000D03*
X79926000Y76623000D03*
G04 #@! TD*
G04 #@! TO.C,C20*
G36*
G01*
X63596000Y39263000D02*
X63256000Y39263000D01*
G75*
G02*
X63116000Y39403000I0J140000D01*
G01*
X63116000Y39683000D01*
G75*
G02*
X63256000Y39823000I140000J0D01*
G01*
X63596000Y39823000D01*
G75*
G02*
X63736000Y39683000I0J-140000D01*
G01*
X63736000Y39403000D01*
G75*
G02*
X63596000Y39263000I-140000J0D01*
G01*
G37*
G36*
G01*
X63596000Y40223000D02*
X63256000Y40223000D01*
G75*
G02*
X63116000Y40363000I0J140000D01*
G01*
X63116000Y40643000D01*
G75*
G02*
X63256000Y40783000I140000J0D01*
G01*
X63596000Y40783000D01*
G75*
G02*
X63736000Y40643000I0J-140000D01*
G01*
X63736000Y40363000D01*
G75*
G02*
X63596000Y40223000I-140000J0D01*
G01*
G37*
G04 #@! TD*
G04 #@! TO.C,D30*
G36*
G01*
X80501000Y65829250D02*
X80501000Y65316750D01*
G75*
G02*
X80282250Y65098000I-218750J0D01*
G01*
X79844750Y65098000D01*
G75*
G02*
X79626000Y65316750I0J218750D01*
G01*
X79626000Y65829250D01*
G75*
G02*
X79844750Y66048000I218750J0D01*
G01*
X80282250Y66048000D01*
G75*
G02*
X80501000Y65829250I0J-218750D01*
G01*
G37*
G36*
G01*
X78926000Y65829250D02*
X78926000Y65316750D01*
G75*
G02*
X78707250Y65098000I-218750J0D01*
G01*
X78269750Y65098000D01*
G75*
G02*
X78051000Y65316750I0J218750D01*
G01*
X78051000Y65829250D01*
G75*
G02*
X78269750Y66048000I218750J0D01*
G01*
X78707250Y66048000D01*
G75*
G02*
X78926000Y65829250I0J-218750D01*
G01*
G37*
G04 #@! TD*
G04 #@! TO.C,D40*
X16876000Y92523000D03*
X18976000Y92523000D03*
G04 #@! TD*
G04 #@! TO.C,D38*
X78226000Y70823000D03*
X80326000Y70823000D03*
G04 #@! TD*
G04 #@! TO.C,C10*
G36*
G01*
X69506000Y28433000D02*
X69846000Y28433000D01*
G75*
G02*
X69986000Y28293000I0J-140000D01*
G01*
X69986000Y28013000D01*
G75*
G02*
X69846000Y27873000I-140000J0D01*
G01*
X69506000Y27873000D01*
G75*
G02*
X69366000Y28013000I0J140000D01*
G01*
X69366000Y28293000D01*
G75*
G02*
X69506000Y28433000I140000J0D01*
G01*
G37*
G36*
G01*
X69506000Y27473000D02*
X69846000Y27473000D01*
G75*
G02*
X69986000Y27333000I0J-140000D01*
G01*
X69986000Y27053000D01*
G75*
G02*
X69846000Y26913000I-140000J0D01*
G01*
X69506000Y26913000D01*
G75*
G02*
X69366000Y27053000I0J140000D01*
G01*
X69366000Y27333000D01*
G75*
G02*
X69506000Y27473000I140000J0D01*
G01*
G37*
G04 #@! TD*
D19*
G04 #@! TO.C,M2*
X121701003Y25648001D03*
G04 #@! TD*
D29*
G04 #@! TO.C,Q10*
X17776000Y84323000D03*
X17776000Y82023000D03*
X17776000Y79723000D03*
D30*
X24076000Y82023000D03*
G04 #@! TD*
G04 #@! TO.C,R42*
G36*
G01*
X78906000Y78358000D02*
X78906000Y77988000D01*
G75*
G02*
X78771000Y77853000I-135000J0D01*
G01*
X78501000Y77853000D01*
G75*
G02*
X78366000Y77988000I0J135000D01*
G01*
X78366000Y78358000D01*
G75*
G02*
X78501000Y78493000I135000J0D01*
G01*
X78771000Y78493000D01*
G75*
G02*
X78906000Y78358000I0J-135000D01*
G01*
G37*
G36*
G01*
X77886000Y78358000D02*
X77886000Y77988000D01*
G75*
G02*
X77751000Y77853000I-135000J0D01*
G01*
X77481000Y77853000D01*
G75*
G02*
X77346000Y77988000I0J135000D01*
G01*
X77346000Y78358000D01*
G75*
G02*
X77481000Y78493000I135000J0D01*
G01*
X77751000Y78493000D01*
G75*
G02*
X77886000Y78358000I0J-135000D01*
G01*
G37*
G04 #@! TD*
D13*
G04 #@! TO.C,D36*
X78226000Y63823000D03*
X80326000Y63823000D03*
G04 #@! TD*
G04 #@! TO.C,C9*
G36*
G01*
X57231000Y20528000D02*
X57731000Y20528000D01*
G75*
G02*
X57956000Y20303000I0J-225000D01*
G01*
X57956000Y19853000D01*
G75*
G02*
X57731000Y19628000I-225000J0D01*
G01*
X57231000Y19628000D01*
G75*
G02*
X57006000Y19853000I0J225000D01*
G01*
X57006000Y20303000D01*
G75*
G02*
X57231000Y20528000I225000J0D01*
G01*
G37*
G36*
G01*
X57231000Y18978000D02*
X57731000Y18978000D01*
G75*
G02*
X57956000Y18753000I0J-225000D01*
G01*
X57956000Y18303000D01*
G75*
G02*
X57731000Y18078000I-225000J0D01*
G01*
X57231000Y18078000D01*
G75*
G02*
X57006000Y18303000I0J225000D01*
G01*
X57006000Y18753000D01*
G75*
G02*
X57231000Y18978000I225000J0D01*
G01*
G37*
G04 #@! TD*
D31*
G04 #@! TO.C,D33*
X50926000Y41323000D03*
X50926000Y39223000D03*
G04 #@! TD*
G04 #@! TO.C,R17*
G36*
G01*
X136324800Y32713000D02*
X136324800Y31933000D01*
G75*
G02*
X136254800Y31863000I-70000J0D01*
G01*
X135694800Y31863000D01*
G75*
G02*
X135624800Y31933000I0J70000D01*
G01*
X135624800Y32713000D01*
G75*
G02*
X135694800Y32783000I70000J0D01*
G01*
X136254800Y32783000D01*
G75*
G02*
X136324800Y32713000I0J-70000D01*
G01*
G37*
G36*
G01*
X134724800Y32713000D02*
X134724800Y31933000D01*
G75*
G02*
X134654800Y31863000I-70000J0D01*
G01*
X134094800Y31863000D01*
G75*
G02*
X134024800Y31933000I0J70000D01*
G01*
X134024800Y32713000D01*
G75*
G02*
X134094800Y32783000I70000J0D01*
G01*
X134654800Y32783000D01*
G75*
G02*
X134724800Y32713000I0J-70000D01*
G01*
G37*
G04 #@! TD*
D32*
G04 #@! TO.C,D44*
X15176000Y78623000D03*
X15176000Y81923000D03*
G04 #@! TD*
G04 #@! TO.C,R32*
G36*
G01*
X19981000Y88803000D02*
X20351000Y88803000D01*
G75*
G02*
X20486000Y88668000I0J-135000D01*
G01*
X20486000Y88398000D01*
G75*
G02*
X20351000Y88263000I-135000J0D01*
G01*
X19981000Y88263000D01*
G75*
G02*
X19846000Y88398000I0J135000D01*
G01*
X19846000Y88668000D01*
G75*
G02*
X19981000Y88803000I135000J0D01*
G01*
G37*
G36*
G01*
X19981000Y87783000D02*
X20351000Y87783000D01*
G75*
G02*
X20486000Y87648000I0J-135000D01*
G01*
X20486000Y87378000D01*
G75*
G02*
X20351000Y87243000I-135000J0D01*
G01*
X19981000Y87243000D01*
G75*
G02*
X19846000Y87378000I0J135000D01*
G01*
X19846000Y87648000D01*
G75*
G02*
X19981000Y87783000I135000J0D01*
G01*
G37*
G04 #@! TD*
G04 #@! TO.C,C16*
G36*
G01*
X62176000Y39298000D02*
X61676000Y39298000D01*
G75*
G02*
X61451000Y39523000I0J225000D01*
G01*
X61451000Y39973000D01*
G75*
G02*
X61676000Y40198000I225000J0D01*
G01*
X62176000Y40198000D01*
G75*
G02*
X62401000Y39973000I0J-225000D01*
G01*
X62401000Y39523000D01*
G75*
G02*
X62176000Y39298000I-225000J0D01*
G01*
G37*
G36*
G01*
X62176000Y40848000D02*
X61676000Y40848000D01*
G75*
G02*
X61451000Y41073000I0J225000D01*
G01*
X61451000Y41523000D01*
G75*
G02*
X61676000Y41748000I225000J0D01*
G01*
X62176000Y41748000D01*
G75*
G02*
X62401000Y41523000I0J-225000D01*
G01*
X62401000Y41073000D01*
G75*
G02*
X62176000Y40848000I-225000J0D01*
G01*
G37*
G04 #@! TD*
D13*
G04 #@! TO.C,D34*
X66876000Y67323000D03*
X64776000Y67323000D03*
G04 #@! TD*
D31*
G04 #@! TO.C,D32*
X54926000Y39223000D03*
X54926000Y41323000D03*
G04 #@! TD*
G04 #@! TO.C,C18*
G36*
G01*
X56061000Y20583000D02*
X56401000Y20583000D01*
G75*
G02*
X56541000Y20443000I0J-140000D01*
G01*
X56541000Y20163000D01*
G75*
G02*
X56401000Y20023000I-140000J0D01*
G01*
X56061000Y20023000D01*
G75*
G02*
X55921000Y20163000I0J140000D01*
G01*
X55921000Y20443000D01*
G75*
G02*
X56061000Y20583000I140000J0D01*
G01*
G37*
G36*
G01*
X56061000Y19623000D02*
X56401000Y19623000D01*
G75*
G02*
X56541000Y19483000I0J-140000D01*
G01*
X56541000Y19203000D01*
G75*
G02*
X56401000Y19063000I-140000J0D01*
G01*
X56061000Y19063000D01*
G75*
G02*
X55921000Y19203000I0J140000D01*
G01*
X55921000Y19483000D01*
G75*
G02*
X56061000Y19623000I140000J0D01*
G01*
G37*
G04 #@! TD*
G04 #@! TO.C,R35*
G36*
G01*
X73986000Y88633000D02*
X73986000Y89413000D01*
G75*
G02*
X74056000Y89483000I70000J0D01*
G01*
X74616000Y89483000D01*
G75*
G02*
X74686000Y89413000I0J-70000D01*
G01*
X74686000Y88633000D01*
G75*
G02*
X74616000Y88563000I-70000J0D01*
G01*
X74056000Y88563000D01*
G75*
G02*
X73986000Y88633000I0J70000D01*
G01*
G37*
G36*
G01*
X75586000Y88633000D02*
X75586000Y89413000D01*
G75*
G02*
X75656000Y89483000I70000J0D01*
G01*
X76216000Y89483000D01*
G75*
G02*
X76286000Y89413000I0J-70000D01*
G01*
X76286000Y88633000D01*
G75*
G02*
X76216000Y88563000I-70000J0D01*
G01*
X75656000Y88563000D01*
G75*
G02*
X75586000Y88633000I0J70000D01*
G01*
G37*
G04 #@! TD*
M02*
