G04 #@! TF.GenerationSoftware,KiCad,Pcbnew,(5.99.0-11247-g3f6811f413)*
G04 #@! TF.CreationDate,2021-09-04T00:52:15+03:00*
G04 #@! TF.ProjectId,hellen88bmw,68656c6c-656e-4383-9862-6d772e6b6963,rev?*
G04 #@! TF.SameCoordinates,PX3d1b110PY9269338*
G04 #@! TF.FileFunction,Soldermask,Top*
G04 #@! TF.FilePolarity,Negative*
%FSLAX46Y46*%
G04 Gerber Fmt 4.6, Leading zero omitted, Abs format (unit mm)*
G04 Created by KiCad (PCBNEW (5.99.0-11247-g3f6811f413)) date 2021-09-04 00:52:15*
%MOMM*%
%LPD*%
G01*
G04 APERTURE LIST*
%ADD10C,0.010000*%
%ADD11C,6.000000*%
%ADD12C,1.524000*%
%ADD13R,1.397000X0.889000*%
%ADD14R,0.203200X1.524000*%
%ADD15R,2.200000X1.200000*%
%ADD16R,6.400000X5.800000*%
%ADD17R,1.700000X1.700000*%
%ADD18O,1.700000X1.700000*%
%ADD19R,0.640000X2.160000*%
%ADD20C,4.300000*%
%ADD21R,0.600000X0.450000*%
%ADD22R,0.850000X0.850000*%
%ADD23R,0.900000X1.200000*%
%ADD24C,3.000000*%
%ADD25C,0.800000*%
%ADD26R,1.700000X0.900000*%
%ADD27R,0.900000X0.400000*%
%ADD28R,0.800000X2.200000*%
%ADD29R,2.032000X5.080000*%
%ADD30R,11.430000X7.620000*%
%ADD31C,2.000000*%
%ADD32C,1.000000*%
%ADD33R,1.350000X1.350000*%
%ADD34O,1.350000X1.350000*%
%ADD35R,1.100000X1.100000*%
%ADD36C,1.100000*%
%ADD37O,1.100000X2.400000*%
%ADD38O,0.499999X0.250000*%
%ADD39O,0.250000X0.499999*%
%ADD40C,0.599999*%
%ADD41R,0.350000X0.400000*%
%ADD42R,0.400000X0.350000*%
%ADD43O,0.500000X0.250000*%
%ADD44O,0.250000X0.500000*%
%ADD45O,3.700000X2.700000*%
%ADD46O,1.000001X0.499999*%
%ADD47O,1.700000X1.850000*%
%ADD48O,1.800000X2.800000*%
%ADD49C,3.302000*%
%ADD50O,1.000001X1.500000*%
%ADD51O,0.800001X0.599999*%
%ADD52O,0.200000X0.499999*%
%ADD53O,0.200000X0.399999*%
%ADD54R,1.500000X2.000000*%
%ADD55R,3.800000X2.000000*%
%ADD56R,2.000000X1.500000*%
%ADD57R,2.000000X3.800000*%
%ADD58R,0.450000X0.600000*%
%ADD59R,1.200000X0.900000*%
G04 APERTURE END LIST*
D10*
G04 #@! TO.C,U6*
X65284150Y26631400D02*
X64865600Y26631400D01*
X64865600Y26631400D02*
X64865600Y31919860D01*
X64865600Y31919860D02*
X65284150Y31919860D01*
X65284150Y31919860D02*
X65284150Y26631400D01*
G36*
X65284150Y26631400D02*
G01*
X64865600Y26631400D01*
X64865600Y31919860D01*
X65284150Y31919860D01*
X65284150Y26631400D01*
G37*
X65284150Y26631400D02*
X64865600Y26631400D01*
X64865600Y31919860D01*
X65284150Y31919860D01*
X65284150Y26631400D01*
X53480550Y26631400D02*
X53080000Y26631400D01*
X53080000Y26631400D02*
X53080000Y31917320D01*
X53080000Y31917320D02*
X53480550Y31917320D01*
X53480550Y31917320D02*
X53480550Y26631400D01*
G36*
X53480550Y26631400D02*
G01*
X53080000Y26631400D01*
X53080000Y31917320D01*
X53480550Y31917320D01*
X53480550Y26631400D01*
G37*
X53480550Y26631400D02*
X53080000Y26631400D01*
X53080000Y31917320D01*
X53480550Y31917320D01*
X53480550Y26631400D01*
G04 #@! TD*
D11*
G04 #@! TO.C,PP1*
X7632400Y113856400D03*
X153342400Y113606400D03*
D12*
X27142400Y111606400D03*
X32142400Y111606400D03*
X37142400Y111606400D03*
X42142400Y111606400D03*
X47142400Y111606400D03*
X52142400Y111606400D03*
X56892400Y110856400D03*
X60142400Y110856400D03*
X63392400Y110856400D03*
X66642400Y110856400D03*
X69892400Y110856400D03*
X73142400Y110856400D03*
X76392400Y110856400D03*
X79642400Y110856400D03*
X82892400Y110856400D03*
X86142400Y110856400D03*
X89392400Y110856400D03*
X92642400Y110856400D03*
X95892400Y110856400D03*
X99142400Y110856400D03*
X102392400Y110856400D03*
X107392400Y111606400D03*
X112392400Y111606400D03*
X117392400Y111606400D03*
X122392400Y111606400D03*
X127392400Y111606400D03*
X132392400Y111606400D03*
X137392400Y111606400D03*
X29642400Y111606400D03*
X34642400Y111606400D03*
X39642400Y111606400D03*
X44642400Y111606400D03*
X49642400Y111606400D03*
X54642400Y111606400D03*
X58642400Y112356400D03*
X61892400Y112356400D03*
X65142400Y112356400D03*
X68392400Y112356400D03*
X71642400Y112356400D03*
X74892400Y112356400D03*
X78142400Y112356400D03*
X81392400Y112356400D03*
X84642400Y112356400D03*
X87892400Y112356400D03*
X91142400Y112356400D03*
X94392400Y112356400D03*
X97642400Y112356400D03*
X100892400Y112356400D03*
X104892400Y111606400D03*
X109892400Y111606400D03*
X114892400Y111606400D03*
X119892400Y111606400D03*
X124892400Y111606400D03*
X129892400Y111606400D03*
X134892400Y111606400D03*
X29392400Y105356400D03*
X32642400Y105356400D03*
X35892400Y105356400D03*
X39142400Y105356400D03*
X42392400Y105356400D03*
X45642400Y105356400D03*
X48892400Y105356400D03*
X52142400Y105356400D03*
X55392400Y105356400D03*
X58642400Y105356400D03*
X61892400Y105356400D03*
X65142400Y105356400D03*
X68392400Y105356400D03*
X71642400Y105356400D03*
X74892400Y105356400D03*
X78142400Y105356400D03*
X81392400Y105356400D03*
X84642400Y105356400D03*
X87892400Y105356400D03*
X91142400Y105356400D03*
X94392400Y105356400D03*
X97642400Y105356400D03*
X100892400Y105356400D03*
X104142400Y105356400D03*
X107392400Y105356400D03*
X110642400Y105356400D03*
X113892400Y105356400D03*
X117142400Y105356400D03*
X120392400Y105356400D03*
X123642400Y105356400D03*
X126892400Y105356400D03*
X130142400Y105356400D03*
X133392400Y105356400D03*
G04 #@! TD*
D13*
G04 #@! TO.C,JP1*
X20926000Y99475500D03*
D12*
X20926000Y100428000D03*
D14*
X20926000Y99793000D03*
X20926000Y97253000D03*
D12*
X20926000Y96618000D03*
D13*
X20926000Y97570500D03*
G04 #@! TD*
G04 #@! TO.C,JP3*
X30176000Y99475500D03*
D12*
X30176000Y100428000D03*
D14*
X30176000Y99793000D03*
D12*
X30176000Y96618000D03*
D14*
X30176000Y97253000D03*
D13*
X30176000Y97570500D03*
G04 #@! TD*
G04 #@! TO.C,JP4*
X35676000Y99475500D03*
D12*
X35676000Y100428000D03*
D14*
X35676000Y99793000D03*
D13*
X35676000Y97570500D03*
D12*
X35676000Y96618000D03*
D14*
X35676000Y97253000D03*
G04 #@! TD*
G04 #@! TO.C,JP5*
X45176000Y99793000D03*
D12*
X45176000Y100428000D03*
D13*
X45176000Y99475500D03*
D14*
X45176000Y97253000D03*
D13*
X45176000Y97570500D03*
D12*
X45176000Y96618000D03*
G04 #@! TD*
G04 #@! TO.C,JP7*
X51926000Y100428000D03*
D13*
X51926000Y99475500D03*
D14*
X51926000Y99793000D03*
D13*
X51926000Y97570500D03*
D14*
X51926000Y97253000D03*
D12*
X51926000Y96618000D03*
G04 #@! TD*
D14*
G04 #@! TO.C,JP16*
X85176000Y99793000D03*
D12*
X85176000Y100428000D03*
D13*
X85176000Y99475500D03*
X85176000Y97570500D03*
D12*
X85176000Y96618000D03*
D14*
X85176000Y97253000D03*
G04 #@! TD*
G04 #@! TO.C,JP17*
X87926000Y99793000D03*
D13*
X87926000Y99475500D03*
D12*
X87926000Y100428000D03*
D13*
X87926000Y97570500D03*
D14*
X87926000Y97253000D03*
D12*
X87926000Y96618000D03*
G04 #@! TD*
D14*
G04 #@! TO.C,JP20*
X94926000Y92293000D03*
D13*
X94926000Y91975500D03*
D12*
X94926000Y92928000D03*
D13*
X94926000Y90070500D03*
D14*
X94926000Y89753000D03*
D12*
X94926000Y89118000D03*
G04 #@! TD*
D14*
G04 #@! TO.C,JP21*
X98176000Y92293000D03*
D13*
X98176000Y91975500D03*
D12*
X98176000Y92928000D03*
X98176000Y89118000D03*
D14*
X98176000Y89753000D03*
D13*
X98176000Y90070500D03*
G04 #@! TD*
D12*
G04 #@! TO.C,JP22*
X110926000Y92928000D03*
D13*
X110926000Y91975500D03*
D14*
X110926000Y92293000D03*
D12*
X110926000Y89118000D03*
D13*
X110926000Y90070500D03*
D14*
X110926000Y89753000D03*
G04 #@! TD*
D13*
G04 #@! TO.C,JP23*
X116426000Y91975500D03*
D14*
X116426000Y92293000D03*
D12*
X116426000Y92928000D03*
X116426000Y89118000D03*
D14*
X116426000Y89753000D03*
D13*
X116426000Y90070500D03*
G04 #@! TD*
G04 #@! TO.C,JP24*
X121926000Y91975500D03*
D14*
X121926000Y92293000D03*
D12*
X121926000Y92928000D03*
X121926000Y89118000D03*
D13*
X121926000Y90070500D03*
D14*
X121926000Y89753000D03*
G04 #@! TD*
G04 #@! TO.C,JP25*
X125676000Y99793000D03*
D13*
X125676000Y99475500D03*
D12*
X125676000Y100428000D03*
X125676000Y96618000D03*
D13*
X125676000Y97570500D03*
D14*
X125676000Y97253000D03*
G04 #@! TD*
D12*
G04 #@! TO.C,JP26*
X129926000Y100428000D03*
D14*
X129926000Y99793000D03*
D13*
X129926000Y99475500D03*
D14*
X129926000Y97253000D03*
D12*
X129926000Y96618000D03*
D13*
X129926000Y97570500D03*
G04 #@! TD*
D12*
G04 #@! TO.C,JP27*
X135926000Y100428000D03*
D13*
X135926000Y99475500D03*
D14*
X135926000Y99793000D03*
D13*
X135926000Y97570500D03*
D12*
X135926000Y96618000D03*
D14*
X135926000Y97253000D03*
G04 #@! TD*
D13*
G04 #@! TO.C,JP29*
X23676000Y99475500D03*
D12*
X23676000Y100428000D03*
D14*
X23676000Y99793000D03*
D12*
X23676000Y96618000D03*
D14*
X23676000Y97253000D03*
D13*
X23676000Y97570500D03*
G04 #@! TD*
G04 #@! TO.C,JP31*
X32926000Y99475500D03*
D12*
X32926000Y100428000D03*
D14*
X32926000Y99793000D03*
D12*
X32926000Y96618000D03*
D13*
X32926000Y97570500D03*
D14*
X32926000Y97253000D03*
G04 #@! TD*
D13*
G04 #@! TO.C,JP32*
X41176000Y99475500D03*
D12*
X41176000Y100428000D03*
D14*
X41176000Y99793000D03*
D12*
X41176000Y96618000D03*
D13*
X41176000Y97570500D03*
D14*
X41176000Y97253000D03*
G04 #@! TD*
D13*
G04 #@! TO.C,JP33*
X47926000Y99475500D03*
D14*
X47926000Y99793000D03*
D12*
X47926000Y100428000D03*
D14*
X47926000Y97253000D03*
D13*
X47926000Y97570500D03*
D12*
X47926000Y96618000D03*
G04 #@! TD*
G04 #@! TO.C,JP35*
X57176000Y100428000D03*
D14*
X57176000Y99793000D03*
D13*
X57176000Y99475500D03*
D14*
X57176000Y97253000D03*
D13*
X57176000Y97570500D03*
D12*
X57176000Y96618000D03*
G04 #@! TD*
D13*
G04 #@! TO.C,JP41*
X77926000Y91975500D03*
D14*
X77926000Y92293000D03*
D12*
X77926000Y92928000D03*
D13*
X77926000Y90070500D03*
D12*
X77926000Y89118000D03*
D14*
X77926000Y89753000D03*
G04 #@! TD*
D13*
G04 #@! TO.C,JP42*
X80426000Y91975500D03*
D14*
X80426000Y92293000D03*
D12*
X80426000Y92928000D03*
D13*
X80426000Y90070500D03*
D14*
X80426000Y89753000D03*
D12*
X80426000Y89118000D03*
G04 #@! TD*
G04 #@! TO.C,JP43*
X82426000Y100428000D03*
D14*
X82426000Y99793000D03*
D13*
X82426000Y99475500D03*
D12*
X82426000Y96618000D03*
D14*
X82426000Y97253000D03*
D13*
X82426000Y97570500D03*
G04 #@! TD*
G04 #@! TO.C,JP46*
X89426000Y91975500D03*
D12*
X89426000Y92928000D03*
D14*
X89426000Y92293000D03*
D12*
X89426000Y89118000D03*
D14*
X89426000Y89753000D03*
D13*
X89426000Y90070500D03*
G04 #@! TD*
D14*
G04 #@! TO.C,JP47*
X92176000Y92293000D03*
D13*
X92176000Y91975500D03*
D12*
X92176000Y92928000D03*
D13*
X92176000Y90070500D03*
D14*
X92176000Y89753000D03*
D12*
X92176000Y89118000D03*
G04 #@! TD*
G04 #@! TO.C,JP50*
X113676000Y92928000D03*
D14*
X113676000Y92293000D03*
D13*
X113676000Y91975500D03*
D12*
X113676000Y89118000D03*
D13*
X113676000Y90070500D03*
D14*
X113676000Y89753000D03*
G04 #@! TD*
D13*
G04 #@! TO.C,JP51*
X119176000Y91975500D03*
D12*
X119176000Y92928000D03*
D14*
X119176000Y92293000D03*
D12*
X119176000Y89118000D03*
D14*
X119176000Y89753000D03*
D13*
X119176000Y90070500D03*
G04 #@! TD*
G04 #@! TO.C,JP52*
X124676000Y91975500D03*
D14*
X124676000Y92293000D03*
D12*
X124676000Y92928000D03*
D14*
X124676000Y89753000D03*
D13*
X124676000Y90070500D03*
D12*
X124676000Y89118000D03*
G04 #@! TD*
D14*
G04 #@! TO.C,JP54*
X132676000Y99793000D03*
D13*
X132676000Y99475500D03*
D12*
X132676000Y100428000D03*
X132676000Y96618000D03*
D14*
X132676000Y97253000D03*
D13*
X132676000Y97570500D03*
G04 #@! TD*
G04 #@! TO.C,JP56*
X27426000Y99475500D03*
D12*
X27426000Y100428000D03*
D14*
X27426000Y99793000D03*
D13*
X27426000Y97570500D03*
D14*
X27426000Y97253000D03*
D12*
X27426000Y96618000D03*
G04 #@! TD*
D14*
G04 #@! TO.C,JP73*
X83926000Y92293000D03*
D12*
X83926000Y92928000D03*
D13*
X83926000Y91975500D03*
D14*
X83926000Y89753000D03*
D12*
X83926000Y89118000D03*
D13*
X83926000Y90070500D03*
G04 #@! TD*
D12*
G04 #@! TO.C,JP77*
X94926000Y100428000D03*
D14*
X94926000Y99793000D03*
D13*
X94926000Y99475500D03*
X94926000Y97570500D03*
D12*
X94926000Y96618000D03*
D14*
X94926000Y97253000D03*
G04 #@! TD*
D12*
G04 #@! TO.C,JP78*
X100926000Y100428000D03*
D13*
X100926000Y99475500D03*
D14*
X100926000Y99793000D03*
D12*
X100926000Y96618000D03*
D13*
X100926000Y97570500D03*
D14*
X100926000Y97253000D03*
G04 #@! TD*
D13*
G04 #@! TO.C,JP85*
X130176000Y91975500D03*
D14*
X130176000Y92293000D03*
D12*
X130176000Y92928000D03*
D13*
X130176000Y90070500D03*
D12*
X130176000Y89118000D03*
D14*
X130176000Y89753000D03*
G04 #@! TD*
G04 #@! TO.C,JP86*
X127426000Y92293000D03*
D13*
X127426000Y91975500D03*
D12*
X127426000Y92928000D03*
D13*
X127426000Y90070500D03*
D14*
X127426000Y89753000D03*
D12*
X127426000Y89118000D03*
G04 #@! TD*
D14*
G04 #@! TO.C,JP59*
X38426000Y99793000D03*
D12*
X38426000Y100428000D03*
D13*
X38426000Y99475500D03*
D14*
X38426000Y97253000D03*
D12*
X38426000Y96618000D03*
D13*
X38426000Y97570500D03*
G04 #@! TD*
D14*
G04 #@! TO.C,JP49*
X108176000Y92293000D03*
D13*
X108176000Y91975500D03*
D12*
X108176000Y92928000D03*
D13*
X108176000Y90070500D03*
D12*
X108176000Y89118000D03*
D14*
X108176000Y89753000D03*
G04 #@! TD*
D15*
G04 #@! TO.C,Q1*
X139726000Y32303000D03*
D16*
X146026000Y30023000D03*
D15*
X139726000Y27743000D03*
G04 #@! TD*
G04 #@! TO.C,Q6*
X139726000Y92303000D03*
D16*
X146026000Y90023000D03*
D15*
X139726000Y87743000D03*
G04 #@! TD*
G04 #@! TO.C,Q2*
X139726000Y42303000D03*
D16*
X146026000Y40023000D03*
D15*
X139726000Y37743000D03*
G04 #@! TD*
G04 #@! TO.C,Q5*
X139726000Y82303000D03*
D16*
X146026000Y80023000D03*
D15*
X139726000Y77743000D03*
G04 #@! TD*
G04 #@! TO.C,Q3*
X139726000Y62803000D03*
D16*
X146026000Y60523000D03*
D15*
X139726000Y58243000D03*
G04 #@! TD*
G04 #@! TO.C,Q4*
X139726000Y72803000D03*
D16*
X146026000Y70523000D03*
D15*
X139726000Y68243000D03*
G04 #@! TD*
G04 #@! TO.C,C1*
G36*
G01*
X42756000Y26033000D02*
X43096000Y26033000D01*
G75*
G02*
X43236000Y25893000I0J-140000D01*
G01*
X43236000Y25613000D01*
G75*
G02*
X43096000Y25473000I-140000J0D01*
G01*
X42756000Y25473000D01*
G75*
G02*
X42616000Y25613000I0J140000D01*
G01*
X42616000Y25893000D01*
G75*
G02*
X42756000Y26033000I140000J0D01*
G01*
G37*
G36*
G01*
X42756000Y25073000D02*
X43096000Y25073000D01*
G75*
G02*
X43236000Y24933000I0J-140000D01*
G01*
X43236000Y24653000D01*
G75*
G02*
X43096000Y24513000I-140000J0D01*
G01*
X42756000Y24513000D01*
G75*
G02*
X42616000Y24653000I0J140000D01*
G01*
X42616000Y24933000D01*
G75*
G02*
X42756000Y25073000I140000J0D01*
G01*
G37*
G04 #@! TD*
G04 #@! TO.C,C2*
G36*
G01*
X43096000Y26513000D02*
X42756000Y26513000D01*
G75*
G02*
X42616000Y26653000I0J140000D01*
G01*
X42616000Y26933000D01*
G75*
G02*
X42756000Y27073000I140000J0D01*
G01*
X43096000Y27073000D01*
G75*
G02*
X43236000Y26933000I0J-140000D01*
G01*
X43236000Y26653000D01*
G75*
G02*
X43096000Y26513000I-140000J0D01*
G01*
G37*
G36*
G01*
X43096000Y27473000D02*
X42756000Y27473000D01*
G75*
G02*
X42616000Y27613000I0J140000D01*
G01*
X42616000Y27893000D01*
G75*
G02*
X42756000Y28033000I140000J0D01*
G01*
X43096000Y28033000D01*
G75*
G02*
X43236000Y27893000I0J-140000D01*
G01*
X43236000Y27613000D01*
G75*
G02*
X43096000Y27473000I-140000J0D01*
G01*
G37*
G04 #@! TD*
D17*
G04 #@! TO.C,J4*
X15276000Y73648000D03*
D18*
X15276000Y71108000D03*
X15276000Y68568000D03*
X15276000Y66028000D03*
X15276000Y63488000D03*
G04 #@! TD*
D17*
G04 #@! TO.C,J5*
X1516000Y91433000D03*
D18*
X1516000Y88893000D03*
X1516000Y86353000D03*
X1516000Y83813000D03*
X1516000Y81273000D03*
X1516000Y78733000D03*
X1516000Y76193000D03*
X1516000Y73653000D03*
X1516000Y71113000D03*
X1516000Y68573000D03*
X1516000Y66033000D03*
X1516000Y63493000D03*
G04 #@! TD*
D17*
G04 #@! TO.C,J6*
X3976001Y91433000D03*
D18*
X3976001Y88893000D03*
X3976001Y86353000D03*
X3976001Y83813000D03*
X3976001Y81273000D03*
X3976001Y78733000D03*
X3976001Y76193000D03*
X3976001Y73653000D03*
X3976001Y71113000D03*
X3976001Y68573000D03*
X3976001Y66033000D03*
X3976001Y63493000D03*
G04 #@! TD*
D17*
G04 #@! TO.C,J7*
X6596000Y91433000D03*
D18*
X6596000Y88893000D03*
X6596000Y86353000D03*
X6596000Y83813000D03*
X6596000Y81273000D03*
X6596000Y78733000D03*
X6596000Y76193000D03*
X6596000Y73653000D03*
X6596000Y71113000D03*
X6596000Y68573000D03*
X6596000Y66033000D03*
X6596000Y63493000D03*
G04 #@! TD*
D17*
G04 #@! TO.C,J8*
X9136000Y91433000D03*
D18*
X9136000Y88893000D03*
X9136000Y86353000D03*
X9136000Y83813000D03*
X9136000Y81273000D03*
X9136000Y78733000D03*
X9136000Y76193000D03*
X9136000Y73653000D03*
X9136000Y71113000D03*
X9136000Y68573000D03*
X9136000Y66033000D03*
X9136000Y63493000D03*
G04 #@! TD*
D17*
G04 #@! TO.C,J9*
X11676000Y91433000D03*
D18*
X11676000Y88893000D03*
X11676000Y86353000D03*
X11676000Y83813000D03*
X11676000Y81273000D03*
X11676000Y78733000D03*
X11676000Y76193000D03*
X11676000Y73653000D03*
X11676000Y71113000D03*
X11676000Y68573000D03*
X11676000Y66033000D03*
X11676000Y63493000D03*
G04 #@! TD*
D19*
G04 #@! TO.C,U1*
X44771000Y21003000D03*
X46041000Y21003000D03*
X47311000Y21003000D03*
X48581000Y21003000D03*
X48581000Y29543000D03*
X47311000Y29543000D03*
X46041000Y29543000D03*
X44771000Y29543000D03*
G04 #@! TD*
D20*
G04 #@! TO.C,H1*
X130622000Y5663000D03*
G04 #@! TD*
G04 #@! TO.C,H2*
X7432000Y5663000D03*
G04 #@! TD*
G04 #@! TO.C,R1*
G36*
G01*
X16396000Y86088000D02*
X16396000Y86458000D01*
G75*
G02*
X16531000Y86593000I135000J0D01*
G01*
X16801000Y86593000D01*
G75*
G02*
X16936000Y86458000I0J-135000D01*
G01*
X16936000Y86088000D01*
G75*
G02*
X16801000Y85953000I-135000J0D01*
G01*
X16531000Y85953000D01*
G75*
G02*
X16396000Y86088000I0J135000D01*
G01*
G37*
G36*
G01*
X17416000Y86088000D02*
X17416000Y86458000D01*
G75*
G02*
X17551000Y86593000I135000J0D01*
G01*
X17821000Y86593000D01*
G75*
G02*
X17956000Y86458000I0J-135000D01*
G01*
X17956000Y86088000D01*
G75*
G02*
X17821000Y85953000I-135000J0D01*
G01*
X17551000Y85953000D01*
G75*
G02*
X17416000Y86088000I0J135000D01*
G01*
G37*
G04 #@! TD*
D21*
G04 #@! TO.C,D14*
X64776000Y70823000D03*
X66876000Y70823000D03*
G04 #@! TD*
G04 #@! TO.C,R10*
G36*
G01*
X137601000Y17448000D02*
X134751000Y17448000D01*
G75*
G02*
X134501000Y17698000I0J250000D01*
G01*
X134501000Y18423000D01*
G75*
G02*
X134751000Y18673000I250000J0D01*
G01*
X137601000Y18673000D01*
G75*
G02*
X137851000Y18423000I0J-250000D01*
G01*
X137851000Y17698000D01*
G75*
G02*
X137601000Y17448000I-250000J0D01*
G01*
G37*
G36*
G01*
X137601000Y23373000D02*
X134751000Y23373000D01*
G75*
G02*
X134501000Y23623000I0J250000D01*
G01*
X134501000Y24348000D01*
G75*
G02*
X134751000Y24598000I250000J0D01*
G01*
X137601000Y24598000D01*
G75*
G02*
X137851000Y24348000I0J-250000D01*
G01*
X137851000Y23623000D01*
G75*
G02*
X137601000Y23373000I-250000J0D01*
G01*
G37*
G04 #@! TD*
D22*
G04 #@! TO.C,VOUT18*
X52176000Y91474215D03*
G04 #@! TD*
G04 #@! TO.C,D23*
G36*
G01*
X122988500Y65866750D02*
X122988500Y66379250D01*
G75*
G02*
X123207250Y66598000I218750J0D01*
G01*
X123644750Y66598000D01*
G75*
G02*
X123863500Y66379250I0J-218750D01*
G01*
X123863500Y65866750D01*
G75*
G02*
X123644750Y65648000I-218750J0D01*
G01*
X123207250Y65648000D01*
G75*
G02*
X122988500Y65866750I0J218750D01*
G01*
G37*
G36*
G01*
X124563500Y65866750D02*
X124563500Y66379250D01*
G75*
G02*
X124782250Y66598000I218750J0D01*
G01*
X125219750Y66598000D01*
G75*
G02*
X125438500Y66379250I0J-218750D01*
G01*
X125438500Y65866750D01*
G75*
G02*
X125219750Y65648000I-218750J0D01*
G01*
X124782250Y65648000D01*
G75*
G02*
X124563500Y65866750I0J218750D01*
G01*
G37*
G04 #@! TD*
G04 #@! TO.C,VOUT27*
X66426000Y42773000D03*
G04 #@! TD*
G04 #@! TO.C,VIN16*
X84176000Y76773000D03*
G04 #@! TD*
G04 #@! TO.C,D25*
G36*
G01*
X66176000Y65316750D02*
X66176000Y65829250D01*
G75*
G02*
X66394750Y66048000I218750J0D01*
G01*
X66832250Y66048000D01*
G75*
G02*
X67051000Y65829250I0J-218750D01*
G01*
X67051000Y65316750D01*
G75*
G02*
X66832250Y65098000I-218750J0D01*
G01*
X66394750Y65098000D01*
G75*
G02*
X66176000Y65316750I0J218750D01*
G01*
G37*
G36*
G01*
X64601000Y65316750D02*
X64601000Y65829250D01*
G75*
G02*
X64819750Y66048000I218750J0D01*
G01*
X65257250Y66048000D01*
G75*
G02*
X65476000Y65829250I0J-218750D01*
G01*
X65476000Y65316750D01*
G75*
G02*
X65257250Y65098000I-218750J0D01*
G01*
X64819750Y65098000D01*
G75*
G02*
X64601000Y65316750I0J218750D01*
G01*
G37*
G04 #@! TD*
D23*
G04 #@! TO.C,D10*
X20026000Y76773000D03*
X23326000Y76773000D03*
G04 #@! TD*
D24*
G04 #@! TO.C,TP4*
X128926000Y12023000D03*
G04 #@! TD*
D22*
G04 #@! TO.C,VOUT1*
X60426000Y77523000D03*
G04 #@! TD*
G04 #@! TO.C,D27*
G36*
G01*
X78926000Y69329250D02*
X78926000Y68816750D01*
G75*
G02*
X78707250Y68598000I-218750J0D01*
G01*
X78269750Y68598000D01*
G75*
G02*
X78051000Y68816750I0J218750D01*
G01*
X78051000Y69329250D01*
G75*
G02*
X78269750Y69548000I218750J0D01*
G01*
X78707250Y69548000D01*
G75*
G02*
X78926000Y69329250I0J-218750D01*
G01*
G37*
G36*
G01*
X80501000Y69329250D02*
X80501000Y68816750D01*
G75*
G02*
X80282250Y68598000I-218750J0D01*
G01*
X79844750Y68598000D01*
G75*
G02*
X79626000Y68816750I0J218750D01*
G01*
X79626000Y69329250D01*
G75*
G02*
X79844750Y69548000I218750J0D01*
G01*
X80282250Y69548000D01*
G75*
G02*
X80501000Y69329250I0J-218750D01*
G01*
G37*
G04 #@! TD*
G04 #@! TO.C,MMCU14*
X67926000Y36773000D03*
G04 #@! TD*
G04 #@! TO.C,R6*
G36*
G01*
X99291000Y82403000D02*
X99661000Y82403000D01*
G75*
G02*
X99796000Y82268000I0J-135000D01*
G01*
X99796000Y81998000D01*
G75*
G02*
X99661000Y81863000I-135000J0D01*
G01*
X99291000Y81863000D01*
G75*
G02*
X99156000Y81998000I0J135000D01*
G01*
X99156000Y82268000D01*
G75*
G02*
X99291000Y82403000I135000J0D01*
G01*
G37*
G36*
G01*
X99291000Y81383000D02*
X99661000Y81383000D01*
G75*
G02*
X99796000Y81248000I0J-135000D01*
G01*
X99796000Y80978000D01*
G75*
G02*
X99661000Y80843000I-135000J0D01*
G01*
X99291000Y80843000D01*
G75*
G02*
X99156000Y80978000I0J135000D01*
G01*
X99156000Y81248000D01*
G75*
G02*
X99291000Y81383000I135000J0D01*
G01*
G37*
G04 #@! TD*
G04 #@! TO.C,MMCU4*
X123926000Y15773000D03*
G04 #@! TD*
G04 #@! TO.C,MMCU31*
X63226000Y16573000D03*
G04 #@! TD*
G04 #@! TO.C,C13*
G36*
G01*
X61231000Y20528000D02*
X61731000Y20528000D01*
G75*
G02*
X61956000Y20303000I0J-225000D01*
G01*
X61956000Y19853000D01*
G75*
G02*
X61731000Y19628000I-225000J0D01*
G01*
X61231000Y19628000D01*
G75*
G02*
X61006000Y19853000I0J225000D01*
G01*
X61006000Y20303000D01*
G75*
G02*
X61231000Y20528000I225000J0D01*
G01*
G37*
G36*
G01*
X61231000Y18978000D02*
X61731000Y18978000D01*
G75*
G02*
X61956000Y18753000I0J-225000D01*
G01*
X61956000Y18303000D01*
G75*
G02*
X61731000Y18078000I-225000J0D01*
G01*
X61231000Y18078000D01*
G75*
G02*
X61006000Y18303000I0J225000D01*
G01*
X61006000Y18753000D01*
G75*
G02*
X61231000Y18978000I225000J0D01*
G01*
G37*
G04 #@! TD*
G04 #@! TO.C,cr8*
X15926000Y100523000D03*
G04 #@! TD*
G04 #@! TO.C,D29*
G36*
G01*
X66176000Y61816750D02*
X66176000Y62329250D01*
G75*
G02*
X66394750Y62548000I218750J0D01*
G01*
X66832250Y62548000D01*
G75*
G02*
X67051000Y62329250I0J-218750D01*
G01*
X67051000Y61816750D01*
G75*
G02*
X66832250Y61598000I-218750J0D01*
G01*
X66394750Y61598000D01*
G75*
G02*
X66176000Y61816750I0J218750D01*
G01*
G37*
G36*
G01*
X64601000Y61816750D02*
X64601000Y62329250D01*
G75*
G02*
X64819750Y62548000I218750J0D01*
G01*
X65257250Y62548000D01*
G75*
G02*
X65476000Y62329250I0J-218750D01*
G01*
X65476000Y61816750D01*
G75*
G02*
X65257250Y61598000I-218750J0D01*
G01*
X64819750Y61598000D01*
G75*
G02*
X64601000Y61816750I0J218750D01*
G01*
G37*
G04 #@! TD*
D25*
G04 #@! TO.C,SW2*
X95926000Y11273000D03*
D26*
X95926000Y12973000D03*
X95926000Y9573000D03*
G04 #@! TD*
D21*
G04 #@! TO.C,D1*
X16876000Y88023000D03*
X18976000Y88023000D03*
G04 #@! TD*
D22*
G04 #@! TO.C,MMCU28*
X71226000Y16573000D03*
G04 #@! TD*
G04 #@! TO.C,VOUT10*
X62676000Y51023000D03*
G04 #@! TD*
G04 #@! TO.C,cr1*
X70426000Y100523000D03*
G04 #@! TD*
G04 #@! TO.C,R33*
G36*
G01*
X42896000Y39088000D02*
X42896000Y39458000D01*
G75*
G02*
X43031000Y39593000I135000J0D01*
G01*
X43301000Y39593000D01*
G75*
G02*
X43436000Y39458000I0J-135000D01*
G01*
X43436000Y39088000D01*
G75*
G02*
X43301000Y38953000I-135000J0D01*
G01*
X43031000Y38953000D01*
G75*
G02*
X42896000Y39088000I0J135000D01*
G01*
G37*
G36*
G01*
X43916000Y39088000D02*
X43916000Y39458000D01*
G75*
G02*
X44051000Y39593000I135000J0D01*
G01*
X44321000Y39593000D01*
G75*
G02*
X44456000Y39458000I0J-135000D01*
G01*
X44456000Y39088000D01*
G75*
G02*
X44321000Y38953000I-135000J0D01*
G01*
X44051000Y38953000D01*
G75*
G02*
X43916000Y39088000I0J135000D01*
G01*
G37*
G04 #@! TD*
G04 #@! TO.C,MMCU30*
X67226000Y16573000D03*
G04 #@! TD*
D27*
G04 #@! TO.C,RN7*
X69976000Y66873000D03*
X69976000Y67673000D03*
X69976000Y68473000D03*
X69976000Y69273000D03*
X71676000Y69273000D03*
X71676000Y68473000D03*
X71676000Y67673000D03*
X71676000Y66873000D03*
G04 #@! TD*
D28*
G04 #@! TO.C,U6*
X64891000Y35873000D03*
X63621000Y35873000D03*
X62351000Y35873000D03*
X61081000Y35873000D03*
X59811000Y35873000D03*
X58541000Y35873000D03*
X57271000Y35873000D03*
X56001000Y35873000D03*
X54731000Y35873000D03*
X53461000Y35873000D03*
X53461000Y22673000D03*
X54731000Y22673000D03*
X56001000Y22673000D03*
X57271000Y22673000D03*
X58541000Y22673000D03*
X59811000Y22673000D03*
X61081000Y22673000D03*
X62351000Y22673000D03*
X63621000Y22673000D03*
X64891000Y22673000D03*
D29*
X66288000Y29273000D03*
D30*
X59176000Y29273000D03*
D29*
X52064000Y29273000D03*
G04 #@! TD*
D15*
G04 #@! TO.C,Q7*
X139726000Y22803000D03*
D16*
X146026000Y20523000D03*
D15*
X139726000Y18243000D03*
G04 #@! TD*
D22*
G04 #@! TO.C,MMCU18*
X69226000Y16573000D03*
G04 #@! TD*
G04 #@! TO.C,VIN4*
X106976000Y82723000D03*
G04 #@! TD*
G04 #@! TO.C,cr11*
X67176000Y100523000D03*
G04 #@! TD*
D31*
G04 #@! TO.C,P3*
X23090213Y11023000D03*
G04 #@! TD*
D22*
G04 #@! TO.C,MMCU9*
X77326000Y16473000D03*
G04 #@! TD*
G04 #@! TO.C,D28*
G36*
G01*
X66176000Y68816750D02*
X66176000Y69329250D01*
G75*
G02*
X66394750Y69548000I218750J0D01*
G01*
X66832250Y69548000D01*
G75*
G02*
X67051000Y69329250I0J-218750D01*
G01*
X67051000Y68816750D01*
G75*
G02*
X66832250Y68598000I-218750J0D01*
G01*
X66394750Y68598000D01*
G75*
G02*
X66176000Y68816750I0J218750D01*
G01*
G37*
G36*
G01*
X64601000Y68816750D02*
X64601000Y69329250D01*
G75*
G02*
X64819750Y69548000I218750J0D01*
G01*
X65257250Y69548000D01*
G75*
G02*
X65476000Y69329250I0J-218750D01*
G01*
X65476000Y68816750D01*
G75*
G02*
X65257250Y68598000I-218750J0D01*
G01*
X64819750Y68598000D01*
G75*
G02*
X64601000Y68816750I0J218750D01*
G01*
G37*
G04 #@! TD*
G04 #@! TO.C,R9*
G36*
G01*
X137601000Y57448000D02*
X134751000Y57448000D01*
G75*
G02*
X134501000Y57698000I0J250000D01*
G01*
X134501000Y58423000D01*
G75*
G02*
X134751000Y58673000I250000J0D01*
G01*
X137601000Y58673000D01*
G75*
G02*
X137851000Y58423000I0J-250000D01*
G01*
X137851000Y57698000D01*
G75*
G02*
X137601000Y57448000I-250000J0D01*
G01*
G37*
G36*
G01*
X137601000Y63373000D02*
X134751000Y63373000D01*
G75*
G02*
X134501000Y63623000I0J250000D01*
G01*
X134501000Y64348000D01*
G75*
G02*
X134751000Y64598000I250000J0D01*
G01*
X137601000Y64598000D01*
G75*
G02*
X137851000Y64348000I0J-250000D01*
G01*
X137851000Y63623000D01*
G75*
G02*
X137601000Y63373000I-250000J0D01*
G01*
G37*
G04 #@! TD*
G04 #@! TO.C,D11*
G36*
G01*
X68763500Y57466750D02*
X68763500Y57979250D01*
G75*
G02*
X68982250Y58198000I218750J0D01*
G01*
X69419750Y58198000D01*
G75*
G02*
X69638500Y57979250I0J-218750D01*
G01*
X69638500Y57466750D01*
G75*
G02*
X69419750Y57248000I-218750J0D01*
G01*
X68982250Y57248000D01*
G75*
G02*
X68763500Y57466750I0J218750D01*
G01*
G37*
G36*
G01*
X67188500Y57466750D02*
X67188500Y57979250D01*
G75*
G02*
X67407250Y58198000I218750J0D01*
G01*
X67844750Y58198000D01*
G75*
G02*
X68063500Y57979250I0J-218750D01*
G01*
X68063500Y57466750D01*
G75*
G02*
X67844750Y57248000I-218750J0D01*
G01*
X67407250Y57248000D01*
G75*
G02*
X67188500Y57466750I0J218750D01*
G01*
G37*
G04 #@! TD*
G04 #@! TO.C,VOUT5*
X48676000Y89474215D03*
G04 #@! TD*
G04 #@! TO.C,VIN19*
X107926000Y84773000D03*
G04 #@! TD*
G04 #@! TO.C,C21*
G36*
G01*
X56926000Y39298000D02*
X56426000Y39298000D01*
G75*
G02*
X56201000Y39523000I0J225000D01*
G01*
X56201000Y39973000D01*
G75*
G02*
X56426000Y40198000I225000J0D01*
G01*
X56926000Y40198000D01*
G75*
G02*
X57151000Y39973000I0J-225000D01*
G01*
X57151000Y39523000D01*
G75*
G02*
X56926000Y39298000I-225000J0D01*
G01*
G37*
G36*
G01*
X56926000Y40848000D02*
X56426000Y40848000D01*
G75*
G02*
X56201000Y41073000I0J225000D01*
G01*
X56201000Y41523000D01*
G75*
G02*
X56426000Y41748000I225000J0D01*
G01*
X56926000Y41748000D01*
G75*
G02*
X57151000Y41523000I0J-225000D01*
G01*
X57151000Y41073000D01*
G75*
G02*
X56926000Y40848000I-225000J0D01*
G01*
G37*
G04 #@! TD*
G04 #@! TO.C,R31*
G36*
G01*
X42896000Y41088000D02*
X42896000Y41458000D01*
G75*
G02*
X43031000Y41593000I135000J0D01*
G01*
X43301000Y41593000D01*
G75*
G02*
X43436000Y41458000I0J-135000D01*
G01*
X43436000Y41088000D01*
G75*
G02*
X43301000Y40953000I-135000J0D01*
G01*
X43031000Y40953000D01*
G75*
G02*
X42896000Y41088000I0J135000D01*
G01*
G37*
G36*
G01*
X43916000Y41088000D02*
X43916000Y41458000D01*
G75*
G02*
X44051000Y41593000I135000J0D01*
G01*
X44321000Y41593000D01*
G75*
G02*
X44456000Y41458000I0J-135000D01*
G01*
X44456000Y41088000D01*
G75*
G02*
X44321000Y40953000I-135000J0D01*
G01*
X44051000Y40953000D01*
G75*
G02*
X43916000Y41088000I0J135000D01*
G01*
G37*
G04 #@! TD*
G04 #@! TO.C,D22*
G36*
G01*
X122988500Y62366750D02*
X122988500Y62879250D01*
G75*
G02*
X123207250Y63098000I218750J0D01*
G01*
X123644750Y63098000D01*
G75*
G02*
X123863500Y62879250I0J-218750D01*
G01*
X123863500Y62366750D01*
G75*
G02*
X123644750Y62148000I-218750J0D01*
G01*
X123207250Y62148000D01*
G75*
G02*
X122988500Y62366750I0J218750D01*
G01*
G37*
G36*
G01*
X124563500Y62366750D02*
X124563500Y62879250D01*
G75*
G02*
X124782250Y63098000I218750J0D01*
G01*
X125219750Y63098000D01*
G75*
G02*
X125438500Y62879250I0J-218750D01*
G01*
X125438500Y62366750D01*
G75*
G02*
X125219750Y62148000I-218750J0D01*
G01*
X124782250Y62148000D01*
G75*
G02*
X124563500Y62366750I0J218750D01*
G01*
G37*
G04 #@! TD*
G04 #@! TO.C,KNOCK_RAW2*
X74926000Y96523000D03*
G04 #@! TD*
G04 #@! TO.C,C17*
G36*
G01*
X60426000Y39298000D02*
X59926000Y39298000D01*
G75*
G02*
X59701000Y39523000I0J225000D01*
G01*
X59701000Y39973000D01*
G75*
G02*
X59926000Y40198000I225000J0D01*
G01*
X60426000Y40198000D01*
G75*
G02*
X60651000Y39973000I0J-225000D01*
G01*
X60651000Y39523000D01*
G75*
G02*
X60426000Y39298000I-225000J0D01*
G01*
G37*
G36*
G01*
X60426000Y40848000D02*
X59926000Y40848000D01*
G75*
G02*
X59701000Y41073000I0J225000D01*
G01*
X59701000Y41523000D01*
G75*
G02*
X59926000Y41748000I225000J0D01*
G01*
X60426000Y41748000D01*
G75*
G02*
X60651000Y41523000I0J-225000D01*
G01*
X60651000Y41073000D01*
G75*
G02*
X60426000Y40848000I-225000J0D01*
G01*
G37*
G04 #@! TD*
G04 #@! TO.C,MMCU2*
X127926000Y15773000D03*
G04 #@! TD*
G04 #@! TO.C,VIN18*
X93926000Y80523000D03*
G04 #@! TD*
G04 #@! TO.C,MMCU7*
X88926000Y10023000D03*
G04 #@! TD*
G04 #@! TO.C,C11*
G36*
G01*
X59231000Y20553000D02*
X59731000Y20553000D01*
G75*
G02*
X59956000Y20328000I0J-225000D01*
G01*
X59956000Y19878000D01*
G75*
G02*
X59731000Y19653000I-225000J0D01*
G01*
X59231000Y19653000D01*
G75*
G02*
X59006000Y19878000I0J225000D01*
G01*
X59006000Y20328000D01*
G75*
G02*
X59231000Y20553000I225000J0D01*
G01*
G37*
G36*
G01*
X59231000Y19003000D02*
X59731000Y19003000D01*
G75*
G02*
X59956000Y18778000I0J-225000D01*
G01*
X59956000Y18328000D01*
G75*
G02*
X59731000Y18103000I-225000J0D01*
G01*
X59231000Y18103000D01*
G75*
G02*
X59006000Y18328000I0J225000D01*
G01*
X59006000Y18778000D01*
G75*
G02*
X59231000Y19003000I225000J0D01*
G01*
G37*
G04 #@! TD*
D12*
G04 #@! TO.C,JP14*
X79676000Y100428000D03*
D14*
X79676000Y99793000D03*
D13*
X79676000Y99475500D03*
D14*
X79676000Y97253000D03*
D13*
X79676000Y97570500D03*
D12*
X79676000Y96618000D03*
G04 #@! TD*
G04 #@! TO.C,C15*
G36*
G01*
X53686000Y41693000D02*
X53686000Y41353000D01*
G75*
G02*
X53546000Y41213000I-140000J0D01*
G01*
X53266000Y41213000D01*
G75*
G02*
X53126000Y41353000I0J140000D01*
G01*
X53126000Y41693000D01*
G75*
G02*
X53266000Y41833000I140000J0D01*
G01*
X53546000Y41833000D01*
G75*
G02*
X53686000Y41693000I0J-140000D01*
G01*
G37*
G36*
G01*
X52726000Y41693000D02*
X52726000Y41353000D01*
G75*
G02*
X52586000Y41213000I-140000J0D01*
G01*
X52306000Y41213000D01*
G75*
G02*
X52166000Y41353000I0J140000D01*
G01*
X52166000Y41693000D01*
G75*
G02*
X52306000Y41833000I140000J0D01*
G01*
X52586000Y41833000D01*
G75*
G02*
X52726000Y41693000I0J-140000D01*
G01*
G37*
G04 #@! TD*
G04 #@! TO.C,R26*
G36*
G01*
X104706000Y95458000D02*
X104706000Y95088000D01*
G75*
G02*
X104571000Y94953000I-135000J0D01*
G01*
X104301000Y94953000D01*
G75*
G02*
X104166000Y95088000I0J135000D01*
G01*
X104166000Y95458000D01*
G75*
G02*
X104301000Y95593000I135000J0D01*
G01*
X104571000Y95593000D01*
G75*
G02*
X104706000Y95458000I0J-135000D01*
G01*
G37*
G36*
G01*
X103686000Y95458000D02*
X103686000Y95088000D01*
G75*
G02*
X103551000Y94953000I-135000J0D01*
G01*
X103281000Y94953000D01*
G75*
G02*
X103146000Y95088000I0J135000D01*
G01*
X103146000Y95458000D01*
G75*
G02*
X103281000Y95593000I135000J0D01*
G01*
X103551000Y95593000D01*
G75*
G02*
X103686000Y95458000I0J-135000D01*
G01*
G37*
G04 #@! TD*
G04 #@! TO.C,R14*
G36*
G01*
X134751000Y15098000D02*
X137601000Y15098000D01*
G75*
G02*
X137851000Y14848000I0J-250000D01*
G01*
X137851000Y14123000D01*
G75*
G02*
X137601000Y13873000I-250000J0D01*
G01*
X134751000Y13873000D01*
G75*
G02*
X134501000Y14123000I0J250000D01*
G01*
X134501000Y14848000D01*
G75*
G02*
X134751000Y15098000I250000J0D01*
G01*
G37*
G36*
G01*
X134751000Y9173000D02*
X137601000Y9173000D01*
G75*
G02*
X137851000Y8923000I0J-250000D01*
G01*
X137851000Y8198000D01*
G75*
G02*
X137601000Y7948000I-250000J0D01*
G01*
X134751000Y7948000D01*
G75*
G02*
X134501000Y8198000I0J250000D01*
G01*
X134501000Y8923000D01*
G75*
G02*
X134751000Y9173000I250000J0D01*
G01*
G37*
G04 #@! TD*
D32*
G04 #@! TO.C,TP3*
X35176000Y38523000D03*
G04 #@! TD*
D13*
G04 #@! TO.C,JP36*
X61176000Y99678000D03*
D12*
X61176000Y100630500D03*
D14*
X61176000Y99995500D03*
X61176000Y97455500D03*
D13*
X61176000Y97773000D03*
D12*
X61176000Y96820500D03*
G04 #@! TD*
G04 #@! TO.C,D16*
G36*
G01*
X122951000Y53516750D02*
X122951000Y54029250D01*
G75*
G02*
X123169750Y54248000I218750J0D01*
G01*
X123607250Y54248000D01*
G75*
G02*
X123826000Y54029250I0J-218750D01*
G01*
X123826000Y53516750D01*
G75*
G02*
X123607250Y53298000I-218750J0D01*
G01*
X123169750Y53298000D01*
G75*
G02*
X122951000Y53516750I0J218750D01*
G01*
G37*
G36*
G01*
X124526000Y53516750D02*
X124526000Y54029250D01*
G75*
G02*
X124744750Y54248000I218750J0D01*
G01*
X125182250Y54248000D01*
G75*
G02*
X125401000Y54029250I0J-218750D01*
G01*
X125401000Y53516750D01*
G75*
G02*
X125182250Y53298000I-218750J0D01*
G01*
X124744750Y53298000D01*
G75*
G02*
X124526000Y53516750I0J218750D01*
G01*
G37*
G04 #@! TD*
D33*
G04 #@! TO.C,J2*
X85676000Y9273000D03*
D34*
X83676000Y9273000D03*
X81676000Y9273000D03*
X79676000Y9273000D03*
X77676000Y9273000D03*
G04 #@! TD*
D22*
G04 #@! TO.C,MMCU10*
X76576000Y14173000D03*
G04 #@! TD*
G04 #@! TO.C,MMCU29*
X64976000Y49023000D03*
G04 #@! TD*
G04 #@! TO.C,R4*
G36*
G01*
X74646000Y88838000D02*
X74646000Y89208000D01*
G75*
G02*
X74781000Y89343000I135000J0D01*
G01*
X75051000Y89343000D01*
G75*
G02*
X75186000Y89208000I0J-135000D01*
G01*
X75186000Y88838000D01*
G75*
G02*
X75051000Y88703000I-135000J0D01*
G01*
X74781000Y88703000D01*
G75*
G02*
X74646000Y88838000I0J135000D01*
G01*
G37*
G36*
G01*
X75666000Y88838000D02*
X75666000Y89208000D01*
G75*
G02*
X75801000Y89343000I135000J0D01*
G01*
X76071000Y89343000D01*
G75*
G02*
X76206000Y89208000I0J-135000D01*
G01*
X76206000Y88838000D01*
G75*
G02*
X76071000Y88703000I-135000J0D01*
G01*
X75801000Y88703000D01*
G75*
G02*
X75666000Y88838000I0J135000D01*
G01*
G37*
G04 #@! TD*
G04 #@! TO.C,R7*
G36*
G01*
X137601000Y27198000D02*
X134751000Y27198000D01*
G75*
G02*
X134501000Y27448000I0J250000D01*
G01*
X134501000Y28173000D01*
G75*
G02*
X134751000Y28423000I250000J0D01*
G01*
X137601000Y28423000D01*
G75*
G02*
X137851000Y28173000I0J-250000D01*
G01*
X137851000Y27448000D01*
G75*
G02*
X137601000Y27198000I-250000J0D01*
G01*
G37*
G36*
G01*
X137601000Y33123000D02*
X134751000Y33123000D01*
G75*
G02*
X134501000Y33373000I0J250000D01*
G01*
X134501000Y34098000D01*
G75*
G02*
X134751000Y34348000I250000J0D01*
G01*
X137601000Y34348000D01*
G75*
G02*
X137851000Y34098000I0J-250000D01*
G01*
X137851000Y33373000D01*
G75*
G02*
X137601000Y33123000I-250000J0D01*
G01*
G37*
G04 #@! TD*
D27*
G04 #@! TO.C,RN5*
X119076000Y58473000D03*
X119076000Y57673000D03*
X119076000Y56873000D03*
X119076000Y56073000D03*
X120776000Y56073000D03*
X120776000Y56873000D03*
X120776000Y57673000D03*
X120776000Y58473000D03*
G04 #@! TD*
D22*
G04 #@! TO.C,MMCU15*
X65226000Y16573000D03*
G04 #@! TD*
G04 #@! TO.C,C19*
G36*
G01*
X58676000Y39298000D02*
X58176000Y39298000D01*
G75*
G02*
X57951000Y39523000I0J225000D01*
G01*
X57951000Y39973000D01*
G75*
G02*
X58176000Y40198000I225000J0D01*
G01*
X58676000Y40198000D01*
G75*
G02*
X58901000Y39973000I0J-225000D01*
G01*
X58901000Y39523000D01*
G75*
G02*
X58676000Y39298000I-225000J0D01*
G01*
G37*
G36*
G01*
X58676000Y40848000D02*
X58176000Y40848000D01*
G75*
G02*
X57951000Y41073000I0J225000D01*
G01*
X57951000Y41523000D01*
G75*
G02*
X58176000Y41748000I225000J0D01*
G01*
X58676000Y41748000D01*
G75*
G02*
X58901000Y41523000I0J-225000D01*
G01*
X58901000Y41073000D01*
G75*
G02*
X58676000Y40848000I-225000J0D01*
G01*
G37*
G04 #@! TD*
G04 #@! TO.C,R18*
G36*
G01*
X136646000Y44088000D02*
X136646000Y44458000D01*
G75*
G02*
X136781000Y44593000I135000J0D01*
G01*
X137051000Y44593000D01*
G75*
G02*
X137186000Y44458000I0J-135000D01*
G01*
X137186000Y44088000D01*
G75*
G02*
X137051000Y43953000I-135000J0D01*
G01*
X136781000Y43953000D01*
G75*
G02*
X136646000Y44088000I0J135000D01*
G01*
G37*
G36*
G01*
X137666000Y44088000D02*
X137666000Y44458000D01*
G75*
G02*
X137801000Y44593000I135000J0D01*
G01*
X138071000Y44593000D01*
G75*
G02*
X138206000Y44458000I0J-135000D01*
G01*
X138206000Y44088000D01*
G75*
G02*
X138071000Y43953000I-135000J0D01*
G01*
X137801000Y43953000D01*
G75*
G02*
X137666000Y44088000I0J135000D01*
G01*
G37*
G04 #@! TD*
G04 #@! TO.C,VOUT19*
X57176000Y89474215D03*
G04 #@! TD*
G04 #@! TO.C,R5*
G36*
G01*
X84906000Y94588000D02*
X84906000Y94958000D01*
G75*
G02*
X85041000Y95093000I135000J0D01*
G01*
X85311000Y95093000D01*
G75*
G02*
X85446000Y94958000I0J-135000D01*
G01*
X85446000Y94588000D01*
G75*
G02*
X85311000Y94453000I-135000J0D01*
G01*
X85041000Y94453000D01*
G75*
G02*
X84906000Y94588000I0J135000D01*
G01*
G37*
G36*
G01*
X85926000Y94588000D02*
X85926000Y94958000D01*
G75*
G02*
X86061000Y95093000I135000J0D01*
G01*
X86331000Y95093000D01*
G75*
G02*
X86466000Y94958000I0J-135000D01*
G01*
X86466000Y94588000D01*
G75*
G02*
X86331000Y94453000I-135000J0D01*
G01*
X86061000Y94453000D01*
G75*
G02*
X85926000Y94588000I0J135000D01*
G01*
G37*
G04 #@! TD*
G04 #@! TO.C,cr15*
X59176000Y100523000D03*
G04 #@! TD*
G04 #@! TO.C,MMCU8*
X79326000Y16473000D03*
G04 #@! TD*
G04 #@! TO.C,R27*
G36*
G01*
X101946000Y61708000D02*
X101946000Y61338000D01*
G75*
G02*
X101811000Y61203000I-135000J0D01*
G01*
X101541000Y61203000D01*
G75*
G02*
X101406000Y61338000I0J135000D01*
G01*
X101406000Y61708000D01*
G75*
G02*
X101541000Y61843000I135000J0D01*
G01*
X101811000Y61843000D01*
G75*
G02*
X101946000Y61708000I0J-135000D01*
G01*
G37*
G36*
G01*
X100926000Y61708000D02*
X100926000Y61338000D01*
G75*
G02*
X100791000Y61203000I-135000J0D01*
G01*
X100521000Y61203000D01*
G75*
G02*
X100386000Y61338000I0J135000D01*
G01*
X100386000Y61708000D01*
G75*
G02*
X100521000Y61843000I135000J0D01*
G01*
X100791000Y61843000D01*
G75*
G02*
X100926000Y61708000I0J-135000D01*
G01*
G37*
G04 #@! TD*
G04 #@! TO.C,cr20*
X115676000Y100523000D03*
G04 #@! TD*
G04 #@! TO.C,R12*
G36*
G01*
X134751000Y84098000D02*
X137601000Y84098000D01*
G75*
G02*
X137851000Y83848000I0J-250000D01*
G01*
X137851000Y83123000D01*
G75*
G02*
X137601000Y82873000I-250000J0D01*
G01*
X134751000Y82873000D01*
G75*
G02*
X134501000Y83123000I0J250000D01*
G01*
X134501000Y83848000D01*
G75*
G02*
X134751000Y84098000I250000J0D01*
G01*
G37*
G36*
G01*
X134751000Y78173000D02*
X137601000Y78173000D01*
G75*
G02*
X137851000Y77923000I0J-250000D01*
G01*
X137851000Y77198000D01*
G75*
G02*
X137601000Y76948000I-250000J0D01*
G01*
X134751000Y76948000D01*
G75*
G02*
X134501000Y77198000I0J250000D01*
G01*
X134501000Y77923000D01*
G75*
G02*
X134751000Y78173000I250000J0D01*
G01*
G37*
G04 #@! TD*
D27*
G04 #@! TO.C,RN6*
X119076000Y63323000D03*
X119076000Y62523000D03*
X119076000Y61723000D03*
X119076000Y60923000D03*
X120776000Y60923000D03*
X120776000Y61723000D03*
X120776000Y62523000D03*
X120776000Y63323000D03*
G04 #@! TD*
D22*
G04 #@! TO.C,MMCU16*
X86226000Y59523000D03*
G04 #@! TD*
G04 #@! TO.C,VIN10*
X89426000Y82523000D03*
G04 #@! TD*
G04 #@! TO.C,MMCU5*
X86126000Y17273000D03*
G04 #@! TD*
G04 #@! TO.C,C12*
G36*
G01*
X47436000Y37353000D02*
X47436000Y37693000D01*
G75*
G02*
X47576000Y37833000I140000J0D01*
G01*
X47856000Y37833000D01*
G75*
G02*
X47996000Y37693000I0J-140000D01*
G01*
X47996000Y37353000D01*
G75*
G02*
X47856000Y37213000I-140000J0D01*
G01*
X47576000Y37213000D01*
G75*
G02*
X47436000Y37353000I0J140000D01*
G01*
G37*
G36*
G01*
X48396000Y37353000D02*
X48396000Y37693000D01*
G75*
G02*
X48536000Y37833000I140000J0D01*
G01*
X48816000Y37833000D01*
G75*
G02*
X48956000Y37693000I0J-140000D01*
G01*
X48956000Y37353000D01*
G75*
G02*
X48816000Y37213000I-140000J0D01*
G01*
X48536000Y37213000D01*
G75*
G02*
X48396000Y37353000I0J140000D01*
G01*
G37*
G04 #@! TD*
G04 #@! TO.C,VIN17*
X84176000Y74773000D03*
G04 #@! TD*
G04 #@! TO.C,C8*
G36*
G01*
X28676000Y48548000D02*
X28176000Y48548000D01*
G75*
G02*
X27951000Y48773000I0J225000D01*
G01*
X27951000Y49223000D01*
G75*
G02*
X28176000Y49448000I225000J0D01*
G01*
X28676000Y49448000D01*
G75*
G02*
X28901000Y49223000I0J-225000D01*
G01*
X28901000Y48773000D01*
G75*
G02*
X28676000Y48548000I-225000J0D01*
G01*
G37*
G36*
G01*
X28676000Y50098000D02*
X28176000Y50098000D01*
G75*
G02*
X27951000Y50323000I0J225000D01*
G01*
X27951000Y50773000D01*
G75*
G02*
X28176000Y50998000I225000J0D01*
G01*
X28676000Y50998000D01*
G75*
G02*
X28901000Y50773000I0J-225000D01*
G01*
X28901000Y50323000D01*
G75*
G02*
X28676000Y50098000I-225000J0D01*
G01*
G37*
G04 #@! TD*
G04 #@! TO.C,D18*
G36*
G01*
X122988500Y60616750D02*
X122988500Y61129250D01*
G75*
G02*
X123207250Y61348000I218750J0D01*
G01*
X123644750Y61348000D01*
G75*
G02*
X123863500Y61129250I0J-218750D01*
G01*
X123863500Y60616750D01*
G75*
G02*
X123644750Y60398000I-218750J0D01*
G01*
X123207250Y60398000D01*
G75*
G02*
X122988500Y60616750I0J218750D01*
G01*
G37*
G36*
G01*
X124563500Y60616750D02*
X124563500Y61129250D01*
G75*
G02*
X124782250Y61348000I218750J0D01*
G01*
X125219750Y61348000D01*
G75*
G02*
X125438500Y61129250I0J-218750D01*
G01*
X125438500Y60616750D01*
G75*
G02*
X125219750Y60398000I-218750J0D01*
G01*
X124782250Y60398000D01*
G75*
G02*
X124563500Y60616750I0J218750D01*
G01*
G37*
G04 #@! TD*
G04 #@! TO.C,VOUT21*
X58426000Y91474215D03*
G04 #@! TD*
G04 #@! TO.C,R2*
G36*
G01*
X21646000Y65338000D02*
X21646000Y65708000D01*
G75*
G02*
X21781000Y65843000I135000J0D01*
G01*
X22051000Y65843000D01*
G75*
G02*
X22186000Y65708000I0J-135000D01*
G01*
X22186000Y65338000D01*
G75*
G02*
X22051000Y65203000I-135000J0D01*
G01*
X21781000Y65203000D01*
G75*
G02*
X21646000Y65338000I0J135000D01*
G01*
G37*
G36*
G01*
X22666000Y65338000D02*
X22666000Y65708000D01*
G75*
G02*
X22801000Y65843000I135000J0D01*
G01*
X23071000Y65843000D01*
G75*
G02*
X23206000Y65708000I0J-135000D01*
G01*
X23206000Y65338000D01*
G75*
G02*
X23071000Y65203000I-135000J0D01*
G01*
X22801000Y65203000D01*
G75*
G02*
X22666000Y65338000I0J135000D01*
G01*
G37*
G04 #@! TD*
D23*
G04 #@! TO.C,D3*
X64326000Y91273000D03*
X61026000Y91273000D03*
G04 #@! TD*
D15*
G04 #@! TO.C,Q8*
X139726000Y12803000D03*
D16*
X146026000Y10523000D03*
D15*
X139726000Y8243000D03*
G04 #@! TD*
D22*
G04 #@! TO.C,VOUT15*
X37926000Y87273000D03*
G04 #@! TD*
G04 #@! TO.C,R43*
G36*
G01*
X68556000Y54408000D02*
X68556000Y54038000D01*
G75*
G02*
X68421000Y53903000I-135000J0D01*
G01*
X68151000Y53903000D01*
G75*
G02*
X68016000Y54038000I0J135000D01*
G01*
X68016000Y54408000D01*
G75*
G02*
X68151000Y54543000I135000J0D01*
G01*
X68421000Y54543000D01*
G75*
G02*
X68556000Y54408000I0J-135000D01*
G01*
G37*
G36*
G01*
X67536000Y54408000D02*
X67536000Y54038000D01*
G75*
G02*
X67401000Y53903000I-135000J0D01*
G01*
X67131000Y53903000D01*
G75*
G02*
X66996000Y54038000I0J135000D01*
G01*
X66996000Y54408000D01*
G75*
G02*
X67131000Y54543000I135000J0D01*
G01*
X67401000Y54543000D01*
G75*
G02*
X67536000Y54408000I0J-135000D01*
G01*
G37*
G04 #@! TD*
G04 #@! TO.C,D15*
G36*
G01*
X18576000Y94529250D02*
X18576000Y94016750D01*
G75*
G02*
X18357250Y93798000I-218750J0D01*
G01*
X17919750Y93798000D01*
G75*
G02*
X17701000Y94016750I0J218750D01*
G01*
X17701000Y94529250D01*
G75*
G02*
X17919750Y94748000I218750J0D01*
G01*
X18357250Y94748000D01*
G75*
G02*
X18576000Y94529250I0J-218750D01*
G01*
G37*
G36*
G01*
X20151000Y94529250D02*
X20151000Y94016750D01*
G75*
G02*
X19932250Y93798000I-218750J0D01*
G01*
X19494750Y93798000D01*
G75*
G02*
X19276000Y94016750I0J218750D01*
G01*
X19276000Y94529250D01*
G75*
G02*
X19494750Y94748000I218750J0D01*
G01*
X19932250Y94748000D01*
G75*
G02*
X20151000Y94529250I0J-218750D01*
G01*
G37*
G04 #@! TD*
G04 #@! TO.C,D20*
G36*
G01*
X122913500Y55266750D02*
X122913500Y55779250D01*
G75*
G02*
X123132250Y55998000I218750J0D01*
G01*
X123569750Y55998000D01*
G75*
G02*
X123788500Y55779250I0J-218750D01*
G01*
X123788500Y55266750D01*
G75*
G02*
X123569750Y55048000I-218750J0D01*
G01*
X123132250Y55048000D01*
G75*
G02*
X122913500Y55266750I0J218750D01*
G01*
G37*
G36*
G01*
X124488500Y55266750D02*
X124488500Y55779250D01*
G75*
G02*
X124707250Y55998000I218750J0D01*
G01*
X125144750Y55998000D01*
G75*
G02*
X125363500Y55779250I0J-218750D01*
G01*
X125363500Y55266750D01*
G75*
G02*
X125144750Y55048000I-218750J0D01*
G01*
X124707250Y55048000D01*
G75*
G02*
X124488500Y55266750I0J218750D01*
G01*
G37*
G04 #@! TD*
G04 #@! TO.C,VOUT25*
X62676000Y53023000D03*
G04 #@! TD*
D27*
G04 #@! TO.C,RN8*
X74926000Y69273000D03*
X74926000Y68473000D03*
X74926000Y67673000D03*
X74926000Y66873000D03*
X73226000Y66873000D03*
X73226000Y67673000D03*
X73226000Y68473000D03*
X73226000Y69273000D03*
G04 #@! TD*
D12*
G04 #@! TO.C,JP6*
X54676000Y100428000D03*
D13*
X54676000Y99475500D03*
D14*
X54676000Y99793000D03*
D13*
X54676000Y97570500D03*
D12*
X54676000Y96618000D03*
D14*
X54676000Y97253000D03*
G04 #@! TD*
D21*
G04 #@! TO.C,D37*
X80326000Y67323000D03*
X78226000Y67323000D03*
G04 #@! TD*
D35*
G04 #@! TO.C,J1*
X83726000Y13948000D03*
D36*
X82926000Y12198000D03*
X82126000Y13948000D03*
X81326000Y12198000D03*
X80526000Y13948000D03*
D37*
X85776000Y13073000D03*
X78476000Y13073000D03*
G04 #@! TD*
G04 #@! TO.C,R24*
G36*
G01*
X138956000Y15958000D02*
X138956000Y15588000D01*
G75*
G02*
X138821000Y15453000I-135000J0D01*
G01*
X138551000Y15453000D01*
G75*
G02*
X138416000Y15588000I0J135000D01*
G01*
X138416000Y15958000D01*
G75*
G02*
X138551000Y16093000I135000J0D01*
G01*
X138821000Y16093000D01*
G75*
G02*
X138956000Y15958000I0J-135000D01*
G01*
G37*
G36*
G01*
X137936000Y15958000D02*
X137936000Y15588000D01*
G75*
G02*
X137801000Y15453000I-135000J0D01*
G01*
X137531000Y15453000D01*
G75*
G02*
X137396000Y15588000I0J135000D01*
G01*
X137396000Y15958000D01*
G75*
G02*
X137531000Y16093000I135000J0D01*
G01*
X137801000Y16093000D01*
G75*
G02*
X137936000Y15958000I0J-135000D01*
G01*
G37*
G04 #@! TD*
D22*
G04 #@! TO.C,VIN3*
X104676000Y82723000D03*
G04 #@! TD*
G04 #@! TO.C,cr13*
X49926000Y100523000D03*
G04 #@! TD*
G04 #@! TO.C,MMCU38*
X64976000Y51023000D03*
G04 #@! TD*
G04 #@! TO.C,cr2*
X73426000Y100523000D03*
G04 #@! TD*
G04 #@! TO.C,R23*
G36*
G01*
X138966000Y75458000D02*
X138966000Y75088000D01*
G75*
G02*
X138831000Y74953000I-135000J0D01*
G01*
X138561000Y74953000D01*
G75*
G02*
X138426000Y75088000I0J135000D01*
G01*
X138426000Y75458000D01*
G75*
G02*
X138561000Y75593000I135000J0D01*
G01*
X138831000Y75593000D01*
G75*
G02*
X138966000Y75458000I0J-135000D01*
G01*
G37*
G36*
G01*
X137946000Y75458000D02*
X137946000Y75088000D01*
G75*
G02*
X137811000Y74953000I-135000J0D01*
G01*
X137541000Y74953000D01*
G75*
G02*
X137406000Y75088000I0J135000D01*
G01*
X137406000Y75458000D01*
G75*
G02*
X137541000Y75593000I135000J0D01*
G01*
X137811000Y75593000D01*
G75*
G02*
X137946000Y75458000I0J-135000D01*
G01*
G37*
G04 #@! TD*
G04 #@! TO.C,cr3*
X76676000Y100523000D03*
G04 #@! TD*
G04 #@! TO.C,U5*
G36*
G01*
X20726000Y48278000D02*
X20726000Y48578000D01*
G75*
G02*
X20876000Y48728000I150000J0D01*
G01*
X22526000Y48728000D01*
G75*
G02*
X22676000Y48578000I0J-150000D01*
G01*
X22676000Y48278000D01*
G75*
G02*
X22526000Y48128000I-150000J0D01*
G01*
X20876000Y48128000D01*
G75*
G02*
X20726000Y48278000I0J150000D01*
G01*
G37*
G36*
G01*
X20726000Y47008000D02*
X20726000Y47308000D01*
G75*
G02*
X20876000Y47458000I150000J0D01*
G01*
X22526000Y47458000D01*
G75*
G02*
X22676000Y47308000I0J-150000D01*
G01*
X22676000Y47008000D01*
G75*
G02*
X22526000Y46858000I-150000J0D01*
G01*
X20876000Y46858000D01*
G75*
G02*
X20726000Y47008000I0J150000D01*
G01*
G37*
G36*
G01*
X20726000Y45738000D02*
X20726000Y46038000D01*
G75*
G02*
X20876000Y46188000I150000J0D01*
G01*
X22526000Y46188000D01*
G75*
G02*
X22676000Y46038000I0J-150000D01*
G01*
X22676000Y45738000D01*
G75*
G02*
X22526000Y45588000I-150000J0D01*
G01*
X20876000Y45588000D01*
G75*
G02*
X20726000Y45738000I0J150000D01*
G01*
G37*
G36*
G01*
X20726000Y44468000D02*
X20726000Y44768000D01*
G75*
G02*
X20876000Y44918000I150000J0D01*
G01*
X22526000Y44918000D01*
G75*
G02*
X22676000Y44768000I0J-150000D01*
G01*
X22676000Y44468000D01*
G75*
G02*
X22526000Y44318000I-150000J0D01*
G01*
X20876000Y44318000D01*
G75*
G02*
X20726000Y44468000I0J150000D01*
G01*
G37*
G36*
G01*
X25676000Y44468000D02*
X25676000Y44768000D01*
G75*
G02*
X25826000Y44918000I150000J0D01*
G01*
X27476000Y44918000D01*
G75*
G02*
X27626000Y44768000I0J-150000D01*
G01*
X27626000Y44468000D01*
G75*
G02*
X27476000Y44318000I-150000J0D01*
G01*
X25826000Y44318000D01*
G75*
G02*
X25676000Y44468000I0J150000D01*
G01*
G37*
G36*
G01*
X25676000Y45738000D02*
X25676000Y46038000D01*
G75*
G02*
X25826000Y46188000I150000J0D01*
G01*
X27476000Y46188000D01*
G75*
G02*
X27626000Y46038000I0J-150000D01*
G01*
X27626000Y45738000D01*
G75*
G02*
X27476000Y45588000I-150000J0D01*
G01*
X25826000Y45588000D01*
G75*
G02*
X25676000Y45738000I0J150000D01*
G01*
G37*
G36*
G01*
X25676000Y47008000D02*
X25676000Y47308000D01*
G75*
G02*
X25826000Y47458000I150000J0D01*
G01*
X27476000Y47458000D01*
G75*
G02*
X27626000Y47308000I0J-150000D01*
G01*
X27626000Y47008000D01*
G75*
G02*
X27476000Y46858000I-150000J0D01*
G01*
X25826000Y46858000D01*
G75*
G02*
X25676000Y47008000I0J150000D01*
G01*
G37*
G36*
G01*
X25676000Y48278000D02*
X25676000Y48578000D01*
G75*
G02*
X25826000Y48728000I150000J0D01*
G01*
X27476000Y48728000D01*
G75*
G02*
X27626000Y48578000I0J-150000D01*
G01*
X27626000Y48278000D01*
G75*
G02*
X27476000Y48128000I-150000J0D01*
G01*
X25826000Y48128000D01*
G75*
G02*
X25676000Y48278000I0J150000D01*
G01*
G37*
G04 #@! TD*
G04 #@! TO.C,R25*
G36*
G01*
X104706000Y96708000D02*
X104706000Y96338000D01*
G75*
G02*
X104571000Y96203000I-135000J0D01*
G01*
X104301000Y96203000D01*
G75*
G02*
X104166000Y96338000I0J135000D01*
G01*
X104166000Y96708000D01*
G75*
G02*
X104301000Y96843000I135000J0D01*
G01*
X104571000Y96843000D01*
G75*
G02*
X104706000Y96708000I0J-135000D01*
G01*
G37*
G36*
G01*
X103686000Y96708000D02*
X103686000Y96338000D01*
G75*
G02*
X103551000Y96203000I-135000J0D01*
G01*
X103281000Y96203000D01*
G75*
G02*
X103146000Y96338000I0J135000D01*
G01*
X103146000Y96708000D01*
G75*
G02*
X103281000Y96843000I135000J0D01*
G01*
X103551000Y96843000D01*
G75*
G02*
X103686000Y96708000I0J-135000D01*
G01*
G37*
G04 #@! TD*
D38*
G04 #@! TO.C,M4*
X75138506Y7116334D03*
D39*
X85488500Y7066336D03*
X84988499Y7066336D03*
D40*
X78438502Y6016338D03*
X79313504Y5491338D03*
X78138500Y4741340D03*
X78213503Y1191339D03*
G04 #@! TD*
G04 #@! TO.C,R8*
G36*
G01*
X137601000Y36198000D02*
X134751000Y36198000D01*
G75*
G02*
X134501000Y36448000I0J250000D01*
G01*
X134501000Y37173000D01*
G75*
G02*
X134751000Y37423000I250000J0D01*
G01*
X137601000Y37423000D01*
G75*
G02*
X137851000Y37173000I0J-250000D01*
G01*
X137851000Y36448000D01*
G75*
G02*
X137601000Y36198000I-250000J0D01*
G01*
G37*
G36*
G01*
X137601000Y42123000D02*
X134751000Y42123000D01*
G75*
G02*
X134501000Y42373000I0J250000D01*
G01*
X134501000Y43098000D01*
G75*
G02*
X134751000Y43348000I250000J0D01*
G01*
X137601000Y43348000D01*
G75*
G02*
X137851000Y43098000I0J-250000D01*
G01*
X137851000Y42373000D01*
G75*
G02*
X137601000Y42123000I-250000J0D01*
G01*
G37*
G04 #@! TD*
G04 #@! TO.C,D21*
G36*
G01*
X122951000Y58766750D02*
X122951000Y59279250D01*
G75*
G02*
X123169750Y59498000I218750J0D01*
G01*
X123607250Y59498000D01*
G75*
G02*
X123826000Y59279250I0J-218750D01*
G01*
X123826000Y58766750D01*
G75*
G02*
X123607250Y58548000I-218750J0D01*
G01*
X123169750Y58548000D01*
G75*
G02*
X122951000Y58766750I0J218750D01*
G01*
G37*
G36*
G01*
X124526000Y58766750D02*
X124526000Y59279250D01*
G75*
G02*
X124744750Y59498000I218750J0D01*
G01*
X125182250Y59498000D01*
G75*
G02*
X125401000Y59279250I0J-218750D01*
G01*
X125401000Y58766750D01*
G75*
G02*
X125182250Y58548000I-218750J0D01*
G01*
X124744750Y58548000D01*
G75*
G02*
X124526000Y58766750I0J218750D01*
G01*
G37*
G04 #@! TD*
G04 #@! TO.C,R13*
G36*
G01*
X134751000Y74598000D02*
X137601000Y74598000D01*
G75*
G02*
X137851000Y74348000I0J-250000D01*
G01*
X137851000Y73623000D01*
G75*
G02*
X137601000Y73373000I-250000J0D01*
G01*
X134751000Y73373000D01*
G75*
G02*
X134501000Y73623000I0J250000D01*
G01*
X134501000Y74348000D01*
G75*
G02*
X134751000Y74598000I250000J0D01*
G01*
G37*
G36*
G01*
X134751000Y68673000D02*
X137601000Y68673000D01*
G75*
G02*
X137851000Y68423000I0J-250000D01*
G01*
X137851000Y67698000D01*
G75*
G02*
X137601000Y67448000I-250000J0D01*
G01*
X134751000Y67448000D01*
G75*
G02*
X134501000Y67698000I0J250000D01*
G01*
X134501000Y68423000D01*
G75*
G02*
X134751000Y68673000I250000J0D01*
G01*
G37*
G04 #@! TD*
D23*
G04 #@! TO.C,D8*
X64326000Y93773000D03*
X61026000Y93773000D03*
G04 #@! TD*
D41*
G04 #@! TO.C,U3*
X100176000Y11593000D03*
X99676000Y11593000D03*
X99176000Y11593000D03*
X98676000Y11593000D03*
D42*
X98666000Y11083000D03*
X98666000Y10583000D03*
D41*
X98676000Y10073000D03*
X99176000Y10073000D03*
X99676000Y10073000D03*
X100176000Y10073000D03*
D42*
X100186000Y10583000D03*
X100186000Y11083000D03*
G04 #@! TD*
G04 #@! TO.C,C22*
G36*
G01*
X116766000Y11603000D02*
X116766000Y11943000D01*
G75*
G02*
X116906000Y12083000I140000J0D01*
G01*
X117186000Y12083000D01*
G75*
G02*
X117326000Y11943000I0J-140000D01*
G01*
X117326000Y11603000D01*
G75*
G02*
X117186000Y11463000I-140000J0D01*
G01*
X116906000Y11463000D01*
G75*
G02*
X116766000Y11603000I0J140000D01*
G01*
G37*
G36*
G01*
X117726000Y11603000D02*
X117726000Y11943000D01*
G75*
G02*
X117866000Y12083000I140000J0D01*
G01*
X118146000Y12083000D01*
G75*
G02*
X118286000Y11943000I0J-140000D01*
G01*
X118286000Y11603000D01*
G75*
G02*
X118146000Y11463000I-140000J0D01*
G01*
X117866000Y11463000D01*
G75*
G02*
X117726000Y11603000I0J140000D01*
G01*
G37*
G04 #@! TD*
D12*
G04 #@! TO.C,JP48*
X97926000Y100428000D03*
D13*
X97926000Y99475500D03*
D14*
X97926000Y99793000D03*
D13*
X97926000Y97570500D03*
D14*
X97926000Y97253000D03*
D12*
X97926000Y96618000D03*
G04 #@! TD*
D31*
G04 #@! TO.C,P5*
X16590213Y11023000D03*
G04 #@! TD*
G04 #@! TO.C,R3*
G36*
G01*
X42896000Y40088000D02*
X42896000Y40458000D01*
G75*
G02*
X43031000Y40593000I135000J0D01*
G01*
X43301000Y40593000D01*
G75*
G02*
X43436000Y40458000I0J-135000D01*
G01*
X43436000Y40088000D01*
G75*
G02*
X43301000Y39953000I-135000J0D01*
G01*
X43031000Y39953000D01*
G75*
G02*
X42896000Y40088000I0J135000D01*
G01*
G37*
G36*
G01*
X43916000Y40088000D02*
X43916000Y40458000D01*
G75*
G02*
X44051000Y40593000I135000J0D01*
G01*
X44321000Y40593000D01*
G75*
G02*
X44456000Y40458000I0J-135000D01*
G01*
X44456000Y40088000D01*
G75*
G02*
X44321000Y39953000I-135000J0D01*
G01*
X44051000Y39953000D01*
G75*
G02*
X43916000Y40088000I0J135000D01*
G01*
G37*
G04 #@! TD*
D22*
G04 #@! TO.C,VIN8*
X86926000Y82523000D03*
G04 #@! TD*
G04 #@! TO.C,R21*
G36*
G01*
X138956000Y94958000D02*
X138956000Y94588000D01*
G75*
G02*
X138821000Y94453000I-135000J0D01*
G01*
X138551000Y94453000D01*
G75*
G02*
X138416000Y94588000I0J135000D01*
G01*
X138416000Y94958000D01*
G75*
G02*
X138551000Y95093000I135000J0D01*
G01*
X138821000Y95093000D01*
G75*
G02*
X138956000Y94958000I0J-135000D01*
G01*
G37*
G36*
G01*
X137936000Y94958000D02*
X137936000Y94588000D01*
G75*
G02*
X137801000Y94453000I-135000J0D01*
G01*
X137531000Y94453000D01*
G75*
G02*
X137396000Y94588000I0J135000D01*
G01*
X137396000Y94958000D01*
G75*
G02*
X137531000Y95093000I135000J0D01*
G01*
X137801000Y95093000D01*
G75*
G02*
X137936000Y94958000I0J-135000D01*
G01*
G37*
G04 #@! TD*
G04 #@! TO.C,C6*
G36*
G01*
X26686000Y50193000D02*
X26686000Y49853000D01*
G75*
G02*
X26546000Y49713000I-140000J0D01*
G01*
X26266000Y49713000D01*
G75*
G02*
X26126000Y49853000I0J140000D01*
G01*
X26126000Y50193000D01*
G75*
G02*
X26266000Y50333000I140000J0D01*
G01*
X26546000Y50333000D01*
G75*
G02*
X26686000Y50193000I0J-140000D01*
G01*
G37*
G36*
G01*
X25726000Y50193000D02*
X25726000Y49853000D01*
G75*
G02*
X25586000Y49713000I-140000J0D01*
G01*
X25306000Y49713000D01*
G75*
G02*
X25166000Y49853000I0J140000D01*
G01*
X25166000Y50193000D01*
G75*
G02*
X25306000Y50333000I140000J0D01*
G01*
X25586000Y50333000D01*
G75*
G02*
X25726000Y50193000I0J-140000D01*
G01*
G37*
G04 #@! TD*
D31*
G04 #@! TO.C,P2*
X26840213Y11023000D03*
G04 #@! TD*
G04 #@! TO.C,M11*
G36*
G01*
X80346000Y57248000D02*
X80346000Y57698000D01*
G75*
G02*
X80471000Y57823000I125000J0D01*
G01*
X80471000Y57823000D01*
G75*
G02*
X80596000Y57698000I0J-125000D01*
G01*
X80596000Y57248000D01*
G75*
G02*
X80471000Y57123000I-125000J0D01*
G01*
X80471000Y57123000D01*
G75*
G02*
X80346000Y57248000I0J125000D01*
G01*
G37*
G04 #@! TD*
D21*
G04 #@! TO.C,D13*
X64776000Y74323000D03*
X66876000Y74323000D03*
G04 #@! TD*
G04 #@! TO.C,R15*
G36*
G01*
X16691000Y94533000D02*
X17061000Y94533000D01*
G75*
G02*
X17196000Y94398000I0J-135000D01*
G01*
X17196000Y94128000D01*
G75*
G02*
X17061000Y93993000I-135000J0D01*
G01*
X16691000Y93993000D01*
G75*
G02*
X16556000Y94128000I0J135000D01*
G01*
X16556000Y94398000D01*
G75*
G02*
X16691000Y94533000I135000J0D01*
G01*
G37*
G36*
G01*
X16691000Y95553000D02*
X17061000Y95553000D01*
G75*
G02*
X17196000Y95418000I0J-135000D01*
G01*
X17196000Y95148000D01*
G75*
G02*
X17061000Y95013000I-135000J0D01*
G01*
X16691000Y95013000D01*
G75*
G02*
X16556000Y95148000I0J135000D01*
G01*
X16556000Y95418000D01*
G75*
G02*
X16691000Y95553000I135000J0D01*
G01*
G37*
G04 #@! TD*
D17*
G04 #@! TO.C,J21*
X9476000Y11523000D03*
D18*
X6936000Y11523000D03*
X4396000Y11523000D03*
X1856000Y11523000D03*
G04 #@! TD*
D21*
G04 #@! TO.C,D39*
X80326000Y74323000D03*
X78226000Y74323000D03*
G04 #@! TD*
D22*
G04 #@! TO.C,VOUT2*
X50926000Y89474215D03*
G04 #@! TD*
G04 #@! TO.C,VOUT26*
X62676000Y45023000D03*
G04 #@! TD*
G04 #@! TO.C,KNOCK_RAW1*
X71926000Y96523000D03*
G04 #@! TD*
G04 #@! TO.C,D24*
G36*
G01*
X66176000Y72316750D02*
X66176000Y72829250D01*
G75*
G02*
X66394750Y73048000I218750J0D01*
G01*
X66832250Y73048000D01*
G75*
G02*
X67051000Y72829250I0J-218750D01*
G01*
X67051000Y72316750D01*
G75*
G02*
X66832250Y72098000I-218750J0D01*
G01*
X66394750Y72098000D01*
G75*
G02*
X66176000Y72316750I0J218750D01*
G01*
G37*
G36*
G01*
X64601000Y72316750D02*
X64601000Y72829250D01*
G75*
G02*
X64819750Y73048000I218750J0D01*
G01*
X65257250Y73048000D01*
G75*
G02*
X65476000Y72829250I0J-218750D01*
G01*
X65476000Y72316750D01*
G75*
G02*
X65257250Y72098000I-218750J0D01*
G01*
X64819750Y72098000D01*
G75*
G02*
X64601000Y72316750I0J218750D01*
G01*
G37*
G04 #@! TD*
G04 #@! TO.C,MMCU40*
X64926000Y47023000D03*
G04 #@! TD*
D43*
G04 #@! TO.C,M6*
X65051002Y81151414D03*
X65051002Y82876416D03*
X65051002Y84601416D03*
X65051002Y86301414D03*
D44*
X78251001Y79676414D03*
D43*
X84006875Y85697812D03*
X84001003Y82076414D03*
G04 #@! TD*
G04 #@! TO.C,C7*
G36*
G01*
X21926000Y48798000D02*
X21426000Y48798000D01*
G75*
G02*
X21201000Y49023000I0J225000D01*
G01*
X21201000Y49473000D01*
G75*
G02*
X21426000Y49698000I225000J0D01*
G01*
X21926000Y49698000D01*
G75*
G02*
X22151000Y49473000I0J-225000D01*
G01*
X22151000Y49023000D01*
G75*
G02*
X21926000Y48798000I-225000J0D01*
G01*
G37*
G36*
G01*
X21926000Y50348000D02*
X21426000Y50348000D01*
G75*
G02*
X21201000Y50573000I0J225000D01*
G01*
X21201000Y51023000D01*
G75*
G02*
X21426000Y51248000I225000J0D01*
G01*
X21926000Y51248000D01*
G75*
G02*
X22151000Y51023000I0J-225000D01*
G01*
X22151000Y50573000D01*
G75*
G02*
X21926000Y50348000I-225000J0D01*
G01*
G37*
G04 #@! TD*
D24*
G04 #@! TO.C,J19*
X3401000Y16523000D03*
G36*
G01*
X12300999Y15173000D02*
X9101001Y15173000D01*
G75*
G02*
X8851000Y15423001I0J250001D01*
G01*
X8851000Y17622999D01*
G75*
G02*
X9101001Y17873000I250001J0D01*
G01*
X12300999Y17873000D01*
G75*
G02*
X12551000Y17622999I0J-250001D01*
G01*
X12551000Y15423001D01*
G75*
G02*
X12300999Y15173000I-250001J0D01*
G01*
G37*
D45*
X16201000Y16523000D03*
G04 #@! TD*
D21*
G04 #@! TO.C,D2*
X44976000Y37773000D03*
X42876000Y37773000D03*
G04 #@! TD*
G04 #@! TO.C,C3*
G36*
G01*
X97666000Y14103000D02*
X97666000Y14443000D01*
G75*
G02*
X97806000Y14583000I140000J0D01*
G01*
X98086000Y14583000D01*
G75*
G02*
X98226000Y14443000I0J-140000D01*
G01*
X98226000Y14103000D01*
G75*
G02*
X98086000Y13963000I-140000J0D01*
G01*
X97806000Y13963000D01*
G75*
G02*
X97666000Y14103000I0J140000D01*
G01*
G37*
G36*
G01*
X98626000Y14103000D02*
X98626000Y14443000D01*
G75*
G02*
X98766000Y14583000I140000J0D01*
G01*
X99046000Y14583000D01*
G75*
G02*
X99186000Y14443000I0J-140000D01*
G01*
X99186000Y14103000D01*
G75*
G02*
X99046000Y13963000I-140000J0D01*
G01*
X98766000Y13963000D01*
G75*
G02*
X98626000Y14103000I0J140000D01*
G01*
G37*
G04 #@! TD*
G04 #@! TO.C,C4*
G36*
G01*
X105333500Y10175500D02*
X104993500Y10175500D01*
G75*
G02*
X104853500Y10315500I0J140000D01*
G01*
X104853500Y10595500D01*
G75*
G02*
X104993500Y10735500I140000J0D01*
G01*
X105333500Y10735500D01*
G75*
G02*
X105473500Y10595500I0J-140000D01*
G01*
X105473500Y10315500D01*
G75*
G02*
X105333500Y10175500I-140000J0D01*
G01*
G37*
G36*
G01*
X105333500Y11135500D02*
X104993500Y11135500D01*
G75*
G02*
X104853500Y11275500I0J140000D01*
G01*
X104853500Y11555500D01*
G75*
G02*
X104993500Y11695500I140000J0D01*
G01*
X105333500Y11695500D01*
G75*
G02*
X105473500Y11555500I0J-140000D01*
G01*
X105473500Y11275500D01*
G75*
G02*
X105333500Y11135500I-140000J0D01*
G01*
G37*
G04 #@! TD*
D22*
G04 #@! TO.C,cr19*
X112176000Y100523000D03*
G04 #@! TD*
G04 #@! TO.C,C5*
G36*
G01*
X99936000Y9253000D02*
X99936000Y8913000D01*
G75*
G02*
X99796000Y8773000I-140000J0D01*
G01*
X99516000Y8773000D01*
G75*
G02*
X99376000Y8913000I0J140000D01*
G01*
X99376000Y9253000D01*
G75*
G02*
X99516000Y9393000I140000J0D01*
G01*
X99796000Y9393000D01*
G75*
G02*
X99936000Y9253000I0J-140000D01*
G01*
G37*
G36*
G01*
X98976000Y9253000D02*
X98976000Y8913000D01*
G75*
G02*
X98836000Y8773000I-140000J0D01*
G01*
X98556000Y8773000D01*
G75*
G02*
X98416000Y8913000I0J140000D01*
G01*
X98416000Y9253000D01*
G75*
G02*
X98556000Y9393000I140000J0D01*
G01*
X98836000Y9393000D01*
G75*
G02*
X98976000Y9253000I0J-140000D01*
G01*
G37*
G04 #@! TD*
G04 #@! TO.C,cr9*
X90426000Y97023000D03*
G04 #@! TD*
G04 #@! TO.C,VOUT14*
X35676000Y87273000D03*
G04 #@! TD*
G04 #@! TO.C,D19*
G36*
G01*
X122988500Y64116750D02*
X122988500Y64629250D01*
G75*
G02*
X123207250Y64848000I218750J0D01*
G01*
X123644750Y64848000D01*
G75*
G02*
X123863500Y64629250I0J-218750D01*
G01*
X123863500Y64116750D01*
G75*
G02*
X123644750Y63898000I-218750J0D01*
G01*
X123207250Y63898000D01*
G75*
G02*
X122988500Y64116750I0J218750D01*
G01*
G37*
G36*
G01*
X124563500Y64116750D02*
X124563500Y64629250D01*
G75*
G02*
X124782250Y64848000I218750J0D01*
G01*
X125219750Y64848000D01*
G75*
G02*
X125438500Y64629250I0J-218750D01*
G01*
X125438500Y64116750D01*
G75*
G02*
X125219750Y63898000I-218750J0D01*
G01*
X124782250Y63898000D01*
G75*
G02*
X124563500Y64116750I0J218750D01*
G01*
G37*
G04 #@! TD*
G04 #@! TO.C,MMCU3*
X121926000Y15773000D03*
G04 #@! TD*
G04 #@! TO.C,D31*
G36*
G01*
X78926000Y72829250D02*
X78926000Y72316750D01*
G75*
G02*
X78707250Y72098000I-218750J0D01*
G01*
X78269750Y72098000D01*
G75*
G02*
X78051000Y72316750I0J218750D01*
G01*
X78051000Y72829250D01*
G75*
G02*
X78269750Y73048000I218750J0D01*
G01*
X78707250Y73048000D01*
G75*
G02*
X78926000Y72829250I0J-218750D01*
G01*
G37*
G36*
G01*
X80501000Y72829250D02*
X80501000Y72316750D01*
G75*
G02*
X80282250Y72098000I-218750J0D01*
G01*
X79844750Y72098000D01*
G75*
G02*
X79626000Y72316750I0J218750D01*
G01*
X79626000Y72829250D01*
G75*
G02*
X79844750Y73048000I218750J0D01*
G01*
X80282250Y73048000D01*
G75*
G02*
X80501000Y72829250I0J-218750D01*
G01*
G37*
G04 #@! TD*
G04 #@! TO.C,MMCU26*
X107676000Y11273000D03*
G04 #@! TD*
G04 #@! TO.C,R20*
G36*
G01*
X137396000Y25088000D02*
X137396000Y25458000D01*
G75*
G02*
X137531000Y25593000I135000J0D01*
G01*
X137801000Y25593000D01*
G75*
G02*
X137936000Y25458000I0J-135000D01*
G01*
X137936000Y25088000D01*
G75*
G02*
X137801000Y24953000I-135000J0D01*
G01*
X137531000Y24953000D01*
G75*
G02*
X137396000Y25088000I0J135000D01*
G01*
G37*
G36*
G01*
X138416000Y25088000D02*
X138416000Y25458000D01*
G75*
G02*
X138551000Y25593000I135000J0D01*
G01*
X138821000Y25593000D01*
G75*
G02*
X138956000Y25458000I0J-135000D01*
G01*
X138956000Y25088000D01*
G75*
G02*
X138821000Y24953000I-135000J0D01*
G01*
X138551000Y24953000D01*
G75*
G02*
X138416000Y25088000I0J135000D01*
G01*
G37*
G04 #@! TD*
D38*
G04 #@! TO.C,M8*
X18926000Y46810476D03*
X18926000Y45935476D03*
X18926000Y45235475D03*
X1101002Y44785476D03*
X1101002Y47185479D03*
G04 #@! TD*
D40*
G04 #@! TO.C,M5*
X126251769Y735480D03*
D46*
X87868505Y4460491D03*
D40*
X113988501Y735480D03*
X99788502Y735480D03*
X88888503Y735480D03*
D46*
X87868500Y2560490D03*
D40*
X124863496Y4535492D03*
G04 #@! TD*
D22*
G04 #@! TO.C,VOUT22*
X31176000Y87273000D03*
G04 #@! TD*
G04 #@! TO.C,MMCU25*
X107676000Y13273000D03*
G04 #@! TD*
G04 #@! TO.C,D12*
G36*
G01*
X20151000Y90279250D02*
X20151000Y89766750D01*
G75*
G02*
X19932250Y89548000I-218750J0D01*
G01*
X19494750Y89548000D01*
G75*
G02*
X19276000Y89766750I0J218750D01*
G01*
X19276000Y90279250D01*
G75*
G02*
X19494750Y90498000I218750J0D01*
G01*
X19932250Y90498000D01*
G75*
G02*
X20151000Y90279250I0J-218750D01*
G01*
G37*
G36*
G01*
X18576000Y90279250D02*
X18576000Y89766750D01*
G75*
G02*
X18357250Y89548000I-218750J0D01*
G01*
X17919750Y89548000D01*
G75*
G02*
X17701000Y89766750I0J218750D01*
G01*
X17701000Y90279250D01*
G75*
G02*
X17919750Y90498000I218750J0D01*
G01*
X18357250Y90498000D01*
G75*
G02*
X18576000Y90279250I0J-218750D01*
G01*
G37*
G04 #@! TD*
G04 #@! TO.C,R22*
G36*
G01*
X138956000Y84958000D02*
X138956000Y84588000D01*
G75*
G02*
X138821000Y84453000I-135000J0D01*
G01*
X138551000Y84453000D01*
G75*
G02*
X138416000Y84588000I0J135000D01*
G01*
X138416000Y84958000D01*
G75*
G02*
X138551000Y85093000I135000J0D01*
G01*
X138821000Y85093000D01*
G75*
G02*
X138956000Y84958000I0J-135000D01*
G01*
G37*
G36*
G01*
X137936000Y84958000D02*
X137936000Y84588000D01*
G75*
G02*
X137801000Y84453000I-135000J0D01*
G01*
X137531000Y84453000D01*
G75*
G02*
X137396000Y84588000I0J135000D01*
G01*
X137396000Y84958000D01*
G75*
G02*
X137531000Y85093000I135000J0D01*
G01*
X137801000Y85093000D01*
G75*
G02*
X137936000Y84958000I0J-135000D01*
G01*
G37*
G04 #@! TD*
G04 #@! TO.C,J17*
G36*
G01*
X31776000Y4298100D02*
X31776000Y2947900D01*
G75*
G02*
X31526100Y2698000I-249900J0D01*
G01*
X30325900Y2698000D01*
G75*
G02*
X30076000Y2947900I0J249900D01*
G01*
X30076000Y4298100D01*
G75*
G02*
X30325900Y4548000I249900J0D01*
G01*
X31526100Y4548000D01*
G75*
G02*
X31776000Y4298100I0J-249900D01*
G01*
G37*
D47*
X28426000Y3623000D03*
X25926000Y3623000D03*
X23426000Y3623000D03*
X20926000Y3623000D03*
X18426000Y3623000D03*
X15926000Y3623000D03*
X13426000Y3623000D03*
G04 #@! TD*
D22*
G04 #@! TO.C,VOUT6*
X40426000Y90023000D03*
G04 #@! TD*
G04 #@! TO.C,VOUT24*
X28976000Y42823000D03*
G04 #@! TD*
G04 #@! TO.C,D5*
G36*
G01*
X41438500Y41529250D02*
X41438500Y41016750D01*
G75*
G02*
X41219750Y40798000I-218750J0D01*
G01*
X40782250Y40798000D01*
G75*
G02*
X40563500Y41016750I0J218750D01*
G01*
X40563500Y41529250D01*
G75*
G02*
X40782250Y41748000I218750J0D01*
G01*
X41219750Y41748000D01*
G75*
G02*
X41438500Y41529250I0J-218750D01*
G01*
G37*
G36*
G01*
X39863500Y41529250D02*
X39863500Y41016750D01*
G75*
G02*
X39644750Y40798000I-218750J0D01*
G01*
X39207250Y40798000D01*
G75*
G02*
X38988500Y41016750I0J218750D01*
G01*
X38988500Y41529250D01*
G75*
G02*
X39207250Y41748000I218750J0D01*
G01*
X39644750Y41748000D01*
G75*
G02*
X39863500Y41529250I0J-218750D01*
G01*
G37*
G04 #@! TD*
G04 #@! TO.C,MMCU35*
X83926000Y59523000D03*
G04 #@! TD*
D25*
G04 #@! TO.C,SW1*
X91926000Y11273000D03*
D26*
X91926000Y12973000D03*
X91926000Y9573000D03*
G04 #@! TD*
D22*
G04 #@! TO.C,VOUT16*
X49926000Y91474215D03*
G04 #@! TD*
G04 #@! TO.C,J14*
X68426000Y88523000D03*
G04 #@! TD*
G04 #@! TO.C,VIN1*
X110176000Y84773000D03*
G04 #@! TD*
D21*
G04 #@! TO.C,D35*
X64776000Y63823000D03*
X66876000Y63823000D03*
G04 #@! TD*
G04 #@! TO.C,D6*
G36*
G01*
X41438500Y39779250D02*
X41438500Y39266750D01*
G75*
G02*
X41219750Y39048000I-218750J0D01*
G01*
X40782250Y39048000D01*
G75*
G02*
X40563500Y39266750I0J218750D01*
G01*
X40563500Y39779250D01*
G75*
G02*
X40782250Y39998000I218750J0D01*
G01*
X41219750Y39998000D01*
G75*
G02*
X41438500Y39779250I0J-218750D01*
G01*
G37*
G36*
G01*
X39863500Y39779250D02*
X39863500Y39266750D01*
G75*
G02*
X39644750Y39048000I-218750J0D01*
G01*
X39207250Y39048000D01*
G75*
G02*
X38988500Y39266750I0J218750D01*
G01*
X38988500Y39779250D01*
G75*
G02*
X39207250Y39998000I218750J0D01*
G01*
X39644750Y39998000D01*
G75*
G02*
X39863500Y39779250I0J-218750D01*
G01*
G37*
G04 #@! TD*
D22*
G04 #@! TO.C,VOUT3*
X46676000Y91523000D03*
G04 #@! TD*
G04 #@! TO.C,MMCU1*
X125926000Y15773000D03*
G04 #@! TD*
D31*
G04 #@! TO.C,P6*
X13340213Y11023000D03*
G04 #@! TD*
D22*
G04 #@! TO.C,cr17*
X65676000Y96523000D03*
G04 #@! TD*
G04 #@! TO.C,VIN20*
X111426000Y82773000D03*
G04 #@! TD*
D17*
G04 #@! TO.C,J20*
X14276000Y21523000D03*
D18*
X11736000Y21523000D03*
X9196000Y21523000D03*
X6656000Y21523000D03*
X4116000Y21523000D03*
X1576000Y21523000D03*
G04 #@! TD*
G04 #@! TO.C,R29*
G36*
G01*
X48956000Y35708000D02*
X48956000Y35338000D01*
G75*
G02*
X48821000Y35203000I-135000J0D01*
G01*
X48551000Y35203000D01*
G75*
G02*
X48416000Y35338000I0J135000D01*
G01*
X48416000Y35708000D01*
G75*
G02*
X48551000Y35843000I135000J0D01*
G01*
X48821000Y35843000D01*
G75*
G02*
X48956000Y35708000I0J-135000D01*
G01*
G37*
G36*
G01*
X47936000Y35708000D02*
X47936000Y35338000D01*
G75*
G02*
X47801000Y35203000I-135000J0D01*
G01*
X47531000Y35203000D01*
G75*
G02*
X47396000Y35338000I0J135000D01*
G01*
X47396000Y35708000D01*
G75*
G02*
X47531000Y35843000I135000J0D01*
G01*
X47801000Y35843000D01*
G75*
G02*
X47936000Y35708000I0J-135000D01*
G01*
G37*
G04 #@! TD*
D22*
G04 #@! TO.C,MMCU22*
X79426000Y59523000D03*
G04 #@! TD*
D32*
G04 #@! TO.C,TP1*
X43676000Y34023000D03*
G04 #@! TD*
D22*
G04 #@! TO.C,J15*
X66176000Y88523000D03*
G04 #@! TD*
G04 #@! TO.C,cr7*
X92176000Y100523000D03*
G04 #@! TD*
G04 #@! TO.C,U4*
G36*
G01*
X104063500Y10935500D02*
X104063500Y10735500D01*
G75*
G02*
X103963500Y10635500I-100000J0D01*
G01*
X103613500Y10635500D01*
G75*
G02*
X103513500Y10735500I0J100000D01*
G01*
X103513500Y10935500D01*
G75*
G02*
X103613500Y11035500I100000J0D01*
G01*
X103963500Y11035500D01*
G75*
G02*
X104063500Y10935500I0J-100000D01*
G01*
G37*
G36*
G01*
X104063500Y11535500D02*
X104063500Y11335500D01*
G75*
G02*
X103963500Y11235500I-100000J0D01*
G01*
X103613500Y11235500D01*
G75*
G02*
X103513500Y11335500I0J100000D01*
G01*
X103513500Y11535500D01*
G75*
G02*
X103613500Y11635500I100000J0D01*
G01*
X103963500Y11635500D01*
G75*
G02*
X104063500Y11535500I0J-100000D01*
G01*
G37*
G36*
G01*
X103663500Y12235500D02*
X103663500Y11885500D01*
G75*
G02*
X103563500Y11785500I-100000J0D01*
G01*
X103363500Y11785500D01*
G75*
G02*
X103263500Y11885500I0J100000D01*
G01*
X103263500Y12235500D01*
G75*
G02*
X103363500Y12335500I100000J0D01*
G01*
X103563500Y12335500D01*
G75*
G02*
X103663500Y12235500I0J-100000D01*
G01*
G37*
G36*
G01*
X103063500Y12235500D02*
X103063500Y11885500D01*
G75*
G02*
X102963500Y11785500I-100000J0D01*
G01*
X102763500Y11785500D01*
G75*
G02*
X102663500Y11885500I0J100000D01*
G01*
X102663500Y12235500D01*
G75*
G02*
X102763500Y12335500I100000J0D01*
G01*
X102963500Y12335500D01*
G75*
G02*
X103063500Y12235500I0J-100000D01*
G01*
G37*
G36*
G01*
X102463500Y12235500D02*
X102463500Y11885500D01*
G75*
G02*
X102363500Y11785500I-100000J0D01*
G01*
X102163500Y11785500D01*
G75*
G02*
X102063500Y11885500I0J100000D01*
G01*
X102063500Y12235500D01*
G75*
G02*
X102163500Y12335500I100000J0D01*
G01*
X102363500Y12335500D01*
G75*
G02*
X102463500Y12235500I0J-100000D01*
G01*
G37*
G36*
G01*
X102213500Y11535500D02*
X102213500Y11335500D01*
G75*
G02*
X102113500Y11235500I-100000J0D01*
G01*
X101763500Y11235500D01*
G75*
G02*
X101663500Y11335500I0J100000D01*
G01*
X101663500Y11535500D01*
G75*
G02*
X101763500Y11635500I100000J0D01*
G01*
X102113500Y11635500D01*
G75*
G02*
X102213500Y11535500I0J-100000D01*
G01*
G37*
G36*
G01*
X102213500Y10935500D02*
X102213500Y10735500D01*
G75*
G02*
X102113500Y10635500I-100000J0D01*
G01*
X101763500Y10635500D01*
G75*
G02*
X101663500Y10735500I0J100000D01*
G01*
X101663500Y10935500D01*
G75*
G02*
X101763500Y11035500I100000J0D01*
G01*
X102113500Y11035500D01*
G75*
G02*
X102213500Y10935500I0J-100000D01*
G01*
G37*
G36*
G01*
X102463500Y10385500D02*
X102463500Y10035500D01*
G75*
G02*
X102363500Y9935500I-100000J0D01*
G01*
X102163500Y9935500D01*
G75*
G02*
X102063500Y10035500I0J100000D01*
G01*
X102063500Y10385500D01*
G75*
G02*
X102163500Y10485500I100000J0D01*
G01*
X102363500Y10485500D01*
G75*
G02*
X102463500Y10385500I0J-100000D01*
G01*
G37*
G36*
G01*
X103063500Y10385500D02*
X103063500Y10035500D01*
G75*
G02*
X102963500Y9935500I-100000J0D01*
G01*
X102763500Y9935500D01*
G75*
G02*
X102663500Y10035500I0J100000D01*
G01*
X102663500Y10385500D01*
G75*
G02*
X102763500Y10485500I100000J0D01*
G01*
X102963500Y10485500D01*
G75*
G02*
X103063500Y10385500I0J-100000D01*
G01*
G37*
G36*
G01*
X103663500Y10385500D02*
X103663500Y10035500D01*
G75*
G02*
X103563500Y9935500I-100000J0D01*
G01*
X103363500Y9935500D01*
G75*
G02*
X103263500Y10035500I0J100000D01*
G01*
X103263500Y10385500D01*
G75*
G02*
X103363500Y10485500I100000J0D01*
G01*
X103563500Y10485500D01*
G75*
G02*
X103663500Y10385500I0J-100000D01*
G01*
G37*
G04 #@! TD*
G04 #@! TO.C,VOUT4*
X60426000Y79523000D03*
G04 #@! TD*
G04 #@! TO.C,VIN9*
X87926000Y80523000D03*
G04 #@! TD*
G04 #@! TO.C,MMCU23*
X81676000Y59523000D03*
G04 #@! TD*
G04 #@! TO.C,R30*
G36*
G01*
X47396000Y38338000D02*
X47396000Y38708000D01*
G75*
G02*
X47531000Y38843000I135000J0D01*
G01*
X47801000Y38843000D01*
G75*
G02*
X47936000Y38708000I0J-135000D01*
G01*
X47936000Y38338000D01*
G75*
G02*
X47801000Y38203000I-135000J0D01*
G01*
X47531000Y38203000D01*
G75*
G02*
X47396000Y38338000I0J135000D01*
G01*
G37*
G36*
G01*
X48416000Y38338000D02*
X48416000Y38708000D01*
G75*
G02*
X48551000Y38843000I135000J0D01*
G01*
X48821000Y38843000D01*
G75*
G02*
X48956000Y38708000I0J-135000D01*
G01*
X48956000Y38338000D01*
G75*
G02*
X48821000Y38203000I-135000J0D01*
G01*
X48551000Y38203000D01*
G75*
G02*
X48416000Y38338000I0J135000D01*
G01*
G37*
G04 #@! TD*
G04 #@! TO.C,VOUT7*
X60776000Y58123000D03*
G04 #@! TD*
G04 #@! TO.C,VOUT9*
X28976000Y44823000D03*
G04 #@! TD*
G04 #@! TO.C,VOUT28*
X62676000Y47023000D03*
G04 #@! TD*
G04 #@! TO.C,D26*
G36*
G01*
X78926000Y62329250D02*
X78926000Y61816750D01*
G75*
G02*
X78707250Y61598000I-218750J0D01*
G01*
X78269750Y61598000D01*
G75*
G02*
X78051000Y61816750I0J218750D01*
G01*
X78051000Y62329250D01*
G75*
G02*
X78269750Y62548000I218750J0D01*
G01*
X78707250Y62548000D01*
G75*
G02*
X78926000Y62329250I0J-218750D01*
G01*
G37*
G36*
G01*
X80501000Y62329250D02*
X80501000Y61816750D01*
G75*
G02*
X80282250Y61598000I-218750J0D01*
G01*
X79844750Y61598000D01*
G75*
G02*
X79626000Y61816750I0J218750D01*
G01*
X79626000Y62329250D01*
G75*
G02*
X79844750Y62548000I218750J0D01*
G01*
X80282250Y62548000D01*
G75*
G02*
X80501000Y62329250I0J-218750D01*
G01*
G37*
G04 #@! TD*
G04 #@! TO.C,MMCU12*
X74576000Y14173000D03*
G04 #@! TD*
G04 #@! TO.C,VOUT23*
X33426000Y87273000D03*
G04 #@! TD*
G04 #@! TO.C,cr16*
X63426000Y96523000D03*
G04 #@! TD*
G04 #@! TO.C,cr5*
X59176000Y96523000D03*
G04 #@! TD*
G04 #@! TO.C,J16*
X88176000Y84523000D03*
G04 #@! TD*
D38*
G04 #@! TO.C,M12*
X18926000Y42060476D03*
X18926000Y41185476D03*
X18926000Y40485475D03*
X1101002Y40035476D03*
X1101002Y42435479D03*
G04 #@! TD*
D48*
G04 #@! TO.C,J18*
X25026000Y57423000D03*
X23226000Y55423000D03*
X17126000Y55423000D03*
X19526000Y57423000D03*
X28726000Y55423000D03*
G04 #@! TD*
G04 #@! TO.C,R28*
G36*
G01*
X48956000Y36708000D02*
X48956000Y36338000D01*
G75*
G02*
X48821000Y36203000I-135000J0D01*
G01*
X48551000Y36203000D01*
G75*
G02*
X48416000Y36338000I0J135000D01*
G01*
X48416000Y36708000D01*
G75*
G02*
X48551000Y36843000I135000J0D01*
G01*
X48821000Y36843000D01*
G75*
G02*
X48956000Y36708000I0J-135000D01*
G01*
G37*
G36*
G01*
X47936000Y36708000D02*
X47936000Y36338000D01*
G75*
G02*
X47801000Y36203000I-135000J0D01*
G01*
X47531000Y36203000D01*
G75*
G02*
X47396000Y36338000I0J135000D01*
G01*
X47396000Y36708000D01*
G75*
G02*
X47531000Y36843000I135000J0D01*
G01*
X47801000Y36843000D01*
G75*
G02*
X47936000Y36708000I0J-135000D01*
G01*
G37*
G04 #@! TD*
D22*
G04 #@! TO.C,cr21*
X119426000Y100523000D03*
G04 #@! TD*
G04 #@! TO.C,MMCU13*
X73226000Y16573000D03*
G04 #@! TD*
G04 #@! TO.C,R11*
G36*
G01*
X134751000Y94098000D02*
X137601000Y94098000D01*
G75*
G02*
X137851000Y93848000I0J-250000D01*
G01*
X137851000Y93123000D01*
G75*
G02*
X137601000Y92873000I-250000J0D01*
G01*
X134751000Y92873000D01*
G75*
G02*
X134501000Y93123000I0J250000D01*
G01*
X134501000Y93848000D01*
G75*
G02*
X134751000Y94098000I250000J0D01*
G01*
G37*
G36*
G01*
X134751000Y88173000D02*
X137601000Y88173000D01*
G75*
G02*
X137851000Y87923000I0J-250000D01*
G01*
X137851000Y87198000D01*
G75*
G02*
X137601000Y86948000I-250000J0D01*
G01*
X134751000Y86948000D01*
G75*
G02*
X134501000Y87198000I0J250000D01*
G01*
X134501000Y87923000D01*
G75*
G02*
X134751000Y88173000I250000J0D01*
G01*
G37*
G04 #@! TD*
G04 #@! TO.C,VOUT8*
X62676000Y49023000D03*
G04 #@! TD*
G04 #@! TO.C,VOUT29*
X62676000Y55023000D03*
G04 #@! TD*
G04 #@! TO.C,cr12*
X43176000Y100523000D03*
G04 #@! TD*
D49*
G04 #@! TO.C,U2*
X28822750Y16343000D03*
X28822750Y39203000D03*
D12*
X41522750Y21423000D03*
X41522750Y23963000D03*
X41522750Y26503000D03*
X41522750Y29043000D03*
X41522750Y31583000D03*
X41522750Y34123000D03*
G04 #@! TD*
G04 #@! TO.C,C14*
G36*
G01*
X63231000Y20528000D02*
X63731000Y20528000D01*
G75*
G02*
X63956000Y20303000I0J-225000D01*
G01*
X63956000Y19853000D01*
G75*
G02*
X63731000Y19628000I-225000J0D01*
G01*
X63231000Y19628000D01*
G75*
G02*
X63006000Y19853000I0J225000D01*
G01*
X63006000Y20303000D01*
G75*
G02*
X63231000Y20528000I225000J0D01*
G01*
G37*
G36*
G01*
X63231000Y18978000D02*
X63731000Y18978000D01*
G75*
G02*
X63956000Y18753000I0J-225000D01*
G01*
X63956000Y18303000D01*
G75*
G02*
X63731000Y18078000I-225000J0D01*
G01*
X63231000Y18078000D01*
G75*
G02*
X63006000Y18303000I0J225000D01*
G01*
X63006000Y18753000D01*
G75*
G02*
X63231000Y18978000I225000J0D01*
G01*
G37*
G04 #@! TD*
G04 #@! TO.C,D17*
G36*
G01*
X122951000Y57016750D02*
X122951000Y57529250D01*
G75*
G02*
X123169750Y57748000I218750J0D01*
G01*
X123607250Y57748000D01*
G75*
G02*
X123826000Y57529250I0J-218750D01*
G01*
X123826000Y57016750D01*
G75*
G02*
X123607250Y56798000I-218750J0D01*
G01*
X123169750Y56798000D01*
G75*
G02*
X122951000Y57016750I0J218750D01*
G01*
G37*
G36*
G01*
X124526000Y57016750D02*
X124526000Y57529250D01*
G75*
G02*
X124744750Y57748000I218750J0D01*
G01*
X125182250Y57748000D01*
G75*
G02*
X125401000Y57529250I0J-218750D01*
G01*
X125401000Y57016750D01*
G75*
G02*
X125182250Y56798000I-218750J0D01*
G01*
X124744750Y56798000D01*
G75*
G02*
X124526000Y57016750I0J218750D01*
G01*
G37*
G04 #@! TD*
D50*
G04 #@! TO.C,M9*
X34068570Y84822993D03*
X35324435Y84822993D03*
X49699461Y84822993D03*
D51*
X58754459Y81326709D03*
G04 #@! TD*
D22*
G04 #@! TO.C,cr10*
X64176000Y100523000D03*
G04 #@! TD*
G04 #@! TO.C,cr4*
X18426000Y100523000D03*
G04 #@! TD*
G04 #@! TO.C,cr6*
X89926000Y100523000D03*
G04 #@! TD*
G04 #@! TO.C,MMCU32*
X64976000Y53023000D03*
G04 #@! TD*
G04 #@! TO.C,VOUT12*
X25426000Y41773000D03*
G04 #@! TD*
D14*
G04 #@! TO.C,JP2*
X22326000Y39243000D03*
D12*
X22326000Y39878000D03*
D13*
X22326000Y38925500D03*
D14*
X22326000Y36703000D03*
D12*
X22326000Y36068000D03*
D13*
X22326000Y37020500D03*
G04 #@! TD*
D22*
G04 #@! TO.C,cr23*
X138926000Y100523000D03*
G04 #@! TD*
D46*
G04 #@! TO.C,M1*
X16034985Y33885113D03*
D52*
X509985Y29835103D03*
D40*
X14859984Y38385112D03*
X6634984Y37060108D03*
X6652489Y31827614D03*
X8534985Y31335108D03*
X1184992Y30210122D03*
G04 #@! TD*
D53*
G04 #@! TO.C,M10*
X119651052Y46359475D03*
X120411031Y46359475D03*
X121586024Y46359475D03*
X122761011Y46359475D03*
X123600923Y46359475D03*
X124350995Y46359475D03*
X125526006Y46359475D03*
X126701003Y46359475D03*
D40*
X121661000Y36259868D03*
X119825990Y36684876D03*
X121875998Y37234873D03*
X121661003Y38109832D03*
X121585996Y38959855D03*
X119825990Y39284871D03*
X121135990Y40584838D03*
X119825990Y41234855D03*
X125751005Y34059852D03*
X121675999Y34359854D03*
G04 #@! TD*
G04 #@! TO.C,R34*
G36*
G01*
X101956000Y62958000D02*
X101956000Y62588000D01*
G75*
G02*
X101821000Y62453000I-135000J0D01*
G01*
X101551000Y62453000D01*
G75*
G02*
X101416000Y62588000I0J135000D01*
G01*
X101416000Y62958000D01*
G75*
G02*
X101551000Y63093000I135000J0D01*
G01*
X101821000Y63093000D01*
G75*
G02*
X101956000Y62958000I0J-135000D01*
G01*
G37*
G36*
G01*
X100936000Y62958000D02*
X100936000Y62588000D01*
G75*
G02*
X100801000Y62453000I-135000J0D01*
G01*
X100531000Y62453000D01*
G75*
G02*
X100396000Y62588000I0J135000D01*
G01*
X100396000Y62958000D01*
G75*
G02*
X100531000Y63093000I135000J0D01*
G01*
X100801000Y63093000D01*
G75*
G02*
X100936000Y62958000I0J-135000D01*
G01*
G37*
G04 #@! TD*
D22*
G04 #@! TO.C,cr14*
X50176000Y95273000D03*
G04 #@! TD*
G04 #@! TO.C,D4*
G36*
G01*
X41438500Y38029250D02*
X41438500Y37516750D01*
G75*
G02*
X41219750Y37298000I-218750J0D01*
G01*
X40782250Y37298000D01*
G75*
G02*
X40563500Y37516750I0J218750D01*
G01*
X40563500Y38029250D01*
G75*
G02*
X40782250Y38248000I218750J0D01*
G01*
X41219750Y38248000D01*
G75*
G02*
X41438500Y38029250I0J-218750D01*
G01*
G37*
G36*
G01*
X39863500Y38029250D02*
X39863500Y37516750D01*
G75*
G02*
X39644750Y37298000I-218750J0D01*
G01*
X39207250Y37298000D01*
G75*
G02*
X38988500Y37516750I0J218750D01*
G01*
X38988500Y38029250D01*
G75*
G02*
X39207250Y38248000I218750J0D01*
G01*
X39644750Y38248000D01*
G75*
G02*
X39863500Y38029250I0J-218750D01*
G01*
G37*
G04 #@! TD*
G04 #@! TO.C,R19*
G36*
G01*
X137396000Y65088000D02*
X137396000Y65458000D01*
G75*
G02*
X137531000Y65593000I135000J0D01*
G01*
X137801000Y65593000D01*
G75*
G02*
X137936000Y65458000I0J-135000D01*
G01*
X137936000Y65088000D01*
G75*
G02*
X137801000Y64953000I-135000J0D01*
G01*
X137531000Y64953000D01*
G75*
G02*
X137396000Y65088000I0J135000D01*
G01*
G37*
G36*
G01*
X138416000Y65088000D02*
X138416000Y65458000D01*
G75*
G02*
X138551000Y65593000I135000J0D01*
G01*
X138821000Y65593000D01*
G75*
G02*
X138956000Y65458000I0J-135000D01*
G01*
X138956000Y65088000D01*
G75*
G02*
X138821000Y64953000I-135000J0D01*
G01*
X138551000Y64953000D01*
G75*
G02*
X138416000Y65088000I0J135000D01*
G01*
G37*
G04 #@! TD*
G04 #@! TO.C,MMCU11*
X76576000Y11873000D03*
G04 #@! TD*
D54*
G04 #@! TO.C,Q9*
X25476000Y74173000D03*
X23176000Y74173000D03*
X20876000Y74173000D03*
D55*
X23176000Y67873000D03*
G04 #@! TD*
G04 #@! TO.C,D7*
G36*
G01*
X75601000Y78379250D02*
X75601000Y77866750D01*
G75*
G02*
X75382250Y77648000I-218750J0D01*
G01*
X74944750Y77648000D01*
G75*
G02*
X74726000Y77866750I0J218750D01*
G01*
X74726000Y78379250D01*
G75*
G02*
X74944750Y78598000I218750J0D01*
G01*
X75382250Y78598000D01*
G75*
G02*
X75601000Y78379250I0J-218750D01*
G01*
G37*
G36*
G01*
X74026000Y78379250D02*
X74026000Y77866750D01*
G75*
G02*
X73807250Y77648000I-218750J0D01*
G01*
X73369750Y77648000D01*
G75*
G02*
X73151000Y77866750I0J218750D01*
G01*
X73151000Y78379250D01*
G75*
G02*
X73369750Y78598000I218750J0D01*
G01*
X73807250Y78598000D01*
G75*
G02*
X74026000Y78379250I0J-218750D01*
G01*
G37*
G04 #@! TD*
D21*
G04 #@! TO.C,D43*
X69326000Y55823000D03*
X67226000Y55823000D03*
G04 #@! TD*
D22*
G04 #@! TO.C,cr18*
X68676000Y96523000D03*
G04 #@! TD*
D32*
G04 #@! TO.C,TP2*
X35176000Y41523000D03*
G04 #@! TD*
D22*
G04 #@! TO.C,cr22*
X138926000Y97273000D03*
G04 #@! TD*
D21*
G04 #@! TO.C,D42*
X77826000Y76623000D03*
X79926000Y76623000D03*
G04 #@! TD*
D22*
G04 #@! TO.C,MMCU24*
X107676000Y15273000D03*
G04 #@! TD*
G04 #@! TO.C,C20*
G36*
G01*
X63596000Y39263000D02*
X63256000Y39263000D01*
G75*
G02*
X63116000Y39403000I0J140000D01*
G01*
X63116000Y39683000D01*
G75*
G02*
X63256000Y39823000I140000J0D01*
G01*
X63596000Y39823000D01*
G75*
G02*
X63736000Y39683000I0J-140000D01*
G01*
X63736000Y39403000D01*
G75*
G02*
X63596000Y39263000I-140000J0D01*
G01*
G37*
G36*
G01*
X63596000Y40223000D02*
X63256000Y40223000D01*
G75*
G02*
X63116000Y40363000I0J140000D01*
G01*
X63116000Y40643000D01*
G75*
G02*
X63256000Y40783000I140000J0D01*
G01*
X63596000Y40783000D01*
G75*
G02*
X63736000Y40643000I0J-140000D01*
G01*
X63736000Y40363000D01*
G75*
G02*
X63596000Y40223000I-140000J0D01*
G01*
G37*
G04 #@! TD*
G04 #@! TO.C,D30*
G36*
G01*
X78926000Y65829250D02*
X78926000Y65316750D01*
G75*
G02*
X78707250Y65098000I-218750J0D01*
G01*
X78269750Y65098000D01*
G75*
G02*
X78051000Y65316750I0J218750D01*
G01*
X78051000Y65829250D01*
G75*
G02*
X78269750Y66048000I218750J0D01*
G01*
X78707250Y66048000D01*
G75*
G02*
X78926000Y65829250I0J-218750D01*
G01*
G37*
G36*
G01*
X80501000Y65829250D02*
X80501000Y65316750D01*
G75*
G02*
X80282250Y65098000I-218750J0D01*
G01*
X79844750Y65098000D01*
G75*
G02*
X79626000Y65316750I0J218750D01*
G01*
X79626000Y65829250D01*
G75*
G02*
X79844750Y66048000I218750J0D01*
G01*
X80282250Y66048000D01*
G75*
G02*
X80501000Y65829250I0J-218750D01*
G01*
G37*
G04 #@! TD*
D21*
G04 #@! TO.C,D40*
X18976000Y92523000D03*
X16876000Y92523000D03*
G04 #@! TD*
G04 #@! TO.C,D38*
X80326000Y70823000D03*
X78226000Y70823000D03*
G04 #@! TD*
G04 #@! TO.C,C10*
G36*
G01*
X69256000Y25013000D02*
X69596000Y25013000D01*
G75*
G02*
X69736000Y24873000I0J-140000D01*
G01*
X69736000Y24593000D01*
G75*
G02*
X69596000Y24453000I-140000J0D01*
G01*
X69256000Y24453000D01*
G75*
G02*
X69116000Y24593000I0J140000D01*
G01*
X69116000Y24873000D01*
G75*
G02*
X69256000Y25013000I140000J0D01*
G01*
G37*
G36*
G01*
X69256000Y24053000D02*
X69596000Y24053000D01*
G75*
G02*
X69736000Y23913000I0J-140000D01*
G01*
X69736000Y23633000D01*
G75*
G02*
X69596000Y23493000I-140000J0D01*
G01*
X69256000Y23493000D01*
G75*
G02*
X69116000Y23633000I0J140000D01*
G01*
X69116000Y23913000D01*
G75*
G02*
X69256000Y24053000I140000J0D01*
G01*
G37*
G04 #@! TD*
D31*
G04 #@! TO.C,P4*
X19840213Y11023000D03*
G04 #@! TD*
D22*
G04 #@! TO.C,VOUT17*
X53176000Y89474215D03*
G04 #@! TD*
D39*
G04 #@! TO.C,M2*
X121701003Y21023007D03*
D38*
X121751001Y31373001D03*
X121751001Y30873000D03*
D40*
X122800999Y24323003D03*
X123325999Y25198005D03*
X124075997Y24023001D03*
X127625998Y24098004D03*
G04 #@! TD*
D22*
G04 #@! TO.C,MMCU27*
X107676000Y9273000D03*
G04 #@! TD*
D56*
G04 #@! TO.C,Q10*
X17776000Y84323000D03*
X17776000Y82023000D03*
X17776000Y79723000D03*
D57*
X24076000Y82023000D03*
G04 #@! TD*
D22*
G04 #@! TO.C,VIN22*
X108176000Y64023000D03*
G04 #@! TD*
G04 #@! TO.C,R42*
G36*
G01*
X78906000Y78358000D02*
X78906000Y77988000D01*
G75*
G02*
X78771000Y77853000I-135000J0D01*
G01*
X78501000Y77853000D01*
G75*
G02*
X78366000Y77988000I0J135000D01*
G01*
X78366000Y78358000D01*
G75*
G02*
X78501000Y78493000I135000J0D01*
G01*
X78771000Y78493000D01*
G75*
G02*
X78906000Y78358000I0J-135000D01*
G01*
G37*
G36*
G01*
X77886000Y78358000D02*
X77886000Y77988000D01*
G75*
G02*
X77751000Y77853000I-135000J0D01*
G01*
X77481000Y77853000D01*
G75*
G02*
X77346000Y77988000I0J135000D01*
G01*
X77346000Y78358000D01*
G75*
G02*
X77481000Y78493000I135000J0D01*
G01*
X77751000Y78493000D01*
G75*
G02*
X77886000Y78358000I0J-135000D01*
G01*
G37*
G04 #@! TD*
D21*
G04 #@! TO.C,D36*
X80326000Y63823000D03*
X78226000Y63823000D03*
G04 #@! TD*
G04 #@! TO.C,C9*
G36*
G01*
X57231000Y20528000D02*
X57731000Y20528000D01*
G75*
G02*
X57956000Y20303000I0J-225000D01*
G01*
X57956000Y19853000D01*
G75*
G02*
X57731000Y19628000I-225000J0D01*
G01*
X57231000Y19628000D01*
G75*
G02*
X57006000Y19853000I0J225000D01*
G01*
X57006000Y20303000D01*
G75*
G02*
X57231000Y20528000I225000J0D01*
G01*
G37*
G36*
G01*
X57231000Y18978000D02*
X57731000Y18978000D01*
G75*
G02*
X57956000Y18753000I0J-225000D01*
G01*
X57956000Y18303000D01*
G75*
G02*
X57731000Y18078000I-225000J0D01*
G01*
X57231000Y18078000D01*
G75*
G02*
X57006000Y18303000I0J225000D01*
G01*
X57006000Y18753000D01*
G75*
G02*
X57231000Y18978000I225000J0D01*
G01*
G37*
G04 #@! TD*
D22*
G04 #@! TO.C,VIN2*
X102376000Y82723000D03*
G04 #@! TD*
D58*
G04 #@! TO.C,D33*
X50926000Y41323000D03*
X50926000Y39223000D03*
G04 #@! TD*
G04 #@! TO.C,R17*
G36*
G01*
X137396000Y34838000D02*
X137396000Y35208000D01*
G75*
G02*
X137531000Y35343000I135000J0D01*
G01*
X137801000Y35343000D01*
G75*
G02*
X137936000Y35208000I0J-135000D01*
G01*
X137936000Y34838000D01*
G75*
G02*
X137801000Y34703000I-135000J0D01*
G01*
X137531000Y34703000D01*
G75*
G02*
X137396000Y34838000I0J135000D01*
G01*
G37*
G36*
G01*
X138416000Y34838000D02*
X138416000Y35208000D01*
G75*
G02*
X138551000Y35343000I135000J0D01*
G01*
X138821000Y35343000D01*
G75*
G02*
X138956000Y35208000I0J-135000D01*
G01*
X138956000Y34838000D01*
G75*
G02*
X138821000Y34703000I-135000J0D01*
G01*
X138551000Y34703000D01*
G75*
G02*
X138416000Y34838000I0J135000D01*
G01*
G37*
G04 #@! TD*
D59*
G04 #@! TO.C,D44*
X15176000Y78623000D03*
X15176000Y81923000D03*
G04 #@! TD*
G04 #@! TO.C,R32*
G36*
G01*
X19981000Y88803000D02*
X20351000Y88803000D01*
G75*
G02*
X20486000Y88668000I0J-135000D01*
G01*
X20486000Y88398000D01*
G75*
G02*
X20351000Y88263000I-135000J0D01*
G01*
X19981000Y88263000D01*
G75*
G02*
X19846000Y88398000I0J135000D01*
G01*
X19846000Y88668000D01*
G75*
G02*
X19981000Y88803000I135000J0D01*
G01*
G37*
G36*
G01*
X19981000Y87783000D02*
X20351000Y87783000D01*
G75*
G02*
X20486000Y87648000I0J-135000D01*
G01*
X20486000Y87378000D01*
G75*
G02*
X20351000Y87243000I-135000J0D01*
G01*
X19981000Y87243000D01*
G75*
G02*
X19846000Y87378000I0J135000D01*
G01*
X19846000Y87648000D01*
G75*
G02*
X19981000Y87783000I135000J0D01*
G01*
G37*
G04 #@! TD*
D22*
G04 #@! TO.C,VOUT13*
X65676000Y40273000D03*
G04 #@! TD*
G04 #@! TO.C,C16*
G36*
G01*
X62176000Y39298000D02*
X61676000Y39298000D01*
G75*
G02*
X61451000Y39523000I0J225000D01*
G01*
X61451000Y39973000D01*
G75*
G02*
X61676000Y40198000I225000J0D01*
G01*
X62176000Y40198000D01*
G75*
G02*
X62401000Y39973000I0J-225000D01*
G01*
X62401000Y39523000D01*
G75*
G02*
X62176000Y39298000I-225000J0D01*
G01*
G37*
G36*
G01*
X62176000Y40848000D02*
X61676000Y40848000D01*
G75*
G02*
X61451000Y41073000I0J225000D01*
G01*
X61451000Y41523000D01*
G75*
G02*
X61676000Y41748000I225000J0D01*
G01*
X62176000Y41748000D01*
G75*
G02*
X62401000Y41523000I0J-225000D01*
G01*
X62401000Y41073000D01*
G75*
G02*
X62176000Y40848000I-225000J0D01*
G01*
G37*
G04 #@! TD*
D21*
G04 #@! TO.C,D34*
X64776000Y67323000D03*
X66876000Y67323000D03*
G04 #@! TD*
D31*
G04 #@! TO.C,P1*
X30590213Y11023000D03*
G04 #@! TD*
D58*
G04 #@! TO.C,D32*
X54926000Y39223000D03*
X54926000Y41323000D03*
G04 #@! TD*
G04 #@! TO.C,C18*
G36*
G01*
X56061000Y20583000D02*
X56401000Y20583000D01*
G75*
G02*
X56541000Y20443000I0J-140000D01*
G01*
X56541000Y20163000D01*
G75*
G02*
X56401000Y20023000I-140000J0D01*
G01*
X56061000Y20023000D01*
G75*
G02*
X55921000Y20163000I0J140000D01*
G01*
X55921000Y20443000D01*
G75*
G02*
X56061000Y20583000I140000J0D01*
G01*
G37*
G36*
G01*
X56061000Y19623000D02*
X56401000Y19623000D01*
G75*
G02*
X56541000Y19483000I0J-140000D01*
G01*
X56541000Y19203000D01*
G75*
G02*
X56401000Y19063000I-140000J0D01*
G01*
X56061000Y19063000D01*
G75*
G02*
X55921000Y19203000I0J140000D01*
G01*
X55921000Y19483000D01*
G75*
G02*
X56061000Y19623000I140000J0D01*
G01*
G37*
G04 #@! TD*
D22*
G04 #@! TO.C,MMCU6*
X88926000Y13773000D03*
G04 #@! TD*
M02*
