G04 #@! TF.GenerationSoftware,KiCad,Pcbnew,(5.99.0-12439-g94954386e6)*
G04 #@! TF.CreationDate,2021-09-21T03:19:00+03:00*
G04 #@! TF.ProjectId,hellen88bmw,68656c6c-656e-4383-9862-6d772e6b6963,A*
G04 #@! TF.SameCoordinates,PX3d1b110PY9269338*
G04 #@! TF.FileFunction,Soldermask,Top*
G04 #@! TF.FilePolarity,Negative*
%FSLAX46Y46*%
G04 Gerber Fmt 4.6, Leading zero omitted, Abs format (unit mm)*
G04 Created by KiCad (PCBNEW (5.99.0-12439-g94954386e6)) date 2021-09-21 03:19:00*
%MOMM*%
%LPD*%
G01*
G04 APERTURE LIST*
%ADD10C,0.010000*%
%ADD11R,0.800000X2.200000*%
%ADD12R,2.032000X5.080000*%
%ADD13R,11.430000X7.620000*%
%ADD14C,6.000000*%
%ADD15C,1.524000*%
%ADD16R,2.200000X1.200000*%
%ADD17R,6.400000X5.800000*%
%ADD18R,1.700000X1.700000*%
%ADD19O,1.700000X1.700000*%
%ADD20R,0.640000X2.160000*%
%ADD21C,4.300000*%
%ADD22C,1.650000*%
%ADD23R,0.600000X0.450000*%
%ADD24R,0.850000X0.850000*%
%ADD25R,0.900000X1.200000*%
%ADD26R,1.350000X1.350000*%
%ADD27O,1.350000X1.350000*%
%ADD28C,3.000000*%
%ADD29C,0.800000*%
%ADD30R,1.700000X0.900000*%
%ADD31C,1.700000*%
%ADD32R,0.900000X0.400000*%
%ADD33C,2.000000*%
%ADD34C,1.000000*%
%ADD35O,0.499999X0.250000*%
%ADD36O,0.250000X0.499999*%
%ADD37C,0.599999*%
%ADD38R,0.350000X0.375000*%
%ADD39R,0.375000X0.350000*%
%ADD40O,0.500000X0.250000*%
%ADD41O,0.250000X0.500000*%
%ADD42O,3.700000X2.700000*%
%ADD43O,1.000001X0.499999*%
%ADD44O,1.700000X1.850000*%
%ADD45R,1.100000X1.100000*%
%ADD46C,1.100000*%
%ADD47O,1.100000X2.400000*%
%ADD48C,3.302000*%
%ADD49O,1.000001X1.500000*%
%ADD50O,0.800001X0.599999*%
%ADD51O,0.200000X0.499999*%
%ADD52O,0.200000X0.399999*%
%ADD53R,1.500000X2.000000*%
%ADD54R,3.800000X2.000000*%
%ADD55R,2.000000X1.500000*%
%ADD56R,2.000000X3.800000*%
%ADD57R,0.450000X0.600000*%
%ADD58R,1.200000X0.900000*%
G04 APERTURE END LIST*
D10*
G04 #@! TO.C,U6*
X53480550Y26631400D02*
X53080000Y26631400D01*
X53080000Y26631400D02*
X53080000Y31917320D01*
X53080000Y31917320D02*
X53480550Y31917320D01*
X53480550Y31917320D02*
X53480550Y26631400D01*
G36*
X53480550Y26631400D02*
G01*
X53080000Y26631400D01*
X53080000Y31917320D01*
X53480550Y31917320D01*
X53480550Y26631400D01*
G37*
X53480550Y26631400D02*
X53080000Y26631400D01*
X53080000Y31917320D01*
X53480550Y31917320D01*
X53480550Y26631400D01*
X65284150Y26631400D02*
X64865600Y26631400D01*
X64865600Y26631400D02*
X64865600Y31919860D01*
X64865600Y31919860D02*
X65284150Y31919860D01*
X65284150Y31919860D02*
X65284150Y26631400D01*
G36*
X65284150Y26631400D02*
G01*
X64865600Y26631400D01*
X64865600Y31919860D01*
X65284150Y31919860D01*
X65284150Y26631400D01*
G37*
X65284150Y26631400D02*
X64865600Y26631400D01*
X64865600Y31919860D01*
X65284150Y31919860D01*
X65284150Y26631400D01*
G04 #@! TD*
G04 #@! TO.C,D9*
G36*
G01*
X38138503Y16284498D02*
X38138503Y16764498D01*
G75*
G02*
X38198503Y16824498I60000J0D01*
G01*
X38678503Y16824498D01*
G75*
G02*
X38738503Y16764498I0J-60000D01*
G01*
X38738503Y16284498D01*
G75*
G02*
X38678503Y16224498I-60000J0D01*
G01*
X38198503Y16224498D01*
G75*
G02*
X38138503Y16284498I0J60000D01*
G01*
G37*
G36*
G01*
X38138503Y18484498D02*
X38138503Y18964498D01*
G75*
G02*
X38198503Y19024498I60000J0D01*
G01*
X38678503Y19024498D01*
G75*
G02*
X38738503Y18964498I0J-60000D01*
G01*
X38738503Y18484498D01*
G75*
G02*
X38678503Y18424498I-60000J0D01*
G01*
X38198503Y18424498D01*
G75*
G02*
X38138503Y18484498I0J60000D01*
G01*
G37*
G04 #@! TD*
D11*
G04 #@! TO.C,U6*
X64891000Y35873000D03*
X63621000Y35873000D03*
X62351000Y35873000D03*
X61081000Y35873000D03*
X59811000Y35873000D03*
X58541000Y35873000D03*
X57271000Y35873000D03*
X56001000Y35873000D03*
X54731000Y35873000D03*
X53461000Y35873000D03*
X53461000Y22673000D03*
X54731000Y22673000D03*
X56001000Y22673000D03*
X57271000Y22673000D03*
X58541000Y22673000D03*
X59811000Y22673000D03*
X61081000Y22673000D03*
X62351000Y22673000D03*
X63621000Y22673000D03*
X64891000Y22673000D03*
D12*
X66288000Y29273000D03*
D13*
X59176000Y29273000D03*
D12*
X52064000Y29273000D03*
G04 #@! TD*
D14*
G04 #@! TO.C,PP1*
X7632400Y113856400D03*
X153342400Y113606400D03*
D15*
X27142400Y111606400D03*
X32142400Y111606400D03*
X37142400Y111606400D03*
X42142400Y111606400D03*
X47142400Y111606400D03*
X52142400Y111606400D03*
X56892400Y110856400D03*
X60142400Y110856400D03*
X63392400Y110856400D03*
X66642400Y110856400D03*
X69892400Y110856400D03*
X73142400Y110856400D03*
X76392400Y110856400D03*
X79642400Y110856400D03*
X82892400Y110856400D03*
X86142400Y110856400D03*
X89392400Y110856400D03*
X92642400Y110856400D03*
X95892400Y110856400D03*
X99142400Y110856400D03*
X102392400Y110856400D03*
X107392400Y111606400D03*
X112392400Y111606400D03*
X117392400Y111606400D03*
X122392400Y111606400D03*
X127392400Y111606400D03*
X132392400Y111606400D03*
X137392400Y111606400D03*
X29642400Y111606400D03*
X34642400Y111606400D03*
X39642400Y111606400D03*
X44642400Y111606400D03*
X49642400Y111606400D03*
X54642400Y111606400D03*
X58642400Y112356400D03*
X61892400Y112356400D03*
X65142400Y112356400D03*
X68392400Y112356400D03*
X71642400Y112356400D03*
X74892400Y112356400D03*
X78142400Y112356400D03*
X81392400Y112356400D03*
X84642400Y112356400D03*
X87892400Y112356400D03*
X91142400Y112356400D03*
X94392400Y112356400D03*
X97642400Y112356400D03*
X100892400Y112356400D03*
X104892400Y111606400D03*
X109892400Y111606400D03*
X114892400Y111606400D03*
X119892400Y111606400D03*
X124892400Y111606400D03*
X129892400Y111606400D03*
X134892400Y111606400D03*
X29392400Y105356400D03*
X32642400Y105356400D03*
X35892400Y105356400D03*
X39142400Y105356400D03*
X42392400Y105356400D03*
X45642400Y105356400D03*
X48892400Y105356400D03*
X52142400Y105356400D03*
X55392400Y105356400D03*
X58642400Y105356400D03*
X61892400Y105356400D03*
X65142400Y105356400D03*
X68392400Y105356400D03*
X71642400Y105356400D03*
X74892400Y105356400D03*
X78142400Y105356400D03*
X81392400Y105356400D03*
X84642400Y105356400D03*
X87892400Y105356400D03*
X91142400Y105356400D03*
X94392400Y105356400D03*
X97642400Y105356400D03*
X100892400Y105356400D03*
X104142400Y105356400D03*
X107392400Y105356400D03*
X110642400Y105356400D03*
X113892400Y105356400D03*
X117142400Y105356400D03*
X120392400Y105356400D03*
X123642400Y105356400D03*
X126892400Y105356400D03*
X130142400Y105356400D03*
X133392400Y105356400D03*
G04 #@! TD*
G04 #@! TO.C,JP1*
X20926000Y100428000D03*
G36*
G01*
X20301000Y99973001D02*
X21551000Y99973001D01*
G75*
G02*
X21651000Y99873001I0J-100000D01*
G01*
X21651000Y99073001D01*
G75*
G02*
X21551000Y98973001I-100000J0D01*
G01*
X20301000Y98973001D01*
G75*
G02*
X20201000Y99073001I0J100000D01*
G01*
X20201000Y99873001D01*
G75*
G02*
X20301000Y99973001I100000J0D01*
G01*
G37*
G36*
G01*
X20301000Y98072979D02*
X21551000Y98072979D01*
G75*
G02*
X21651000Y97972979I0J-100000D01*
G01*
X21651000Y97172979D01*
G75*
G02*
X21551000Y97072979I-100000J0D01*
G01*
X20301000Y97072979D01*
G75*
G02*
X20201000Y97172979I0J100000D01*
G01*
X20201000Y97972979D01*
G75*
G02*
X20301000Y98072979I100000J0D01*
G01*
G37*
X20926000Y96618000D03*
G04 #@! TD*
G04 #@! TO.C,JP3*
X30176000Y100428000D03*
G36*
G01*
X29551000Y99973001D02*
X30801000Y99973001D01*
G75*
G02*
X30901000Y99873001I0J-100000D01*
G01*
X30901000Y99073001D01*
G75*
G02*
X30801000Y98973001I-100000J0D01*
G01*
X29551000Y98973001D01*
G75*
G02*
X29451000Y99073001I0J100000D01*
G01*
X29451000Y99873001D01*
G75*
G02*
X29551000Y99973001I100000J0D01*
G01*
G37*
G36*
G01*
X29551000Y98072979D02*
X30801000Y98072979D01*
G75*
G02*
X30901000Y97972979I0J-100000D01*
G01*
X30901000Y97172979D01*
G75*
G02*
X30801000Y97072979I-100000J0D01*
G01*
X29551000Y97072979D01*
G75*
G02*
X29451000Y97172979I0J100000D01*
G01*
X29451000Y97972979D01*
G75*
G02*
X29551000Y98072979I100000J0D01*
G01*
G37*
X30176000Y96618000D03*
G04 #@! TD*
G04 #@! TO.C,JP4*
G36*
G01*
X35051000Y99973001D02*
X36301000Y99973001D01*
G75*
G02*
X36401000Y99873001I0J-100000D01*
G01*
X36401000Y99073001D01*
G75*
G02*
X36301000Y98973001I-100000J0D01*
G01*
X35051000Y98973001D01*
G75*
G02*
X34951000Y99073001I0J100000D01*
G01*
X34951000Y99873001D01*
G75*
G02*
X35051000Y99973001I100000J0D01*
G01*
G37*
X35676000Y100428000D03*
X35676000Y96618000D03*
G36*
G01*
X35051000Y98072979D02*
X36301000Y98072979D01*
G75*
G02*
X36401000Y97972979I0J-100000D01*
G01*
X36401000Y97172979D01*
G75*
G02*
X36301000Y97072979I-100000J0D01*
G01*
X35051000Y97072979D01*
G75*
G02*
X34951000Y97172979I0J100000D01*
G01*
X34951000Y97972979D01*
G75*
G02*
X35051000Y98072979I100000J0D01*
G01*
G37*
G04 #@! TD*
G04 #@! TO.C,JP5*
X45176000Y100428000D03*
G36*
G01*
X44551000Y99973001D02*
X45801000Y99973001D01*
G75*
G02*
X45901000Y99873001I0J-100000D01*
G01*
X45901000Y99073001D01*
G75*
G02*
X45801000Y98973001I-100000J0D01*
G01*
X44551000Y98973001D01*
G75*
G02*
X44451000Y99073001I0J100000D01*
G01*
X44451000Y99873001D01*
G75*
G02*
X44551000Y99973001I100000J0D01*
G01*
G37*
X45176000Y96618000D03*
G36*
G01*
X44551000Y98072979D02*
X45801000Y98072979D01*
G75*
G02*
X45901000Y97972979I0J-100000D01*
G01*
X45901000Y97172979D01*
G75*
G02*
X45801000Y97072979I-100000J0D01*
G01*
X44551000Y97072979D01*
G75*
G02*
X44451000Y97172979I0J100000D01*
G01*
X44451000Y97972979D01*
G75*
G02*
X44551000Y98072979I100000J0D01*
G01*
G37*
G04 #@! TD*
G04 #@! TO.C,JP7*
G36*
G01*
X51301000Y99973001D02*
X52551000Y99973001D01*
G75*
G02*
X52651000Y99873001I0J-100000D01*
G01*
X52651000Y99073001D01*
G75*
G02*
X52551000Y98973001I-100000J0D01*
G01*
X51301000Y98973001D01*
G75*
G02*
X51201000Y99073001I0J100000D01*
G01*
X51201000Y99873001D01*
G75*
G02*
X51301000Y99973001I100000J0D01*
G01*
G37*
X51926000Y100428000D03*
G36*
G01*
X51301000Y98072979D02*
X52551000Y98072979D01*
G75*
G02*
X52651000Y97972979I0J-100000D01*
G01*
X52651000Y97172979D01*
G75*
G02*
X52551000Y97072979I-100000J0D01*
G01*
X51301000Y97072979D01*
G75*
G02*
X51201000Y97172979I0J100000D01*
G01*
X51201000Y97972979D01*
G75*
G02*
X51301000Y98072979I100000J0D01*
G01*
G37*
X51926000Y96618000D03*
G04 #@! TD*
G04 #@! TO.C,JP16*
X85176000Y100428000D03*
G36*
G01*
X84551000Y99973001D02*
X85801000Y99973001D01*
G75*
G02*
X85901000Y99873001I0J-100000D01*
G01*
X85901000Y99073001D01*
G75*
G02*
X85801000Y98973001I-100000J0D01*
G01*
X84551000Y98973001D01*
G75*
G02*
X84451000Y99073001I0J100000D01*
G01*
X84451000Y99873001D01*
G75*
G02*
X84551000Y99973001I100000J0D01*
G01*
G37*
G36*
G01*
X84551000Y98072979D02*
X85801000Y98072979D01*
G75*
G02*
X85901000Y97972979I0J-100000D01*
G01*
X85901000Y97172979D01*
G75*
G02*
X85801000Y97072979I-100000J0D01*
G01*
X84551000Y97072979D01*
G75*
G02*
X84451000Y97172979I0J100000D01*
G01*
X84451000Y97972979D01*
G75*
G02*
X84551000Y98072979I100000J0D01*
G01*
G37*
X85176000Y96618000D03*
G04 #@! TD*
G04 #@! TO.C,JP17*
G36*
G01*
X87301000Y99973001D02*
X88551000Y99973001D01*
G75*
G02*
X88651000Y99873001I0J-100000D01*
G01*
X88651000Y99073001D01*
G75*
G02*
X88551000Y98973001I-100000J0D01*
G01*
X87301000Y98973001D01*
G75*
G02*
X87201000Y99073001I0J100000D01*
G01*
X87201000Y99873001D01*
G75*
G02*
X87301000Y99973001I100000J0D01*
G01*
G37*
X87926000Y100428000D03*
G36*
G01*
X87301000Y98072979D02*
X88551000Y98072979D01*
G75*
G02*
X88651000Y97972979I0J-100000D01*
G01*
X88651000Y97172979D01*
G75*
G02*
X88551000Y97072979I-100000J0D01*
G01*
X87301000Y97072979D01*
G75*
G02*
X87201000Y97172979I0J100000D01*
G01*
X87201000Y97972979D01*
G75*
G02*
X87301000Y98072979I100000J0D01*
G01*
G37*
X87926000Y96618000D03*
G04 #@! TD*
G04 #@! TO.C,JP20*
G36*
G01*
X94301000Y92473001D02*
X95551000Y92473001D01*
G75*
G02*
X95651000Y92373001I0J-100000D01*
G01*
X95651000Y91573001D01*
G75*
G02*
X95551000Y91473001I-100000J0D01*
G01*
X94301000Y91473001D01*
G75*
G02*
X94201000Y91573001I0J100000D01*
G01*
X94201000Y92373001D01*
G75*
G02*
X94301000Y92473001I100000J0D01*
G01*
G37*
X94926000Y92928000D03*
X94926000Y89118000D03*
G36*
G01*
X94301000Y90572979D02*
X95551000Y90572979D01*
G75*
G02*
X95651000Y90472979I0J-100000D01*
G01*
X95651000Y89672979D01*
G75*
G02*
X95551000Y89572979I-100000J0D01*
G01*
X94301000Y89572979D01*
G75*
G02*
X94201000Y89672979I0J100000D01*
G01*
X94201000Y90472979D01*
G75*
G02*
X94301000Y90572979I100000J0D01*
G01*
G37*
G04 #@! TD*
G04 #@! TO.C,JP21*
X98176000Y92928000D03*
G36*
G01*
X97551000Y92473001D02*
X98801000Y92473001D01*
G75*
G02*
X98901000Y92373001I0J-100000D01*
G01*
X98901000Y91573001D01*
G75*
G02*
X98801000Y91473001I-100000J0D01*
G01*
X97551000Y91473001D01*
G75*
G02*
X97451000Y91573001I0J100000D01*
G01*
X97451000Y92373001D01*
G75*
G02*
X97551000Y92473001I100000J0D01*
G01*
G37*
G36*
G01*
X97551000Y90572979D02*
X98801000Y90572979D01*
G75*
G02*
X98901000Y90472979I0J-100000D01*
G01*
X98901000Y89672979D01*
G75*
G02*
X98801000Y89572979I-100000J0D01*
G01*
X97551000Y89572979D01*
G75*
G02*
X97451000Y89672979I0J100000D01*
G01*
X97451000Y90472979D01*
G75*
G02*
X97551000Y90572979I100000J0D01*
G01*
G37*
X98176000Y89118000D03*
G04 #@! TD*
G04 #@! TO.C,JP26*
G36*
G01*
X129301000Y99973001D02*
X130551000Y99973001D01*
G75*
G02*
X130651000Y99873001I0J-100000D01*
G01*
X130651000Y99073001D01*
G75*
G02*
X130551000Y98973001I-100000J0D01*
G01*
X129301000Y98973001D01*
G75*
G02*
X129201000Y99073001I0J100000D01*
G01*
X129201000Y99873001D01*
G75*
G02*
X129301000Y99973001I100000J0D01*
G01*
G37*
X129926000Y100428000D03*
G36*
G01*
X129301000Y98072979D02*
X130551000Y98072979D01*
G75*
G02*
X130651000Y97972979I0J-100000D01*
G01*
X130651000Y97172979D01*
G75*
G02*
X130551000Y97072979I-100000J0D01*
G01*
X129301000Y97072979D01*
G75*
G02*
X129201000Y97172979I0J100000D01*
G01*
X129201000Y97972979D01*
G75*
G02*
X129301000Y98072979I100000J0D01*
G01*
G37*
X129926000Y96618000D03*
G04 #@! TD*
G04 #@! TO.C,JP27*
X135926000Y100428000D03*
G36*
G01*
X135301000Y99973001D02*
X136551000Y99973001D01*
G75*
G02*
X136651000Y99873001I0J-100000D01*
G01*
X136651000Y99073001D01*
G75*
G02*
X136551000Y98973001I-100000J0D01*
G01*
X135301000Y98973001D01*
G75*
G02*
X135201000Y99073001I0J100000D01*
G01*
X135201000Y99873001D01*
G75*
G02*
X135301000Y99973001I100000J0D01*
G01*
G37*
G36*
G01*
X135301000Y98072979D02*
X136551000Y98072979D01*
G75*
G02*
X136651000Y97972979I0J-100000D01*
G01*
X136651000Y97172979D01*
G75*
G02*
X136551000Y97072979I-100000J0D01*
G01*
X135301000Y97072979D01*
G75*
G02*
X135201000Y97172979I0J100000D01*
G01*
X135201000Y97972979D01*
G75*
G02*
X135301000Y98072979I100000J0D01*
G01*
G37*
X135926000Y96618000D03*
G04 #@! TD*
G04 #@! TO.C,JP29*
X23676000Y100428000D03*
G36*
G01*
X23051000Y99973001D02*
X24301000Y99973001D01*
G75*
G02*
X24401000Y99873001I0J-100000D01*
G01*
X24401000Y99073001D01*
G75*
G02*
X24301000Y98973001I-100000J0D01*
G01*
X23051000Y98973001D01*
G75*
G02*
X22951000Y99073001I0J100000D01*
G01*
X22951000Y99873001D01*
G75*
G02*
X23051000Y99973001I100000J0D01*
G01*
G37*
G36*
G01*
X23051000Y98072979D02*
X24301000Y98072979D01*
G75*
G02*
X24401000Y97972979I0J-100000D01*
G01*
X24401000Y97172979D01*
G75*
G02*
X24301000Y97072979I-100000J0D01*
G01*
X23051000Y97072979D01*
G75*
G02*
X22951000Y97172979I0J100000D01*
G01*
X22951000Y97972979D01*
G75*
G02*
X23051000Y98072979I100000J0D01*
G01*
G37*
X23676000Y96618000D03*
G04 #@! TD*
G04 #@! TO.C,JP31*
G36*
G01*
X32301000Y99973001D02*
X33551000Y99973001D01*
G75*
G02*
X33651000Y99873001I0J-100000D01*
G01*
X33651000Y99073001D01*
G75*
G02*
X33551000Y98973001I-100000J0D01*
G01*
X32301000Y98973001D01*
G75*
G02*
X32201000Y99073001I0J100000D01*
G01*
X32201000Y99873001D01*
G75*
G02*
X32301000Y99973001I100000J0D01*
G01*
G37*
X32926000Y100428000D03*
X32926000Y96618000D03*
G36*
G01*
X32301000Y98072979D02*
X33551000Y98072979D01*
G75*
G02*
X33651000Y97972979I0J-100000D01*
G01*
X33651000Y97172979D01*
G75*
G02*
X33551000Y97072979I-100000J0D01*
G01*
X32301000Y97072979D01*
G75*
G02*
X32201000Y97172979I0J100000D01*
G01*
X32201000Y97972979D01*
G75*
G02*
X32301000Y98072979I100000J0D01*
G01*
G37*
G04 #@! TD*
G04 #@! TO.C,JP32*
X41176000Y100428000D03*
G36*
G01*
X40551000Y99973001D02*
X41801000Y99973001D01*
G75*
G02*
X41901000Y99873001I0J-100000D01*
G01*
X41901000Y99073001D01*
G75*
G02*
X41801000Y98973001I-100000J0D01*
G01*
X40551000Y98973001D01*
G75*
G02*
X40451000Y99073001I0J100000D01*
G01*
X40451000Y99873001D01*
G75*
G02*
X40551000Y99973001I100000J0D01*
G01*
G37*
X41176000Y96618000D03*
G36*
G01*
X40551000Y98072979D02*
X41801000Y98072979D01*
G75*
G02*
X41901000Y97972979I0J-100000D01*
G01*
X41901000Y97172979D01*
G75*
G02*
X41801000Y97072979I-100000J0D01*
G01*
X40551000Y97072979D01*
G75*
G02*
X40451000Y97172979I0J100000D01*
G01*
X40451000Y97972979D01*
G75*
G02*
X40551000Y98072979I100000J0D01*
G01*
G37*
G04 #@! TD*
G04 #@! TO.C,JP33*
G36*
G01*
X47301000Y99973001D02*
X48551000Y99973001D01*
G75*
G02*
X48651000Y99873001I0J-100000D01*
G01*
X48651000Y99073001D01*
G75*
G02*
X48551000Y98973001I-100000J0D01*
G01*
X47301000Y98973001D01*
G75*
G02*
X47201000Y99073001I0J100000D01*
G01*
X47201000Y99873001D01*
G75*
G02*
X47301000Y99973001I100000J0D01*
G01*
G37*
X47926000Y100428000D03*
G36*
G01*
X47301000Y98072979D02*
X48551000Y98072979D01*
G75*
G02*
X48651000Y97972979I0J-100000D01*
G01*
X48651000Y97172979D01*
G75*
G02*
X48551000Y97072979I-100000J0D01*
G01*
X47301000Y97072979D01*
G75*
G02*
X47201000Y97172979I0J100000D01*
G01*
X47201000Y97972979D01*
G75*
G02*
X47301000Y98072979I100000J0D01*
G01*
G37*
X47926000Y96618000D03*
G04 #@! TD*
G04 #@! TO.C,JP35*
G36*
G01*
X56701000Y98072979D02*
X57951000Y98072979D01*
G75*
G02*
X58051000Y97972979I0J-100000D01*
G01*
X58051000Y97172979D01*
G75*
G02*
X57951000Y97072979I-100000J0D01*
G01*
X56701000Y97072979D01*
G75*
G02*
X56601000Y97172979I0J100000D01*
G01*
X56601000Y97972979D01*
G75*
G02*
X56701000Y98072979I100000J0D01*
G01*
G37*
X57326000Y96618000D03*
G36*
G01*
X56701000Y99973001D02*
X57951000Y99973001D01*
G75*
G02*
X58051000Y99873001I0J-100000D01*
G01*
X58051000Y99073001D01*
G75*
G02*
X57951000Y98973001I-100000J0D01*
G01*
X56701000Y98973001D01*
G75*
G02*
X56601000Y99073001I0J100000D01*
G01*
X56601000Y99873001D01*
G75*
G02*
X56701000Y99973001I100000J0D01*
G01*
G37*
X57326000Y100428000D03*
G04 #@! TD*
G04 #@! TO.C,JP41*
X77926000Y89118000D03*
G36*
G01*
X77301000Y90572979D02*
X78551000Y90572979D01*
G75*
G02*
X78651000Y90472979I0J-100000D01*
G01*
X78651000Y89672979D01*
G75*
G02*
X78551000Y89572979I-100000J0D01*
G01*
X77301000Y89572979D01*
G75*
G02*
X77201000Y89672979I0J100000D01*
G01*
X77201000Y90472979D01*
G75*
G02*
X77301000Y90572979I100000J0D01*
G01*
G37*
X77926000Y92928000D03*
G36*
G01*
X77301000Y92473001D02*
X78551000Y92473001D01*
G75*
G02*
X78651000Y92373001I0J-100000D01*
G01*
X78651000Y91573001D01*
G75*
G02*
X78551000Y91473001I-100000J0D01*
G01*
X77301000Y91473001D01*
G75*
G02*
X77201000Y91573001I0J100000D01*
G01*
X77201000Y92373001D01*
G75*
G02*
X77301000Y92473001I100000J0D01*
G01*
G37*
G04 #@! TD*
G04 #@! TO.C,JP42*
X80726000Y92928000D03*
G36*
G01*
X80101000Y92473001D02*
X81351000Y92473001D01*
G75*
G02*
X81451000Y92373001I0J-100000D01*
G01*
X81451000Y91573001D01*
G75*
G02*
X81351000Y91473001I-100000J0D01*
G01*
X80101000Y91473001D01*
G75*
G02*
X80001000Y91573001I0J100000D01*
G01*
X80001000Y92373001D01*
G75*
G02*
X80101000Y92473001I100000J0D01*
G01*
G37*
G36*
G01*
X80101000Y90572979D02*
X81351000Y90572979D01*
G75*
G02*
X81451000Y90472979I0J-100000D01*
G01*
X81451000Y89672979D01*
G75*
G02*
X81351000Y89572979I-100000J0D01*
G01*
X80101000Y89572979D01*
G75*
G02*
X80001000Y89672979I0J100000D01*
G01*
X80001000Y90472979D01*
G75*
G02*
X80101000Y90572979I100000J0D01*
G01*
G37*
X80726000Y89118000D03*
G04 #@! TD*
G04 #@! TO.C,JP43*
G36*
G01*
X81801000Y99973001D02*
X83051000Y99973001D01*
G75*
G02*
X83151000Y99873001I0J-100000D01*
G01*
X83151000Y99073001D01*
G75*
G02*
X83051000Y98973001I-100000J0D01*
G01*
X81801000Y98973001D01*
G75*
G02*
X81701000Y99073001I0J100000D01*
G01*
X81701000Y99873001D01*
G75*
G02*
X81801000Y99973001I100000J0D01*
G01*
G37*
X82426000Y100428000D03*
X82426000Y96618000D03*
G36*
G01*
X81801000Y98072979D02*
X83051000Y98072979D01*
G75*
G02*
X83151000Y97972979I0J-100000D01*
G01*
X83151000Y97172979D01*
G75*
G02*
X83051000Y97072979I-100000J0D01*
G01*
X81801000Y97072979D01*
G75*
G02*
X81701000Y97172979I0J100000D01*
G01*
X81701000Y97972979D01*
G75*
G02*
X81801000Y98072979I100000J0D01*
G01*
G37*
G04 #@! TD*
G04 #@! TO.C,JP46*
X89426000Y92928000D03*
G36*
G01*
X88801000Y92473001D02*
X90051000Y92473001D01*
G75*
G02*
X90151000Y92373001I0J-100000D01*
G01*
X90151000Y91573001D01*
G75*
G02*
X90051000Y91473001I-100000J0D01*
G01*
X88801000Y91473001D01*
G75*
G02*
X88701000Y91573001I0J100000D01*
G01*
X88701000Y92373001D01*
G75*
G02*
X88801000Y92473001I100000J0D01*
G01*
G37*
G36*
G01*
X88801000Y90572979D02*
X90051000Y90572979D01*
G75*
G02*
X90151000Y90472979I0J-100000D01*
G01*
X90151000Y89672979D01*
G75*
G02*
X90051000Y89572979I-100000J0D01*
G01*
X88801000Y89572979D01*
G75*
G02*
X88701000Y89672979I0J100000D01*
G01*
X88701000Y90472979D01*
G75*
G02*
X88801000Y90572979I100000J0D01*
G01*
G37*
X89426000Y89118000D03*
G04 #@! TD*
G04 #@! TO.C,JP47*
G36*
G01*
X91551000Y92473001D02*
X92801000Y92473001D01*
G75*
G02*
X92901000Y92373001I0J-100000D01*
G01*
X92901000Y91573001D01*
G75*
G02*
X92801000Y91473001I-100000J0D01*
G01*
X91551000Y91473001D01*
G75*
G02*
X91451000Y91573001I0J100000D01*
G01*
X91451000Y92373001D01*
G75*
G02*
X91551000Y92473001I100000J0D01*
G01*
G37*
X92176000Y92928000D03*
X92176000Y89118000D03*
G36*
G01*
X91551000Y90572979D02*
X92801000Y90572979D01*
G75*
G02*
X92901000Y90472979I0J-100000D01*
G01*
X92901000Y89672979D01*
G75*
G02*
X92801000Y89572979I-100000J0D01*
G01*
X91551000Y89572979D01*
G75*
G02*
X91451000Y89672979I0J100000D01*
G01*
X91451000Y90472979D01*
G75*
G02*
X91551000Y90572979I100000J0D01*
G01*
G37*
G04 #@! TD*
G04 #@! TO.C,JP54*
G36*
G01*
X131776000Y100178010D02*
X131776000Y100868010D01*
G75*
G02*
X132006000Y101098010I230000J0D01*
G01*
X133346000Y101098010D01*
G75*
G02*
X133576000Y100868010I0J-230000D01*
G01*
X133576000Y100178010D01*
G75*
G02*
X133346000Y99948010I-230000J0D01*
G01*
X132006000Y99948010D01*
G75*
G02*
X131776000Y100178010I0J230000D01*
G01*
G37*
X132676000Y101523000D03*
X132676000Y96623000D03*
G36*
G01*
X131776000Y97277990D02*
X131776000Y97967990D01*
G75*
G02*
X132006000Y98197990I230000J0D01*
G01*
X133346000Y98197990D01*
G75*
G02*
X133576000Y97967990I0J-230000D01*
G01*
X133576000Y97277990D01*
G75*
G02*
X133346000Y97047990I-230000J0D01*
G01*
X132006000Y97047990D01*
G75*
G02*
X131776000Y97277990I0J230000D01*
G01*
G37*
G04 #@! TD*
G04 #@! TO.C,JP56*
G36*
G01*
X26526000Y99628010D02*
X26526000Y100318010D01*
G75*
G02*
X26756000Y100548010I230000J0D01*
G01*
X28096000Y100548010D01*
G75*
G02*
X28326000Y100318010I0J-230000D01*
G01*
X28326000Y99628010D01*
G75*
G02*
X28096000Y99398010I-230000J0D01*
G01*
X26756000Y99398010D01*
G75*
G02*
X26526000Y99628010I0J230000D01*
G01*
G37*
X27426000Y100973000D03*
X27426000Y96073000D03*
G36*
G01*
X26526000Y96727990D02*
X26526000Y97417990D01*
G75*
G02*
X26756000Y97647990I230000J0D01*
G01*
X28096000Y97647990D01*
G75*
G02*
X28326000Y97417990I0J-230000D01*
G01*
X28326000Y96727990D01*
G75*
G02*
X28096000Y96497990I-230000J0D01*
G01*
X26756000Y96497990D01*
G75*
G02*
X26526000Y96727990I0J230000D01*
G01*
G37*
G04 #@! TD*
G04 #@! TO.C,JP73*
X83926000Y92928000D03*
G36*
G01*
X83301000Y92473001D02*
X84551000Y92473001D01*
G75*
G02*
X84651000Y92373001I0J-100000D01*
G01*
X84651000Y91573001D01*
G75*
G02*
X84551000Y91473001I-100000J0D01*
G01*
X83301000Y91473001D01*
G75*
G02*
X83201000Y91573001I0J100000D01*
G01*
X83201000Y92373001D01*
G75*
G02*
X83301000Y92473001I100000J0D01*
G01*
G37*
X83926000Y89118000D03*
G36*
G01*
X83301000Y90572979D02*
X84551000Y90572979D01*
G75*
G02*
X84651000Y90472979I0J-100000D01*
G01*
X84651000Y89672979D01*
G75*
G02*
X84551000Y89572979I-100000J0D01*
G01*
X83301000Y89572979D01*
G75*
G02*
X83201000Y89672979I0J100000D01*
G01*
X83201000Y90472979D01*
G75*
G02*
X83301000Y90572979I100000J0D01*
G01*
G37*
G04 #@! TD*
G04 #@! TO.C,JP77*
G36*
G01*
X94301000Y99973001D02*
X95551000Y99973001D01*
G75*
G02*
X95651000Y99873001I0J-100000D01*
G01*
X95651000Y99073001D01*
G75*
G02*
X95551000Y98973001I-100000J0D01*
G01*
X94301000Y98973001D01*
G75*
G02*
X94201000Y99073001I0J100000D01*
G01*
X94201000Y99873001D01*
G75*
G02*
X94301000Y99973001I100000J0D01*
G01*
G37*
X94926000Y100428000D03*
G36*
G01*
X94301000Y98072979D02*
X95551000Y98072979D01*
G75*
G02*
X95651000Y97972979I0J-100000D01*
G01*
X95651000Y97172979D01*
G75*
G02*
X95551000Y97072979I-100000J0D01*
G01*
X94301000Y97072979D01*
G75*
G02*
X94201000Y97172979I0J100000D01*
G01*
X94201000Y97972979D01*
G75*
G02*
X94301000Y98072979I100000J0D01*
G01*
G37*
X94926000Y96618000D03*
G04 #@! TD*
G04 #@! TO.C,JP78*
X100926000Y100428000D03*
G36*
G01*
X100301000Y99973001D02*
X101551000Y99973001D01*
G75*
G02*
X101651000Y99873001I0J-100000D01*
G01*
X101651000Y99073001D01*
G75*
G02*
X101551000Y98973001I-100000J0D01*
G01*
X100301000Y98973001D01*
G75*
G02*
X100201000Y99073001I0J100000D01*
G01*
X100201000Y99873001D01*
G75*
G02*
X100301000Y99973001I100000J0D01*
G01*
G37*
G36*
G01*
X100301000Y98072979D02*
X101551000Y98072979D01*
G75*
G02*
X101651000Y97972979I0J-100000D01*
G01*
X101651000Y97172979D01*
G75*
G02*
X101551000Y97072979I-100000J0D01*
G01*
X100301000Y97072979D01*
G75*
G02*
X100201000Y97172979I0J100000D01*
G01*
X100201000Y97972979D01*
G75*
G02*
X100301000Y98072979I100000J0D01*
G01*
G37*
X100926000Y96618000D03*
G04 #@! TD*
G04 #@! TO.C,JP85*
G36*
G01*
X131751000Y92473001D02*
X133001000Y92473001D01*
G75*
G02*
X133101000Y92373001I0J-100000D01*
G01*
X133101000Y91573001D01*
G75*
G02*
X133001000Y91473001I-100000J0D01*
G01*
X131751000Y91473001D01*
G75*
G02*
X131651000Y91573001I0J100000D01*
G01*
X131651000Y92373001D01*
G75*
G02*
X131751000Y92473001I100000J0D01*
G01*
G37*
X132376000Y92928000D03*
X132376000Y89118000D03*
G36*
G01*
X131751000Y90572979D02*
X133001000Y90572979D01*
G75*
G02*
X133101000Y90472979I0J-100000D01*
G01*
X133101000Y89672979D01*
G75*
G02*
X133001000Y89572979I-100000J0D01*
G01*
X131751000Y89572979D01*
G75*
G02*
X131651000Y89672979I0J100000D01*
G01*
X131651000Y90472979D01*
G75*
G02*
X131751000Y90572979I100000J0D01*
G01*
G37*
G04 #@! TD*
G04 #@! TO.C,JP86*
X129626000Y92928000D03*
G36*
G01*
X129001000Y92473001D02*
X130251000Y92473001D01*
G75*
G02*
X130351000Y92373001I0J-100000D01*
G01*
X130351000Y91573001D01*
G75*
G02*
X130251000Y91473001I-100000J0D01*
G01*
X129001000Y91473001D01*
G75*
G02*
X128901000Y91573001I0J100000D01*
G01*
X128901000Y92373001D01*
G75*
G02*
X129001000Y92473001I100000J0D01*
G01*
G37*
G36*
G01*
X129001000Y90572979D02*
X130251000Y90572979D01*
G75*
G02*
X130351000Y90472979I0J-100000D01*
G01*
X130351000Y89672979D01*
G75*
G02*
X130251000Y89572979I-100000J0D01*
G01*
X129001000Y89572979D01*
G75*
G02*
X128901000Y89672979I0J100000D01*
G01*
X128901000Y90472979D01*
G75*
G02*
X129001000Y90572979I100000J0D01*
G01*
G37*
X129626000Y89118000D03*
G04 #@! TD*
G04 #@! TO.C,JP59*
X38426000Y100428000D03*
G36*
G01*
X37801000Y99973001D02*
X39051000Y99973001D01*
G75*
G02*
X39151000Y99873001I0J-100000D01*
G01*
X39151000Y99073001D01*
G75*
G02*
X39051000Y98973001I-100000J0D01*
G01*
X37801000Y98973001D01*
G75*
G02*
X37701000Y99073001I0J100000D01*
G01*
X37701000Y99873001D01*
G75*
G02*
X37801000Y99973001I100000J0D01*
G01*
G37*
X38426000Y96618000D03*
G36*
G01*
X37801000Y98072979D02*
X39051000Y98072979D01*
G75*
G02*
X39151000Y97972979I0J-100000D01*
G01*
X39151000Y97172979D01*
G75*
G02*
X39051000Y97072979I-100000J0D01*
G01*
X37801000Y97072979D01*
G75*
G02*
X37701000Y97172979I0J100000D01*
G01*
X37701000Y97972979D01*
G75*
G02*
X37801000Y98072979I100000J0D01*
G01*
G37*
G04 #@! TD*
D16*
G04 #@! TO.C,Q1*
X139726000Y32303000D03*
D17*
X146026000Y30023000D03*
D16*
X139726000Y27743000D03*
G04 #@! TD*
G04 #@! TO.C,Q6*
X139726000Y92303000D03*
D17*
X146026000Y90023000D03*
D16*
X139726000Y87743000D03*
G04 #@! TD*
G04 #@! TO.C,Q2*
X139726000Y42303000D03*
D17*
X146026000Y40023000D03*
D16*
X139726000Y37743000D03*
G04 #@! TD*
G04 #@! TO.C,Q5*
X139726000Y82303000D03*
D17*
X146026000Y80023000D03*
D16*
X139726000Y77743000D03*
G04 #@! TD*
G04 #@! TO.C,Q3*
X139726000Y62803000D03*
D17*
X146026000Y60523000D03*
D16*
X139726000Y58243000D03*
G04 #@! TD*
G04 #@! TO.C,Q4*
X139726000Y72803000D03*
D17*
X146026000Y70523000D03*
D16*
X139726000Y68243000D03*
G04 #@! TD*
G04 #@! TO.C,C1*
G36*
G01*
X42756000Y26033000D02*
X43096000Y26033000D01*
G75*
G02*
X43236000Y25893000I0J-140000D01*
G01*
X43236000Y25613000D01*
G75*
G02*
X43096000Y25473000I-140000J0D01*
G01*
X42756000Y25473000D01*
G75*
G02*
X42616000Y25613000I0J140000D01*
G01*
X42616000Y25893000D01*
G75*
G02*
X42756000Y26033000I140000J0D01*
G01*
G37*
G36*
G01*
X42756000Y25073000D02*
X43096000Y25073000D01*
G75*
G02*
X43236000Y24933000I0J-140000D01*
G01*
X43236000Y24653000D01*
G75*
G02*
X43096000Y24513000I-140000J0D01*
G01*
X42756000Y24513000D01*
G75*
G02*
X42616000Y24653000I0J140000D01*
G01*
X42616000Y24933000D01*
G75*
G02*
X42756000Y25073000I140000J0D01*
G01*
G37*
G04 #@! TD*
G04 #@! TO.C,C2*
G36*
G01*
X43096000Y26513000D02*
X42756000Y26513000D01*
G75*
G02*
X42616000Y26653000I0J140000D01*
G01*
X42616000Y26933000D01*
G75*
G02*
X42756000Y27073000I140000J0D01*
G01*
X43096000Y27073000D01*
G75*
G02*
X43236000Y26933000I0J-140000D01*
G01*
X43236000Y26653000D01*
G75*
G02*
X43096000Y26513000I-140000J0D01*
G01*
G37*
G36*
G01*
X43096000Y27473000D02*
X42756000Y27473000D01*
G75*
G02*
X42616000Y27613000I0J140000D01*
G01*
X42616000Y27893000D01*
G75*
G02*
X42756000Y28033000I140000J0D01*
G01*
X43096000Y28033000D01*
G75*
G02*
X43236000Y27893000I0J-140000D01*
G01*
X43236000Y27613000D01*
G75*
G02*
X43096000Y27473000I-140000J0D01*
G01*
G37*
G04 #@! TD*
D18*
G04 #@! TO.C,J4*
X14158000Y74529000D03*
D19*
X14158000Y71989000D03*
X14158000Y69449000D03*
X14158000Y66909000D03*
X14158000Y64369000D03*
G04 #@! TD*
D20*
G04 #@! TO.C,U1*
X44771000Y21003000D03*
X46041000Y21003000D03*
X47311000Y21003000D03*
X48581000Y21003000D03*
X48581000Y29543000D03*
X47311000Y29543000D03*
X46041000Y29543000D03*
X44771000Y29543000D03*
G04 #@! TD*
D21*
G04 #@! TO.C,H1*
X130622000Y5663000D03*
G04 #@! TD*
G04 #@! TO.C,H2*
X7432000Y5663000D03*
G04 #@! TD*
G04 #@! TO.C,R1*
G36*
G01*
X16396000Y86088000D02*
X16396000Y86458000D01*
G75*
G02*
X16531000Y86593000I135000J0D01*
G01*
X16801000Y86593000D01*
G75*
G02*
X16936000Y86458000I0J-135000D01*
G01*
X16936000Y86088000D01*
G75*
G02*
X16801000Y85953000I-135000J0D01*
G01*
X16531000Y85953000D01*
G75*
G02*
X16396000Y86088000I0J135000D01*
G01*
G37*
G36*
G01*
X17416000Y86088000D02*
X17416000Y86458000D01*
G75*
G02*
X17551000Y86593000I135000J0D01*
G01*
X17821000Y86593000D01*
G75*
G02*
X17956000Y86458000I0J-135000D01*
G01*
X17956000Y86088000D01*
G75*
G02*
X17821000Y85953000I-135000J0D01*
G01*
X17551000Y85953000D01*
G75*
G02*
X17416000Y86088000I0J135000D01*
G01*
G37*
G04 #@! TD*
D22*
G04 #@! TO.C,F3*
X157066000Y72823000D03*
X151986000Y72823000D03*
G04 #@! TD*
D23*
G04 #@! TO.C,D14*
X66876000Y70823000D03*
X64776000Y70823000D03*
G04 #@! TD*
G04 #@! TO.C,R10*
G36*
G01*
X151251000Y16598000D02*
X151251000Y19448000D01*
G75*
G02*
X151501000Y19698000I250000J0D01*
G01*
X152226000Y19698000D01*
G75*
G02*
X152476000Y19448000I0J-250000D01*
G01*
X152476000Y16598000D01*
G75*
G02*
X152226000Y16348000I-250000J0D01*
G01*
X151501000Y16348000D01*
G75*
G02*
X151251000Y16598000I0J250000D01*
G01*
G37*
G36*
G01*
X157176000Y16598000D02*
X157176000Y19448000D01*
G75*
G02*
X157426000Y19698000I250000J0D01*
G01*
X158151000Y19698000D01*
G75*
G02*
X158401000Y19448000I0J-250000D01*
G01*
X158401000Y16598000D01*
G75*
G02*
X158151000Y16348000I-250000J0D01*
G01*
X157426000Y16348000D01*
G75*
G02*
X157176000Y16598000I0J250000D01*
G01*
G37*
G04 #@! TD*
G04 #@! TO.C,D23*
G36*
G01*
X122988500Y65866750D02*
X122988500Y66379250D01*
G75*
G02*
X123207250Y66598000I218750J0D01*
G01*
X123644750Y66598000D01*
G75*
G02*
X123863500Y66379250I0J-218750D01*
G01*
X123863500Y65866750D01*
G75*
G02*
X123644750Y65648000I-218750J0D01*
G01*
X123207250Y65648000D01*
G75*
G02*
X122988500Y65866750I0J218750D01*
G01*
G37*
G36*
G01*
X124563500Y65866750D02*
X124563500Y66379250D01*
G75*
G02*
X124782250Y66598000I218750J0D01*
G01*
X125219750Y66598000D01*
G75*
G02*
X125438500Y66379250I0J-218750D01*
G01*
X125438500Y65866750D01*
G75*
G02*
X125219750Y65648000I-218750J0D01*
G01*
X124782250Y65648000D01*
G75*
G02*
X124563500Y65866750I0J218750D01*
G01*
G37*
G04 #@! TD*
D24*
G04 #@! TO.C,VIN16*
X84176000Y76773000D03*
G04 #@! TD*
G04 #@! TO.C,D25*
G36*
G01*
X64601000Y65316750D02*
X64601000Y65829250D01*
G75*
G02*
X64819750Y66048000I218750J0D01*
G01*
X65257250Y66048000D01*
G75*
G02*
X65476000Y65829250I0J-218750D01*
G01*
X65476000Y65316750D01*
G75*
G02*
X65257250Y65098000I-218750J0D01*
G01*
X64819750Y65098000D01*
G75*
G02*
X64601000Y65316750I0J218750D01*
G01*
G37*
G36*
G01*
X66176000Y65316750D02*
X66176000Y65829250D01*
G75*
G02*
X66394750Y66048000I218750J0D01*
G01*
X66832250Y66048000D01*
G75*
G02*
X67051000Y65829250I0J-218750D01*
G01*
X67051000Y65316750D01*
G75*
G02*
X66832250Y65098000I-218750J0D01*
G01*
X66394750Y65098000D01*
G75*
G02*
X66176000Y65316750I0J218750D01*
G01*
G37*
G04 #@! TD*
D25*
G04 #@! TO.C,D10*
X20026000Y76773000D03*
X23326000Y76773000D03*
G04 #@! TD*
D26*
G04 #@! TO.C,J2*
X85676000Y9273000D03*
D27*
X83676000Y9273000D03*
X81676000Y9273000D03*
X79676000Y9273000D03*
X77676000Y9273000D03*
G04 #@! TD*
D28*
G04 #@! TO.C,TP4*
X128926000Y12023000D03*
G04 #@! TD*
D24*
G04 #@! TO.C,VOUT1*
X46676000Y91523000D03*
G04 #@! TD*
G04 #@! TO.C,D27*
G36*
G01*
X80501000Y69329250D02*
X80501000Y68816750D01*
G75*
G02*
X80282250Y68598000I-218750J0D01*
G01*
X79844750Y68598000D01*
G75*
G02*
X79626000Y68816750I0J218750D01*
G01*
X79626000Y69329250D01*
G75*
G02*
X79844750Y69548000I218750J0D01*
G01*
X80282250Y69548000D01*
G75*
G02*
X80501000Y69329250I0J-218750D01*
G01*
G37*
G36*
G01*
X78926000Y69329250D02*
X78926000Y68816750D01*
G75*
G02*
X78707250Y68598000I-218750J0D01*
G01*
X78269750Y68598000D01*
G75*
G02*
X78051000Y68816750I0J218750D01*
G01*
X78051000Y69329250D01*
G75*
G02*
X78269750Y69548000I218750J0D01*
G01*
X78707250Y69548000D01*
G75*
G02*
X78926000Y69329250I0J-218750D01*
G01*
G37*
G04 #@! TD*
G04 #@! TO.C,VIN5*
X93926000Y80523000D03*
G04 #@! TD*
G04 #@! TO.C,VOUT27*
X28976000Y44823000D03*
G04 #@! TD*
G04 #@! TO.C,MMCU14*
X67926000Y36773000D03*
G04 #@! TD*
G04 #@! TO.C,R6*
G36*
G01*
X99291000Y82403000D02*
X99661000Y82403000D01*
G75*
G02*
X99796000Y82268000I0J-135000D01*
G01*
X99796000Y81998000D01*
G75*
G02*
X99661000Y81863000I-135000J0D01*
G01*
X99291000Y81863000D01*
G75*
G02*
X99156000Y81998000I0J135000D01*
G01*
X99156000Y82268000D01*
G75*
G02*
X99291000Y82403000I135000J0D01*
G01*
G37*
G36*
G01*
X99291000Y81383000D02*
X99661000Y81383000D01*
G75*
G02*
X99796000Y81248000I0J-135000D01*
G01*
X99796000Y80978000D01*
G75*
G02*
X99661000Y80843000I-135000J0D01*
G01*
X99291000Y80843000D01*
G75*
G02*
X99156000Y80978000I0J135000D01*
G01*
X99156000Y81248000D01*
G75*
G02*
X99291000Y81383000I135000J0D01*
G01*
G37*
G04 #@! TD*
G04 #@! TO.C,MMCU4*
X131526001Y15323000D03*
G04 #@! TD*
G04 #@! TO.C,MMCU31*
X63226000Y16573000D03*
G04 #@! TD*
G04 #@! TO.C,C13*
G36*
G01*
X61231000Y20528000D02*
X61731000Y20528000D01*
G75*
G02*
X61956000Y20303000I0J-225000D01*
G01*
X61956000Y19853000D01*
G75*
G02*
X61731000Y19628000I-225000J0D01*
G01*
X61231000Y19628000D01*
G75*
G02*
X61006000Y19853000I0J225000D01*
G01*
X61006000Y20303000D01*
G75*
G02*
X61231000Y20528000I225000J0D01*
G01*
G37*
G36*
G01*
X61231000Y18978000D02*
X61731000Y18978000D01*
G75*
G02*
X61956000Y18753000I0J-225000D01*
G01*
X61956000Y18303000D01*
G75*
G02*
X61731000Y18078000I-225000J0D01*
G01*
X61231000Y18078000D01*
G75*
G02*
X61006000Y18303000I0J225000D01*
G01*
X61006000Y18753000D01*
G75*
G02*
X61231000Y18978000I225000J0D01*
G01*
G37*
G04 #@! TD*
G04 #@! TO.C,cr8*
X15926000Y100523000D03*
G04 #@! TD*
G04 #@! TO.C,D29*
G36*
G01*
X64601000Y61816750D02*
X64601000Y62329250D01*
G75*
G02*
X64819750Y62548000I218750J0D01*
G01*
X65257250Y62548000D01*
G75*
G02*
X65476000Y62329250I0J-218750D01*
G01*
X65476000Y61816750D01*
G75*
G02*
X65257250Y61598000I-218750J0D01*
G01*
X64819750Y61598000D01*
G75*
G02*
X64601000Y61816750I0J218750D01*
G01*
G37*
G36*
G01*
X66176000Y61816750D02*
X66176000Y62329250D01*
G75*
G02*
X66394750Y62548000I218750J0D01*
G01*
X66832250Y62548000D01*
G75*
G02*
X67051000Y62329250I0J-218750D01*
G01*
X67051000Y61816750D01*
G75*
G02*
X66832250Y61598000I-218750J0D01*
G01*
X66394750Y61598000D01*
G75*
G02*
X66176000Y61816750I0J218750D01*
G01*
G37*
G04 #@! TD*
D29*
G04 #@! TO.C,SW2*
X95926000Y11273000D03*
D30*
X95926000Y12973000D03*
X95926000Y9573000D03*
G04 #@! TD*
D23*
G04 #@! TO.C,D1*
X16876000Y88023000D03*
X18976000Y88023000D03*
G04 #@! TD*
D24*
G04 #@! TO.C,VOUT24*
X60776000Y58123000D03*
G04 #@! TD*
G04 #@! TO.C,MMCU28*
X71226000Y16573000D03*
G04 #@! TD*
G04 #@! TO.C,VOUT10*
X49926000Y91474215D03*
G04 #@! TD*
D31*
G04 #@! TO.C,G6*
X1458000Y77069000D03*
X3998000Y77069000D03*
X6538000Y77069000D03*
X9078000Y77069000D03*
X11618000Y77069000D03*
X1458000Y74529000D03*
X3998000Y74529000D03*
X6538000Y74529000D03*
X9078000Y74529000D03*
X11618000Y74529000D03*
X1458000Y71989000D03*
X3998000Y71989000D03*
X6538000Y71989000D03*
X9078000Y71989000D03*
X11618000Y71989000D03*
G04 #@! TD*
D24*
G04 #@! TO.C,cr1*
X70426000Y100523000D03*
G04 #@! TD*
G04 #@! TO.C,R33*
G36*
G01*
X42896000Y39088000D02*
X42896000Y39458000D01*
G75*
G02*
X43031000Y39593000I135000J0D01*
G01*
X43301000Y39593000D01*
G75*
G02*
X43436000Y39458000I0J-135000D01*
G01*
X43436000Y39088000D01*
G75*
G02*
X43301000Y38953000I-135000J0D01*
G01*
X43031000Y38953000D01*
G75*
G02*
X42896000Y39088000I0J135000D01*
G01*
G37*
G36*
G01*
X43916000Y39088000D02*
X43916000Y39458000D01*
G75*
G02*
X44051000Y39593000I135000J0D01*
G01*
X44321000Y39593000D01*
G75*
G02*
X44456000Y39458000I0J-135000D01*
G01*
X44456000Y39088000D01*
G75*
G02*
X44321000Y38953000I-135000J0D01*
G01*
X44051000Y38953000D01*
G75*
G02*
X43916000Y39088000I0J135000D01*
G01*
G37*
G04 #@! TD*
G04 #@! TO.C,MMCU30*
X67226000Y16573000D03*
G04 #@! TD*
D32*
G04 #@! TO.C,RN7*
X71676000Y66873000D03*
X71676000Y67673000D03*
X71676000Y68473000D03*
X71676000Y69273000D03*
X69976000Y69273000D03*
X69976000Y68473000D03*
X69976000Y67673000D03*
X69976000Y66873000D03*
G04 #@! TD*
D16*
G04 #@! TO.C,Q7*
X139726000Y22803000D03*
D17*
X146026000Y20523000D03*
D16*
X139726000Y18243000D03*
G04 #@! TD*
D24*
G04 #@! TO.C,MMCU18*
X69226000Y16573000D03*
G04 #@! TD*
G04 #@! TO.C,cr11*
X67176000Y100523000D03*
G04 #@! TD*
D33*
G04 #@! TO.C,P3*
X23090213Y11023000D03*
G04 #@! TD*
D24*
G04 #@! TO.C,MMCU9*
X77326000Y16473000D03*
G04 #@! TD*
G04 #@! TO.C,D28*
G36*
G01*
X64601000Y68816750D02*
X64601000Y69329250D01*
G75*
G02*
X64819750Y69548000I218750J0D01*
G01*
X65257250Y69548000D01*
G75*
G02*
X65476000Y69329250I0J-218750D01*
G01*
X65476000Y68816750D01*
G75*
G02*
X65257250Y68598000I-218750J0D01*
G01*
X64819750Y68598000D01*
G75*
G02*
X64601000Y68816750I0J218750D01*
G01*
G37*
G36*
G01*
X66176000Y68816750D02*
X66176000Y69329250D01*
G75*
G02*
X66394750Y69548000I218750J0D01*
G01*
X66832250Y69548000D01*
G75*
G02*
X67051000Y69329250I0J-218750D01*
G01*
X67051000Y68816750D01*
G75*
G02*
X66832250Y68598000I-218750J0D01*
G01*
X66394750Y68598000D01*
G75*
G02*
X66176000Y68816750I0J218750D01*
G01*
G37*
G04 #@! TD*
G04 #@! TO.C,R9*
G36*
G01*
X151151000Y57998000D02*
X151151000Y60848000D01*
G75*
G02*
X151401000Y61098000I250000J0D01*
G01*
X152126000Y61098000D01*
G75*
G02*
X152376000Y60848000I0J-250000D01*
G01*
X152376000Y57998000D01*
G75*
G02*
X152126000Y57748000I-250000J0D01*
G01*
X151401000Y57748000D01*
G75*
G02*
X151151000Y57998000I0J250000D01*
G01*
G37*
G36*
G01*
X157076000Y57998000D02*
X157076000Y60848000D01*
G75*
G02*
X157326000Y61098000I250000J0D01*
G01*
X158051000Y61098000D01*
G75*
G02*
X158301000Y60848000I0J-250000D01*
G01*
X158301000Y57998000D01*
G75*
G02*
X158051000Y57748000I-250000J0D01*
G01*
X157326000Y57748000D01*
G75*
G02*
X157076000Y57998000I0J250000D01*
G01*
G37*
G04 #@! TD*
G04 #@! TO.C,D11*
G36*
G01*
X67188500Y57466750D02*
X67188500Y57979250D01*
G75*
G02*
X67407250Y58198000I218750J0D01*
G01*
X67844750Y58198000D01*
G75*
G02*
X68063500Y57979250I0J-218750D01*
G01*
X68063500Y57466750D01*
G75*
G02*
X67844750Y57248000I-218750J0D01*
G01*
X67407250Y57248000D01*
G75*
G02*
X67188500Y57466750I0J218750D01*
G01*
G37*
G36*
G01*
X68763500Y57466750D02*
X68763500Y57979250D01*
G75*
G02*
X68982250Y58198000I218750J0D01*
G01*
X69419750Y58198000D01*
G75*
G02*
X69638500Y57979250I0J-218750D01*
G01*
X69638500Y57466750D01*
G75*
G02*
X69419750Y57248000I-218750J0D01*
G01*
X68982250Y57248000D01*
G75*
G02*
X68763500Y57466750I0J218750D01*
G01*
G37*
G04 #@! TD*
G04 #@! TO.C,VOUT5*
X48676000Y89474215D03*
G04 #@! TD*
G04 #@! TO.C,C21*
G36*
G01*
X56926000Y39298000D02*
X56426000Y39298000D01*
G75*
G02*
X56201000Y39523000I0J225000D01*
G01*
X56201000Y39973000D01*
G75*
G02*
X56426000Y40198000I225000J0D01*
G01*
X56926000Y40198000D01*
G75*
G02*
X57151000Y39973000I0J-225000D01*
G01*
X57151000Y39523000D01*
G75*
G02*
X56926000Y39298000I-225000J0D01*
G01*
G37*
G36*
G01*
X56926000Y40848000D02*
X56426000Y40848000D01*
G75*
G02*
X56201000Y41073000I0J225000D01*
G01*
X56201000Y41523000D01*
G75*
G02*
X56426000Y41748000I225000J0D01*
G01*
X56926000Y41748000D01*
G75*
G02*
X57151000Y41523000I0J-225000D01*
G01*
X57151000Y41073000D01*
G75*
G02*
X56926000Y40848000I-225000J0D01*
G01*
G37*
G04 #@! TD*
G04 #@! TO.C,R31*
G36*
G01*
X42896000Y41088000D02*
X42896000Y41458000D01*
G75*
G02*
X43031000Y41593000I135000J0D01*
G01*
X43301000Y41593000D01*
G75*
G02*
X43436000Y41458000I0J-135000D01*
G01*
X43436000Y41088000D01*
G75*
G02*
X43301000Y40953000I-135000J0D01*
G01*
X43031000Y40953000D01*
G75*
G02*
X42896000Y41088000I0J135000D01*
G01*
G37*
G36*
G01*
X43916000Y41088000D02*
X43916000Y41458000D01*
G75*
G02*
X44051000Y41593000I135000J0D01*
G01*
X44321000Y41593000D01*
G75*
G02*
X44456000Y41458000I0J-135000D01*
G01*
X44456000Y41088000D01*
G75*
G02*
X44321000Y40953000I-135000J0D01*
G01*
X44051000Y40953000D01*
G75*
G02*
X43916000Y41088000I0J135000D01*
G01*
G37*
G04 #@! TD*
G04 #@! TO.C,D22*
G36*
G01*
X122988500Y62366750D02*
X122988500Y62879250D01*
G75*
G02*
X123207250Y63098000I218750J0D01*
G01*
X123644750Y63098000D01*
G75*
G02*
X123863500Y62879250I0J-218750D01*
G01*
X123863500Y62366750D01*
G75*
G02*
X123644750Y62148000I-218750J0D01*
G01*
X123207250Y62148000D01*
G75*
G02*
X122988500Y62366750I0J218750D01*
G01*
G37*
G36*
G01*
X124563500Y62366750D02*
X124563500Y62879250D01*
G75*
G02*
X124782250Y63098000I218750J0D01*
G01*
X125219750Y63098000D01*
G75*
G02*
X125438500Y62879250I0J-218750D01*
G01*
X125438500Y62366750D01*
G75*
G02*
X125219750Y62148000I-218750J0D01*
G01*
X124782250Y62148000D01*
G75*
G02*
X124563500Y62366750I0J218750D01*
G01*
G37*
G04 #@! TD*
G04 #@! TO.C,VOUT13*
X62676000Y53023000D03*
G04 #@! TD*
G04 #@! TO.C,KNOCK_RAW2*
X74926000Y96523000D03*
G04 #@! TD*
G04 #@! TO.C,C17*
G36*
G01*
X60426000Y39298000D02*
X59926000Y39298000D01*
G75*
G02*
X59701000Y39523000I0J225000D01*
G01*
X59701000Y39973000D01*
G75*
G02*
X59926000Y40198000I225000J0D01*
G01*
X60426000Y40198000D01*
G75*
G02*
X60651000Y39973000I0J-225000D01*
G01*
X60651000Y39523000D01*
G75*
G02*
X60426000Y39298000I-225000J0D01*
G01*
G37*
G36*
G01*
X60426000Y40848000D02*
X59926000Y40848000D01*
G75*
G02*
X59701000Y41073000I0J225000D01*
G01*
X59701000Y41523000D01*
G75*
G02*
X59926000Y41748000I225000J0D01*
G01*
X60426000Y41748000D01*
G75*
G02*
X60651000Y41523000I0J-225000D01*
G01*
X60651000Y41073000D01*
G75*
G02*
X60426000Y40848000I-225000J0D01*
G01*
G37*
G04 #@! TD*
G04 #@! TO.C,MMCU2*
X135526000Y15323000D03*
G04 #@! TD*
G04 #@! TO.C,MMCU7*
X88926000Y10023000D03*
G04 #@! TD*
G04 #@! TO.C,C11*
G36*
G01*
X59231000Y20553000D02*
X59731000Y20553000D01*
G75*
G02*
X59956000Y20328000I0J-225000D01*
G01*
X59956000Y19878000D01*
G75*
G02*
X59731000Y19653000I-225000J0D01*
G01*
X59231000Y19653000D01*
G75*
G02*
X59006000Y19878000I0J225000D01*
G01*
X59006000Y20328000D01*
G75*
G02*
X59231000Y20553000I225000J0D01*
G01*
G37*
G36*
G01*
X59231000Y19003000D02*
X59731000Y19003000D01*
G75*
G02*
X59956000Y18778000I0J-225000D01*
G01*
X59956000Y18328000D01*
G75*
G02*
X59731000Y18103000I-225000J0D01*
G01*
X59231000Y18103000D01*
G75*
G02*
X59006000Y18328000I0J225000D01*
G01*
X59006000Y18778000D01*
G75*
G02*
X59231000Y19003000I225000J0D01*
G01*
G37*
G04 #@! TD*
D15*
G04 #@! TO.C,JP14*
X79676000Y100428000D03*
G36*
G01*
X79051000Y99973001D02*
X80301000Y99973001D01*
G75*
G02*
X80401000Y99873001I0J-100000D01*
G01*
X80401000Y99073001D01*
G75*
G02*
X80301000Y98973001I-100000J0D01*
G01*
X79051000Y98973001D01*
G75*
G02*
X78951000Y99073001I0J100000D01*
G01*
X78951000Y99873001D01*
G75*
G02*
X79051000Y99973001I100000J0D01*
G01*
G37*
X79676000Y96618000D03*
G36*
G01*
X79051000Y98072979D02*
X80301000Y98072979D01*
G75*
G02*
X80401000Y97972979I0J-100000D01*
G01*
X80401000Y97172979D01*
G75*
G02*
X80301000Y97072979I-100000J0D01*
G01*
X79051000Y97072979D01*
G75*
G02*
X78951000Y97172979I0J100000D01*
G01*
X78951000Y97972979D01*
G75*
G02*
X79051000Y98072979I100000J0D01*
G01*
G37*
G04 #@! TD*
G04 #@! TO.C,C15*
G36*
G01*
X53686000Y41693000D02*
X53686000Y41353000D01*
G75*
G02*
X53546000Y41213000I-140000J0D01*
G01*
X53266000Y41213000D01*
G75*
G02*
X53126000Y41353000I0J140000D01*
G01*
X53126000Y41693000D01*
G75*
G02*
X53266000Y41833000I140000J0D01*
G01*
X53546000Y41833000D01*
G75*
G02*
X53686000Y41693000I0J-140000D01*
G01*
G37*
G36*
G01*
X52726000Y41693000D02*
X52726000Y41353000D01*
G75*
G02*
X52586000Y41213000I-140000J0D01*
G01*
X52306000Y41213000D01*
G75*
G02*
X52166000Y41353000I0J140000D01*
G01*
X52166000Y41693000D01*
G75*
G02*
X52306000Y41833000I140000J0D01*
G01*
X52586000Y41833000D01*
G75*
G02*
X52726000Y41693000I0J-140000D01*
G01*
G37*
G04 #@! TD*
G04 #@! TO.C,R26*
G36*
G01*
X91801489Y87513000D02*
X91801489Y86733000D01*
G75*
G02*
X91731489Y86663000I-70000J0D01*
G01*
X91171489Y86663000D01*
G75*
G02*
X91101489Y86733000I0J70000D01*
G01*
X91101489Y87513000D01*
G75*
G02*
X91171489Y87583000I70000J0D01*
G01*
X91731489Y87583000D01*
G75*
G02*
X91801489Y87513000I0J-70000D01*
G01*
G37*
G36*
G01*
X90201489Y87513000D02*
X90201489Y86733000D01*
G75*
G02*
X90131489Y86663000I-70000J0D01*
G01*
X89571489Y86663000D01*
G75*
G02*
X89501489Y86733000I0J70000D01*
G01*
X89501489Y87513000D01*
G75*
G02*
X89571489Y87583000I70000J0D01*
G01*
X90131489Y87583000D01*
G75*
G02*
X90201489Y87513000I0J-70000D01*
G01*
G37*
G04 #@! TD*
G04 #@! TO.C,R14*
G36*
G01*
X158401000Y10548000D02*
X158401000Y7698000D01*
G75*
G02*
X158151000Y7448000I-250000J0D01*
G01*
X157426000Y7448000D01*
G75*
G02*
X157176000Y7698000I0J250000D01*
G01*
X157176000Y10548000D01*
G75*
G02*
X157426000Y10798000I250000J0D01*
G01*
X158151000Y10798000D01*
G75*
G02*
X158401000Y10548000I0J-250000D01*
G01*
G37*
G36*
G01*
X152476000Y10548000D02*
X152476000Y7698000D01*
G75*
G02*
X152226000Y7448000I-250000J0D01*
G01*
X151501000Y7448000D01*
G75*
G02*
X151251000Y7698000I0J250000D01*
G01*
X151251000Y10548000D01*
G75*
G02*
X151501000Y10798000I250000J0D01*
G01*
X152226000Y10798000D01*
G75*
G02*
X152476000Y10548000I0J-250000D01*
G01*
G37*
G04 #@! TD*
D34*
G04 #@! TO.C,TP3*
X35176000Y38523000D03*
G04 #@! TD*
D15*
G04 #@! TO.C,JP36*
X61176000Y100630500D03*
G36*
G01*
X60551000Y100175501D02*
X61801000Y100175501D01*
G75*
G02*
X61901000Y100075501I0J-100000D01*
G01*
X61901000Y99275501D01*
G75*
G02*
X61801000Y99175501I-100000J0D01*
G01*
X60551000Y99175501D01*
G75*
G02*
X60451000Y99275501I0J100000D01*
G01*
X60451000Y100075501D01*
G75*
G02*
X60551000Y100175501I100000J0D01*
G01*
G37*
X61176000Y96820500D03*
G36*
G01*
X60551000Y98275479D02*
X61801000Y98275479D01*
G75*
G02*
X61901000Y98175479I0J-100000D01*
G01*
X61901000Y97375479D01*
G75*
G02*
X61801000Y97275479I-100000J0D01*
G01*
X60551000Y97275479D01*
G75*
G02*
X60451000Y97375479I0J100000D01*
G01*
X60451000Y98175479D01*
G75*
G02*
X60551000Y98275479I100000J0D01*
G01*
G37*
G04 #@! TD*
G04 #@! TO.C,D16*
G36*
G01*
X122951000Y53516750D02*
X122951000Y54029250D01*
G75*
G02*
X123169750Y54248000I218750J0D01*
G01*
X123607250Y54248000D01*
G75*
G02*
X123826000Y54029250I0J-218750D01*
G01*
X123826000Y53516750D01*
G75*
G02*
X123607250Y53298000I-218750J0D01*
G01*
X123169750Y53298000D01*
G75*
G02*
X122951000Y53516750I0J218750D01*
G01*
G37*
G36*
G01*
X124526000Y53516750D02*
X124526000Y54029250D01*
G75*
G02*
X124744750Y54248000I218750J0D01*
G01*
X125182250Y54248000D01*
G75*
G02*
X125401000Y54029250I0J-218750D01*
G01*
X125401000Y53516750D01*
G75*
G02*
X125182250Y53298000I-218750J0D01*
G01*
X124744750Y53298000D01*
G75*
G02*
X124526000Y53516750I0J218750D01*
G01*
G37*
G04 #@! TD*
D24*
G04 #@! TO.C,MMCU10*
X76576000Y14173000D03*
G04 #@! TD*
D22*
G04 #@! TO.C,F8*
X157166000Y81623000D03*
X152086000Y81623000D03*
G04 #@! TD*
D24*
G04 #@! TO.C,MMCU29*
X64976000Y49023000D03*
G04 #@! TD*
G04 #@! TO.C,R4*
G36*
G01*
X2936000Y26073000D02*
X3716000Y26073000D01*
G75*
G02*
X3786000Y26003000I0J-70000D01*
G01*
X3786000Y25443000D01*
G75*
G02*
X3716000Y25373000I-70000J0D01*
G01*
X2936000Y25373000D01*
G75*
G02*
X2866000Y25443000I0J70000D01*
G01*
X2866000Y26003000D01*
G75*
G02*
X2936000Y26073000I70000J0D01*
G01*
G37*
G36*
G01*
X2936000Y24473000D02*
X3716000Y24473000D01*
G75*
G02*
X3786000Y24403000I0J-70000D01*
G01*
X3786000Y23843000D01*
G75*
G02*
X3716000Y23773000I-70000J0D01*
G01*
X2936000Y23773000D01*
G75*
G02*
X2866000Y23843000I0J70000D01*
G01*
X2866000Y24403000D01*
G75*
G02*
X2936000Y24473000I70000J0D01*
G01*
G37*
G04 #@! TD*
D22*
G04 #@! TO.C,F2*
X157166000Y41523000D03*
X152086000Y41523000D03*
G04 #@! TD*
G04 #@! TO.C,R7*
G36*
G01*
X151251000Y26198000D02*
X151251000Y29048000D01*
G75*
G02*
X151501000Y29298000I250000J0D01*
G01*
X152226000Y29298000D01*
G75*
G02*
X152476000Y29048000I0J-250000D01*
G01*
X152476000Y26198000D01*
G75*
G02*
X152226000Y25948000I-250000J0D01*
G01*
X151501000Y25948000D01*
G75*
G02*
X151251000Y26198000I0J250000D01*
G01*
G37*
G36*
G01*
X157176000Y26198000D02*
X157176000Y29048000D01*
G75*
G02*
X157426000Y29298000I250000J0D01*
G01*
X158151000Y29298000D01*
G75*
G02*
X158401000Y29048000I0J-250000D01*
G01*
X158401000Y26198000D01*
G75*
G02*
X158151000Y25948000I-250000J0D01*
G01*
X157426000Y25948000D01*
G75*
G02*
X157176000Y26198000I0J250000D01*
G01*
G37*
G04 #@! TD*
D32*
G04 #@! TO.C,RN5*
X119076000Y58473000D03*
X119076000Y57673000D03*
X119076000Y56873000D03*
X119076000Y56073000D03*
X120776000Y56073000D03*
X120776000Y56873000D03*
X120776000Y57673000D03*
X120776000Y58473000D03*
G04 #@! TD*
D24*
G04 #@! TO.C,MMCU15*
X65226000Y16573000D03*
G04 #@! TD*
G04 #@! TO.C,C19*
G36*
G01*
X58676000Y39298000D02*
X58176000Y39298000D01*
G75*
G02*
X57951000Y39523000I0J225000D01*
G01*
X57951000Y39973000D01*
G75*
G02*
X58176000Y40198000I225000J0D01*
G01*
X58676000Y40198000D01*
G75*
G02*
X58901000Y39973000I0J-225000D01*
G01*
X58901000Y39523000D01*
G75*
G02*
X58676000Y39298000I-225000J0D01*
G01*
G37*
G36*
G01*
X58676000Y40848000D02*
X58176000Y40848000D01*
G75*
G02*
X57951000Y41073000I0J225000D01*
G01*
X57951000Y41523000D01*
G75*
G02*
X58176000Y41748000I225000J0D01*
G01*
X58676000Y41748000D01*
G75*
G02*
X58901000Y41523000I0J-225000D01*
G01*
X58901000Y41073000D01*
G75*
G02*
X58676000Y40848000I-225000J0D01*
G01*
G37*
G04 #@! TD*
G04 #@! TO.C,R18*
G36*
G01*
X138186001Y92713000D02*
X138186001Y91933000D01*
G75*
G02*
X138116001Y91863000I-70000J0D01*
G01*
X137556001Y91863000D01*
G75*
G02*
X137486001Y91933000I0J70000D01*
G01*
X137486001Y92713000D01*
G75*
G02*
X137556001Y92783000I70000J0D01*
G01*
X138116001Y92783000D01*
G75*
G02*
X138186001Y92713000I0J-70000D01*
G01*
G37*
G36*
G01*
X136586001Y92713000D02*
X136586001Y91933000D01*
G75*
G02*
X136516001Y91863000I-70000J0D01*
G01*
X135956001Y91863000D01*
G75*
G02*
X135886001Y91933000I0J70000D01*
G01*
X135886001Y92713000D01*
G75*
G02*
X135956001Y92783000I70000J0D01*
G01*
X136516001Y92783000D01*
G75*
G02*
X136586001Y92713000I0J-70000D01*
G01*
G37*
G04 #@! TD*
G04 #@! TO.C,R5*
G36*
G01*
X84906000Y94588000D02*
X84906000Y94958000D01*
G75*
G02*
X85041000Y95093000I135000J0D01*
G01*
X85311000Y95093000D01*
G75*
G02*
X85446000Y94958000I0J-135000D01*
G01*
X85446000Y94588000D01*
G75*
G02*
X85311000Y94453000I-135000J0D01*
G01*
X85041000Y94453000D01*
G75*
G02*
X84906000Y94588000I0J135000D01*
G01*
G37*
G36*
G01*
X85926000Y94588000D02*
X85926000Y94958000D01*
G75*
G02*
X86061000Y95093000I135000J0D01*
G01*
X86331000Y95093000D01*
G75*
G02*
X86466000Y94958000I0J-135000D01*
G01*
X86466000Y94588000D01*
G75*
G02*
X86331000Y94453000I-135000J0D01*
G01*
X86061000Y94453000D01*
G75*
G02*
X85926000Y94588000I0J135000D01*
G01*
G37*
G04 #@! TD*
G04 #@! TO.C,cr15*
X59176000Y100523000D03*
G04 #@! TD*
G04 #@! TO.C,MMCU8*
X79326000Y16473000D03*
G04 #@! TD*
G04 #@! TO.C,R27*
G36*
G01*
X103066000Y94333000D02*
X103066000Y95113000D01*
G75*
G02*
X103136000Y95183000I70000J0D01*
G01*
X103696000Y95183000D01*
G75*
G02*
X103766000Y95113000I0J-70000D01*
G01*
X103766000Y94333000D01*
G75*
G02*
X103696000Y94263000I-70000J0D01*
G01*
X103136000Y94263000D01*
G75*
G02*
X103066000Y94333000I0J70000D01*
G01*
G37*
G36*
G01*
X104666000Y94333000D02*
X104666000Y95113000D01*
G75*
G02*
X104736000Y95183000I70000J0D01*
G01*
X105296000Y95183000D01*
G75*
G02*
X105366000Y95113000I0J-70000D01*
G01*
X105366000Y94333000D01*
G75*
G02*
X105296000Y94263000I-70000J0D01*
G01*
X104736000Y94263000D01*
G75*
G02*
X104666000Y94333000I0J70000D01*
G01*
G37*
G04 #@! TD*
G04 #@! TO.C,cr20*
X115676000Y100523000D03*
G04 #@! TD*
G04 #@! TO.C,R12*
G36*
G01*
X158401000Y78948000D02*
X158401000Y76098000D01*
G75*
G02*
X158151000Y75848000I-250000J0D01*
G01*
X157426000Y75848000D01*
G75*
G02*
X157176000Y76098000I0J250000D01*
G01*
X157176000Y78948000D01*
G75*
G02*
X157426000Y79198000I250000J0D01*
G01*
X158151000Y79198000D01*
G75*
G02*
X158401000Y78948000I0J-250000D01*
G01*
G37*
G36*
G01*
X152476000Y78948000D02*
X152476000Y76098000D01*
G75*
G02*
X152226000Y75848000I-250000J0D01*
G01*
X151501000Y75848000D01*
G75*
G02*
X151251000Y76098000I0J250000D01*
G01*
X151251000Y78948000D01*
G75*
G02*
X151501000Y79198000I250000J0D01*
G01*
X152226000Y79198000D01*
G75*
G02*
X152476000Y78948000I0J-250000D01*
G01*
G37*
G04 #@! TD*
D32*
G04 #@! TO.C,RN6*
X119076000Y63323000D03*
X119076000Y62523000D03*
X119076000Y61723000D03*
X119076000Y60923000D03*
X120776000Y60923000D03*
X120776000Y61723000D03*
X120776000Y62523000D03*
X120776000Y63323000D03*
G04 #@! TD*
D24*
G04 #@! TO.C,MMCU16*
X86226000Y59523000D03*
G04 #@! TD*
G04 #@! TO.C,VIN10*
X89426000Y82523000D03*
G04 #@! TD*
G04 #@! TO.C,MMCU5*
X86126000Y17273000D03*
G04 #@! TD*
G04 #@! TO.C,C12*
G36*
G01*
X47436000Y37353000D02*
X47436000Y37693000D01*
G75*
G02*
X47576000Y37833000I140000J0D01*
G01*
X47856000Y37833000D01*
G75*
G02*
X47996000Y37693000I0J-140000D01*
G01*
X47996000Y37353000D01*
G75*
G02*
X47856000Y37213000I-140000J0D01*
G01*
X47576000Y37213000D01*
G75*
G02*
X47436000Y37353000I0J140000D01*
G01*
G37*
G36*
G01*
X48396000Y37353000D02*
X48396000Y37693000D01*
G75*
G02*
X48536000Y37833000I140000J0D01*
G01*
X48816000Y37833000D01*
G75*
G02*
X48956000Y37693000I0J-140000D01*
G01*
X48956000Y37353000D01*
G75*
G02*
X48816000Y37213000I-140000J0D01*
G01*
X48536000Y37213000D01*
G75*
G02*
X48396000Y37353000I0J140000D01*
G01*
G37*
G04 #@! TD*
G04 #@! TO.C,VIN17*
X84176000Y74773000D03*
G04 #@! TD*
G04 #@! TO.C,C8*
G36*
G01*
X29176000Y48298000D02*
X28676000Y48298000D01*
G75*
G02*
X28451000Y48523000I0J225000D01*
G01*
X28451000Y48973000D01*
G75*
G02*
X28676000Y49198000I225000J0D01*
G01*
X29176000Y49198000D01*
G75*
G02*
X29401000Y48973000I0J-225000D01*
G01*
X29401000Y48523000D01*
G75*
G02*
X29176000Y48298000I-225000J0D01*
G01*
G37*
G36*
G01*
X29176000Y49848000D02*
X28676000Y49848000D01*
G75*
G02*
X28451000Y50073000I0J225000D01*
G01*
X28451000Y50523000D01*
G75*
G02*
X28676000Y50748000I225000J0D01*
G01*
X29176000Y50748000D01*
G75*
G02*
X29401000Y50523000I0J-225000D01*
G01*
X29401000Y50073000D01*
G75*
G02*
X29176000Y49848000I-225000J0D01*
G01*
G37*
G04 #@! TD*
G04 #@! TO.C,D18*
G36*
G01*
X122988500Y60616750D02*
X122988500Y61129250D01*
G75*
G02*
X123207250Y61348000I218750J0D01*
G01*
X123644750Y61348000D01*
G75*
G02*
X123863500Y61129250I0J-218750D01*
G01*
X123863500Y60616750D01*
G75*
G02*
X123644750Y60398000I-218750J0D01*
G01*
X123207250Y60398000D01*
G75*
G02*
X122988500Y60616750I0J218750D01*
G01*
G37*
G36*
G01*
X124563500Y60616750D02*
X124563500Y61129250D01*
G75*
G02*
X124782250Y61348000I218750J0D01*
G01*
X125219750Y61348000D01*
G75*
G02*
X125438500Y61129250I0J-218750D01*
G01*
X125438500Y60616750D01*
G75*
G02*
X125219750Y60398000I-218750J0D01*
G01*
X124782250Y60398000D01*
G75*
G02*
X124563500Y60616750I0J218750D01*
G01*
G37*
G04 #@! TD*
G04 #@! TO.C,R2*
G36*
G01*
X21646000Y65338000D02*
X21646000Y65708000D01*
G75*
G02*
X21781000Y65843000I135000J0D01*
G01*
X22051000Y65843000D01*
G75*
G02*
X22186000Y65708000I0J-135000D01*
G01*
X22186000Y65338000D01*
G75*
G02*
X22051000Y65203000I-135000J0D01*
G01*
X21781000Y65203000D01*
G75*
G02*
X21646000Y65338000I0J135000D01*
G01*
G37*
G36*
G01*
X22666000Y65338000D02*
X22666000Y65708000D01*
G75*
G02*
X22801000Y65843000I135000J0D01*
G01*
X23071000Y65843000D01*
G75*
G02*
X23206000Y65708000I0J-135000D01*
G01*
X23206000Y65338000D01*
G75*
G02*
X23071000Y65203000I-135000J0D01*
G01*
X22801000Y65203000D01*
G75*
G02*
X22666000Y65338000I0J135000D01*
G01*
G37*
G04 #@! TD*
D25*
G04 #@! TO.C,D3*
X64326000Y91273000D03*
X61026000Y91273000D03*
G04 #@! TD*
D16*
G04 #@! TO.C,Q8*
X139726000Y13803000D03*
D17*
X146026000Y11523000D03*
D16*
X139726000Y9243000D03*
G04 #@! TD*
D24*
G04 #@! TO.C,VOUT15*
X37926000Y87273000D03*
G04 #@! TD*
G04 #@! TO.C,R43*
G36*
G01*
X68556000Y54408000D02*
X68556000Y54038000D01*
G75*
G02*
X68421000Y53903000I-135000J0D01*
G01*
X68151000Y53903000D01*
G75*
G02*
X68016000Y54038000I0J135000D01*
G01*
X68016000Y54408000D01*
G75*
G02*
X68151000Y54543000I135000J0D01*
G01*
X68421000Y54543000D01*
G75*
G02*
X68556000Y54408000I0J-135000D01*
G01*
G37*
G36*
G01*
X67536000Y54408000D02*
X67536000Y54038000D01*
G75*
G02*
X67401000Y53903000I-135000J0D01*
G01*
X67131000Y53903000D01*
G75*
G02*
X66996000Y54038000I0J135000D01*
G01*
X66996000Y54408000D01*
G75*
G02*
X67131000Y54543000I135000J0D01*
G01*
X67401000Y54543000D01*
G75*
G02*
X67536000Y54408000I0J-135000D01*
G01*
G37*
G04 #@! TD*
G04 #@! TO.C,D15*
G36*
G01*
X20151000Y94529250D02*
X20151000Y94016750D01*
G75*
G02*
X19932250Y93798000I-218750J0D01*
G01*
X19494750Y93798000D01*
G75*
G02*
X19276000Y94016750I0J218750D01*
G01*
X19276000Y94529250D01*
G75*
G02*
X19494750Y94748000I218750J0D01*
G01*
X19932250Y94748000D01*
G75*
G02*
X20151000Y94529250I0J-218750D01*
G01*
G37*
G36*
G01*
X18576000Y94529250D02*
X18576000Y94016750D01*
G75*
G02*
X18357250Y93798000I-218750J0D01*
G01*
X17919750Y93798000D01*
G75*
G02*
X17701000Y94016750I0J218750D01*
G01*
X17701000Y94529250D01*
G75*
G02*
X17919750Y94748000I218750J0D01*
G01*
X18357250Y94748000D01*
G75*
G02*
X18576000Y94529250I0J-218750D01*
G01*
G37*
G04 #@! TD*
G04 #@! TO.C,D20*
G36*
G01*
X122913500Y55266750D02*
X122913500Y55779250D01*
G75*
G02*
X123132250Y55998000I218750J0D01*
G01*
X123569750Y55998000D01*
G75*
G02*
X123788500Y55779250I0J-218750D01*
G01*
X123788500Y55266750D01*
G75*
G02*
X123569750Y55048000I-218750J0D01*
G01*
X123132250Y55048000D01*
G75*
G02*
X122913500Y55266750I0J218750D01*
G01*
G37*
G36*
G01*
X124488500Y55266750D02*
X124488500Y55779250D01*
G75*
G02*
X124707250Y55998000I218750J0D01*
G01*
X125144750Y55998000D01*
G75*
G02*
X125363500Y55779250I0J-218750D01*
G01*
X125363500Y55266750D01*
G75*
G02*
X125144750Y55048000I-218750J0D01*
G01*
X124707250Y55048000D01*
G75*
G02*
X124488500Y55266750I0J218750D01*
G01*
G37*
G04 #@! TD*
G04 #@! TO.C,VIN4*
X106976000Y82723000D03*
G04 #@! TD*
D32*
G04 #@! TO.C,RN8*
X73226000Y69273000D03*
X73226000Y68473000D03*
X73226000Y67673000D03*
X73226000Y66873000D03*
X74926000Y66873000D03*
X74926000Y67673000D03*
X74926000Y68473000D03*
X74926000Y69273000D03*
G04 #@! TD*
G04 #@! TO.C,JP6*
G36*
G01*
X54051000Y99973001D02*
X55301000Y99973001D01*
G75*
G02*
X55401000Y99873001I0J-100000D01*
G01*
X55401000Y99073001D01*
G75*
G02*
X55301000Y98973001I-100000J0D01*
G01*
X54051000Y98973001D01*
G75*
G02*
X53951000Y99073001I0J100000D01*
G01*
X53951000Y99873001D01*
G75*
G02*
X54051000Y99973001I100000J0D01*
G01*
G37*
D15*
X54676000Y100428000D03*
G36*
G01*
X54051000Y98072979D02*
X55301000Y98072979D01*
G75*
G02*
X55401000Y97972979I0J-100000D01*
G01*
X55401000Y97172979D01*
G75*
G02*
X55301000Y97072979I-100000J0D01*
G01*
X54051000Y97072979D01*
G75*
G02*
X53951000Y97172979I0J100000D01*
G01*
X53951000Y97972979D01*
G75*
G02*
X54051000Y98072979I100000J0D01*
G01*
G37*
X54676000Y96618000D03*
G04 #@! TD*
D23*
G04 #@! TO.C,D37*
X78226000Y67323000D03*
X80326000Y67323000D03*
G04 #@! TD*
G04 #@! TO.C,R24*
G36*
G01*
X138176001Y14203000D02*
X138176001Y13423000D01*
G75*
G02*
X138106001Y13353000I-70000J0D01*
G01*
X137546001Y13353000D01*
G75*
G02*
X137476001Y13423000I0J70000D01*
G01*
X137476001Y14203000D01*
G75*
G02*
X137546001Y14273000I70000J0D01*
G01*
X138106001Y14273000D01*
G75*
G02*
X138176001Y14203000I0J-70000D01*
G01*
G37*
G36*
G01*
X136576001Y14203000D02*
X136576001Y13423000D01*
G75*
G02*
X136506001Y13353000I-70000J0D01*
G01*
X135946001Y13353000D01*
G75*
G02*
X135876001Y13423000I0J70000D01*
G01*
X135876001Y14203000D01*
G75*
G02*
X135946001Y14273000I70000J0D01*
G01*
X136506001Y14273000D01*
G75*
G02*
X136576001Y14203000I0J-70000D01*
G01*
G37*
G04 #@! TD*
D24*
G04 #@! TO.C,cr13*
X49926000Y100523000D03*
G04 #@! TD*
G04 #@! TO.C,MMCU38*
X64976000Y51023000D03*
G04 #@! TD*
G04 #@! TO.C,cr2*
X73426000Y100523000D03*
G04 #@! TD*
G04 #@! TO.C,R23*
G36*
G01*
X138176000Y23213000D02*
X138176000Y22433000D01*
G75*
G02*
X138106000Y22363000I-70000J0D01*
G01*
X137546000Y22363000D01*
G75*
G02*
X137476000Y22433000I0J70000D01*
G01*
X137476000Y23213000D01*
G75*
G02*
X137546000Y23283000I70000J0D01*
G01*
X138106000Y23283000D01*
G75*
G02*
X138176000Y23213000I0J-70000D01*
G01*
G37*
G36*
G01*
X136576000Y23213000D02*
X136576000Y22433000D01*
G75*
G02*
X136506000Y22363000I-70000J0D01*
G01*
X135946000Y22363000D01*
G75*
G02*
X135876000Y22433000I0J70000D01*
G01*
X135876000Y23213000D01*
G75*
G02*
X135946000Y23283000I70000J0D01*
G01*
X136506000Y23283000D01*
G75*
G02*
X136576000Y23213000I0J-70000D01*
G01*
G37*
G04 #@! TD*
G04 #@! TO.C,cr3*
X76676000Y100523000D03*
G04 #@! TD*
G04 #@! TO.C,U5*
G36*
G01*
X20726000Y48278000D02*
X20726000Y48578000D01*
G75*
G02*
X20876000Y48728000I150000J0D01*
G01*
X22526000Y48728000D01*
G75*
G02*
X22676000Y48578000I0J-150000D01*
G01*
X22676000Y48278000D01*
G75*
G02*
X22526000Y48128000I-150000J0D01*
G01*
X20876000Y48128000D01*
G75*
G02*
X20726000Y48278000I0J150000D01*
G01*
G37*
G36*
G01*
X20726000Y47008000D02*
X20726000Y47308000D01*
G75*
G02*
X20876000Y47458000I150000J0D01*
G01*
X22526000Y47458000D01*
G75*
G02*
X22676000Y47308000I0J-150000D01*
G01*
X22676000Y47008000D01*
G75*
G02*
X22526000Y46858000I-150000J0D01*
G01*
X20876000Y46858000D01*
G75*
G02*
X20726000Y47008000I0J150000D01*
G01*
G37*
G36*
G01*
X20726000Y45738000D02*
X20726000Y46038000D01*
G75*
G02*
X20876000Y46188000I150000J0D01*
G01*
X22526000Y46188000D01*
G75*
G02*
X22676000Y46038000I0J-150000D01*
G01*
X22676000Y45738000D01*
G75*
G02*
X22526000Y45588000I-150000J0D01*
G01*
X20876000Y45588000D01*
G75*
G02*
X20726000Y45738000I0J150000D01*
G01*
G37*
G36*
G01*
X20726000Y44468000D02*
X20726000Y44768000D01*
G75*
G02*
X20876000Y44918000I150000J0D01*
G01*
X22526000Y44918000D01*
G75*
G02*
X22676000Y44768000I0J-150000D01*
G01*
X22676000Y44468000D01*
G75*
G02*
X22526000Y44318000I-150000J0D01*
G01*
X20876000Y44318000D01*
G75*
G02*
X20726000Y44468000I0J150000D01*
G01*
G37*
G36*
G01*
X25676000Y44468000D02*
X25676000Y44768000D01*
G75*
G02*
X25826000Y44918000I150000J0D01*
G01*
X27476000Y44918000D01*
G75*
G02*
X27626000Y44768000I0J-150000D01*
G01*
X27626000Y44468000D01*
G75*
G02*
X27476000Y44318000I-150000J0D01*
G01*
X25826000Y44318000D01*
G75*
G02*
X25676000Y44468000I0J150000D01*
G01*
G37*
G36*
G01*
X25676000Y45738000D02*
X25676000Y46038000D01*
G75*
G02*
X25826000Y46188000I150000J0D01*
G01*
X27476000Y46188000D01*
G75*
G02*
X27626000Y46038000I0J-150000D01*
G01*
X27626000Y45738000D01*
G75*
G02*
X27476000Y45588000I-150000J0D01*
G01*
X25826000Y45588000D01*
G75*
G02*
X25676000Y45738000I0J150000D01*
G01*
G37*
G36*
G01*
X25676000Y47008000D02*
X25676000Y47308000D01*
G75*
G02*
X25826000Y47458000I150000J0D01*
G01*
X27476000Y47458000D01*
G75*
G02*
X27626000Y47308000I0J-150000D01*
G01*
X27626000Y47008000D01*
G75*
G02*
X27476000Y46858000I-150000J0D01*
G01*
X25826000Y46858000D01*
G75*
G02*
X25676000Y47008000I0J150000D01*
G01*
G37*
G36*
G01*
X25676000Y48278000D02*
X25676000Y48578000D01*
G75*
G02*
X25826000Y48728000I150000J0D01*
G01*
X27476000Y48728000D01*
G75*
G02*
X27626000Y48578000I0J-150000D01*
G01*
X27626000Y48278000D01*
G75*
G02*
X27476000Y48128000I-150000J0D01*
G01*
X25826000Y48128000D01*
G75*
G02*
X25676000Y48278000I0J150000D01*
G01*
G37*
G04 #@! TD*
G04 #@! TO.C,R25*
G36*
G01*
X3116000Y6873000D02*
X2336000Y6873000D01*
G75*
G02*
X2266000Y6943000I0J70000D01*
G01*
X2266000Y7503000D01*
G75*
G02*
X2336000Y7573000I70000J0D01*
G01*
X3116000Y7573000D01*
G75*
G02*
X3186000Y7503000I0J-70000D01*
G01*
X3186000Y6943000D01*
G75*
G02*
X3116000Y6873000I-70000J0D01*
G01*
G37*
G36*
G01*
X3116000Y8473000D02*
X2336000Y8473000D01*
G75*
G02*
X2266000Y8543000I0J70000D01*
G01*
X2266000Y9103000D01*
G75*
G02*
X2336000Y9173000I70000J0D01*
G01*
X3116000Y9173000D01*
G75*
G02*
X3186000Y9103000I0J-70000D01*
G01*
X3186000Y8543000D01*
G75*
G02*
X3116000Y8473000I-70000J0D01*
G01*
G37*
G04 #@! TD*
D35*
G04 #@! TO.C,M4*
X75138506Y7116334D03*
D36*
X85488500Y7066336D03*
X84988499Y7066336D03*
D37*
X78438502Y6016338D03*
X79313504Y5491338D03*
X78138500Y4741340D03*
X78213503Y1191339D03*
G04 #@! TD*
G04 #@! TO.C,R8*
G36*
G01*
X151251000Y35998000D02*
X151251000Y38848000D01*
G75*
G02*
X151501000Y39098000I250000J0D01*
G01*
X152226000Y39098000D01*
G75*
G02*
X152476000Y38848000I0J-250000D01*
G01*
X152476000Y35998000D01*
G75*
G02*
X152226000Y35748000I-250000J0D01*
G01*
X151501000Y35748000D01*
G75*
G02*
X151251000Y35998000I0J250000D01*
G01*
G37*
G36*
G01*
X157176000Y35998000D02*
X157176000Y38848000D01*
G75*
G02*
X157426000Y39098000I250000J0D01*
G01*
X158151000Y39098000D01*
G75*
G02*
X158401000Y38848000I0J-250000D01*
G01*
X158401000Y35998000D01*
G75*
G02*
X158151000Y35748000I-250000J0D01*
G01*
X157426000Y35748000D01*
G75*
G02*
X157176000Y35998000I0J250000D01*
G01*
G37*
G04 #@! TD*
G04 #@! TO.C,D21*
G36*
G01*
X122951000Y58766750D02*
X122951000Y59279250D01*
G75*
G02*
X123169750Y59498000I218750J0D01*
G01*
X123607250Y59498000D01*
G75*
G02*
X123826000Y59279250I0J-218750D01*
G01*
X123826000Y58766750D01*
G75*
G02*
X123607250Y58548000I-218750J0D01*
G01*
X123169750Y58548000D01*
G75*
G02*
X122951000Y58766750I0J218750D01*
G01*
G37*
G36*
G01*
X124526000Y58766750D02*
X124526000Y59279250D01*
G75*
G02*
X124744750Y59498000I218750J0D01*
G01*
X125182250Y59498000D01*
G75*
G02*
X125401000Y59279250I0J-218750D01*
G01*
X125401000Y58766750D01*
G75*
G02*
X125182250Y58548000I-218750J0D01*
G01*
X124744750Y58548000D01*
G75*
G02*
X124526000Y58766750I0J218750D01*
G01*
G37*
G04 #@! TD*
G04 #@! TO.C,R13*
G36*
G01*
X158301000Y70048000D02*
X158301000Y67198000D01*
G75*
G02*
X158051000Y66948000I-250000J0D01*
G01*
X157326000Y66948000D01*
G75*
G02*
X157076000Y67198000I0J250000D01*
G01*
X157076000Y70048000D01*
G75*
G02*
X157326000Y70298000I250000J0D01*
G01*
X158051000Y70298000D01*
G75*
G02*
X158301000Y70048000I0J-250000D01*
G01*
G37*
G36*
G01*
X152376000Y70048000D02*
X152376000Y67198000D01*
G75*
G02*
X152126000Y66948000I-250000J0D01*
G01*
X151401000Y66948000D01*
G75*
G02*
X151151000Y67198000I0J250000D01*
G01*
X151151000Y70048000D01*
G75*
G02*
X151401000Y70298000I250000J0D01*
G01*
X152126000Y70298000D01*
G75*
G02*
X152376000Y70048000I0J-250000D01*
G01*
G37*
G04 #@! TD*
D22*
G04 #@! TO.C,F7*
X157066000Y63323000D03*
X151986000Y63323000D03*
G04 #@! TD*
D25*
G04 #@! TO.C,D8*
X64326000Y93773000D03*
X61026000Y93773000D03*
G04 #@! TD*
D38*
G04 #@! TO.C,U3*
X100176000Y11595500D03*
X99676000Y11595500D03*
X99176000Y11595500D03*
X98676000Y11595500D03*
D39*
X98663500Y11083000D03*
X98663500Y10583000D03*
D38*
X98676000Y10070500D03*
X99176000Y10070500D03*
X99676000Y10070500D03*
X100176000Y10070500D03*
D39*
X100188500Y10583000D03*
X100188500Y11083000D03*
G04 #@! TD*
G04 #@! TO.C,JP48*
G36*
G01*
X97301000Y99973001D02*
X98551000Y99973001D01*
G75*
G02*
X98651000Y99873001I0J-100000D01*
G01*
X98651000Y99073001D01*
G75*
G02*
X98551000Y98973001I-100000J0D01*
G01*
X97301000Y98973001D01*
G75*
G02*
X97201000Y99073001I0J100000D01*
G01*
X97201000Y99873001D01*
G75*
G02*
X97301000Y99973001I100000J0D01*
G01*
G37*
D15*
X97926000Y100428000D03*
X97926000Y96618000D03*
G36*
G01*
X97301000Y98072979D02*
X98551000Y98072979D01*
G75*
G02*
X98651000Y97972979I0J-100000D01*
G01*
X98651000Y97172979D01*
G75*
G02*
X98551000Y97072979I-100000J0D01*
G01*
X97301000Y97072979D01*
G75*
G02*
X97201000Y97172979I0J100000D01*
G01*
X97201000Y97972979D01*
G75*
G02*
X97301000Y98072979I100000J0D01*
G01*
G37*
G04 #@! TD*
D33*
G04 #@! TO.C,P5*
X16590213Y11023000D03*
G04 #@! TD*
G04 #@! TO.C,R3*
G36*
G01*
X42896000Y40088000D02*
X42896000Y40458000D01*
G75*
G02*
X43031000Y40593000I135000J0D01*
G01*
X43301000Y40593000D01*
G75*
G02*
X43436000Y40458000I0J-135000D01*
G01*
X43436000Y40088000D01*
G75*
G02*
X43301000Y39953000I-135000J0D01*
G01*
X43031000Y39953000D01*
G75*
G02*
X42896000Y40088000I0J135000D01*
G01*
G37*
G36*
G01*
X43916000Y40088000D02*
X43916000Y40458000D01*
G75*
G02*
X44051000Y40593000I135000J0D01*
G01*
X44321000Y40593000D01*
G75*
G02*
X44456000Y40458000I0J-135000D01*
G01*
X44456000Y40088000D01*
G75*
G02*
X44321000Y39953000I-135000J0D01*
G01*
X44051000Y39953000D01*
G75*
G02*
X43916000Y40088000I0J135000D01*
G01*
G37*
G04 #@! TD*
D24*
G04 #@! TO.C,VIN8*
X86926000Y82523000D03*
G04 #@! TD*
D22*
G04 #@! TO.C,F1*
X157166000Y22123000D03*
X152086000Y22123000D03*
G04 #@! TD*
G04 #@! TO.C,F6*
X157166000Y31723000D03*
X152086000Y31723000D03*
G04 #@! TD*
G04 #@! TO.C,R21*
G36*
G01*
X138186000Y63213000D02*
X138186000Y62433000D01*
G75*
G02*
X138116000Y62363000I-70000J0D01*
G01*
X137556000Y62363000D01*
G75*
G02*
X137486000Y62433000I0J70000D01*
G01*
X137486000Y63213000D01*
G75*
G02*
X137556000Y63283000I70000J0D01*
G01*
X138116000Y63283000D01*
G75*
G02*
X138186000Y63213000I0J-70000D01*
G01*
G37*
G36*
G01*
X136586000Y63213000D02*
X136586000Y62433000D01*
G75*
G02*
X136516000Y62363000I-70000J0D01*
G01*
X135956000Y62363000D01*
G75*
G02*
X135886000Y62433000I0J70000D01*
G01*
X135886000Y63213000D01*
G75*
G02*
X135956000Y63283000I70000J0D01*
G01*
X136516000Y63283000D01*
G75*
G02*
X136586000Y63213000I0J-70000D01*
G01*
G37*
G04 #@! TD*
G04 #@! TO.C,C6*
G36*
G01*
X26686000Y50193000D02*
X26686000Y49853000D01*
G75*
G02*
X26546000Y49713000I-140000J0D01*
G01*
X26266000Y49713000D01*
G75*
G02*
X26126000Y49853000I0J140000D01*
G01*
X26126000Y50193000D01*
G75*
G02*
X26266000Y50333000I140000J0D01*
G01*
X26546000Y50333000D01*
G75*
G02*
X26686000Y50193000I0J-140000D01*
G01*
G37*
G36*
G01*
X25726000Y50193000D02*
X25726000Y49853000D01*
G75*
G02*
X25586000Y49713000I-140000J0D01*
G01*
X25306000Y49713000D01*
G75*
G02*
X25166000Y49853000I0J140000D01*
G01*
X25166000Y50193000D01*
G75*
G02*
X25306000Y50333000I140000J0D01*
G01*
X25586000Y50333000D01*
G75*
G02*
X25726000Y50193000I0J-140000D01*
G01*
G37*
G04 #@! TD*
D31*
G04 #@! TO.C,G7*
X1458000Y84689000D03*
X3998000Y84689000D03*
X6538000Y84689000D03*
X9078000Y84689000D03*
X11618000Y84689000D03*
X1458000Y82149000D03*
X3998000Y82149000D03*
X6538000Y82149000D03*
X9078000Y82149000D03*
X11618000Y82149000D03*
X1458000Y79609000D03*
X3998000Y79609000D03*
X6538000Y79609000D03*
X9078000Y79609000D03*
X11618000Y79609000D03*
G04 #@! TD*
D33*
G04 #@! TO.C,P2*
X26840213Y11023000D03*
G04 #@! TD*
G04 #@! TO.C,M11*
G36*
G01*
X80346000Y57248000D02*
X80346000Y57698000D01*
G75*
G02*
X80471000Y57823000I125000J0D01*
G01*
X80471000Y57823000D01*
G75*
G02*
X80596000Y57698000I0J-125000D01*
G01*
X80596000Y57248000D01*
G75*
G02*
X80471000Y57123000I-125000J0D01*
G01*
X80471000Y57123000D01*
G75*
G02*
X80346000Y57248000I0J125000D01*
G01*
G37*
G04 #@! TD*
D24*
G04 #@! TO.C,VIN2*
X107926000Y84773000D03*
G04 #@! TD*
D23*
G04 #@! TO.C,D13*
X66876000Y74323000D03*
X64776000Y74323000D03*
G04 #@! TD*
G04 #@! TO.C,R15*
G36*
G01*
X16691000Y95553000D02*
X17061000Y95553000D01*
G75*
G02*
X17196000Y95418000I0J-135000D01*
G01*
X17196000Y95148000D01*
G75*
G02*
X17061000Y95013000I-135000J0D01*
G01*
X16691000Y95013000D01*
G75*
G02*
X16556000Y95148000I0J135000D01*
G01*
X16556000Y95418000D01*
G75*
G02*
X16691000Y95553000I135000J0D01*
G01*
G37*
G36*
G01*
X16691000Y94533000D02*
X17061000Y94533000D01*
G75*
G02*
X17196000Y94398000I0J-135000D01*
G01*
X17196000Y94128000D01*
G75*
G02*
X17061000Y93993000I-135000J0D01*
G01*
X16691000Y93993000D01*
G75*
G02*
X16556000Y94128000I0J135000D01*
G01*
X16556000Y94398000D01*
G75*
G02*
X16691000Y94533000I135000J0D01*
G01*
G37*
G04 #@! TD*
D18*
G04 #@! TO.C,J21*
X9476000Y11523000D03*
D19*
X6936000Y11523000D03*
X4396000Y11523000D03*
X1856000Y11523000D03*
G04 #@! TD*
D23*
G04 #@! TO.C,D39*
X78226000Y74323000D03*
X80326000Y74323000D03*
G04 #@! TD*
D24*
G04 #@! TO.C,VOUT2*
X57176000Y89474215D03*
G04 #@! TD*
G04 #@! TO.C,KNOCK_RAW1*
X71926000Y96523000D03*
G04 #@! TD*
G04 #@! TO.C,R16*
G36*
G01*
X4936000Y26073000D02*
X5716000Y26073000D01*
G75*
G02*
X5786000Y26003000I0J-70000D01*
G01*
X5786000Y25443000D01*
G75*
G02*
X5716000Y25373000I-70000J0D01*
G01*
X4936000Y25373000D01*
G75*
G02*
X4866000Y25443000I0J70000D01*
G01*
X4866000Y26003000D01*
G75*
G02*
X4936000Y26073000I70000J0D01*
G01*
G37*
G36*
G01*
X4936000Y24473000D02*
X5716000Y24473000D01*
G75*
G02*
X5786000Y24403000I0J-70000D01*
G01*
X5786000Y23843000D01*
G75*
G02*
X5716000Y23773000I-70000J0D01*
G01*
X4936000Y23773000D01*
G75*
G02*
X4866000Y23843000I0J70000D01*
G01*
X4866000Y24403000D01*
G75*
G02*
X4936000Y24473000I70000J0D01*
G01*
G37*
G04 #@! TD*
G04 #@! TO.C,D24*
G36*
G01*
X64601000Y72316750D02*
X64601000Y72829250D01*
G75*
G02*
X64819750Y73048000I218750J0D01*
G01*
X65257250Y73048000D01*
G75*
G02*
X65476000Y72829250I0J-218750D01*
G01*
X65476000Y72316750D01*
G75*
G02*
X65257250Y72098000I-218750J0D01*
G01*
X64819750Y72098000D01*
G75*
G02*
X64601000Y72316750I0J218750D01*
G01*
G37*
G36*
G01*
X66176000Y72316750D02*
X66176000Y72829250D01*
G75*
G02*
X66394750Y73048000I218750J0D01*
G01*
X66832250Y73048000D01*
G75*
G02*
X67051000Y72829250I0J-218750D01*
G01*
X67051000Y72316750D01*
G75*
G02*
X66832250Y72098000I-218750J0D01*
G01*
X66394750Y72098000D01*
G75*
G02*
X66176000Y72316750I0J218750D01*
G01*
G37*
G04 #@! TD*
G04 #@! TO.C,MMCU40*
X64926000Y47023000D03*
G04 #@! TD*
D40*
G04 #@! TO.C,M6*
X65051002Y81151414D03*
X65051002Y82876416D03*
X65051002Y84601416D03*
X65051002Y86301414D03*
D41*
X78251001Y79676414D03*
D40*
X84006875Y85697812D03*
X84001003Y82076414D03*
G04 #@! TD*
G04 #@! TO.C,C7*
G36*
G01*
X22151000Y50373000D02*
X22151000Y49873000D01*
G75*
G02*
X21926000Y49648000I-225000J0D01*
G01*
X21476000Y49648000D01*
G75*
G02*
X21251000Y49873000I0J225000D01*
G01*
X21251000Y50373000D01*
G75*
G02*
X21476000Y50598000I225000J0D01*
G01*
X21926000Y50598000D01*
G75*
G02*
X22151000Y50373000I0J-225000D01*
G01*
G37*
G36*
G01*
X20601000Y50373000D02*
X20601000Y49873000D01*
G75*
G02*
X20376000Y49648000I-225000J0D01*
G01*
X19926000Y49648000D01*
G75*
G02*
X19701000Y49873000I0J225000D01*
G01*
X19701000Y50373000D01*
G75*
G02*
X19926000Y50598000I225000J0D01*
G01*
X20376000Y50598000D01*
G75*
G02*
X20601000Y50373000I0J-225000D01*
G01*
G37*
G04 #@! TD*
D28*
G04 #@! TO.C,J19*
X3401000Y16523000D03*
G36*
G01*
X12300999Y15173000D02*
X9101001Y15173000D01*
G75*
G02*
X8851000Y15423001I0J250001D01*
G01*
X8851000Y17622999D01*
G75*
G02*
X9101001Y17873000I250001J0D01*
G01*
X12300999Y17873000D01*
G75*
G02*
X12551000Y17622999I0J-250001D01*
G01*
X12551000Y15423001D01*
G75*
G02*
X12300999Y15173000I-250001J0D01*
G01*
G37*
D42*
X16201000Y16523000D03*
G04 #@! TD*
D23*
G04 #@! TO.C,D2*
X44976000Y37773000D03*
X42876000Y37773000D03*
G04 #@! TD*
D24*
G04 #@! TO.C,VOUT25*
X62676000Y51023000D03*
G04 #@! TD*
G04 #@! TO.C,VIN3*
X111426000Y82773000D03*
G04 #@! TD*
G04 #@! TO.C,C3*
G36*
G01*
X97666000Y14103000D02*
X97666000Y14443000D01*
G75*
G02*
X97806000Y14583000I140000J0D01*
G01*
X98086000Y14583000D01*
G75*
G02*
X98226000Y14443000I0J-140000D01*
G01*
X98226000Y14103000D01*
G75*
G02*
X98086000Y13963000I-140000J0D01*
G01*
X97806000Y13963000D01*
G75*
G02*
X97666000Y14103000I0J140000D01*
G01*
G37*
G36*
G01*
X98626000Y14103000D02*
X98626000Y14443000D01*
G75*
G02*
X98766000Y14583000I140000J0D01*
G01*
X99046000Y14583000D01*
G75*
G02*
X99186000Y14443000I0J-140000D01*
G01*
X99186000Y14103000D01*
G75*
G02*
X99046000Y13963000I-140000J0D01*
G01*
X98766000Y13963000D01*
G75*
G02*
X98626000Y14103000I0J140000D01*
G01*
G37*
G04 #@! TD*
G04 #@! TO.C,C4*
G36*
G01*
X105333500Y10175500D02*
X104993500Y10175500D01*
G75*
G02*
X104853500Y10315500I0J140000D01*
G01*
X104853500Y10595500D01*
G75*
G02*
X104993500Y10735500I140000J0D01*
G01*
X105333500Y10735500D01*
G75*
G02*
X105473500Y10595500I0J-140000D01*
G01*
X105473500Y10315500D01*
G75*
G02*
X105333500Y10175500I-140000J0D01*
G01*
G37*
G36*
G01*
X105333500Y11135500D02*
X104993500Y11135500D01*
G75*
G02*
X104853500Y11275500I0J140000D01*
G01*
X104853500Y11555500D01*
G75*
G02*
X104993500Y11695500I140000J0D01*
G01*
X105333500Y11695500D01*
G75*
G02*
X105473500Y11555500I0J-140000D01*
G01*
X105473500Y11275500D01*
G75*
G02*
X105333500Y11135500I-140000J0D01*
G01*
G37*
G04 #@! TD*
G04 #@! TO.C,VOUT12*
X28976000Y42823000D03*
G04 #@! TD*
D31*
G04 #@! TO.C,G3*
X1458000Y92309000D03*
X3998000Y92309000D03*
X6538000Y92309000D03*
X9078000Y92309000D03*
X11618000Y92309000D03*
X1458000Y89769000D03*
X3998000Y89769000D03*
X6538000Y89769000D03*
X9078000Y89769000D03*
X11618000Y89769000D03*
X1458000Y87229000D03*
X3998000Y87229000D03*
X6538000Y87229000D03*
X9078000Y87229000D03*
X11618000Y87229000D03*
G04 #@! TD*
D24*
G04 #@! TO.C,cr19*
X112176000Y100523000D03*
G04 #@! TD*
G04 #@! TO.C,C5*
G36*
G01*
X97960999Y8583000D02*
X97960999Y9263000D01*
G75*
G02*
X98045999Y9348000I85000J0D01*
G01*
X98725999Y9348000D01*
G75*
G02*
X98810999Y9263000I0J-85000D01*
G01*
X98810999Y8583000D01*
G75*
G02*
X98725999Y8498000I-85000J0D01*
G01*
X98045999Y8498000D01*
G75*
G02*
X97960999Y8583000I0J85000D01*
G01*
G37*
G36*
G01*
X99541001Y8583000D02*
X99541001Y9263000D01*
G75*
G02*
X99626001Y9348000I85000J0D01*
G01*
X100306001Y9348000D01*
G75*
G02*
X100391001Y9263000I0J-85000D01*
G01*
X100391001Y8583000D01*
G75*
G02*
X100306001Y8498000I-85000J0D01*
G01*
X99626001Y8498000D01*
G75*
G02*
X99541001Y8583000I0J85000D01*
G01*
G37*
G04 #@! TD*
G04 #@! TO.C,cr9*
X90426000Y97023000D03*
G04 #@! TD*
G04 #@! TO.C,VOUT26*
X62676000Y55023000D03*
G04 #@! TD*
G04 #@! TO.C,VOUT14*
X35676000Y87273000D03*
G04 #@! TD*
G04 #@! TO.C,D19*
G36*
G01*
X122988500Y64116750D02*
X122988500Y64629250D01*
G75*
G02*
X123207250Y64848000I218750J0D01*
G01*
X123644750Y64848000D01*
G75*
G02*
X123863500Y64629250I0J-218750D01*
G01*
X123863500Y64116750D01*
G75*
G02*
X123644750Y63898000I-218750J0D01*
G01*
X123207250Y63898000D01*
G75*
G02*
X122988500Y64116750I0J218750D01*
G01*
G37*
G36*
G01*
X124563500Y64116750D02*
X124563500Y64629250D01*
G75*
G02*
X124782250Y64848000I218750J0D01*
G01*
X125219750Y64848000D01*
G75*
G02*
X125438500Y64629250I0J-218750D01*
G01*
X125438500Y64116750D01*
G75*
G02*
X125219750Y63898000I-218750J0D01*
G01*
X124782250Y63898000D01*
G75*
G02*
X124563500Y64116750I0J218750D01*
G01*
G37*
G04 #@! TD*
G04 #@! TO.C,MMCU3*
X129526000Y15323000D03*
G04 #@! TD*
G04 #@! TO.C,D31*
G36*
G01*
X80501000Y72829250D02*
X80501000Y72316750D01*
G75*
G02*
X80282250Y72098000I-218750J0D01*
G01*
X79844750Y72098000D01*
G75*
G02*
X79626000Y72316750I0J218750D01*
G01*
X79626000Y72829250D01*
G75*
G02*
X79844750Y73048000I218750J0D01*
G01*
X80282250Y73048000D01*
G75*
G02*
X80501000Y72829250I0J-218750D01*
G01*
G37*
G36*
G01*
X78926000Y72829250D02*
X78926000Y72316750D01*
G75*
G02*
X78707250Y72098000I-218750J0D01*
G01*
X78269750Y72098000D01*
G75*
G02*
X78051000Y72316750I0J218750D01*
G01*
X78051000Y72829250D01*
G75*
G02*
X78269750Y73048000I218750J0D01*
G01*
X78707250Y73048000D01*
G75*
G02*
X78926000Y72829250I0J-218750D01*
G01*
G37*
G04 #@! TD*
G04 #@! TO.C,VOUT16*
X65676000Y40273000D03*
G04 #@! TD*
G04 #@! TO.C,VOUT20*
X62676000Y47023000D03*
G04 #@! TD*
G04 #@! TO.C,MMCU26*
X107676000Y11273000D03*
G04 #@! TD*
G04 #@! TO.C,R20*
G36*
G01*
X138076000Y82713000D02*
X138076000Y81933000D01*
G75*
G02*
X138006000Y81863000I-70000J0D01*
G01*
X137446000Y81863000D01*
G75*
G02*
X137376000Y81933000I0J70000D01*
G01*
X137376000Y82713000D01*
G75*
G02*
X137446000Y82783000I70000J0D01*
G01*
X138006000Y82783000D01*
G75*
G02*
X138076000Y82713000I0J-70000D01*
G01*
G37*
G36*
G01*
X136476000Y82713000D02*
X136476000Y81933000D01*
G75*
G02*
X136406000Y81863000I-70000J0D01*
G01*
X135846000Y81863000D01*
G75*
G02*
X135776000Y81933000I0J70000D01*
G01*
X135776000Y82713000D01*
G75*
G02*
X135846000Y82783000I70000J0D01*
G01*
X136406000Y82783000D01*
G75*
G02*
X136476000Y82713000I0J-70000D01*
G01*
G37*
G04 #@! TD*
D35*
G04 #@! TO.C,M8*
X18926000Y46810476D03*
X18926000Y45935476D03*
X18926000Y45235475D03*
X1101002Y44785476D03*
X1101002Y47185479D03*
G04 #@! TD*
D37*
G04 #@! TO.C,M5*
X126251769Y735480D03*
D43*
X87868505Y4460491D03*
D37*
X113988501Y735480D03*
X99788502Y735480D03*
X88888503Y735480D03*
D43*
X87868500Y2560490D03*
D37*
X124863496Y4535492D03*
G04 #@! TD*
D24*
G04 #@! TO.C,VOUT22*
X31176000Y87273000D03*
G04 #@! TD*
G04 #@! TO.C,MMCU25*
X107676000Y13273000D03*
G04 #@! TD*
G04 #@! TO.C,D12*
G36*
G01*
X20151000Y90279250D02*
X20151000Y89766750D01*
G75*
G02*
X19932250Y89548000I-218750J0D01*
G01*
X19494750Y89548000D01*
G75*
G02*
X19276000Y89766750I0J218750D01*
G01*
X19276000Y90279250D01*
G75*
G02*
X19494750Y90498000I218750J0D01*
G01*
X19932250Y90498000D01*
G75*
G02*
X20151000Y90279250I0J-218750D01*
G01*
G37*
G36*
G01*
X18576000Y90279250D02*
X18576000Y89766750D01*
G75*
G02*
X18357250Y89548000I-218750J0D01*
G01*
X17919750Y89548000D01*
G75*
G02*
X17701000Y89766750I0J218750D01*
G01*
X17701000Y90279250D01*
G75*
G02*
X17919750Y90498000I218750J0D01*
G01*
X18357250Y90498000D01*
G75*
G02*
X18576000Y90279250I0J-218750D01*
G01*
G37*
G04 #@! TD*
G04 #@! TO.C,R22*
G36*
G01*
X138176000Y73213000D02*
X138176000Y72433000D01*
G75*
G02*
X138106000Y72363000I-70000J0D01*
G01*
X137546000Y72363000D01*
G75*
G02*
X137476000Y72433000I0J70000D01*
G01*
X137476000Y73213000D01*
G75*
G02*
X137546000Y73283000I70000J0D01*
G01*
X138106000Y73283000D01*
G75*
G02*
X138176000Y73213000I0J-70000D01*
G01*
G37*
G36*
G01*
X136576000Y73213000D02*
X136576000Y72433000D01*
G75*
G02*
X136506000Y72363000I-70000J0D01*
G01*
X135946000Y72363000D01*
G75*
G02*
X135876000Y72433000I0J70000D01*
G01*
X135876000Y73213000D01*
G75*
G02*
X135946000Y73283000I70000J0D01*
G01*
X136506000Y73283000D01*
G75*
G02*
X136576000Y73213000I0J-70000D01*
G01*
G37*
G04 #@! TD*
G04 #@! TO.C,J17*
G36*
G01*
X31776000Y4298100D02*
X31776000Y2947900D01*
G75*
G02*
X31526100Y2698000I-249900J0D01*
G01*
X30325900Y2698000D01*
G75*
G02*
X30076000Y2947900I0J249900D01*
G01*
X30076000Y4298100D01*
G75*
G02*
X30325900Y4548000I249900J0D01*
G01*
X31526100Y4548000D01*
G75*
G02*
X31776000Y4298100I0J-249900D01*
G01*
G37*
D44*
X28426000Y3623000D03*
X25926000Y3623000D03*
X23426000Y3623000D03*
X20926000Y3623000D03*
X18426000Y3623000D03*
X15926000Y3623000D03*
X13426000Y3623000D03*
G04 #@! TD*
D24*
G04 #@! TO.C,VOUT6*
X40426000Y90023000D03*
G04 #@! TD*
G04 #@! TO.C,D5*
G36*
G01*
X41438500Y41529250D02*
X41438500Y41016750D01*
G75*
G02*
X41219750Y40798000I-218750J0D01*
G01*
X40782250Y40798000D01*
G75*
G02*
X40563500Y41016750I0J218750D01*
G01*
X40563500Y41529250D01*
G75*
G02*
X40782250Y41748000I218750J0D01*
G01*
X41219750Y41748000D01*
G75*
G02*
X41438500Y41529250I0J-218750D01*
G01*
G37*
G36*
G01*
X39863500Y41529250D02*
X39863500Y41016750D01*
G75*
G02*
X39644750Y40798000I-218750J0D01*
G01*
X39207250Y40798000D01*
G75*
G02*
X38988500Y41016750I0J218750D01*
G01*
X38988500Y41529250D01*
G75*
G02*
X39207250Y41748000I218750J0D01*
G01*
X39644750Y41748000D01*
G75*
G02*
X39863500Y41529250I0J-218750D01*
G01*
G37*
G04 #@! TD*
D45*
G04 #@! TO.C,J1*
X83726000Y13948000D03*
D46*
X82926000Y12198000D03*
X82126000Y13948000D03*
X81326000Y12198000D03*
X80526000Y13948000D03*
D47*
X85776000Y13073000D03*
X78476000Y13073000D03*
G04 #@! TD*
D24*
G04 #@! TO.C,MMCU35*
X83926000Y59523000D03*
G04 #@! TD*
D29*
G04 #@! TO.C,SW1*
X91926000Y11273000D03*
D30*
X91926000Y12973000D03*
X91926000Y9573000D03*
G04 #@! TD*
D24*
G04 #@! TO.C,J14*
X68426000Y88523000D03*
G04 #@! TD*
G04 #@! TO.C,VIN1*
X104676000Y82723000D03*
G04 #@! TD*
D23*
G04 #@! TO.C,D35*
X66876000Y63823000D03*
X64776000Y63823000D03*
G04 #@! TD*
G04 #@! TO.C,D6*
G36*
G01*
X41438500Y39779250D02*
X41438500Y39266750D01*
G75*
G02*
X41219750Y39048000I-218750J0D01*
G01*
X40782250Y39048000D01*
G75*
G02*
X40563500Y39266750I0J218750D01*
G01*
X40563500Y39779250D01*
G75*
G02*
X40782250Y39998000I218750J0D01*
G01*
X41219750Y39998000D01*
G75*
G02*
X41438500Y39779250I0J-218750D01*
G01*
G37*
G36*
G01*
X39863500Y39779250D02*
X39863500Y39266750D01*
G75*
G02*
X39644750Y39048000I-218750J0D01*
G01*
X39207250Y39048000D01*
G75*
G02*
X38988500Y39266750I0J218750D01*
G01*
X38988500Y39779250D01*
G75*
G02*
X39207250Y39998000I218750J0D01*
G01*
X39644750Y39998000D01*
G75*
G02*
X39863500Y39779250I0J-218750D01*
G01*
G37*
G04 #@! TD*
D24*
G04 #@! TO.C,VOUT3*
X58426000Y91474215D03*
G04 #@! TD*
G04 #@! TO.C,MMCU1*
X133526000Y15323000D03*
G04 #@! TD*
D33*
G04 #@! TO.C,P6*
X13340213Y11023000D03*
G04 #@! TD*
D24*
G04 #@! TO.C,cr17*
X65826000Y96523000D03*
G04 #@! TD*
D18*
G04 #@! TO.C,J20*
X14276000Y21523000D03*
D19*
X11736000Y21523000D03*
X9196000Y21523000D03*
X6656000Y21523000D03*
X4116000Y21523000D03*
X1576000Y21523000D03*
G04 #@! TD*
G04 #@! TO.C,R29*
G36*
G01*
X48956000Y35708000D02*
X48956000Y35338000D01*
G75*
G02*
X48821000Y35203000I-135000J0D01*
G01*
X48551000Y35203000D01*
G75*
G02*
X48416000Y35338000I0J135000D01*
G01*
X48416000Y35708000D01*
G75*
G02*
X48551000Y35843000I135000J0D01*
G01*
X48821000Y35843000D01*
G75*
G02*
X48956000Y35708000I0J-135000D01*
G01*
G37*
G36*
G01*
X47936000Y35708000D02*
X47936000Y35338000D01*
G75*
G02*
X47801000Y35203000I-135000J0D01*
G01*
X47531000Y35203000D01*
G75*
G02*
X47396000Y35338000I0J135000D01*
G01*
X47396000Y35708000D01*
G75*
G02*
X47531000Y35843000I135000J0D01*
G01*
X47801000Y35843000D01*
G75*
G02*
X47936000Y35708000I0J-135000D01*
G01*
G37*
G04 #@! TD*
D24*
G04 #@! TO.C,VOUT21*
X62676000Y49023000D03*
G04 #@! TD*
G04 #@! TO.C,MMCU22*
X79426000Y59523000D03*
G04 #@! TD*
D34*
G04 #@! TO.C,TP1*
X43676000Y34023000D03*
G04 #@! TD*
D24*
G04 #@! TO.C,J15*
X66176000Y88523000D03*
G04 #@! TD*
G04 #@! TO.C,cr7*
X92176000Y100523000D03*
G04 #@! TD*
G04 #@! TO.C,U4*
G36*
G01*
X104063500Y10935500D02*
X104063500Y10735500D01*
G75*
G02*
X103963500Y10635500I-100000J0D01*
G01*
X103613500Y10635500D01*
G75*
G02*
X103513500Y10735500I0J100000D01*
G01*
X103513500Y10935500D01*
G75*
G02*
X103613500Y11035500I100000J0D01*
G01*
X103963500Y11035500D01*
G75*
G02*
X104063500Y10935500I0J-100000D01*
G01*
G37*
G36*
G01*
X104063500Y11535500D02*
X104063500Y11335500D01*
G75*
G02*
X103963500Y11235500I-100000J0D01*
G01*
X103613500Y11235500D01*
G75*
G02*
X103513500Y11335500I0J100000D01*
G01*
X103513500Y11535500D01*
G75*
G02*
X103613500Y11635500I100000J0D01*
G01*
X103963500Y11635500D01*
G75*
G02*
X104063500Y11535500I0J-100000D01*
G01*
G37*
G36*
G01*
X103663500Y12235500D02*
X103663500Y11885500D01*
G75*
G02*
X103563500Y11785500I-100000J0D01*
G01*
X103363500Y11785500D01*
G75*
G02*
X103263500Y11885500I0J100000D01*
G01*
X103263500Y12235500D01*
G75*
G02*
X103363500Y12335500I100000J0D01*
G01*
X103563500Y12335500D01*
G75*
G02*
X103663500Y12235500I0J-100000D01*
G01*
G37*
G36*
G01*
X103063500Y12235500D02*
X103063500Y11885500D01*
G75*
G02*
X102963500Y11785500I-100000J0D01*
G01*
X102763500Y11785500D01*
G75*
G02*
X102663500Y11885500I0J100000D01*
G01*
X102663500Y12235500D01*
G75*
G02*
X102763500Y12335500I100000J0D01*
G01*
X102963500Y12335500D01*
G75*
G02*
X103063500Y12235500I0J-100000D01*
G01*
G37*
G36*
G01*
X102463500Y12235500D02*
X102463500Y11885500D01*
G75*
G02*
X102363500Y11785500I-100000J0D01*
G01*
X102163500Y11785500D01*
G75*
G02*
X102063500Y11885500I0J100000D01*
G01*
X102063500Y12235500D01*
G75*
G02*
X102163500Y12335500I100000J0D01*
G01*
X102363500Y12335500D01*
G75*
G02*
X102463500Y12235500I0J-100000D01*
G01*
G37*
G36*
G01*
X102213500Y11535500D02*
X102213500Y11335500D01*
G75*
G02*
X102113500Y11235500I-100000J0D01*
G01*
X101763500Y11235500D01*
G75*
G02*
X101663500Y11335500I0J100000D01*
G01*
X101663500Y11535500D01*
G75*
G02*
X101763500Y11635500I100000J0D01*
G01*
X102113500Y11635500D01*
G75*
G02*
X102213500Y11535500I0J-100000D01*
G01*
G37*
G36*
G01*
X102213500Y10935500D02*
X102213500Y10735500D01*
G75*
G02*
X102113500Y10635500I-100000J0D01*
G01*
X101763500Y10635500D01*
G75*
G02*
X101663500Y10735500I0J100000D01*
G01*
X101663500Y10935500D01*
G75*
G02*
X101763500Y11035500I100000J0D01*
G01*
X102113500Y11035500D01*
G75*
G02*
X102213500Y10935500I0J-100000D01*
G01*
G37*
G36*
G01*
X102463500Y10385500D02*
X102463500Y10035500D01*
G75*
G02*
X102363500Y9935500I-100000J0D01*
G01*
X102163500Y9935500D01*
G75*
G02*
X102063500Y10035500I0J100000D01*
G01*
X102063500Y10385500D01*
G75*
G02*
X102163500Y10485500I100000J0D01*
G01*
X102363500Y10485500D01*
G75*
G02*
X102463500Y10385500I0J-100000D01*
G01*
G37*
G36*
G01*
X103063500Y10385500D02*
X103063500Y10035500D01*
G75*
G02*
X102963500Y9935500I-100000J0D01*
G01*
X102763500Y9935500D01*
G75*
G02*
X102663500Y10035500I0J100000D01*
G01*
X102663500Y10385500D01*
G75*
G02*
X102763500Y10485500I100000J0D01*
G01*
X102963500Y10485500D01*
G75*
G02*
X103063500Y10385500I0J-100000D01*
G01*
G37*
G36*
G01*
X103663500Y10385500D02*
X103663500Y10035500D01*
G75*
G02*
X103563500Y9935500I-100000J0D01*
G01*
X103363500Y9935500D01*
G75*
G02*
X103263500Y10035500I0J100000D01*
G01*
X103263500Y10385500D01*
G75*
G02*
X103363500Y10485500I100000J0D01*
G01*
X103563500Y10485500D01*
G75*
G02*
X103663500Y10385500I0J-100000D01*
G01*
G37*
G04 #@! TD*
G04 #@! TO.C,VOUT19*
X66426000Y42773000D03*
G04 #@! TD*
G04 #@! TO.C,VOUT4*
X60426000Y79523000D03*
G04 #@! TD*
G04 #@! TO.C,VIN9*
X87926000Y80523000D03*
G04 #@! TD*
G04 #@! TO.C,VOUT18*
X62676000Y45023000D03*
G04 #@! TD*
G04 #@! TO.C,MMCU23*
X81676000Y59523000D03*
G04 #@! TD*
G04 #@! TO.C,R30*
G36*
G01*
X47396000Y38338000D02*
X47396000Y38708000D01*
G75*
G02*
X47531000Y38843000I135000J0D01*
G01*
X47801000Y38843000D01*
G75*
G02*
X47936000Y38708000I0J-135000D01*
G01*
X47936000Y38338000D01*
G75*
G02*
X47801000Y38203000I-135000J0D01*
G01*
X47531000Y38203000D01*
G75*
G02*
X47396000Y38338000I0J135000D01*
G01*
G37*
G36*
G01*
X48416000Y38338000D02*
X48416000Y38708000D01*
G75*
G02*
X48551000Y38843000I135000J0D01*
G01*
X48821000Y38843000D01*
G75*
G02*
X48956000Y38708000I0J-135000D01*
G01*
X48956000Y38338000D01*
G75*
G02*
X48821000Y38203000I-135000J0D01*
G01*
X48551000Y38203000D01*
G75*
G02*
X48416000Y38338000I0J135000D01*
G01*
G37*
G04 #@! TD*
G04 #@! TO.C,VOUT7*
X60426000Y77523000D03*
G04 #@! TD*
G04 #@! TO.C,VOUT9*
X53176000Y89474215D03*
G04 #@! TD*
G04 #@! TO.C,D26*
G36*
G01*
X80501000Y62329250D02*
X80501000Y61816750D01*
G75*
G02*
X80282250Y61598000I-218750J0D01*
G01*
X79844750Y61598000D01*
G75*
G02*
X79626000Y61816750I0J218750D01*
G01*
X79626000Y62329250D01*
G75*
G02*
X79844750Y62548000I218750J0D01*
G01*
X80282250Y62548000D01*
G75*
G02*
X80501000Y62329250I0J-218750D01*
G01*
G37*
G36*
G01*
X78926000Y62329250D02*
X78926000Y61816750D01*
G75*
G02*
X78707250Y61598000I-218750J0D01*
G01*
X78269750Y61598000D01*
G75*
G02*
X78051000Y61816750I0J218750D01*
G01*
X78051000Y62329250D01*
G75*
G02*
X78269750Y62548000I218750J0D01*
G01*
X78707250Y62548000D01*
G75*
G02*
X78926000Y62329250I0J-218750D01*
G01*
G37*
G04 #@! TD*
G04 #@! TO.C,MMCU12*
X74576000Y14173000D03*
G04 #@! TD*
G04 #@! TO.C,VOUT23*
X33426000Y87273000D03*
G04 #@! TD*
G04 #@! TO.C,VOUT17*
X25426000Y41773000D03*
G04 #@! TD*
G04 #@! TO.C,cr16*
X63426000Y96523000D03*
G04 #@! TD*
G04 #@! TO.C,cr5*
X59176000Y96523000D03*
G04 #@! TD*
G04 #@! TO.C,J16*
X88176000Y84523000D03*
G04 #@! TD*
D35*
G04 #@! TO.C,M12*
X18926000Y42060476D03*
X18926000Y41185476D03*
X18926000Y40485475D03*
X1101002Y40035476D03*
X1101002Y42435479D03*
G04 #@! TD*
D31*
G04 #@! TO.C,G4*
X1458000Y69449000D03*
X3998000Y69449000D03*
X6538000Y69449000D03*
X9078000Y69449000D03*
X11618000Y69449000D03*
X1458000Y66909000D03*
X3998000Y66909000D03*
X6538000Y66909000D03*
X9078000Y66909000D03*
X11618000Y66909000D03*
X1458000Y64369000D03*
X3998000Y64369000D03*
X6538000Y64369000D03*
X9078000Y64369000D03*
X11618000Y64369000D03*
G04 #@! TD*
G04 #@! TO.C,R28*
G36*
G01*
X48956000Y36708000D02*
X48956000Y36338000D01*
G75*
G02*
X48821000Y36203000I-135000J0D01*
G01*
X48551000Y36203000D01*
G75*
G02*
X48416000Y36338000I0J135000D01*
G01*
X48416000Y36708000D01*
G75*
G02*
X48551000Y36843000I135000J0D01*
G01*
X48821000Y36843000D01*
G75*
G02*
X48956000Y36708000I0J-135000D01*
G01*
G37*
G36*
G01*
X47936000Y36708000D02*
X47936000Y36338000D01*
G75*
G02*
X47801000Y36203000I-135000J0D01*
G01*
X47531000Y36203000D01*
G75*
G02*
X47396000Y36338000I0J135000D01*
G01*
X47396000Y36708000D01*
G75*
G02*
X47531000Y36843000I135000J0D01*
G01*
X47801000Y36843000D01*
G75*
G02*
X47936000Y36708000I0J-135000D01*
G01*
G37*
G04 #@! TD*
D24*
G04 #@! TO.C,cr21*
X119426000Y100523000D03*
G04 #@! TD*
G04 #@! TO.C,MMCU13*
X73226000Y16573000D03*
G04 #@! TD*
G04 #@! TO.C,R11*
G36*
G01*
X158201000Y88948000D02*
X158201000Y86098000D01*
G75*
G02*
X157951000Y85848000I-250000J0D01*
G01*
X157226000Y85848000D01*
G75*
G02*
X156976000Y86098000I0J250000D01*
G01*
X156976000Y88948000D01*
G75*
G02*
X157226000Y89198000I250000J0D01*
G01*
X157951000Y89198000D01*
G75*
G02*
X158201000Y88948000I0J-250000D01*
G01*
G37*
G36*
G01*
X152276000Y88948000D02*
X152276000Y86098000D01*
G75*
G02*
X152026000Y85848000I-250000J0D01*
G01*
X151301000Y85848000D01*
G75*
G02*
X151051000Y86098000I0J250000D01*
G01*
X151051000Y88948000D01*
G75*
G02*
X151301000Y89198000I250000J0D01*
G01*
X152026000Y89198000D01*
G75*
G02*
X152276000Y88948000I0J-250000D01*
G01*
G37*
G04 #@! TD*
D22*
G04 #@! TO.C,F4*
X157066000Y91523000D03*
X151986000Y91523000D03*
G04 #@! TD*
D24*
G04 #@! TO.C,VOUT8*
X50926000Y89474215D03*
G04 #@! TD*
G04 #@! TO.C,cr12*
X43176000Y100523000D03*
G04 #@! TD*
D48*
G04 #@! TO.C,U2*
X28822750Y16343000D03*
X28822750Y39203000D03*
D15*
X41522750Y21423000D03*
X41522750Y23963000D03*
X41522750Y26503000D03*
X41522750Y29043000D03*
X41522750Y31583000D03*
X41522750Y34123000D03*
G04 #@! TD*
G04 #@! TO.C,C14*
G36*
G01*
X63231000Y20528000D02*
X63731000Y20528000D01*
G75*
G02*
X63956000Y20303000I0J-225000D01*
G01*
X63956000Y19853000D01*
G75*
G02*
X63731000Y19628000I-225000J0D01*
G01*
X63231000Y19628000D01*
G75*
G02*
X63006000Y19853000I0J225000D01*
G01*
X63006000Y20303000D01*
G75*
G02*
X63231000Y20528000I225000J0D01*
G01*
G37*
G36*
G01*
X63231000Y18978000D02*
X63731000Y18978000D01*
G75*
G02*
X63956000Y18753000I0J-225000D01*
G01*
X63956000Y18303000D01*
G75*
G02*
X63731000Y18078000I-225000J0D01*
G01*
X63231000Y18078000D01*
G75*
G02*
X63006000Y18303000I0J225000D01*
G01*
X63006000Y18753000D01*
G75*
G02*
X63231000Y18978000I225000J0D01*
G01*
G37*
G04 #@! TD*
G04 #@! TO.C,D17*
G36*
G01*
X122951000Y57016750D02*
X122951000Y57529250D01*
G75*
G02*
X123169750Y57748000I218750J0D01*
G01*
X123607250Y57748000D01*
G75*
G02*
X123826000Y57529250I0J-218750D01*
G01*
X123826000Y57016750D01*
G75*
G02*
X123607250Y56798000I-218750J0D01*
G01*
X123169750Y56798000D01*
G75*
G02*
X122951000Y57016750I0J218750D01*
G01*
G37*
G36*
G01*
X124526000Y57016750D02*
X124526000Y57529250D01*
G75*
G02*
X124744750Y57748000I218750J0D01*
G01*
X125182250Y57748000D01*
G75*
G02*
X125401000Y57529250I0J-218750D01*
G01*
X125401000Y57016750D01*
G75*
G02*
X125182250Y56798000I-218750J0D01*
G01*
X124744750Y56798000D01*
G75*
G02*
X124526000Y57016750I0J218750D01*
G01*
G37*
G04 #@! TD*
D49*
G04 #@! TO.C,M9*
X34068570Y84822993D03*
X35324435Y84822993D03*
X49699461Y84822993D03*
D50*
X58754459Y81326709D03*
G04 #@! TD*
D24*
G04 #@! TO.C,cr10*
X64176000Y100523000D03*
G04 #@! TD*
G04 #@! TO.C,cr4*
X18426000Y100523000D03*
G04 #@! TD*
G04 #@! TO.C,cr6*
X89926000Y100523000D03*
G04 #@! TD*
G04 #@! TO.C,MMCU32*
X64976000Y53023000D03*
G04 #@! TD*
D15*
G04 #@! TO.C,JP2*
X23976000Y87623000D03*
G36*
G01*
X23351000Y89077979D02*
X24601000Y89077979D01*
G75*
G02*
X24701000Y88977979I0J-100000D01*
G01*
X24701000Y88177979D01*
G75*
G02*
X24601000Y88077979I-100000J0D01*
G01*
X23351000Y88077979D01*
G75*
G02*
X23251000Y88177979I0J100000D01*
G01*
X23251000Y88977979D01*
G75*
G02*
X23351000Y89077979I100000J0D01*
G01*
G37*
G36*
G01*
X23351000Y90978001D02*
X24601000Y90978001D01*
G75*
G02*
X24701000Y90878001I0J-100000D01*
G01*
X24701000Y90078001D01*
G75*
G02*
X24601000Y89978001I-100000J0D01*
G01*
X23351000Y89978001D01*
G75*
G02*
X23251000Y90078001I0J100000D01*
G01*
X23251000Y90878001D01*
G75*
G02*
X23351000Y90978001I100000J0D01*
G01*
G37*
X23976000Y91433000D03*
G04 #@! TD*
D24*
G04 #@! TO.C,cr23*
X138926000Y100523000D03*
G04 #@! TD*
D43*
G04 #@! TO.C,M1*
X16034985Y33885113D03*
D51*
X509985Y29835103D03*
D37*
X14859984Y38385112D03*
X6634984Y37060108D03*
X6652489Y31827614D03*
X8534985Y31335108D03*
X1184992Y30210122D03*
G04 #@! TD*
D52*
G04 #@! TO.C,M10*
X119651052Y46359475D03*
X120411031Y46359475D03*
X121586024Y46359475D03*
X122761011Y46359475D03*
X123600923Y46359475D03*
X124350995Y46359475D03*
X125526006Y46359475D03*
X126701003Y46359475D03*
D37*
X121661000Y36259868D03*
X119825990Y36684876D03*
X121875998Y37234873D03*
X121661003Y38109832D03*
X121585996Y38959855D03*
X119825990Y39284871D03*
X121135990Y40584838D03*
X119825990Y41234855D03*
X125751005Y34059852D03*
X121675999Y34359854D03*
G04 #@! TD*
D24*
G04 #@! TO.C,VOUT11*
X52176000Y91474215D03*
G04 #@! TD*
G04 #@! TO.C,R34*
G36*
G01*
X103065999Y96133000D02*
X103065999Y96913000D01*
G75*
G02*
X103135999Y96983000I70000J0D01*
G01*
X103695999Y96983000D01*
G75*
G02*
X103765999Y96913000I0J-70000D01*
G01*
X103765999Y96133000D01*
G75*
G02*
X103695999Y96063000I-70000J0D01*
G01*
X103135999Y96063000D01*
G75*
G02*
X103065999Y96133000I0J70000D01*
G01*
G37*
G36*
G01*
X104665999Y96133000D02*
X104665999Y96913000D01*
G75*
G02*
X104735999Y96983000I70000J0D01*
G01*
X105295999Y96983000D01*
G75*
G02*
X105365999Y96913000I0J-70000D01*
G01*
X105365999Y96133000D01*
G75*
G02*
X105295999Y96063000I-70000J0D01*
G01*
X104735999Y96063000D01*
G75*
G02*
X104665999Y96133000I0J70000D01*
G01*
G37*
G04 #@! TD*
G04 #@! TO.C,cr14*
X50176000Y95273000D03*
G04 #@! TD*
G04 #@! TO.C,D4*
G36*
G01*
X41438500Y38029250D02*
X41438500Y37516750D01*
G75*
G02*
X41219750Y37298000I-218750J0D01*
G01*
X40782250Y37298000D01*
G75*
G02*
X40563500Y37516750I0J218750D01*
G01*
X40563500Y38029250D01*
G75*
G02*
X40782250Y38248000I218750J0D01*
G01*
X41219750Y38248000D01*
G75*
G02*
X41438500Y38029250I0J-218750D01*
G01*
G37*
G36*
G01*
X39863500Y38029250D02*
X39863500Y37516750D01*
G75*
G02*
X39644750Y37298000I-218750J0D01*
G01*
X39207250Y37298000D01*
G75*
G02*
X38988500Y37516750I0J218750D01*
G01*
X38988500Y38029250D01*
G75*
G02*
X39207250Y38248000I218750J0D01*
G01*
X39644750Y38248000D01*
G75*
G02*
X39863500Y38029250I0J-218750D01*
G01*
G37*
G04 #@! TD*
G04 #@! TO.C,R19*
G36*
G01*
X138176000Y42713000D02*
X138176000Y41933000D01*
G75*
G02*
X138106000Y41863000I-70000J0D01*
G01*
X137546000Y41863000D01*
G75*
G02*
X137476000Y41933000I0J70000D01*
G01*
X137476000Y42713000D01*
G75*
G02*
X137546000Y42783000I70000J0D01*
G01*
X138106000Y42783000D01*
G75*
G02*
X138176000Y42713000I0J-70000D01*
G01*
G37*
G36*
G01*
X136576000Y42713000D02*
X136576000Y41933000D01*
G75*
G02*
X136506000Y41863000I-70000J0D01*
G01*
X135946000Y41863000D01*
G75*
G02*
X135876000Y41933000I0J70000D01*
G01*
X135876000Y42713000D01*
G75*
G02*
X135946000Y42783000I70000J0D01*
G01*
X136506000Y42783000D01*
G75*
G02*
X136576000Y42713000I0J-70000D01*
G01*
G37*
G04 #@! TD*
G04 #@! TO.C,MMCU11*
X76576000Y11873000D03*
G04 #@! TD*
D53*
G04 #@! TO.C,Q9*
X25476000Y74173000D03*
X23176000Y74173000D03*
X20876000Y74173000D03*
D54*
X23176000Y67873000D03*
G04 #@! TD*
G04 #@! TO.C,D7*
G36*
G01*
X75601000Y78379250D02*
X75601000Y77866750D01*
G75*
G02*
X75382250Y77648000I-218750J0D01*
G01*
X74944750Y77648000D01*
G75*
G02*
X74726000Y77866750I0J218750D01*
G01*
X74726000Y78379250D01*
G75*
G02*
X74944750Y78598000I218750J0D01*
G01*
X75382250Y78598000D01*
G75*
G02*
X75601000Y78379250I0J-218750D01*
G01*
G37*
G36*
G01*
X74026000Y78379250D02*
X74026000Y77866750D01*
G75*
G02*
X73807250Y77648000I-218750J0D01*
G01*
X73369750Y77648000D01*
G75*
G02*
X73151000Y77866750I0J218750D01*
G01*
X73151000Y78379250D01*
G75*
G02*
X73369750Y78598000I218750J0D01*
G01*
X73807250Y78598000D01*
G75*
G02*
X74026000Y78379250I0J-218750D01*
G01*
G37*
G04 #@! TD*
D23*
G04 #@! TO.C,D43*
X69326000Y55823000D03*
X67226000Y55823000D03*
G04 #@! TD*
D24*
G04 #@! TO.C,cr18*
X68676000Y96523000D03*
G04 #@! TD*
D34*
G04 #@! TO.C,TP2*
X35176000Y41523000D03*
G04 #@! TD*
D24*
G04 #@! TO.C,cr22*
X138926000Y97273000D03*
G04 #@! TD*
D23*
G04 #@! TO.C,D42*
X77826000Y76623000D03*
X79926000Y76623000D03*
G04 #@! TD*
D24*
G04 #@! TO.C,VIN6*
X110176000Y84773000D03*
G04 #@! TD*
G04 #@! TO.C,MMCU24*
X107676000Y15273000D03*
G04 #@! TD*
G04 #@! TO.C,C20*
G36*
G01*
X63596000Y39263000D02*
X63256000Y39263000D01*
G75*
G02*
X63116000Y39403000I0J140000D01*
G01*
X63116000Y39683000D01*
G75*
G02*
X63256000Y39823000I140000J0D01*
G01*
X63596000Y39823000D01*
G75*
G02*
X63736000Y39683000I0J-140000D01*
G01*
X63736000Y39403000D01*
G75*
G02*
X63596000Y39263000I-140000J0D01*
G01*
G37*
G36*
G01*
X63596000Y40223000D02*
X63256000Y40223000D01*
G75*
G02*
X63116000Y40363000I0J140000D01*
G01*
X63116000Y40643000D01*
G75*
G02*
X63256000Y40783000I140000J0D01*
G01*
X63596000Y40783000D01*
G75*
G02*
X63736000Y40643000I0J-140000D01*
G01*
X63736000Y40363000D01*
G75*
G02*
X63596000Y40223000I-140000J0D01*
G01*
G37*
G04 #@! TD*
G04 #@! TO.C,J18*
G36*
G01*
X26186660Y56362340D02*
X26186660Y56362340D01*
G75*
G02*
X24489604Y56362340I-848528J848528D01*
G01*
X24065340Y56786604D01*
G75*
G02*
X24065340Y58483660I848528J848528D01*
G01*
X24065340Y58483660D01*
G75*
G02*
X25762396Y58483660I848528J-848528D01*
G01*
X26186660Y58059396D01*
G75*
G02*
X26186660Y56362340I-848528J-848528D01*
G01*
G37*
G36*
G01*
X24286660Y54162340D02*
X24286660Y54162340D01*
G75*
G02*
X22589604Y54162340I-848528J848528D01*
G01*
X22165340Y54586604D01*
G75*
G02*
X22165340Y56283660I848528J848528D01*
G01*
X22165340Y56283660D01*
G75*
G02*
X23862396Y56283660I848528J-848528D01*
G01*
X24286660Y55859396D01*
G75*
G02*
X24286660Y54162340I-848528J-848528D01*
G01*
G37*
G36*
G01*
X18086660Y54162340D02*
X18086660Y54162340D01*
G75*
G02*
X16389604Y54162340I-848528J848528D01*
G01*
X15965340Y54586604D01*
G75*
G02*
X15965340Y56283660I848528J848528D01*
G01*
X15965340Y56283660D01*
G75*
G02*
X17662396Y56283660I848528J-848528D01*
G01*
X18086660Y55859396D01*
G75*
G02*
X18086660Y54162340I-848528J-848528D01*
G01*
G37*
G36*
G01*
X20586660Y56362340D02*
X20586660Y56362340D01*
G75*
G02*
X18889604Y56362340I-848528J848528D01*
G01*
X18465340Y56786604D01*
G75*
G02*
X18465340Y58483660I848528J848528D01*
G01*
X18465340Y58483660D01*
G75*
G02*
X20162396Y58483660I848528J-848528D01*
G01*
X20586660Y58059396D01*
G75*
G02*
X20586660Y56362340I-848528J-848528D01*
G01*
G37*
G36*
G01*
X29886660Y54162340D02*
X29886660Y54162340D01*
G75*
G02*
X28189604Y54162340I-848528J848528D01*
G01*
X27765340Y54586604D01*
G75*
G02*
X27765340Y56283660I848528J848528D01*
G01*
X27765340Y56283660D01*
G75*
G02*
X29462396Y56283660I848528J-848528D01*
G01*
X29886660Y55859396D01*
G75*
G02*
X29886660Y54162340I-848528J-848528D01*
G01*
G37*
G04 #@! TD*
G04 #@! TO.C,D30*
G36*
G01*
X80501000Y65829250D02*
X80501000Y65316750D01*
G75*
G02*
X80282250Y65098000I-218750J0D01*
G01*
X79844750Y65098000D01*
G75*
G02*
X79626000Y65316750I0J218750D01*
G01*
X79626000Y65829250D01*
G75*
G02*
X79844750Y66048000I218750J0D01*
G01*
X80282250Y66048000D01*
G75*
G02*
X80501000Y65829250I0J-218750D01*
G01*
G37*
G36*
G01*
X78926000Y65829250D02*
X78926000Y65316750D01*
G75*
G02*
X78707250Y65098000I-218750J0D01*
G01*
X78269750Y65098000D01*
G75*
G02*
X78051000Y65316750I0J218750D01*
G01*
X78051000Y65829250D01*
G75*
G02*
X78269750Y66048000I218750J0D01*
G01*
X78707250Y66048000D01*
G75*
G02*
X78926000Y65829250I0J-218750D01*
G01*
G37*
G04 #@! TD*
D22*
G04 #@! TO.C,F5*
X157166000Y13223000D03*
X152086000Y13223000D03*
G04 #@! TD*
D23*
G04 #@! TO.C,D40*
X16876000Y92523000D03*
X18976000Y92523000D03*
G04 #@! TD*
G04 #@! TO.C,D38*
X78226000Y70823000D03*
X80326000Y70823000D03*
G04 #@! TD*
G04 #@! TO.C,C10*
G36*
G01*
X69506000Y28433000D02*
X69846000Y28433000D01*
G75*
G02*
X69986000Y28293000I0J-140000D01*
G01*
X69986000Y28013000D01*
G75*
G02*
X69846000Y27873000I-140000J0D01*
G01*
X69506000Y27873000D01*
G75*
G02*
X69366000Y28013000I0J140000D01*
G01*
X69366000Y28293000D01*
G75*
G02*
X69506000Y28433000I140000J0D01*
G01*
G37*
G36*
G01*
X69506000Y27473000D02*
X69846000Y27473000D01*
G75*
G02*
X69986000Y27333000I0J-140000D01*
G01*
X69986000Y27053000D01*
G75*
G02*
X69846000Y26913000I-140000J0D01*
G01*
X69506000Y26913000D01*
G75*
G02*
X69366000Y27053000I0J140000D01*
G01*
X69366000Y27333000D01*
G75*
G02*
X69506000Y27473000I140000J0D01*
G01*
G37*
G04 #@! TD*
D33*
G04 #@! TO.C,P4*
X19840213Y11023000D03*
G04 #@! TD*
D37*
G04 #@! TO.C,M2*
X127625998Y24098004D03*
X124075997Y24023001D03*
X123325999Y25198005D03*
X122800999Y24323003D03*
D35*
X121751001Y30873000D03*
X121751001Y31373001D03*
D36*
X121701003Y21023007D03*
G04 #@! TD*
D24*
G04 #@! TO.C,MMCU27*
X107676000Y9273000D03*
G04 #@! TD*
D55*
G04 #@! TO.C,Q10*
X17776000Y84323000D03*
X17776000Y82023000D03*
X17776000Y79723000D03*
D56*
X24076000Y82023000D03*
G04 #@! TD*
G04 #@! TO.C,R42*
G36*
G01*
X78906000Y78358000D02*
X78906000Y77988000D01*
G75*
G02*
X78771000Y77853000I-135000J0D01*
G01*
X78501000Y77853000D01*
G75*
G02*
X78366000Y77988000I0J135000D01*
G01*
X78366000Y78358000D01*
G75*
G02*
X78501000Y78493000I135000J0D01*
G01*
X78771000Y78493000D01*
G75*
G02*
X78906000Y78358000I0J-135000D01*
G01*
G37*
G36*
G01*
X77886000Y78358000D02*
X77886000Y77988000D01*
G75*
G02*
X77751000Y77853000I-135000J0D01*
G01*
X77481000Y77853000D01*
G75*
G02*
X77346000Y77988000I0J135000D01*
G01*
X77346000Y78358000D01*
G75*
G02*
X77481000Y78493000I135000J0D01*
G01*
X77751000Y78493000D01*
G75*
G02*
X77886000Y78358000I0J-135000D01*
G01*
G37*
G04 #@! TD*
D23*
G04 #@! TO.C,D36*
X78226000Y63823000D03*
X80326000Y63823000D03*
G04 #@! TD*
G04 #@! TO.C,C9*
G36*
G01*
X57231000Y20528000D02*
X57731000Y20528000D01*
G75*
G02*
X57956000Y20303000I0J-225000D01*
G01*
X57956000Y19853000D01*
G75*
G02*
X57731000Y19628000I-225000J0D01*
G01*
X57231000Y19628000D01*
G75*
G02*
X57006000Y19853000I0J225000D01*
G01*
X57006000Y20303000D01*
G75*
G02*
X57231000Y20528000I225000J0D01*
G01*
G37*
G36*
G01*
X57231000Y18978000D02*
X57731000Y18978000D01*
G75*
G02*
X57956000Y18753000I0J-225000D01*
G01*
X57956000Y18303000D01*
G75*
G02*
X57731000Y18078000I-225000J0D01*
G01*
X57231000Y18078000D01*
G75*
G02*
X57006000Y18303000I0J225000D01*
G01*
X57006000Y18753000D01*
G75*
G02*
X57231000Y18978000I225000J0D01*
G01*
G37*
G04 #@! TD*
D57*
G04 #@! TO.C,D33*
X50926000Y41323000D03*
X50926000Y39223000D03*
G04 #@! TD*
G04 #@! TO.C,R17*
G36*
G01*
X138176000Y32713000D02*
X138176000Y31933000D01*
G75*
G02*
X138106000Y31863000I-70000J0D01*
G01*
X137546000Y31863000D01*
G75*
G02*
X137476000Y31933000I0J70000D01*
G01*
X137476000Y32713000D01*
G75*
G02*
X137546000Y32783000I70000J0D01*
G01*
X138106000Y32783000D01*
G75*
G02*
X138176000Y32713000I0J-70000D01*
G01*
G37*
G36*
G01*
X136576000Y32713000D02*
X136576000Y31933000D01*
G75*
G02*
X136506000Y31863000I-70000J0D01*
G01*
X135946000Y31863000D01*
G75*
G02*
X135876000Y31933000I0J70000D01*
G01*
X135876000Y32713000D01*
G75*
G02*
X135946000Y32783000I70000J0D01*
G01*
X136506000Y32783000D01*
G75*
G02*
X136576000Y32713000I0J-70000D01*
G01*
G37*
G04 #@! TD*
D58*
G04 #@! TO.C,D44*
X15176000Y78623000D03*
X15176000Y81923000D03*
G04 #@! TD*
G04 #@! TO.C,R32*
G36*
G01*
X19981000Y88803000D02*
X20351000Y88803000D01*
G75*
G02*
X20486000Y88668000I0J-135000D01*
G01*
X20486000Y88398000D01*
G75*
G02*
X20351000Y88263000I-135000J0D01*
G01*
X19981000Y88263000D01*
G75*
G02*
X19846000Y88398000I0J135000D01*
G01*
X19846000Y88668000D01*
G75*
G02*
X19981000Y88803000I135000J0D01*
G01*
G37*
G36*
G01*
X19981000Y87783000D02*
X20351000Y87783000D01*
G75*
G02*
X20486000Y87648000I0J-135000D01*
G01*
X20486000Y87378000D01*
G75*
G02*
X20351000Y87243000I-135000J0D01*
G01*
X19981000Y87243000D01*
G75*
G02*
X19846000Y87378000I0J135000D01*
G01*
X19846000Y87648000D01*
G75*
G02*
X19981000Y87783000I135000J0D01*
G01*
G37*
G04 #@! TD*
G04 #@! TO.C,C16*
G36*
G01*
X62176000Y39298000D02*
X61676000Y39298000D01*
G75*
G02*
X61451000Y39523000I0J225000D01*
G01*
X61451000Y39973000D01*
G75*
G02*
X61676000Y40198000I225000J0D01*
G01*
X62176000Y40198000D01*
G75*
G02*
X62401000Y39973000I0J-225000D01*
G01*
X62401000Y39523000D01*
G75*
G02*
X62176000Y39298000I-225000J0D01*
G01*
G37*
G36*
G01*
X62176000Y40848000D02*
X61676000Y40848000D01*
G75*
G02*
X61451000Y41073000I0J225000D01*
G01*
X61451000Y41523000D01*
G75*
G02*
X61676000Y41748000I225000J0D01*
G01*
X62176000Y41748000D01*
G75*
G02*
X62401000Y41523000I0J-225000D01*
G01*
X62401000Y41073000D01*
G75*
G02*
X62176000Y40848000I-225000J0D01*
G01*
G37*
G04 #@! TD*
D23*
G04 #@! TO.C,D34*
X66876000Y67323000D03*
X64776000Y67323000D03*
G04 #@! TD*
D33*
G04 #@! TO.C,P1*
X30590213Y11023000D03*
G04 #@! TD*
D57*
G04 #@! TO.C,D32*
X54926000Y39223000D03*
X54926000Y41323000D03*
G04 #@! TD*
G04 #@! TO.C,C18*
G36*
G01*
X56061000Y20583000D02*
X56401000Y20583000D01*
G75*
G02*
X56541000Y20443000I0J-140000D01*
G01*
X56541000Y20163000D01*
G75*
G02*
X56401000Y20023000I-140000J0D01*
G01*
X56061000Y20023000D01*
G75*
G02*
X55921000Y20163000I0J140000D01*
G01*
X55921000Y20443000D01*
G75*
G02*
X56061000Y20583000I140000J0D01*
G01*
G37*
G36*
G01*
X56061000Y19623000D02*
X56401000Y19623000D01*
G75*
G02*
X56541000Y19483000I0J-140000D01*
G01*
X56541000Y19203000D01*
G75*
G02*
X56401000Y19063000I-140000J0D01*
G01*
X56061000Y19063000D01*
G75*
G02*
X55921000Y19203000I0J140000D01*
G01*
X55921000Y19483000D01*
G75*
G02*
X56061000Y19623000I140000J0D01*
G01*
G37*
G04 #@! TD*
G04 #@! TO.C,R35*
G36*
G01*
X73986000Y88633000D02*
X73986000Y89413000D01*
G75*
G02*
X74056000Y89483000I70000J0D01*
G01*
X74616000Y89483000D01*
G75*
G02*
X74686000Y89413000I0J-70000D01*
G01*
X74686000Y88633000D01*
G75*
G02*
X74616000Y88563000I-70000J0D01*
G01*
X74056000Y88563000D01*
G75*
G02*
X73986000Y88633000I0J70000D01*
G01*
G37*
G36*
G01*
X75586000Y88633000D02*
X75586000Y89413000D01*
G75*
G02*
X75656000Y89483000I70000J0D01*
G01*
X76216000Y89483000D01*
G75*
G02*
X76286000Y89413000I0J-70000D01*
G01*
X76286000Y88633000D01*
G75*
G02*
X76216000Y88563000I-70000J0D01*
G01*
X75656000Y88563000D01*
G75*
G02*
X75586000Y88633000I0J70000D01*
G01*
G37*
G04 #@! TD*
D24*
G04 #@! TO.C,MMCU6*
X88926000Y13773000D03*
G04 #@! TD*
D37*
G04 #@! TO.C,M13*
X124588505Y14807820D03*
X123013491Y9902811D03*
X110309473Y9911874D03*
X118788501Y9232810D03*
X117613497Y9232810D03*
X115438503Y9232810D03*
X113213501Y9232810D03*
G04 #@! TD*
M02*
