G04 #@! TF.GenerationSoftware,KiCad,Pcbnew,(5.99.0-11247-g3f6811f413)*
G04 #@! TF.CreationDate,2021-08-14T14:37:13+03:00*
G04 #@! TF.ProjectId,hellen88bmw,68656c6c-656e-4383-9862-6d772e6b6963,rev?*
G04 #@! TF.SameCoordinates,PX3d1b110PY9269338*
G04 #@! TF.FileFunction,Soldermask,Bot*
G04 #@! TF.FilePolarity,Negative*
%FSLAX46Y46*%
G04 Gerber Fmt 4.6, Leading zero omitted, Abs format (unit mm)*
G04 Created by KiCad (PCBNEW (5.99.0-11247-g3f6811f413)) date 2021-08-14 14:37:13*
%MOMM*%
%LPD*%
G01*
G04 APERTURE LIST*
%ADD10C,6.000000*%
%ADD11C,1.524000*%
%ADD12R,1.700000X1.700000*%
%ADD13O,1.700000X1.700000*%
%ADD14C,4.300000*%
%ADD15R,0.850000X0.850000*%
%ADD16C,0.800000*%
%ADD17C,2.000000*%
%ADD18R,1.350000X1.350000*%
%ADD19O,1.350000X1.350000*%
%ADD20R,1.100000X1.100000*%
%ADD21C,1.100000*%
%ADD22O,1.100000X2.400000*%
%ADD23C,0.599999*%
%ADD24C,3.000000*%
%ADD25O,3.700000X2.700000*%
%ADD26O,1.700000X1.850000*%
%ADD27O,1.800000X2.800000*%
%ADD28C,3.302000*%
%ADD29O,1.000001X1.500000*%
%ADD30O,11.400000X1.100000*%
%ADD31O,0.399999X0.599999*%
%ADD32O,0.599999X0.800001*%
%ADD33O,0.599999X0.399999*%
%ADD34O,0.800001X0.599999*%
%ADD35O,0.399999X0.200000*%
%ADD36R,0.800000X1.500000*%
%ADD37R,1.450000X2.000000*%
G04 APERTURE END LIST*
G04 #@! TO.C,M11*
G36*
G01*
X70649002Y25723002D02*
X70899002Y25723002D01*
G75*
G02*
X71024002Y25598002I0J-125000D01*
G01*
X71024002Y25598002D01*
G75*
G02*
X70899002Y25473002I-125000J0D01*
G01*
X70649002Y25473002D01*
G75*
G02*
X70524002Y25598002I0J125000D01*
G01*
X70524002Y25598002D01*
G75*
G02*
X70649002Y25723002I125000J0D01*
G01*
G37*
G36*
G01*
X70899002Y26133000D02*
X70649002Y26133000D01*
G75*
G02*
X70524002Y26258000I0J125000D01*
G01*
X70524002Y26258000D01*
G75*
G02*
X70649002Y26383000I125000J0D01*
G01*
X70899002Y26383000D01*
G75*
G02*
X71024002Y26258000I0J-125000D01*
G01*
X71024002Y26258000D01*
G75*
G02*
X70899002Y26133000I-125000J0D01*
G01*
G37*
G36*
G01*
X70899002Y26793005D02*
X70649002Y26793005D01*
G75*
G02*
X70524002Y26918005I0J125000D01*
G01*
X70524002Y26918005D01*
G75*
G02*
X70649002Y27043005I125000J0D01*
G01*
X70899002Y27043005D01*
G75*
G02*
X71024002Y26918005I0J-125000D01*
G01*
X71024002Y26918005D01*
G75*
G02*
X70899002Y26793005I-125000J0D01*
G01*
G37*
G36*
G01*
X70899002Y27453000D02*
X70649002Y27453000D01*
G75*
G02*
X70524002Y27578000I0J125000D01*
G01*
X70524002Y27578000D01*
G75*
G02*
X70649002Y27703000I125000J0D01*
G01*
X70899002Y27703000D01*
G75*
G02*
X71024002Y27578000I0J-125000D01*
G01*
X71024002Y27578000D01*
G75*
G02*
X70899002Y27453000I-125000J0D01*
G01*
G37*
G36*
G01*
X70899002Y28113002D02*
X70649002Y28113002D01*
G75*
G02*
X70524002Y28238002I0J125000D01*
G01*
X70524002Y28238002D01*
G75*
G02*
X70649002Y28363002I125000J0D01*
G01*
X70899002Y28363002D01*
G75*
G02*
X71024002Y28238002I0J-125000D01*
G01*
X71024002Y28238002D01*
G75*
G02*
X70899002Y28113002I-125000J0D01*
G01*
G37*
G36*
G01*
X70899002Y31413003D02*
X70649002Y31413003D01*
G75*
G02*
X70524002Y31538003I0J125000D01*
G01*
X70524002Y31538003D01*
G75*
G02*
X70649002Y31663003I125000J0D01*
G01*
X70899002Y31663003D01*
G75*
G02*
X71024002Y31538003I0J-125000D01*
G01*
X71024002Y31538003D01*
G75*
G02*
X70899002Y31413003I-125000J0D01*
G01*
G37*
G36*
G01*
X70899002Y32073004D02*
X70649002Y32073004D01*
G75*
G02*
X70524002Y32198004I0J125000D01*
G01*
X70524002Y32198004D01*
G75*
G02*
X70649002Y32323004I125000J0D01*
G01*
X70899002Y32323004D01*
G75*
G02*
X71024002Y32198004I0J-125000D01*
G01*
X71024002Y32198004D01*
G75*
G02*
X70899002Y32073004I-125000J0D01*
G01*
G37*
G36*
G01*
X70899002Y32733006D02*
X70649002Y32733006D01*
G75*
G02*
X70524002Y32858006I0J125000D01*
G01*
X70524002Y32858006D01*
G75*
G02*
X70649002Y32983006I125000J0D01*
G01*
X70899002Y32983006D01*
G75*
G02*
X71024002Y32858006I0J-125000D01*
G01*
X71024002Y32858006D01*
G75*
G02*
X70899002Y32733006I-125000J0D01*
G01*
G37*
G36*
G01*
X70899002Y33393004D02*
X70649002Y33393004D01*
G75*
G02*
X70524002Y33518004I0J125000D01*
G01*
X70524002Y33518004D01*
G75*
G02*
X70649002Y33643004I125000J0D01*
G01*
X70899002Y33643004D01*
G75*
G02*
X71024002Y33518004I0J-125000D01*
G01*
X71024002Y33518004D01*
G75*
G02*
X70899002Y33393004I-125000J0D01*
G01*
G37*
G36*
G01*
X70899002Y34053006D02*
X70649002Y34053006D01*
G75*
G02*
X70524002Y34178006I0J125000D01*
G01*
X70524002Y34178006D01*
G75*
G02*
X70649002Y34303006I125000J0D01*
G01*
X70899002Y34303006D01*
G75*
G02*
X71024002Y34178006I0J-125000D01*
G01*
X71024002Y34178006D01*
G75*
G02*
X70899002Y34053006I-125000J0D01*
G01*
G37*
G36*
G01*
X70899002Y34713004D02*
X70649002Y34713004D01*
G75*
G02*
X70524002Y34838004I0J125000D01*
G01*
X70524002Y34838004D01*
G75*
G02*
X70649002Y34963004I125000J0D01*
G01*
X70899002Y34963004D01*
G75*
G02*
X71024002Y34838004I0J-125000D01*
G01*
X71024002Y34838004D01*
G75*
G02*
X70899002Y34713004I-125000J0D01*
G01*
G37*
G36*
G01*
X70899002Y35373005D02*
X70649002Y35373005D01*
G75*
G02*
X70524002Y35498005I0J125000D01*
G01*
X70524002Y35498005D01*
G75*
G02*
X70649002Y35623005I125000J0D01*
G01*
X70899002Y35623005D01*
G75*
G02*
X71024002Y35498005I0J-125000D01*
G01*
X71024002Y35498005D01*
G75*
G02*
X70899002Y35373005I-125000J0D01*
G01*
G37*
G36*
G01*
X70899002Y36033004D02*
X70649002Y36033004D01*
G75*
G02*
X70524002Y36158004I0J125000D01*
G01*
X70524002Y36158004D01*
G75*
G02*
X70649002Y36283004I125000J0D01*
G01*
X70899002Y36283004D01*
G75*
G02*
X71024002Y36158004I0J-125000D01*
G01*
X71024002Y36158004D01*
G75*
G02*
X70899002Y36033004I-125000J0D01*
G01*
G37*
G36*
G01*
X70899002Y36693005D02*
X70649002Y36693005D01*
G75*
G02*
X70524002Y36818005I0J125000D01*
G01*
X70524002Y36818005D01*
G75*
G02*
X70649002Y36943005I125000J0D01*
G01*
X70899002Y36943005D01*
G75*
G02*
X71024002Y36818005I0J-125000D01*
G01*
X71024002Y36818005D01*
G75*
G02*
X70899002Y36693005I-125000J0D01*
G01*
G37*
G36*
G01*
X70899002Y37353004D02*
X70649002Y37353004D01*
G75*
G02*
X70524002Y37478004I0J125000D01*
G01*
X70524002Y37478004D01*
G75*
G02*
X70649002Y37603004I125000J0D01*
G01*
X70899002Y37603004D01*
G75*
G02*
X71024002Y37478004I0J-125000D01*
G01*
X71024002Y37478004D01*
G75*
G02*
X70899002Y37353004I-125000J0D01*
G01*
G37*
G36*
G01*
X70899002Y38013005D02*
X70649002Y38013005D01*
G75*
G02*
X70524002Y38138005I0J125000D01*
G01*
X70524002Y38138005D01*
G75*
G02*
X70649002Y38263005I125000J0D01*
G01*
X70899002Y38263005D01*
G75*
G02*
X71024002Y38138005I0J-125000D01*
G01*
X71024002Y38138005D01*
G75*
G02*
X70899002Y38013005I-125000J0D01*
G01*
G37*
G36*
G01*
X70899002Y38673004D02*
X70649002Y38673004D01*
G75*
G02*
X70524002Y38798004I0J125000D01*
G01*
X70524002Y38798004D01*
G75*
G02*
X70649002Y38923004I125000J0D01*
G01*
X70899002Y38923004D01*
G75*
G02*
X71024002Y38798004I0J-125000D01*
G01*
X71024002Y38798004D01*
G75*
G02*
X70899002Y38673004I-125000J0D01*
G01*
G37*
G36*
G01*
X70899002Y39333005D02*
X70649002Y39333005D01*
G75*
G02*
X70524002Y39458005I0J125000D01*
G01*
X70524002Y39458005D01*
G75*
G02*
X70649002Y39583005I125000J0D01*
G01*
X70899002Y39583005D01*
G75*
G02*
X71024002Y39458005I0J-125000D01*
G01*
X71024002Y39458005D01*
G75*
G02*
X70899002Y39333005I-125000J0D01*
G01*
G37*
G36*
G01*
X70899002Y39993004D02*
X70649002Y39993004D01*
G75*
G02*
X70524002Y40118004I0J125000D01*
G01*
X70524002Y40118004D01*
G75*
G02*
X70649002Y40243004I125000J0D01*
G01*
X70899002Y40243004D01*
G75*
G02*
X71024002Y40118004I0J-125000D01*
G01*
X71024002Y40118004D01*
G75*
G02*
X70899002Y39993004I-125000J0D01*
G01*
G37*
G36*
G01*
X70899002Y40653005D02*
X70649002Y40653005D01*
G75*
G02*
X70524002Y40778005I0J125000D01*
G01*
X70524002Y40778005D01*
G75*
G02*
X70649002Y40903005I125000J0D01*
G01*
X70899002Y40903005D01*
G75*
G02*
X71024002Y40778005I0J-125000D01*
G01*
X71024002Y40778005D01*
G75*
G02*
X70899002Y40653005I-125000J0D01*
G01*
G37*
G36*
G01*
X70899002Y41313004D02*
X70649002Y41313004D01*
G75*
G02*
X70524002Y41438004I0J125000D01*
G01*
X70524002Y41438004D01*
G75*
G02*
X70649002Y41563004I125000J0D01*
G01*
X70899002Y41563004D01*
G75*
G02*
X71024002Y41438004I0J-125000D01*
G01*
X71024002Y41438004D01*
G75*
G02*
X70899002Y41313004I-125000J0D01*
G01*
G37*
G36*
G01*
X70899002Y41973005D02*
X70649002Y41973005D01*
G75*
G02*
X70524002Y42098005I0J125000D01*
G01*
X70524002Y42098005D01*
G75*
G02*
X70649002Y42223005I125000J0D01*
G01*
X70899002Y42223005D01*
G75*
G02*
X71024002Y42098005I0J-125000D01*
G01*
X71024002Y42098005D01*
G75*
G02*
X70899002Y41973005I-125000J0D01*
G01*
G37*
G36*
G01*
X70899002Y42633004D02*
X70649002Y42633004D01*
G75*
G02*
X70524002Y42758004I0J125000D01*
G01*
X70524002Y42758004D01*
G75*
G02*
X70649002Y42883004I125000J0D01*
G01*
X70899002Y42883004D01*
G75*
G02*
X71024002Y42758004I0J-125000D01*
G01*
X71024002Y42758004D01*
G75*
G02*
X70899002Y42633004I-125000J0D01*
G01*
G37*
G36*
G01*
X70899002Y43293005D02*
X70649002Y43293005D01*
G75*
G02*
X70524002Y43418005I0J125000D01*
G01*
X70524002Y43418005D01*
G75*
G02*
X70649002Y43543005I125000J0D01*
G01*
X70899002Y43543005D01*
G75*
G02*
X71024002Y43418005I0J-125000D01*
G01*
X71024002Y43418005D01*
G75*
G02*
X70899002Y43293005I-125000J0D01*
G01*
G37*
G36*
G01*
X70899002Y43953004D02*
X70649002Y43953004D01*
G75*
G02*
X70524002Y44078004I0J125000D01*
G01*
X70524002Y44078004D01*
G75*
G02*
X70649002Y44203004I125000J0D01*
G01*
X70899002Y44203004D01*
G75*
G02*
X71024002Y44078004I0J-125000D01*
G01*
X71024002Y44078004D01*
G75*
G02*
X70899002Y43953004I-125000J0D01*
G01*
G37*
G36*
G01*
X70899002Y44613005D02*
X70649002Y44613005D01*
G75*
G02*
X70524002Y44738005I0J125000D01*
G01*
X70524002Y44738005D01*
G75*
G02*
X70649002Y44863005I125000J0D01*
G01*
X70899002Y44863005D01*
G75*
G02*
X71024002Y44738005I0J-125000D01*
G01*
X71024002Y44738005D01*
G75*
G02*
X70899002Y44613005I-125000J0D01*
G01*
G37*
G36*
G01*
X70899002Y45273003D02*
X70649002Y45273003D01*
G75*
G02*
X70524002Y45398003I0J125000D01*
G01*
X70524002Y45398003D01*
G75*
G02*
X70649002Y45523003I125000J0D01*
G01*
X70899002Y45523003D01*
G75*
G02*
X71024002Y45398003I0J-125000D01*
G01*
X71024002Y45398003D01*
G75*
G02*
X70899002Y45273003I-125000J0D01*
G01*
G37*
G36*
G01*
X70899002Y45933005D02*
X70649002Y45933005D01*
G75*
G02*
X70524002Y46058005I0J125000D01*
G01*
X70524002Y46058005D01*
G75*
G02*
X70649002Y46183005I125000J0D01*
G01*
X70899002Y46183005D01*
G75*
G02*
X71024002Y46058005I0J-125000D01*
G01*
X71024002Y46058005D01*
G75*
G02*
X70899002Y45933005I-125000J0D01*
G01*
G37*
G36*
G01*
X70899002Y46593003D02*
X70649002Y46593003D01*
G75*
G02*
X70524002Y46718003I0J125000D01*
G01*
X70524002Y46718003D01*
G75*
G02*
X70649002Y46843003I125000J0D01*
G01*
X70899002Y46843003D01*
G75*
G02*
X71024002Y46718003I0J-125000D01*
G01*
X71024002Y46718003D01*
G75*
G02*
X70899002Y46593003I-125000J0D01*
G01*
G37*
G36*
G01*
X70899002Y47253005D02*
X70649002Y47253005D01*
G75*
G02*
X70524002Y47378005I0J125000D01*
G01*
X70524002Y47378005D01*
G75*
G02*
X70649002Y47503005I125000J0D01*
G01*
X70899002Y47503005D01*
G75*
G02*
X71024002Y47378005I0J-125000D01*
G01*
X71024002Y47378005D01*
G75*
G02*
X70899002Y47253005I-125000J0D01*
G01*
G37*
G36*
G01*
X70899002Y47913003D02*
X70649002Y47913003D01*
G75*
G02*
X70524002Y48038003I0J125000D01*
G01*
X70524002Y48038003D01*
G75*
G02*
X70649002Y48163003I125000J0D01*
G01*
X70899002Y48163003D01*
G75*
G02*
X71024002Y48038003I0J-125000D01*
G01*
X71024002Y48038003D01*
G75*
G02*
X70899002Y47913003I-125000J0D01*
G01*
G37*
G36*
G01*
X70899002Y48573004D02*
X70649002Y48573004D01*
G75*
G02*
X70524002Y48698004I0J125000D01*
G01*
X70524002Y48698004D01*
G75*
G02*
X70649002Y48823004I125000J0D01*
G01*
X70899002Y48823004D01*
G75*
G02*
X71024002Y48698004I0J-125000D01*
G01*
X71024002Y48698004D01*
G75*
G02*
X70899002Y48573004I-125000J0D01*
G01*
G37*
G36*
G01*
X70899002Y49233003D02*
X70649002Y49233003D01*
G75*
G02*
X70524002Y49358003I0J125000D01*
G01*
X70524002Y49358003D01*
G75*
G02*
X70649002Y49483003I125000J0D01*
G01*
X70899002Y49483003D01*
G75*
G02*
X71024002Y49358003I0J-125000D01*
G01*
X71024002Y49358003D01*
G75*
G02*
X70899002Y49233003I-125000J0D01*
G01*
G37*
G36*
G01*
X70899002Y49893004D02*
X70649002Y49893004D01*
G75*
G02*
X70524002Y50018004I0J125000D01*
G01*
X70524002Y50018004D01*
G75*
G02*
X70649002Y50143004I125000J0D01*
G01*
X70899002Y50143004D01*
G75*
G02*
X71024002Y50018004I0J-125000D01*
G01*
X71024002Y50018004D01*
G75*
G02*
X70899002Y49893004I-125000J0D01*
G01*
G37*
G36*
G01*
X104596000Y21346000D02*
X104596000Y21596000D01*
G75*
G02*
X104721000Y21721000I125000J0D01*
G01*
X104721000Y21721000D01*
G75*
G02*
X104846000Y21596000I0J-125000D01*
G01*
X104846000Y21346000D01*
G75*
G02*
X104721000Y21221000I-125000J0D01*
G01*
X104721000Y21221000D01*
G75*
G02*
X104596000Y21346000I0J125000D01*
G01*
G37*
G36*
G01*
X103525998Y21596000D02*
X103525998Y21346000D01*
G75*
G02*
X103400998Y21221000I-125000J0D01*
G01*
X103400998Y21221000D01*
G75*
G02*
X103275998Y21346000I0J125000D01*
G01*
X103275998Y21596000D01*
G75*
G02*
X103400998Y21721000I125000J0D01*
G01*
X103400998Y21721000D01*
G75*
G02*
X103525998Y21596000I0J-125000D01*
G01*
G37*
G36*
G01*
X102205995Y21596000D02*
X102205995Y21346000D01*
G75*
G02*
X102080995Y21221000I-125000J0D01*
G01*
X102080995Y21221000D01*
G75*
G02*
X101955995Y21346000I0J125000D01*
G01*
X101955995Y21596000D01*
G75*
G02*
X102080995Y21721000I125000J0D01*
G01*
X102080995Y21721000D01*
G75*
G02*
X102205995Y21596000I0J-125000D01*
G01*
G37*
G36*
G01*
X101445997Y21596000D02*
X101445997Y21346000D01*
G75*
G02*
X101320997Y21221000I-125000J0D01*
G01*
X101320997Y21221000D01*
G75*
G02*
X101195997Y21346000I0J125000D01*
G01*
X101195997Y21596000D01*
G75*
G02*
X101320997Y21721000I125000J0D01*
G01*
X101320997Y21721000D01*
G75*
G02*
X101445997Y21596000I0J-125000D01*
G01*
G37*
G36*
G01*
X100780994Y21596000D02*
X100780994Y21346000D01*
G75*
G02*
X100655994Y21221000I-125000J0D01*
G01*
X100655994Y21221000D01*
G75*
G02*
X100530994Y21346000I0J125000D01*
G01*
X100530994Y21596000D01*
G75*
G02*
X100655994Y21721000I125000J0D01*
G01*
X100655994Y21721000D01*
G75*
G02*
X100780994Y21596000I0J-125000D01*
G01*
G37*
G36*
G01*
X100115992Y21596000D02*
X100115992Y21346000D01*
G75*
G02*
X99990992Y21221000I-125000J0D01*
G01*
X99990992Y21221000D01*
G75*
G02*
X99865992Y21346000I0J125000D01*
G01*
X99865992Y21596000D01*
G75*
G02*
X99990992Y21721000I125000J0D01*
G01*
X99990992Y21721000D01*
G75*
G02*
X100115992Y21596000I0J-125000D01*
G01*
G37*
G36*
G01*
X99451002Y21596000D02*
X99451002Y21346000D01*
G75*
G02*
X99326002Y21221000I-125000J0D01*
G01*
X99326002Y21221000D01*
G75*
G02*
X99201002Y21346000I0J125000D01*
G01*
X99201002Y21596000D01*
G75*
G02*
X99326002Y21721000I125000J0D01*
G01*
X99326002Y21721000D01*
G75*
G02*
X99451002Y21596000I0J-125000D01*
G01*
G37*
G36*
G01*
X98676002Y21596000D02*
X98676002Y21346000D01*
G75*
G02*
X98551002Y21221000I-125000J0D01*
G01*
X98551002Y21221000D01*
G75*
G02*
X98426002Y21346000I0J125000D01*
G01*
X98426002Y21596000D01*
G75*
G02*
X98551002Y21721000I125000J0D01*
G01*
X98551002Y21721000D01*
G75*
G02*
X98676002Y21596000I0J-125000D01*
G01*
G37*
G36*
G01*
X97576004Y21596000D02*
X97576004Y21346000D01*
G75*
G02*
X97451004Y21221000I-125000J0D01*
G01*
X97451004Y21221000D01*
G75*
G02*
X97326004Y21346000I0J125000D01*
G01*
X97326004Y21596000D01*
G75*
G02*
X97451004Y21721000I125000J0D01*
G01*
X97451004Y21721000D01*
G75*
G02*
X97576004Y21596000I0J-125000D01*
G01*
G37*
G36*
G01*
X96476007Y21596000D02*
X96476007Y21346000D01*
G75*
G02*
X96351007Y21221000I-125000J0D01*
G01*
X96351007Y21221000D01*
G75*
G02*
X96226007Y21346000I0J125000D01*
G01*
X96226007Y21596000D01*
G75*
G02*
X96351007Y21721000I125000J0D01*
G01*
X96351007Y21721000D01*
G75*
G02*
X96476007Y21596000I0J-125000D01*
G01*
G37*
G36*
G01*
X95376009Y21596000D02*
X95376009Y21346000D01*
G75*
G02*
X95251009Y21221000I-125000J0D01*
G01*
X95251009Y21221000D01*
G75*
G02*
X95126009Y21346000I0J125000D01*
G01*
X95126009Y21596000D01*
G75*
G02*
X95251009Y21721000I125000J0D01*
G01*
X95251009Y21721000D01*
G75*
G02*
X95376009Y21596000I0J-125000D01*
G01*
G37*
G36*
G01*
X94276011Y21596000D02*
X94276011Y21346000D01*
G75*
G02*
X94151011Y21221000I-125000J0D01*
G01*
X94151011Y21221000D01*
G75*
G02*
X94026011Y21346000I0J125000D01*
G01*
X94026011Y21596000D01*
G75*
G02*
X94151011Y21721000I125000J0D01*
G01*
X94151011Y21721000D01*
G75*
G02*
X94276011Y21596000I0J-125000D01*
G01*
G37*
G36*
G01*
X93176013Y21596000D02*
X93176013Y21346000D01*
G75*
G02*
X93051013Y21221000I-125000J0D01*
G01*
X93051013Y21221000D01*
G75*
G02*
X92926013Y21346000I0J125000D01*
G01*
X92926013Y21596000D01*
G75*
G02*
X93051013Y21721000I125000J0D01*
G01*
X93051013Y21721000D01*
G75*
G02*
X93176013Y21596000I0J-125000D01*
G01*
G37*
G36*
G01*
X92076015Y21596000D02*
X92076015Y21346000D01*
G75*
G02*
X91951015Y21221000I-125000J0D01*
G01*
X91951015Y21221000D01*
G75*
G02*
X91826015Y21346000I0J125000D01*
G01*
X91826015Y21596000D01*
G75*
G02*
X91951015Y21721000I125000J0D01*
G01*
X91951015Y21721000D01*
G75*
G02*
X92076015Y21596000I0J-125000D01*
G01*
G37*
G36*
G01*
X90976018Y21596000D02*
X90976018Y21346000D01*
G75*
G02*
X90851018Y21221000I-125000J0D01*
G01*
X90851018Y21221000D01*
G75*
G02*
X90726018Y21346000I0J125000D01*
G01*
X90726018Y21596000D01*
G75*
G02*
X90851018Y21721000I125000J0D01*
G01*
X90851018Y21721000D01*
G75*
G02*
X90976018Y21596000I0J-125000D01*
G01*
G37*
G36*
G01*
X89876020Y21596000D02*
X89876020Y21346000D01*
G75*
G02*
X89751020Y21221000I-125000J0D01*
G01*
X89751020Y21221000D01*
G75*
G02*
X89626020Y21346000I0J125000D01*
G01*
X89626020Y21596000D01*
G75*
G02*
X89751020Y21721000I125000J0D01*
G01*
X89751020Y21721000D01*
G75*
G02*
X89876020Y21596000I0J-125000D01*
G01*
G37*
G36*
G01*
X88776022Y21596000D02*
X88776022Y21346000D01*
G75*
G02*
X88651022Y21221000I-125000J0D01*
G01*
X88651022Y21221000D01*
G75*
G02*
X88526022Y21346000I0J125000D01*
G01*
X88526022Y21596000D01*
G75*
G02*
X88651022Y21721000I125000J0D01*
G01*
X88651022Y21721000D01*
G75*
G02*
X88776022Y21596000I0J-125000D01*
G01*
G37*
G36*
G01*
X87676024Y21596000D02*
X87676024Y21346000D01*
G75*
G02*
X87551024Y21221000I-125000J0D01*
G01*
X87551024Y21221000D01*
G75*
G02*
X87426024Y21346000I0J125000D01*
G01*
X87426024Y21596000D01*
G75*
G02*
X87551024Y21721000I125000J0D01*
G01*
X87551024Y21721000D01*
G75*
G02*
X87676024Y21596000I0J-125000D01*
G01*
G37*
G36*
G01*
X86576026Y21596000D02*
X86576026Y21346000D01*
G75*
G02*
X86451026Y21221000I-125000J0D01*
G01*
X86451026Y21221000D01*
G75*
G02*
X86326026Y21346000I0J125000D01*
G01*
X86326026Y21596000D01*
G75*
G02*
X86451026Y21721000I125000J0D01*
G01*
X86451026Y21721000D01*
G75*
G02*
X86576026Y21596000I0J-125000D01*
G01*
G37*
G36*
G01*
X85476029Y21596000D02*
X85476029Y21346000D01*
G75*
G02*
X85351029Y21221000I-125000J0D01*
G01*
X85351029Y21221000D01*
G75*
G02*
X85226029Y21346000I0J125000D01*
G01*
X85226029Y21596000D01*
G75*
G02*
X85351029Y21721000I125000J0D01*
G01*
X85351029Y21721000D01*
G75*
G02*
X85476029Y21596000I0J-125000D01*
G01*
G37*
G36*
G01*
X84376031Y21596000D02*
X84376031Y21346000D01*
G75*
G02*
X84251031Y21221000I-125000J0D01*
G01*
X84251031Y21221000D01*
G75*
G02*
X84126031Y21346000I0J125000D01*
G01*
X84126031Y21596000D01*
G75*
G02*
X84251031Y21721000I125000J0D01*
G01*
X84251031Y21721000D01*
G75*
G02*
X84376031Y21596000I0J-125000D01*
G01*
G37*
G36*
G01*
X83276033Y21596000D02*
X83276033Y21346000D01*
G75*
G02*
X83151033Y21221000I-125000J0D01*
G01*
X83151033Y21221000D01*
G75*
G02*
X83026033Y21346000I0J125000D01*
G01*
X83026033Y21596000D01*
G75*
G02*
X83151033Y21721000I125000J0D01*
G01*
X83151033Y21721000D01*
G75*
G02*
X83276033Y21596000I0J-125000D01*
G01*
G37*
G36*
G01*
X82176035Y21596000D02*
X82176035Y21346000D01*
G75*
G02*
X82051035Y21221000I-125000J0D01*
G01*
X82051035Y21221000D01*
G75*
G02*
X81926035Y21346000I0J125000D01*
G01*
X81926035Y21596000D01*
G75*
G02*
X82051035Y21721000I125000J0D01*
G01*
X82051035Y21721000D01*
G75*
G02*
X82176035Y21596000I0J-125000D01*
G01*
G37*
G36*
G01*
X81076037Y21596000D02*
X81076037Y21346000D01*
G75*
G02*
X80951037Y21221000I-125000J0D01*
G01*
X80951037Y21221000D01*
G75*
G02*
X80826037Y21346000I0J125000D01*
G01*
X80826037Y21596000D01*
G75*
G02*
X80951037Y21721000I125000J0D01*
G01*
X80951037Y21721000D01*
G75*
G02*
X81076037Y21596000I0J-125000D01*
G01*
G37*
G36*
G01*
X79976040Y21596000D02*
X79976040Y21346000D01*
G75*
G02*
X79851040Y21221000I-125000J0D01*
G01*
X79851040Y21221000D01*
G75*
G02*
X79726040Y21346000I0J125000D01*
G01*
X79726040Y21596000D01*
G75*
G02*
X79851040Y21721000I125000J0D01*
G01*
X79851040Y21721000D01*
G75*
G02*
X79976040Y21596000I0J-125000D01*
G01*
G37*
G36*
G01*
X78876042Y21596000D02*
X78876042Y21346000D01*
G75*
G02*
X78751042Y21221000I-125000J0D01*
G01*
X78751042Y21221000D01*
G75*
G02*
X78626042Y21346000I0J125000D01*
G01*
X78626042Y21596000D01*
G75*
G02*
X78751042Y21721000I125000J0D01*
G01*
X78751042Y21721000D01*
G75*
G02*
X78876042Y21596000I0J-125000D01*
G01*
G37*
G36*
G01*
X77776044Y21596000D02*
X77776044Y21346000D01*
G75*
G02*
X77651044Y21221000I-125000J0D01*
G01*
X77651044Y21221000D01*
G75*
G02*
X77526044Y21346000I0J125000D01*
G01*
X77526044Y21596000D01*
G75*
G02*
X77651044Y21721000I125000J0D01*
G01*
X77651044Y21721000D01*
G75*
G02*
X77776044Y21596000I0J-125000D01*
G01*
G37*
G36*
G01*
X76676046Y21596000D02*
X76676046Y21346000D01*
G75*
G02*
X76551046Y21221000I-125000J0D01*
G01*
X76551046Y21221000D01*
G75*
G02*
X76426046Y21346000I0J125000D01*
G01*
X76426046Y21596000D01*
G75*
G02*
X76551046Y21721000I125000J0D01*
G01*
X76551046Y21721000D01*
G75*
G02*
X76676046Y21596000I0J-125000D01*
G01*
G37*
G36*
G01*
X75576048Y21596000D02*
X75576048Y21346000D01*
G75*
G02*
X75451048Y21221000I-125000J0D01*
G01*
X75451048Y21221000D01*
G75*
G02*
X75326048Y21346000I0J125000D01*
G01*
X75326048Y21596000D01*
G75*
G02*
X75451048Y21721000I125000J0D01*
G01*
X75451048Y21721000D01*
G75*
G02*
X75576048Y21596000I0J-125000D01*
G01*
G37*
G36*
G01*
X74476051Y21596000D02*
X74476051Y21346000D01*
G75*
G02*
X74351051Y21221000I-125000J0D01*
G01*
X74351051Y21221000D01*
G75*
G02*
X74226051Y21346000I0J125000D01*
G01*
X74226051Y21596000D01*
G75*
G02*
X74351051Y21721000I125000J0D01*
G01*
X74351051Y21721000D01*
G75*
G02*
X74476051Y21596000I0J-125000D01*
G01*
G37*
G36*
G01*
X73376053Y21596000D02*
X73376053Y21346000D01*
G75*
G02*
X73251053Y21221000I-125000J0D01*
G01*
X73251053Y21221000D01*
G75*
G02*
X73126053Y21346000I0J125000D01*
G01*
X73126053Y21596000D01*
G75*
G02*
X73251053Y21721000I125000J0D01*
G01*
X73251053Y21721000D01*
G75*
G02*
X73376053Y21596000I0J-125000D01*
G01*
G37*
G36*
G01*
X72276055Y21596000D02*
X72276055Y21346000D01*
G75*
G02*
X72151055Y21221000I-125000J0D01*
G01*
X72151055Y21221000D01*
G75*
G02*
X72026055Y21346000I0J125000D01*
G01*
X72026055Y21596000D01*
G75*
G02*
X72151055Y21721000I125000J0D01*
G01*
X72151055Y21721000D01*
G75*
G02*
X72276055Y21596000I0J-125000D01*
G01*
G37*
G36*
G01*
X79275998Y57525000D02*
X79275998Y57275000D01*
G75*
G02*
X79150998Y57150000I-125000J0D01*
G01*
X79150998Y57150000D01*
G75*
G02*
X79025998Y57275000I0J125000D01*
G01*
X79025998Y57525000D01*
G75*
G02*
X79150998Y57650000I125000J0D01*
G01*
X79150998Y57650000D01*
G75*
G02*
X79275998Y57525000I0J-125000D01*
G01*
G37*
G36*
G01*
X80346000Y57275000D02*
X80346000Y57525000D01*
G75*
G02*
X80471000Y57650000I125000J0D01*
G01*
X80471000Y57650000D01*
G75*
G02*
X80596000Y57525000I0J-125000D01*
G01*
X80596000Y57275000D01*
G75*
G02*
X80471000Y57150000I-125000J0D01*
G01*
X80471000Y57150000D01*
G75*
G02*
X80346000Y57275000I0J125000D01*
G01*
G37*
G36*
G01*
X81666003Y57275000D02*
X81666003Y57525000D01*
G75*
G02*
X81791003Y57650000I125000J0D01*
G01*
X81791003Y57650000D01*
G75*
G02*
X81916003Y57525000I0J-125000D01*
G01*
X81916003Y57275000D01*
G75*
G02*
X81791003Y57150000I-125000J0D01*
G01*
X81791003Y57150000D01*
G75*
G02*
X81666003Y57275000I0J125000D01*
G01*
G37*
G36*
G01*
X82766000Y57275000D02*
X82766000Y57525000D01*
G75*
G02*
X82891000Y57650000I125000J0D01*
G01*
X82891000Y57650000D01*
G75*
G02*
X83016000Y57525000I0J-125000D01*
G01*
X83016000Y57275000D01*
G75*
G02*
X82891000Y57150000I-125000J0D01*
G01*
X82891000Y57150000D01*
G75*
G02*
X82766000Y57275000I0J125000D01*
G01*
G37*
G36*
G01*
X83865998Y57275000D02*
X83865998Y57525000D01*
G75*
G02*
X83990998Y57650000I125000J0D01*
G01*
X83990998Y57650000D01*
G75*
G02*
X84115998Y57525000I0J-125000D01*
G01*
X84115998Y57275000D01*
G75*
G02*
X83990998Y57150000I-125000J0D01*
G01*
X83990998Y57150000D01*
G75*
G02*
X83865998Y57275000I0J125000D01*
G01*
G37*
G36*
G01*
X84965996Y57275000D02*
X84965996Y57525000D01*
G75*
G02*
X85090996Y57650000I125000J0D01*
G01*
X85090996Y57650000D01*
G75*
G02*
X85215996Y57525000I0J-125000D01*
G01*
X85215996Y57275000D01*
G75*
G02*
X85090996Y57150000I-125000J0D01*
G01*
X85090996Y57150000D01*
G75*
G02*
X84965996Y57275000I0J125000D01*
G01*
G37*
G36*
G01*
X86065994Y57275000D02*
X86065994Y57525000D01*
G75*
G02*
X86190994Y57650000I125000J0D01*
G01*
X86190994Y57650000D01*
G75*
G02*
X86315994Y57525000I0J-125000D01*
G01*
X86315994Y57275000D01*
G75*
G02*
X86190994Y57150000I-125000J0D01*
G01*
X86190994Y57150000D01*
G75*
G02*
X86065994Y57275000I0J125000D01*
G01*
G37*
G36*
G01*
X87165992Y57275000D02*
X87165992Y57525000D01*
G75*
G02*
X87290992Y57650000I125000J0D01*
G01*
X87290992Y57650000D01*
G75*
G02*
X87415992Y57525000I0J-125000D01*
G01*
X87415992Y57275000D01*
G75*
G02*
X87290992Y57150000I-125000J0D01*
G01*
X87290992Y57150000D01*
G75*
G02*
X87165992Y57275000I0J125000D01*
G01*
G37*
G36*
G01*
X88265989Y57275000D02*
X88265989Y57525000D01*
G75*
G02*
X88390989Y57650000I125000J0D01*
G01*
X88390989Y57650000D01*
G75*
G02*
X88515989Y57525000I0J-125000D01*
G01*
X88515989Y57275000D01*
G75*
G02*
X88390989Y57150000I-125000J0D01*
G01*
X88390989Y57150000D01*
G75*
G02*
X88265989Y57275000I0J125000D01*
G01*
G37*
G36*
G01*
X89365987Y57275000D02*
X89365987Y57525000D01*
G75*
G02*
X89490987Y57650000I125000J0D01*
G01*
X89490987Y57650000D01*
G75*
G02*
X89615987Y57525000I0J-125000D01*
G01*
X89615987Y57275000D01*
G75*
G02*
X89490987Y57150000I-125000J0D01*
G01*
X89490987Y57150000D01*
G75*
G02*
X89365987Y57275000I0J125000D01*
G01*
G37*
G36*
G01*
X90465985Y57275000D02*
X90465985Y57525000D01*
G75*
G02*
X90590985Y57650000I125000J0D01*
G01*
X90590985Y57650000D01*
G75*
G02*
X90715985Y57525000I0J-125000D01*
G01*
X90715985Y57275000D01*
G75*
G02*
X90590985Y57150000I-125000J0D01*
G01*
X90590985Y57150000D01*
G75*
G02*
X90465985Y57275000I0J125000D01*
G01*
G37*
G36*
G01*
X91565983Y57275000D02*
X91565983Y57525000D01*
G75*
G02*
X91690983Y57650000I125000J0D01*
G01*
X91690983Y57650000D01*
G75*
G02*
X91815983Y57525000I0J-125000D01*
G01*
X91815983Y57275000D01*
G75*
G02*
X91690983Y57150000I-125000J0D01*
G01*
X91690983Y57150000D01*
G75*
G02*
X91565983Y57275000I0J125000D01*
G01*
G37*
G36*
G01*
X92665981Y57275000D02*
X92665981Y57525000D01*
G75*
G02*
X92790981Y57650000I125000J0D01*
G01*
X92790981Y57650000D01*
G75*
G02*
X92915981Y57525000I0J-125000D01*
G01*
X92915981Y57275000D01*
G75*
G02*
X92790981Y57150000I-125000J0D01*
G01*
X92790981Y57150000D01*
G75*
G02*
X92665981Y57275000I0J125000D01*
G01*
G37*
G36*
G01*
X93765978Y57275000D02*
X93765978Y57525000D01*
G75*
G02*
X93890978Y57650000I125000J0D01*
G01*
X93890978Y57650000D01*
G75*
G02*
X94015978Y57525000I0J-125000D01*
G01*
X94015978Y57275000D01*
G75*
G02*
X93890978Y57150000I-125000J0D01*
G01*
X93890978Y57150000D01*
G75*
G02*
X93765978Y57275000I0J125000D01*
G01*
G37*
G36*
G01*
X94865976Y57275000D02*
X94865976Y57525000D01*
G75*
G02*
X94990976Y57650000I125000J0D01*
G01*
X94990976Y57650000D01*
G75*
G02*
X95115976Y57525000I0J-125000D01*
G01*
X95115976Y57275000D01*
G75*
G02*
X94990976Y57150000I-125000J0D01*
G01*
X94990976Y57150000D01*
G75*
G02*
X94865976Y57275000I0J125000D01*
G01*
G37*
G36*
G01*
X95965974Y57275000D02*
X95965974Y57525000D01*
G75*
G02*
X96090974Y57650000I125000J0D01*
G01*
X96090974Y57650000D01*
G75*
G02*
X96215974Y57525000I0J-125000D01*
G01*
X96215974Y57275000D01*
G75*
G02*
X96090974Y57150000I-125000J0D01*
G01*
X96090974Y57150000D01*
G75*
G02*
X95965974Y57275000I0J125000D01*
G01*
G37*
G36*
G01*
X97065972Y57275000D02*
X97065972Y57525000D01*
G75*
G02*
X97190972Y57650000I125000J0D01*
G01*
X97190972Y57650000D01*
G75*
G02*
X97315972Y57525000I0J-125000D01*
G01*
X97315972Y57275000D01*
G75*
G02*
X97190972Y57150000I-125000J0D01*
G01*
X97190972Y57150000D01*
G75*
G02*
X97065972Y57275000I0J125000D01*
G01*
G37*
G36*
G01*
X98165970Y57275000D02*
X98165970Y57525000D01*
G75*
G02*
X98290970Y57650000I125000J0D01*
G01*
X98290970Y57650000D01*
G75*
G02*
X98415970Y57525000I0J-125000D01*
G01*
X98415970Y57275000D01*
G75*
G02*
X98290970Y57150000I-125000J0D01*
G01*
X98290970Y57150000D01*
G75*
G02*
X98165970Y57275000I0J125000D01*
G01*
G37*
G36*
G01*
X99265967Y57275000D02*
X99265967Y57525000D01*
G75*
G02*
X99390967Y57650000I125000J0D01*
G01*
X99390967Y57650000D01*
G75*
G02*
X99515967Y57525000I0J-125000D01*
G01*
X99515967Y57275000D01*
G75*
G02*
X99390967Y57150000I-125000J0D01*
G01*
X99390967Y57150000D01*
G75*
G02*
X99265967Y57275000I0J125000D01*
G01*
G37*
G36*
G01*
X100365965Y57275000D02*
X100365965Y57525000D01*
G75*
G02*
X100490965Y57650000I125000J0D01*
G01*
X100490965Y57650000D01*
G75*
G02*
X100615965Y57525000I0J-125000D01*
G01*
X100615965Y57275000D01*
G75*
G02*
X100490965Y57150000I-125000J0D01*
G01*
X100490965Y57150000D01*
G75*
G02*
X100365965Y57275000I0J125000D01*
G01*
G37*
G36*
G01*
X101465963Y57275000D02*
X101465963Y57525000D01*
G75*
G02*
X101590963Y57650000I125000J0D01*
G01*
X101590963Y57650000D01*
G75*
G02*
X101715963Y57525000I0J-125000D01*
G01*
X101715963Y57275000D01*
G75*
G02*
X101590963Y57150000I-125000J0D01*
G01*
X101590963Y57150000D01*
G75*
G02*
X101465963Y57275000I0J125000D01*
G01*
G37*
G36*
G01*
X102565961Y57275000D02*
X102565961Y57525000D01*
G75*
G02*
X102690961Y57650000I125000J0D01*
G01*
X102690961Y57650000D01*
G75*
G02*
X102815961Y57525000I0J-125000D01*
G01*
X102815961Y57275000D01*
G75*
G02*
X102690961Y57150000I-125000J0D01*
G01*
X102690961Y57150000D01*
G75*
G02*
X102565961Y57275000I0J125000D01*
G01*
G37*
G36*
G01*
X103665959Y57275000D02*
X103665959Y57525000D01*
G75*
G02*
X103790959Y57650000I125000J0D01*
G01*
X103790959Y57650000D01*
G75*
G02*
X103915959Y57525000I0J-125000D01*
G01*
X103915959Y57275000D01*
G75*
G02*
X103790959Y57150000I-125000J0D01*
G01*
X103790959Y57150000D01*
G75*
G02*
X103665959Y57275000I0J125000D01*
G01*
G37*
G36*
G01*
X104765956Y57275000D02*
X104765956Y57525000D01*
G75*
G02*
X104890956Y57650000I125000J0D01*
G01*
X104890956Y57650000D01*
G75*
G02*
X105015956Y57525000I0J-125000D01*
G01*
X105015956Y57275000D01*
G75*
G02*
X104890956Y57150000I-125000J0D01*
G01*
X104890956Y57150000D01*
G75*
G02*
X104765956Y57275000I0J125000D01*
G01*
G37*
G36*
G01*
X105865954Y57275000D02*
X105865954Y57525000D01*
G75*
G02*
X105990954Y57650000I125000J0D01*
G01*
X105990954Y57650000D01*
G75*
G02*
X106115954Y57525000I0J-125000D01*
G01*
X106115954Y57275000D01*
G75*
G02*
X105990954Y57150000I-125000J0D01*
G01*
X105990954Y57150000D01*
G75*
G02*
X105865954Y57275000I0J125000D01*
G01*
G37*
G36*
G01*
X106965952Y57275000D02*
X106965952Y57525000D01*
G75*
G02*
X107090952Y57650000I125000J0D01*
G01*
X107090952Y57650000D01*
G75*
G02*
X107215952Y57525000I0J-125000D01*
G01*
X107215952Y57275000D01*
G75*
G02*
X107090952Y57150000I-125000J0D01*
G01*
X107090952Y57150000D01*
G75*
G02*
X106965952Y57275000I0J125000D01*
G01*
G37*
G36*
G01*
X108065950Y57275000D02*
X108065950Y57525000D01*
G75*
G02*
X108190950Y57650000I125000J0D01*
G01*
X108190950Y57650000D01*
G75*
G02*
X108315950Y57525000I0J-125000D01*
G01*
X108315950Y57275000D01*
G75*
G02*
X108190950Y57150000I-125000J0D01*
G01*
X108190950Y57150000D01*
G75*
G02*
X108065950Y57275000I0J125000D01*
G01*
G37*
G36*
G01*
X109165948Y57275000D02*
X109165948Y57525000D01*
G75*
G02*
X109290948Y57650000I125000J0D01*
G01*
X109290948Y57650000D01*
G75*
G02*
X109415948Y57525000I0J-125000D01*
G01*
X109415948Y57275000D01*
G75*
G02*
X109290948Y57150000I-125000J0D01*
G01*
X109290948Y57150000D01*
G75*
G02*
X109165948Y57275000I0J125000D01*
G01*
G37*
G36*
G01*
X110265945Y57275000D02*
X110265945Y57525000D01*
G75*
G02*
X110390945Y57650000I125000J0D01*
G01*
X110390945Y57650000D01*
G75*
G02*
X110515945Y57525000I0J-125000D01*
G01*
X110515945Y57275000D01*
G75*
G02*
X110390945Y57150000I-125000J0D01*
G01*
X110390945Y57150000D01*
G75*
G02*
X110265945Y57275000I0J125000D01*
G01*
G37*
G36*
G01*
X111365943Y57275000D02*
X111365943Y57525000D01*
G75*
G02*
X111490943Y57650000I125000J0D01*
G01*
X111490943Y57650000D01*
G75*
G02*
X111615943Y57525000I0J-125000D01*
G01*
X111615943Y57275000D01*
G75*
G02*
X111490943Y57150000I-125000J0D01*
G01*
X111490943Y57150000D01*
G75*
G02*
X111365943Y57275000I0J125000D01*
G01*
G37*
G36*
G01*
X112465941Y57275000D02*
X112465941Y57525000D01*
G75*
G02*
X112590941Y57650000I125000J0D01*
G01*
X112590941Y57650000D01*
G75*
G02*
X112715941Y57525000I0J-125000D01*
G01*
X112715941Y57275000D01*
G75*
G02*
X112590941Y57150000I-125000J0D01*
G01*
X112590941Y57150000D01*
G75*
G02*
X112465941Y57275000I0J125000D01*
G01*
G37*
G36*
G01*
X113565939Y57275000D02*
X113565939Y57525000D01*
G75*
G02*
X113690939Y57650000I125000J0D01*
G01*
X113690939Y57650000D01*
G75*
G02*
X113815939Y57525000I0J-125000D01*
G01*
X113815939Y57275000D01*
G75*
G02*
X113690939Y57150000I-125000J0D01*
G01*
X113690939Y57150000D01*
G75*
G02*
X113565939Y57275000I0J125000D01*
G01*
G37*
G36*
G01*
X114665937Y57275000D02*
X114665937Y57525000D01*
G75*
G02*
X114790937Y57650000I125000J0D01*
G01*
X114790937Y57650000D01*
G75*
G02*
X114915937Y57525000I0J-125000D01*
G01*
X114915937Y57275000D01*
G75*
G02*
X114790937Y57150000I-125000J0D01*
G01*
X114790937Y57150000D01*
G75*
G02*
X114665937Y57275000I0J125000D01*
G01*
G37*
G36*
G01*
X116176000Y27468000D02*
X116426000Y27468000D01*
G75*
G02*
X116551000Y27343000I0J-125000D01*
G01*
X116551000Y27343000D01*
G75*
G02*
X116426000Y27218000I-125000J0D01*
G01*
X116176000Y27218000D01*
G75*
G02*
X116051000Y27343000I0J125000D01*
G01*
X116051000Y27343000D01*
G75*
G02*
X116176000Y27468000I125000J0D01*
G01*
G37*
G36*
G01*
X116176000Y26808000D02*
X116426000Y26808000D01*
G75*
G02*
X116551000Y26683000I0J-125000D01*
G01*
X116551000Y26683000D01*
G75*
G02*
X116426000Y26558000I-125000J0D01*
G01*
X116176000Y26558000D01*
G75*
G02*
X116051000Y26683000I0J125000D01*
G01*
X116051000Y26683000D01*
G75*
G02*
X116176000Y26808000I125000J0D01*
G01*
G37*
G36*
G01*
X116176000Y26147998D02*
X116426000Y26147998D01*
G75*
G02*
X116551000Y26022998I0J-125000D01*
G01*
X116551000Y26022998D01*
G75*
G02*
X116426000Y25897998I-125000J0D01*
G01*
X116176000Y25897998D01*
G75*
G02*
X116051000Y26022998I0J125000D01*
G01*
X116051000Y26022998D01*
G75*
G02*
X116176000Y26147998I125000J0D01*
G01*
G37*
G36*
G01*
X116176000Y25487997D02*
X116426000Y25487997D01*
G75*
G02*
X116551000Y25362997I0J-125000D01*
G01*
X116551000Y25362997D01*
G75*
G02*
X116426000Y25237997I-125000J0D01*
G01*
X116176000Y25237997D01*
G75*
G02*
X116051000Y25362997I0J125000D01*
G01*
X116051000Y25362997D01*
G75*
G02*
X116176000Y25487997I125000J0D01*
G01*
G37*
G36*
G01*
X116176000Y24827995D02*
X116426000Y24827995D01*
G75*
G02*
X116551000Y24702995I0J-125000D01*
G01*
X116551000Y24702995D01*
G75*
G02*
X116426000Y24577995I-125000J0D01*
G01*
X116176000Y24577995D01*
G75*
G02*
X116051000Y24702995I0J125000D01*
G01*
X116051000Y24702995D01*
G75*
G02*
X116176000Y24827995I125000J0D01*
G01*
G37*
G36*
G01*
X116176000Y24167994D02*
X116426000Y24167994D01*
G75*
G02*
X116551000Y24042994I0J-125000D01*
G01*
X116551000Y24042994D01*
G75*
G02*
X116426000Y23917994I-125000J0D01*
G01*
X116176000Y23917994D01*
G75*
G02*
X116051000Y24042994I0J125000D01*
G01*
X116051000Y24042994D01*
G75*
G02*
X116176000Y24167994I125000J0D01*
G01*
G37*
G36*
G01*
X116176000Y23507993D02*
X116426000Y23507993D01*
G75*
G02*
X116551000Y23382993I0J-125000D01*
G01*
X116551000Y23382993D01*
G75*
G02*
X116426000Y23257993I-125000J0D01*
G01*
X116176000Y23257993D01*
G75*
G02*
X116051000Y23382993I0J125000D01*
G01*
X116051000Y23382993D01*
G75*
G02*
X116176000Y23507993I125000J0D01*
G01*
G37*
G36*
G01*
X116176000Y22847992D02*
X116426000Y22847992D01*
G75*
G02*
X116551000Y22722992I0J-125000D01*
G01*
X116551000Y22722992D01*
G75*
G02*
X116426000Y22597992I-125000J0D01*
G01*
X116176000Y22597992D01*
G75*
G02*
X116051000Y22722992I0J125000D01*
G01*
X116051000Y22722992D01*
G75*
G02*
X116176000Y22847992I125000J0D01*
G01*
G37*
G36*
G01*
X116176000Y22187990D02*
X116426000Y22187990D01*
G75*
G02*
X116551000Y22062990I0J-125000D01*
G01*
X116551000Y22062990D01*
G75*
G02*
X116426000Y21937990I-125000J0D01*
G01*
X116176000Y21937990D01*
G75*
G02*
X116051000Y22062990I0J125000D01*
G01*
X116051000Y22062990D01*
G75*
G02*
X116176000Y22187990I125000J0D01*
G01*
G37*
G36*
G01*
X116176000Y21527989D02*
X116426000Y21527989D01*
G75*
G02*
X116551000Y21402989I0J-125000D01*
G01*
X116551000Y21402989D01*
G75*
G02*
X116426000Y21277989I-125000J0D01*
G01*
X116176000Y21277989D01*
G75*
G02*
X116051000Y21402989I0J125000D01*
G01*
X116051000Y21402989D01*
G75*
G02*
X116176000Y21527989I125000J0D01*
G01*
G37*
G04 #@! TD*
D10*
G04 #@! TO.C,\u002Aref1*
X7632400Y113856400D03*
X153342400Y113606400D03*
D11*
X27142400Y111606400D03*
X32142400Y111606400D03*
X37142400Y111606400D03*
X42142400Y111606400D03*
X47142400Y111606400D03*
X52142400Y111606400D03*
X56892400Y110856400D03*
X60142400Y110856400D03*
X63392400Y110856400D03*
X66642400Y110856400D03*
X69892400Y110856400D03*
X73142400Y110856400D03*
X76392400Y110856400D03*
X79642400Y110856400D03*
X82892400Y110856400D03*
X86142400Y110856400D03*
X89392400Y110856400D03*
X92642400Y110856400D03*
X95892400Y110856400D03*
X99142400Y110856400D03*
X102392400Y110856400D03*
X107392400Y111606400D03*
X112392400Y111606400D03*
X117392400Y111606400D03*
X122392400Y111606400D03*
X127392400Y111606400D03*
X132392400Y111606400D03*
X137392400Y111606400D03*
X29642400Y111606400D03*
X34642400Y111606400D03*
X39642400Y111606400D03*
X44642400Y111606400D03*
X49642400Y111606400D03*
X54642400Y111606400D03*
X58642400Y112356400D03*
X61892400Y112356400D03*
X65142400Y112356400D03*
X68392400Y112356400D03*
X71642400Y112356400D03*
X74892400Y112356400D03*
X78142400Y112356400D03*
X81392400Y112356400D03*
X84642400Y112356400D03*
X87892400Y112356400D03*
X91142400Y112356400D03*
X94392400Y112356400D03*
X97642400Y112356400D03*
X100892400Y112356400D03*
X104892400Y111606400D03*
X109892400Y111606400D03*
X114892400Y111606400D03*
X119892400Y111606400D03*
X124892400Y111606400D03*
X129892400Y111606400D03*
X134892400Y111606400D03*
X29392400Y105356400D03*
X32642400Y105356400D03*
X35892400Y105356400D03*
X39142400Y105356400D03*
X42392400Y105356400D03*
X45642400Y105356400D03*
X48892400Y105356400D03*
X52142400Y105356400D03*
X55392400Y105356400D03*
X58642400Y105356400D03*
X61892400Y105356400D03*
X65142400Y105356400D03*
X68392400Y105356400D03*
X71642400Y105356400D03*
X74892400Y105356400D03*
X78142400Y105356400D03*
X81392400Y105356400D03*
X84642400Y105356400D03*
X87892400Y105356400D03*
X91142400Y105356400D03*
X94392400Y105356400D03*
X97642400Y105356400D03*
X100892400Y105356400D03*
X104142400Y105356400D03*
X107392400Y105356400D03*
X110642400Y105356400D03*
X113892400Y105356400D03*
X117142400Y105356400D03*
X120392400Y105356400D03*
X123642400Y105356400D03*
X126892400Y105356400D03*
X130142400Y105356400D03*
X133392400Y105356400D03*
G04 #@! TD*
G04 #@! TO.C,JP1*
X21926000Y100428000D03*
X21926000Y96618000D03*
G04 #@! TD*
G04 #@! TO.C,JP3*
X30176000Y100428000D03*
X30176000Y96618000D03*
G04 #@! TD*
G04 #@! TO.C,JP4*
X35676000Y100428000D03*
X35676000Y96618000D03*
G04 #@! TD*
G04 #@! TO.C,JP5*
X45176000Y100428000D03*
X45176000Y96618000D03*
G04 #@! TD*
G04 #@! TO.C,JP7*
X51926000Y100428000D03*
X51926000Y96618000D03*
G04 #@! TD*
G04 #@! TO.C,JP14*
X79676000Y100428000D03*
X79676000Y96618000D03*
G04 #@! TD*
G04 #@! TO.C,JP16*
X85176000Y100428000D03*
X85176000Y96618000D03*
G04 #@! TD*
G04 #@! TO.C,JP17*
X87926000Y100428000D03*
X87926000Y96618000D03*
G04 #@! TD*
G04 #@! TO.C,JP20*
X94926000Y92928000D03*
X94926000Y89118000D03*
G04 #@! TD*
G04 #@! TO.C,JP21*
X98176000Y92928000D03*
X98176000Y89118000D03*
G04 #@! TD*
G04 #@! TO.C,JP22*
X110926000Y92928000D03*
X110926000Y89118000D03*
G04 #@! TD*
G04 #@! TO.C,JP23*
X116426000Y92928000D03*
X116426000Y89118000D03*
G04 #@! TD*
G04 #@! TO.C,JP24*
X121926000Y92928000D03*
X121926000Y89118000D03*
G04 #@! TD*
G04 #@! TO.C,JP25*
X125676000Y100428000D03*
X125676000Y96618000D03*
G04 #@! TD*
G04 #@! TO.C,JP26*
X129926000Y100428000D03*
X129926000Y96618000D03*
G04 #@! TD*
G04 #@! TO.C,JP27*
X135926000Y100428000D03*
X135926000Y96618000D03*
G04 #@! TD*
G04 #@! TO.C,JP29*
X24676000Y100428000D03*
X24676000Y96618000D03*
G04 #@! TD*
G04 #@! TO.C,JP31*
X32926000Y100428000D03*
X32926000Y96618000D03*
G04 #@! TD*
G04 #@! TO.C,JP32*
X41176000Y100428000D03*
X41176000Y96618000D03*
G04 #@! TD*
G04 #@! TO.C,JP33*
X47926000Y100428000D03*
X47926000Y96618000D03*
G04 #@! TD*
G04 #@! TO.C,JP35*
X55926000Y100428000D03*
X55926000Y96618000D03*
G04 #@! TD*
G04 #@! TO.C,JP41*
X77926000Y92928000D03*
X77926000Y89118000D03*
G04 #@! TD*
G04 #@! TO.C,JP42*
X80426000Y92928000D03*
X80426000Y89118000D03*
G04 #@! TD*
G04 #@! TO.C,JP43*
X82426000Y100428000D03*
X82426000Y96618000D03*
G04 #@! TD*
G04 #@! TO.C,JP44*
X86676000Y92928000D03*
X86676000Y89118000D03*
G04 #@! TD*
G04 #@! TO.C,JP46*
X89426000Y92928000D03*
X89426000Y89118000D03*
G04 #@! TD*
G04 #@! TO.C,JP47*
X92176000Y92928000D03*
X92176000Y89118000D03*
G04 #@! TD*
G04 #@! TO.C,JP50*
X113676000Y92928000D03*
X113676000Y89118000D03*
G04 #@! TD*
G04 #@! TO.C,JP51*
X119176000Y92928000D03*
X119176000Y89118000D03*
G04 #@! TD*
G04 #@! TO.C,JP52*
X124676000Y92928000D03*
X124676000Y89118000D03*
G04 #@! TD*
G04 #@! TO.C,JP54*
X132676000Y100428000D03*
X132676000Y96618000D03*
G04 #@! TD*
G04 #@! TO.C,JP56*
X27426000Y100428000D03*
X27426000Y96618000D03*
G04 #@! TD*
G04 #@! TO.C,JP73*
X83926000Y92928000D03*
X83926000Y89118000D03*
G04 #@! TD*
G04 #@! TO.C,JP77*
X95926000Y100428000D03*
X95926000Y96618000D03*
G04 #@! TD*
G04 #@! TO.C,JP78*
X100926000Y100428000D03*
X100926000Y96618000D03*
G04 #@! TD*
G04 #@! TO.C,JP85*
X130176000Y92928000D03*
X130176000Y89118000D03*
G04 #@! TD*
G04 #@! TO.C,JP86*
X127426000Y92928000D03*
X127426000Y89118000D03*
G04 #@! TD*
G04 #@! TO.C,JP59*
X38426000Y100428000D03*
X38426000Y96618000D03*
G04 #@! TD*
G04 #@! TO.C,JP49*
X108176000Y92928000D03*
X108176000Y89118000D03*
G04 #@! TD*
D12*
G04 #@! TO.C,J4*
X24476000Y73653000D03*
D13*
X24476000Y71113000D03*
X24476000Y68573000D03*
X24476000Y66033000D03*
X24476000Y63493000D03*
G04 #@! TD*
D12*
G04 #@! TO.C,J5*
X1516000Y91433000D03*
D13*
X1516000Y88893000D03*
X1516000Y86353000D03*
X1516000Y83813000D03*
X1516000Y81273000D03*
X1516000Y78733000D03*
X1516000Y76193000D03*
X1516000Y73653000D03*
X1516000Y71113000D03*
X1516000Y68573000D03*
X1516000Y66033000D03*
X1516000Y63493000D03*
G04 #@! TD*
D12*
G04 #@! TO.C,J6*
X3976001Y91433000D03*
D13*
X3976001Y88893000D03*
X3976001Y86353000D03*
X3976001Y83813000D03*
X3976001Y81273000D03*
X3976001Y78733000D03*
X3976001Y76193000D03*
X3976001Y73653000D03*
X3976001Y71113000D03*
X3976001Y68573000D03*
X3976001Y66033000D03*
X3976001Y63493000D03*
G04 #@! TD*
D12*
G04 #@! TO.C,J7*
X6596000Y91433000D03*
D13*
X6596000Y88893000D03*
X6596000Y86353000D03*
X6596000Y83813000D03*
X6596000Y81273000D03*
X6596000Y78733000D03*
X6596000Y76193000D03*
X6596000Y73653000D03*
X6596000Y71113000D03*
X6596000Y68573000D03*
X6596000Y66033000D03*
X6596000Y63493000D03*
G04 #@! TD*
D12*
G04 #@! TO.C,J8*
X9136000Y91433000D03*
D13*
X9136000Y88893000D03*
X9136000Y86353000D03*
X9136000Y83813000D03*
X9136000Y81273000D03*
X9136000Y78733000D03*
X9136000Y76193000D03*
X9136000Y73653000D03*
X9136000Y71113000D03*
X9136000Y68573000D03*
X9136000Y66033000D03*
X9136000Y63493000D03*
G04 #@! TD*
D12*
G04 #@! TO.C,J9*
X11676000Y91433000D03*
D13*
X11676000Y88893000D03*
X11676000Y86353000D03*
X11676000Y83813000D03*
X11676000Y81273000D03*
X11676000Y78733000D03*
X11676000Y76193000D03*
X11676000Y73653000D03*
X11676000Y71113000D03*
X11676000Y68573000D03*
X11676000Y66033000D03*
X11676000Y63493000D03*
G04 #@! TD*
D12*
G04 #@! TO.C,J10*
X14216000Y91433000D03*
D13*
X14216000Y88893000D03*
X14216000Y86353000D03*
X14216000Y83813000D03*
X14216000Y81273000D03*
X14216000Y78733000D03*
X14216000Y76193000D03*
X14216000Y73653000D03*
X14216000Y71113000D03*
X14216000Y68573000D03*
X14216000Y66033000D03*
X14216000Y63493000D03*
G04 #@! TD*
D12*
G04 #@! TO.C,J11*
X16756000Y91433000D03*
D13*
X16756000Y88893000D03*
X16756000Y86353000D03*
X16756000Y83813000D03*
X16756000Y81273000D03*
X16756000Y78733000D03*
X16756000Y76193000D03*
X16756000Y73653000D03*
X16756000Y71113000D03*
X16756000Y68573000D03*
X16756000Y66033000D03*
X16756000Y63493000D03*
G04 #@! TD*
D12*
G04 #@! TO.C,J12*
X19296000Y91433000D03*
D13*
X19296000Y88893000D03*
X19296000Y86353000D03*
X19296000Y83813000D03*
X19296000Y81273000D03*
X19296000Y78733000D03*
X19296000Y76193000D03*
X19296000Y73653000D03*
X19296000Y71113000D03*
X19296000Y68573000D03*
X19296000Y66033000D03*
X19296000Y63493000D03*
G04 #@! TD*
D12*
G04 #@! TO.C,J13*
X21836000Y91433000D03*
D13*
X21836000Y88893000D03*
X21836000Y86353000D03*
X21836000Y83813000D03*
X21836000Y81273000D03*
X21836000Y78733000D03*
X21836000Y76193000D03*
X21836000Y73653000D03*
X21836000Y71113000D03*
X21836000Y68573000D03*
X21836000Y66033000D03*
X21836000Y63493000D03*
G04 #@! TD*
D14*
G04 #@! TO.C,H1*
X130622000Y5663000D03*
G04 #@! TD*
G04 #@! TO.C,H2*
X7432000Y5663000D03*
G04 #@! TD*
D15*
G04 #@! TO.C,VOUT18*
X52176000Y91474215D03*
G04 #@! TD*
G04 #@! TO.C,VOUT27*
X66426000Y42773000D03*
G04 #@! TD*
G04 #@! TO.C,VIN16*
X84176000Y76773000D03*
G04 #@! TD*
G04 #@! TO.C,VOUT20*
X46176000Y87474215D03*
G04 #@! TD*
G04 #@! TO.C,VOUT1*
X60426000Y77523000D03*
G04 #@! TD*
G04 #@! TO.C,MMCU14*
X67926000Y36773000D03*
G04 #@! TD*
G04 #@! TO.C,VIN14*
X99346002Y80520316D03*
G04 #@! TD*
G04 #@! TO.C,MMCU4*
X119176000Y18023000D03*
G04 #@! TD*
G04 #@! TO.C,MMCU31*
X60176000Y16523000D03*
G04 #@! TD*
G04 #@! TO.C,cr8*
X15926000Y100523000D03*
G04 #@! TD*
D16*
G04 #@! TO.C,SW2*
X93807250Y11216750D03*
G04 #@! TD*
D15*
G04 #@! TO.C,MMCU28*
X66676000Y18773000D03*
G04 #@! TD*
G04 #@! TO.C,VOUT10*
X62676000Y51023000D03*
G04 #@! TD*
G04 #@! TO.C,cr1*
X70426000Y100523000D03*
G04 #@! TD*
G04 #@! TO.C,MMCU30*
X63676000Y16523000D03*
G04 #@! TD*
G04 #@! TO.C,MMCU18*
X65426000Y16523000D03*
G04 #@! TD*
G04 #@! TO.C,VIN11*
X85676000Y84523000D03*
G04 #@! TD*
G04 #@! TO.C,VIN4*
X106926000Y82773000D03*
G04 #@! TD*
G04 #@! TO.C,cr11*
X67176000Y100523000D03*
G04 #@! TD*
D17*
G04 #@! TO.C,P3*
X23090213Y11023000D03*
G04 #@! TD*
D15*
G04 #@! TO.C,MMCU9*
X74426000Y18773000D03*
G04 #@! TD*
G04 #@! TO.C,VIN6*
X84176000Y70773000D03*
G04 #@! TD*
G04 #@! TO.C,VOUT5*
X48676000Y89474215D03*
G04 #@! TD*
G04 #@! TO.C,VIN19*
X107926000Y84773000D03*
G04 #@! TD*
G04 #@! TO.C,KNOCK_RAW2*
X74926000Y96523000D03*
G04 #@! TD*
G04 #@! TO.C,MMCU2*
X120176000Y20523000D03*
G04 #@! TD*
G04 #@! TO.C,VIN18*
X93926000Y80523000D03*
G04 #@! TD*
G04 #@! TO.C,MMCU7*
X78176000Y19023000D03*
G04 #@! TD*
D18*
G04 #@! TO.C,J2*
X82676000Y9273000D03*
D19*
X80676000Y9273000D03*
X78676000Y9273000D03*
X76676000Y9273000D03*
X74676000Y9273000D03*
G04 #@! TD*
G04 #@! TO.C,M7*
G36*
G01*
X85900998Y73366793D02*
X86150998Y73366793D01*
G75*
G02*
X86275998Y73241793I0J-125000D01*
G01*
X86275998Y73241793D01*
G75*
G02*
X86150998Y73116793I-125000J0D01*
G01*
X85900998Y73116793D01*
G75*
G02*
X85775998Y73241793I0J125000D01*
G01*
X85775998Y73241793D01*
G75*
G02*
X85900998Y73366793I125000J0D01*
G01*
G37*
G36*
G01*
X85900998Y74026794D02*
X86150998Y74026794D01*
G75*
G02*
X86275998Y73901794I0J-125000D01*
G01*
X86275998Y73901794D01*
G75*
G02*
X86150998Y73776794I-125000J0D01*
G01*
X85900998Y73776794D01*
G75*
G02*
X85775998Y73901794I0J125000D01*
G01*
X85775998Y73901794D01*
G75*
G02*
X85900998Y74026794I125000J0D01*
G01*
G37*
G36*
G01*
X85900998Y74686795D02*
X86150998Y74686795D01*
G75*
G02*
X86275998Y74561795I0J-125000D01*
G01*
X86275998Y74561795D01*
G75*
G02*
X86150998Y74436795I-125000J0D01*
G01*
X85900998Y74436795D01*
G75*
G02*
X85775998Y74561795I0J125000D01*
G01*
X85775998Y74561795D01*
G75*
G02*
X85900998Y74686795I125000J0D01*
G01*
G37*
G36*
G01*
X85900998Y75346796D02*
X86150998Y75346796D01*
G75*
G02*
X86275998Y75221796I0J-125000D01*
G01*
X86275998Y75221796D01*
G75*
G02*
X86150998Y75096796I-125000J0D01*
G01*
X85900998Y75096796D01*
G75*
G02*
X85775998Y75221796I0J125000D01*
G01*
X85775998Y75221796D01*
G75*
G02*
X85900998Y75346796I125000J0D01*
G01*
G37*
G36*
G01*
X85900998Y78646803D02*
X86150998Y78646803D01*
G75*
G02*
X86275998Y78521803I0J-125000D01*
G01*
X86275998Y78521803D01*
G75*
G02*
X86150998Y78396803I-125000J0D01*
G01*
X85900998Y78396803D01*
G75*
G02*
X85775998Y78521803I0J125000D01*
G01*
X85775998Y78521803D01*
G75*
G02*
X85900998Y78646803I125000J0D01*
G01*
G37*
G36*
G01*
X114671000Y65148000D02*
X114671000Y65398000D01*
G75*
G02*
X114796000Y65523000I125000J0D01*
G01*
X114796000Y65523000D01*
G75*
G02*
X114921000Y65398000I0J-125000D01*
G01*
X114921000Y65148000D01*
G75*
G02*
X114796000Y65023000I-125000J0D01*
G01*
X114796000Y65023000D01*
G75*
G02*
X114671000Y65148000I0J125000D01*
G01*
G37*
G36*
G01*
X113820996Y65398000D02*
X113820996Y65148000D01*
G75*
G02*
X113695996Y65023000I-125000J0D01*
G01*
X113695996Y65023000D01*
G75*
G02*
X113570996Y65148000I0J125000D01*
G01*
X113570996Y65398000D01*
G75*
G02*
X113695996Y65523000I125000J0D01*
G01*
X113695996Y65523000D01*
G75*
G02*
X113820996Y65398000I0J-125000D01*
G01*
G37*
G36*
G01*
X112720995Y65398000D02*
X112720995Y65148000D01*
G75*
G02*
X112595995Y65023000I-125000J0D01*
G01*
X112595995Y65023000D01*
G75*
G02*
X112470995Y65148000I0J125000D01*
G01*
X112470995Y65398000D01*
G75*
G02*
X112595995Y65523000I125000J0D01*
G01*
X112595995Y65523000D01*
G75*
G02*
X112720995Y65398000I0J-125000D01*
G01*
G37*
G36*
G01*
X111620998Y65398000D02*
X111620998Y65148000D01*
G75*
G02*
X111495998Y65023000I-125000J0D01*
G01*
X111495998Y65023000D01*
G75*
G02*
X111370998Y65148000I0J125000D01*
G01*
X111370998Y65398000D01*
G75*
G02*
X111495998Y65523000I125000J0D01*
G01*
X111495998Y65523000D01*
G75*
G02*
X111620998Y65398000I0J-125000D01*
G01*
G37*
G36*
G01*
X110521000Y65398000D02*
X110521000Y65148000D01*
G75*
G02*
X110396000Y65023000I-125000J0D01*
G01*
X110396000Y65023000D01*
G75*
G02*
X110271000Y65148000I0J125000D01*
G01*
X110271000Y65398000D01*
G75*
G02*
X110396000Y65523000I125000J0D01*
G01*
X110396000Y65523000D01*
G75*
G02*
X110521000Y65398000I0J-125000D01*
G01*
G37*
G36*
G01*
X109421002Y65398000D02*
X109421002Y65148000D01*
G75*
G02*
X109296002Y65023000I-125000J0D01*
G01*
X109296002Y65023000D01*
G75*
G02*
X109171002Y65148000I0J125000D01*
G01*
X109171002Y65398000D01*
G75*
G02*
X109296002Y65523000I125000J0D01*
G01*
X109296002Y65523000D01*
G75*
G02*
X109421002Y65398000I0J-125000D01*
G01*
G37*
G36*
G01*
X108321004Y65398000D02*
X108321004Y65148000D01*
G75*
G02*
X108196004Y65023000I-125000J0D01*
G01*
X108196004Y65023000D01*
G75*
G02*
X108071004Y65148000I0J125000D01*
G01*
X108071004Y65398000D01*
G75*
G02*
X108196004Y65523000I125000J0D01*
G01*
X108196004Y65523000D01*
G75*
G02*
X108321004Y65398000I0J-125000D01*
G01*
G37*
G36*
G01*
X107221006Y65398000D02*
X107221006Y65148000D01*
G75*
G02*
X107096006Y65023000I-125000J0D01*
G01*
X107096006Y65023000D01*
G75*
G02*
X106971006Y65148000I0J125000D01*
G01*
X106971006Y65398000D01*
G75*
G02*
X107096006Y65523000I125000J0D01*
G01*
X107096006Y65523000D01*
G75*
G02*
X107221006Y65398000I0J-125000D01*
G01*
G37*
G36*
G01*
X106121009Y65398000D02*
X106121009Y65148000D01*
G75*
G02*
X105996009Y65023000I-125000J0D01*
G01*
X105996009Y65023000D01*
G75*
G02*
X105871009Y65148000I0J125000D01*
G01*
X105871009Y65398000D01*
G75*
G02*
X105996009Y65523000I125000J0D01*
G01*
X105996009Y65523000D01*
G75*
G02*
X106121009Y65398000I0J-125000D01*
G01*
G37*
G36*
G01*
X105021011Y65398000D02*
X105021011Y65148000D01*
G75*
G02*
X104896011Y65023000I-125000J0D01*
G01*
X104896011Y65023000D01*
G75*
G02*
X104771011Y65148000I0J125000D01*
G01*
X104771011Y65398000D01*
G75*
G02*
X104896011Y65523000I125000J0D01*
G01*
X104896011Y65523000D01*
G75*
G02*
X105021011Y65398000I0J-125000D01*
G01*
G37*
G36*
G01*
X103921013Y65398000D02*
X103921013Y65148000D01*
G75*
G02*
X103796013Y65023000I-125000J0D01*
G01*
X103796013Y65023000D01*
G75*
G02*
X103671013Y65148000I0J125000D01*
G01*
X103671013Y65398000D01*
G75*
G02*
X103796013Y65523000I125000J0D01*
G01*
X103796013Y65523000D01*
G75*
G02*
X103921013Y65398000I0J-125000D01*
G01*
G37*
G36*
G01*
X102821015Y65398000D02*
X102821015Y65148000D01*
G75*
G02*
X102696015Y65023000I-125000J0D01*
G01*
X102696015Y65023000D01*
G75*
G02*
X102571015Y65148000I0J125000D01*
G01*
X102571015Y65398000D01*
G75*
G02*
X102696015Y65523000I125000J0D01*
G01*
X102696015Y65523000D01*
G75*
G02*
X102821015Y65398000I0J-125000D01*
G01*
G37*
G36*
G01*
X101721017Y65398000D02*
X101721017Y65148000D01*
G75*
G02*
X101596017Y65023000I-125000J0D01*
G01*
X101596017Y65023000D01*
G75*
G02*
X101471017Y65148000I0J125000D01*
G01*
X101471017Y65398000D01*
G75*
G02*
X101596017Y65523000I125000J0D01*
G01*
X101596017Y65523000D01*
G75*
G02*
X101721017Y65398000I0J-125000D01*
G01*
G37*
G36*
G01*
X100621020Y65398000D02*
X100621020Y65148000D01*
G75*
G02*
X100496020Y65023000I-125000J0D01*
G01*
X100496020Y65023000D01*
G75*
G02*
X100371020Y65148000I0J125000D01*
G01*
X100371020Y65398000D01*
G75*
G02*
X100496020Y65523000I125000J0D01*
G01*
X100496020Y65523000D01*
G75*
G02*
X100621020Y65398000I0J-125000D01*
G01*
G37*
G36*
G01*
X99521022Y65398000D02*
X99521022Y65148000D01*
G75*
G02*
X99396022Y65023000I-125000J0D01*
G01*
X99396022Y65023000D01*
G75*
G02*
X99271022Y65148000I0J125000D01*
G01*
X99271022Y65398000D01*
G75*
G02*
X99396022Y65523000I125000J0D01*
G01*
X99396022Y65523000D01*
G75*
G02*
X99521022Y65398000I0J-125000D01*
G01*
G37*
G36*
G01*
X98421024Y65398000D02*
X98421024Y65148000D01*
G75*
G02*
X98296024Y65023000I-125000J0D01*
G01*
X98296024Y65023000D01*
G75*
G02*
X98171024Y65148000I0J125000D01*
G01*
X98171024Y65398000D01*
G75*
G02*
X98296024Y65523000I125000J0D01*
G01*
X98296024Y65523000D01*
G75*
G02*
X98421024Y65398000I0J-125000D01*
G01*
G37*
G36*
G01*
X97321026Y65398000D02*
X97321026Y65148000D01*
G75*
G02*
X97196026Y65023000I-125000J0D01*
G01*
X97196026Y65023000D01*
G75*
G02*
X97071026Y65148000I0J125000D01*
G01*
X97071026Y65398000D01*
G75*
G02*
X97196026Y65523000I125000J0D01*
G01*
X97196026Y65523000D01*
G75*
G02*
X97321026Y65398000I0J-125000D01*
G01*
G37*
G36*
G01*
X96221028Y65398000D02*
X96221028Y65148000D01*
G75*
G02*
X96096028Y65023000I-125000J0D01*
G01*
X96096028Y65023000D01*
G75*
G02*
X95971028Y65148000I0J125000D01*
G01*
X95971028Y65398000D01*
G75*
G02*
X96096028Y65523000I125000J0D01*
G01*
X96096028Y65523000D01*
G75*
G02*
X96221028Y65398000I0J-125000D01*
G01*
G37*
G36*
G01*
X95121031Y65398000D02*
X95121031Y65148000D01*
G75*
G02*
X94996031Y65023000I-125000J0D01*
G01*
X94996031Y65023000D01*
G75*
G02*
X94871031Y65148000I0J125000D01*
G01*
X94871031Y65398000D01*
G75*
G02*
X94996031Y65523000I125000J0D01*
G01*
X94996031Y65523000D01*
G75*
G02*
X95121031Y65398000I0J-125000D01*
G01*
G37*
G36*
G01*
X94021033Y65398000D02*
X94021033Y65148000D01*
G75*
G02*
X93896033Y65023000I-125000J0D01*
G01*
X93896033Y65023000D01*
G75*
G02*
X93771033Y65148000I0J125000D01*
G01*
X93771033Y65398000D01*
G75*
G02*
X93896033Y65523000I125000J0D01*
G01*
X93896033Y65523000D01*
G75*
G02*
X94021033Y65398000I0J-125000D01*
G01*
G37*
G36*
G01*
X92921035Y65398000D02*
X92921035Y65148000D01*
G75*
G02*
X92796035Y65023000I-125000J0D01*
G01*
X92796035Y65023000D01*
G75*
G02*
X92671035Y65148000I0J125000D01*
G01*
X92671035Y65398000D01*
G75*
G02*
X92796035Y65523000I125000J0D01*
G01*
X92796035Y65523000D01*
G75*
G02*
X92921035Y65398000I0J-125000D01*
G01*
G37*
G36*
G01*
X91821037Y65398000D02*
X91821037Y65148000D01*
G75*
G02*
X91696037Y65023000I-125000J0D01*
G01*
X91696037Y65023000D01*
G75*
G02*
X91571037Y65148000I0J125000D01*
G01*
X91571037Y65398000D01*
G75*
G02*
X91696037Y65523000I125000J0D01*
G01*
X91696037Y65523000D01*
G75*
G02*
X91821037Y65398000I0J-125000D01*
G01*
G37*
G36*
G01*
X90721039Y65398000D02*
X90721039Y65148000D01*
G75*
G02*
X90596039Y65023000I-125000J0D01*
G01*
X90596039Y65023000D01*
G75*
G02*
X90471039Y65148000I0J125000D01*
G01*
X90471039Y65398000D01*
G75*
G02*
X90596039Y65523000I125000J0D01*
G01*
X90596039Y65523000D01*
G75*
G02*
X90721039Y65398000I0J-125000D01*
G01*
G37*
G36*
G01*
X89621042Y65398000D02*
X89621042Y65148000D01*
G75*
G02*
X89496042Y65023000I-125000J0D01*
G01*
X89496042Y65023000D01*
G75*
G02*
X89371042Y65148000I0J125000D01*
G01*
X89371042Y65398000D01*
G75*
G02*
X89496042Y65523000I125000J0D01*
G01*
X89496042Y65523000D01*
G75*
G02*
X89621042Y65398000I0J-125000D01*
G01*
G37*
G36*
G01*
X88521044Y65398000D02*
X88521044Y65148000D01*
G75*
G02*
X88396044Y65023000I-125000J0D01*
G01*
X88396044Y65023000D01*
G75*
G02*
X88271044Y65148000I0J125000D01*
G01*
X88271044Y65398000D01*
G75*
G02*
X88396044Y65523000I125000J0D01*
G01*
X88396044Y65523000D01*
G75*
G02*
X88521044Y65398000I0J-125000D01*
G01*
G37*
G36*
G01*
X87421046Y65398000D02*
X87421046Y65148000D01*
G75*
G02*
X87296046Y65023000I-125000J0D01*
G01*
X87296046Y65023000D01*
G75*
G02*
X87171046Y65148000I0J125000D01*
G01*
X87171046Y65398000D01*
G75*
G02*
X87296046Y65523000I125000J0D01*
G01*
X87296046Y65523000D01*
G75*
G02*
X87421046Y65398000I0J-125000D01*
G01*
G37*
G36*
G01*
X87671990Y79359999D02*
X87671990Y79109999D01*
G75*
G02*
X87546990Y78984999I-125000J0D01*
G01*
X87546990Y78984999D01*
G75*
G02*
X87421990Y79109999I0J125000D01*
G01*
X87421990Y79359999D01*
G75*
G02*
X87546990Y79484999I125000J0D01*
G01*
X87546990Y79484999D01*
G75*
G02*
X87671990Y79359999I0J-125000D01*
G01*
G37*
G36*
G01*
X88331992Y79359999D02*
X88331992Y79109999D01*
G75*
G02*
X88206992Y78984999I-125000J0D01*
G01*
X88206992Y78984999D01*
G75*
G02*
X88081992Y79109999I0J125000D01*
G01*
X88081992Y79359999D01*
G75*
G02*
X88206992Y79484999I125000J0D01*
G01*
X88206992Y79484999D01*
G75*
G02*
X88331992Y79359999I0J-125000D01*
G01*
G37*
G36*
G01*
X88991993Y79359999D02*
X88991993Y79109999D01*
G75*
G02*
X88866993Y78984999I-125000J0D01*
G01*
X88866993Y78984999D01*
G75*
G02*
X88741993Y79109999I0J125000D01*
G01*
X88741993Y79359999D01*
G75*
G02*
X88866993Y79484999I125000J0D01*
G01*
X88866993Y79484999D01*
G75*
G02*
X88991993Y79359999I0J-125000D01*
G01*
G37*
G36*
G01*
X89651994Y79359999D02*
X89651994Y79109999D01*
G75*
G02*
X89526994Y78984999I-125000J0D01*
G01*
X89526994Y78984999D01*
G75*
G02*
X89401994Y79109999I0J125000D01*
G01*
X89401994Y79359999D01*
G75*
G02*
X89526994Y79484999I125000J0D01*
G01*
X89526994Y79484999D01*
G75*
G02*
X89651994Y79359999I0J-125000D01*
G01*
G37*
G36*
G01*
X90311995Y79359999D02*
X90311995Y79109999D01*
G75*
G02*
X90186995Y78984999I-125000J0D01*
G01*
X90186995Y78984999D01*
G75*
G02*
X90061995Y79109999I0J125000D01*
G01*
X90061995Y79359999D01*
G75*
G02*
X90186995Y79484999I125000J0D01*
G01*
X90186995Y79484999D01*
G75*
G02*
X90311995Y79359999I0J-125000D01*
G01*
G37*
G36*
G01*
X90971997Y79359999D02*
X90971997Y79109999D01*
G75*
G02*
X90846997Y78984999I-125000J0D01*
G01*
X90846997Y78984999D01*
G75*
G02*
X90721997Y79109999I0J125000D01*
G01*
X90721997Y79359999D01*
G75*
G02*
X90846997Y79484999I125000J0D01*
G01*
X90846997Y79484999D01*
G75*
G02*
X90971997Y79359999I0J-125000D01*
G01*
G37*
G36*
G01*
X92572994Y79359999D02*
X92572994Y79109999D01*
G75*
G02*
X92447994Y78984999I-125000J0D01*
G01*
X92447994Y78984999D01*
G75*
G02*
X92322994Y79109999I0J125000D01*
G01*
X92322994Y79359999D01*
G75*
G02*
X92447994Y79484999I125000J0D01*
G01*
X92447994Y79484999D01*
G75*
G02*
X92572994Y79359999I0J-125000D01*
G01*
G37*
G36*
G01*
X93232995Y79359999D02*
X93232995Y79109999D01*
G75*
G02*
X93107995Y78984999I-125000J0D01*
G01*
X93107995Y78984999D01*
G75*
G02*
X92982995Y79109999I0J125000D01*
G01*
X92982995Y79359999D01*
G75*
G02*
X93107995Y79484999I125000J0D01*
G01*
X93107995Y79484999D01*
G75*
G02*
X93232995Y79359999I0J-125000D01*
G01*
G37*
G36*
G01*
X93892997Y79359999D02*
X93892997Y79109999D01*
G75*
G02*
X93767997Y78984999I-125000J0D01*
G01*
X93767997Y78984999D01*
G75*
G02*
X93642997Y79109999I0J125000D01*
G01*
X93642997Y79359999D01*
G75*
G02*
X93767997Y79484999I125000J0D01*
G01*
X93767997Y79484999D01*
G75*
G02*
X93892997Y79359999I0J-125000D01*
G01*
G37*
G36*
G01*
X95013896Y79359999D02*
X95013896Y79109999D01*
G75*
G02*
X94888896Y78984999I-125000J0D01*
G01*
X94888896Y78984999D01*
G75*
G02*
X94763896Y79109999I0J125000D01*
G01*
X94763896Y79359999D01*
G75*
G02*
X94888896Y79484999I125000J0D01*
G01*
X94888896Y79484999D01*
G75*
G02*
X95013896Y79359999I0J-125000D01*
G01*
G37*
G36*
G01*
X95673897Y79359999D02*
X95673897Y79109999D01*
G75*
G02*
X95548897Y78984999I-125000J0D01*
G01*
X95548897Y78984999D01*
G75*
G02*
X95423897Y79109999I0J125000D01*
G01*
X95423897Y79359999D01*
G75*
G02*
X95548897Y79484999I125000J0D01*
G01*
X95548897Y79484999D01*
G75*
G02*
X95673897Y79359999I0J-125000D01*
G01*
G37*
G36*
G01*
X96333898Y79359999D02*
X96333898Y79109999D01*
G75*
G02*
X96208898Y78984999I-125000J0D01*
G01*
X96208898Y78984999D01*
G75*
G02*
X96083898Y79109999I0J125000D01*
G01*
X96083898Y79359999D01*
G75*
G02*
X96208898Y79484999I125000J0D01*
G01*
X96208898Y79484999D01*
G75*
G02*
X96333898Y79359999I0J-125000D01*
G01*
G37*
G36*
G01*
X96993900Y79359999D02*
X96993900Y79109999D01*
G75*
G02*
X96868900Y78984999I-125000J0D01*
G01*
X96868900Y78984999D01*
G75*
G02*
X96743900Y79109999I0J125000D01*
G01*
X96743900Y79359999D01*
G75*
G02*
X96868900Y79484999I125000J0D01*
G01*
X96868900Y79484999D01*
G75*
G02*
X96993900Y79359999I0J-125000D01*
G01*
G37*
G36*
G01*
X100319994Y79359999D02*
X100319994Y79109999D01*
G75*
G02*
X100194994Y78984999I-125000J0D01*
G01*
X100194994Y78984999D01*
G75*
G02*
X100069994Y79109999I0J125000D01*
G01*
X100069994Y79359999D01*
G75*
G02*
X100194994Y79484999I125000J0D01*
G01*
X100194994Y79484999D01*
G75*
G02*
X100319994Y79359999I0J-125000D01*
G01*
G37*
G36*
G01*
X100979995Y79359999D02*
X100979995Y79109999D01*
G75*
G02*
X100854995Y78984999I-125000J0D01*
G01*
X100854995Y78984999D01*
G75*
G02*
X100729995Y79109999I0J125000D01*
G01*
X100729995Y79359999D01*
G75*
G02*
X100854995Y79484999I125000J0D01*
G01*
X100854995Y79484999D01*
G75*
G02*
X100979995Y79359999I0J-125000D01*
G01*
G37*
G36*
G01*
X101639997Y79359999D02*
X101639997Y79109999D01*
G75*
G02*
X101514997Y78984999I-125000J0D01*
G01*
X101514997Y78984999D01*
G75*
G02*
X101389997Y79109999I0J125000D01*
G01*
X101389997Y79359999D01*
G75*
G02*
X101514997Y79484999I125000J0D01*
G01*
X101514997Y79484999D01*
G75*
G02*
X101639997Y79359999I0J-125000D01*
G01*
G37*
G36*
G01*
X104285988Y79359999D02*
X104285988Y79109999D01*
G75*
G02*
X104160988Y78984999I-125000J0D01*
G01*
X104160988Y78984999D01*
G75*
G02*
X104035988Y79109999I0J125000D01*
G01*
X104035988Y79359999D01*
G75*
G02*
X104160988Y79484999I125000J0D01*
G01*
X104160988Y79484999D01*
G75*
G02*
X104285988Y79359999I0J-125000D01*
G01*
G37*
G36*
G01*
X104945989Y79359999D02*
X104945989Y79109999D01*
G75*
G02*
X104820989Y78984999I-125000J0D01*
G01*
X104820989Y78984999D01*
G75*
G02*
X104695989Y79109999I0J125000D01*
G01*
X104695989Y79359999D01*
G75*
G02*
X104820989Y79484999I125000J0D01*
G01*
X104820989Y79484999D01*
G75*
G02*
X104945989Y79359999I0J-125000D01*
G01*
G37*
G36*
G01*
X105605991Y79359999D02*
X105605991Y79109999D01*
G75*
G02*
X105480991Y78984999I-125000J0D01*
G01*
X105480991Y78984999D01*
G75*
G02*
X105355991Y79109999I0J125000D01*
G01*
X105355991Y79359999D01*
G75*
G02*
X105480991Y79484999I125000J0D01*
G01*
X105480991Y79484999D01*
G75*
G02*
X105605991Y79359999I0J-125000D01*
G01*
G37*
G36*
G01*
X106265992Y79359999D02*
X106265992Y79109999D01*
G75*
G02*
X106140992Y78984999I-125000J0D01*
G01*
X106140992Y78984999D01*
G75*
G02*
X106015992Y79109999I0J125000D01*
G01*
X106015992Y79359999D01*
G75*
G02*
X106140992Y79484999I125000J0D01*
G01*
X106140992Y79484999D01*
G75*
G02*
X106265992Y79359999I0J-125000D01*
G01*
G37*
G36*
G01*
X106925993Y79359999D02*
X106925993Y79109999D01*
G75*
G02*
X106800993Y78984999I-125000J0D01*
G01*
X106800993Y78984999D01*
G75*
G02*
X106675993Y79109999I0J125000D01*
G01*
X106675993Y79359999D01*
G75*
G02*
X106800993Y79484999I125000J0D01*
G01*
X106800993Y79484999D01*
G75*
G02*
X106925993Y79359999I0J-125000D01*
G01*
G37*
G36*
G01*
X107585994Y79359999D02*
X107585994Y79109999D01*
G75*
G02*
X107460994Y78984999I-125000J0D01*
G01*
X107460994Y78984999D01*
G75*
G02*
X107335994Y79109999I0J125000D01*
G01*
X107335994Y79359999D01*
G75*
G02*
X107460994Y79484999I125000J0D01*
G01*
X107460994Y79484999D01*
G75*
G02*
X107585994Y79359999I0J-125000D01*
G01*
G37*
G36*
G01*
X108245996Y79359999D02*
X108245996Y79109999D01*
G75*
G02*
X108120996Y78984999I-125000J0D01*
G01*
X108120996Y78984999D01*
G75*
G02*
X107995996Y79109999I0J125000D01*
G01*
X107995996Y79359999D01*
G75*
G02*
X108120996Y79484999I125000J0D01*
G01*
X108120996Y79484999D01*
G75*
G02*
X108245996Y79359999I0J-125000D01*
G01*
G37*
G36*
G01*
X108905997Y79359999D02*
X108905997Y79109999D01*
G75*
G02*
X108780997Y78984999I-125000J0D01*
G01*
X108780997Y78984999D01*
G75*
G02*
X108655997Y79109999I0J125000D01*
G01*
X108655997Y79359999D01*
G75*
G02*
X108780997Y79484999I125000J0D01*
G01*
X108780997Y79484999D01*
G75*
G02*
X108905997Y79359999I0J-125000D01*
G01*
G37*
G36*
G01*
X109565998Y79359999D02*
X109565998Y79109999D01*
G75*
G02*
X109440998Y78984999I-125000J0D01*
G01*
X109440998Y78984999D01*
G75*
G02*
X109315998Y79109999I0J125000D01*
G01*
X109315998Y79359999D01*
G75*
G02*
X109440998Y79484999I125000J0D01*
G01*
X109440998Y79484999D01*
G75*
G02*
X109565998Y79359999I0J-125000D01*
G01*
G37*
G36*
G01*
X110226000Y79359999D02*
X110226000Y79109999D01*
G75*
G02*
X110101000Y78984999I-125000J0D01*
G01*
X110101000Y78984999D01*
G75*
G02*
X109976000Y79109999I0J125000D01*
G01*
X109976000Y79359999D01*
G75*
G02*
X110101000Y79484999I125000J0D01*
G01*
X110101000Y79484999D01*
G75*
G02*
X110226000Y79359999I0J-125000D01*
G01*
G37*
G04 #@! TD*
D15*
G04 #@! TO.C,MMCU10*
X73176000Y16523000D03*
G04 #@! TD*
G04 #@! TO.C,VIN15*
X97596002Y80520316D03*
G04 #@! TD*
G04 #@! TO.C,MMCU29*
X64926000Y51023000D03*
G04 #@! TD*
G04 #@! TO.C,VIN21*
X109176000Y82773000D03*
G04 #@! TD*
G04 #@! TO.C,MMCU15*
X61926000Y16523000D03*
G04 #@! TD*
G04 #@! TO.C,VIN7*
X90676000Y64023000D03*
G04 #@! TD*
G04 #@! TO.C,VOUT19*
X57176000Y89474215D03*
G04 #@! TD*
G04 #@! TO.C,MMCU17*
X104926000Y58773000D03*
G04 #@! TD*
G04 #@! TO.C,cr15*
X57926000Y100523000D03*
G04 #@! TD*
G04 #@! TO.C,MMCU8*
X75676000Y16523000D03*
G04 #@! TD*
G04 #@! TO.C,cr20*
X115676000Y100523000D03*
G04 #@! TD*
G04 #@! TO.C,VIN10*
X89426000Y82523000D03*
G04 #@! TD*
G04 #@! TO.C,MMCU5*
X82926000Y18023000D03*
G04 #@! TD*
G04 #@! TO.C,VIN17*
X84176000Y74773000D03*
G04 #@! TD*
G04 #@! TO.C,VIN25*
X105676000Y84773000D03*
G04 #@! TD*
G04 #@! TO.C,VOUT21*
X58426000Y91474215D03*
G04 #@! TD*
G04 #@! TO.C,VIN12*
X85676000Y80523000D03*
G04 #@! TD*
G04 #@! TO.C,MMCU39*
X64926000Y49023000D03*
G04 #@! TD*
G04 #@! TO.C,VOUT15*
X35926000Y86773000D03*
G04 #@! TD*
G04 #@! TO.C,VOUT3*
X59426000Y89474215D03*
G04 #@! TD*
G04 #@! TO.C,VOUT25*
X62676000Y53023000D03*
G04 #@! TD*
D20*
G04 #@! TO.C,J1*
X79776000Y13898000D03*
D21*
X78976000Y12148000D03*
X78176000Y13898000D03*
X77376000Y12148000D03*
X76576000Y13898000D03*
D22*
X81826000Y13023000D03*
X74526000Y13023000D03*
G04 #@! TD*
D15*
G04 #@! TO.C,VIN3*
X102426000Y82773000D03*
G04 #@! TD*
G04 #@! TO.C,cr13*
X49926000Y100523000D03*
G04 #@! TD*
G04 #@! TO.C,MMCU38*
X64926000Y53023000D03*
G04 #@! TD*
G04 #@! TO.C,cr2*
X73426000Y100523000D03*
G04 #@! TD*
G04 #@! TO.C,cr3*
X76676000Y100523000D03*
G04 #@! TD*
D23*
G04 #@! TO.C,M4*
X125800998Y18648001D03*
X126676000Y18123001D03*
X125500996Y17373003D03*
X125575999Y13823002D03*
G04 #@! TD*
D17*
G04 #@! TO.C,P5*
X16590213Y11023000D03*
G04 #@! TD*
D15*
G04 #@! TO.C,VIN8*
X86926000Y82523000D03*
G04 #@! TD*
D17*
G04 #@! TO.C,P2*
X26840213Y11023000D03*
G04 #@! TD*
D12*
G04 #@! TO.C,J21*
X9476000Y11523000D03*
D13*
X6936000Y11523000D03*
X4396000Y11523000D03*
X1856000Y11523000D03*
G04 #@! TD*
D15*
G04 #@! TO.C,VOUT2*
X50926000Y89474215D03*
G04 #@! TD*
G04 #@! TO.C,VOUT26*
X62676000Y45023000D03*
G04 #@! TD*
G04 #@! TO.C,MMCU21*
X68676000Y47273000D03*
G04 #@! TD*
G04 #@! TO.C,KNOCK_RAW1*
X71926000Y96523000D03*
G04 #@! TD*
G04 #@! TO.C,MMCU40*
X64926000Y47023000D03*
G04 #@! TD*
D24*
G04 #@! TO.C,J19*
X3401000Y16523000D03*
G36*
G01*
X12300999Y15173000D02*
X9101001Y15173000D01*
G75*
G02*
X8851000Y15423001I0J250001D01*
G01*
X8851000Y17622999D01*
G75*
G02*
X9101001Y17873000I250001J0D01*
G01*
X12300999Y17873000D01*
G75*
G02*
X12551000Y17622999I0J-250001D01*
G01*
X12551000Y15423001D01*
G75*
G02*
X12300999Y15173000I-250001J0D01*
G01*
G37*
D25*
X16201000Y16523000D03*
G04 #@! TD*
D15*
G04 #@! TO.C,cr19*
X112176000Y100523000D03*
G04 #@! TD*
G04 #@! TO.C,MMCU34*
X88426000Y59523000D03*
G04 #@! TD*
G04 #@! TO.C,VOUT14*
X33676000Y86773000D03*
G04 #@! TD*
G04 #@! TO.C,MMCU19*
X67926000Y16523000D03*
G04 #@! TD*
G04 #@! TO.C,MMCU3*
X117176000Y17523000D03*
G04 #@! TD*
G04 #@! TO.C,MMCU26*
X95926000Y14023000D03*
G04 #@! TD*
D23*
G04 #@! TO.C,M5*
X113501769Y735480D03*
X101238501Y735480D03*
X87038502Y735480D03*
X76138503Y735480D03*
X112113496Y4535492D03*
G04 #@! TD*
D15*
G04 #@! TO.C,VOUT22*
X29176000Y86773000D03*
G04 #@! TD*
G04 #@! TO.C,MMCU25*
X97176000Y16023000D03*
G04 #@! TD*
G04 #@! TO.C,J17*
G36*
G01*
X31776000Y4298100D02*
X31776000Y2947900D01*
G75*
G02*
X31526100Y2698000I-249900J0D01*
G01*
X30325900Y2698000D01*
G75*
G02*
X30076000Y2947900I0J249900D01*
G01*
X30076000Y4298100D01*
G75*
G02*
X30325900Y4548000I249900J0D01*
G01*
X31526100Y4548000D01*
G75*
G02*
X31776000Y4298100I0J-249900D01*
G01*
G37*
D26*
X28426000Y3623000D03*
X25926000Y3623000D03*
X23426000Y3623000D03*
X20926000Y3623000D03*
X18426000Y3623000D03*
X15926000Y3623000D03*
X13426000Y3623000D03*
G04 #@! TD*
D15*
G04 #@! TO.C,VOUT6*
X62676000Y78523000D03*
G04 #@! TD*
G04 #@! TO.C,VOUT24*
X24426000Y39023000D03*
G04 #@! TD*
G04 #@! TO.C,MMCU35*
X83926000Y59523000D03*
G04 #@! TD*
D16*
G04 #@! TO.C,SW1*
X87057250Y11216750D03*
G04 #@! TD*
D15*
G04 #@! TO.C,VOUT16*
X49926000Y91474215D03*
G04 #@! TD*
G04 #@! TO.C,J14*
X68426000Y88523000D03*
G04 #@! TD*
G04 #@! TO.C,VIN1*
X110176000Y84773000D03*
G04 #@! TD*
G04 #@! TO.C,MMCU36*
X90646002Y58773000D03*
G04 #@! TD*
G04 #@! TO.C,cr9*
X61176000Y100523000D03*
G04 #@! TD*
G04 #@! TO.C,MMCU1*
X121176000Y18023000D03*
G04 #@! TD*
D17*
G04 #@! TO.C,P6*
X13340213Y11023000D03*
G04 #@! TD*
D15*
G04 #@! TO.C,cr17*
X65676000Y96523000D03*
G04 #@! TD*
G04 #@! TO.C,VIN20*
X111426000Y82773000D03*
G04 #@! TD*
D12*
G04 #@! TO.C,J20*
X14276000Y21523000D03*
D13*
X11736000Y21523000D03*
X9196000Y21523000D03*
X6656000Y21523000D03*
X4116000Y21523000D03*
X1576000Y21523000D03*
G04 #@! TD*
D15*
G04 #@! TO.C,MMCU22*
X79426000Y59523000D03*
G04 #@! TD*
G04 #@! TO.C,J15*
X66176000Y88523000D03*
G04 #@! TD*
G04 #@! TO.C,cr7*
X92176000Y100523000D03*
G04 #@! TD*
G04 #@! TO.C,VOUT7*
X67926000Y41023000D03*
G04 #@! TD*
G04 #@! TO.C,VOUT4*
X60426000Y79523000D03*
G04 #@! TD*
G04 #@! TO.C,VIN9*
X87926000Y80523000D03*
G04 #@! TD*
G04 #@! TO.C,VIN13*
X92676000Y82523000D03*
G04 #@! TD*
G04 #@! TO.C,MMCU23*
X81676000Y59523000D03*
G04 #@! TD*
G04 #@! TO.C,VOUT9*
X24926000Y42273000D03*
G04 #@! TD*
G04 #@! TO.C,VOUT28*
X62676000Y47023000D03*
G04 #@! TD*
G04 #@! TO.C,MMCU12*
X70926000Y16523000D03*
G04 #@! TD*
G04 #@! TO.C,VIN5*
X84176000Y72773000D03*
G04 #@! TD*
G04 #@! TO.C,VOUT23*
X31426000Y86773000D03*
G04 #@! TD*
G04 #@! TO.C,cr16*
X62676000Y96523000D03*
G04 #@! TD*
G04 #@! TO.C,cr5*
X59426000Y96523000D03*
G04 #@! TD*
G04 #@! TO.C,J16*
X88176000Y84523000D03*
G04 #@! TD*
D27*
G04 #@! TO.C,J18*
X25026000Y57423000D03*
X23226000Y55423000D03*
X17126000Y55423000D03*
X19526000Y57423000D03*
X28726000Y55423000D03*
G04 #@! TD*
D15*
G04 #@! TO.C,cr21*
X119426000Y100523000D03*
G04 #@! TD*
G04 #@! TO.C,MMCU13*
X69176000Y18773000D03*
G04 #@! TD*
G04 #@! TO.C,VOUT8*
X62676000Y49023000D03*
G04 #@! TD*
G04 #@! TO.C,VOUT29*
X62676000Y55023000D03*
G04 #@! TD*
G04 #@! TO.C,cr12*
X43176000Y100523000D03*
G04 #@! TD*
G04 #@! TO.C,VIN24*
X104676000Y82773000D03*
G04 #@! TD*
D28*
G04 #@! TO.C,U2*
X28822750Y16343000D03*
X28822750Y39203000D03*
D11*
X41522750Y21423000D03*
X41522750Y23963000D03*
X41522750Y26503000D03*
X41522750Y29043000D03*
X41522750Y31583000D03*
X41522750Y34123000D03*
G04 #@! TD*
D29*
G04 #@! TO.C,M9*
X31924457Y84848000D03*
X33180322Y84848000D03*
D30*
X39624457Y84973001D03*
D31*
X46074449Y85273000D03*
D32*
X47049461Y85172995D03*
D31*
X47919218Y85273000D03*
X48649455Y85273000D03*
X49544218Y85273000D03*
X51619218Y85273000D03*
X52519214Y85273000D03*
X53229456Y85273000D03*
D32*
X54249457Y85173000D03*
X55424456Y85173000D03*
X56774455Y85173000D03*
X57949454Y85173000D03*
D33*
X58849455Y84242761D03*
X58849455Y83548002D03*
X58849455Y82867762D03*
D34*
X58754457Y82048000D03*
D33*
X58849455Y80742763D03*
D34*
X58754457Y79772998D03*
D33*
X58849455Y78498000D03*
X58849455Y77847998D03*
D34*
X58754457Y76647998D03*
X58754457Y75572994D03*
X58754457Y74697992D03*
D33*
X58849455Y73873000D03*
X58849455Y68022999D03*
D35*
X58954456Y63968029D03*
X58954456Y63308027D03*
X58954456Y62247999D03*
X58954456Y61543914D03*
X58954456Y60743875D03*
X58954456Y59943836D03*
X58954456Y59148000D03*
X58954456Y56952998D03*
X58954456Y56512999D03*
X58954456Y56073000D03*
X58954456Y55632998D03*
X58954456Y55192999D03*
X58954456Y54753000D03*
X58954456Y54312998D03*
X58954456Y53872999D03*
X58954456Y52748028D03*
X58954456Y52088030D03*
X58954456Y51428028D03*
X58954456Y50768030D03*
X58954456Y47363000D03*
X58954456Y46923001D03*
X58954456Y46482999D03*
X58954456Y46043000D03*
X58954456Y45603001D03*
X58954456Y45162999D03*
X58954456Y44723000D03*
G04 #@! TD*
D15*
G04 #@! TO.C,cr10*
X64176000Y100523000D03*
G04 #@! TD*
G04 #@! TO.C,cr4*
X19176000Y100523000D03*
G04 #@! TD*
G04 #@! TO.C,cr6*
X89926000Y100523000D03*
G04 #@! TD*
G04 #@! TO.C,MMCU32*
X64926000Y55023000D03*
G04 #@! TD*
G04 #@! TO.C,VOUT12*
X22426000Y37273000D03*
G04 #@! TD*
D11*
G04 #@! TO.C,JP2*
X17926000Y33618000D03*
X17926000Y37428000D03*
G04 #@! TD*
D15*
G04 #@! TO.C,cr23*
X138926000Y100523000D03*
G04 #@! TD*
D23*
G04 #@! TO.C,M1*
X14859984Y38385112D03*
X6634984Y37060108D03*
X6652489Y31827614D03*
X8534985Y31335108D03*
X1184992Y30210122D03*
G04 #@! TD*
G04 #@! TO.C,M10*
X121661000Y36259868D03*
X119825990Y36684876D03*
X121875998Y37234873D03*
X121661003Y38109832D03*
X121585996Y38959855D03*
X119825990Y39284871D03*
X121135990Y40584838D03*
X119825990Y41234855D03*
X125751005Y34059852D03*
X121675999Y34359854D03*
G04 #@! TD*
D15*
G04 #@! TO.C,cr14*
X53926000Y100523000D03*
G04 #@! TD*
G04 #@! TO.C,MMCU11*
X71676000Y18773000D03*
G04 #@! TD*
G04 #@! TO.C,cr18*
X68676000Y96523000D03*
G04 #@! TD*
G04 #@! TO.C,cr22*
X138926000Y97273000D03*
G04 #@! TD*
G04 #@! TO.C,MMCU33*
X86176000Y59523000D03*
G04 #@! TD*
G04 #@! TO.C,MMCU24*
X98676000Y14023000D03*
G04 #@! TD*
G04 #@! TO.C,cr24*
X97926000Y100523000D03*
G04 #@! TD*
G04 #@! TO.C,VOUT11*
X22426000Y40773000D03*
G04 #@! TD*
D17*
G04 #@! TO.C,P4*
X19840213Y11023000D03*
G04 #@! TD*
D15*
G04 #@! TO.C,VOUT17*
X53176000Y89474215D03*
G04 #@! TD*
D23*
G04 #@! TO.C,M2*
X122800999Y24323003D03*
X123325999Y25198005D03*
X124075997Y24023001D03*
X127625998Y24098004D03*
G04 #@! TD*
D15*
G04 #@! TO.C,MMCU27*
X94426000Y16023000D03*
G04 #@! TD*
G04 #@! TO.C,VIN22*
X108176000Y64023000D03*
G04 #@! TD*
G04 #@! TO.C,VIN2*
X103426000Y84773000D03*
G04 #@! TD*
G04 #@! TO.C,VOUT13*
X67926000Y38523000D03*
G04 #@! TD*
D17*
G04 #@! TO.C,P1*
X30590213Y11023000D03*
G04 #@! TD*
D15*
G04 #@! TO.C,MMCU6*
X80426000Y18023000D03*
G04 #@! TD*
D36*
G04 #@! TO.C,J3*
X117376000Y9973000D03*
X116276000Y9973000D03*
X115176000Y9973000D03*
X114076000Y9973000D03*
X112976000Y9973000D03*
X111876000Y9973000D03*
X110776000Y9973000D03*
X109676000Y9973000D03*
D37*
X107301000Y4273000D03*
X121051000Y4273000D03*
X107301000Y12573000D03*
X121051000Y12573000D03*
G04 #@! TD*
G04 #@! TO.C,R6*
G36*
G01*
X99991000Y84553000D02*
X100361000Y84553000D01*
G75*
G02*
X100496000Y84418000I0J-135000D01*
G01*
X100496000Y84148000D01*
G75*
G02*
X100361000Y84013000I-135000J0D01*
G01*
X99991000Y84013000D01*
G75*
G02*
X99856000Y84148000I0J135000D01*
G01*
X99856000Y84418000D01*
G75*
G02*
X99991000Y84553000I135000J0D01*
G01*
G37*
G36*
G01*
X99991000Y83533000D02*
X100361000Y83533000D01*
G75*
G02*
X100496000Y83398000I0J-135000D01*
G01*
X100496000Y83128000D01*
G75*
G02*
X100361000Y82993000I-135000J0D01*
G01*
X99991000Y82993000D01*
G75*
G02*
X99856000Y83128000I0J135000D01*
G01*
X99856000Y83398000D01*
G75*
G02*
X99991000Y83533000I135000J0D01*
G01*
G37*
G04 #@! TD*
G04 #@! TO.C,R27*
G36*
G01*
X25906000Y73338000D02*
X25906000Y73708000D01*
G75*
G02*
X26041000Y73843000I135000J0D01*
G01*
X26311000Y73843000D01*
G75*
G02*
X26446000Y73708000I0J-135000D01*
G01*
X26446000Y73338000D01*
G75*
G02*
X26311000Y73203000I-135000J0D01*
G01*
X26041000Y73203000D01*
G75*
G02*
X25906000Y73338000I0J135000D01*
G01*
G37*
G36*
G01*
X26926000Y73338000D02*
X26926000Y73708000D01*
G75*
G02*
X27061000Y73843000I135000J0D01*
G01*
X27331000Y73843000D01*
G75*
G02*
X27466000Y73708000I0J-135000D01*
G01*
X27466000Y73338000D01*
G75*
G02*
X27331000Y73203000I-135000J0D01*
G01*
X27061000Y73203000D01*
G75*
G02*
X26926000Y73338000I0J135000D01*
G01*
G37*
G04 #@! TD*
M02*
