G04 #@! TF.GenerationSoftware,KiCad,Pcbnew,(5.99.0-11247-g3f6811f413)*
G04 #@! TF.CreationDate,2021-08-04T01:05:31+03:00*
G04 #@! TF.ProjectId,hellen88bmw,68656c6c-656e-4383-9862-6d772e6b6963,rev?*
G04 #@! TF.SameCoordinates,PX3d1b110PY9269338*
G04 #@! TF.FileFunction,Paste,Top*
G04 #@! TF.FilePolarity,Positive*
%FSLAX46Y46*%
G04 Gerber Fmt 4.6, Leading zero omitted, Abs format (unit mm)*
G04 Created by KiCad (PCBNEW (5.99.0-11247-g3f6811f413)) date 2021-08-04 01:05:31*
%MOMM*%
%LPD*%
G01*
G04 APERTURE LIST*
%ADD10R,1.397000X0.889000*%
%ADD11R,0.203200X1.524000*%
%ADD12R,3.050000X2.750000*%
%ADD13R,2.200000X1.200000*%
%ADD14R,0.800000X1.500000*%
%ADD15R,1.450000X2.000000*%
%ADD16R,2.160000X0.640000*%
%ADD17R,0.900000X1.700000*%
%ADD18R,0.900000X0.400000*%
%ADD19O,0.000001X0.000001*%
%ADD20O,0.500000X0.250000*%
%ADD21O,0.250000X0.500000*%
G04 APERTURE END LIST*
D10*
G04 #@! TO.C,JP1*
X21926000Y99475500D03*
D11*
X21926000Y99793000D03*
X21926000Y97253000D03*
D10*
X21926000Y97570500D03*
G04 #@! TD*
G04 #@! TO.C,JP3*
X30176000Y99475500D03*
D11*
X30176000Y99793000D03*
X30176000Y97253000D03*
D10*
X30176000Y97570500D03*
G04 #@! TD*
G04 #@! TO.C,JP4*
X35676000Y99475500D03*
D11*
X35676000Y99793000D03*
D10*
X35676000Y97570500D03*
D11*
X35676000Y97253000D03*
G04 #@! TD*
G04 #@! TO.C,JP5*
X45176000Y99793000D03*
D10*
X45176000Y99475500D03*
D11*
X45176000Y97253000D03*
D10*
X45176000Y97570500D03*
G04 #@! TD*
G04 #@! TO.C,JP7*
X51926000Y99475500D03*
D11*
X51926000Y99793000D03*
D10*
X51926000Y97570500D03*
D11*
X51926000Y97253000D03*
G04 #@! TD*
D10*
G04 #@! TO.C,JP14*
X79676000Y99475500D03*
D11*
X79676000Y99793000D03*
D10*
X79676000Y97570500D03*
D11*
X79676000Y97253000D03*
G04 #@! TD*
G04 #@! TO.C,JP16*
X85176000Y99793000D03*
D10*
X85176000Y99475500D03*
X85176000Y97570500D03*
D11*
X85176000Y97253000D03*
G04 #@! TD*
G04 #@! TO.C,JP17*
X87926000Y99793000D03*
D10*
X87926000Y99475500D03*
X87926000Y97570500D03*
D11*
X87926000Y97253000D03*
G04 #@! TD*
G04 #@! TO.C,JP20*
X94926000Y92293000D03*
D10*
X94926000Y91975500D03*
X94926000Y90070500D03*
D11*
X94926000Y89753000D03*
G04 #@! TD*
G04 #@! TO.C,JP21*
X98176000Y92293000D03*
D10*
X98176000Y91975500D03*
D11*
X98176000Y89753000D03*
D10*
X98176000Y90070500D03*
G04 #@! TD*
G04 #@! TO.C,JP22*
X110926000Y91975500D03*
D11*
X110926000Y92293000D03*
D10*
X110926000Y90070500D03*
D11*
X110926000Y89753000D03*
G04 #@! TD*
D10*
G04 #@! TO.C,JP23*
X116426000Y91975500D03*
D11*
X116426000Y92293000D03*
X116426000Y89753000D03*
D10*
X116426000Y90070500D03*
G04 #@! TD*
G04 #@! TO.C,JP24*
X121926000Y91975500D03*
D11*
X121926000Y92293000D03*
D10*
X121926000Y90070500D03*
D11*
X121926000Y89753000D03*
G04 #@! TD*
G04 #@! TO.C,JP25*
X125676000Y99793000D03*
D10*
X125676000Y99475500D03*
X125676000Y97570500D03*
D11*
X125676000Y97253000D03*
G04 #@! TD*
G04 #@! TO.C,JP26*
X129926000Y99793000D03*
D10*
X129926000Y99475500D03*
D11*
X129926000Y97253000D03*
D10*
X129926000Y97570500D03*
G04 #@! TD*
G04 #@! TO.C,JP27*
X135926000Y99475500D03*
D11*
X135926000Y99793000D03*
D10*
X135926000Y97570500D03*
D11*
X135926000Y97253000D03*
G04 #@! TD*
D10*
G04 #@! TO.C,JP29*
X24676000Y99475500D03*
D11*
X24676000Y99793000D03*
X24676000Y97253000D03*
D10*
X24676000Y97570500D03*
G04 #@! TD*
G04 #@! TO.C,JP31*
X32926000Y99475500D03*
D11*
X32926000Y99793000D03*
D10*
X32926000Y97570500D03*
D11*
X32926000Y97253000D03*
G04 #@! TD*
D10*
G04 #@! TO.C,JP32*
X41176000Y99475500D03*
D11*
X41176000Y99793000D03*
D10*
X41176000Y97570500D03*
D11*
X41176000Y97253000D03*
G04 #@! TD*
D10*
G04 #@! TO.C,JP33*
X47926000Y99475500D03*
D11*
X47926000Y99793000D03*
X47926000Y97253000D03*
D10*
X47926000Y97570500D03*
G04 #@! TD*
D11*
G04 #@! TO.C,JP35*
X55926000Y99793000D03*
D10*
X55926000Y99475500D03*
D11*
X55926000Y97253000D03*
D10*
X55926000Y97570500D03*
G04 #@! TD*
G04 #@! TO.C,JP41*
X77926000Y91975500D03*
D11*
X77926000Y92293000D03*
D10*
X77926000Y90070500D03*
D11*
X77926000Y89753000D03*
G04 #@! TD*
D10*
G04 #@! TO.C,JP42*
X80426000Y91975500D03*
D11*
X80426000Y92293000D03*
D10*
X80426000Y90070500D03*
D11*
X80426000Y89753000D03*
G04 #@! TD*
G04 #@! TO.C,JP43*
X82426000Y99793000D03*
D10*
X82426000Y99475500D03*
D11*
X82426000Y97253000D03*
D10*
X82426000Y97570500D03*
G04 #@! TD*
D11*
G04 #@! TO.C,JP44*
X86676000Y92293000D03*
D10*
X86676000Y91975500D03*
D11*
X86676000Y89753000D03*
D10*
X86676000Y90070500D03*
G04 #@! TD*
G04 #@! TO.C,JP46*
X89426000Y91975500D03*
D11*
X89426000Y92293000D03*
X89426000Y89753000D03*
D10*
X89426000Y90070500D03*
G04 #@! TD*
D11*
G04 #@! TO.C,JP47*
X92176000Y92293000D03*
D10*
X92176000Y91975500D03*
X92176000Y90070500D03*
D11*
X92176000Y89753000D03*
G04 #@! TD*
G04 #@! TO.C,JP50*
X113676000Y92293000D03*
D10*
X113676000Y91975500D03*
X113676000Y90070500D03*
D11*
X113676000Y89753000D03*
G04 #@! TD*
D10*
G04 #@! TO.C,JP51*
X119176000Y91975500D03*
D11*
X119176000Y92293000D03*
X119176000Y89753000D03*
D10*
X119176000Y90070500D03*
G04 #@! TD*
G04 #@! TO.C,JP52*
X124676000Y91975500D03*
D11*
X124676000Y92293000D03*
X124676000Y89753000D03*
D10*
X124676000Y90070500D03*
G04 #@! TD*
D11*
G04 #@! TO.C,JP54*
X132676000Y99793000D03*
D10*
X132676000Y99475500D03*
D11*
X132676000Y97253000D03*
D10*
X132676000Y97570500D03*
G04 #@! TD*
G04 #@! TO.C,JP56*
X27426000Y99475500D03*
D11*
X27426000Y99793000D03*
D10*
X27426000Y97570500D03*
D11*
X27426000Y97253000D03*
G04 #@! TD*
G04 #@! TO.C,JP73*
X83926000Y92293000D03*
D10*
X83926000Y91975500D03*
D11*
X83926000Y89753000D03*
D10*
X83926000Y90070500D03*
G04 #@! TD*
D11*
G04 #@! TO.C,JP77*
X95926000Y99793000D03*
D10*
X95926000Y99475500D03*
X95926000Y97570500D03*
D11*
X95926000Y97253000D03*
G04 #@! TD*
D10*
G04 #@! TO.C,JP78*
X100926000Y99475500D03*
D11*
X100926000Y99793000D03*
D10*
X100926000Y97570500D03*
D11*
X100926000Y97253000D03*
G04 #@! TD*
D10*
G04 #@! TO.C,JP85*
X130176000Y91975500D03*
D11*
X130176000Y92293000D03*
D10*
X130176000Y90070500D03*
D11*
X130176000Y89753000D03*
G04 #@! TD*
G04 #@! TO.C,JP86*
X127426000Y92293000D03*
D10*
X127426000Y91975500D03*
X127426000Y90070500D03*
D11*
X127426000Y89753000D03*
G04 #@! TD*
G04 #@! TO.C,JP59*
X38426000Y99793000D03*
D10*
X38426000Y99475500D03*
D11*
X38426000Y97253000D03*
D10*
X38426000Y97570500D03*
G04 #@! TD*
D11*
G04 #@! TO.C,JP49*
X108176000Y92293000D03*
D10*
X108176000Y91975500D03*
X108176000Y90070500D03*
D11*
X108176000Y89753000D03*
G04 #@! TD*
D12*
G04 #@! TO.C,Q1*
X144351000Y31548000D03*
X147701000Y31548000D03*
X147701000Y28498000D03*
X144351000Y28498000D03*
D13*
X139726000Y32303000D03*
X139726000Y27743000D03*
G04 #@! TD*
D12*
G04 #@! TO.C,Q6*
X144351000Y91548000D03*
X147701000Y88498000D03*
X144351000Y88498000D03*
X147701000Y91548000D03*
D13*
X139726000Y92303000D03*
X139726000Y87743000D03*
G04 #@! TD*
D12*
G04 #@! TO.C,Q2*
X147701000Y38498000D03*
X144351000Y41548000D03*
X144351000Y38498000D03*
X147701000Y41548000D03*
D13*
X139726000Y42303000D03*
X139726000Y37743000D03*
G04 #@! TD*
D12*
G04 #@! TO.C,Q5*
X147701000Y81548000D03*
X147701000Y78498000D03*
X144351000Y78498000D03*
X144351000Y81548000D03*
D13*
X139726000Y82303000D03*
X139726000Y77743000D03*
G04 #@! TD*
D12*
G04 #@! TO.C,Q3*
X147701000Y58998000D03*
X144351000Y58998000D03*
X147701000Y62048000D03*
X144351000Y62048000D03*
D13*
X139726000Y62803000D03*
X139726000Y58243000D03*
G04 #@! TD*
D12*
G04 #@! TO.C,Q4*
X147701000Y68998000D03*
X144351000Y68998000D03*
X147701000Y72048000D03*
X144351000Y72048000D03*
D13*
X139726000Y72803000D03*
X139726000Y68243000D03*
G04 #@! TD*
D14*
G04 #@! TO.C,J3*
X109476000Y9973000D03*
X110576000Y9973000D03*
X111676000Y9973000D03*
X112776000Y9973000D03*
X113876000Y9973000D03*
X114976000Y9973000D03*
X116076000Y9973000D03*
X117176000Y9973000D03*
D15*
X119551000Y4273000D03*
X105801000Y4273000D03*
X119551000Y12573000D03*
X105801000Y12573000D03*
G04 #@! TD*
G04 #@! TO.C,C1*
G36*
G01*
X45596000Y17993000D02*
X45256000Y17993000D01*
G75*
G02*
X45116000Y18133000I0J140000D01*
G01*
X45116000Y18413000D01*
G75*
G02*
X45256000Y18553000I140000J0D01*
G01*
X45596000Y18553000D01*
G75*
G02*
X45736000Y18413000I0J-140000D01*
G01*
X45736000Y18133000D01*
G75*
G02*
X45596000Y17993000I-140000J0D01*
G01*
G37*
G36*
G01*
X45596000Y18953000D02*
X45256000Y18953000D01*
G75*
G02*
X45116000Y19093000I0J140000D01*
G01*
X45116000Y19373000D01*
G75*
G02*
X45256000Y19513000I140000J0D01*
G01*
X45596000Y19513000D01*
G75*
G02*
X45736000Y19373000I0J-140000D01*
G01*
X45736000Y19093000D01*
G75*
G02*
X45596000Y18953000I-140000J0D01*
G01*
G37*
G04 #@! TD*
G04 #@! TO.C,C2*
G36*
G01*
X44596000Y18013000D02*
X44256000Y18013000D01*
G75*
G02*
X44116000Y18153000I0J140000D01*
G01*
X44116000Y18433000D01*
G75*
G02*
X44256000Y18573000I140000J0D01*
G01*
X44596000Y18573000D01*
G75*
G02*
X44736000Y18433000I0J-140000D01*
G01*
X44736000Y18153000D01*
G75*
G02*
X44596000Y18013000I-140000J0D01*
G01*
G37*
G36*
G01*
X44596000Y18973000D02*
X44256000Y18973000D01*
G75*
G02*
X44116000Y19113000I0J140000D01*
G01*
X44116000Y19393000D01*
G75*
G02*
X44256000Y19533000I140000J0D01*
G01*
X44596000Y19533000D01*
G75*
G02*
X44736000Y19393000I0J-140000D01*
G01*
X44736000Y19113000D01*
G75*
G02*
X44596000Y18973000I-140000J0D01*
G01*
G37*
G04 #@! TD*
D16*
G04 #@! TO.C,U1*
X42446000Y16868000D03*
X42446000Y18138000D03*
X42446000Y19408000D03*
X42446000Y20678000D03*
X33906000Y20678000D03*
X33906000Y19408000D03*
X33906000Y18138000D03*
X33906000Y16868000D03*
G04 #@! TD*
G04 #@! TO.C,R1*
G36*
G01*
X96646000Y8288000D02*
X96646000Y8658000D01*
G75*
G02*
X96781000Y8793000I135000J0D01*
G01*
X97051000Y8793000D01*
G75*
G02*
X97186000Y8658000I0J-135000D01*
G01*
X97186000Y8288000D01*
G75*
G02*
X97051000Y8153000I-135000J0D01*
G01*
X96781000Y8153000D01*
G75*
G02*
X96646000Y8288000I0J135000D01*
G01*
G37*
G36*
G01*
X97666000Y8288000D02*
X97666000Y8658000D01*
G75*
G02*
X97801000Y8793000I135000J0D01*
G01*
X98071000Y8793000D01*
G75*
G02*
X98206000Y8658000I0J-135000D01*
G01*
X98206000Y8288000D01*
G75*
G02*
X98071000Y8153000I-135000J0D01*
G01*
X97801000Y8153000D01*
G75*
G02*
X97666000Y8288000I0J135000D01*
G01*
G37*
G04 #@! TD*
G04 #@! TO.C,D14*
G36*
G01*
X26901000Y16529250D02*
X26901000Y16016750D01*
G75*
G02*
X26682250Y15798000I-218750J0D01*
G01*
X26244750Y15798000D01*
G75*
G02*
X26026000Y16016750I0J218750D01*
G01*
X26026000Y16529250D01*
G75*
G02*
X26244750Y16748000I218750J0D01*
G01*
X26682250Y16748000D01*
G75*
G02*
X26901000Y16529250I0J-218750D01*
G01*
G37*
G36*
G01*
X25326000Y16529250D02*
X25326000Y16016750D01*
G75*
G02*
X25107250Y15798000I-218750J0D01*
G01*
X24669750Y15798000D01*
G75*
G02*
X24451000Y16016750I0J218750D01*
G01*
X24451000Y16529250D01*
G75*
G02*
X24669750Y16748000I218750J0D01*
G01*
X25107250Y16748000D01*
G75*
G02*
X25326000Y16529250I0J-218750D01*
G01*
G37*
G04 #@! TD*
G04 #@! TO.C,R10*
G36*
G01*
X137601000Y17448000D02*
X134751000Y17448000D01*
G75*
G02*
X134501000Y17698000I0J250000D01*
G01*
X134501000Y18423000D01*
G75*
G02*
X134751000Y18673000I250000J0D01*
G01*
X137601000Y18673000D01*
G75*
G02*
X137851000Y18423000I0J-250000D01*
G01*
X137851000Y17698000D01*
G75*
G02*
X137601000Y17448000I-250000J0D01*
G01*
G37*
G36*
G01*
X137601000Y23373000D02*
X134751000Y23373000D01*
G75*
G02*
X134501000Y23623000I0J250000D01*
G01*
X134501000Y24348000D01*
G75*
G02*
X134751000Y24598000I250000J0D01*
G01*
X137601000Y24598000D01*
G75*
G02*
X137851000Y24348000I0J-250000D01*
G01*
X137851000Y23623000D01*
G75*
G02*
X137601000Y23373000I-250000J0D01*
G01*
G37*
G04 #@! TD*
G04 #@! TO.C,D23*
G36*
G01*
X121988500Y66266750D02*
X121988500Y66779250D01*
G75*
G02*
X122207250Y66998000I218750J0D01*
G01*
X122644750Y66998000D01*
G75*
G02*
X122863500Y66779250I0J-218750D01*
G01*
X122863500Y66266750D01*
G75*
G02*
X122644750Y66048000I-218750J0D01*
G01*
X122207250Y66048000D01*
G75*
G02*
X121988500Y66266750I0J218750D01*
G01*
G37*
G36*
G01*
X123563500Y66266750D02*
X123563500Y66779250D01*
G75*
G02*
X123782250Y66998000I218750J0D01*
G01*
X124219750Y66998000D01*
G75*
G02*
X124438500Y66779250I0J-218750D01*
G01*
X124438500Y66266750D01*
G75*
G02*
X124219750Y66048000I-218750J0D01*
G01*
X123782250Y66048000D01*
G75*
G02*
X123563500Y66266750I0J218750D01*
G01*
G37*
G04 #@! TD*
G04 #@! TO.C,D25*
G36*
G01*
X68151000Y66779250D02*
X68151000Y66266750D01*
G75*
G02*
X67932250Y66048000I-218750J0D01*
G01*
X67494750Y66048000D01*
G75*
G02*
X67276000Y66266750I0J218750D01*
G01*
X67276000Y66779250D01*
G75*
G02*
X67494750Y66998000I218750J0D01*
G01*
X67932250Y66998000D01*
G75*
G02*
X68151000Y66779250I0J-218750D01*
G01*
G37*
G36*
G01*
X66576000Y66779250D02*
X66576000Y66266750D01*
G75*
G02*
X66357250Y66048000I-218750J0D01*
G01*
X65919750Y66048000D01*
G75*
G02*
X65701000Y66266750I0J218750D01*
G01*
X65701000Y66779250D01*
G75*
G02*
X65919750Y66998000I218750J0D01*
G01*
X66357250Y66998000D01*
G75*
G02*
X66576000Y66779250I0J-218750D01*
G01*
G37*
G04 #@! TD*
G04 #@! TO.C,D8*
G36*
G01*
X78201000Y69016750D02*
X78201000Y69529250D01*
G75*
G02*
X78419750Y69748000I218750J0D01*
G01*
X78857250Y69748000D01*
G75*
G02*
X79076000Y69529250I0J-218750D01*
G01*
X79076000Y69016750D01*
G75*
G02*
X78857250Y68798000I-218750J0D01*
G01*
X78419750Y68798000D01*
G75*
G02*
X78201000Y69016750I0J218750D01*
G01*
G37*
G36*
G01*
X79776000Y69016750D02*
X79776000Y69529250D01*
G75*
G02*
X79994750Y69748000I218750J0D01*
G01*
X80432250Y69748000D01*
G75*
G02*
X80651000Y69529250I0J-218750D01*
G01*
X80651000Y69016750D01*
G75*
G02*
X80432250Y68798000I-218750J0D01*
G01*
X79994750Y68798000D01*
G75*
G02*
X79776000Y69016750I0J218750D01*
G01*
G37*
G04 #@! TD*
G04 #@! TO.C,D27*
G36*
G01*
X68151000Y59279250D02*
X68151000Y58766750D01*
G75*
G02*
X67932250Y58548000I-218750J0D01*
G01*
X67494750Y58548000D01*
G75*
G02*
X67276000Y58766750I0J218750D01*
G01*
X67276000Y59279250D01*
G75*
G02*
X67494750Y59498000I218750J0D01*
G01*
X67932250Y59498000D01*
G75*
G02*
X68151000Y59279250I0J-218750D01*
G01*
G37*
G36*
G01*
X66576000Y59279250D02*
X66576000Y58766750D01*
G75*
G02*
X66357250Y58548000I-218750J0D01*
G01*
X65919750Y58548000D01*
G75*
G02*
X65701000Y58766750I0J218750D01*
G01*
X65701000Y59279250D01*
G75*
G02*
X65919750Y59498000I218750J0D01*
G01*
X66357250Y59498000D01*
G75*
G02*
X66576000Y59279250I0J-218750D01*
G01*
G37*
G04 #@! TD*
G04 #@! TO.C,D29*
G36*
G01*
X68151000Y65029250D02*
X68151000Y64516750D01*
G75*
G02*
X67932250Y64298000I-218750J0D01*
G01*
X67494750Y64298000D01*
G75*
G02*
X67276000Y64516750I0J218750D01*
G01*
X67276000Y65029250D01*
G75*
G02*
X67494750Y65248000I218750J0D01*
G01*
X67932250Y65248000D01*
G75*
G02*
X68151000Y65029250I0J-218750D01*
G01*
G37*
G36*
G01*
X66576000Y65029250D02*
X66576000Y64516750D01*
G75*
G02*
X66357250Y64298000I-218750J0D01*
G01*
X65919750Y64298000D01*
G75*
G02*
X65701000Y64516750I0J218750D01*
G01*
X65701000Y65029250D01*
G75*
G02*
X65919750Y65248000I218750J0D01*
G01*
X66357250Y65248000D01*
G75*
G02*
X66576000Y65029250I0J-218750D01*
G01*
G37*
G04 #@! TD*
D17*
G04 #@! TO.C,SW2*
X95976000Y10973000D03*
X99376000Y10973000D03*
G04 #@! TD*
G04 #@! TO.C,D1*
G36*
G01*
X94613500Y8729250D02*
X94613500Y8216750D01*
G75*
G02*
X94394750Y7998000I-218750J0D01*
G01*
X93957250Y7998000D01*
G75*
G02*
X93738500Y8216750I0J218750D01*
G01*
X93738500Y8729250D01*
G75*
G02*
X93957250Y8948000I218750J0D01*
G01*
X94394750Y8948000D01*
G75*
G02*
X94613500Y8729250I0J-218750D01*
G01*
G37*
G36*
G01*
X93038500Y8729250D02*
X93038500Y8216750D01*
G75*
G02*
X92819750Y7998000I-218750J0D01*
G01*
X92382250Y7998000D01*
G75*
G02*
X92163500Y8216750I0J218750D01*
G01*
X92163500Y8729250D01*
G75*
G02*
X92382250Y8948000I218750J0D01*
G01*
X92819750Y8948000D01*
G75*
G02*
X93038500Y8729250I0J-218750D01*
G01*
G37*
G04 #@! TD*
D18*
G04 #@! TO.C,RN7*
X72526000Y66323000D03*
X72526000Y67123000D03*
X72526000Y67923000D03*
X72526000Y68723000D03*
X70826000Y68723000D03*
X70826000Y67923000D03*
X70826000Y67123000D03*
X70826000Y66323000D03*
G04 #@! TD*
D12*
G04 #@! TO.C,Q7*
X147701000Y22048000D03*
X144351000Y22048000D03*
X147701000Y18998000D03*
X144351000Y18998000D03*
D13*
X139726000Y22803000D03*
X139726000Y18243000D03*
G04 #@! TD*
G04 #@! TO.C,D28*
G36*
G01*
X68151000Y68529250D02*
X68151000Y68016750D01*
G75*
G02*
X67932250Y67798000I-218750J0D01*
G01*
X67494750Y67798000D01*
G75*
G02*
X67276000Y68016750I0J218750D01*
G01*
X67276000Y68529250D01*
G75*
G02*
X67494750Y68748000I218750J0D01*
G01*
X67932250Y68748000D01*
G75*
G02*
X68151000Y68529250I0J-218750D01*
G01*
G37*
G36*
G01*
X66576000Y68529250D02*
X66576000Y68016750D01*
G75*
G02*
X66357250Y67798000I-218750J0D01*
G01*
X65919750Y67798000D01*
G75*
G02*
X65701000Y68016750I0J218750D01*
G01*
X65701000Y68529250D01*
G75*
G02*
X65919750Y68748000I218750J0D01*
G01*
X66357250Y68748000D01*
G75*
G02*
X66576000Y68529250I0J-218750D01*
G01*
G37*
G04 #@! TD*
G04 #@! TO.C,R9*
G36*
G01*
X137601000Y57448000D02*
X134751000Y57448000D01*
G75*
G02*
X134501000Y57698000I0J250000D01*
G01*
X134501000Y58423000D01*
G75*
G02*
X134751000Y58673000I250000J0D01*
G01*
X137601000Y58673000D01*
G75*
G02*
X137851000Y58423000I0J-250000D01*
G01*
X137851000Y57698000D01*
G75*
G02*
X137601000Y57448000I-250000J0D01*
G01*
G37*
G36*
G01*
X137601000Y63373000D02*
X134751000Y63373000D01*
G75*
G02*
X134501000Y63623000I0J250000D01*
G01*
X134501000Y64348000D01*
G75*
G02*
X134751000Y64598000I250000J0D01*
G01*
X137601000Y64598000D01*
G75*
G02*
X137851000Y64348000I0J-250000D01*
G01*
X137851000Y63623000D01*
G75*
G02*
X137601000Y63373000I-250000J0D01*
G01*
G37*
G04 #@! TD*
G04 #@! TO.C,D11*
G36*
G01*
X68151000Y76029250D02*
X68151000Y75516750D01*
G75*
G02*
X67932250Y75298000I-218750J0D01*
G01*
X67494750Y75298000D01*
G75*
G02*
X67276000Y75516750I0J218750D01*
G01*
X67276000Y76029250D01*
G75*
G02*
X67494750Y76248000I218750J0D01*
G01*
X67932250Y76248000D01*
G75*
G02*
X68151000Y76029250I0J-218750D01*
G01*
G37*
G36*
G01*
X66576000Y76029250D02*
X66576000Y75516750D01*
G75*
G02*
X66357250Y75298000I-218750J0D01*
G01*
X65919750Y75298000D01*
G75*
G02*
X65701000Y75516750I0J218750D01*
G01*
X65701000Y76029250D01*
G75*
G02*
X65919750Y76248000I218750J0D01*
G01*
X66357250Y76248000D01*
G75*
G02*
X66576000Y76029250I0J-218750D01*
G01*
G37*
G04 #@! TD*
G04 #@! TO.C,D22*
G36*
G01*
X121988500Y62766750D02*
X121988500Y63279250D01*
G75*
G02*
X122207250Y63498000I218750J0D01*
G01*
X122644750Y63498000D01*
G75*
G02*
X122863500Y63279250I0J-218750D01*
G01*
X122863500Y62766750D01*
G75*
G02*
X122644750Y62548000I-218750J0D01*
G01*
X122207250Y62548000D01*
G75*
G02*
X121988500Y62766750I0J218750D01*
G01*
G37*
G36*
G01*
X123563500Y62766750D02*
X123563500Y63279250D01*
G75*
G02*
X123782250Y63498000I218750J0D01*
G01*
X124219750Y63498000D01*
G75*
G02*
X124438500Y63279250I0J-218750D01*
G01*
X124438500Y62766750D01*
G75*
G02*
X124219750Y62548000I-218750J0D01*
G01*
X123782250Y62548000D01*
G75*
G02*
X123563500Y62766750I0J218750D01*
G01*
G37*
G04 #@! TD*
D18*
G04 #@! TO.C,RN4*
X72526000Y72573000D03*
X72526000Y73373000D03*
X72526000Y74173000D03*
X72526000Y74973000D03*
X70826000Y74973000D03*
X70826000Y74173000D03*
X70826000Y73373000D03*
X70826000Y72573000D03*
G04 #@! TD*
G04 #@! TO.C,R26*
G36*
G01*
X104706000Y95458000D02*
X104706000Y95088000D01*
G75*
G02*
X104571000Y94953000I-135000J0D01*
G01*
X104301000Y94953000D01*
G75*
G02*
X104166000Y95088000I0J135000D01*
G01*
X104166000Y95458000D01*
G75*
G02*
X104301000Y95593000I135000J0D01*
G01*
X104571000Y95593000D01*
G75*
G02*
X104706000Y95458000I0J-135000D01*
G01*
G37*
G36*
G01*
X103686000Y95458000D02*
X103686000Y95088000D01*
G75*
G02*
X103551000Y94953000I-135000J0D01*
G01*
X103281000Y94953000D01*
G75*
G02*
X103146000Y95088000I0J135000D01*
G01*
X103146000Y95458000D01*
G75*
G02*
X103281000Y95593000I135000J0D01*
G01*
X103551000Y95593000D01*
G75*
G02*
X103686000Y95458000I0J-135000D01*
G01*
G37*
G04 #@! TD*
G04 #@! TO.C,R14*
G36*
G01*
X134751000Y15098000D02*
X137601000Y15098000D01*
G75*
G02*
X137851000Y14848000I0J-250000D01*
G01*
X137851000Y14123000D01*
G75*
G02*
X137601000Y13873000I-250000J0D01*
G01*
X134751000Y13873000D01*
G75*
G02*
X134501000Y14123000I0J250000D01*
G01*
X134501000Y14848000D01*
G75*
G02*
X134751000Y15098000I250000J0D01*
G01*
G37*
G36*
G01*
X134751000Y9173000D02*
X137601000Y9173000D01*
G75*
G02*
X137851000Y8923000I0J-250000D01*
G01*
X137851000Y8198000D01*
G75*
G02*
X137601000Y7948000I-250000J0D01*
G01*
X134751000Y7948000D01*
G75*
G02*
X134501000Y8198000I0J250000D01*
G01*
X134501000Y8923000D01*
G75*
G02*
X134751000Y9173000I250000J0D01*
G01*
G37*
G04 #@! TD*
G04 #@! TO.C,D16*
G36*
G01*
X121951000Y53916750D02*
X121951000Y54429250D01*
G75*
G02*
X122169750Y54648000I218750J0D01*
G01*
X122607250Y54648000D01*
G75*
G02*
X122826000Y54429250I0J-218750D01*
G01*
X122826000Y53916750D01*
G75*
G02*
X122607250Y53698000I-218750J0D01*
G01*
X122169750Y53698000D01*
G75*
G02*
X121951000Y53916750I0J218750D01*
G01*
G37*
G36*
G01*
X123526000Y53916750D02*
X123526000Y54429250D01*
G75*
G02*
X123744750Y54648000I218750J0D01*
G01*
X124182250Y54648000D01*
G75*
G02*
X124401000Y54429250I0J-218750D01*
G01*
X124401000Y53916750D01*
G75*
G02*
X124182250Y53698000I-218750J0D01*
G01*
X123744750Y53698000D01*
G75*
G02*
X123526000Y53916750I0J218750D01*
G01*
G37*
G04 #@! TD*
G04 #@! TO.C,R4*
G36*
G01*
X74646000Y88838000D02*
X74646000Y89208000D01*
G75*
G02*
X74781000Y89343000I135000J0D01*
G01*
X75051000Y89343000D01*
G75*
G02*
X75186000Y89208000I0J-135000D01*
G01*
X75186000Y88838000D01*
G75*
G02*
X75051000Y88703000I-135000J0D01*
G01*
X74781000Y88703000D01*
G75*
G02*
X74646000Y88838000I0J135000D01*
G01*
G37*
G36*
G01*
X75666000Y88838000D02*
X75666000Y89208000D01*
G75*
G02*
X75801000Y89343000I135000J0D01*
G01*
X76071000Y89343000D01*
G75*
G02*
X76206000Y89208000I0J-135000D01*
G01*
X76206000Y88838000D01*
G75*
G02*
X76071000Y88703000I-135000J0D01*
G01*
X75801000Y88703000D01*
G75*
G02*
X75666000Y88838000I0J135000D01*
G01*
G37*
G04 #@! TD*
G04 #@! TO.C,R7*
G36*
G01*
X137601000Y27198000D02*
X134751000Y27198000D01*
G75*
G02*
X134501000Y27448000I0J250000D01*
G01*
X134501000Y28173000D01*
G75*
G02*
X134751000Y28423000I250000J0D01*
G01*
X137601000Y28423000D01*
G75*
G02*
X137851000Y28173000I0J-250000D01*
G01*
X137851000Y27448000D01*
G75*
G02*
X137601000Y27198000I-250000J0D01*
G01*
G37*
G36*
G01*
X137601000Y33123000D02*
X134751000Y33123000D01*
G75*
G02*
X134501000Y33373000I0J250000D01*
G01*
X134501000Y34098000D01*
G75*
G02*
X134751000Y34348000I250000J0D01*
G01*
X137601000Y34348000D01*
G75*
G02*
X137851000Y34098000I0J-250000D01*
G01*
X137851000Y33373000D01*
G75*
G02*
X137601000Y33123000I-250000J0D01*
G01*
G37*
G04 #@! TD*
G04 #@! TO.C,RN5*
X117826000Y57523000D03*
X117826000Y56723000D03*
X117826000Y55923000D03*
X117826000Y55123000D03*
X119526000Y55123000D03*
X119526000Y55923000D03*
X119526000Y56723000D03*
X119526000Y57523000D03*
G04 #@! TD*
G04 #@! TO.C,R18*
G36*
G01*
X136646000Y44088000D02*
X136646000Y44458000D01*
G75*
G02*
X136781000Y44593000I135000J0D01*
G01*
X137051000Y44593000D01*
G75*
G02*
X137186000Y44458000I0J-135000D01*
G01*
X137186000Y44088000D01*
G75*
G02*
X137051000Y43953000I-135000J0D01*
G01*
X136781000Y43953000D01*
G75*
G02*
X136646000Y44088000I0J135000D01*
G01*
G37*
G36*
G01*
X137666000Y44088000D02*
X137666000Y44458000D01*
G75*
G02*
X137801000Y44593000I135000J0D01*
G01*
X138071000Y44593000D01*
G75*
G02*
X138206000Y44458000I0J-135000D01*
G01*
X138206000Y44088000D01*
G75*
G02*
X138071000Y43953000I-135000J0D01*
G01*
X137801000Y43953000D01*
G75*
G02*
X137666000Y44088000I0J135000D01*
G01*
G37*
G04 #@! TD*
G04 #@! TO.C,R5*
G36*
G01*
X84906000Y94588000D02*
X84906000Y94958000D01*
G75*
G02*
X85041000Y95093000I135000J0D01*
G01*
X85311000Y95093000D01*
G75*
G02*
X85446000Y94958000I0J-135000D01*
G01*
X85446000Y94588000D01*
G75*
G02*
X85311000Y94453000I-135000J0D01*
G01*
X85041000Y94453000D01*
G75*
G02*
X84906000Y94588000I0J135000D01*
G01*
G37*
G36*
G01*
X85926000Y94588000D02*
X85926000Y94958000D01*
G75*
G02*
X86061000Y95093000I135000J0D01*
G01*
X86331000Y95093000D01*
G75*
G02*
X86466000Y94958000I0J-135000D01*
G01*
X86466000Y94588000D01*
G75*
G02*
X86331000Y94453000I-135000J0D01*
G01*
X86061000Y94453000D01*
G75*
G02*
X85926000Y94588000I0J135000D01*
G01*
G37*
G04 #@! TD*
G04 #@! TO.C,R12*
G36*
G01*
X134751000Y84098000D02*
X137601000Y84098000D01*
G75*
G02*
X137851000Y83848000I0J-250000D01*
G01*
X137851000Y83123000D01*
G75*
G02*
X137601000Y82873000I-250000J0D01*
G01*
X134751000Y82873000D01*
G75*
G02*
X134501000Y83123000I0J250000D01*
G01*
X134501000Y83848000D01*
G75*
G02*
X134751000Y84098000I250000J0D01*
G01*
G37*
G36*
G01*
X134751000Y78173000D02*
X137601000Y78173000D01*
G75*
G02*
X137851000Y77923000I0J-250000D01*
G01*
X137851000Y77198000D01*
G75*
G02*
X137601000Y76948000I-250000J0D01*
G01*
X134751000Y76948000D01*
G75*
G02*
X134501000Y77198000I0J250000D01*
G01*
X134501000Y77923000D01*
G75*
G02*
X134751000Y78173000I250000J0D01*
G01*
G37*
G04 #@! TD*
G04 #@! TO.C,RN6*
X118076000Y65123000D03*
X118076000Y64323000D03*
X118076000Y63523000D03*
X118076000Y62723000D03*
X119776000Y62723000D03*
X119776000Y63523000D03*
X119776000Y64323000D03*
X119776000Y65123000D03*
G04 #@! TD*
G04 #@! TO.C,D3*
G36*
G01*
X78201000Y67266750D02*
X78201000Y67779250D01*
G75*
G02*
X78419750Y67998000I218750J0D01*
G01*
X78857250Y67998000D01*
G75*
G02*
X79076000Y67779250I0J-218750D01*
G01*
X79076000Y67266750D01*
G75*
G02*
X78857250Y67048000I-218750J0D01*
G01*
X78419750Y67048000D01*
G75*
G02*
X78201000Y67266750I0J218750D01*
G01*
G37*
G36*
G01*
X79776000Y67266750D02*
X79776000Y67779250D01*
G75*
G02*
X79994750Y67998000I218750J0D01*
G01*
X80432250Y67998000D01*
G75*
G02*
X80651000Y67779250I0J-218750D01*
G01*
X80651000Y67266750D01*
G75*
G02*
X80432250Y67048000I-218750J0D01*
G01*
X79994750Y67048000D01*
G75*
G02*
X79776000Y67266750I0J218750D01*
G01*
G37*
G04 #@! TD*
G04 #@! TO.C,C8*
G36*
G01*
X28676000Y48548000D02*
X28176000Y48548000D01*
G75*
G02*
X27951000Y48773000I0J225000D01*
G01*
X27951000Y49223000D01*
G75*
G02*
X28176000Y49448000I225000J0D01*
G01*
X28676000Y49448000D01*
G75*
G02*
X28901000Y49223000I0J-225000D01*
G01*
X28901000Y48773000D01*
G75*
G02*
X28676000Y48548000I-225000J0D01*
G01*
G37*
G36*
G01*
X28676000Y50098000D02*
X28176000Y50098000D01*
G75*
G02*
X27951000Y50323000I0J225000D01*
G01*
X27951000Y50773000D01*
G75*
G02*
X28176000Y50998000I225000J0D01*
G01*
X28676000Y50998000D01*
G75*
G02*
X28901000Y50773000I0J-225000D01*
G01*
X28901000Y50323000D01*
G75*
G02*
X28676000Y50098000I-225000J0D01*
G01*
G37*
G04 #@! TD*
G04 #@! TO.C,D18*
G36*
G01*
X121988500Y61016750D02*
X121988500Y61529250D01*
G75*
G02*
X122207250Y61748000I218750J0D01*
G01*
X122644750Y61748000D01*
G75*
G02*
X122863500Y61529250I0J-218750D01*
G01*
X122863500Y61016750D01*
G75*
G02*
X122644750Y60798000I-218750J0D01*
G01*
X122207250Y60798000D01*
G75*
G02*
X121988500Y61016750I0J218750D01*
G01*
G37*
G36*
G01*
X123563500Y61016750D02*
X123563500Y61529250D01*
G75*
G02*
X123782250Y61748000I218750J0D01*
G01*
X124219750Y61748000D01*
G75*
G02*
X124438500Y61529250I0J-218750D01*
G01*
X124438500Y61016750D01*
G75*
G02*
X124219750Y60798000I-218750J0D01*
G01*
X123782250Y60798000D01*
G75*
G02*
X123563500Y61016750I0J218750D01*
G01*
G37*
G04 #@! TD*
G04 #@! TO.C,R2*
G36*
G01*
X89358500Y8288000D02*
X89358500Y8658000D01*
G75*
G02*
X89493500Y8793000I135000J0D01*
G01*
X89763500Y8793000D01*
G75*
G02*
X89898500Y8658000I0J-135000D01*
G01*
X89898500Y8288000D01*
G75*
G02*
X89763500Y8153000I-135000J0D01*
G01*
X89493500Y8153000D01*
G75*
G02*
X89358500Y8288000I0J135000D01*
G01*
G37*
G36*
G01*
X90378500Y8288000D02*
X90378500Y8658000D01*
G75*
G02*
X90513500Y8793000I135000J0D01*
G01*
X90783500Y8793000D01*
G75*
G02*
X90918500Y8658000I0J-135000D01*
G01*
X90918500Y8288000D01*
G75*
G02*
X90783500Y8153000I-135000J0D01*
G01*
X90513500Y8153000D01*
G75*
G02*
X90378500Y8288000I0J135000D01*
G01*
G37*
G04 #@! TD*
D12*
G04 #@! TO.C,Q8*
X144351000Y8998000D03*
X144351000Y12048000D03*
X147701000Y8998000D03*
X147701000Y12048000D03*
D13*
X139726000Y12803000D03*
X139726000Y8243000D03*
G04 #@! TD*
G04 #@! TO.C,D15*
G36*
G01*
X68151000Y74279250D02*
X68151000Y73766750D01*
G75*
G02*
X67932250Y73548000I-218750J0D01*
G01*
X67494750Y73548000D01*
G75*
G02*
X67276000Y73766750I0J218750D01*
G01*
X67276000Y74279250D01*
G75*
G02*
X67494750Y74498000I218750J0D01*
G01*
X67932250Y74498000D01*
G75*
G02*
X68151000Y74279250I0J-218750D01*
G01*
G37*
G36*
G01*
X66576000Y74279250D02*
X66576000Y73766750D01*
G75*
G02*
X66357250Y73548000I-218750J0D01*
G01*
X65919750Y73548000D01*
G75*
G02*
X65701000Y73766750I0J218750D01*
G01*
X65701000Y74279250D01*
G75*
G02*
X65919750Y74498000I218750J0D01*
G01*
X66357250Y74498000D01*
G75*
G02*
X66576000Y74279250I0J-218750D01*
G01*
G37*
G04 #@! TD*
G04 #@! TO.C,D20*
G36*
G01*
X121913500Y55666750D02*
X121913500Y56179250D01*
G75*
G02*
X122132250Y56398000I218750J0D01*
G01*
X122569750Y56398000D01*
G75*
G02*
X122788500Y56179250I0J-218750D01*
G01*
X122788500Y55666750D01*
G75*
G02*
X122569750Y55448000I-218750J0D01*
G01*
X122132250Y55448000D01*
G75*
G02*
X121913500Y55666750I0J218750D01*
G01*
G37*
G36*
G01*
X123488500Y55666750D02*
X123488500Y56179250D01*
G75*
G02*
X123707250Y56398000I218750J0D01*
G01*
X124144750Y56398000D01*
G75*
G02*
X124363500Y56179250I0J-218750D01*
G01*
X124363500Y55666750D01*
G75*
G02*
X124144750Y55448000I-218750J0D01*
G01*
X123707250Y55448000D01*
G75*
G02*
X123488500Y55666750I0J218750D01*
G01*
G37*
G04 #@! TD*
D18*
G04 #@! TO.C,RN8*
X72526000Y58823000D03*
X72526000Y59623000D03*
X72526000Y60423000D03*
X72526000Y61223000D03*
X70826000Y61223000D03*
X70826000Y60423000D03*
X70826000Y59623000D03*
X70826000Y58823000D03*
G04 #@! TD*
G04 #@! TO.C,R24*
G36*
G01*
X138956000Y15958000D02*
X138956000Y15588000D01*
G75*
G02*
X138821000Y15453000I-135000J0D01*
G01*
X138551000Y15453000D01*
G75*
G02*
X138416000Y15588000I0J135000D01*
G01*
X138416000Y15958000D01*
G75*
G02*
X138551000Y16093000I135000J0D01*
G01*
X138821000Y16093000D01*
G75*
G02*
X138956000Y15958000I0J-135000D01*
G01*
G37*
G36*
G01*
X137936000Y15958000D02*
X137936000Y15588000D01*
G75*
G02*
X137801000Y15453000I-135000J0D01*
G01*
X137531000Y15453000D01*
G75*
G02*
X137396000Y15588000I0J135000D01*
G01*
X137396000Y15958000D01*
G75*
G02*
X137531000Y16093000I135000J0D01*
G01*
X137801000Y16093000D01*
G75*
G02*
X137936000Y15958000I0J-135000D01*
G01*
G37*
G04 #@! TD*
G04 #@! TO.C,R23*
G36*
G01*
X138966000Y75458000D02*
X138966000Y75088000D01*
G75*
G02*
X138831000Y74953000I-135000J0D01*
G01*
X138561000Y74953000D01*
G75*
G02*
X138426000Y75088000I0J135000D01*
G01*
X138426000Y75458000D01*
G75*
G02*
X138561000Y75593000I135000J0D01*
G01*
X138831000Y75593000D01*
G75*
G02*
X138966000Y75458000I0J-135000D01*
G01*
G37*
G36*
G01*
X137946000Y75458000D02*
X137946000Y75088000D01*
G75*
G02*
X137811000Y74953000I-135000J0D01*
G01*
X137541000Y74953000D01*
G75*
G02*
X137406000Y75088000I0J135000D01*
G01*
X137406000Y75458000D01*
G75*
G02*
X137541000Y75593000I135000J0D01*
G01*
X137811000Y75593000D01*
G75*
G02*
X137946000Y75458000I0J-135000D01*
G01*
G37*
G04 #@! TD*
G04 #@! TO.C,U5*
G36*
G01*
X20726000Y48278000D02*
X20726000Y48578000D01*
G75*
G02*
X20876000Y48728000I150000J0D01*
G01*
X22526000Y48728000D01*
G75*
G02*
X22676000Y48578000I0J-150000D01*
G01*
X22676000Y48278000D01*
G75*
G02*
X22526000Y48128000I-150000J0D01*
G01*
X20876000Y48128000D01*
G75*
G02*
X20726000Y48278000I0J150000D01*
G01*
G37*
G36*
G01*
X20726000Y47008000D02*
X20726000Y47308000D01*
G75*
G02*
X20876000Y47458000I150000J0D01*
G01*
X22526000Y47458000D01*
G75*
G02*
X22676000Y47308000I0J-150000D01*
G01*
X22676000Y47008000D01*
G75*
G02*
X22526000Y46858000I-150000J0D01*
G01*
X20876000Y46858000D01*
G75*
G02*
X20726000Y47008000I0J150000D01*
G01*
G37*
G36*
G01*
X20726000Y45738000D02*
X20726000Y46038000D01*
G75*
G02*
X20876000Y46188000I150000J0D01*
G01*
X22526000Y46188000D01*
G75*
G02*
X22676000Y46038000I0J-150000D01*
G01*
X22676000Y45738000D01*
G75*
G02*
X22526000Y45588000I-150000J0D01*
G01*
X20876000Y45588000D01*
G75*
G02*
X20726000Y45738000I0J150000D01*
G01*
G37*
G36*
G01*
X20726000Y44468000D02*
X20726000Y44768000D01*
G75*
G02*
X20876000Y44918000I150000J0D01*
G01*
X22526000Y44918000D01*
G75*
G02*
X22676000Y44768000I0J-150000D01*
G01*
X22676000Y44468000D01*
G75*
G02*
X22526000Y44318000I-150000J0D01*
G01*
X20876000Y44318000D01*
G75*
G02*
X20726000Y44468000I0J150000D01*
G01*
G37*
G36*
G01*
X25676000Y44468000D02*
X25676000Y44768000D01*
G75*
G02*
X25826000Y44918000I150000J0D01*
G01*
X27476000Y44918000D01*
G75*
G02*
X27626000Y44768000I0J-150000D01*
G01*
X27626000Y44468000D01*
G75*
G02*
X27476000Y44318000I-150000J0D01*
G01*
X25826000Y44318000D01*
G75*
G02*
X25676000Y44468000I0J150000D01*
G01*
G37*
G36*
G01*
X25676000Y45738000D02*
X25676000Y46038000D01*
G75*
G02*
X25826000Y46188000I150000J0D01*
G01*
X27476000Y46188000D01*
G75*
G02*
X27626000Y46038000I0J-150000D01*
G01*
X27626000Y45738000D01*
G75*
G02*
X27476000Y45588000I-150000J0D01*
G01*
X25826000Y45588000D01*
G75*
G02*
X25676000Y45738000I0J150000D01*
G01*
G37*
G36*
G01*
X25676000Y47008000D02*
X25676000Y47308000D01*
G75*
G02*
X25826000Y47458000I150000J0D01*
G01*
X27476000Y47458000D01*
G75*
G02*
X27626000Y47308000I0J-150000D01*
G01*
X27626000Y47008000D01*
G75*
G02*
X27476000Y46858000I-150000J0D01*
G01*
X25826000Y46858000D01*
G75*
G02*
X25676000Y47008000I0J150000D01*
G01*
G37*
G36*
G01*
X25676000Y48278000D02*
X25676000Y48578000D01*
G75*
G02*
X25826000Y48728000I150000J0D01*
G01*
X27476000Y48728000D01*
G75*
G02*
X27626000Y48578000I0J-150000D01*
G01*
X27626000Y48278000D01*
G75*
G02*
X27476000Y48128000I-150000J0D01*
G01*
X25826000Y48128000D01*
G75*
G02*
X25676000Y48278000I0J150000D01*
G01*
G37*
G04 #@! TD*
G04 #@! TO.C,R25*
G36*
G01*
X104706000Y96708000D02*
X104706000Y96338000D01*
G75*
G02*
X104571000Y96203000I-135000J0D01*
G01*
X104301000Y96203000D01*
G75*
G02*
X104166000Y96338000I0J135000D01*
G01*
X104166000Y96708000D01*
G75*
G02*
X104301000Y96843000I135000J0D01*
G01*
X104571000Y96843000D01*
G75*
G02*
X104706000Y96708000I0J-135000D01*
G01*
G37*
G36*
G01*
X103686000Y96708000D02*
X103686000Y96338000D01*
G75*
G02*
X103551000Y96203000I-135000J0D01*
G01*
X103281000Y96203000D01*
G75*
G02*
X103146000Y96338000I0J135000D01*
G01*
X103146000Y96708000D01*
G75*
G02*
X103281000Y96843000I135000J0D01*
G01*
X103551000Y96843000D01*
G75*
G02*
X103686000Y96708000I0J-135000D01*
G01*
G37*
G04 #@! TD*
D19*
G04 #@! TO.C,M4*
X121701003Y13648001D03*
G04 #@! TD*
G04 #@! TO.C,R8*
G36*
G01*
X137601000Y36198000D02*
X134751000Y36198000D01*
G75*
G02*
X134501000Y36448000I0J250000D01*
G01*
X134501000Y37173000D01*
G75*
G02*
X134751000Y37423000I250000J0D01*
G01*
X137601000Y37423000D01*
G75*
G02*
X137851000Y37173000I0J-250000D01*
G01*
X137851000Y36448000D01*
G75*
G02*
X137601000Y36198000I-250000J0D01*
G01*
G37*
G36*
G01*
X137601000Y42123000D02*
X134751000Y42123000D01*
G75*
G02*
X134501000Y42373000I0J250000D01*
G01*
X134501000Y43098000D01*
G75*
G02*
X134751000Y43348000I250000J0D01*
G01*
X137601000Y43348000D01*
G75*
G02*
X137851000Y43098000I0J-250000D01*
G01*
X137851000Y42373000D01*
G75*
G02*
X137601000Y42123000I-250000J0D01*
G01*
G37*
G04 #@! TD*
G04 #@! TO.C,D21*
G36*
G01*
X121951000Y59166750D02*
X121951000Y59679250D01*
G75*
G02*
X122169750Y59898000I218750J0D01*
G01*
X122607250Y59898000D01*
G75*
G02*
X122826000Y59679250I0J-218750D01*
G01*
X122826000Y59166750D01*
G75*
G02*
X122607250Y58948000I-218750J0D01*
G01*
X122169750Y58948000D01*
G75*
G02*
X121951000Y59166750I0J218750D01*
G01*
G37*
G36*
G01*
X123526000Y59166750D02*
X123526000Y59679250D01*
G75*
G02*
X123744750Y59898000I218750J0D01*
G01*
X124182250Y59898000D01*
G75*
G02*
X124401000Y59679250I0J-218750D01*
G01*
X124401000Y59166750D01*
G75*
G02*
X124182250Y58948000I-218750J0D01*
G01*
X123744750Y58948000D01*
G75*
G02*
X123526000Y59166750I0J218750D01*
G01*
G37*
G04 #@! TD*
G04 #@! TO.C,R13*
G36*
G01*
X134751000Y74598000D02*
X137601000Y74598000D01*
G75*
G02*
X137851000Y74348000I0J-250000D01*
G01*
X137851000Y73623000D01*
G75*
G02*
X137601000Y73373000I-250000J0D01*
G01*
X134751000Y73373000D01*
G75*
G02*
X134501000Y73623000I0J250000D01*
G01*
X134501000Y74348000D01*
G75*
G02*
X134751000Y74598000I250000J0D01*
G01*
G37*
G36*
G01*
X134751000Y68673000D02*
X137601000Y68673000D01*
G75*
G02*
X137851000Y68423000I0J-250000D01*
G01*
X137851000Y67698000D01*
G75*
G02*
X137601000Y67448000I-250000J0D01*
G01*
X134751000Y67448000D01*
G75*
G02*
X134501000Y67698000I0J250000D01*
G01*
X134501000Y68423000D01*
G75*
G02*
X134751000Y68673000I250000J0D01*
G01*
G37*
G04 #@! TD*
G04 #@! TO.C,R3*
G36*
G01*
X36433500Y27838000D02*
X36433500Y28208000D01*
G75*
G02*
X36568500Y28343000I135000J0D01*
G01*
X36838500Y28343000D01*
G75*
G02*
X36973500Y28208000I0J-135000D01*
G01*
X36973500Y27838000D01*
G75*
G02*
X36838500Y27703000I-135000J0D01*
G01*
X36568500Y27703000D01*
G75*
G02*
X36433500Y27838000I0J135000D01*
G01*
G37*
G36*
G01*
X37453500Y27838000D02*
X37453500Y28208000D01*
G75*
G02*
X37588500Y28343000I135000J0D01*
G01*
X37858500Y28343000D01*
G75*
G02*
X37993500Y28208000I0J-135000D01*
G01*
X37993500Y27838000D01*
G75*
G02*
X37858500Y27703000I-135000J0D01*
G01*
X37588500Y27703000D01*
G75*
G02*
X37453500Y27838000I0J135000D01*
G01*
G37*
G04 #@! TD*
G04 #@! TO.C,R21*
G36*
G01*
X138956000Y94958000D02*
X138956000Y94588000D01*
G75*
G02*
X138821000Y94453000I-135000J0D01*
G01*
X138551000Y94453000D01*
G75*
G02*
X138416000Y94588000I0J135000D01*
G01*
X138416000Y94958000D01*
G75*
G02*
X138551000Y95093000I135000J0D01*
G01*
X138821000Y95093000D01*
G75*
G02*
X138956000Y94958000I0J-135000D01*
G01*
G37*
G36*
G01*
X137936000Y94958000D02*
X137936000Y94588000D01*
G75*
G02*
X137801000Y94453000I-135000J0D01*
G01*
X137531000Y94453000D01*
G75*
G02*
X137396000Y94588000I0J135000D01*
G01*
X137396000Y94958000D01*
G75*
G02*
X137531000Y95093000I135000J0D01*
G01*
X137801000Y95093000D01*
G75*
G02*
X137936000Y94958000I0J-135000D01*
G01*
G37*
G04 #@! TD*
G04 #@! TO.C,C6*
G36*
G01*
X26686000Y50193000D02*
X26686000Y49853000D01*
G75*
G02*
X26546000Y49713000I-140000J0D01*
G01*
X26266000Y49713000D01*
G75*
G02*
X26126000Y49853000I0J140000D01*
G01*
X26126000Y50193000D01*
G75*
G02*
X26266000Y50333000I140000J0D01*
G01*
X26546000Y50333000D01*
G75*
G02*
X26686000Y50193000I0J-140000D01*
G01*
G37*
G36*
G01*
X25726000Y50193000D02*
X25726000Y49853000D01*
G75*
G02*
X25586000Y49713000I-140000J0D01*
G01*
X25306000Y49713000D01*
G75*
G02*
X25166000Y49853000I0J140000D01*
G01*
X25166000Y50193000D01*
G75*
G02*
X25306000Y50333000I140000J0D01*
G01*
X25586000Y50333000D01*
G75*
G02*
X25726000Y50193000I0J-140000D01*
G01*
G37*
G04 #@! TD*
G04 #@! TO.C,D24*
G36*
G01*
X68151000Y70279250D02*
X68151000Y69766750D01*
G75*
G02*
X67932250Y69548000I-218750J0D01*
G01*
X67494750Y69548000D01*
G75*
G02*
X67276000Y69766750I0J218750D01*
G01*
X67276000Y70279250D01*
G75*
G02*
X67494750Y70498000I218750J0D01*
G01*
X67932250Y70498000D01*
G75*
G02*
X68151000Y70279250I0J-218750D01*
G01*
G37*
G36*
G01*
X66576000Y70279250D02*
X66576000Y69766750D01*
G75*
G02*
X66357250Y69548000I-218750J0D01*
G01*
X65919750Y69548000D01*
G75*
G02*
X65701000Y69766750I0J218750D01*
G01*
X65701000Y70279250D01*
G75*
G02*
X65919750Y70498000I218750J0D01*
G01*
X66357250Y70498000D01*
G75*
G02*
X66576000Y70279250I0J-218750D01*
G01*
G37*
G04 #@! TD*
D20*
G04 #@! TO.C,M6*
X65051002Y81151414D03*
X65051002Y82876416D03*
X65051002Y84601416D03*
X65051002Y86301414D03*
D21*
X78251001Y79676414D03*
D20*
X84006875Y85697812D03*
X84001003Y82076414D03*
G04 #@! TD*
G04 #@! TO.C,C7*
G36*
G01*
X21926000Y48798000D02*
X21426000Y48798000D01*
G75*
G02*
X21201000Y49023000I0J225000D01*
G01*
X21201000Y49473000D01*
G75*
G02*
X21426000Y49698000I225000J0D01*
G01*
X21926000Y49698000D01*
G75*
G02*
X22151000Y49473000I0J-225000D01*
G01*
X22151000Y49023000D01*
G75*
G02*
X21926000Y48798000I-225000J0D01*
G01*
G37*
G36*
G01*
X21926000Y50348000D02*
X21426000Y50348000D01*
G75*
G02*
X21201000Y50573000I0J225000D01*
G01*
X21201000Y51023000D01*
G75*
G02*
X21426000Y51248000I225000J0D01*
G01*
X21926000Y51248000D01*
G75*
G02*
X22151000Y51023000I0J-225000D01*
G01*
X22151000Y50573000D01*
G75*
G02*
X21926000Y50348000I-225000J0D01*
G01*
G37*
G04 #@! TD*
G04 #@! TO.C,D2*
G36*
G01*
X102688500Y8729250D02*
X102688500Y8216750D01*
G75*
G02*
X102469750Y7998000I-218750J0D01*
G01*
X102032250Y7998000D01*
G75*
G02*
X101813500Y8216750I0J218750D01*
G01*
X101813500Y8729250D01*
G75*
G02*
X102032250Y8948000I218750J0D01*
G01*
X102469750Y8948000D01*
G75*
G02*
X102688500Y8729250I0J-218750D01*
G01*
G37*
G36*
G01*
X101113500Y8729250D02*
X101113500Y8216750D01*
G75*
G02*
X100894750Y7998000I-218750J0D01*
G01*
X100457250Y7998000D01*
G75*
G02*
X100238500Y8216750I0J218750D01*
G01*
X100238500Y8729250D01*
G75*
G02*
X100457250Y8948000I218750J0D01*
G01*
X100894750Y8948000D01*
G75*
G02*
X101113500Y8729250I0J-218750D01*
G01*
G37*
G04 #@! TD*
G04 #@! TO.C,C3*
G36*
G01*
X103186000Y8303000D02*
X103186000Y8643000D01*
G75*
G02*
X103326000Y8783000I140000J0D01*
G01*
X103606000Y8783000D01*
G75*
G02*
X103746000Y8643000I0J-140000D01*
G01*
X103746000Y8303000D01*
G75*
G02*
X103606000Y8163000I-140000J0D01*
G01*
X103326000Y8163000D01*
G75*
G02*
X103186000Y8303000I0J140000D01*
G01*
G37*
G36*
G01*
X104146000Y8303000D02*
X104146000Y8643000D01*
G75*
G02*
X104286000Y8783000I140000J0D01*
G01*
X104566000Y8783000D01*
G75*
G02*
X104706000Y8643000I0J-140000D01*
G01*
X104706000Y8303000D01*
G75*
G02*
X104566000Y8163000I-140000J0D01*
G01*
X104286000Y8163000D01*
G75*
G02*
X104146000Y8303000I0J140000D01*
G01*
G37*
G04 #@! TD*
G04 #@! TO.C,D9*
G36*
G01*
X26901000Y21779250D02*
X26901000Y21266750D01*
G75*
G02*
X26682250Y21048000I-218750J0D01*
G01*
X26244750Y21048000D01*
G75*
G02*
X26026000Y21266750I0J218750D01*
G01*
X26026000Y21779250D01*
G75*
G02*
X26244750Y21998000I218750J0D01*
G01*
X26682250Y21998000D01*
G75*
G02*
X26901000Y21779250I0J-218750D01*
G01*
G37*
G36*
G01*
X25326000Y21779250D02*
X25326000Y21266750D01*
G75*
G02*
X25107250Y21048000I-218750J0D01*
G01*
X24669750Y21048000D01*
G75*
G02*
X24451000Y21266750I0J218750D01*
G01*
X24451000Y21779250D01*
G75*
G02*
X24669750Y21998000I218750J0D01*
G01*
X25107250Y21998000D01*
G75*
G02*
X25326000Y21779250I0J-218750D01*
G01*
G37*
G04 #@! TD*
G04 #@! TO.C,D10*
G36*
G01*
X26901000Y18279250D02*
X26901000Y17766750D01*
G75*
G02*
X26682250Y17548000I-218750J0D01*
G01*
X26244750Y17548000D01*
G75*
G02*
X26026000Y17766750I0J218750D01*
G01*
X26026000Y18279250D01*
G75*
G02*
X26244750Y18498000I218750J0D01*
G01*
X26682250Y18498000D01*
G75*
G02*
X26901000Y18279250I0J-218750D01*
G01*
G37*
G36*
G01*
X25326000Y18279250D02*
X25326000Y17766750D01*
G75*
G02*
X25107250Y17548000I-218750J0D01*
G01*
X24669750Y17548000D01*
G75*
G02*
X24451000Y17766750I0J218750D01*
G01*
X24451000Y18279250D01*
G75*
G02*
X24669750Y18498000I218750J0D01*
G01*
X25107250Y18498000D01*
G75*
G02*
X25326000Y18279250I0J-218750D01*
G01*
G37*
G04 #@! TD*
G04 #@! TO.C,D19*
G36*
G01*
X121988500Y64516750D02*
X121988500Y65029250D01*
G75*
G02*
X122207250Y65248000I218750J0D01*
G01*
X122644750Y65248000D01*
G75*
G02*
X122863500Y65029250I0J-218750D01*
G01*
X122863500Y64516750D01*
G75*
G02*
X122644750Y64298000I-218750J0D01*
G01*
X122207250Y64298000D01*
G75*
G02*
X121988500Y64516750I0J218750D01*
G01*
G37*
G36*
G01*
X123563500Y64516750D02*
X123563500Y65029250D01*
G75*
G02*
X123782250Y65248000I218750J0D01*
G01*
X124219750Y65248000D01*
G75*
G02*
X124438500Y65029250I0J-218750D01*
G01*
X124438500Y64516750D01*
G75*
G02*
X124219750Y64298000I-218750J0D01*
G01*
X123782250Y64298000D01*
G75*
G02*
X123563500Y64516750I0J218750D01*
G01*
G37*
G04 #@! TD*
D18*
G04 #@! TO.C,RN2*
X37776000Y29323000D03*
X37776000Y30123000D03*
X37776000Y30923000D03*
X37776000Y31723000D03*
X36076000Y31723000D03*
X36076000Y30923000D03*
X36076000Y30123000D03*
X36076000Y29323000D03*
G04 #@! TD*
G04 #@! TO.C,D31*
G36*
G01*
X68151000Y57529250D02*
X68151000Y57016750D01*
G75*
G02*
X67932250Y56798000I-218750J0D01*
G01*
X67494750Y56798000D01*
G75*
G02*
X67276000Y57016750I0J218750D01*
G01*
X67276000Y57529250D01*
G75*
G02*
X67494750Y57748000I218750J0D01*
G01*
X67932250Y57748000D01*
G75*
G02*
X68151000Y57529250I0J-218750D01*
G01*
G37*
G36*
G01*
X66576000Y57529250D02*
X66576000Y57016750D01*
G75*
G02*
X66357250Y56798000I-218750J0D01*
G01*
X65919750Y56798000D01*
G75*
G02*
X65701000Y57016750I0J218750D01*
G01*
X65701000Y57529250D01*
G75*
G02*
X65919750Y57748000I218750J0D01*
G01*
X66357250Y57748000D01*
G75*
G02*
X66576000Y57529250I0J-218750D01*
G01*
G37*
G04 #@! TD*
G04 #@! TO.C,R20*
G36*
G01*
X137396000Y25088000D02*
X137396000Y25458000D01*
G75*
G02*
X137531000Y25593000I135000J0D01*
G01*
X137801000Y25593000D01*
G75*
G02*
X137936000Y25458000I0J-135000D01*
G01*
X137936000Y25088000D01*
G75*
G02*
X137801000Y24953000I-135000J0D01*
G01*
X137531000Y24953000D01*
G75*
G02*
X137396000Y25088000I0J135000D01*
G01*
G37*
G36*
G01*
X138416000Y25088000D02*
X138416000Y25458000D01*
G75*
G02*
X138551000Y25593000I135000J0D01*
G01*
X138821000Y25593000D01*
G75*
G02*
X138956000Y25458000I0J-135000D01*
G01*
X138956000Y25088000D01*
G75*
G02*
X138821000Y24953000I-135000J0D01*
G01*
X138551000Y24953000D01*
G75*
G02*
X138416000Y25088000I0J135000D01*
G01*
G37*
G04 #@! TD*
G04 #@! TO.C,RN3*
X31276000Y17573000D03*
X31276000Y18373000D03*
X31276000Y19173000D03*
X31276000Y19973000D03*
X29576000Y19973000D03*
X29576000Y19173000D03*
X29576000Y18373000D03*
X29576000Y17573000D03*
G04 #@! TD*
G04 #@! TO.C,D12*
G36*
G01*
X68151000Y72529250D02*
X68151000Y72016750D01*
G75*
G02*
X67932250Y71798000I-218750J0D01*
G01*
X67494750Y71798000D01*
G75*
G02*
X67276000Y72016750I0J218750D01*
G01*
X67276000Y72529250D01*
G75*
G02*
X67494750Y72748000I218750J0D01*
G01*
X67932250Y72748000D01*
G75*
G02*
X68151000Y72529250I0J-218750D01*
G01*
G37*
G36*
G01*
X66576000Y72529250D02*
X66576000Y72016750D01*
G75*
G02*
X66357250Y71798000I-218750J0D01*
G01*
X65919750Y71798000D01*
G75*
G02*
X65701000Y72016750I0J218750D01*
G01*
X65701000Y72529250D01*
G75*
G02*
X65919750Y72748000I218750J0D01*
G01*
X66357250Y72748000D01*
G75*
G02*
X66576000Y72529250I0J-218750D01*
G01*
G37*
G04 #@! TD*
G04 #@! TO.C,D13*
G36*
G01*
X26901000Y20029250D02*
X26901000Y19516750D01*
G75*
G02*
X26682250Y19298000I-218750J0D01*
G01*
X26244750Y19298000D01*
G75*
G02*
X26026000Y19516750I0J218750D01*
G01*
X26026000Y20029250D01*
G75*
G02*
X26244750Y20248000I218750J0D01*
G01*
X26682250Y20248000D01*
G75*
G02*
X26901000Y20029250I0J-218750D01*
G01*
G37*
G36*
G01*
X25326000Y20029250D02*
X25326000Y19516750D01*
G75*
G02*
X25107250Y19298000I-218750J0D01*
G01*
X24669750Y19298000D01*
G75*
G02*
X24451000Y19516750I0J218750D01*
G01*
X24451000Y20029250D01*
G75*
G02*
X24669750Y20248000I218750J0D01*
G01*
X25107250Y20248000D01*
G75*
G02*
X25326000Y20029250I0J-218750D01*
G01*
G37*
G04 #@! TD*
G04 #@! TO.C,R22*
G36*
G01*
X138956000Y84958000D02*
X138956000Y84588000D01*
G75*
G02*
X138821000Y84453000I-135000J0D01*
G01*
X138551000Y84453000D01*
G75*
G02*
X138416000Y84588000I0J135000D01*
G01*
X138416000Y84958000D01*
G75*
G02*
X138551000Y85093000I135000J0D01*
G01*
X138821000Y85093000D01*
G75*
G02*
X138956000Y84958000I0J-135000D01*
G01*
G37*
G36*
G01*
X137936000Y84958000D02*
X137936000Y84588000D01*
G75*
G02*
X137801000Y84453000I-135000J0D01*
G01*
X137531000Y84453000D01*
G75*
G02*
X137396000Y84588000I0J135000D01*
G01*
X137396000Y84958000D01*
G75*
G02*
X137531000Y85093000I135000J0D01*
G01*
X137801000Y85093000D01*
G75*
G02*
X137936000Y84958000I0J-135000D01*
G01*
G37*
G04 #@! TD*
G04 #@! TO.C,D5*
G36*
G01*
X33938500Y32029250D02*
X33938500Y31516750D01*
G75*
G02*
X33719750Y31298000I-218750J0D01*
G01*
X33282250Y31298000D01*
G75*
G02*
X33063500Y31516750I0J218750D01*
G01*
X33063500Y32029250D01*
G75*
G02*
X33282250Y32248000I218750J0D01*
G01*
X33719750Y32248000D01*
G75*
G02*
X33938500Y32029250I0J-218750D01*
G01*
G37*
G36*
G01*
X32363500Y32029250D02*
X32363500Y31516750D01*
G75*
G02*
X32144750Y31298000I-218750J0D01*
G01*
X31707250Y31298000D01*
G75*
G02*
X31488500Y31516750I0J218750D01*
G01*
X31488500Y32029250D01*
G75*
G02*
X31707250Y32248000I218750J0D01*
G01*
X32144750Y32248000D01*
G75*
G02*
X32363500Y32029250I0J-218750D01*
G01*
G37*
G04 #@! TD*
D17*
G04 #@! TO.C,SW1*
X89226000Y10973000D03*
X92626000Y10973000D03*
G04 #@! TD*
G04 #@! TO.C,D6*
G36*
G01*
X33938500Y30279250D02*
X33938500Y29766750D01*
G75*
G02*
X33719750Y29548000I-218750J0D01*
G01*
X33282250Y29548000D01*
G75*
G02*
X33063500Y29766750I0J218750D01*
G01*
X33063500Y30279250D01*
G75*
G02*
X33282250Y30498000I218750J0D01*
G01*
X33719750Y30498000D01*
G75*
G02*
X33938500Y30279250I0J-218750D01*
G01*
G37*
G36*
G01*
X32363500Y30279250D02*
X32363500Y29766750D01*
G75*
G02*
X32144750Y29548000I-218750J0D01*
G01*
X31707250Y29548000D01*
G75*
G02*
X31488500Y29766750I0J218750D01*
G01*
X31488500Y30279250D01*
G75*
G02*
X31707250Y30498000I218750J0D01*
G01*
X32144750Y30498000D01*
G75*
G02*
X32363500Y30279250I0J-218750D01*
G01*
G37*
G04 #@! TD*
G04 #@! TO.C,D26*
G36*
G01*
X68151000Y62779250D02*
X68151000Y62266750D01*
G75*
G02*
X67932250Y62048000I-218750J0D01*
G01*
X67494750Y62048000D01*
G75*
G02*
X67276000Y62266750I0J218750D01*
G01*
X67276000Y62779250D01*
G75*
G02*
X67494750Y62998000I218750J0D01*
G01*
X67932250Y62998000D01*
G75*
G02*
X68151000Y62779250I0J-218750D01*
G01*
G37*
G36*
G01*
X66576000Y62779250D02*
X66576000Y62266750D01*
G75*
G02*
X66357250Y62048000I-218750J0D01*
G01*
X65919750Y62048000D01*
G75*
G02*
X65701000Y62266750I0J218750D01*
G01*
X65701000Y62779250D01*
G75*
G02*
X65919750Y62998000I218750J0D01*
G01*
X66357250Y62998000D01*
G75*
G02*
X66576000Y62779250I0J-218750D01*
G01*
G37*
G04 #@! TD*
D18*
G04 #@! TO.C,RN1*
X75776000Y66323000D03*
X75776000Y67123000D03*
X75776000Y67923000D03*
X75776000Y68723000D03*
X74076000Y68723000D03*
X74076000Y67923000D03*
X74076000Y67123000D03*
X74076000Y66323000D03*
G04 #@! TD*
G04 #@! TO.C,R11*
G36*
G01*
X134751000Y94098000D02*
X137601000Y94098000D01*
G75*
G02*
X137851000Y93848000I0J-250000D01*
G01*
X137851000Y93123000D01*
G75*
G02*
X137601000Y92873000I-250000J0D01*
G01*
X134751000Y92873000D01*
G75*
G02*
X134501000Y93123000I0J250000D01*
G01*
X134501000Y93848000D01*
G75*
G02*
X134751000Y94098000I250000J0D01*
G01*
G37*
G36*
G01*
X134751000Y88173000D02*
X137601000Y88173000D01*
G75*
G02*
X137851000Y87923000I0J-250000D01*
G01*
X137851000Y87198000D01*
G75*
G02*
X137601000Y86948000I-250000J0D01*
G01*
X134751000Y86948000D01*
G75*
G02*
X134501000Y87198000I0J250000D01*
G01*
X134501000Y87923000D01*
G75*
G02*
X134751000Y88173000I250000J0D01*
G01*
G37*
G04 #@! TD*
G04 #@! TO.C,D17*
G36*
G01*
X121951000Y57416750D02*
X121951000Y57929250D01*
G75*
G02*
X122169750Y58148000I218750J0D01*
G01*
X122607250Y58148000D01*
G75*
G02*
X122826000Y57929250I0J-218750D01*
G01*
X122826000Y57416750D01*
G75*
G02*
X122607250Y57198000I-218750J0D01*
G01*
X122169750Y57198000D01*
G75*
G02*
X121951000Y57416750I0J218750D01*
G01*
G37*
G36*
G01*
X123526000Y57416750D02*
X123526000Y57929250D01*
G75*
G02*
X123744750Y58148000I218750J0D01*
G01*
X124182250Y58148000D01*
G75*
G02*
X124401000Y57929250I0J-218750D01*
G01*
X124401000Y57416750D01*
G75*
G02*
X124182250Y57198000I-218750J0D01*
G01*
X123744750Y57198000D01*
G75*
G02*
X123526000Y57416750I0J218750D01*
G01*
G37*
G04 #@! TD*
D19*
G04 #@! TO.C,M9*
X58754459Y81326709D03*
G04 #@! TD*
D11*
G04 #@! TO.C,JP2*
X17676000Y32550500D03*
D10*
X17676000Y32868000D03*
D11*
X17676000Y35090500D03*
D10*
X17676000Y34773000D03*
G04 #@! TD*
D19*
G04 #@! TO.C,M1*
X16034985Y33885113D03*
X15949784Y28382548D03*
X6709980Y26960113D03*
G36*
G01*
X7209989Y23960116D02*
X7209989Y23960116D01*
X7209989Y23960116D01*
X7209989Y23960116D01*
X7209989Y23960116D01*
G37*
G04 #@! TD*
G04 #@! TO.C,D4*
G36*
G01*
X33938500Y28529250D02*
X33938500Y28016750D01*
G75*
G02*
X33719750Y27798000I-218750J0D01*
G01*
X33282250Y27798000D01*
G75*
G02*
X33063500Y28016750I0J218750D01*
G01*
X33063500Y28529250D01*
G75*
G02*
X33282250Y28748000I218750J0D01*
G01*
X33719750Y28748000D01*
G75*
G02*
X33938500Y28529250I0J-218750D01*
G01*
G37*
G36*
G01*
X32363500Y28529250D02*
X32363500Y28016750D01*
G75*
G02*
X32144750Y27798000I-218750J0D01*
G01*
X31707250Y27798000D01*
G75*
G02*
X31488500Y28016750I0J218750D01*
G01*
X31488500Y28529250D01*
G75*
G02*
X31707250Y28748000I218750J0D01*
G01*
X32144750Y28748000D01*
G75*
G02*
X32363500Y28529250I0J-218750D01*
G01*
G37*
G04 #@! TD*
G04 #@! TO.C,R19*
G36*
G01*
X137396000Y65088000D02*
X137396000Y65458000D01*
G75*
G02*
X137531000Y65593000I135000J0D01*
G01*
X137801000Y65593000D01*
G75*
G02*
X137936000Y65458000I0J-135000D01*
G01*
X137936000Y65088000D01*
G75*
G02*
X137801000Y64953000I-135000J0D01*
G01*
X137531000Y64953000D01*
G75*
G02*
X137396000Y65088000I0J135000D01*
G01*
G37*
G36*
G01*
X138416000Y65088000D02*
X138416000Y65458000D01*
G75*
G02*
X138551000Y65593000I135000J0D01*
G01*
X138821000Y65593000D01*
G75*
G02*
X138956000Y65458000I0J-135000D01*
G01*
X138956000Y65088000D01*
G75*
G02*
X138821000Y64953000I-135000J0D01*
G01*
X138551000Y64953000D01*
G75*
G02*
X138416000Y65088000I0J135000D01*
G01*
G37*
G04 #@! TD*
G04 #@! TO.C,D7*
G36*
G01*
X78201000Y65516750D02*
X78201000Y66029250D01*
G75*
G02*
X78419750Y66248000I218750J0D01*
G01*
X78857250Y66248000D01*
G75*
G02*
X79076000Y66029250I0J-218750D01*
G01*
X79076000Y65516750D01*
G75*
G02*
X78857250Y65298000I-218750J0D01*
G01*
X78419750Y65298000D01*
G75*
G02*
X78201000Y65516750I0J218750D01*
G01*
G37*
G36*
G01*
X79776000Y65516750D02*
X79776000Y66029250D01*
G75*
G02*
X79994750Y66248000I218750J0D01*
G01*
X80432250Y66248000D01*
G75*
G02*
X80651000Y66029250I0J-218750D01*
G01*
X80651000Y65516750D01*
G75*
G02*
X80432250Y65298000I-218750J0D01*
G01*
X79994750Y65298000D01*
G75*
G02*
X79776000Y65516750I0J218750D01*
G01*
G37*
G04 #@! TD*
G04 #@! TO.C,D30*
G36*
G01*
X68151000Y61029250D02*
X68151000Y60516750D01*
G75*
G02*
X67932250Y60298000I-218750J0D01*
G01*
X67494750Y60298000D01*
G75*
G02*
X67276000Y60516750I0J218750D01*
G01*
X67276000Y61029250D01*
G75*
G02*
X67494750Y61248000I218750J0D01*
G01*
X67932250Y61248000D01*
G75*
G02*
X68151000Y61029250I0J-218750D01*
G01*
G37*
G36*
G01*
X66576000Y61029250D02*
X66576000Y60516750D01*
G75*
G02*
X66357250Y60298000I-218750J0D01*
G01*
X65919750Y60298000D01*
G75*
G02*
X65701000Y60516750I0J218750D01*
G01*
X65701000Y61029250D01*
G75*
G02*
X65919750Y61248000I218750J0D01*
G01*
X66357250Y61248000D01*
G75*
G02*
X66576000Y61029250I0J-218750D01*
G01*
G37*
G04 #@! TD*
G04 #@! TO.C,M2*
X121701003Y25648001D03*
G04 #@! TD*
G04 #@! TO.C,R17*
G36*
G01*
X137396000Y34838000D02*
X137396000Y35208000D01*
G75*
G02*
X137531000Y35343000I135000J0D01*
G01*
X137801000Y35343000D01*
G75*
G02*
X137936000Y35208000I0J-135000D01*
G01*
X137936000Y34838000D01*
G75*
G02*
X137801000Y34703000I-135000J0D01*
G01*
X137531000Y34703000D01*
G75*
G02*
X137396000Y34838000I0J135000D01*
G01*
G37*
G36*
G01*
X138416000Y34838000D02*
X138416000Y35208000D01*
G75*
G02*
X138551000Y35343000I135000J0D01*
G01*
X138821000Y35343000D01*
G75*
G02*
X138956000Y35208000I0J-135000D01*
G01*
X138956000Y34838000D01*
G75*
G02*
X138821000Y34703000I-135000J0D01*
G01*
X138551000Y34703000D01*
G75*
G02*
X138416000Y34838000I0J135000D01*
G01*
G37*
G04 #@! TD*
M02*
