M48
; DRILL file {KiCad (5.99.0-12439-g94954386e6)} date Tue Sep 21 03:19:11 2021
; FORMAT={2:4/ absolute / inch / suppress leading zeros}
; #@! TF.CreationDate,2021-09-21T03:19:11+03:00
; #@! TF.GenerationSoftware,Kicad,Pcbnew,(5.99.0-12439-g94954386e6)
; #@! TF.FileFunction,MixedPlating,1,4
FMAT,2
INCH,TZ
; #@! TA.AperFunction,Plated,PTH,ComponentDrill
T1C0.0118
; #@! TA.AperFunction,Plated,PTH,ViaDrill
T2C0.0118
; #@! TA.AperFunction,Plated,PTH,ComponentDrill
T3C0.0118
; #@! TA.AperFunction,Plated,PTH,ViaDrill
T4C0.0157
; #@! TA.AperFunction,Plated,PTH,ViaDrill
T5C0.0160
; #@! TA.AperFunction,Plated,PTH,ComponentDrill
T6C0.0197
; #@! TA.AperFunction,Plated,PTH,ComponentDrill
T7C0.0276
; #@! TA.AperFunction,Plated,PTH,ComponentDrill
T8C0.0300
; #@! TA.AperFunction,Plated,PTH,ComponentDrill
T9C0.0315
; #@! TA.AperFunction,Plated,PTH,ComponentDrill
T10C0.0320
; #@! TA.AperFunction,Plated,PTH,ComponentDrill
T11C0.0394
; #@! TA.AperFunction,Plated,PTH,ComponentDrill
T12C0.0433
; #@! TA.AperFunction,Plated,PTH,ComponentDrill
T13C0.0709
; #@! TA.AperFunction,Plated,PTH,ComponentDrill
T14C0.0787
; #@! TA.AperFunction,Plated,PTH,ComponentDrill
T15C0.1200
; #@! TA.AperFunction,Plated,PTH,ComponentDrill
T16C0.1693
; #@! TA.AperFunction,NonPlated,NPTH,ComponentDrill
T17C0.0315
; #@! TA.AperFunction,NonPlated,NPTH,ComponentDrill
T18C0.1181
; #@! TA.AperFunction,NonPlated,NPTH,ComponentDrill
T19C0.1693
%
G90
G05
T1
X467Y11894
X2612Y14591
X2619Y12531
X3360Y12337
X5850Y15112
X30763Y1867
X30793Y469
X30881Y2369
X31226Y2162
X34995Y290
X39287Y290
X43429Y3902
X44572Y3635
X44877Y290
X45448Y3635
X46305Y3635
X46767Y3635
X47176Y16234
X47176Y15466
X47176Y14443
X47691Y15978
X47869Y15339
X47898Y14276
X47898Y15004
X47904Y13528
X47983Y14659
X48347Y9576
X48431Y3899
X48554Y9920
X48849Y9458
X49051Y5830
X49159Y1786
X49508Y13409
X49705Y290
X50246Y9487
T2
X199Y18321
X207Y18985
X463Y10836
X463Y9852
X660Y17627
X660Y15757
X1063Y2441
X1743Y10836
X1743Y9852
X3317Y304
X4203Y304
X4991Y2765
X5443Y35304
X5778Y3060
X6664Y15198
X6925Y2765
X7057Y8375
X7156Y20481
X7156Y19694
X7254Y38001
X7353Y11230
X7353Y9852
X7648Y6111
X7687Y33139
X7746Y25796
X7746Y18611
X7746Y2765
X7788Y14519
X7845Y17332
X8239Y21820
X8317Y37174
X8455Y16783
X8534Y32588
X8534Y31997
X8578Y22514
X8790Y14200
X8928Y11131
X9189Y2863
X9223Y33867
X9320Y18119
X9321Y25993
X9400Y18552
X9420Y19694
X9459Y18907
X9617Y6111
X9657Y18235
X9715Y20875
X10109Y12312
X11034Y17293
X11113Y11426
X11152Y12253
X11329Y20619
X11354Y403
X11664Y18356
X11782Y17647
X12372Y15265
X12451Y37922
X12732Y403
X12963Y5816
X13002Y15363
X13987Y7765
X14144Y15659
X14735Y14084
X16998Y38001
X17392Y15127
X17687Y34852
X17983Y15659
X18770Y13789
X18987Y7745
X19164Y35934
X19951Y34359
X20109Y35954
X21228Y34268
X22412Y13493
X22412Y9458
X22648Y13178
X22846Y9497
X22954Y16927
X23181Y17154
X23194Y13690
X23238Y35206
X23435Y13178
X23494Y27174
X23494Y16682
X23544Y32558
X23554Y25285
X23593Y29005
X23766Y32781
X23810Y21564
X23865Y9474
X23987Y30915
X24085Y27174
X24144Y15147
X24183Y35344
X24183Y13178
X24498Y22485
X24971Y19694
X25050Y35442
X25069Y21269
X25144Y17801
X25365Y16161
X25896Y30107
X26447Y38789
X26447Y37509
X26447Y35541
X26565Y16604
X26743Y24812
X26762Y23415
X26832Y16338
X26895Y16016
X26920Y22194
X26961Y18239
X27338Y18125
X27471Y16328
X27490Y12558
X27490Y12873
X27491Y12214
X27628Y38789
X27648Y6544
X28199Y27607
X28790Y245
X28908Y38789
X29006Y36722
X29203Y3552
X29203Y993
X29991Y36722
X30089Y38789
X30246Y38060
X30719Y5915
X31073Y37509
X31290Y4517
X31339Y25127
X32097Y31033
X32097Y30482
X32353Y29832
X32372Y35029
X32609Y23434
X33180Y4438
X33315Y28949
X33566Y31055
X33573Y28769
X33573Y27135
X33632Y33277
X33632Y31899
X33928Y22962
X33967Y35029
X34124Y36722
X34124Y501
X34617Y34419
X34912Y37509
X35010Y32056
X35040Y33956
X35207Y39084
X35581Y7371
X35699Y4930
X36250Y34044
X36288Y31995
X36325Y31624
X36388Y38789
X36388Y37607
X36467Y32509
X37097Y33001
X37372Y5422
X37668Y34163
X38042Y39989
X38160Y36879
X38445Y32736
X38556Y5053
X38583Y4560
X38652Y31978
X38672Y34340
X38869Y31505
X39006Y4856
X39065Y33356
X39164Y32627
X39164Y31643
X39183Y35856
X39479Y4856
X39808Y4895
X40207Y33334
X40246Y5265
X40561Y33356
X40837Y31918
X41186Y4895
X41211Y33336
X41345Y37651
X42333Y6742
X42657Y6732
X43002Y32588
X44085Y4812
X44774Y25363
X44774Y22922
X45128Y6735
X45896Y23257
X46152Y6735
X46526Y29537
X46526Y28257
X46526Y26781
X47122Y31218
X47412Y21170
X47412Y20481
X49166Y20704
X49341Y20442
X49498Y26033
X49577Y23985
X49813Y19655
X50266Y3552
X50463Y600
X50483Y18110
X50495Y18958
X50680Y18670
X50680Y18356
X51113Y6584
X51152Y40560
X52333Y23237
X52333Y25324
X52333Y24655
X52451Y28670
X52806Y23237
X53042Y24655
X53317Y32391
X53317Y12726
X53317Y8985
X53317Y5363
X53357Y36348
X53357Y28670
X53357Y24733
X53357Y16663
X54302Y35048
X54302Y34537
X54302Y34025
X54341Y31111
X54341Y30600
X54341Y30088
X54341Y27371
X54341Y26859
X54341Y26348
X54341Y23434
X54341Y22922
X54341Y22411
X54341Y15363
X54341Y14852
X54341Y14340
X54341Y11426
X54341Y10915
X54341Y10403
X54341Y7686
X54341Y7174
X54341Y6663
X54341Y4143
X54341Y3631
X54341Y3119
X54695Y35048
X54695Y34025
X54735Y31111
X54735Y30088
X54735Y27371
X54735Y26348
X54735Y23434
X54735Y22411
X54735Y15363
X54735Y14340
X54735Y11426
X54735Y10403
X54735Y7686
X54735Y6663
X54735Y4143
X54735Y3119
X62412Y34458
X62491Y14733
X62491Y7096
X62491Y3592
X62495Y27017
X62495Y23395
X62535Y30521
X62535Y10875
T3
X13357Y5383
X13357Y4989
X13357Y4596
X13357Y4202
X28416Y3769
X28416Y3375
X28416Y1978
X28416Y1584
T4
X2235Y10639
X6259Y20571
X6565Y12607
X6591Y24995
X6762Y12903
X7004Y24995
X7057Y30619
X7057Y13530
X7057Y13198
X7727Y16254
X8239Y27765
X9223Y23926
X9420Y27765
X9813Y10324
X10325Y8356
X11782Y33670
X11782Y32883
X11782Y32096
X11782Y31308
X11782Y30521
X11782Y29733
X11782Y28946
X11782Y28159
X11782Y27371
X11782Y26584
X11782Y25796
X11782Y25009
X11782Y24222
X11782Y11623
X11782Y10048
X13357Y12804
X13357Y11623
X14459Y7883
X15128Y12509
X15128Y11525
X15128Y10442
X15128Y9359
X15128Y8375
X15522Y14478
X17018Y33907
X17195Y12607
X17491Y34359
X17589Y10245
X17589Y9556
X17796Y37322
X18180Y13887
X18371Y13488
X18376Y12607
X18667Y13193
X18869Y10245
X18869Y9556
X19951Y13887
X19951Y12903
X20010Y7863
X20050Y10147
X20050Y8966
X20345Y13296
X20345Y9556
X20542Y13887
X20542Y8966
X20542Y7844
X20739Y12903
X20739Y10147
X20857Y13434
X21211Y13434
X21285Y7967
X21548Y8229
X22038Y7273
X23298Y9753
X23652Y29399
X23672Y30068
X23689Y31714
X24093Y29395
X24441Y9517
X24548Y14704
X24557Y15088
X24724Y9527
X25542Y7400
X25857Y12804
X25857Y10245
X25857Y9852
X25916Y8867
X25994Y15088
X26152Y13100
X27451Y11564
X28061Y34517
X28120Y31013
X28691Y35442
X29321Y29576
X32530Y28139
X32550Y26170
X33632Y24911
X34109Y1308
X34144Y2096
X34400Y2765
X36998Y4261
X40325Y3611
X40522Y36230
X40522Y34556
X40857Y5147
X41664Y3985
X48435Y7883
X49931Y7883
X50365Y15068
X50680Y12373
T5
X17884Y33947
T6
X6270Y39576
X7254Y39576
X10010Y16446
X11408Y17647
X11408Y16859
X12274Y34359
X13160Y34359
X14046Y34359
X14931Y34359
X15916Y35442
X16998Y39576
X18376Y36033
X19164Y35226
X19656Y39576
X19656Y36013
X19754Y37509
X20050Y35226
X20542Y36013
X20935Y35226
X22510Y35226
X23002Y36013
X23298Y39576
X23298Y38001
X23790Y31308
X23790Y30521
X23928Y22883
X24676Y21663
X24676Y20875
X24676Y20088
X24676Y19300
X24676Y18513
X24676Y17726
X24892Y6525
X24971Y38001
X25266Y39576
X25561Y18513
X25581Y20875
X25581Y20088
X25581Y19300
X25680Y6525
X25857Y15856
X25916Y38001
X26054Y34852
X26152Y16840
X26447Y39576
X26467Y6525
X26743Y14478
X26939Y34852
X27038Y38001
X27254Y6525
X27727Y39576
X28042Y6525
X28317Y38001
X28829Y6525
X28908Y39576
X29361Y5580
X29498Y38001
X30148Y5580
X30148Y4674
X30187Y39576
X30443Y6485
X31231Y6485
X31270Y23434
X32156Y23434
X33042Y23434
X33140Y30226
X33140Y29438
X33908Y6800
X33947Y23434
X34223Y32489
X34617Y31702
X34715Y33277
X35010Y5422
X35010Y3946
X35207Y32489
X35404Y39576
X35601Y38198
X36290Y39576
X36979Y31702
X41211Y32568
X42117Y32568
X42392Y6013
X42392Y5226
X42392Y4438
X42392Y3651
X42491Y33375
X43376Y33375
X43869Y32588
X44164Y39576
X45542Y39576
X47018Y39576
X50994Y6033
X51782Y6033
X52569Y6033
X53357Y6033
X54695Y39576
X54695Y38296
T7
X31703Y5491
X32018Y4802
X32333Y5491
X32648Y4802
X32963Y5491
T8
X10686Y43940
X11572Y41479
X11670Y43940
X12654Y43940
X12851Y41479
X13639Y43940
X14131Y41479
X14623Y43940
X15410Y41479
X15607Y43940
X16591Y43940
X16690Y41479
X17576Y43940
X17969Y41479
X18560Y43940
X19249Y41479
X19544Y43940
X20529Y43940
X20529Y41479
X21513Y43940
X21808Y41479
X22399Y43644
X23088Y44235
X23088Y41479
X23678Y43644
X24367Y44235
X24367Y41479
X24958Y43644
X25647Y44235
X25647Y41479
X26237Y43644
X26926Y44235
X26926Y41479
X27517Y43644
X28206Y44235
X28206Y41479
X28796Y43644
X29485Y44235
X29485Y41479
X30076Y43644
X30765Y44235
X30765Y41479
X31355Y43644
X32044Y44235
X32044Y41479
X32635Y43644
X33324Y44235
X33324Y41479
X33914Y43644
X34603Y44235
X34603Y41479
X35194Y43644
X35883Y44235
X35883Y41479
X36473Y43644
X37162Y44235
X37162Y41479
X37753Y43644
X38442Y44235
X38442Y41479
X39032Y43644
X39721Y44235
X39721Y41479
X40312Y43644
X41001Y41479
X41296Y43940
X42280Y43940
X42280Y41479
X43265Y43940
X43560Y41479
X44249Y43940
X44840Y41479
X45233Y43940
X46119Y41479
X46217Y43940
X47202Y43940
X47399Y41479
X48186Y43940
X48678Y41479
X49170Y43940
X49958Y41479
X50154Y43940
X51139Y43940
X51237Y41479
X52123Y43940
X52517Y41479
X53107Y43940
X54091Y43940
T9
X30581Y3651
X31369Y3651
X32156Y3651
X32943Y3651
X33731Y3651
T10
X8239Y39539
X8239Y38039
X9321Y39539
X9321Y38039
X9439Y35997
X9439Y34497
X10798Y39753
X10798Y37824
X11880Y39539
X11880Y38039
X12963Y39539
X12963Y38039
X14046Y39539
X14046Y38039
X15128Y39539
X15128Y38039
X16211Y39539
X16211Y38039
X16348Y13434
X16348Y12434
X16348Y11434
X16348Y10434
X16348Y9434
X16348Y8434
X17786Y39539
X17786Y38039
X18869Y39539
X18869Y38039
X20443Y39539
X20443Y38039
X21526Y39539
X21526Y38039
X22569Y39539
X22569Y38039
X24085Y39618
X24085Y38118
X30680Y36586
X30680Y35086
X31369Y39539
X31369Y38039
X31782Y36586
X31782Y35086
X32451Y39539
X32451Y38039
X33042Y36586
X33042Y35086
X33534Y39539
X33534Y38039
X34617Y39539
X34617Y38039
X35207Y36586
X35207Y35086
X36290Y36586
X36290Y35086
X37372Y39539
X37372Y38039
X37372Y36586
X37372Y35086
X38554Y39539
X38554Y38039
X38652Y36586
X38652Y35086
X39735Y39539
X39735Y38039
X51034Y36586
X51034Y35086
X51152Y39539
X51152Y38039
X52117Y36586
X52117Y35086
X52235Y39970
X52235Y38041
X53514Y39539
X53514Y38039
T11
X574Y36342
X574Y35342
X574Y34342
X574Y33342
X574Y32342
X574Y31342
X574Y30342
X574Y29342
X574Y28342
X574Y27342
X574Y26342
X574Y25342
X620Y8474
X731Y4537
X1574Y36342
X1574Y35342
X1574Y34342
X1574Y33342
X1574Y32342
X1574Y31342
X1574Y30342
X1574Y29342
X1574Y28342
X1574Y27342
X1574Y26342
X1574Y25342
X1620Y8474
X1731Y4537
X2574Y36342
X2574Y35342
X2574Y34342
X2574Y33342
X2574Y32342
X2574Y31342
X2574Y30342
X2574Y29342
X2574Y28342
X2574Y27342
X2574Y26342
X2574Y25342
X2620Y8474
X2731Y4537
X3574Y36342
X3574Y35342
X3574Y34342
X3574Y33342
X3574Y32342
X3574Y31342
X3574Y30342
X3574Y29342
X3574Y28342
X3574Y27342
X3574Y26342
X3574Y25342
X3620Y8474
X3731Y4537
X4574Y36342
X4574Y35342
X4574Y34342
X4574Y33342
X4574Y32342
X4574Y31342
X4574Y30342
X4574Y29342
X4574Y28342
X4574Y27342
X4574Y26342
X4574Y25342
X4620Y8474
X5252Y4340
X5286Y1426
X5574Y29342
X5574Y28342
X5574Y27342
X5574Y26342
X5574Y25342
X5620Y8474
X6270Y1426
X6532Y4340
X7254Y1426
X7811Y4340
X8239Y1426
X9091Y4340
X9223Y1426
X10207Y1426
X10567Y4340
X11191Y1426
X12043Y4340
X12176Y1426
T12
X59837Y36033
X59837Y28670
X59837Y24930
X59876Y32135
X59876Y16348
X59876Y12489
X59876Y8710
X59876Y5206
X61837Y36033
X61837Y28670
X61837Y24930
X61876Y32135
X61876Y16348
X61876Y12489
X61876Y8710
X61876Y5206
T13
X4213Y6505
X6378Y6505
T14
X6703Y21741
X7687Y22607
X9144Y21741
X9892Y22607
X11349Y21741
T15
X11348Y15434
X11348Y6434
T16
X3005Y44825
X60371Y44727
T17
X36191Y4438
X37766Y4438
T18
X1339Y6505
T19
X2926Y2230
X51426Y2230
T7
X30896Y4891G85X30896Y5403
G05
X33770Y4891G85X33770Y5403
G05
T0
M30
