G04 #@! TF.GenerationSoftware,KiCad,Pcbnew,(5.99.0-11247-g3f6811f413)*
G04 #@! TF.CreationDate,2021-08-14T02:07:01+03:00*
G04 #@! TF.ProjectId,hellen88bmw,68656c6c-656e-4383-9862-6d772e6b6963,rev?*
G04 #@! TF.SameCoordinates,PX3d1b110PY9269338*
G04 #@! TF.FileFunction,Paste,Top*
G04 #@! TF.FilePolarity,Positive*
%FSLAX46Y46*%
G04 Gerber Fmt 4.6, Leading zero omitted, Abs format (unit mm)*
G04 Created by KiCad (PCBNEW (5.99.0-11247-g3f6811f413)) date 2021-08-14 02:07:01*
%MOMM*%
%LPD*%
G01*
G04 APERTURE LIST*
%ADD10R,1.397000X0.889000*%
%ADD11R,0.203200X1.524000*%
%ADD12R,3.050000X2.750000*%
%ADD13R,2.200000X1.200000*%
%ADD14R,0.640000X2.160000*%
%ADD15R,0.900000X1.700000*%
%ADD16R,0.900000X0.400000*%
%ADD17R,0.800000X2.200000*%
%ADD18R,2.032000X5.080000*%
%ADD19R,11.430000X7.620000*%
%ADD20O,0.000001X0.000001*%
%ADD21R,0.350000X0.400000*%
%ADD22R,0.400000X0.350000*%
%ADD23O,0.500000X0.250000*%
%ADD24O,0.250000X0.500000*%
%ADD25R,0.400000X0.900000*%
%ADD26R,0.450000X0.600000*%
G04 APERTURE END LIST*
D10*
G04 #@! TO.C,JP1*
X21926000Y99475500D03*
D11*
X21926000Y99793000D03*
X21926000Y97253000D03*
D10*
X21926000Y97570500D03*
G04 #@! TD*
G04 #@! TO.C,JP3*
X30176000Y99475500D03*
D11*
X30176000Y99793000D03*
X30176000Y97253000D03*
D10*
X30176000Y97570500D03*
G04 #@! TD*
G04 #@! TO.C,JP4*
X35676000Y99475500D03*
D11*
X35676000Y99793000D03*
D10*
X35676000Y97570500D03*
D11*
X35676000Y97253000D03*
G04 #@! TD*
G04 #@! TO.C,JP5*
X45176000Y99793000D03*
D10*
X45176000Y99475500D03*
D11*
X45176000Y97253000D03*
D10*
X45176000Y97570500D03*
G04 #@! TD*
G04 #@! TO.C,JP7*
X51926000Y99475500D03*
D11*
X51926000Y99793000D03*
D10*
X51926000Y97570500D03*
D11*
X51926000Y97253000D03*
G04 #@! TD*
D10*
G04 #@! TO.C,JP14*
X79676000Y99475500D03*
D11*
X79676000Y99793000D03*
D10*
X79676000Y97570500D03*
D11*
X79676000Y97253000D03*
G04 #@! TD*
G04 #@! TO.C,JP16*
X85176000Y99793000D03*
D10*
X85176000Y99475500D03*
X85176000Y97570500D03*
D11*
X85176000Y97253000D03*
G04 #@! TD*
G04 #@! TO.C,JP17*
X87926000Y99793000D03*
D10*
X87926000Y99475500D03*
X87926000Y97570500D03*
D11*
X87926000Y97253000D03*
G04 #@! TD*
G04 #@! TO.C,JP20*
X94926000Y92293000D03*
D10*
X94926000Y91975500D03*
X94926000Y90070500D03*
D11*
X94926000Y89753000D03*
G04 #@! TD*
G04 #@! TO.C,JP21*
X98176000Y92293000D03*
D10*
X98176000Y91975500D03*
D11*
X98176000Y89753000D03*
D10*
X98176000Y90070500D03*
G04 #@! TD*
G04 #@! TO.C,JP22*
X110926000Y91975500D03*
D11*
X110926000Y92293000D03*
D10*
X110926000Y90070500D03*
D11*
X110926000Y89753000D03*
G04 #@! TD*
D10*
G04 #@! TO.C,JP23*
X116426000Y91975500D03*
D11*
X116426000Y92293000D03*
X116426000Y89753000D03*
D10*
X116426000Y90070500D03*
G04 #@! TD*
G04 #@! TO.C,JP24*
X121926000Y91975500D03*
D11*
X121926000Y92293000D03*
D10*
X121926000Y90070500D03*
D11*
X121926000Y89753000D03*
G04 #@! TD*
G04 #@! TO.C,JP25*
X125676000Y99793000D03*
D10*
X125676000Y99475500D03*
X125676000Y97570500D03*
D11*
X125676000Y97253000D03*
G04 #@! TD*
G04 #@! TO.C,JP26*
X129926000Y99793000D03*
D10*
X129926000Y99475500D03*
D11*
X129926000Y97253000D03*
D10*
X129926000Y97570500D03*
G04 #@! TD*
G04 #@! TO.C,JP27*
X135926000Y99475500D03*
D11*
X135926000Y99793000D03*
D10*
X135926000Y97570500D03*
D11*
X135926000Y97253000D03*
G04 #@! TD*
D10*
G04 #@! TO.C,JP29*
X24676000Y99475500D03*
D11*
X24676000Y99793000D03*
X24676000Y97253000D03*
D10*
X24676000Y97570500D03*
G04 #@! TD*
G04 #@! TO.C,JP31*
X32926000Y99475500D03*
D11*
X32926000Y99793000D03*
D10*
X32926000Y97570500D03*
D11*
X32926000Y97253000D03*
G04 #@! TD*
D10*
G04 #@! TO.C,JP32*
X41176000Y99475500D03*
D11*
X41176000Y99793000D03*
D10*
X41176000Y97570500D03*
D11*
X41176000Y97253000D03*
G04 #@! TD*
D10*
G04 #@! TO.C,JP33*
X47926000Y99475500D03*
D11*
X47926000Y99793000D03*
X47926000Y97253000D03*
D10*
X47926000Y97570500D03*
G04 #@! TD*
D11*
G04 #@! TO.C,JP35*
X55926000Y99793000D03*
D10*
X55926000Y99475500D03*
D11*
X55926000Y97253000D03*
D10*
X55926000Y97570500D03*
G04 #@! TD*
G04 #@! TO.C,JP41*
X77926000Y91975500D03*
D11*
X77926000Y92293000D03*
D10*
X77926000Y90070500D03*
D11*
X77926000Y89753000D03*
G04 #@! TD*
D10*
G04 #@! TO.C,JP42*
X80426000Y91975500D03*
D11*
X80426000Y92293000D03*
D10*
X80426000Y90070500D03*
D11*
X80426000Y89753000D03*
G04 #@! TD*
G04 #@! TO.C,JP43*
X82426000Y99793000D03*
D10*
X82426000Y99475500D03*
D11*
X82426000Y97253000D03*
D10*
X82426000Y97570500D03*
G04 #@! TD*
D11*
G04 #@! TO.C,JP44*
X86676000Y92293000D03*
D10*
X86676000Y91975500D03*
D11*
X86676000Y89753000D03*
D10*
X86676000Y90070500D03*
G04 #@! TD*
G04 #@! TO.C,JP46*
X89426000Y91975500D03*
D11*
X89426000Y92293000D03*
X89426000Y89753000D03*
D10*
X89426000Y90070500D03*
G04 #@! TD*
D11*
G04 #@! TO.C,JP47*
X92176000Y92293000D03*
D10*
X92176000Y91975500D03*
X92176000Y90070500D03*
D11*
X92176000Y89753000D03*
G04 #@! TD*
G04 #@! TO.C,JP50*
X113676000Y92293000D03*
D10*
X113676000Y91975500D03*
X113676000Y90070500D03*
D11*
X113676000Y89753000D03*
G04 #@! TD*
D10*
G04 #@! TO.C,JP51*
X119176000Y91975500D03*
D11*
X119176000Y92293000D03*
X119176000Y89753000D03*
D10*
X119176000Y90070500D03*
G04 #@! TD*
G04 #@! TO.C,JP52*
X124676000Y91975500D03*
D11*
X124676000Y92293000D03*
X124676000Y89753000D03*
D10*
X124676000Y90070500D03*
G04 #@! TD*
D11*
G04 #@! TO.C,JP54*
X132676000Y99793000D03*
D10*
X132676000Y99475500D03*
D11*
X132676000Y97253000D03*
D10*
X132676000Y97570500D03*
G04 #@! TD*
G04 #@! TO.C,JP56*
X27426000Y99475500D03*
D11*
X27426000Y99793000D03*
D10*
X27426000Y97570500D03*
D11*
X27426000Y97253000D03*
G04 #@! TD*
G04 #@! TO.C,JP73*
X83926000Y92293000D03*
D10*
X83926000Y91975500D03*
D11*
X83926000Y89753000D03*
D10*
X83926000Y90070500D03*
G04 #@! TD*
D11*
G04 #@! TO.C,JP77*
X95926000Y99793000D03*
D10*
X95926000Y99475500D03*
X95926000Y97570500D03*
D11*
X95926000Y97253000D03*
G04 #@! TD*
D10*
G04 #@! TO.C,JP78*
X100926000Y99475500D03*
D11*
X100926000Y99793000D03*
D10*
X100926000Y97570500D03*
D11*
X100926000Y97253000D03*
G04 #@! TD*
D10*
G04 #@! TO.C,JP85*
X130176000Y91975500D03*
D11*
X130176000Y92293000D03*
D10*
X130176000Y90070500D03*
D11*
X130176000Y89753000D03*
G04 #@! TD*
G04 #@! TO.C,JP86*
X127426000Y92293000D03*
D10*
X127426000Y91975500D03*
X127426000Y90070500D03*
D11*
X127426000Y89753000D03*
G04 #@! TD*
G04 #@! TO.C,JP59*
X38426000Y99793000D03*
D10*
X38426000Y99475500D03*
D11*
X38426000Y97253000D03*
D10*
X38426000Y97570500D03*
G04 #@! TD*
D11*
G04 #@! TO.C,JP49*
X108176000Y92293000D03*
D10*
X108176000Y91975500D03*
X108176000Y90070500D03*
D11*
X108176000Y89753000D03*
G04 #@! TD*
D12*
G04 #@! TO.C,Q1*
X144351000Y31548000D03*
X147701000Y31548000D03*
X147701000Y28498000D03*
X144351000Y28498000D03*
D13*
X139726000Y32303000D03*
X139726000Y27743000D03*
G04 #@! TD*
D12*
G04 #@! TO.C,Q6*
X144351000Y91548000D03*
X147701000Y88498000D03*
X144351000Y88498000D03*
X147701000Y91548000D03*
D13*
X139726000Y92303000D03*
X139726000Y87743000D03*
G04 #@! TD*
D12*
G04 #@! TO.C,Q2*
X147701000Y38498000D03*
X144351000Y41548000D03*
X144351000Y38498000D03*
X147701000Y41548000D03*
D13*
X139726000Y42303000D03*
X139726000Y37743000D03*
G04 #@! TD*
D12*
G04 #@! TO.C,Q5*
X147701000Y81548000D03*
X147701000Y78498000D03*
X144351000Y78498000D03*
X144351000Y81548000D03*
D13*
X139726000Y82303000D03*
X139726000Y77743000D03*
G04 #@! TD*
D12*
G04 #@! TO.C,Q3*
X147701000Y58998000D03*
X144351000Y58998000D03*
X147701000Y62048000D03*
X144351000Y62048000D03*
D13*
X139726000Y62803000D03*
X139726000Y58243000D03*
G04 #@! TD*
D12*
G04 #@! TO.C,Q4*
X147701000Y68998000D03*
X144351000Y68998000D03*
X147701000Y72048000D03*
X144351000Y72048000D03*
D13*
X139726000Y72803000D03*
X139726000Y68243000D03*
G04 #@! TD*
G04 #@! TO.C,C1*
G36*
G01*
X42756000Y26033000D02*
X43096000Y26033000D01*
G75*
G02*
X43236000Y25893000I0J-140000D01*
G01*
X43236000Y25613000D01*
G75*
G02*
X43096000Y25473000I-140000J0D01*
G01*
X42756000Y25473000D01*
G75*
G02*
X42616000Y25613000I0J140000D01*
G01*
X42616000Y25893000D01*
G75*
G02*
X42756000Y26033000I140000J0D01*
G01*
G37*
G36*
G01*
X42756000Y25073000D02*
X43096000Y25073000D01*
G75*
G02*
X43236000Y24933000I0J-140000D01*
G01*
X43236000Y24653000D01*
G75*
G02*
X43096000Y24513000I-140000J0D01*
G01*
X42756000Y24513000D01*
G75*
G02*
X42616000Y24653000I0J140000D01*
G01*
X42616000Y24933000D01*
G75*
G02*
X42756000Y25073000I140000J0D01*
G01*
G37*
G04 #@! TD*
G04 #@! TO.C,C2*
G36*
G01*
X43096000Y26513000D02*
X42756000Y26513000D01*
G75*
G02*
X42616000Y26653000I0J140000D01*
G01*
X42616000Y26933000D01*
G75*
G02*
X42756000Y27073000I140000J0D01*
G01*
X43096000Y27073000D01*
G75*
G02*
X43236000Y26933000I0J-140000D01*
G01*
X43236000Y26653000D01*
G75*
G02*
X43096000Y26513000I-140000J0D01*
G01*
G37*
G36*
G01*
X43096000Y27473000D02*
X42756000Y27473000D01*
G75*
G02*
X42616000Y27613000I0J140000D01*
G01*
X42616000Y27893000D01*
G75*
G02*
X42756000Y28033000I140000J0D01*
G01*
X43096000Y28033000D01*
G75*
G02*
X43236000Y27893000I0J-140000D01*
G01*
X43236000Y27613000D01*
G75*
G02*
X43096000Y27473000I-140000J0D01*
G01*
G37*
G04 #@! TD*
D14*
G04 #@! TO.C,U1*
X44771000Y21003000D03*
X46041000Y21003000D03*
X47311000Y21003000D03*
X48581000Y21003000D03*
X48581000Y29543000D03*
X47311000Y29543000D03*
X46041000Y29543000D03*
X44771000Y29543000D03*
G04 #@! TD*
G04 #@! TO.C,R1*
G36*
G01*
X92777250Y8531750D02*
X92777250Y8901750D01*
G75*
G02*
X92912250Y9036750I135000J0D01*
G01*
X93182250Y9036750D01*
G75*
G02*
X93317250Y8901750I0J-135000D01*
G01*
X93317250Y8531750D01*
G75*
G02*
X93182250Y8396750I-135000J0D01*
G01*
X92912250Y8396750D01*
G75*
G02*
X92777250Y8531750I0J135000D01*
G01*
G37*
G36*
G01*
X93797250Y8531750D02*
X93797250Y8901750D01*
G75*
G02*
X93932250Y9036750I135000J0D01*
G01*
X94202250Y9036750D01*
G75*
G02*
X94337250Y8901750I0J-135000D01*
G01*
X94337250Y8531750D01*
G75*
G02*
X94202250Y8396750I-135000J0D01*
G01*
X93932250Y8396750D01*
G75*
G02*
X93797250Y8531750I0J135000D01*
G01*
G37*
G04 #@! TD*
G04 #@! TO.C,D14*
G36*
G01*
X42338036Y18129714D02*
X42338036Y17617214D01*
G75*
G02*
X42119286Y17398464I-218750J0D01*
G01*
X41681786Y17398464D01*
G75*
G02*
X41463036Y17617214I0J218750D01*
G01*
X41463036Y18129714D01*
G75*
G02*
X41681786Y18348464I218750J0D01*
G01*
X42119286Y18348464D01*
G75*
G02*
X42338036Y18129714I0J-218750D01*
G01*
G37*
G36*
G01*
X40763036Y18129714D02*
X40763036Y17617214D01*
G75*
G02*
X40544286Y17398464I-218750J0D01*
G01*
X40106786Y17398464D01*
G75*
G02*
X39888036Y17617214I0J218750D01*
G01*
X39888036Y18129714D01*
G75*
G02*
X40106786Y18348464I218750J0D01*
G01*
X40544286Y18348464D01*
G75*
G02*
X40763036Y18129714I0J-218750D01*
G01*
G37*
G04 #@! TD*
G04 #@! TO.C,R10*
G36*
G01*
X137601000Y17448000D02*
X134751000Y17448000D01*
G75*
G02*
X134501000Y17698000I0J250000D01*
G01*
X134501000Y18423000D01*
G75*
G02*
X134751000Y18673000I250000J0D01*
G01*
X137601000Y18673000D01*
G75*
G02*
X137851000Y18423000I0J-250000D01*
G01*
X137851000Y17698000D01*
G75*
G02*
X137601000Y17448000I-250000J0D01*
G01*
G37*
G36*
G01*
X137601000Y23373000D02*
X134751000Y23373000D01*
G75*
G02*
X134501000Y23623000I0J250000D01*
G01*
X134501000Y24348000D01*
G75*
G02*
X134751000Y24598000I250000J0D01*
G01*
X137601000Y24598000D01*
G75*
G02*
X137851000Y24348000I0J-250000D01*
G01*
X137851000Y23623000D01*
G75*
G02*
X137601000Y23373000I-250000J0D01*
G01*
G37*
G04 #@! TD*
G04 #@! TO.C,D23*
G36*
G01*
X121988500Y66266750D02*
X121988500Y66779250D01*
G75*
G02*
X122207250Y66998000I218750J0D01*
G01*
X122644750Y66998000D01*
G75*
G02*
X122863500Y66779250I0J-218750D01*
G01*
X122863500Y66266750D01*
G75*
G02*
X122644750Y66048000I-218750J0D01*
G01*
X122207250Y66048000D01*
G75*
G02*
X121988500Y66266750I0J218750D01*
G01*
G37*
G36*
G01*
X123563500Y66266750D02*
X123563500Y66779250D01*
G75*
G02*
X123782250Y66998000I218750J0D01*
G01*
X124219750Y66998000D01*
G75*
G02*
X124438500Y66779250I0J-218750D01*
G01*
X124438500Y66266750D01*
G75*
G02*
X124219750Y66048000I-218750J0D01*
G01*
X123782250Y66048000D01*
G75*
G02*
X123563500Y66266750I0J218750D01*
G01*
G37*
G04 #@! TD*
G04 #@! TO.C,D25*
G36*
G01*
X68151000Y66779250D02*
X68151000Y66266750D01*
G75*
G02*
X67932250Y66048000I-218750J0D01*
G01*
X67494750Y66048000D01*
G75*
G02*
X67276000Y66266750I0J218750D01*
G01*
X67276000Y66779250D01*
G75*
G02*
X67494750Y66998000I218750J0D01*
G01*
X67932250Y66998000D01*
G75*
G02*
X68151000Y66779250I0J-218750D01*
G01*
G37*
G36*
G01*
X66576000Y66779250D02*
X66576000Y66266750D01*
G75*
G02*
X66357250Y66048000I-218750J0D01*
G01*
X65919750Y66048000D01*
G75*
G02*
X65701000Y66266750I0J218750D01*
G01*
X65701000Y66779250D01*
G75*
G02*
X65919750Y66998000I218750J0D01*
G01*
X66357250Y66998000D01*
G75*
G02*
X66576000Y66779250I0J-218750D01*
G01*
G37*
G04 #@! TD*
G04 #@! TO.C,R16*
G36*
G01*
X91611000Y14483000D02*
X91241000Y14483000D01*
G75*
G02*
X91106000Y14618000I0J135000D01*
G01*
X91106000Y14888000D01*
G75*
G02*
X91241000Y15023000I135000J0D01*
G01*
X91611000Y15023000D01*
G75*
G02*
X91746000Y14888000I0J-135000D01*
G01*
X91746000Y14618000D01*
G75*
G02*
X91611000Y14483000I-135000J0D01*
G01*
G37*
G36*
G01*
X91611000Y15503000D02*
X91241000Y15503000D01*
G75*
G02*
X91106000Y15638000I0J135000D01*
G01*
X91106000Y15908000D01*
G75*
G02*
X91241000Y16043000I135000J0D01*
G01*
X91611000Y16043000D01*
G75*
G02*
X91746000Y15908000I0J-135000D01*
G01*
X91746000Y15638000D01*
G75*
G02*
X91611000Y15503000I-135000J0D01*
G01*
G37*
G04 #@! TD*
G04 #@! TO.C,D8*
G36*
G01*
X78201000Y69016750D02*
X78201000Y69529250D01*
G75*
G02*
X78419750Y69748000I218750J0D01*
G01*
X78857250Y69748000D01*
G75*
G02*
X79076000Y69529250I0J-218750D01*
G01*
X79076000Y69016750D01*
G75*
G02*
X78857250Y68798000I-218750J0D01*
G01*
X78419750Y68798000D01*
G75*
G02*
X78201000Y69016750I0J218750D01*
G01*
G37*
G36*
G01*
X79776000Y69016750D02*
X79776000Y69529250D01*
G75*
G02*
X79994750Y69748000I218750J0D01*
G01*
X80432250Y69748000D01*
G75*
G02*
X80651000Y69529250I0J-218750D01*
G01*
X80651000Y69016750D01*
G75*
G02*
X80432250Y68798000I-218750J0D01*
G01*
X79994750Y68798000D01*
G75*
G02*
X79776000Y69016750I0J218750D01*
G01*
G37*
G04 #@! TD*
G04 #@! TO.C,D27*
G36*
G01*
X68151000Y59279250D02*
X68151000Y58766750D01*
G75*
G02*
X67932250Y58548000I-218750J0D01*
G01*
X67494750Y58548000D01*
G75*
G02*
X67276000Y58766750I0J218750D01*
G01*
X67276000Y59279250D01*
G75*
G02*
X67494750Y59498000I218750J0D01*
G01*
X67932250Y59498000D01*
G75*
G02*
X68151000Y59279250I0J-218750D01*
G01*
G37*
G36*
G01*
X66576000Y59279250D02*
X66576000Y58766750D01*
G75*
G02*
X66357250Y58548000I-218750J0D01*
G01*
X65919750Y58548000D01*
G75*
G02*
X65701000Y58766750I0J218750D01*
G01*
X65701000Y59279250D01*
G75*
G02*
X65919750Y59498000I218750J0D01*
G01*
X66357250Y59498000D01*
G75*
G02*
X66576000Y59279250I0J-218750D01*
G01*
G37*
G04 #@! TD*
G04 #@! TO.C,C13*
G36*
G01*
X61231000Y20528000D02*
X61731000Y20528000D01*
G75*
G02*
X61956000Y20303000I0J-225000D01*
G01*
X61956000Y19853000D01*
G75*
G02*
X61731000Y19628000I-225000J0D01*
G01*
X61231000Y19628000D01*
G75*
G02*
X61006000Y19853000I0J225000D01*
G01*
X61006000Y20303000D01*
G75*
G02*
X61231000Y20528000I225000J0D01*
G01*
G37*
G36*
G01*
X61231000Y18978000D02*
X61731000Y18978000D01*
G75*
G02*
X61956000Y18753000I0J-225000D01*
G01*
X61956000Y18303000D01*
G75*
G02*
X61731000Y18078000I-225000J0D01*
G01*
X61231000Y18078000D01*
G75*
G02*
X61006000Y18303000I0J225000D01*
G01*
X61006000Y18753000D01*
G75*
G02*
X61231000Y18978000I225000J0D01*
G01*
G37*
G04 #@! TD*
G04 #@! TO.C,D29*
G36*
G01*
X68151000Y65029250D02*
X68151000Y64516750D01*
G75*
G02*
X67932250Y64298000I-218750J0D01*
G01*
X67494750Y64298000D01*
G75*
G02*
X67276000Y64516750I0J218750D01*
G01*
X67276000Y65029250D01*
G75*
G02*
X67494750Y65248000I218750J0D01*
G01*
X67932250Y65248000D01*
G75*
G02*
X68151000Y65029250I0J-218750D01*
G01*
G37*
G36*
G01*
X66576000Y65029250D02*
X66576000Y64516750D01*
G75*
G02*
X66357250Y64298000I-218750J0D01*
G01*
X65919750Y64298000D01*
G75*
G02*
X65701000Y64516750I0J218750D01*
G01*
X65701000Y65029250D01*
G75*
G02*
X65919750Y65248000I218750J0D01*
G01*
X66357250Y65248000D01*
G75*
G02*
X66576000Y65029250I0J-218750D01*
G01*
G37*
G04 #@! TD*
D15*
G04 #@! TO.C,SW2*
X92107250Y11216750D03*
X95507250Y11216750D03*
G04 #@! TD*
G04 #@! TO.C,D1*
G36*
G01*
X90744750Y8973000D02*
X90744750Y8460500D01*
G75*
G02*
X90526000Y8241750I-218750J0D01*
G01*
X90088500Y8241750D01*
G75*
G02*
X89869750Y8460500I0J218750D01*
G01*
X89869750Y8973000D01*
G75*
G02*
X90088500Y9191750I218750J0D01*
G01*
X90526000Y9191750D01*
G75*
G02*
X90744750Y8973000I0J-218750D01*
G01*
G37*
G36*
G01*
X89169750Y8973000D02*
X89169750Y8460500D01*
G75*
G02*
X88951000Y8241750I-218750J0D01*
G01*
X88513500Y8241750D01*
G75*
G02*
X88294750Y8460500I0J218750D01*
G01*
X88294750Y8973000D01*
G75*
G02*
X88513500Y9191750I218750J0D01*
G01*
X88951000Y9191750D01*
G75*
G02*
X89169750Y8973000I0J-218750D01*
G01*
G37*
G04 #@! TD*
D16*
G04 #@! TO.C,RN7*
X72526000Y66323000D03*
X72526000Y67123000D03*
X72526000Y67923000D03*
X72526000Y68723000D03*
X70826000Y68723000D03*
X70826000Y67923000D03*
X70826000Y67123000D03*
X70826000Y66323000D03*
G04 #@! TD*
D17*
G04 #@! TO.C,U6*
X64891000Y35873000D03*
X63621000Y35873000D03*
X62351000Y35873000D03*
X61081000Y35873000D03*
X59811000Y35873000D03*
X58541000Y35873000D03*
X57271000Y35873000D03*
X56001000Y35873000D03*
X54731000Y35873000D03*
X53461000Y35873000D03*
X53461000Y22673000D03*
X54731000Y22673000D03*
X56001000Y22673000D03*
X57271000Y22673000D03*
X58541000Y22673000D03*
X59811000Y22673000D03*
X61081000Y22673000D03*
X62351000Y22673000D03*
X63621000Y22673000D03*
X64891000Y22673000D03*
D18*
X66288000Y29273000D03*
D19*
X59176000Y29273000D03*
D18*
X52064000Y29273000D03*
G04 #@! TD*
D12*
G04 #@! TO.C,Q7*
X147701000Y22048000D03*
X144351000Y22048000D03*
X147701000Y18998000D03*
X144351000Y18998000D03*
D13*
X139726000Y22803000D03*
X139726000Y18243000D03*
G04 #@! TD*
G04 #@! TO.C,D28*
G36*
G01*
X68151000Y68529250D02*
X68151000Y68016750D01*
G75*
G02*
X67932250Y67798000I-218750J0D01*
G01*
X67494750Y67798000D01*
G75*
G02*
X67276000Y68016750I0J218750D01*
G01*
X67276000Y68529250D01*
G75*
G02*
X67494750Y68748000I218750J0D01*
G01*
X67932250Y68748000D01*
G75*
G02*
X68151000Y68529250I0J-218750D01*
G01*
G37*
G36*
G01*
X66576000Y68529250D02*
X66576000Y68016750D01*
G75*
G02*
X66357250Y67798000I-218750J0D01*
G01*
X65919750Y67798000D01*
G75*
G02*
X65701000Y68016750I0J218750D01*
G01*
X65701000Y68529250D01*
G75*
G02*
X65919750Y68748000I218750J0D01*
G01*
X66357250Y68748000D01*
G75*
G02*
X66576000Y68529250I0J-218750D01*
G01*
G37*
G04 #@! TD*
G04 #@! TO.C,R9*
G36*
G01*
X137601000Y57448000D02*
X134751000Y57448000D01*
G75*
G02*
X134501000Y57698000I0J250000D01*
G01*
X134501000Y58423000D01*
G75*
G02*
X134751000Y58673000I250000J0D01*
G01*
X137601000Y58673000D01*
G75*
G02*
X137851000Y58423000I0J-250000D01*
G01*
X137851000Y57698000D01*
G75*
G02*
X137601000Y57448000I-250000J0D01*
G01*
G37*
G36*
G01*
X137601000Y63373000D02*
X134751000Y63373000D01*
G75*
G02*
X134501000Y63623000I0J250000D01*
G01*
X134501000Y64348000D01*
G75*
G02*
X134751000Y64598000I250000J0D01*
G01*
X137601000Y64598000D01*
G75*
G02*
X137851000Y64348000I0J-250000D01*
G01*
X137851000Y63623000D01*
G75*
G02*
X137601000Y63373000I-250000J0D01*
G01*
G37*
G04 #@! TD*
G04 #@! TO.C,D11*
G36*
G01*
X68151000Y76029250D02*
X68151000Y75516750D01*
G75*
G02*
X67932250Y75298000I-218750J0D01*
G01*
X67494750Y75298000D01*
G75*
G02*
X67276000Y75516750I0J218750D01*
G01*
X67276000Y76029250D01*
G75*
G02*
X67494750Y76248000I218750J0D01*
G01*
X67932250Y76248000D01*
G75*
G02*
X68151000Y76029250I0J-218750D01*
G01*
G37*
G36*
G01*
X66576000Y76029250D02*
X66576000Y75516750D01*
G75*
G02*
X66357250Y75298000I-218750J0D01*
G01*
X65919750Y75298000D01*
G75*
G02*
X65701000Y75516750I0J218750D01*
G01*
X65701000Y76029250D01*
G75*
G02*
X65919750Y76248000I218750J0D01*
G01*
X66357250Y76248000D01*
G75*
G02*
X66576000Y76029250I0J-218750D01*
G01*
G37*
G04 #@! TD*
G04 #@! TO.C,C21*
G36*
G01*
X56926000Y39298000D02*
X56426000Y39298000D01*
G75*
G02*
X56201000Y39523000I0J225000D01*
G01*
X56201000Y39973000D01*
G75*
G02*
X56426000Y40198000I225000J0D01*
G01*
X56926000Y40198000D01*
G75*
G02*
X57151000Y39973000I0J-225000D01*
G01*
X57151000Y39523000D01*
G75*
G02*
X56926000Y39298000I-225000J0D01*
G01*
G37*
G36*
G01*
X56926000Y40848000D02*
X56426000Y40848000D01*
G75*
G02*
X56201000Y41073000I0J225000D01*
G01*
X56201000Y41523000D01*
G75*
G02*
X56426000Y41748000I225000J0D01*
G01*
X56926000Y41748000D01*
G75*
G02*
X57151000Y41523000I0J-225000D01*
G01*
X57151000Y41073000D01*
G75*
G02*
X56926000Y40848000I-225000J0D01*
G01*
G37*
G04 #@! TD*
G04 #@! TO.C,D22*
G36*
G01*
X121988500Y62766750D02*
X121988500Y63279250D01*
G75*
G02*
X122207250Y63498000I218750J0D01*
G01*
X122644750Y63498000D01*
G75*
G02*
X122863500Y63279250I0J-218750D01*
G01*
X122863500Y62766750D01*
G75*
G02*
X122644750Y62548000I-218750J0D01*
G01*
X122207250Y62548000D01*
G75*
G02*
X121988500Y62766750I0J218750D01*
G01*
G37*
G36*
G01*
X123563500Y62766750D02*
X123563500Y63279250D01*
G75*
G02*
X123782250Y63498000I218750J0D01*
G01*
X124219750Y63498000D01*
G75*
G02*
X124438500Y63279250I0J-218750D01*
G01*
X124438500Y62766750D01*
G75*
G02*
X124219750Y62548000I-218750J0D01*
G01*
X123782250Y62548000D01*
G75*
G02*
X123563500Y62766750I0J218750D01*
G01*
G37*
G04 #@! TD*
G04 #@! TO.C,C17*
G36*
G01*
X60426000Y39298000D02*
X59926000Y39298000D01*
G75*
G02*
X59701000Y39523000I0J225000D01*
G01*
X59701000Y39973000D01*
G75*
G02*
X59926000Y40198000I225000J0D01*
G01*
X60426000Y40198000D01*
G75*
G02*
X60651000Y39973000I0J-225000D01*
G01*
X60651000Y39523000D01*
G75*
G02*
X60426000Y39298000I-225000J0D01*
G01*
G37*
G36*
G01*
X60426000Y40848000D02*
X59926000Y40848000D01*
G75*
G02*
X59701000Y41073000I0J225000D01*
G01*
X59701000Y41523000D01*
G75*
G02*
X59926000Y41748000I225000J0D01*
G01*
X60426000Y41748000D01*
G75*
G02*
X60651000Y41523000I0J-225000D01*
G01*
X60651000Y41073000D01*
G75*
G02*
X60426000Y40848000I-225000J0D01*
G01*
G37*
G04 #@! TD*
D16*
G04 #@! TO.C,RN4*
X72526000Y72573000D03*
X72526000Y73373000D03*
X72526000Y74173000D03*
X72526000Y74973000D03*
X70826000Y74973000D03*
X70826000Y74173000D03*
X70826000Y73373000D03*
X70826000Y72573000D03*
G04 #@! TD*
G04 #@! TO.C,C11*
G36*
G01*
X59231000Y20553000D02*
X59731000Y20553000D01*
G75*
G02*
X59956000Y20328000I0J-225000D01*
G01*
X59956000Y19878000D01*
G75*
G02*
X59731000Y19653000I-225000J0D01*
G01*
X59231000Y19653000D01*
G75*
G02*
X59006000Y19878000I0J225000D01*
G01*
X59006000Y20328000D01*
G75*
G02*
X59231000Y20553000I225000J0D01*
G01*
G37*
G36*
G01*
X59231000Y19003000D02*
X59731000Y19003000D01*
G75*
G02*
X59956000Y18778000I0J-225000D01*
G01*
X59956000Y18328000D01*
G75*
G02*
X59731000Y18103000I-225000J0D01*
G01*
X59231000Y18103000D01*
G75*
G02*
X59006000Y18328000I0J225000D01*
G01*
X59006000Y18778000D01*
G75*
G02*
X59231000Y19003000I225000J0D01*
G01*
G37*
G04 #@! TD*
G04 #@! TO.C,C15*
G36*
G01*
X53686000Y41693000D02*
X53686000Y41353000D01*
G75*
G02*
X53546000Y41213000I-140000J0D01*
G01*
X53266000Y41213000D01*
G75*
G02*
X53126000Y41353000I0J140000D01*
G01*
X53126000Y41693000D01*
G75*
G02*
X53266000Y41833000I140000J0D01*
G01*
X53546000Y41833000D01*
G75*
G02*
X53686000Y41693000I0J-140000D01*
G01*
G37*
G36*
G01*
X52726000Y41693000D02*
X52726000Y41353000D01*
G75*
G02*
X52586000Y41213000I-140000J0D01*
G01*
X52306000Y41213000D01*
G75*
G02*
X52166000Y41353000I0J140000D01*
G01*
X52166000Y41693000D01*
G75*
G02*
X52306000Y41833000I140000J0D01*
G01*
X52586000Y41833000D01*
G75*
G02*
X52726000Y41693000I0J-140000D01*
G01*
G37*
G04 #@! TD*
G04 #@! TO.C,R26*
G36*
G01*
X104706000Y95458000D02*
X104706000Y95088000D01*
G75*
G02*
X104571000Y94953000I-135000J0D01*
G01*
X104301000Y94953000D01*
G75*
G02*
X104166000Y95088000I0J135000D01*
G01*
X104166000Y95458000D01*
G75*
G02*
X104301000Y95593000I135000J0D01*
G01*
X104571000Y95593000D01*
G75*
G02*
X104706000Y95458000I0J-135000D01*
G01*
G37*
G36*
G01*
X103686000Y95458000D02*
X103686000Y95088000D01*
G75*
G02*
X103551000Y94953000I-135000J0D01*
G01*
X103281000Y94953000D01*
G75*
G02*
X103146000Y95088000I0J135000D01*
G01*
X103146000Y95458000D01*
G75*
G02*
X103281000Y95593000I135000J0D01*
G01*
X103551000Y95593000D01*
G75*
G02*
X103686000Y95458000I0J-135000D01*
G01*
G37*
G04 #@! TD*
G04 #@! TO.C,R14*
G36*
G01*
X134751000Y15098000D02*
X137601000Y15098000D01*
G75*
G02*
X137851000Y14848000I0J-250000D01*
G01*
X137851000Y14123000D01*
G75*
G02*
X137601000Y13873000I-250000J0D01*
G01*
X134751000Y13873000D01*
G75*
G02*
X134501000Y14123000I0J250000D01*
G01*
X134501000Y14848000D01*
G75*
G02*
X134751000Y15098000I250000J0D01*
G01*
G37*
G36*
G01*
X134751000Y9173000D02*
X137601000Y9173000D01*
G75*
G02*
X137851000Y8923000I0J-250000D01*
G01*
X137851000Y8198000D01*
G75*
G02*
X137601000Y7948000I-250000J0D01*
G01*
X134751000Y7948000D01*
G75*
G02*
X134501000Y8198000I0J250000D01*
G01*
X134501000Y8923000D01*
G75*
G02*
X134751000Y9173000I250000J0D01*
G01*
G37*
G04 #@! TD*
G04 #@! TO.C,D16*
G36*
G01*
X121951000Y53916750D02*
X121951000Y54429250D01*
G75*
G02*
X122169750Y54648000I218750J0D01*
G01*
X122607250Y54648000D01*
G75*
G02*
X122826000Y54429250I0J-218750D01*
G01*
X122826000Y53916750D01*
G75*
G02*
X122607250Y53698000I-218750J0D01*
G01*
X122169750Y53698000D01*
G75*
G02*
X121951000Y53916750I0J218750D01*
G01*
G37*
G36*
G01*
X123526000Y53916750D02*
X123526000Y54429250D01*
G75*
G02*
X123744750Y54648000I218750J0D01*
G01*
X124182250Y54648000D01*
G75*
G02*
X124401000Y54429250I0J-218750D01*
G01*
X124401000Y53916750D01*
G75*
G02*
X124182250Y53698000I-218750J0D01*
G01*
X123744750Y53698000D01*
G75*
G02*
X123526000Y53916750I0J218750D01*
G01*
G37*
G04 #@! TD*
G04 #@! TO.C,R4*
G36*
G01*
X74646000Y88838000D02*
X74646000Y89208000D01*
G75*
G02*
X74781000Y89343000I135000J0D01*
G01*
X75051000Y89343000D01*
G75*
G02*
X75186000Y89208000I0J-135000D01*
G01*
X75186000Y88838000D01*
G75*
G02*
X75051000Y88703000I-135000J0D01*
G01*
X74781000Y88703000D01*
G75*
G02*
X74646000Y88838000I0J135000D01*
G01*
G37*
G36*
G01*
X75666000Y88838000D02*
X75666000Y89208000D01*
G75*
G02*
X75801000Y89343000I135000J0D01*
G01*
X76071000Y89343000D01*
G75*
G02*
X76206000Y89208000I0J-135000D01*
G01*
X76206000Y88838000D01*
G75*
G02*
X76071000Y88703000I-135000J0D01*
G01*
X75801000Y88703000D01*
G75*
G02*
X75666000Y88838000I0J135000D01*
G01*
G37*
G04 #@! TD*
G04 #@! TO.C,R7*
G36*
G01*
X137601000Y27198000D02*
X134751000Y27198000D01*
G75*
G02*
X134501000Y27448000I0J250000D01*
G01*
X134501000Y28173000D01*
G75*
G02*
X134751000Y28423000I250000J0D01*
G01*
X137601000Y28423000D01*
G75*
G02*
X137851000Y28173000I0J-250000D01*
G01*
X137851000Y27448000D01*
G75*
G02*
X137601000Y27198000I-250000J0D01*
G01*
G37*
G36*
G01*
X137601000Y33123000D02*
X134751000Y33123000D01*
G75*
G02*
X134501000Y33373000I0J250000D01*
G01*
X134501000Y34098000D01*
G75*
G02*
X134751000Y34348000I250000J0D01*
G01*
X137601000Y34348000D01*
G75*
G02*
X137851000Y34098000I0J-250000D01*
G01*
X137851000Y33373000D01*
G75*
G02*
X137601000Y33123000I-250000J0D01*
G01*
G37*
G04 #@! TD*
G04 #@! TO.C,RN5*
X117826000Y57523000D03*
X117826000Y56723000D03*
X117826000Y55923000D03*
X117826000Y55123000D03*
X119526000Y55123000D03*
X119526000Y55923000D03*
X119526000Y56723000D03*
X119526000Y57523000D03*
G04 #@! TD*
G04 #@! TO.C,C19*
G36*
G01*
X58676000Y39298000D02*
X58176000Y39298000D01*
G75*
G02*
X57951000Y39523000I0J225000D01*
G01*
X57951000Y39973000D01*
G75*
G02*
X58176000Y40198000I225000J0D01*
G01*
X58676000Y40198000D01*
G75*
G02*
X58901000Y39973000I0J-225000D01*
G01*
X58901000Y39523000D01*
G75*
G02*
X58676000Y39298000I-225000J0D01*
G01*
G37*
G36*
G01*
X58676000Y40848000D02*
X58176000Y40848000D01*
G75*
G02*
X57951000Y41073000I0J225000D01*
G01*
X57951000Y41523000D01*
G75*
G02*
X58176000Y41748000I225000J0D01*
G01*
X58676000Y41748000D01*
G75*
G02*
X58901000Y41523000I0J-225000D01*
G01*
X58901000Y41073000D01*
G75*
G02*
X58676000Y40848000I-225000J0D01*
G01*
G37*
G04 #@! TD*
G04 #@! TO.C,R18*
G36*
G01*
X136646000Y44088000D02*
X136646000Y44458000D01*
G75*
G02*
X136781000Y44593000I135000J0D01*
G01*
X137051000Y44593000D01*
G75*
G02*
X137186000Y44458000I0J-135000D01*
G01*
X137186000Y44088000D01*
G75*
G02*
X137051000Y43953000I-135000J0D01*
G01*
X136781000Y43953000D01*
G75*
G02*
X136646000Y44088000I0J135000D01*
G01*
G37*
G36*
G01*
X137666000Y44088000D02*
X137666000Y44458000D01*
G75*
G02*
X137801000Y44593000I135000J0D01*
G01*
X138071000Y44593000D01*
G75*
G02*
X138206000Y44458000I0J-135000D01*
G01*
X138206000Y44088000D01*
G75*
G02*
X138071000Y43953000I-135000J0D01*
G01*
X137801000Y43953000D01*
G75*
G02*
X137666000Y44088000I0J135000D01*
G01*
G37*
G04 #@! TD*
G04 #@! TO.C,R5*
G36*
G01*
X84906000Y94588000D02*
X84906000Y94958000D01*
G75*
G02*
X85041000Y95093000I135000J0D01*
G01*
X85311000Y95093000D01*
G75*
G02*
X85446000Y94958000I0J-135000D01*
G01*
X85446000Y94588000D01*
G75*
G02*
X85311000Y94453000I-135000J0D01*
G01*
X85041000Y94453000D01*
G75*
G02*
X84906000Y94588000I0J135000D01*
G01*
G37*
G36*
G01*
X85926000Y94588000D02*
X85926000Y94958000D01*
G75*
G02*
X86061000Y95093000I135000J0D01*
G01*
X86331000Y95093000D01*
G75*
G02*
X86466000Y94958000I0J-135000D01*
G01*
X86466000Y94588000D01*
G75*
G02*
X86331000Y94453000I-135000J0D01*
G01*
X86061000Y94453000D01*
G75*
G02*
X85926000Y94588000I0J135000D01*
G01*
G37*
G04 #@! TD*
G04 #@! TO.C,R12*
G36*
G01*
X134751000Y84098000D02*
X137601000Y84098000D01*
G75*
G02*
X137851000Y83848000I0J-250000D01*
G01*
X137851000Y83123000D01*
G75*
G02*
X137601000Y82873000I-250000J0D01*
G01*
X134751000Y82873000D01*
G75*
G02*
X134501000Y83123000I0J250000D01*
G01*
X134501000Y83848000D01*
G75*
G02*
X134751000Y84098000I250000J0D01*
G01*
G37*
G36*
G01*
X134751000Y78173000D02*
X137601000Y78173000D01*
G75*
G02*
X137851000Y77923000I0J-250000D01*
G01*
X137851000Y77198000D01*
G75*
G02*
X137601000Y76948000I-250000J0D01*
G01*
X134751000Y76948000D01*
G75*
G02*
X134501000Y77198000I0J250000D01*
G01*
X134501000Y77923000D01*
G75*
G02*
X134751000Y78173000I250000J0D01*
G01*
G37*
G04 #@! TD*
G04 #@! TO.C,RN6*
X118076000Y65123000D03*
X118076000Y64323000D03*
X118076000Y63523000D03*
X118076000Y62723000D03*
X119776000Y62723000D03*
X119776000Y63523000D03*
X119776000Y64323000D03*
X119776000Y65123000D03*
G04 #@! TD*
G04 #@! TO.C,D3*
G36*
G01*
X78201000Y67266750D02*
X78201000Y67779250D01*
G75*
G02*
X78419750Y67998000I218750J0D01*
G01*
X78857250Y67998000D01*
G75*
G02*
X79076000Y67779250I0J-218750D01*
G01*
X79076000Y67266750D01*
G75*
G02*
X78857250Y67048000I-218750J0D01*
G01*
X78419750Y67048000D01*
G75*
G02*
X78201000Y67266750I0J218750D01*
G01*
G37*
G36*
G01*
X79776000Y67266750D02*
X79776000Y67779250D01*
G75*
G02*
X79994750Y67998000I218750J0D01*
G01*
X80432250Y67998000D01*
G75*
G02*
X80651000Y67779250I0J-218750D01*
G01*
X80651000Y67266750D01*
G75*
G02*
X80432250Y67048000I-218750J0D01*
G01*
X79994750Y67048000D01*
G75*
G02*
X79776000Y67266750I0J218750D01*
G01*
G37*
G04 #@! TD*
G04 #@! TO.C,C12*
G36*
G01*
X47436000Y38603000D02*
X47436000Y38943000D01*
G75*
G02*
X47576000Y39083000I140000J0D01*
G01*
X47856000Y39083000D01*
G75*
G02*
X47996000Y38943000I0J-140000D01*
G01*
X47996000Y38603000D01*
G75*
G02*
X47856000Y38463000I-140000J0D01*
G01*
X47576000Y38463000D01*
G75*
G02*
X47436000Y38603000I0J140000D01*
G01*
G37*
G36*
G01*
X48396000Y38603000D02*
X48396000Y38943000D01*
G75*
G02*
X48536000Y39083000I140000J0D01*
G01*
X48816000Y39083000D01*
G75*
G02*
X48956000Y38943000I0J-140000D01*
G01*
X48956000Y38603000D01*
G75*
G02*
X48816000Y38463000I-140000J0D01*
G01*
X48536000Y38463000D01*
G75*
G02*
X48396000Y38603000I0J140000D01*
G01*
G37*
G04 #@! TD*
G04 #@! TO.C,C8*
G36*
G01*
X28676000Y48548000D02*
X28176000Y48548000D01*
G75*
G02*
X27951000Y48773000I0J225000D01*
G01*
X27951000Y49223000D01*
G75*
G02*
X28176000Y49448000I225000J0D01*
G01*
X28676000Y49448000D01*
G75*
G02*
X28901000Y49223000I0J-225000D01*
G01*
X28901000Y48773000D01*
G75*
G02*
X28676000Y48548000I-225000J0D01*
G01*
G37*
G36*
G01*
X28676000Y50098000D02*
X28176000Y50098000D01*
G75*
G02*
X27951000Y50323000I0J225000D01*
G01*
X27951000Y50773000D01*
G75*
G02*
X28176000Y50998000I225000J0D01*
G01*
X28676000Y50998000D01*
G75*
G02*
X28901000Y50773000I0J-225000D01*
G01*
X28901000Y50323000D01*
G75*
G02*
X28676000Y50098000I-225000J0D01*
G01*
G37*
G04 #@! TD*
G04 #@! TO.C,D18*
G36*
G01*
X121988500Y61016750D02*
X121988500Y61529250D01*
G75*
G02*
X122207250Y61748000I218750J0D01*
G01*
X122644750Y61748000D01*
G75*
G02*
X122863500Y61529250I0J-218750D01*
G01*
X122863500Y61016750D01*
G75*
G02*
X122644750Y60798000I-218750J0D01*
G01*
X122207250Y60798000D01*
G75*
G02*
X121988500Y61016750I0J218750D01*
G01*
G37*
G36*
G01*
X123563500Y61016750D02*
X123563500Y61529250D01*
G75*
G02*
X123782250Y61748000I218750J0D01*
G01*
X124219750Y61748000D01*
G75*
G02*
X124438500Y61529250I0J-218750D01*
G01*
X124438500Y61016750D01*
G75*
G02*
X124219750Y60798000I-218750J0D01*
G01*
X123782250Y60798000D01*
G75*
G02*
X123563500Y61016750I0J218750D01*
G01*
G37*
G04 #@! TD*
G04 #@! TO.C,R2*
G36*
G01*
X85489750Y8531750D02*
X85489750Y8901750D01*
G75*
G02*
X85624750Y9036750I135000J0D01*
G01*
X85894750Y9036750D01*
G75*
G02*
X86029750Y8901750I0J-135000D01*
G01*
X86029750Y8531750D01*
G75*
G02*
X85894750Y8396750I-135000J0D01*
G01*
X85624750Y8396750D01*
G75*
G02*
X85489750Y8531750I0J135000D01*
G01*
G37*
G36*
G01*
X86509750Y8531750D02*
X86509750Y8901750D01*
G75*
G02*
X86644750Y9036750I135000J0D01*
G01*
X86914750Y9036750D01*
G75*
G02*
X87049750Y8901750I0J-135000D01*
G01*
X87049750Y8531750D01*
G75*
G02*
X86914750Y8396750I-135000J0D01*
G01*
X86644750Y8396750D01*
G75*
G02*
X86509750Y8531750I0J135000D01*
G01*
G37*
G04 #@! TD*
D12*
G04 #@! TO.C,Q8*
X144351000Y8998000D03*
X144351000Y12048000D03*
X147701000Y8998000D03*
X147701000Y12048000D03*
D13*
X139726000Y12803000D03*
X139726000Y8243000D03*
G04 #@! TD*
G04 #@! TO.C,D15*
G36*
G01*
X68151000Y74279250D02*
X68151000Y73766750D01*
G75*
G02*
X67932250Y73548000I-218750J0D01*
G01*
X67494750Y73548000D01*
G75*
G02*
X67276000Y73766750I0J218750D01*
G01*
X67276000Y74279250D01*
G75*
G02*
X67494750Y74498000I218750J0D01*
G01*
X67932250Y74498000D01*
G75*
G02*
X68151000Y74279250I0J-218750D01*
G01*
G37*
G36*
G01*
X66576000Y74279250D02*
X66576000Y73766750D01*
G75*
G02*
X66357250Y73548000I-218750J0D01*
G01*
X65919750Y73548000D01*
G75*
G02*
X65701000Y73766750I0J218750D01*
G01*
X65701000Y74279250D01*
G75*
G02*
X65919750Y74498000I218750J0D01*
G01*
X66357250Y74498000D01*
G75*
G02*
X66576000Y74279250I0J-218750D01*
G01*
G37*
G04 #@! TD*
G04 #@! TO.C,D20*
G36*
G01*
X121913500Y55666750D02*
X121913500Y56179250D01*
G75*
G02*
X122132250Y56398000I218750J0D01*
G01*
X122569750Y56398000D01*
G75*
G02*
X122788500Y56179250I0J-218750D01*
G01*
X122788500Y55666750D01*
G75*
G02*
X122569750Y55448000I-218750J0D01*
G01*
X122132250Y55448000D01*
G75*
G02*
X121913500Y55666750I0J218750D01*
G01*
G37*
G36*
G01*
X123488500Y55666750D02*
X123488500Y56179250D01*
G75*
G02*
X123707250Y56398000I218750J0D01*
G01*
X124144750Y56398000D01*
G75*
G02*
X124363500Y56179250I0J-218750D01*
G01*
X124363500Y55666750D01*
G75*
G02*
X124144750Y55448000I-218750J0D01*
G01*
X123707250Y55448000D01*
G75*
G02*
X123488500Y55666750I0J218750D01*
G01*
G37*
G04 #@! TD*
D16*
G04 #@! TO.C,RN8*
X72526000Y58823000D03*
X72526000Y59623000D03*
X72526000Y60423000D03*
X72526000Y61223000D03*
X70826000Y61223000D03*
X70826000Y60423000D03*
X70826000Y59623000D03*
X70826000Y58823000D03*
G04 #@! TD*
G04 #@! TO.C,R24*
G36*
G01*
X138956000Y15958000D02*
X138956000Y15588000D01*
G75*
G02*
X138821000Y15453000I-135000J0D01*
G01*
X138551000Y15453000D01*
G75*
G02*
X138416000Y15588000I0J135000D01*
G01*
X138416000Y15958000D01*
G75*
G02*
X138551000Y16093000I135000J0D01*
G01*
X138821000Y16093000D01*
G75*
G02*
X138956000Y15958000I0J-135000D01*
G01*
G37*
G36*
G01*
X137936000Y15958000D02*
X137936000Y15588000D01*
G75*
G02*
X137801000Y15453000I-135000J0D01*
G01*
X137531000Y15453000D01*
G75*
G02*
X137396000Y15588000I0J135000D01*
G01*
X137396000Y15958000D01*
G75*
G02*
X137531000Y16093000I135000J0D01*
G01*
X137801000Y16093000D01*
G75*
G02*
X137936000Y15958000I0J-135000D01*
G01*
G37*
G04 #@! TD*
G04 #@! TO.C,R23*
G36*
G01*
X138966000Y75458000D02*
X138966000Y75088000D01*
G75*
G02*
X138831000Y74953000I-135000J0D01*
G01*
X138561000Y74953000D01*
G75*
G02*
X138426000Y75088000I0J135000D01*
G01*
X138426000Y75458000D01*
G75*
G02*
X138561000Y75593000I135000J0D01*
G01*
X138831000Y75593000D01*
G75*
G02*
X138966000Y75458000I0J-135000D01*
G01*
G37*
G36*
G01*
X137946000Y75458000D02*
X137946000Y75088000D01*
G75*
G02*
X137811000Y74953000I-135000J0D01*
G01*
X137541000Y74953000D01*
G75*
G02*
X137406000Y75088000I0J135000D01*
G01*
X137406000Y75458000D01*
G75*
G02*
X137541000Y75593000I135000J0D01*
G01*
X137811000Y75593000D01*
G75*
G02*
X137946000Y75458000I0J-135000D01*
G01*
G37*
G04 #@! TD*
G04 #@! TO.C,U5*
G36*
G01*
X20726000Y48278000D02*
X20726000Y48578000D01*
G75*
G02*
X20876000Y48728000I150000J0D01*
G01*
X22526000Y48728000D01*
G75*
G02*
X22676000Y48578000I0J-150000D01*
G01*
X22676000Y48278000D01*
G75*
G02*
X22526000Y48128000I-150000J0D01*
G01*
X20876000Y48128000D01*
G75*
G02*
X20726000Y48278000I0J150000D01*
G01*
G37*
G36*
G01*
X20726000Y47008000D02*
X20726000Y47308000D01*
G75*
G02*
X20876000Y47458000I150000J0D01*
G01*
X22526000Y47458000D01*
G75*
G02*
X22676000Y47308000I0J-150000D01*
G01*
X22676000Y47008000D01*
G75*
G02*
X22526000Y46858000I-150000J0D01*
G01*
X20876000Y46858000D01*
G75*
G02*
X20726000Y47008000I0J150000D01*
G01*
G37*
G36*
G01*
X20726000Y45738000D02*
X20726000Y46038000D01*
G75*
G02*
X20876000Y46188000I150000J0D01*
G01*
X22526000Y46188000D01*
G75*
G02*
X22676000Y46038000I0J-150000D01*
G01*
X22676000Y45738000D01*
G75*
G02*
X22526000Y45588000I-150000J0D01*
G01*
X20876000Y45588000D01*
G75*
G02*
X20726000Y45738000I0J150000D01*
G01*
G37*
G36*
G01*
X20726000Y44468000D02*
X20726000Y44768000D01*
G75*
G02*
X20876000Y44918000I150000J0D01*
G01*
X22526000Y44918000D01*
G75*
G02*
X22676000Y44768000I0J-150000D01*
G01*
X22676000Y44468000D01*
G75*
G02*
X22526000Y44318000I-150000J0D01*
G01*
X20876000Y44318000D01*
G75*
G02*
X20726000Y44468000I0J150000D01*
G01*
G37*
G36*
G01*
X25676000Y44468000D02*
X25676000Y44768000D01*
G75*
G02*
X25826000Y44918000I150000J0D01*
G01*
X27476000Y44918000D01*
G75*
G02*
X27626000Y44768000I0J-150000D01*
G01*
X27626000Y44468000D01*
G75*
G02*
X27476000Y44318000I-150000J0D01*
G01*
X25826000Y44318000D01*
G75*
G02*
X25676000Y44468000I0J150000D01*
G01*
G37*
G36*
G01*
X25676000Y45738000D02*
X25676000Y46038000D01*
G75*
G02*
X25826000Y46188000I150000J0D01*
G01*
X27476000Y46188000D01*
G75*
G02*
X27626000Y46038000I0J-150000D01*
G01*
X27626000Y45738000D01*
G75*
G02*
X27476000Y45588000I-150000J0D01*
G01*
X25826000Y45588000D01*
G75*
G02*
X25676000Y45738000I0J150000D01*
G01*
G37*
G36*
G01*
X25676000Y47008000D02*
X25676000Y47308000D01*
G75*
G02*
X25826000Y47458000I150000J0D01*
G01*
X27476000Y47458000D01*
G75*
G02*
X27626000Y47308000I0J-150000D01*
G01*
X27626000Y47008000D01*
G75*
G02*
X27476000Y46858000I-150000J0D01*
G01*
X25826000Y46858000D01*
G75*
G02*
X25676000Y47008000I0J150000D01*
G01*
G37*
G36*
G01*
X25676000Y48278000D02*
X25676000Y48578000D01*
G75*
G02*
X25826000Y48728000I150000J0D01*
G01*
X27476000Y48728000D01*
G75*
G02*
X27626000Y48578000I0J-150000D01*
G01*
X27626000Y48278000D01*
G75*
G02*
X27476000Y48128000I-150000J0D01*
G01*
X25826000Y48128000D01*
G75*
G02*
X25676000Y48278000I0J150000D01*
G01*
G37*
G04 #@! TD*
G04 #@! TO.C,R25*
G36*
G01*
X104706000Y96708000D02*
X104706000Y96338000D01*
G75*
G02*
X104571000Y96203000I-135000J0D01*
G01*
X104301000Y96203000D01*
G75*
G02*
X104166000Y96338000I0J135000D01*
G01*
X104166000Y96708000D01*
G75*
G02*
X104301000Y96843000I135000J0D01*
G01*
X104571000Y96843000D01*
G75*
G02*
X104706000Y96708000I0J-135000D01*
G01*
G37*
G36*
G01*
X103686000Y96708000D02*
X103686000Y96338000D01*
G75*
G02*
X103551000Y96203000I-135000J0D01*
G01*
X103281000Y96203000D01*
G75*
G02*
X103146000Y96338000I0J135000D01*
G01*
X103146000Y96708000D01*
G75*
G02*
X103281000Y96843000I135000J0D01*
G01*
X103551000Y96843000D01*
G75*
G02*
X103686000Y96708000I0J-135000D01*
G01*
G37*
G04 #@! TD*
D20*
G04 #@! TO.C,M4*
X127125996Y19747997D03*
G04 #@! TD*
G04 #@! TO.C,R8*
G36*
G01*
X137601000Y36198000D02*
X134751000Y36198000D01*
G75*
G02*
X134501000Y36448000I0J250000D01*
G01*
X134501000Y37173000D01*
G75*
G02*
X134751000Y37423000I250000J0D01*
G01*
X137601000Y37423000D01*
G75*
G02*
X137851000Y37173000I0J-250000D01*
G01*
X137851000Y36448000D01*
G75*
G02*
X137601000Y36198000I-250000J0D01*
G01*
G37*
G36*
G01*
X137601000Y42123000D02*
X134751000Y42123000D01*
G75*
G02*
X134501000Y42373000I0J250000D01*
G01*
X134501000Y43098000D01*
G75*
G02*
X134751000Y43348000I250000J0D01*
G01*
X137601000Y43348000D01*
G75*
G02*
X137851000Y43098000I0J-250000D01*
G01*
X137851000Y42373000D01*
G75*
G02*
X137601000Y42123000I-250000J0D01*
G01*
G37*
G04 #@! TD*
G04 #@! TO.C,D21*
G36*
G01*
X121951000Y59166750D02*
X121951000Y59679250D01*
G75*
G02*
X122169750Y59898000I218750J0D01*
G01*
X122607250Y59898000D01*
G75*
G02*
X122826000Y59679250I0J-218750D01*
G01*
X122826000Y59166750D01*
G75*
G02*
X122607250Y58948000I-218750J0D01*
G01*
X122169750Y58948000D01*
G75*
G02*
X121951000Y59166750I0J218750D01*
G01*
G37*
G36*
G01*
X123526000Y59166750D02*
X123526000Y59679250D01*
G75*
G02*
X123744750Y59898000I218750J0D01*
G01*
X124182250Y59898000D01*
G75*
G02*
X124401000Y59679250I0J-218750D01*
G01*
X124401000Y59166750D01*
G75*
G02*
X124182250Y58948000I-218750J0D01*
G01*
X123744750Y58948000D01*
G75*
G02*
X123526000Y59166750I0J218750D01*
G01*
G37*
G04 #@! TD*
G04 #@! TO.C,R13*
G36*
G01*
X134751000Y74598000D02*
X137601000Y74598000D01*
G75*
G02*
X137851000Y74348000I0J-250000D01*
G01*
X137851000Y73623000D01*
G75*
G02*
X137601000Y73373000I-250000J0D01*
G01*
X134751000Y73373000D01*
G75*
G02*
X134501000Y73623000I0J250000D01*
G01*
X134501000Y74348000D01*
G75*
G02*
X134751000Y74598000I250000J0D01*
G01*
G37*
G36*
G01*
X134751000Y68673000D02*
X137601000Y68673000D01*
G75*
G02*
X137851000Y68423000I0J-250000D01*
G01*
X137851000Y67698000D01*
G75*
G02*
X137601000Y67448000I-250000J0D01*
G01*
X134751000Y67448000D01*
G75*
G02*
X134501000Y67698000I0J250000D01*
G01*
X134501000Y68423000D01*
G75*
G02*
X134751000Y68673000I250000J0D01*
G01*
G37*
G04 #@! TD*
D21*
G04 #@! TO.C,U3*
X86426000Y17523000D03*
X85926000Y17523000D03*
X85426000Y17523000D03*
X84926000Y17523000D03*
D22*
X84916000Y17013000D03*
X84916000Y16513000D03*
D21*
X84926000Y16003000D03*
X85426000Y16003000D03*
X85926000Y16003000D03*
X86426000Y16003000D03*
D22*
X86436000Y16513000D03*
X86436000Y17013000D03*
G04 #@! TD*
G04 #@! TO.C,R3*
G36*
G01*
X43933500Y37338000D02*
X43933500Y37708000D01*
G75*
G02*
X44068500Y37843000I135000J0D01*
G01*
X44338500Y37843000D01*
G75*
G02*
X44473500Y37708000I0J-135000D01*
G01*
X44473500Y37338000D01*
G75*
G02*
X44338500Y37203000I-135000J0D01*
G01*
X44068500Y37203000D01*
G75*
G02*
X43933500Y37338000I0J135000D01*
G01*
G37*
G36*
G01*
X44953500Y37338000D02*
X44953500Y37708000D01*
G75*
G02*
X45088500Y37843000I135000J0D01*
G01*
X45358500Y37843000D01*
G75*
G02*
X45493500Y37708000I0J-135000D01*
G01*
X45493500Y37338000D01*
G75*
G02*
X45358500Y37203000I-135000J0D01*
G01*
X45088500Y37203000D01*
G75*
G02*
X44953500Y37338000I0J135000D01*
G01*
G37*
G04 #@! TD*
G04 #@! TO.C,R21*
G36*
G01*
X138956000Y94958000D02*
X138956000Y94588000D01*
G75*
G02*
X138821000Y94453000I-135000J0D01*
G01*
X138551000Y94453000D01*
G75*
G02*
X138416000Y94588000I0J135000D01*
G01*
X138416000Y94958000D01*
G75*
G02*
X138551000Y95093000I135000J0D01*
G01*
X138821000Y95093000D01*
G75*
G02*
X138956000Y94958000I0J-135000D01*
G01*
G37*
G36*
G01*
X137936000Y94958000D02*
X137936000Y94588000D01*
G75*
G02*
X137801000Y94453000I-135000J0D01*
G01*
X137531000Y94453000D01*
G75*
G02*
X137396000Y94588000I0J135000D01*
G01*
X137396000Y94958000D01*
G75*
G02*
X137531000Y95093000I135000J0D01*
G01*
X137801000Y95093000D01*
G75*
G02*
X137936000Y94958000I0J-135000D01*
G01*
G37*
G04 #@! TD*
G04 #@! TO.C,C6*
G36*
G01*
X26686000Y50193000D02*
X26686000Y49853000D01*
G75*
G02*
X26546000Y49713000I-140000J0D01*
G01*
X26266000Y49713000D01*
G75*
G02*
X26126000Y49853000I0J140000D01*
G01*
X26126000Y50193000D01*
G75*
G02*
X26266000Y50333000I140000J0D01*
G01*
X26546000Y50333000D01*
G75*
G02*
X26686000Y50193000I0J-140000D01*
G01*
G37*
G36*
G01*
X25726000Y50193000D02*
X25726000Y49853000D01*
G75*
G02*
X25586000Y49713000I-140000J0D01*
G01*
X25306000Y49713000D01*
G75*
G02*
X25166000Y49853000I0J140000D01*
G01*
X25166000Y50193000D01*
G75*
G02*
X25306000Y50333000I140000J0D01*
G01*
X25586000Y50333000D01*
G75*
G02*
X25726000Y50193000I0J-140000D01*
G01*
G37*
G04 #@! TD*
G04 #@! TO.C,R15*
G36*
G01*
X90446000Y18208000D02*
X90446000Y17838000D01*
G75*
G02*
X90311000Y17703000I-135000J0D01*
G01*
X90041000Y17703000D01*
G75*
G02*
X89906000Y17838000I0J135000D01*
G01*
X89906000Y18208000D01*
G75*
G02*
X90041000Y18343000I135000J0D01*
G01*
X90311000Y18343000D01*
G75*
G02*
X90446000Y18208000I0J-135000D01*
G01*
G37*
G36*
G01*
X89426000Y18208000D02*
X89426000Y17838000D01*
G75*
G02*
X89291000Y17703000I-135000J0D01*
G01*
X89021000Y17703000D01*
G75*
G02*
X88886000Y17838000I0J135000D01*
G01*
X88886000Y18208000D01*
G75*
G02*
X89021000Y18343000I135000J0D01*
G01*
X89291000Y18343000D01*
G75*
G02*
X89426000Y18208000I0J-135000D01*
G01*
G37*
G04 #@! TD*
G04 #@! TO.C,D24*
G36*
G01*
X68151000Y70279250D02*
X68151000Y69766750D01*
G75*
G02*
X67932250Y69548000I-218750J0D01*
G01*
X67494750Y69548000D01*
G75*
G02*
X67276000Y69766750I0J218750D01*
G01*
X67276000Y70279250D01*
G75*
G02*
X67494750Y70498000I218750J0D01*
G01*
X67932250Y70498000D01*
G75*
G02*
X68151000Y70279250I0J-218750D01*
G01*
G37*
G36*
G01*
X66576000Y70279250D02*
X66576000Y69766750D01*
G75*
G02*
X66357250Y69548000I-218750J0D01*
G01*
X65919750Y69548000D01*
G75*
G02*
X65701000Y69766750I0J218750D01*
G01*
X65701000Y70279250D01*
G75*
G02*
X65919750Y70498000I218750J0D01*
G01*
X66357250Y70498000D01*
G75*
G02*
X66576000Y70279250I0J-218750D01*
G01*
G37*
G04 #@! TD*
D23*
G04 #@! TO.C,M6*
X65051002Y81151414D03*
X65051002Y82876416D03*
X65051002Y84601416D03*
X65051002Y86301414D03*
D24*
X78251001Y79676414D03*
D23*
X84006875Y85697812D03*
X84001003Y82076414D03*
G04 #@! TD*
G04 #@! TO.C,C7*
G36*
G01*
X21926000Y48798000D02*
X21426000Y48798000D01*
G75*
G02*
X21201000Y49023000I0J225000D01*
G01*
X21201000Y49473000D01*
G75*
G02*
X21426000Y49698000I225000J0D01*
G01*
X21926000Y49698000D01*
G75*
G02*
X22151000Y49473000I0J-225000D01*
G01*
X22151000Y49023000D01*
G75*
G02*
X21926000Y48798000I-225000J0D01*
G01*
G37*
G36*
G01*
X21926000Y50348000D02*
X21426000Y50348000D01*
G75*
G02*
X21201000Y50573000I0J225000D01*
G01*
X21201000Y51023000D01*
G75*
G02*
X21426000Y51248000I225000J0D01*
G01*
X21926000Y51248000D01*
G75*
G02*
X22151000Y51023000I0J-225000D01*
G01*
X22151000Y50573000D01*
G75*
G02*
X21926000Y50348000I-225000J0D01*
G01*
G37*
G04 #@! TD*
G04 #@! TO.C,D2*
G36*
G01*
X98819750Y8973000D02*
X98819750Y8460500D01*
G75*
G02*
X98601000Y8241750I-218750J0D01*
G01*
X98163500Y8241750D01*
G75*
G02*
X97944750Y8460500I0J218750D01*
G01*
X97944750Y8973000D01*
G75*
G02*
X98163500Y9191750I218750J0D01*
G01*
X98601000Y9191750D01*
G75*
G02*
X98819750Y8973000I0J-218750D01*
G01*
G37*
G36*
G01*
X97244750Y8973000D02*
X97244750Y8460500D01*
G75*
G02*
X97026000Y8241750I-218750J0D01*
G01*
X96588500Y8241750D01*
G75*
G02*
X96369750Y8460500I0J218750D01*
G01*
X96369750Y8973000D01*
G75*
G02*
X96588500Y9191750I218750J0D01*
G01*
X97026000Y9191750D01*
G75*
G02*
X97244750Y8973000I0J-218750D01*
G01*
G37*
G04 #@! TD*
G04 #@! TO.C,C3*
G36*
G01*
X99317250Y8546750D02*
X99317250Y8886750D01*
G75*
G02*
X99457250Y9026750I140000J0D01*
G01*
X99737250Y9026750D01*
G75*
G02*
X99877250Y8886750I0J-140000D01*
G01*
X99877250Y8546750D01*
G75*
G02*
X99737250Y8406750I-140000J0D01*
G01*
X99457250Y8406750D01*
G75*
G02*
X99317250Y8546750I0J140000D01*
G01*
G37*
G36*
G01*
X100277250Y8546750D02*
X100277250Y8886750D01*
G75*
G02*
X100417250Y9026750I140000J0D01*
G01*
X100697250Y9026750D01*
G75*
G02*
X100837250Y8886750I0J-140000D01*
G01*
X100837250Y8546750D01*
G75*
G02*
X100697250Y8406750I-140000J0D01*
G01*
X100417250Y8406750D01*
G75*
G02*
X100277250Y8546750I0J140000D01*
G01*
G37*
G04 #@! TD*
G04 #@! TO.C,D9*
G36*
G01*
X49388036Y17617214D02*
X49388036Y18129714D01*
G75*
G02*
X49606786Y18348464I218750J0D01*
G01*
X50044286Y18348464D01*
G75*
G02*
X50263036Y18129714I0J-218750D01*
G01*
X50263036Y17617214D01*
G75*
G02*
X50044286Y17398464I-218750J0D01*
G01*
X49606786Y17398464D01*
G75*
G02*
X49388036Y17617214I0J218750D01*
G01*
G37*
G36*
G01*
X50963036Y17617214D02*
X50963036Y18129714D01*
G75*
G02*
X51181786Y18348464I218750J0D01*
G01*
X51619286Y18348464D01*
G75*
G02*
X51838036Y18129714I0J-218750D01*
G01*
X51838036Y17617214D01*
G75*
G02*
X51619286Y17398464I-218750J0D01*
G01*
X51181786Y17398464D01*
G75*
G02*
X50963036Y17617214I0J218750D01*
G01*
G37*
G04 #@! TD*
G04 #@! TO.C,D10*
G36*
G01*
X42300536Y16379714D02*
X42300536Y15867214D01*
G75*
G02*
X42081786Y15648464I-218750J0D01*
G01*
X41644286Y15648464D01*
G75*
G02*
X41425536Y15867214I0J218750D01*
G01*
X41425536Y16379714D01*
G75*
G02*
X41644286Y16598464I218750J0D01*
G01*
X42081786Y16598464D01*
G75*
G02*
X42300536Y16379714I0J-218750D01*
G01*
G37*
G36*
G01*
X40725536Y16379714D02*
X40725536Y15867214D01*
G75*
G02*
X40506786Y15648464I-218750J0D01*
G01*
X40069286Y15648464D01*
G75*
G02*
X39850536Y15867214I0J218750D01*
G01*
X39850536Y16379714D01*
G75*
G02*
X40069286Y16598464I218750J0D01*
G01*
X40506786Y16598464D01*
G75*
G02*
X40725536Y16379714I0J-218750D01*
G01*
G37*
G04 #@! TD*
G04 #@! TO.C,C4*
G36*
G01*
X92846000Y14493000D02*
X92506000Y14493000D01*
G75*
G02*
X92366000Y14633000I0J140000D01*
G01*
X92366000Y14913000D01*
G75*
G02*
X92506000Y15053000I140000J0D01*
G01*
X92846000Y15053000D01*
G75*
G02*
X92986000Y14913000I0J-140000D01*
G01*
X92986000Y14633000D01*
G75*
G02*
X92846000Y14493000I-140000J0D01*
G01*
G37*
G36*
G01*
X92846000Y15453000D02*
X92506000Y15453000D01*
G75*
G02*
X92366000Y15593000I0J140000D01*
G01*
X92366000Y15873000D01*
G75*
G02*
X92506000Y16013000I140000J0D01*
G01*
X92846000Y16013000D01*
G75*
G02*
X92986000Y15873000I0J-140000D01*
G01*
X92986000Y15593000D01*
G75*
G02*
X92846000Y15453000I-140000J0D01*
G01*
G37*
G04 #@! TD*
G04 #@! TO.C,C5*
G36*
G01*
X86186000Y15183000D02*
X86186000Y14843000D01*
G75*
G02*
X86046000Y14703000I-140000J0D01*
G01*
X85766000Y14703000D01*
G75*
G02*
X85626000Y14843000I0J140000D01*
G01*
X85626000Y15183000D01*
G75*
G02*
X85766000Y15323000I140000J0D01*
G01*
X86046000Y15323000D01*
G75*
G02*
X86186000Y15183000I0J-140000D01*
G01*
G37*
G36*
G01*
X85226000Y15183000D02*
X85226000Y14843000D01*
G75*
G02*
X85086000Y14703000I-140000J0D01*
G01*
X84806000Y14703000D01*
G75*
G02*
X84666000Y14843000I0J140000D01*
G01*
X84666000Y15183000D01*
G75*
G02*
X84806000Y15323000I140000J0D01*
G01*
X85086000Y15323000D01*
G75*
G02*
X85226000Y15183000I0J-140000D01*
G01*
G37*
G04 #@! TD*
G04 #@! TO.C,D19*
G36*
G01*
X121988500Y64516750D02*
X121988500Y65029250D01*
G75*
G02*
X122207250Y65248000I218750J0D01*
G01*
X122644750Y65248000D01*
G75*
G02*
X122863500Y65029250I0J-218750D01*
G01*
X122863500Y64516750D01*
G75*
G02*
X122644750Y64298000I-218750J0D01*
G01*
X122207250Y64298000D01*
G75*
G02*
X121988500Y64516750I0J218750D01*
G01*
G37*
G36*
G01*
X123563500Y64516750D02*
X123563500Y65029250D01*
G75*
G02*
X123782250Y65248000I218750J0D01*
G01*
X124219750Y65248000D01*
G75*
G02*
X124438500Y65029250I0J-218750D01*
G01*
X124438500Y64516750D01*
G75*
G02*
X124219750Y64298000I-218750J0D01*
G01*
X123782250Y64298000D01*
G75*
G02*
X123563500Y64516750I0J218750D01*
G01*
G37*
G04 #@! TD*
D16*
G04 #@! TO.C,RN2*
X45276000Y38823000D03*
X45276000Y39623000D03*
X45276000Y40423000D03*
X45276000Y41223000D03*
X43576000Y41223000D03*
X43576000Y40423000D03*
X43576000Y39623000D03*
X43576000Y38823000D03*
G04 #@! TD*
G04 #@! TO.C,D31*
G36*
G01*
X68151000Y57529250D02*
X68151000Y57016750D01*
G75*
G02*
X67932250Y56798000I-218750J0D01*
G01*
X67494750Y56798000D01*
G75*
G02*
X67276000Y57016750I0J218750D01*
G01*
X67276000Y57529250D01*
G75*
G02*
X67494750Y57748000I218750J0D01*
G01*
X67932250Y57748000D01*
G75*
G02*
X68151000Y57529250I0J-218750D01*
G01*
G37*
G36*
G01*
X66576000Y57529250D02*
X66576000Y57016750D01*
G75*
G02*
X66357250Y56798000I-218750J0D01*
G01*
X65919750Y56798000D01*
G75*
G02*
X65701000Y57016750I0J218750D01*
G01*
X65701000Y57529250D01*
G75*
G02*
X65919750Y57748000I218750J0D01*
G01*
X66357250Y57748000D01*
G75*
G02*
X66576000Y57529250I0J-218750D01*
G01*
G37*
G04 #@! TD*
G04 #@! TO.C,R20*
G36*
G01*
X137396000Y25088000D02*
X137396000Y25458000D01*
G75*
G02*
X137531000Y25593000I135000J0D01*
G01*
X137801000Y25593000D01*
G75*
G02*
X137936000Y25458000I0J-135000D01*
G01*
X137936000Y25088000D01*
G75*
G02*
X137801000Y24953000I-135000J0D01*
G01*
X137531000Y24953000D01*
G75*
G02*
X137396000Y25088000I0J135000D01*
G01*
G37*
G36*
G01*
X138416000Y25088000D02*
X138416000Y25458000D01*
G75*
G02*
X138551000Y25593000I135000J0D01*
G01*
X138821000Y25593000D01*
G75*
G02*
X138956000Y25458000I0J-135000D01*
G01*
X138956000Y25088000D01*
G75*
G02*
X138821000Y24953000I-135000J0D01*
G01*
X138551000Y24953000D01*
G75*
G02*
X138416000Y25088000I0J135000D01*
G01*
G37*
G04 #@! TD*
D25*
G04 #@! TO.C,RN3*
X44663036Y16023464D03*
X45463036Y16023464D03*
X46263036Y16023464D03*
X47063036Y16023464D03*
X47063036Y17723464D03*
X46263036Y17723464D03*
X45463036Y17723464D03*
X44663036Y17723464D03*
G04 #@! TD*
D20*
G04 #@! TO.C,M5*
X75118505Y4460491D03*
X113813503Y3916187D03*
X98938501Y510476D03*
X75118500Y2560490D03*
X112113486Y5918164D03*
G04 #@! TD*
G04 #@! TO.C,D12*
G36*
G01*
X68151000Y72529250D02*
X68151000Y72016750D01*
G75*
G02*
X67932250Y71798000I-218750J0D01*
G01*
X67494750Y71798000D01*
G75*
G02*
X67276000Y72016750I0J218750D01*
G01*
X67276000Y72529250D01*
G75*
G02*
X67494750Y72748000I218750J0D01*
G01*
X67932250Y72748000D01*
G75*
G02*
X68151000Y72529250I0J-218750D01*
G01*
G37*
G36*
G01*
X66576000Y72529250D02*
X66576000Y72016750D01*
G75*
G02*
X66357250Y71798000I-218750J0D01*
G01*
X65919750Y71798000D01*
G75*
G02*
X65701000Y72016750I0J218750D01*
G01*
X65701000Y72529250D01*
G75*
G02*
X65919750Y72748000I218750J0D01*
G01*
X66357250Y72748000D01*
G75*
G02*
X66576000Y72529250I0J-218750D01*
G01*
G37*
G04 #@! TD*
G04 #@! TO.C,D13*
G36*
G01*
X49388036Y15867214D02*
X49388036Y16379714D01*
G75*
G02*
X49606786Y16598464I218750J0D01*
G01*
X50044286Y16598464D01*
G75*
G02*
X50263036Y16379714I0J-218750D01*
G01*
X50263036Y15867214D01*
G75*
G02*
X50044286Y15648464I-218750J0D01*
G01*
X49606786Y15648464D01*
G75*
G02*
X49388036Y15867214I0J218750D01*
G01*
G37*
G36*
G01*
X50963036Y15867214D02*
X50963036Y16379714D01*
G75*
G02*
X51181786Y16598464I218750J0D01*
G01*
X51619286Y16598464D01*
G75*
G02*
X51838036Y16379714I0J-218750D01*
G01*
X51838036Y15867214D01*
G75*
G02*
X51619286Y15648464I-218750J0D01*
G01*
X51181786Y15648464D01*
G75*
G02*
X50963036Y15867214I0J218750D01*
G01*
G37*
G04 #@! TD*
G04 #@! TO.C,R22*
G36*
G01*
X138956000Y84958000D02*
X138956000Y84588000D01*
G75*
G02*
X138821000Y84453000I-135000J0D01*
G01*
X138551000Y84453000D01*
G75*
G02*
X138416000Y84588000I0J135000D01*
G01*
X138416000Y84958000D01*
G75*
G02*
X138551000Y85093000I135000J0D01*
G01*
X138821000Y85093000D01*
G75*
G02*
X138956000Y84958000I0J-135000D01*
G01*
G37*
G36*
G01*
X137936000Y84958000D02*
X137936000Y84588000D01*
G75*
G02*
X137801000Y84453000I-135000J0D01*
G01*
X137531000Y84453000D01*
G75*
G02*
X137396000Y84588000I0J135000D01*
G01*
X137396000Y84958000D01*
G75*
G02*
X137531000Y85093000I135000J0D01*
G01*
X137801000Y85093000D01*
G75*
G02*
X137936000Y84958000I0J-135000D01*
G01*
G37*
G04 #@! TD*
G04 #@! TO.C,D5*
G36*
G01*
X41438500Y41529250D02*
X41438500Y41016750D01*
G75*
G02*
X41219750Y40798000I-218750J0D01*
G01*
X40782250Y40798000D01*
G75*
G02*
X40563500Y41016750I0J218750D01*
G01*
X40563500Y41529250D01*
G75*
G02*
X40782250Y41748000I218750J0D01*
G01*
X41219750Y41748000D01*
G75*
G02*
X41438500Y41529250I0J-218750D01*
G01*
G37*
G36*
G01*
X39863500Y41529250D02*
X39863500Y41016750D01*
G75*
G02*
X39644750Y40798000I-218750J0D01*
G01*
X39207250Y40798000D01*
G75*
G02*
X38988500Y41016750I0J218750D01*
G01*
X38988500Y41529250D01*
G75*
G02*
X39207250Y41748000I218750J0D01*
G01*
X39644750Y41748000D01*
G75*
G02*
X39863500Y41529250I0J-218750D01*
G01*
G37*
G04 #@! TD*
D15*
G04 #@! TO.C,SW1*
X85357250Y11216750D03*
X88757250Y11216750D03*
G04 #@! TD*
G04 #@! TO.C,D6*
G36*
G01*
X41438500Y39779250D02*
X41438500Y39266750D01*
G75*
G02*
X41219750Y39048000I-218750J0D01*
G01*
X40782250Y39048000D01*
G75*
G02*
X40563500Y39266750I0J218750D01*
G01*
X40563500Y39779250D01*
G75*
G02*
X40782250Y39998000I218750J0D01*
G01*
X41219750Y39998000D01*
G75*
G02*
X41438500Y39779250I0J-218750D01*
G01*
G37*
G36*
G01*
X39863500Y39779250D02*
X39863500Y39266750D01*
G75*
G02*
X39644750Y39048000I-218750J0D01*
G01*
X39207250Y39048000D01*
G75*
G02*
X38988500Y39266750I0J218750D01*
G01*
X38988500Y39779250D01*
G75*
G02*
X39207250Y39998000I218750J0D01*
G01*
X39644750Y39998000D01*
G75*
G02*
X39863500Y39779250I0J-218750D01*
G01*
G37*
G04 #@! TD*
G04 #@! TO.C,R29*
G36*
G01*
X48956000Y36458000D02*
X48956000Y36088000D01*
G75*
G02*
X48821000Y35953000I-135000J0D01*
G01*
X48551000Y35953000D01*
G75*
G02*
X48416000Y36088000I0J135000D01*
G01*
X48416000Y36458000D01*
G75*
G02*
X48551000Y36593000I135000J0D01*
G01*
X48821000Y36593000D01*
G75*
G02*
X48956000Y36458000I0J-135000D01*
G01*
G37*
G36*
G01*
X47936000Y36458000D02*
X47936000Y36088000D01*
G75*
G02*
X47801000Y35953000I-135000J0D01*
G01*
X47531000Y35953000D01*
G75*
G02*
X47396000Y36088000I0J135000D01*
G01*
X47396000Y36458000D01*
G75*
G02*
X47531000Y36593000I135000J0D01*
G01*
X47801000Y36593000D01*
G75*
G02*
X47936000Y36458000I0J-135000D01*
G01*
G37*
G04 #@! TD*
G04 #@! TO.C,U4*
G36*
G01*
X90376000Y15323000D02*
X90376000Y15123000D01*
G75*
G02*
X90276000Y15023000I-100000J0D01*
G01*
X89926000Y15023000D01*
G75*
G02*
X89826000Y15123000I0J100000D01*
G01*
X89826000Y15323000D01*
G75*
G02*
X89926000Y15423000I100000J0D01*
G01*
X90276000Y15423000D01*
G75*
G02*
X90376000Y15323000I0J-100000D01*
G01*
G37*
G36*
G01*
X90376000Y15923000D02*
X90376000Y15723000D01*
G75*
G02*
X90276000Y15623000I-100000J0D01*
G01*
X89926000Y15623000D01*
G75*
G02*
X89826000Y15723000I0J100000D01*
G01*
X89826000Y15923000D01*
G75*
G02*
X89926000Y16023000I100000J0D01*
G01*
X90276000Y16023000D01*
G75*
G02*
X90376000Y15923000I0J-100000D01*
G01*
G37*
G36*
G01*
X89976000Y16623000D02*
X89976000Y16273000D01*
G75*
G02*
X89876000Y16173000I-100000J0D01*
G01*
X89676000Y16173000D01*
G75*
G02*
X89576000Y16273000I0J100000D01*
G01*
X89576000Y16623000D01*
G75*
G02*
X89676000Y16723000I100000J0D01*
G01*
X89876000Y16723000D01*
G75*
G02*
X89976000Y16623000I0J-100000D01*
G01*
G37*
G36*
G01*
X89376000Y16623000D02*
X89376000Y16273000D01*
G75*
G02*
X89276000Y16173000I-100000J0D01*
G01*
X89076000Y16173000D01*
G75*
G02*
X88976000Y16273000I0J100000D01*
G01*
X88976000Y16623000D01*
G75*
G02*
X89076000Y16723000I100000J0D01*
G01*
X89276000Y16723000D01*
G75*
G02*
X89376000Y16623000I0J-100000D01*
G01*
G37*
G36*
G01*
X88776000Y16623000D02*
X88776000Y16273000D01*
G75*
G02*
X88676000Y16173000I-100000J0D01*
G01*
X88476000Y16173000D01*
G75*
G02*
X88376000Y16273000I0J100000D01*
G01*
X88376000Y16623000D01*
G75*
G02*
X88476000Y16723000I100000J0D01*
G01*
X88676000Y16723000D01*
G75*
G02*
X88776000Y16623000I0J-100000D01*
G01*
G37*
G36*
G01*
X88526000Y15923000D02*
X88526000Y15723000D01*
G75*
G02*
X88426000Y15623000I-100000J0D01*
G01*
X88076000Y15623000D01*
G75*
G02*
X87976000Y15723000I0J100000D01*
G01*
X87976000Y15923000D01*
G75*
G02*
X88076000Y16023000I100000J0D01*
G01*
X88426000Y16023000D01*
G75*
G02*
X88526000Y15923000I0J-100000D01*
G01*
G37*
G36*
G01*
X88526000Y15323000D02*
X88526000Y15123000D01*
G75*
G02*
X88426000Y15023000I-100000J0D01*
G01*
X88076000Y15023000D01*
G75*
G02*
X87976000Y15123000I0J100000D01*
G01*
X87976000Y15323000D01*
G75*
G02*
X88076000Y15423000I100000J0D01*
G01*
X88426000Y15423000D01*
G75*
G02*
X88526000Y15323000I0J-100000D01*
G01*
G37*
G36*
G01*
X88776000Y14773000D02*
X88776000Y14423000D01*
G75*
G02*
X88676000Y14323000I-100000J0D01*
G01*
X88476000Y14323000D01*
G75*
G02*
X88376000Y14423000I0J100000D01*
G01*
X88376000Y14773000D01*
G75*
G02*
X88476000Y14873000I100000J0D01*
G01*
X88676000Y14873000D01*
G75*
G02*
X88776000Y14773000I0J-100000D01*
G01*
G37*
G36*
G01*
X89376000Y14773000D02*
X89376000Y14423000D01*
G75*
G02*
X89276000Y14323000I-100000J0D01*
G01*
X89076000Y14323000D01*
G75*
G02*
X88976000Y14423000I0J100000D01*
G01*
X88976000Y14773000D01*
G75*
G02*
X89076000Y14873000I100000J0D01*
G01*
X89276000Y14873000D01*
G75*
G02*
X89376000Y14773000I0J-100000D01*
G01*
G37*
G36*
G01*
X89976000Y14773000D02*
X89976000Y14423000D01*
G75*
G02*
X89876000Y14323000I-100000J0D01*
G01*
X89676000Y14323000D01*
G75*
G02*
X89576000Y14423000I0J100000D01*
G01*
X89576000Y14773000D01*
G75*
G02*
X89676000Y14873000I100000J0D01*
G01*
X89876000Y14873000D01*
G75*
G02*
X89976000Y14773000I0J-100000D01*
G01*
G37*
G04 #@! TD*
G04 #@! TO.C,R30*
G36*
G01*
X48146000Y39588000D02*
X48146000Y39958000D01*
G75*
G02*
X48281000Y40093000I135000J0D01*
G01*
X48551000Y40093000D01*
G75*
G02*
X48686000Y39958000I0J-135000D01*
G01*
X48686000Y39588000D01*
G75*
G02*
X48551000Y39453000I-135000J0D01*
G01*
X48281000Y39453000D01*
G75*
G02*
X48146000Y39588000I0J135000D01*
G01*
G37*
G36*
G01*
X49166000Y39588000D02*
X49166000Y39958000D01*
G75*
G02*
X49301000Y40093000I135000J0D01*
G01*
X49571000Y40093000D01*
G75*
G02*
X49706000Y39958000I0J-135000D01*
G01*
X49706000Y39588000D01*
G75*
G02*
X49571000Y39453000I-135000J0D01*
G01*
X49301000Y39453000D01*
G75*
G02*
X49166000Y39588000I0J135000D01*
G01*
G37*
G04 #@! TD*
G04 #@! TO.C,D26*
G36*
G01*
X68151000Y62779250D02*
X68151000Y62266750D01*
G75*
G02*
X67932250Y62048000I-218750J0D01*
G01*
X67494750Y62048000D01*
G75*
G02*
X67276000Y62266750I0J218750D01*
G01*
X67276000Y62779250D01*
G75*
G02*
X67494750Y62998000I218750J0D01*
G01*
X67932250Y62998000D01*
G75*
G02*
X68151000Y62779250I0J-218750D01*
G01*
G37*
G36*
G01*
X66576000Y62779250D02*
X66576000Y62266750D01*
G75*
G02*
X66357250Y62048000I-218750J0D01*
G01*
X65919750Y62048000D01*
G75*
G02*
X65701000Y62266750I0J218750D01*
G01*
X65701000Y62779250D01*
G75*
G02*
X65919750Y62998000I218750J0D01*
G01*
X66357250Y62998000D01*
G75*
G02*
X66576000Y62779250I0J-218750D01*
G01*
G37*
G04 #@! TD*
D16*
G04 #@! TO.C,RN1*
X75776000Y66323000D03*
X75776000Y67123000D03*
X75776000Y67923000D03*
X75776000Y68723000D03*
X74076000Y68723000D03*
X74076000Y67923000D03*
X74076000Y67123000D03*
X74076000Y66323000D03*
G04 #@! TD*
G04 #@! TO.C,R28*
G36*
G01*
X48956000Y37708000D02*
X48956000Y37338000D01*
G75*
G02*
X48821000Y37203000I-135000J0D01*
G01*
X48551000Y37203000D01*
G75*
G02*
X48416000Y37338000I0J135000D01*
G01*
X48416000Y37708000D01*
G75*
G02*
X48551000Y37843000I135000J0D01*
G01*
X48821000Y37843000D01*
G75*
G02*
X48956000Y37708000I0J-135000D01*
G01*
G37*
G36*
G01*
X47936000Y37708000D02*
X47936000Y37338000D01*
G75*
G02*
X47801000Y37203000I-135000J0D01*
G01*
X47531000Y37203000D01*
G75*
G02*
X47396000Y37338000I0J135000D01*
G01*
X47396000Y37708000D01*
G75*
G02*
X47531000Y37843000I135000J0D01*
G01*
X47801000Y37843000D01*
G75*
G02*
X47936000Y37708000I0J-135000D01*
G01*
G37*
G04 #@! TD*
G04 #@! TO.C,R11*
G36*
G01*
X134751000Y94098000D02*
X137601000Y94098000D01*
G75*
G02*
X137851000Y93848000I0J-250000D01*
G01*
X137851000Y93123000D01*
G75*
G02*
X137601000Y92873000I-250000J0D01*
G01*
X134751000Y92873000D01*
G75*
G02*
X134501000Y93123000I0J250000D01*
G01*
X134501000Y93848000D01*
G75*
G02*
X134751000Y94098000I250000J0D01*
G01*
G37*
G36*
G01*
X134751000Y88173000D02*
X137601000Y88173000D01*
G75*
G02*
X137851000Y87923000I0J-250000D01*
G01*
X137851000Y87198000D01*
G75*
G02*
X137601000Y86948000I-250000J0D01*
G01*
X134751000Y86948000D01*
G75*
G02*
X134501000Y87198000I0J250000D01*
G01*
X134501000Y87923000D01*
G75*
G02*
X134751000Y88173000I250000J0D01*
G01*
G37*
G04 #@! TD*
G04 #@! TO.C,C14*
G36*
G01*
X63231000Y20528000D02*
X63731000Y20528000D01*
G75*
G02*
X63956000Y20303000I0J-225000D01*
G01*
X63956000Y19853000D01*
G75*
G02*
X63731000Y19628000I-225000J0D01*
G01*
X63231000Y19628000D01*
G75*
G02*
X63006000Y19853000I0J225000D01*
G01*
X63006000Y20303000D01*
G75*
G02*
X63231000Y20528000I225000J0D01*
G01*
G37*
G36*
G01*
X63231000Y18978000D02*
X63731000Y18978000D01*
G75*
G02*
X63956000Y18753000I0J-225000D01*
G01*
X63956000Y18303000D01*
G75*
G02*
X63731000Y18078000I-225000J0D01*
G01*
X63231000Y18078000D01*
G75*
G02*
X63006000Y18303000I0J225000D01*
G01*
X63006000Y18753000D01*
G75*
G02*
X63231000Y18978000I225000J0D01*
G01*
G37*
G04 #@! TD*
G04 #@! TO.C,D17*
G36*
G01*
X121951000Y57416750D02*
X121951000Y57929250D01*
G75*
G02*
X122169750Y58148000I218750J0D01*
G01*
X122607250Y58148000D01*
G75*
G02*
X122826000Y57929250I0J-218750D01*
G01*
X122826000Y57416750D01*
G75*
G02*
X122607250Y57198000I-218750J0D01*
G01*
X122169750Y57198000D01*
G75*
G02*
X121951000Y57416750I0J218750D01*
G01*
G37*
G36*
G01*
X123526000Y57416750D02*
X123526000Y57929250D01*
G75*
G02*
X123744750Y58148000I218750J0D01*
G01*
X124182250Y58148000D01*
G75*
G02*
X124401000Y57929250I0J-218750D01*
G01*
X124401000Y57416750D01*
G75*
G02*
X124182250Y57198000I-218750J0D01*
G01*
X123744750Y57198000D01*
G75*
G02*
X123526000Y57416750I0J218750D01*
G01*
G37*
G04 #@! TD*
D20*
G04 #@! TO.C,M9*
X58754459Y81326709D03*
G04 #@! TD*
D11*
G04 #@! TO.C,JP2*
X17926000Y34253000D03*
D10*
X17926000Y34570500D03*
D11*
X17926000Y36793000D03*
D10*
X17926000Y36475500D03*
G04 #@! TD*
D20*
G04 #@! TO.C,M1*
X16034985Y33885113D03*
X15949784Y28382548D03*
X6709980Y26960113D03*
G36*
G01*
X7209989Y23960116D02*
X7209989Y23960116D01*
X7209989Y23960116D01*
X7209989Y23960116D01*
X7209989Y23960116D01*
G37*
G04 #@! TD*
G04 #@! TO.C,D4*
G36*
G01*
X41438500Y38029250D02*
X41438500Y37516750D01*
G75*
G02*
X41219750Y37298000I-218750J0D01*
G01*
X40782250Y37298000D01*
G75*
G02*
X40563500Y37516750I0J218750D01*
G01*
X40563500Y38029250D01*
G75*
G02*
X40782250Y38248000I218750J0D01*
G01*
X41219750Y38248000D01*
G75*
G02*
X41438500Y38029250I0J-218750D01*
G01*
G37*
G36*
G01*
X39863500Y38029250D02*
X39863500Y37516750D01*
G75*
G02*
X39644750Y37298000I-218750J0D01*
G01*
X39207250Y37298000D01*
G75*
G02*
X38988500Y37516750I0J218750D01*
G01*
X38988500Y38029250D01*
G75*
G02*
X39207250Y38248000I218750J0D01*
G01*
X39644750Y38248000D01*
G75*
G02*
X39863500Y38029250I0J-218750D01*
G01*
G37*
G04 #@! TD*
G04 #@! TO.C,R19*
G36*
G01*
X137396000Y65088000D02*
X137396000Y65458000D01*
G75*
G02*
X137531000Y65593000I135000J0D01*
G01*
X137801000Y65593000D01*
G75*
G02*
X137936000Y65458000I0J-135000D01*
G01*
X137936000Y65088000D01*
G75*
G02*
X137801000Y64953000I-135000J0D01*
G01*
X137531000Y64953000D01*
G75*
G02*
X137396000Y65088000I0J135000D01*
G01*
G37*
G36*
G01*
X138416000Y65088000D02*
X138416000Y65458000D01*
G75*
G02*
X138551000Y65593000I135000J0D01*
G01*
X138821000Y65593000D01*
G75*
G02*
X138956000Y65458000I0J-135000D01*
G01*
X138956000Y65088000D01*
G75*
G02*
X138821000Y64953000I-135000J0D01*
G01*
X138551000Y64953000D01*
G75*
G02*
X138416000Y65088000I0J135000D01*
G01*
G37*
G04 #@! TD*
G04 #@! TO.C,D7*
G36*
G01*
X78201000Y65516750D02*
X78201000Y66029250D01*
G75*
G02*
X78419750Y66248000I218750J0D01*
G01*
X78857250Y66248000D01*
G75*
G02*
X79076000Y66029250I0J-218750D01*
G01*
X79076000Y65516750D01*
G75*
G02*
X78857250Y65298000I-218750J0D01*
G01*
X78419750Y65298000D01*
G75*
G02*
X78201000Y65516750I0J218750D01*
G01*
G37*
G36*
G01*
X79776000Y65516750D02*
X79776000Y66029250D01*
G75*
G02*
X79994750Y66248000I218750J0D01*
G01*
X80432250Y66248000D01*
G75*
G02*
X80651000Y66029250I0J-218750D01*
G01*
X80651000Y65516750D01*
G75*
G02*
X80432250Y65298000I-218750J0D01*
G01*
X79994750Y65298000D01*
G75*
G02*
X79776000Y65516750I0J218750D01*
G01*
G37*
G04 #@! TD*
G04 #@! TO.C,C20*
G36*
G01*
X63596000Y39263000D02*
X63256000Y39263000D01*
G75*
G02*
X63116000Y39403000I0J140000D01*
G01*
X63116000Y39683000D01*
G75*
G02*
X63256000Y39823000I140000J0D01*
G01*
X63596000Y39823000D01*
G75*
G02*
X63736000Y39683000I0J-140000D01*
G01*
X63736000Y39403000D01*
G75*
G02*
X63596000Y39263000I-140000J0D01*
G01*
G37*
G36*
G01*
X63596000Y40223000D02*
X63256000Y40223000D01*
G75*
G02*
X63116000Y40363000I0J140000D01*
G01*
X63116000Y40643000D01*
G75*
G02*
X63256000Y40783000I140000J0D01*
G01*
X63596000Y40783000D01*
G75*
G02*
X63736000Y40643000I0J-140000D01*
G01*
X63736000Y40363000D01*
G75*
G02*
X63596000Y40223000I-140000J0D01*
G01*
G37*
G04 #@! TD*
G04 #@! TO.C,D30*
G36*
G01*
X68151000Y61029250D02*
X68151000Y60516750D01*
G75*
G02*
X67932250Y60298000I-218750J0D01*
G01*
X67494750Y60298000D01*
G75*
G02*
X67276000Y60516750I0J218750D01*
G01*
X67276000Y61029250D01*
G75*
G02*
X67494750Y61248000I218750J0D01*
G01*
X67932250Y61248000D01*
G75*
G02*
X68151000Y61029250I0J-218750D01*
G01*
G37*
G36*
G01*
X66576000Y61029250D02*
X66576000Y60516750D01*
G75*
G02*
X66357250Y60298000I-218750J0D01*
G01*
X65919750Y60298000D01*
G75*
G02*
X65701000Y60516750I0J218750D01*
G01*
X65701000Y61029250D01*
G75*
G02*
X65919750Y61248000I218750J0D01*
G01*
X66357250Y61248000D01*
G75*
G02*
X66576000Y61029250I0J-218750D01*
G01*
G37*
G04 #@! TD*
G04 #@! TO.C,C10*
G36*
G01*
X54561000Y20563000D02*
X54901000Y20563000D01*
G75*
G02*
X55041000Y20423000I0J-140000D01*
G01*
X55041000Y20143000D01*
G75*
G02*
X54901000Y20003000I-140000J0D01*
G01*
X54561000Y20003000D01*
G75*
G02*
X54421000Y20143000I0J140000D01*
G01*
X54421000Y20423000D01*
G75*
G02*
X54561000Y20563000I140000J0D01*
G01*
G37*
G36*
G01*
X54561000Y19603000D02*
X54901000Y19603000D01*
G75*
G02*
X55041000Y19463000I0J-140000D01*
G01*
X55041000Y19183000D01*
G75*
G02*
X54901000Y19043000I-140000J0D01*
G01*
X54561000Y19043000D01*
G75*
G02*
X54421000Y19183000I0J140000D01*
G01*
X54421000Y19463000D01*
G75*
G02*
X54561000Y19603000I140000J0D01*
G01*
G37*
G04 #@! TD*
G04 #@! TO.C,M2*
X121701003Y25648001D03*
G04 #@! TD*
G04 #@! TO.C,C9*
G36*
G01*
X57231000Y20528000D02*
X57731000Y20528000D01*
G75*
G02*
X57956000Y20303000I0J-225000D01*
G01*
X57956000Y19853000D01*
G75*
G02*
X57731000Y19628000I-225000J0D01*
G01*
X57231000Y19628000D01*
G75*
G02*
X57006000Y19853000I0J225000D01*
G01*
X57006000Y20303000D01*
G75*
G02*
X57231000Y20528000I225000J0D01*
G01*
G37*
G36*
G01*
X57231000Y18978000D02*
X57731000Y18978000D01*
G75*
G02*
X57956000Y18753000I0J-225000D01*
G01*
X57956000Y18303000D01*
G75*
G02*
X57731000Y18078000I-225000J0D01*
G01*
X57231000Y18078000D01*
G75*
G02*
X57006000Y18303000I0J225000D01*
G01*
X57006000Y18753000D01*
G75*
G02*
X57231000Y18978000I225000J0D01*
G01*
G37*
G04 #@! TD*
D26*
G04 #@! TO.C,D33*
X50926000Y41323000D03*
X50926000Y39223000D03*
G04 #@! TD*
G04 #@! TO.C,R17*
G36*
G01*
X137396000Y34838000D02*
X137396000Y35208000D01*
G75*
G02*
X137531000Y35343000I135000J0D01*
G01*
X137801000Y35343000D01*
G75*
G02*
X137936000Y35208000I0J-135000D01*
G01*
X137936000Y34838000D01*
G75*
G02*
X137801000Y34703000I-135000J0D01*
G01*
X137531000Y34703000D01*
G75*
G02*
X137396000Y34838000I0J135000D01*
G01*
G37*
G36*
G01*
X138416000Y34838000D02*
X138416000Y35208000D01*
G75*
G02*
X138551000Y35343000I135000J0D01*
G01*
X138821000Y35343000D01*
G75*
G02*
X138956000Y35208000I0J-135000D01*
G01*
X138956000Y34838000D01*
G75*
G02*
X138821000Y34703000I-135000J0D01*
G01*
X138551000Y34703000D01*
G75*
G02*
X138416000Y34838000I0J135000D01*
G01*
G37*
G04 #@! TD*
G04 #@! TO.C,C16*
G36*
G01*
X62176000Y39298000D02*
X61676000Y39298000D01*
G75*
G02*
X61451000Y39523000I0J225000D01*
G01*
X61451000Y39973000D01*
G75*
G02*
X61676000Y40198000I225000J0D01*
G01*
X62176000Y40198000D01*
G75*
G02*
X62401000Y39973000I0J-225000D01*
G01*
X62401000Y39523000D01*
G75*
G02*
X62176000Y39298000I-225000J0D01*
G01*
G37*
G36*
G01*
X62176000Y40848000D02*
X61676000Y40848000D01*
G75*
G02*
X61451000Y41073000I0J225000D01*
G01*
X61451000Y41523000D01*
G75*
G02*
X61676000Y41748000I225000J0D01*
G01*
X62176000Y41748000D01*
G75*
G02*
X62401000Y41523000I0J-225000D01*
G01*
X62401000Y41073000D01*
G75*
G02*
X62176000Y40848000I-225000J0D01*
G01*
G37*
G04 #@! TD*
G04 #@! TO.C,D32*
X54926000Y39223000D03*
X54926000Y41323000D03*
G04 #@! TD*
G04 #@! TO.C,C18*
G36*
G01*
X56061000Y20583000D02*
X56401000Y20583000D01*
G75*
G02*
X56541000Y20443000I0J-140000D01*
G01*
X56541000Y20163000D01*
G75*
G02*
X56401000Y20023000I-140000J0D01*
G01*
X56061000Y20023000D01*
G75*
G02*
X55921000Y20163000I0J140000D01*
G01*
X55921000Y20443000D01*
G75*
G02*
X56061000Y20583000I140000J0D01*
G01*
G37*
G36*
G01*
X56061000Y19623000D02*
X56401000Y19623000D01*
G75*
G02*
X56541000Y19483000I0J-140000D01*
G01*
X56541000Y19203000D01*
G75*
G02*
X56401000Y19063000I-140000J0D01*
G01*
X56061000Y19063000D01*
G75*
G02*
X55921000Y19203000I0J140000D01*
G01*
X55921000Y19483000D01*
G75*
G02*
X56061000Y19623000I140000J0D01*
G01*
G37*
G04 #@! TD*
M02*
